<?xml version="1.0" encoding="UTF-8" standalone="no"?>
<!DOCTYPE svg PUBLIC "-//W3C//DTD SVG 1.1//EN"
 "http://www.w3.org/Graphics/SVG/1.1/DTD/svg11.dtd">
<!-- Generated by graphviz version 2.38.0 (20140413.2041)
 -->
<!-- Title: %3 Pages: 1 -->
<svg width="273pt" height="1498pt"
 viewBox="0.00 0.00 273.00 1498.00" xmlns="http://www.w3.org/2000/svg" xmlns:xlink="http://www.w3.org/1999/xlink">
<g id="graph0" class="graph" transform="scale(1 1) rotate(0) translate(4 1494)">
<title>%3</title>
<polygon fill="white" stroke="none" points="-4,4 -4,-1494 269,-1494 269,4 -4,4"/>
<!-- pl1 -->
<g id="node1" class="node"><title>pl1</title>
<ellipse fill="none" stroke="black" cx="242" cy="-1472" rx="18" ry="18"/>
<text text-anchor="middle" x="242" y="-1468.3" font-family="Times,serif" font-size="14.00">pl1</text>
</g>
<!-- transition1 -->
<g id="node3" class="node"><title>transition1</title>
<polygon fill="none" stroke="black" points="237,-1418 201,-1418 201,-1417 237,-1417 237,-1418"/>
<text text-anchor="middle" x="188" y="-1421.8" font-family="Times,serif" font-size="14.00">req+</text>
</g>
<!-- pl1&#45;&gt;transition1 -->
<g id="edge1" class="edge"><title>pl1&#45;&gt;transition1</title>
<path fill="none" stroke="black" d="M235.099,-1455.1C228.536,-1439.97 219.58,-1419.34 219.027,-1418.06"/>
</g>
<!-- pl2 -->
<g id="node2" class="node"><title>pl2</title>
<ellipse fill="none" stroke="black" cx="219" cy="-1363" rx="18" ry="18"/>
<text text-anchor="middle" x="219" y="-1359.3" font-family="Times,serif" font-size="14.00">pl2</text>
</g>
<!-- transition2 -->
<g id="node5" class="node"><title>transition2</title>
<polygon fill="none" stroke="black" points="237,-1309 201,-1309 201,-1308 237,-1308 237,-1309"/>
<text text-anchor="middle" x="180" y="-1312.8" font-family="Times,serif" font-size="14.00">busctl+</text>
</g>
<!-- pl2&#45;&gt;transition2 -->
<g id="edge3" class="edge"><title>pl2&#45;&gt;transition2</title>
<path fill="none" stroke="black" d="M219,-1344.94C219,-1329.93 219,-1310.27 219,-1309.06"/>
</g>
<!-- transition1&#45;&gt;pl2 -->
<g id="edge2" class="edge"><title>transition1&#45;&gt;pl2</title>
<path fill="none" stroke="black" d="M219,-1416.85C219,-1415.37 219,-1403.32 219,-1391.1"/>
<polygon fill="black" stroke="black" points="222.5,-1391.02 219,-1381.02 215.5,-1391.02 222.5,-1391.02"/>
</g>
<!-- pl3 -->
<g id="node4" class="node"><title>pl3</title>
<ellipse fill="none" stroke="black" cx="219" cy="-1254" rx="18" ry="18"/>
<text text-anchor="middle" x="219" y="-1250.3" font-family="Times,serif" font-size="14.00">pl3</text>
</g>
<!-- transition3 -->
<g id="node7" class="node"><title>transition3</title>
<polygon fill="none" stroke="black" points="199,-1200 163,-1200 163,-1199 199,-1199 199,-1200"/>
<text text-anchor="middle" x="142" y="-1203.8" font-family="Times,serif" font-size="14.00">ackctl+</text>
</g>
<!-- pl3&#45;&gt;transition3 -->
<g id="edge5" class="edge"><title>pl3&#45;&gt;transition3</title>
<path fill="none" stroke="black" d="M208.817,-1238.8C197.912,-1223.59 182.03,-1201.44 181.048,-1200.07"/>
</g>
<!-- transition2&#45;&gt;pl3 -->
<g id="edge4" class="edge"><title>transition2&#45;&gt;pl3</title>
<path fill="none" stroke="black" d="M219,-1307.85C219,-1306.37 219,-1294.32 219,-1282.1"/>
<polygon fill="black" stroke="black" points="222.5,-1282.02 219,-1272.02 215.5,-1282.02 222.5,-1282.02"/>
</g>
<!-- pl4 -->
<g id="node6" class="node"><title>pl4</title>
<ellipse fill="none" stroke="black" cx="181" cy="-1145" rx="18" ry="18"/>
<text text-anchor="middle" x="181" y="-1141.3" font-family="Times,serif" font-size="14.00">pl4</text>
</g>
<!-- transition4 -->
<g id="node9" class="node"><title>transition4</title>
<polygon fill="none" stroke="black" points="199,-1091 163,-1091 163,-1090 199,-1090 199,-1091"/>
<text text-anchor="middle" x="140" y="-1094.8" font-family="Times,serif" font-size="14.00">reqbus+</text>
</g>
<!-- pl4&#45;&gt;transition4 -->
<g id="edge7" class="edge"><title>pl4&#45;&gt;transition4</title>
<path fill="none" stroke="black" d="M181,-1126.94C181,-1111.93 181,-1092.27 181,-1091.06"/>
</g>
<!-- transition3&#45;&gt;pl4 -->
<g id="edge6" class="edge"><title>transition3&#45;&gt;pl4</title>
<path fill="none" stroke="black" d="M181,-1198.85C181,-1197.37 181,-1185.32 181,-1173.1"/>
<polygon fill="black" stroke="black" points="184.5,-1173.02 181,-1163.02 177.5,-1173.02 184.5,-1173.02"/>
</g>
<!-- pl5 -->
<g id="node8" class="node"><title>pl5</title>
<ellipse fill="none" stroke="black" cx="181" cy="-1036" rx="18" ry="18"/>
<text text-anchor="middle" x="181" y="-1032.3" font-family="Times,serif" font-size="14.00">pl5</text>
</g>
<!-- transition5 -->
<g id="node11" class="node"><title>transition5</title>
<polygon fill="none" stroke="black" points="145,-982 109,-982 109,-981 145,-981 145,-982"/>
<text text-anchor="middle" x="85.5" y="-985.8" font-family="Times,serif" font-size="14.00">ackbus+</text>
</g>
<!-- pl5&#45;&gt;transition5 -->
<g id="edge9" class="edge"><title>pl5&#45;&gt;transition5</title>
<path fill="none" stroke="black" d="M168.476,-1022.71C153.022,-1007.54 128.586,-983.556 127.074,-982.072"/>
</g>
<!-- transition15 -->
<g id="node30" class="node"><title>transition15</title>
<polygon fill="none" stroke="black" points="199,-982 163,-982 163,-981 199,-981 199,-982"/>
<text text-anchor="middle" x="139" y="-985.8" font-family="Times,serif" font-size="14.00">nakbus+</text>
</g>
<!-- pl5&#45;&gt;transition15 -->
<g id="edge29" class="edge"><title>pl5&#45;&gt;transition15</title>
<path fill="none" stroke="black" d="M181,-1017.94C181,-1002.93 181,-983.273 181,-982.059"/>
</g>
<!-- transition4&#45;&gt;pl5 -->
<g id="edge8" class="edge"><title>transition4&#45;&gt;pl5</title>
<path fill="none" stroke="black" d="M181,-1089.85C181,-1088.37 181,-1076.32 181,-1064.1"/>
<polygon fill="black" stroke="black" points="184.5,-1064.02 181,-1054.02 177.5,-1064.02 184.5,-1064.02"/>
</g>
<!-- pl6 -->
<g id="node10" class="node"><title>pl6</title>
<ellipse fill="none" stroke="black" cx="127" cy="-927" rx="18" ry="18"/>
<text text-anchor="middle" x="127" y="-923.3" font-family="Times,serif" font-size="14.00">pl6</text>
</g>
<!-- transition6 -->
<g id="node13" class="node"><title>transition6</title>
<polygon fill="none" stroke="black" points="145,-873 109,-873 109,-872 145,-872 145,-873"/>
<text text-anchor="middle" x="54.5" y="-876.8" font-family="Times,serif" font-size="14.00">y1_allocoutbound+</text>
</g>
<!-- pl6&#45;&gt;transition6 -->
<g id="edge11" class="edge"><title>pl6&#45;&gt;transition6</title>
<path fill="none" stroke="black" d="M127,-908.939C127,-893.929 127,-874.273 127,-873.059"/>
</g>
<!-- transition5&#45;&gt;pl6 -->
<g id="edge10" class="edge"><title>transition5&#45;&gt;pl6</title>
<path fill="none" stroke="black" d="M127,-980.848C127,-979.368 127,-967.319 127,-955.1"/>
<polygon fill="black" stroke="black" points="130.5,-955.025 127,-945.025 123.5,-955.025 130.5,-955.025"/>
</g>
<!-- pl7 -->
<g id="node12" class="node"><title>pl7</title>
<ellipse fill="none" stroke="black" cx="127" cy="-818" rx="18" ry="18"/>
<text text-anchor="middle" x="127" y="-814.3" font-family="Times,serif" font-size="14.00">pl7</text>
</g>
<!-- transition7 -->
<g id="node15" class="node"><title>transition7</title>
<polygon fill="none" stroke="black" points="145,-764 109,-764 109,-763 145,-763 145,-764"/>
<text text-anchor="middle" x="88" y="-767.8" font-family="Times,serif" font-size="14.00">reqbus&#45;</text>
</g>
<!-- pl7&#45;&gt;transition7 -->
<g id="edge13" class="edge"><title>pl7&#45;&gt;transition7</title>
<path fill="none" stroke="black" d="M127,-799.939C127,-784.929 127,-765.273 127,-764.059"/>
</g>
<!-- transition6&#45;&gt;pl7 -->
<g id="edge12" class="edge"><title>transition6&#45;&gt;pl7</title>
<path fill="none" stroke="black" d="M127,-871.848C127,-870.368 127,-858.319 127,-846.1"/>
<polygon fill="black" stroke="black" points="130.5,-846.025 127,-836.025 123.5,-846.025 130.5,-846.025"/>
</g>
<!-- pl8 -->
<g id="node14" class="node"><title>pl8</title>
<ellipse fill="none" stroke="black" cx="127" cy="-709" rx="18" ry="18"/>
<text text-anchor="middle" x="127" y="-705.3" font-family="Times,serif" font-size="14.00">pl8</text>
</g>
<!-- transition8 -->
<g id="node17" class="node"><title>transition8</title>
<polygon fill="none" stroke="black" points="145,-655 109,-655 109,-654 145,-654 145,-655"/>
<text text-anchor="middle" x="87" y="-658.8" font-family="Times,serif" font-size="14.00">ackbus&#45;</text>
</g>
<!-- pl8&#45;&gt;transition8 -->
<g id="edge15" class="edge"><title>pl8&#45;&gt;transition8</title>
<path fill="none" stroke="black" d="M127,-690.939C127,-675.929 127,-656.273 127,-655.059"/>
</g>
<!-- transition7&#45;&gt;pl8 -->
<g id="edge14" class="edge"><title>transition7&#45;&gt;pl8</title>
<path fill="none" stroke="black" d="M127,-762.848C127,-761.368 127,-749.319 127,-737.1"/>
<polygon fill="black" stroke="black" points="130.5,-737.025 127,-727.025 123.5,-737.025 130.5,-737.025"/>
</g>
<!-- pl9 -->
<g id="node16" class="node"><title>pl9</title>
<ellipse fill="none" stroke="black" cx="127" cy="-600" rx="18" ry="18"/>
<text text-anchor="middle" x="127" y="-596.3" font-family="Times,serif" font-size="14.00">pl9</text>
</g>
<!-- transition9 -->
<g id="node19" class="node"><title>transition9</title>
<polygon fill="none" stroke="black" points="145,-546 109,-546 109,-545 145,-545 145,-546"/>
<text text-anchor="middle" x="89.5" y="-549.8" font-family="Times,serif" font-size="14.00">busctl&#45;</text>
</g>
<!-- pl9&#45;&gt;transition9 -->
<g id="edge17" class="edge"><title>pl9&#45;&gt;transition9</title>
<path fill="none" stroke="black" d="M127,-581.939C127,-566.929 127,-547.273 127,-546.059"/>
</g>
<!-- transition8&#45;&gt;pl9 -->
<g id="edge16" class="edge"><title>transition8&#45;&gt;pl9</title>
<path fill="none" stroke="black" d="M127,-653.848C127,-652.368 127,-640.319 127,-628.1"/>
<polygon fill="black" stroke="black" points="130.5,-628.025 127,-618.025 123.5,-628.025 130.5,-628.025"/>
</g>
<!-- pl10 -->
<g id="node18" class="node"><title>pl10</title>
<ellipse fill="none" stroke="black" cx="127" cy="-491" rx="18" ry="18"/>
<text text-anchor="middle" x="127" y="-487.3" font-family="Times,serif" font-size="14.00">pl10</text>
</g>
<!-- transition10 -->
<g id="node21" class="node"><title>transition10</title>
<polygon fill="none" stroke="black" points="145,-437 109,-437 109,-436 145,-436 145,-437"/>
<text text-anchor="middle" x="89.5" y="-440.8" font-family="Times,serif" font-size="14.00">ackctl&#45;</text>
</g>
<!-- pl10&#45;&gt;transition10 -->
<g id="edge19" class="edge"><title>pl10&#45;&gt;transition10</title>
<path fill="none" stroke="black" d="M127,-472.939C127,-457.929 127,-438.273 127,-437.059"/>
</g>
<!-- transition9&#45;&gt;pl10 -->
<g id="edge18" class="edge"><title>transition9&#45;&gt;pl10</title>
<path fill="none" stroke="black" d="M127,-544.848C127,-543.368 127,-531.319 127,-519.1"/>
<polygon fill="black" stroke="black" points="130.5,-519.025 127,-509.025 123.5,-519.025 130.5,-519.025"/>
</g>
<!-- pl11 -->
<g id="node20" class="node"><title>pl11</title>
<ellipse fill="none" stroke="black" cx="127" cy="-382" rx="18" ry="18"/>
<text text-anchor="middle" x="127" y="-378.3" font-family="Times,serif" font-size="14.00">pl11</text>
</g>
<!-- transition11 -->
<g id="node23" class="node"><title>transition11</title>
<polygon fill="none" stroke="black" points="145,-328 109,-328 109,-327 145,-327 145,-328"/>
<text text-anchor="middle" x="95" y="-331.8" font-family="Times,serif" font-size="14.00">ack+</text>
</g>
<!-- pl11&#45;&gt;transition11 -->
<g id="edge21" class="edge"><title>pl11&#45;&gt;transition11</title>
<path fill="none" stroke="black" d="M127,-363.939C127,-348.929 127,-329.273 127,-328.059"/>
</g>
<!-- transition10&#45;&gt;pl11 -->
<g id="edge20" class="edge"><title>transition10&#45;&gt;pl11</title>
<path fill="none" stroke="black" d="M127,-435.848C127,-434.368 127,-422.319 127,-410.1"/>
<polygon fill="black" stroke="black" points="130.5,-410.025 127,-400.025 123.5,-410.025 130.5,-410.025"/>
</g>
<!-- pl12 -->
<g id="node22" class="node"><title>pl12</title>
<ellipse fill="none" stroke="black" cx="127" cy="-273" rx="18" ry="18"/>
<text text-anchor="middle" x="127" y="-269.3" font-family="Times,serif" font-size="14.00">pl12</text>
</g>
<!-- transition12 -->
<g id="node25" class="node"><title>transition12</title>
<polygon fill="none" stroke="black" points="155,-219 119,-219 119,-218 155,-218 155,-219"/>
<text text-anchor="middle" x="107.5" y="-222.8" font-family="Times,serif" font-size="14.00">req&#45;</text>
</g>
<!-- pl12&#45;&gt;transition12 -->
<g id="edge23" class="edge"><title>pl12&#45;&gt;transition12</title>
<path fill="none" stroke="black" d="M130.164,-255.23C133.002,-240.188 136.757,-220.289 136.989,-219.06"/>
</g>
<!-- transition11&#45;&gt;pl12 -->
<g id="edge22" class="edge"><title>transition11&#45;&gt;pl12</title>
<path fill="none" stroke="black" d="M127,-326.848C127,-325.368 127,-313.319 127,-301.1"/>
<polygon fill="black" stroke="black" points="130.5,-301.025 127,-291.025 123.5,-301.025 130.5,-301.025"/>
</g>
<!-- pl13 -->
<g id="node24" class="node"><title>pl13</title>
<ellipse fill="none" stroke="black" cx="158" cy="-164" rx="18" ry="18"/>
<text text-anchor="middle" x="158" y="-160.3" font-family="Times,serif" font-size="14.00">pl13</text>
</g>
<!-- transition13 -->
<g id="node27" class="node"><title>transition13</title>
<polygon fill="none" stroke="black" points="196,-110 160,-110 160,-109 196,-109 196,-110"/>
<text text-anchor="middle" x="107" y="-113.8" font-family="Times,serif" font-size="14.00">y1_allocoutbound&#45;</text>
</g>
<!-- pl13&#45;&gt;transition13 -->
<g id="edge25" class="edge"><title>pl13&#45;&gt;transition13</title>
<path fill="none" stroke="black" d="M164.109,-146.81C169.807,-131.711 177.502,-111.321 177.977,-110.061"/>
</g>
<!-- transition12&#45;&gt;pl13 -->
<g id="edge24" class="edge"><title>transition12&#45;&gt;pl13</title>
<path fill="none" stroke="black" d="M137.06,-217.848C137.674,-216.3 142.87,-203.185 147.932,-190.409"/>
<polygon fill="black" stroke="black" points="151.269,-191.488 151.699,-180.902 144.762,-188.909 151.269,-191.488"/>
</g>
<!-- pl14 -->
<g id="node26" class="node"><title>pl14</title>
<ellipse fill="none" stroke="black" cx="199" cy="-55" rx="18" ry="18"/>
<text text-anchor="middle" x="199" y="-51.3" font-family="Times,serif" font-size="14.00">pl14</text>
</g>
<!-- transition14 -->
<g id="node28" class="node"><title>transition14</title>
<polygon fill="none" stroke="black" points="250,-1 214,-1 214,-0 250,-0 250,-1"/>
<text text-anchor="middle" x="201.5" y="-4.8" font-family="Times,serif" font-size="14.00">ack&#45;</text>
</g>
<!-- pl14&#45;&gt;transition14 -->
<g id="edge27" class="edge"><title>pl14&#45;&gt;transition14</title>
<path fill="none" stroke="black" d="M208.192,-39.2365C217.652,-24.0443 231.126,-2.40293 231.959,-1.06518"/>
</g>
<!-- transition13&#45;&gt;pl14 -->
<g id="edge26" class="edge"><title>transition13&#45;&gt;pl14</title>
<path fill="none" stroke="black" d="M178.06,-108.848C178.674,-107.3 183.87,-94.1847 188.932,-81.4085"/>
<polygon fill="black" stroke="black" points="192.269,-82.4879 192.699,-71.9017 185.762,-79.9093 192.269,-82.4879"/>
</g>
<!-- transition14&#45;&gt;pl1 -->
<g id="edge28" class="edge"><title>transition14&#45;&gt;pl1</title>
<path fill="none" stroke="black" d="M232.095,-1.16737C234.03,-4.60564 265,-60.3777 265,-109 265,-1364 265,-1364 265,-1364 265,-1392.25 257.243,-1423.77 250.738,-1445.24"/>
<polygon fill="black" stroke="black" points="247.358,-1444.33 247.685,-1454.92 254.033,-1446.43 247.358,-1444.33"/>
</g>
<!-- pl15 -->
<g id="node29" class="node"><title>pl15</title>
<ellipse fill="none" stroke="black" cx="181" cy="-927" rx="18" ry="18"/>
<text text-anchor="middle" x="181" y="-923.3" font-family="Times,serif" font-size="14.00">pl15</text>
</g>
<!-- transition16 -->
<g id="node32" class="node"><title>transition16</title>
<polygon fill="none" stroke="black" points="199,-873 163,-873 163,-872 199,-872 199,-873"/>
<text text-anchor="middle" x="108.5" y="-860.8" font-family="Times,serif" font-size="14.00">y0_allocoutbound+</text>
</g>
<!-- pl15&#45;&gt;transition16 -->
<g id="edge31" class="edge"><title>pl15&#45;&gt;transition16</title>
<path fill="none" stroke="black" d="M181,-908.939C181,-893.929 181,-874.273 181,-873.059"/>
</g>
<!-- transition15&#45;&gt;pl15 -->
<g id="edge30" class="edge"><title>transition15&#45;&gt;pl15</title>
<path fill="none" stroke="black" d="M181,-980.848C181,-979.368 181,-967.319 181,-955.1"/>
<polygon fill="black" stroke="black" points="184.5,-955.025 181,-945.025 177.5,-955.025 184.5,-955.025"/>
</g>
<!-- pl16 -->
<g id="node31" class="node"><title>pl16</title>
<ellipse fill="none" stroke="black" cx="181" cy="-818" rx="18" ry="18"/>
<text text-anchor="middle" x="181" y="-814.3" font-family="Times,serif" font-size="14.00">pl16</text>
</g>
<!-- transition17 -->
<g id="node34" class="node"><title>transition17</title>
<polygon fill="none" stroke="black" points="199,-764 163,-764 163,-763 199,-763 199,-764"/>
<text text-anchor="middle" x="142" y="-767.8" font-family="Times,serif" font-size="14.00">reqbus&#45;</text>
</g>
<!-- pl16&#45;&gt;transition17 -->
<g id="edge33" class="edge"><title>pl16&#45;&gt;transition17</title>
<path fill="none" stroke="black" d="M181,-799.939C181,-784.929 181,-765.273 181,-764.059"/>
</g>
<!-- transition16&#45;&gt;pl16 -->
<g id="edge32" class="edge"><title>transition16&#45;&gt;pl16</title>
<path fill="none" stroke="black" d="M181,-871.848C181,-870.368 181,-858.319 181,-846.1"/>
<polygon fill="black" stroke="black" points="184.5,-846.025 181,-836.025 177.5,-846.025 184.5,-846.025"/>
</g>
<!-- pl17 -->
<g id="node33" class="node"><title>pl17</title>
<ellipse fill="none" stroke="black" cx="181" cy="-709" rx="18" ry="18"/>
<text text-anchor="middle" x="181" y="-705.3" font-family="Times,serif" font-size="14.00">pl17</text>
</g>
<!-- transition18 -->
<g id="node36" class="node"><title>transition18</title>
<polygon fill="none" stroke="black" points="199,-655 163,-655 163,-654 199,-654 199,-655"/>
<text text-anchor="middle" x="140.5" y="-658.8" font-family="Times,serif" font-size="14.00">nakbus&#45;</text>
</g>
<!-- pl17&#45;&gt;transition18 -->
<g id="edge35" class="edge"><title>pl17&#45;&gt;transition18</title>
<path fill="none" stroke="black" d="M181,-690.939C181,-675.929 181,-656.273 181,-655.059"/>
</g>
<!-- transition17&#45;&gt;pl17 -->
<g id="edge34" class="edge"><title>transition17&#45;&gt;pl17</title>
<path fill="none" stroke="black" d="M181,-762.848C181,-761.368 181,-749.319 181,-737.1"/>
<polygon fill="black" stroke="black" points="184.5,-737.025 181,-727.025 177.5,-737.025 184.5,-737.025"/>
</g>
<!-- pl18 -->
<g id="node35" class="node"><title>pl18</title>
<ellipse fill="none" stroke="black" cx="181" cy="-600" rx="18" ry="18"/>
<text text-anchor="middle" x="181" y="-596.3" font-family="Times,serif" font-size="14.00">pl18</text>
</g>
<!-- transition19 -->
<g id="node38" class="node"><title>transition19</title>
<polygon fill="none" stroke="black" points="199,-546 163,-546 163,-545 199,-545 199,-546"/>
<text text-anchor="middle" x="143.5" y="-549.8" font-family="Times,serif" font-size="14.00">busctl&#45;</text>
</g>
<!-- pl18&#45;&gt;transition19 -->
<g id="edge37" class="edge"><title>pl18&#45;&gt;transition19</title>
<path fill="none" stroke="black" d="M181,-581.939C181,-566.929 181,-547.273 181,-546.059"/>
</g>
<!-- transition18&#45;&gt;pl18 -->
<g id="edge36" class="edge"><title>transition18&#45;&gt;pl18</title>
<path fill="none" stroke="black" d="M181,-653.848C181,-652.368 181,-640.319 181,-628.1"/>
<polygon fill="black" stroke="black" points="184.5,-628.025 181,-618.025 177.5,-628.025 184.5,-628.025"/>
</g>
<!-- pl19 -->
<g id="node37" class="node"><title>pl19</title>
<ellipse fill="none" stroke="black" cx="181" cy="-491" rx="18" ry="18"/>
<text text-anchor="middle" x="181" y="-487.3" font-family="Times,serif" font-size="14.00">pl19</text>
</g>
<!-- transition20 -->
<g id="node40" class="node"><title>transition20</title>
<polygon fill="none" stroke="black" points="199,-437 163,-437 163,-436 199,-436 199,-437"/>
<text text-anchor="middle" x="143.5" y="-440.8" font-family="Times,serif" font-size="14.00">ackctl&#45;</text>
</g>
<!-- pl19&#45;&gt;transition20 -->
<g id="edge39" class="edge"><title>pl19&#45;&gt;transition20</title>
<path fill="none" stroke="black" d="M181,-472.939C181,-457.929 181,-438.273 181,-437.059"/>
</g>
<!-- transition19&#45;&gt;pl19 -->
<g id="edge38" class="edge"><title>transition19&#45;&gt;pl19</title>
<path fill="none" stroke="black" d="M181,-544.848C181,-543.368 181,-531.319 181,-519.1"/>
<polygon fill="black" stroke="black" points="184.5,-519.025 181,-509.025 177.5,-519.025 184.5,-519.025"/>
</g>
<!-- pl20 -->
<g id="node39" class="node"><title>pl20</title>
<ellipse fill="none" stroke="black" cx="181" cy="-382" rx="18" ry="18"/>
<text text-anchor="middle" x="181" y="-378.3" font-family="Times,serif" font-size="14.00">pl20</text>
</g>
<!-- transition21 -->
<g id="node42" class="node"><title>transition21</title>
<polygon fill="none" stroke="black" points="199,-328 163,-328 163,-327 199,-327 199,-328"/>
<text text-anchor="middle" x="110" y="-315.8" font-family="Times,serif" font-size="14.00">y0_allocoutbound&#45;</text>
</g>
<!-- pl20&#45;&gt;transition21 -->
<g id="edge41" class="edge"><title>pl20&#45;&gt;transition21</title>
<path fill="none" stroke="black" d="M181,-363.939C181,-348.929 181,-329.273 181,-328.059"/>
</g>
<!-- transition20&#45;&gt;pl20 -->
<g id="edge40" class="edge"><title>transition20&#45;&gt;pl20</title>
<path fill="none" stroke="black" d="M181,-435.848C181,-434.368 181,-422.319 181,-410.1"/>
<polygon fill="black" stroke="black" points="184.5,-410.025 181,-400.025 177.5,-410.025 184.5,-410.025"/>
</g>
<!-- pl21 -->
<g id="node41" class="node"><title>pl21</title>
<ellipse fill="none" stroke="black" cx="181" cy="-273" rx="18" ry="18"/>
<text text-anchor="middle" x="181" y="-269.3" font-family="Times,serif" font-size="14.00">pl21</text>
</g>
<!-- transition22 -->
<g id="node43" class="node"><title>transition22</title>
<polygon fill="none" stroke="black" points="228,-219 192,-219 192,-218 228,-218 228,-219"/>
<text text-anchor="middle" x="171" y="-222.8" font-family="Times,serif" font-size="14.00">busctl+</text>
</g>
<!-- pl21&#45;&gt;transition22 -->
<g id="edge43" class="edge"><title>pl21&#45;&gt;transition22</title>
<path fill="none" stroke="black" d="M189.233,-256.954C197.538,-241.775 209.241,-220.386 209.965,-219.064"/>
</g>
<!-- transition21&#45;&gt;pl21 -->
<g id="edge42" class="edge"><title>transition21&#45;&gt;pl21</title>
<path fill="none" stroke="black" d="M181,-326.848C181,-325.368 181,-313.319 181,-301.1"/>
<polygon fill="black" stroke="black" points="184.5,-301.025 181,-291.025 177.5,-301.025 184.5,-301.025"/>
</g>
<!-- transition22&#45;&gt;pl3 -->
<g id="edge44" class="edge"><title>transition22&#45;&gt;pl3</title>
<path fill="none" stroke="black" d="M210.012,-219.043C210.527,-220.854 227,-279.168 227,-327 227,-1146 227,-1146 227,-1146 227,-1173.25 224.388,-1204.3 222.149,-1225.9"/>
<polygon fill="black" stroke="black" points="218.654,-1225.66 221.06,-1235.98 225.614,-1226.41 218.654,-1225.66"/>
</g>
</g>
</svg>
