<?xml version="1.0" encoding="UTF-8" standalone="no"?>
<!DOCTYPE svg PUBLIC "-//W3C//DTD SVG 1.1//EN"
 "http://www.w3.org/Graphics/SVG/1.1/DTD/svg11.dtd">
<!-- Generated by graphviz version 2.38.0 (20140413.2041)
 -->
<!-- Title: %3 Pages: 1 -->
<svg width="235pt" height="1498pt"
 viewBox="0.00 0.00 235.00 1498.00" xmlns="http://www.w3.org/2000/svg" xmlns:xlink="http://www.w3.org/1999/xlink">
<g id="graph0" class="graph" transform="scale(1 1) rotate(0) translate(4 1494)">
<title>%3</title>
<polygon fill="white" stroke="none" points="-4,4 -4,-1494 231,-1494 231,4 -4,4"/>
<!-- PL1 -->
<g id="node1" class="node"><title>PL1</title>
<ellipse fill="none" stroke="black" cx="177" cy="-1472" rx="18" ry="18"/>
<text text-anchor="middle" x="177" y="-1468.3" font-family="Times,serif" font-size="14.00">PL1</text>
</g>
<!-- transition1 -->
<g id="node3" class="node"><title>transition1</title>
<polygon fill="none" stroke="black" points="172,-1418 136,-1418 136,-1417 172,-1417 172,-1418"/>
<text text-anchor="middle" x="123" y="-1421.8" font-family="Times,serif" font-size="14.00">req+</text>
</g>
<!-- PL1&#45;&gt;transition1 -->
<g id="edge1" class="edge"><title>PL1&#45;&gt;transition1</title>
<path fill="none" stroke="black" d="M170.099,-1455.1C165.279,-1443.99 159.169,-1429.91 156.044,-1422.71"/>
<polygon fill="none" stroke="black" points="157.623,-1421.95 154.027,-1418.06 154.412,-1423.35 157.623,-1421.95"/>
</g>
<!-- PL2 -->
<g id="node2" class="node"><title>PL2</title>
<ellipse fill="none" stroke="black" cx="154" cy="-1363" rx="18" ry="18"/>
<text text-anchor="middle" x="154" y="-1359.3" font-family="Times,serif" font-size="14.00">PL2</text>
</g>
<!-- transition2 -->
<g id="node5" class="node"><title>transition2</title>
<polygon fill="none" stroke="black" points="165,-1309 129,-1309 129,-1308 165,-1308 165,-1309"/>
<text text-anchor="middle" x="108" y="-1312.8" font-family="Times,serif" font-size="14.00">busctl+</text>
</g>
<!-- PL2&#45;&gt;transition2 -->
<g id="edge3" class="edge"><title>PL2&#45;&gt;transition2</title>
<path fill="none" stroke="black" d="M151.747,-1344.94C150.353,-1334.39 148.655,-1321.53 147.715,-1314.41"/>
<polygon fill="none" stroke="black" points="149.398,-1313.79 147.008,-1309.06 145.928,-1314.25 149.398,-1313.79"/>
</g>
<!-- transition1&#45;&gt;PL2 -->
<g id="edge2" class="edge"><title>transition1&#45;&gt;PL2</title>
<path fill="none" stroke="black" d="M154,-1416.85C154,-1415.37 154,-1403.32 154,-1391.1"/>
<polygon fill="black" stroke="black" points="157.5,-1391.02 154,-1381.02 150.5,-1391.02 157.5,-1391.02"/>
</g>
<!-- PL3 -->
<g id="node4" class="node"><title>PL3</title>
<ellipse fill="none" stroke="black" cx="134" cy="-1254" rx="18" ry="18"/>
<text text-anchor="middle" x="134" y="-1250.3" font-family="Times,serif" font-size="14.00">PL3</text>
</g>
<!-- transition3 -->
<g id="node7" class="node"><title>transition3</title>
<polygon fill="none" stroke="black" points="152,-1200 116,-1200 116,-1199 152,-1199 152,-1200"/>
<text text-anchor="middle" x="95" y="-1203.8" font-family="Times,serif" font-size="14.00">ackctl+</text>
</g>
<!-- PL3&#45;&gt;transition3 -->
<g id="edge5" class="edge"><title>PL3&#45;&gt;transition3</title>
<path fill="none" stroke="black" d="M134,-1235.94C134,-1225.39 134,-1212.53 134,-1205.41"/>
<polygon fill="none" stroke="black" points="135.75,-1205.06 134,-1200.06 132.25,-1205.06 135.75,-1205.06"/>
</g>
<!-- transition2&#45;&gt;PL3 -->
<g id="edge4" class="edge"><title>transition2&#45;&gt;PL3</title>
<path fill="none" stroke="black" d="M146.963,-1307.85C146.594,-1306.34 143.546,-1293.92 140.499,-1281.5"/>
<polygon fill="black" stroke="black" points="143.888,-1280.62 138.107,-1271.74 137.09,-1282.29 143.888,-1280.62"/>
</g>
<!-- PL4 -->
<g id="node6" class="node"><title>PL4</title>
<ellipse fill="none" stroke="black" cx="134" cy="-1145" rx="18" ry="18"/>
<text text-anchor="middle" x="134" y="-1141.3" font-family="Times,serif" font-size="14.00">PL4</text>
</g>
<!-- transition4 -->
<g id="node9" class="node"><title>transition4</title>
<polygon fill="none" stroke="black" points="152,-1091 116,-1091 116,-1090 152,-1090 152,-1091"/>
<text text-anchor="middle" x="93" y="-1094.8" font-family="Times,serif" font-size="14.00">reqbus+</text>
</g>
<!-- PL4&#45;&gt;transition4 -->
<g id="edge7" class="edge"><title>PL4&#45;&gt;transition4</title>
<path fill="none" stroke="black" d="M134,-1126.94C134,-1116.39 134,-1103.53 134,-1096.41"/>
<polygon fill="none" stroke="black" points="135.75,-1096.06 134,-1091.06 132.25,-1096.06 135.75,-1096.06"/>
</g>
<!-- transition3&#45;&gt;PL4 -->
<g id="edge6" class="edge"><title>transition3&#45;&gt;PL4</title>
<path fill="none" stroke="black" d="M134,-1198.85C134,-1197.37 134,-1185.32 134,-1173.1"/>
<polygon fill="black" stroke="black" points="137.5,-1173.02 134,-1163.02 130.5,-1173.02 137.5,-1173.02"/>
</g>
<!-- PL5 -->
<g id="node8" class="node"><title>PL5</title>
<ellipse fill="none" stroke="black" cx="134" cy="-1036" rx="18" ry="18"/>
<text text-anchor="middle" x="134" y="-1032.3" font-family="Times,serif" font-size="14.00">PL5</text>
</g>
<!-- transition15 -->
<g id="node11" class="node"><title>transition15</title>
<polygon fill="none" stroke="black" points="145,-982 109,-982 109,-981 145,-981 145,-982"/>
<text text-anchor="middle" x="85" y="-985.8" font-family="Times,serif" font-size="14.00">nakbus+</text>
</g>
<!-- PL5&#45;&gt;transition15 -->
<g id="edge9" class="edge"><title>PL5&#45;&gt;transition15</title>
<path fill="none" stroke="black" d="M131.747,-1017.94C130.353,-1007.39 128.655,-994.534 127.715,-987.412"/>
<polygon fill="none" stroke="black" points="129.398,-986.787 127.008,-982.059 125.928,-987.245 129.398,-986.787"/>
</g>
<!-- transition5 -->
<g id="node26" class="node"><title>transition5</title>
<polygon fill="none" stroke="black" points="199,-982 163,-982 163,-981 199,-981 199,-982"/>
<text text-anchor="middle" x="139.5" y="-985.8" font-family="Times,serif" font-size="14.00">ackbus+</text>
</g>
<!-- PL5&#45;&gt;transition5 -->
<g id="edge25" class="edge"><title>PL5&#45;&gt;transition5</title>
<path fill="none" stroke="black" d="M145.618,-1021.9C156.152,-1010.02 171.008,-993.268 177.61,-985.823"/>
<polygon fill="none" stroke="black" points="178.93,-986.972 180.938,-982.07 176.311,-984.65 178.93,-986.972"/>
</g>
<!-- transition4&#45;&gt;PL5 -->
<g id="edge8" class="edge"><title>transition4&#45;&gt;PL5</title>
<path fill="none" stroke="black" d="M134,-1089.85C134,-1088.37 134,-1076.32 134,-1064.1"/>
<polygon fill="black" stroke="black" points="137.5,-1064.02 134,-1054.02 130.5,-1064.02 137.5,-1064.02"/>
</g>
<!-- PL15 -->
<g id="node10" class="node"><title>PL15</title>
<ellipse fill="none" stroke="black" cx="127" cy="-927" rx="18" ry="18"/>
<text text-anchor="middle" x="127" y="-923.3" font-family="Times,serif" font-size="14.00">PL15</text>
</g>
<!-- transition16 -->
<g id="node13" class="node"><title>transition16</title>
<polygon fill="none" stroke="black" points="145,-873 109,-873 109,-872 145,-872 145,-873"/>
<text text-anchor="middle" x="54.5" y="-876.8" font-family="Times,serif" font-size="14.00">y0_allocoutbound+</text>
</g>
<!-- PL15&#45;&gt;transition16 -->
<g id="edge11" class="edge"><title>PL15&#45;&gt;transition16</title>
<path fill="none" stroke="black" d="M127,-908.939C127,-898.385 127,-885.534 127,-878.412"/>
<polygon fill="none" stroke="black" points="128.75,-878.059 127,-873.059 125.25,-878.059 128.75,-878.059"/>
</g>
<!-- transition15&#45;&gt;PL15 -->
<g id="edge10" class="edge"><title>transition15&#45;&gt;PL15</title>
<path fill="none" stroke="black" d="M127,-980.848C127,-979.368 127,-967.319 127,-955.1"/>
<polygon fill="black" stroke="black" points="130.5,-955.025 127,-945.025 123.5,-955.025 130.5,-955.025"/>
</g>
<!-- PL16 -->
<g id="node12" class="node"><title>PL16</title>
<ellipse fill="none" stroke="black" cx="127" cy="-818" rx="18" ry="18"/>
<text text-anchor="middle" x="127" y="-814.3" font-family="Times,serif" font-size="14.00">PL16</text>
</g>
<!-- transition17 -->
<g id="node15" class="node"><title>transition17</title>
<polygon fill="none" stroke="black" points="145,-764 109,-764 109,-763 145,-763 145,-764"/>
<text text-anchor="middle" x="88" y="-767.8" font-family="Times,serif" font-size="14.00">reqbus&#45;</text>
</g>
<!-- PL16&#45;&gt;transition17 -->
<g id="edge13" class="edge"><title>PL16&#45;&gt;transition17</title>
<path fill="none" stroke="black" d="M127,-799.939C127,-789.385 127,-776.534 127,-769.412"/>
<polygon fill="none" stroke="black" points="128.75,-769.059 127,-764.059 125.25,-769.059 128.75,-769.059"/>
</g>
<!-- transition16&#45;&gt;PL16 -->
<g id="edge12" class="edge"><title>transition16&#45;&gt;PL16</title>
<path fill="none" stroke="black" d="M127,-871.848C127,-870.368 127,-858.319 127,-846.1"/>
<polygon fill="black" stroke="black" points="130.5,-846.025 127,-836.025 123.5,-846.025 130.5,-846.025"/>
</g>
<!-- PL17 -->
<g id="node14" class="node"><title>PL17</title>
<ellipse fill="none" stroke="black" cx="127" cy="-709" rx="18" ry="18"/>
<text text-anchor="middle" x="127" y="-705.3" font-family="Times,serif" font-size="14.00">PL17</text>
</g>
<!-- transition18 -->
<g id="node17" class="node"><title>transition18</title>
<polygon fill="none" stroke="black" points="145,-655 109,-655 109,-654 145,-654 145,-655"/>
<text text-anchor="middle" x="86.5" y="-658.8" font-family="Times,serif" font-size="14.00">nakbus&#45;</text>
</g>
<!-- PL17&#45;&gt;transition18 -->
<g id="edge15" class="edge"><title>PL17&#45;&gt;transition18</title>
<path fill="none" stroke="black" d="M127,-690.939C127,-680.385 127,-667.534 127,-660.412"/>
<polygon fill="none" stroke="black" points="128.75,-660.059 127,-655.059 125.25,-660.059 128.75,-660.059"/>
</g>
<!-- transition17&#45;&gt;PL17 -->
<g id="edge14" class="edge"><title>transition17&#45;&gt;PL17</title>
<path fill="none" stroke="black" d="M127,-762.848C127,-761.368 127,-749.319 127,-737.1"/>
<polygon fill="black" stroke="black" points="130.5,-737.025 127,-727.025 123.5,-737.025 130.5,-737.025"/>
</g>
<!-- PL18 -->
<g id="node16" class="node"><title>PL18</title>
<ellipse fill="none" stroke="black" cx="127" cy="-600" rx="18" ry="18"/>
<text text-anchor="middle" x="127" y="-596.3" font-family="Times,serif" font-size="14.00">PL18</text>
</g>
<!-- transition19 -->
<g id="node19" class="node"><title>transition19</title>
<polygon fill="none" stroke="black" points="145,-546 109,-546 109,-545 145,-545 145,-546"/>
<text text-anchor="middle" x="89.5" y="-549.8" font-family="Times,serif" font-size="14.00">busctl&#45;</text>
</g>
<!-- PL18&#45;&gt;transition19 -->
<g id="edge17" class="edge"><title>PL18&#45;&gt;transition19</title>
<path fill="none" stroke="black" d="M127,-581.939C127,-571.385 127,-558.534 127,-551.412"/>
<polygon fill="none" stroke="black" points="128.75,-551.059 127,-546.059 125.25,-551.059 128.75,-551.059"/>
</g>
<!-- transition18&#45;&gt;PL18 -->
<g id="edge16" class="edge"><title>transition18&#45;&gt;PL18</title>
<path fill="none" stroke="black" d="M127,-653.848C127,-652.368 127,-640.319 127,-628.1"/>
<polygon fill="black" stroke="black" points="130.5,-628.025 127,-618.025 123.5,-628.025 130.5,-628.025"/>
</g>
<!-- PL19 -->
<g id="node18" class="node"><title>PL19</title>
<ellipse fill="none" stroke="black" cx="127" cy="-491" rx="18" ry="18"/>
<text text-anchor="middle" x="127" y="-487.3" font-family="Times,serif" font-size="14.00">PL19</text>
</g>
<!-- transition20 -->
<g id="node21" class="node"><title>transition20</title>
<polygon fill="none" stroke="black" points="145,-437 109,-437 109,-436 145,-436 145,-437"/>
<text text-anchor="middle" x="89.5" y="-440.8" font-family="Times,serif" font-size="14.00">ackctl&#45;</text>
</g>
<!-- PL19&#45;&gt;transition20 -->
<g id="edge19" class="edge"><title>PL19&#45;&gt;transition20</title>
<path fill="none" stroke="black" d="M127,-472.939C127,-462.385 127,-449.534 127,-442.412"/>
<polygon fill="none" stroke="black" points="128.75,-442.059 127,-437.059 125.25,-442.059 128.75,-442.059"/>
</g>
<!-- transition19&#45;&gt;PL19 -->
<g id="edge18" class="edge"><title>transition19&#45;&gt;PL19</title>
<path fill="none" stroke="black" d="M127,-544.848C127,-543.368 127,-531.319 127,-519.1"/>
<polygon fill="black" stroke="black" points="130.5,-519.025 127,-509.025 123.5,-519.025 130.5,-519.025"/>
</g>
<!-- PL20 -->
<g id="node20" class="node"><title>PL20</title>
<ellipse fill="none" stroke="black" cx="127" cy="-382" rx="18" ry="18"/>
<text text-anchor="middle" x="127" y="-378.3" font-family="Times,serif" font-size="14.00">PL20</text>
</g>
<!-- transition21 -->
<g id="node23" class="node"><title>transition21</title>
<polygon fill="none" stroke="black" points="145,-328 109,-328 109,-327 145,-327 145,-328"/>
<text text-anchor="middle" x="56" y="-331.8" font-family="Times,serif" font-size="14.00">y0_allocoutbound&#45;</text>
</g>
<!-- PL20&#45;&gt;transition21 -->
<g id="edge21" class="edge"><title>PL20&#45;&gt;transition21</title>
<path fill="none" stroke="black" d="M127,-363.939C127,-353.385 127,-340.534 127,-333.412"/>
<polygon fill="none" stroke="black" points="128.75,-333.059 127,-328.059 125.25,-333.059 128.75,-333.059"/>
</g>
<!-- transition20&#45;&gt;PL20 -->
<g id="edge20" class="edge"><title>transition20&#45;&gt;PL20</title>
<path fill="none" stroke="black" d="M127,-435.848C127,-434.368 127,-422.319 127,-410.1"/>
<polygon fill="black" stroke="black" points="130.5,-410.025 127,-400.025 123.5,-410.025 130.5,-410.025"/>
</g>
<!-- PL21 -->
<g id="node22" class="node"><title>PL21</title>
<ellipse fill="none" stroke="black" cx="127" cy="-273" rx="18" ry="18"/>
<text text-anchor="middle" x="127" y="-269.3" font-family="Times,serif" font-size="14.00">PL21</text>
</g>
<!-- transition22 -->
<g id="node24" class="node"><title>transition22</title>
<polygon fill="none" stroke="black" points="122,-219 86,-219 86,-218 122,-218 122,-219"/>
<text text-anchor="middle" x="65" y="-222.8" font-family="Times,serif" font-size="14.00">busctl+</text>
</g>
<!-- PL21&#45;&gt;transition22 -->
<g id="edge23" class="edge"><title>PL21&#45;&gt;transition22</title>
<path fill="none" stroke="black" d="M120.099,-256.098C115.279,-244.992 109.169,-230.912 106.044,-223.71"/>
<polygon fill="none" stroke="black" points="107.623,-222.952 104.027,-219.062 104.412,-224.346 107.623,-222.952"/>
</g>
<!-- transition21&#45;&gt;PL21 -->
<g id="edge22" class="edge"><title>transition21&#45;&gt;PL21</title>
<path fill="none" stroke="black" d="M127,-326.848C127,-325.368 127,-313.319 127,-301.1"/>
<polygon fill="black" stroke="black" points="130.5,-301.025 127,-291.025 123.5,-301.025 130.5,-301.025"/>
</g>
<!-- transition22&#45;&gt;PL3 -->
<g id="edge24" class="edge"><title>transition22&#45;&gt;PL3</title>
<path fill="none" stroke="black" d="M103.983,-219.043C103.287,-220.839 81,-278.69 81,-327 81,-1146 81,-1146 81,-1146 81,-1178.47 100.839,-1211.26 116.241,-1231.83"/>
<polygon fill="black" stroke="black" points="113.591,-1234.12 122.5,-1239.85 119.112,-1229.82 113.591,-1234.12"/>
</g>
<!-- PL6 -->
<g id="node25" class="node"><title>PL6</title>
<ellipse fill="none" stroke="black" cx="181" cy="-927" rx="18" ry="18"/>
<text text-anchor="middle" x="181" y="-923.3" font-family="Times,serif" font-size="14.00">PL6</text>
</g>
<!-- transition6 -->
<g id="node28" class="node"><title>transition6</title>
<polygon fill="none" stroke="black" points="199,-873 163,-873 163,-872 199,-872 199,-873"/>
<text text-anchor="middle" x="108.5" y="-860.8" font-family="Times,serif" font-size="14.00">y1_allocoutbound+</text>
</g>
<!-- PL6&#45;&gt;transition6 -->
<g id="edge27" class="edge"><title>PL6&#45;&gt;transition6</title>
<path fill="none" stroke="black" d="M181,-908.939C181,-898.385 181,-885.534 181,-878.412"/>
<polygon fill="none" stroke="black" points="182.75,-878.059 181,-873.059 179.25,-878.059 182.75,-878.059"/>
</g>
<!-- transition5&#45;&gt;PL6 -->
<g id="edge26" class="edge"><title>transition5&#45;&gt;PL6</title>
<path fill="none" stroke="black" d="M181,-980.848C181,-979.368 181,-967.319 181,-955.1"/>
<polygon fill="black" stroke="black" points="184.5,-955.025 181,-945.025 177.5,-955.025 184.5,-955.025"/>
</g>
<!-- PL7 -->
<g id="node27" class="node"><title>PL7</title>
<ellipse fill="none" stroke="black" cx="181" cy="-818" rx="18" ry="18"/>
<text text-anchor="middle" x="181" y="-814.3" font-family="Times,serif" font-size="14.00">PL7</text>
</g>
<!-- transition7 -->
<g id="node30" class="node"><title>transition7</title>
<polygon fill="none" stroke="black" points="199,-764 163,-764 163,-763 199,-763 199,-764"/>
<text text-anchor="middle" x="142" y="-767.8" font-family="Times,serif" font-size="14.00">reqbus&#45;</text>
</g>
<!-- PL7&#45;&gt;transition7 -->
<g id="edge29" class="edge"><title>PL7&#45;&gt;transition7</title>
<path fill="none" stroke="black" d="M181,-799.939C181,-789.385 181,-776.534 181,-769.412"/>
<polygon fill="none" stroke="black" points="182.75,-769.059 181,-764.059 179.25,-769.059 182.75,-769.059"/>
</g>
<!-- transition6&#45;&gt;PL7 -->
<g id="edge28" class="edge"><title>transition6&#45;&gt;PL7</title>
<path fill="none" stroke="black" d="M181,-871.848C181,-870.368 181,-858.319 181,-846.1"/>
<polygon fill="black" stroke="black" points="184.5,-846.025 181,-836.025 177.5,-846.025 184.5,-846.025"/>
</g>
<!-- PL8 -->
<g id="node29" class="node"><title>PL8</title>
<ellipse fill="none" stroke="black" cx="181" cy="-709" rx="18" ry="18"/>
<text text-anchor="middle" x="181" y="-705.3" font-family="Times,serif" font-size="14.00">PL8</text>
</g>
<!-- transition8 -->
<g id="node32" class="node"><title>transition8</title>
<polygon fill="none" stroke="black" points="199,-655 163,-655 163,-654 199,-654 199,-655"/>
<text text-anchor="middle" x="141" y="-658.8" font-family="Times,serif" font-size="14.00">ackbus&#45;</text>
</g>
<!-- PL8&#45;&gt;transition8 -->
<g id="edge31" class="edge"><title>PL8&#45;&gt;transition8</title>
<path fill="none" stroke="black" d="M181,-690.939C181,-680.385 181,-667.534 181,-660.412"/>
<polygon fill="none" stroke="black" points="182.75,-660.059 181,-655.059 179.25,-660.059 182.75,-660.059"/>
</g>
<!-- transition7&#45;&gt;PL8 -->
<g id="edge30" class="edge"><title>transition7&#45;&gt;PL8</title>
<path fill="none" stroke="black" d="M181,-762.848C181,-761.368 181,-749.319 181,-737.1"/>
<polygon fill="black" stroke="black" points="184.5,-737.025 181,-727.025 177.5,-737.025 184.5,-737.025"/>
</g>
<!-- PL9 -->
<g id="node31" class="node"><title>PL9</title>
<ellipse fill="none" stroke="black" cx="181" cy="-600" rx="18" ry="18"/>
<text text-anchor="middle" x="181" y="-596.3" font-family="Times,serif" font-size="14.00">PL9</text>
</g>
<!-- transition9 -->
<g id="node34" class="node"><title>transition9</title>
<polygon fill="none" stroke="black" points="199,-546 163,-546 163,-545 199,-545 199,-546"/>
<text text-anchor="middle" x="143.5" y="-549.8" font-family="Times,serif" font-size="14.00">busctl&#45;</text>
</g>
<!-- PL9&#45;&gt;transition9 -->
<g id="edge33" class="edge"><title>PL9&#45;&gt;transition9</title>
<path fill="none" stroke="black" d="M181,-581.939C181,-571.385 181,-558.534 181,-551.412"/>
<polygon fill="none" stroke="black" points="182.75,-551.059 181,-546.059 179.25,-551.059 182.75,-551.059"/>
</g>
<!-- transition8&#45;&gt;PL9 -->
<g id="edge32" class="edge"><title>transition8&#45;&gt;PL9</title>
<path fill="none" stroke="black" d="M181,-653.848C181,-652.368 181,-640.319 181,-628.1"/>
<polygon fill="black" stroke="black" points="184.5,-628.025 181,-618.025 177.5,-628.025 184.5,-628.025"/>
</g>
<!-- PL10 -->
<g id="node33" class="node"><title>PL10</title>
<ellipse fill="none" stroke="black" cx="181" cy="-491" rx="18" ry="18"/>
<text text-anchor="middle" x="181" y="-487.3" font-family="Times,serif" font-size="14.00">PL10</text>
</g>
<!-- transition10 -->
<g id="node36" class="node"><title>transition10</title>
<polygon fill="none" stroke="black" points="199,-437 163,-437 163,-436 199,-436 199,-437"/>
<text text-anchor="middle" x="143.5" y="-440.8" font-family="Times,serif" font-size="14.00">ackctl&#45;</text>
</g>
<!-- PL10&#45;&gt;transition10 -->
<g id="edge35" class="edge"><title>PL10&#45;&gt;transition10</title>
<path fill="none" stroke="black" d="M181,-472.939C181,-462.385 181,-449.534 181,-442.412"/>
<polygon fill="none" stroke="black" points="182.75,-442.059 181,-437.059 179.25,-442.059 182.75,-442.059"/>
</g>
<!-- transition9&#45;&gt;PL10 -->
<g id="edge34" class="edge"><title>transition9&#45;&gt;PL10</title>
<path fill="none" stroke="black" d="M181,-544.848C181,-543.368 181,-531.319 181,-519.1"/>
<polygon fill="black" stroke="black" points="184.5,-519.025 181,-509.025 177.5,-519.025 184.5,-519.025"/>
</g>
<!-- PL11 -->
<g id="node35" class="node"><title>PL11</title>
<ellipse fill="none" stroke="black" cx="181" cy="-382" rx="18" ry="18"/>
<text text-anchor="middle" x="181" y="-378.3" font-family="Times,serif" font-size="14.00">PL11</text>
</g>
<!-- transition11 -->
<g id="node38" class="node"><title>transition11</title>
<polygon fill="none" stroke="black" points="199,-328 163,-328 163,-327 199,-327 199,-328"/>
<text text-anchor="middle" x="149" y="-331.8" font-family="Times,serif" font-size="14.00">ack+</text>
</g>
<!-- PL11&#45;&gt;transition11 -->
<g id="edge37" class="edge"><title>PL11&#45;&gt;transition11</title>
<path fill="none" stroke="black" d="M181,-363.939C181,-353.385 181,-340.534 181,-333.412"/>
<polygon fill="none" stroke="black" points="182.75,-333.059 181,-328.059 179.25,-333.059 182.75,-333.059"/>
</g>
<!-- transition10&#45;&gt;PL11 -->
<g id="edge36" class="edge"><title>transition10&#45;&gt;PL11</title>
<path fill="none" stroke="black" d="M181,-435.848C181,-434.368 181,-422.319 181,-410.1"/>
<polygon fill="black" stroke="black" points="184.5,-410.025 181,-400.025 177.5,-410.025 184.5,-410.025"/>
</g>
<!-- PL12 -->
<g id="node37" class="node"><title>PL12</title>
<ellipse fill="none" stroke="black" cx="181" cy="-273" rx="18" ry="18"/>
<text text-anchor="middle" x="181" y="-269.3" font-family="Times,serif" font-size="14.00">PL12</text>
</g>
<!-- transition12 -->
<g id="node40" class="node"><title>transition12</title>
<polygon fill="none" stroke="black" points="199,-219 163,-219 163,-218 199,-218 199,-219"/>
<text text-anchor="middle" x="151.5" y="-222.8" font-family="Times,serif" font-size="14.00">req&#45;</text>
</g>
<!-- PL12&#45;&gt;transition12 -->
<g id="edge39" class="edge"><title>PL12&#45;&gt;transition12</title>
<path fill="none" stroke="black" d="M181,-254.939C181,-244.385 181,-231.534 181,-224.412"/>
<polygon fill="none" stroke="black" points="182.75,-224.059 181,-219.059 179.25,-224.059 182.75,-224.059"/>
</g>
<!-- transition11&#45;&gt;PL12 -->
<g id="edge38" class="edge"><title>transition11&#45;&gt;PL12</title>
<path fill="none" stroke="black" d="M181,-326.848C181,-325.368 181,-313.319 181,-301.1"/>
<polygon fill="black" stroke="black" points="184.5,-301.025 181,-291.025 177.5,-301.025 184.5,-301.025"/>
</g>
<!-- PL13 -->
<g id="node39" class="node"><title>PL13</title>
<ellipse fill="none" stroke="black" cx="181" cy="-164" rx="18" ry="18"/>
<text text-anchor="middle" x="181" y="-160.3" font-family="Times,serif" font-size="14.00">PL13</text>
</g>
<!-- transition13 -->
<g id="node42" class="node"><title>transition13</title>
<polygon fill="none" stroke="black" points="199,-110 163,-110 163,-109 199,-109 199,-110"/>
<text text-anchor="middle" x="110" y="-113.8" font-family="Times,serif" font-size="14.00">y1_allocoutbound&#45;</text>
</g>
<!-- PL13&#45;&gt;transition13 -->
<g id="edge41" class="edge"><title>PL13&#45;&gt;transition13</title>
<path fill="none" stroke="black" d="M181,-145.939C181,-135.385 181,-122.534 181,-115.412"/>
<polygon fill="none" stroke="black" points="182.75,-115.059 181,-110.059 179.25,-115.059 182.75,-115.059"/>
</g>
<!-- transition12&#45;&gt;PL13 -->
<g id="edge40" class="edge"><title>transition12&#45;&gt;PL13</title>
<path fill="none" stroke="black" d="M181,-217.848C181,-216.368 181,-204.319 181,-192.1"/>
<polygon fill="black" stroke="black" points="184.5,-192.025 181,-182.025 177.5,-192.025 184.5,-192.025"/>
</g>
<!-- PL14 -->
<g id="node41" class="node"><title>PL14</title>
<ellipse fill="none" stroke="black" cx="181" cy="-55" rx="18" ry="18"/>
<text text-anchor="middle" x="181" y="-51.3" font-family="Times,serif" font-size="14.00">PL14</text>
</g>
<!-- transition14 -->
<g id="node43" class="node"><title>transition14</title>
<polygon fill="none" stroke="black" points="222,-1 186,-1 186,-0 222,-0 222,-1"/>
<text text-anchor="middle" x="173.5" y="-4.8" font-family="Times,serif" font-size="14.00">ack&#45;</text>
</g>
<!-- PL14&#45;&gt;transition14 -->
<g id="edge43" class="edge"><title>PL14&#45;&gt;transition14</title>
<path fill="none" stroke="black" d="M187.901,-38.0983C192.721,-26.9918 198.831,-12.9118 201.956,-5.7104"/>
<polygon fill="none" stroke="black" points="203.588,-6.34553 203.973,-1.06211 200.377,-4.95216 203.588,-6.34553"/>
</g>
<!-- transition13&#45;&gt;PL14 -->
<g id="edge42" class="edge"><title>transition13&#45;&gt;PL14</title>
<path fill="none" stroke="black" d="M181,-108.848C181,-107.368 181,-95.3194 181,-83.1004"/>
<polygon fill="black" stroke="black" points="184.5,-83.0247 181,-73.0247 177.5,-83.0248 184.5,-83.0247"/>
</g>
<!-- transition14&#45;&gt;PL1 -->
<g id="edge44" class="edge"><title>transition14&#45;&gt;PL1</title>
<path fill="none" stroke="black" d="M204.017,-1.04289C204.713,-2.83896 227,-60.6904 227,-109 227,-1364 227,-1364 227,-1364 227,-1395.94 208.493,-1428.62 193.997,-1449.32"/>
<polygon fill="black" stroke="black" points="191.156,-1447.27 188.097,-1457.42 196.814,-1451.4 191.156,-1447.27"/>
</g>
</g>
</svg>
