<?xml version="1.0" encoding="UTF-8" standalone="no"?>
<!DOCTYPE svg PUBLIC "-//W3C//DTD SVG 1.1//EN"
 "http://www.w3.org/Graphics/SVG/1.1/DTD/svg11.dtd">
<!-- Generated by graphviz version 2.38.0 (20140413.2041)
 -->
<!-- Title: %3 Pages: 1 -->
<svg width="325pt" height="2152pt"
 viewBox="0.00 0.00 325.00 2152.00" xmlns="http://www.w3.org/2000/svg" xmlns:xlink="http://www.w3.org/1999/xlink">
<g id="graph0" class="graph" transform="scale(1 1) rotate(0) translate(4 2148)">
<title>%3</title>
<polygon fill="white" stroke="none" points="-4,4 -4,-2148 321,-2148 321,4 -4,4"/>
<!-- p1 -->
<g id="node1" class="node"><title>p1</title>
<ellipse fill="none" stroke="black" cx="289" cy="-2126" rx="18" ry="18"/>
<text text-anchor="middle" x="289" y="-2122.3" font-family="Times,serif" font-size="14.00">p1</text>
</g>
<!-- transition0 -->
<g id="node3" class="node"><title>transition0</title>
<polygon fill="none" stroke="black" points="280,-2072 244,-2072 244,-2071 280,-2071 280,-2072"/>
<text text-anchor="middle" x="228" y="-2075.8" font-family="Times,serif" font-size="14.00">start+</text>
</g>
<!-- p1&#45;&gt;transition0 -->
<g id="edge1" class="edge"><title>p1&#45;&gt;transition0</title>
<path fill="none" stroke="black" d="M281.19,-2109.67C275.517,-2098.53 268.204,-2084.18 264.455,-2076.82"/>
<polygon fill="none" stroke="black" points="265.861,-2075.72 262.032,-2072.06 262.743,-2077.31 265.861,-2075.72"/>
</g>
<!-- p2 -->
<g id="node2" class="node"><title>p2</title>
<ellipse fill="none" stroke="black" cx="257" cy="-2017" rx="18" ry="18"/>
<text text-anchor="middle" x="257" y="-2013.3" font-family="Times,serif" font-size="14.00">p2</text>
</g>
<!-- transition1 -->
<g id="node5" class="node"><title>transition1</title>
<polygon fill="none" stroke="black" points="272,-1963 236,-1963 236,-1962 272,-1962 272,-1963"/>
<text text-anchor="middle" x="217.5" y="-1966.8" font-family="Times,serif" font-size="14.00">Prech&#45;</text>
</g>
<!-- p2&#45;&gt;transition1 -->
<g id="edge3" class="edge"><title>p2&#45;&gt;transition1</title>
<path fill="none" stroke="black" d="M256.034,-1998.94C255.437,-1988.39 254.709,-1975.53 254.306,-1968.41"/>
<polygon fill="none" stroke="black" points="256.033,-1967.95 254.003,-1963.06 252.539,-1968.15 256.033,-1967.95"/>
</g>
<!-- transition0&#45;&gt;p2 -->
<g id="edge2" class="edge"><title>transition0&#45;&gt;p2</title>
<path fill="none" stroke="black" d="M261.986,-2070.85C261.846,-2069.37 260.709,-2057.32 259.557,-2045.1"/>
<polygon fill="black" stroke="black" points="263.03,-2044.65 258.606,-2035.02 256.061,-2045.31 263.03,-2044.65"/>
</g>
<!-- p3 -->
<g id="node4" class="node"><title>p3</title>
<ellipse fill="none" stroke="black" cx="252" cy="-1908" rx="18" ry="18"/>
<text text-anchor="middle" x="252" y="-1904.3" font-family="Times,serif" font-size="14.00">p3</text>
</g>
<!-- transition26 -->
<g id="node7" class="node"><title>transition26</title>
<polygon fill="none" stroke="black" points="200,-1854 164,-1854 164,-1853 200,-1853 200,-1854"/>
<text text-anchor="middle" x="123.5" y="-1857.8" font-family="Times,serif" font-size="14.00">[C+]EvDone+</text>
</g>
<!-- p3&#45;&gt;transition26 -->
<g id="edge5" class="edge"><title>p3&#45;&gt;transition26</title>
<path fill="none" stroke="black" d="M237.834,-1896.27C221.735,-1884.08 196.388,-1864.89 186.325,-1857.27"/>
<polygon fill="none" stroke="black" points="187.145,-1855.7 182.102,-1854.08 185.032,-1858.49 187.145,-1855.7"/>
</g>
<!-- transition2 -->
<g id="node18" class="node"><title>transition2</title>
<polygon fill="none" stroke="black" points="270,-1854 234,-1854 234,-1853 270,-1853 270,-1854"/>
<text text-anchor="middle" x="195" y="-1841.8" font-family="Times,serif" font-size="14.00">[C&#45;]EvDone+</text>
</g>
<!-- p3&#45;&gt;transition2 -->
<g id="edge17" class="edge"><title>p3&#45;&gt;transition2</title>
<path fill="none" stroke="black" d="M252,-1889.94C252,-1879.39 252,-1866.53 252,-1859.41"/>
<polygon fill="none" stroke="black" points="253.75,-1859.06 252,-1854.06 250.25,-1859.06 253.75,-1859.06"/>
</g>
<!-- transition1&#45;&gt;p3 -->
<g id="edge4" class="edge"><title>transition1&#45;&gt;p3</title>
<path fill="none" stroke="black" d="M253.994,-1961.85C253.938,-1960.37 253.484,-1948.32 253.023,-1936.1"/>
<polygon fill="black" stroke="black" points="256.517,-1935.89 252.642,-1926.02 249.522,-1936.15 256.517,-1935.89"/>
</g>
<!-- p29 -->
<g id="node6" class="node"><title>p29</title>
<ellipse fill="none" stroke="black" cx="182" cy="-1799" rx="18" ry="18"/>
<text text-anchor="middle" x="182" y="-1795.3" font-family="Times,serif" font-size="14.00">p29</text>
</g>
<!-- transition27 -->
<g id="node9" class="node"><title>transition27</title>
<polygon fill="none" stroke="black" points="200,-1745 164,-1745 164,-1744 200,-1744 200,-1745"/>
<text text-anchor="middle" x="144" y="-1748.8" font-family="Times,serif" font-size="14.00">Prech+</text>
</g>
<!-- p29&#45;&gt;transition27 -->
<g id="edge7" class="edge"><title>p29&#45;&gt;transition27</title>
<path fill="none" stroke="black" d="M182,-1780.94C182,-1770.39 182,-1757.53 182,-1750.41"/>
<polygon fill="none" stroke="black" points="183.75,-1750.06 182,-1745.06 180.25,-1750.06 183.75,-1750.06"/>
</g>
<!-- transition26&#45;&gt;p29 -->
<g id="edge6" class="edge"><title>transition26&#45;&gt;p29</title>
<path fill="none" stroke="black" d="M182,-1852.85C182,-1851.37 182,-1839.32 182,-1827.1"/>
<polygon fill="black" stroke="black" points="185.5,-1827.02 182,-1817.02 178.5,-1827.02 185.5,-1827.02"/>
</g>
<!-- p25 -->
<g id="node8" class="node"><title>p25</title>
<ellipse fill="none" stroke="black" cx="182" cy="-1690" rx="18" ry="18"/>
<text text-anchor="middle" x="182" y="-1686.3" font-family="Times,serif" font-size="14.00">p25</text>
</g>
<!-- transition28 -->
<g id="node11" class="node"><title>transition28</title>
<polygon fill="none" stroke="black" points="200,-1636 164,-1636 164,-1635 200,-1635 200,-1636"/>
<text text-anchor="middle" x="138.5" y="-1639.8" font-family="Times,serif" font-size="14.00">EvDone&#45;</text>
</g>
<!-- p25&#45;&gt;transition28 -->
<g id="edge9" class="edge"><title>p25&#45;&gt;transition28</title>
<path fill="none" stroke="black" d="M182,-1671.94C182,-1661.39 182,-1648.53 182,-1641.41"/>
<polygon fill="none" stroke="black" points="183.75,-1641.06 182,-1636.06 180.25,-1641.06 183.75,-1641.06"/>
</g>
<!-- transition27&#45;&gt;p25 -->
<g id="edge8" class="edge"><title>transition27&#45;&gt;p25</title>
<path fill="none" stroke="black" d="M182,-1743.85C182,-1742.37 182,-1730.32 182,-1718.1"/>
<polygon fill="black" stroke="black" points="185.5,-1718.02 182,-1708.02 178.5,-1718.02 185.5,-1718.02"/>
</g>
<!-- p26 -->
<g id="node10" class="node"><title>p26</title>
<ellipse fill="none" stroke="black" cx="150" cy="-1581" rx="18" ry="18"/>
<text text-anchor="middle" x="150" y="-1577.3" font-family="Times,serif" font-size="14.00">p26</text>
</g>
<!-- transition29 -->
<g id="node13" class="node"><title>transition29</title>
<polygon fill="none" stroke="black" points="155,-1472.5 119,-1472.5 119,-1471.5 155,-1471.5 155,-1472.5"/>
<text text-anchor="middle" x="99.5" y="-1476.3" font-family="Times,serif" font-size="14.00">EndP+</text>
</g>
<!-- p26&#45;&gt;transition29 -->
<g id="edge11" class="edge"><title>p26&#45;&gt;transition29</title>
<path fill="none" stroke="black" d="M147.911,-1562.81C144.887,-1537.92 139.452,-1493.18 137.621,-1478.11"/>
<polygon fill="none" stroke="black" points="139.346,-1477.8 137.005,-1473.04 135.871,-1478.22 139.346,-1477.8"/>
</g>
<!-- transition28&#45;&gt;p26 -->
<g id="edge10" class="edge"><title>transition28&#45;&gt;p26</title>
<path fill="none" stroke="black" d="M181.908,-1634.85C180.931,-1633.23 172.326,-1618.98 164.299,-1605.68"/>
<polygon fill="black" stroke="black" points="167.1,-1603.55 158.935,-1596.8 161.108,-1607.17 167.1,-1603.55"/>
</g>
<!-- p27 -->
<g id="node12" class="node"><title>p27</title>
<ellipse fill="none" stroke="black" cx="179" cy="-164" rx="18" ry="18"/>
<text text-anchor="middle" x="179" y="-160.3" font-family="Times,serif" font-size="14.00">p27</text>
</g>
<!-- transition30 -->
<g id="node15" class="node"><title>transition30</title>
<polygon fill="none" stroke="black" points="243,-110 207,-110 207,-109 243,-109 243,-110"/>
<text text-anchor="middle" x="192.5" y="-113.8" font-family="Times,serif" font-size="14.00">start&#45;</text>
</g>
<!-- p27&#45;&gt;transition30 -->
<g id="edge13" class="edge"><title>p27&#45;&gt;transition30</title>
<path fill="none" stroke="black" d="M190.371,-149.899C200.474,-138.258 214.64,-121.936 221.285,-114.281"/>
<polygon fill="none" stroke="black" points="222.984,-114.993 224.939,-110.07 220.34,-112.699 222.984,-114.993"/>
</g>
<!-- transition29&#45;&gt;p27 -->
<g id="edge12" class="edge"><title>transition29&#45;&gt;p27</title>
<path fill="none" stroke="black" d="M136.997,-1470.96C136.876,-1469.15 133,-1410.85 133,-1364 133,-1364 133,-1364 133,-272 133,-240.824 149.686,-208.388 162.959,-187.519"/>
<polygon fill="black" stroke="black" points="165.96,-189.326 168.562,-179.055 160.123,-185.461 165.96,-189.326"/>
</g>
<!-- p28 -->
<g id="node14" class="node"><title>p28</title>
<ellipse fill="none" stroke="black" cx="248" cy="-55" rx="18" ry="18"/>
<text text-anchor="middle" x="248" y="-51.3" font-family="Times,serif" font-size="14.00">p28</text>
</g>
<!-- transition31 -->
<g id="node16" class="node"><title>transition31</title>
<polygon fill="none" stroke="black" points="300,-1 264,-1 264,-0 300,-0 300,-1"/>
<text text-anchor="middle" x="246" y="-4.8" font-family="Times,serif" font-size="14.00">EndP&#45;</text>
</g>
<!-- p28&#45;&gt;transition31 -->
<g id="edge15" class="edge"><title>p28&#45;&gt;transition31</title>
<path fill="none" stroke="black" d="M257.291,-39.5175C264.605,-28.1161 274.334,-12.9492 279.109,-5.50731"/>
<polygon fill="none" stroke="black" points="280.731,-6.21938 281.958,-1.06596 277.785,-4.32951 280.731,-6.21938"/>
</g>
<!-- transition30&#45;&gt;p28 -->
<g id="edge14" class="edge"><title>transition30&#45;&gt;p28</title>
<path fill="none" stroke="black" d="M225.066,-108.848C225.738,-107.3 231.429,-94.1847 236.974,-81.4085"/>
<polygon fill="black" stroke="black" points="240.329,-82.4686 241.099,-71.9017 233.908,-79.6819 240.329,-82.4686"/>
</g>
<!-- transition31&#45;&gt;p1 -->
<g id="edge16" class="edge"><title>transition31&#45;&gt;p1</title>
<path fill="none" stroke="black" d="M282.1,-1.16661C284.153,-4.58948 317,-60.1191 317,-109 317,-2018 317,-2018 317,-2018 317,-2046.68 307.47,-2078.31 299.53,-2099.69"/>
<polygon fill="black" stroke="black" points="296.263,-2098.44 295.921,-2109.03 302.792,-2100.96 296.263,-2098.44"/>
</g>
<!-- p4 -->
<g id="node17" class="node"><title>p4</title>
<ellipse fill="none" stroke="black" cx="252" cy="-1799" rx="18" ry="18"/>
<text text-anchor="middle" x="252" y="-1795.3" font-family="Times,serif" font-size="14.00">p4</text>
</g>
<!-- transition3 -->
<g id="node20" class="node"><title>transition3</title>
<polygon fill="none" stroke="black" points="270,-1745 234,-1745 234,-1744 270,-1744 270,-1745"/>
<text text-anchor="middle" x="176.5" y="-1732.8" font-family="Times,serif" font-size="14.00">Prech+A2M+seldx+</text>
</g>
<!-- p4&#45;&gt;transition3 -->
<g id="edge19" class="edge"><title>p4&#45;&gt;transition3</title>
<path fill="none" stroke="black" d="M252,-1780.94C252,-1770.39 252,-1757.53 252,-1750.41"/>
<polygon fill="none" stroke="black" points="253.75,-1750.06 252,-1745.06 250.25,-1750.06 253.75,-1750.06"/>
</g>
<!-- transition2&#45;&gt;p4 -->
<g id="edge18" class="edge"><title>transition2&#45;&gt;p4</title>
<path fill="none" stroke="black" d="M252,-1852.85C252,-1851.37 252,-1839.32 252,-1827.1"/>
<polygon fill="black" stroke="black" points="255.5,-1827.02 252,-1817.02 248.5,-1827.02 255.5,-1827.02"/>
</g>
<!-- p5 -->
<g id="node19" class="node"><title>p5</title>
<ellipse fill="none" stroke="black" cx="252" cy="-1690" rx="18" ry="18"/>
<text text-anchor="middle" x="252" y="-1686.3" font-family="Times,serif" font-size="14.00">p5</text>
</g>
<!-- transition4 -->
<g id="node22" class="node"><title>transition4</title>
<polygon fill="none" stroke="black" points="270,-1636 234,-1636 234,-1635 270,-1635 270,-1636"/>
<text text-anchor="middle" x="168.5" y="-1623.8" font-family="Times,serif" font-size="14.00">EvDone&#45;M1A*M2A2*</text>
</g>
<!-- p5&#45;&gt;transition4 -->
<g id="edge21" class="edge"><title>p5&#45;&gt;transition4</title>
<path fill="none" stroke="black" d="M252,-1671.94C252,-1661.39 252,-1648.53 252,-1641.41"/>
<polygon fill="none" stroke="black" points="253.75,-1641.06 252,-1636.06 250.25,-1641.06 253.75,-1641.06"/>
</g>
<!-- transition3&#45;&gt;p5 -->
<g id="edge20" class="edge"><title>transition3&#45;&gt;p5</title>
<path fill="none" stroke="black" d="M252,-1743.85C252,-1742.37 252,-1730.32 252,-1718.1"/>
<polygon fill="black" stroke="black" points="255.5,-1718.02 252,-1708.02 248.5,-1718.02 255.5,-1718.02"/>
</g>
<!-- p6 -->
<g id="node21" class="node"><title>p6</title>
<ellipse fill="none" stroke="black" cx="252" cy="-1581" rx="18" ry="18"/>
<text text-anchor="middle" x="252" y="-1577.3" font-family="Times,serif" font-size="14.00">p6</text>
</g>
<!-- transition5 -->
<g id="node24" class="node"><title>transition5</title>
<polygon fill="none" stroke="black" points="270,-1527 234,-1527 234,-1526 270,-1526 270,-1527"/>
<text text-anchor="middle" x="215.5" y="-1530.8" font-family="Times,serif" font-size="14.00">Prech&#45;</text>
</g>
<!-- p6&#45;&gt;transition5 -->
<g id="edge23" class="edge"><title>p6&#45;&gt;transition5</title>
<path fill="none" stroke="black" d="M252,-1562.94C252,-1552.39 252,-1539.53 252,-1532.41"/>
<polygon fill="none" stroke="black" points="253.75,-1532.06 252,-1527.06 250.25,-1532.06 253.75,-1532.06"/>
</g>
<!-- transition4&#45;&gt;p6 -->
<g id="edge22" class="edge"><title>transition4&#45;&gt;p6</title>
<path fill="none" stroke="black" d="M252,-1634.85C252,-1633.37 252,-1621.32 252,-1609.1"/>
<polygon fill="black" stroke="black" points="255.5,-1609.02 252,-1599.02 248.5,-1609.02 255.5,-1609.02"/>
</g>
<!-- p7 -->
<g id="node23" class="node"><title>p7</title>
<ellipse fill="none" stroke="black" cx="252" cy="-1472" rx="18" ry="18"/>
<text text-anchor="middle" x="252" y="-1468.3" font-family="Times,serif" font-size="14.00">p7</text>
</g>
<!-- transition6 -->
<g id="node26" class="node"><title>transition6</title>
<polygon fill="none" stroke="black" points="251,-1418 215,-1418 215,-1417 251,-1417 251,-1418"/>
<text text-anchor="middle" x="148" y="-1421.8" font-family="Times,serif" font-size="14.00">EvDone+M1A*M2A2*</text>
</g>
<!-- p7&#45;&gt;transition6 -->
<g id="edge25" class="edge"><title>p7&#45;&gt;transition6</title>
<path fill="none" stroke="black" d="M246.196,-1454.81C242.306,-1443.96 237.435,-1430.37 234.836,-1423.12"/>
<polygon fill="none" stroke="black" points="236.357,-1422.18 233.022,-1418.06 233.062,-1423.36 236.357,-1422.18"/>
</g>
<!-- transition5&#45;&gt;p7 -->
<g id="edge24" class="edge"><title>transition5&#45;&gt;p7</title>
<path fill="none" stroke="black" d="M252,-1525.85C252,-1524.37 252,-1512.32 252,-1500.1"/>
<polygon fill="black" stroke="black" points="255.5,-1500.02 252,-1490.02 248.5,-1500.02 255.5,-1500.02"/>
</g>
<!-- p8 -->
<g id="node25" class="node"><title>p8</title>
<ellipse fill="none" stroke="black" cx="233" cy="-1363" rx="18" ry="18"/>
<text text-anchor="middle" x="233" y="-1359.3" font-family="Times,serif" font-size="14.00">p8</text>
</g>
<!-- transition7 -->
<g id="node28" class="node"><title>transition7</title>
<polygon fill="none" stroke="black" points="251,-1309 215,-1309 215,-1308 251,-1308 251,-1309"/>
<text text-anchor="middle" x="164.5" y="-1312.8" font-family="Times,serif" font-size="14.00">Prech+LX+seldx&#45;</text>
</g>
<!-- p8&#45;&gt;transition7 -->
<g id="edge27" class="edge"><title>p8&#45;&gt;transition7</title>
<path fill="none" stroke="black" d="M233,-1344.94C233,-1334.39 233,-1321.53 233,-1314.41"/>
<polygon fill="none" stroke="black" points="234.75,-1314.06 233,-1309.06 231.25,-1314.06 234.75,-1314.06"/>
</g>
<!-- transition6&#45;&gt;p8 -->
<g id="edge26" class="edge"><title>transition6&#45;&gt;p8</title>
<path fill="none" stroke="black" d="M233,-1416.85C233,-1415.37 233,-1403.32 233,-1391.1"/>
<polygon fill="black" stroke="black" points="236.5,-1391.02 233,-1381.02 229.5,-1391.02 236.5,-1391.02"/>
</g>
<!-- p9 -->
<g id="node27" class="node"><title>p9</title>
<ellipse fill="none" stroke="black" cx="233" cy="-1254" rx="18" ry="18"/>
<text text-anchor="middle" x="233" y="-1250.3" font-family="Times,serif" font-size="14.00">p9</text>
</g>
<!-- transition8 -->
<g id="node30" class="node"><title>transition8</title>
<polygon fill="none" stroke="black" points="251,-1200 215,-1200 215,-1199 251,-1199 251,-1200"/>
<text text-anchor="middle" x="148.5" y="-1203.8" font-family="Times,serif" font-size="14.00">EvDone&#45;M1A+M2A2+</text>
</g>
<!-- p9&#45;&gt;transition8 -->
<g id="edge29" class="edge"><title>p9&#45;&gt;transition8</title>
<path fill="none" stroke="black" d="M233,-1235.94C233,-1225.39 233,-1212.53 233,-1205.41"/>
<polygon fill="none" stroke="black" points="234.75,-1205.06 233,-1200.06 231.25,-1205.06 234.75,-1205.06"/>
</g>
<!-- transition7&#45;&gt;p9 -->
<g id="edge28" class="edge"><title>transition7&#45;&gt;p9</title>
<path fill="none" stroke="black" d="M233,-1307.85C233,-1306.37 233,-1294.32 233,-1282.1"/>
<polygon fill="black" stroke="black" points="236.5,-1282.02 233,-1272.02 229.5,-1282.02 236.5,-1282.02"/>
</g>
<!-- p10 -->
<g id="node29" class="node"><title>p10</title>
<ellipse fill="none" stroke="black" cx="233" cy="-1145" rx="18" ry="18"/>
<text text-anchor="middle" x="233" y="-1141.3" font-family="Times,serif" font-size="14.00">p10</text>
</g>
<!-- transition9 -->
<g id="node32" class="node"><title>transition9</title>
<polygon fill="none" stroke="black" points="251,-1091 215,-1091 215,-1090 251,-1090 251,-1091"/>
<text text-anchor="middle" x="179.5" y="-1094.8" font-family="Times,serif" font-size="14.00">Prech&#45;A2M&#45;</text>
</g>
<!-- p10&#45;&gt;transition9 -->
<g id="edge31" class="edge"><title>p10&#45;&gt;transition9</title>
<path fill="none" stroke="black" d="M233,-1126.94C233,-1116.39 233,-1103.53 233,-1096.41"/>
<polygon fill="none" stroke="black" points="234.75,-1096.06 233,-1091.06 231.25,-1096.06 234.75,-1096.06"/>
</g>
<!-- transition8&#45;&gt;p10 -->
<g id="edge30" class="edge"><title>transition8&#45;&gt;p10</title>
<path fill="none" stroke="black" d="M233,-1198.85C233,-1197.37 233,-1185.32 233,-1173.1"/>
<polygon fill="black" stroke="black" points="236.5,-1173.02 233,-1163.02 229.5,-1173.02 236.5,-1173.02"/>
</g>
<!-- p11 -->
<g id="node31" class="node"><title>p11</title>
<ellipse fill="none" stroke="black" cx="233" cy="-1036" rx="18" ry="18"/>
<text text-anchor="middle" x="233" y="-1032.3" font-family="Times,serif" font-size="14.00">p11</text>
</g>
<!-- transition18 -->
<g id="node34" class="node"><title>transition18</title>
<polygon fill="none" stroke="black" points="197,-982 161,-982 161,-981 197,-981 197,-982"/>
<text text-anchor="middle" x="80.5" y="-985.8" font-family="Times,serif" font-size="14.00">[C+]EvDone+M1A*M2A2*</text>
</g>
<!-- p11&#45;&gt;transition18 -->
<g id="edge33" class="edge"><title>p11&#45;&gt;transition18</title>
<path fill="none" stroke="black" d="M220.476,-1022.71C208.402,-1010.86 190.847,-993.627 183.023,-985.948"/>
<polygon fill="none" stroke="black" points="183.868,-984.326 179.074,-982.072 181.416,-986.824 183.868,-984.326"/>
</g>
<!-- transition10 -->
<g id="node49" class="node"><title>transition10</title>
<polygon fill="none" stroke="black" points="251,-982 215,-982 215,-981 251,-981 251,-982"/>
<text text-anchor="middle" x="136" y="-969.8" font-family="Times,serif" font-size="14.00">[C&#45;]EvDone+M1A*M2A2*</text>
</g>
<!-- p11&#45;&gt;transition10 -->
<g id="edge49" class="edge"><title>p11&#45;&gt;transition10</title>
<path fill="none" stroke="black" d="M233,-1017.94C233,-1007.39 233,-994.534 233,-987.412"/>
<polygon fill="none" stroke="black" points="234.75,-987.059 233,-982.059 231.25,-987.059 234.75,-987.059"/>
</g>
<!-- transition9&#45;&gt;p11 -->
<g id="edge32" class="edge"><title>transition9&#45;&gt;p11</title>
<path fill="none" stroke="black" d="M233,-1089.85C233,-1088.37 233,-1076.32 233,-1064.1"/>
<polygon fill="black" stroke="black" points="236.5,-1064.02 233,-1054.02 229.5,-1064.02 236.5,-1064.02"/>
</g>
<!-- p30 -->
<g id="node33" class="node"><title>p30</title>
<ellipse fill="none" stroke="black" cx="179" cy="-927" rx="18" ry="18"/>
<text text-anchor="middle" x="179" y="-923.3" font-family="Times,serif" font-size="14.00">p30</text>
</g>
<!-- transition19 -->
<g id="node36" class="node"><title>transition19</title>
<polygon fill="none" stroke="black" points="197,-873 161,-873 161,-872 197,-872 197,-873"/>
<text text-anchor="middle" x="116.5" y="-876.8" font-family="Times,serif" font-size="14.00">Prech+selym2+</text>
</g>
<!-- p30&#45;&gt;transition19 -->
<g id="edge35" class="edge"><title>p30&#45;&gt;transition19</title>
<path fill="none" stroke="black" d="M179,-908.939C179,-898.385 179,-885.534 179,-878.412"/>
<polygon fill="none" stroke="black" points="180.75,-878.059 179,-873.059 177.25,-878.059 180.75,-878.059"/>
</g>
<!-- transition18&#45;&gt;p30 -->
<g id="edge34" class="edge"><title>transition18&#45;&gt;p30</title>
<path fill="none" stroke="black" d="M179,-980.848C179,-979.368 179,-967.319 179,-955.1"/>
<polygon fill="black" stroke="black" points="182.5,-955.025 179,-945.025 175.5,-955.025 182.5,-955.025"/>
</g>
<!-- p19 -->
<g id="node35" class="node"><title>p19</title>
<ellipse fill="none" stroke="black" cx="179" cy="-818" rx="18" ry="18"/>
<text text-anchor="middle" x="179" y="-814.3" font-family="Times,serif" font-size="14.00">p19</text>
</g>
<!-- transition20 -->
<g id="node38" class="node"><title>transition20</title>
<polygon fill="none" stroke="black" points="197,-764 161,-764 161,-763 197,-763 197,-764"/>
<text text-anchor="middle" x="95.5" y="-767.8" font-family="Times,serif" font-size="14.00">EvDone&#45;M1A*M2A2*</text>
</g>
<!-- p19&#45;&gt;transition20 -->
<g id="edge37" class="edge"><title>p19&#45;&gt;transition20</title>
<path fill="none" stroke="black" d="M179,-799.939C179,-789.385 179,-776.534 179,-769.412"/>
<polygon fill="none" stroke="black" points="180.75,-769.059 179,-764.059 177.25,-769.059 180.75,-769.059"/>
</g>
<!-- transition19&#45;&gt;p19 -->
<g id="edge36" class="edge"><title>transition19&#45;&gt;p19</title>
<path fill="none" stroke="black" d="M179,-871.848C179,-870.368 179,-858.319 179,-846.1"/>
<polygon fill="black" stroke="black" points="182.5,-846.025 179,-836.025 175.5,-846.025 182.5,-846.025"/>
</g>
<!-- p20 -->
<g id="node37" class="node"><title>p20</title>
<ellipse fill="none" stroke="black" cx="179" cy="-709" rx="18" ry="18"/>
<text text-anchor="middle" x="179" y="-705.3" font-family="Times,serif" font-size="14.00">p20</text>
</g>
<!-- transition21 -->
<g id="node40" class="node"><title>transition21</title>
<polygon fill="none" stroke="black" points="197,-655 161,-655 161,-654 197,-654 197,-655"/>
<text text-anchor="middle" x="131" y="-658.8" font-family="Times,serif" font-size="14.00">Prech&#45;LX&#45;</text>
</g>
<!-- p20&#45;&gt;transition21 -->
<g id="edge39" class="edge"><title>p20&#45;&gt;transition21</title>
<path fill="none" stroke="black" d="M179,-690.939C179,-680.385 179,-667.534 179,-660.412"/>
<polygon fill="none" stroke="black" points="180.75,-660.059 179,-655.059 177.25,-660.059 180.75,-660.059"/>
</g>
<!-- transition20&#45;&gt;p20 -->
<g id="edge38" class="edge"><title>transition20&#45;&gt;p20</title>
<path fill="none" stroke="black" d="M179,-762.848C179,-761.368 179,-749.319 179,-737.1"/>
<polygon fill="black" stroke="black" points="182.5,-737.025 179,-727.025 175.5,-737.025 182.5,-737.025"/>
</g>
<!-- p21 -->
<g id="node39" class="node"><title>p21</title>
<ellipse fill="none" stroke="black" cx="179" cy="-600" rx="18" ry="18"/>
<text text-anchor="middle" x="179" y="-596.3" font-family="Times,serif" font-size="14.00">p21</text>
</g>
<!-- transition22 -->
<g id="node42" class="node"><title>transition22</title>
<polygon fill="none" stroke="black" points="197,-546 161,-546 161,-545 197,-545 197,-546"/>
<text text-anchor="middle" x="96" y="-549.8" font-family="Times,serif" font-size="14.00">EvDone+M1A&#45;M2A2&#45;</text>
</g>
<!-- p21&#45;&gt;transition22 -->
<g id="edge41" class="edge"><title>p21&#45;&gt;transition22</title>
<path fill="none" stroke="black" d="M179,-581.939C179,-571.385 179,-558.534 179,-551.412"/>
<polygon fill="none" stroke="black" points="180.75,-551.059 179,-546.059 177.25,-551.059 180.75,-551.059"/>
</g>
<!-- transition21&#45;&gt;p21 -->
<g id="edge40" class="edge"><title>transition21&#45;&gt;p21</title>
<path fill="none" stroke="black" d="M179,-653.848C179,-652.368 179,-640.319 179,-628.1"/>
<polygon fill="black" stroke="black" points="182.5,-628.025 179,-618.025 175.5,-628.025 182.5,-628.025"/>
</g>
<!-- p22 -->
<g id="node41" class="node"><title>p22</title>
<ellipse fill="none" stroke="black" cx="179" cy="-491" rx="18" ry="18"/>
<text text-anchor="middle" x="179" y="-487.3" font-family="Times,serif" font-size="14.00">p22</text>
</g>
<!-- transition23 -->
<g id="node44" class="node"><title>transition23</title>
<polygon fill="none" stroke="black" points="197,-437 161,-437 161,-436 197,-436 197,-437"/>
<text text-anchor="middle" x="105" y="-440.8" font-family="Times,serif" font-size="14.00">Prech+LY+selym2&#45;</text>
</g>
<!-- p22&#45;&gt;transition23 -->
<g id="edge43" class="edge"><title>p22&#45;&gt;transition23</title>
<path fill="none" stroke="black" d="M179,-472.939C179,-462.385 179,-449.534 179,-442.412"/>
<polygon fill="none" stroke="black" points="180.75,-442.059 179,-437.059 177.25,-442.059 180.75,-442.059"/>
</g>
<!-- transition22&#45;&gt;p22 -->
<g id="edge42" class="edge"><title>transition22&#45;&gt;p22</title>
<path fill="none" stroke="black" d="M179,-544.848C179,-543.368 179,-531.319 179,-519.1"/>
<polygon fill="black" stroke="black" points="182.5,-519.025 179,-509.025 175.5,-519.025 182.5,-519.025"/>
</g>
<!-- p23 -->
<g id="node43" class="node"><title>p23</title>
<ellipse fill="none" stroke="black" cx="179" cy="-382" rx="18" ry="18"/>
<text text-anchor="middle" x="179" y="-378.3" font-family="Times,serif" font-size="14.00">p23</text>
</g>
<!-- transition24 -->
<g id="node46" class="node"><title>transition24</title>
<polygon fill="none" stroke="black" points="197,-328 161,-328 161,-327 197,-327 197,-328"/>
<text text-anchor="middle" x="135.5" y="-331.8" font-family="Times,serif" font-size="14.00">EvDone&#45;</text>
</g>
<!-- p23&#45;&gt;transition24 -->
<g id="edge45" class="edge"><title>p23&#45;&gt;transition24</title>
<path fill="none" stroke="black" d="M179,-363.939C179,-353.385 179,-340.534 179,-333.412"/>
<polygon fill="none" stroke="black" points="180.75,-333.059 179,-328.059 177.25,-333.059 180.75,-333.059"/>
</g>
<!-- transition23&#45;&gt;p23 -->
<g id="edge44" class="edge"><title>transition23&#45;&gt;p23</title>
<path fill="none" stroke="black" d="M179,-435.848C179,-434.368 179,-422.319 179,-410.1"/>
<polygon fill="black" stroke="black" points="182.5,-410.025 179,-400.025 175.5,-410.025 182.5,-410.025"/>
</g>
<!-- p24 -->
<g id="node45" class="node"><title>p24</title>
<ellipse fill="none" stroke="black" cx="179" cy="-273" rx="18" ry="18"/>
<text text-anchor="middle" x="179" y="-269.3" font-family="Times,serif" font-size="14.00">p24</text>
</g>
<!-- transition25 -->
<g id="node47" class="node"><title>transition25</title>
<polygon fill="none" stroke="black" points="197,-219 161,-219 161,-218 197,-218 197,-219"/>
<text text-anchor="middle" x="130" y="-222.8" font-family="Times,serif" font-size="14.00">LY&#45;EndP+</text>
</g>
<!-- p24&#45;&gt;transition25 -->
<g id="edge47" class="edge"><title>p24&#45;&gt;transition25</title>
<path fill="none" stroke="black" d="M179,-254.939C179,-244.385 179,-231.534 179,-224.412"/>
<polygon fill="none" stroke="black" points="180.75,-224.059 179,-219.059 177.25,-224.059 180.75,-224.059"/>
</g>
<!-- transition24&#45;&gt;p24 -->
<g id="edge46" class="edge"><title>transition24&#45;&gt;p24</title>
<path fill="none" stroke="black" d="M179,-326.848C179,-325.368 179,-313.319 179,-301.1"/>
<polygon fill="black" stroke="black" points="182.5,-301.025 179,-291.025 175.5,-301.025 182.5,-301.025"/>
</g>
<!-- transition25&#45;&gt;p27 -->
<g id="edge48" class="edge"><title>transition25&#45;&gt;p27</title>
<path fill="none" stroke="black" d="M179,-217.848C179,-216.368 179,-204.319 179,-192.1"/>
<polygon fill="black" stroke="black" points="182.5,-192.025 179,-182.025 175.5,-192.025 182.5,-192.025"/>
</g>
<!-- p12 -->
<g id="node48" class="node"><title>p12</title>
<ellipse fill="none" stroke="black" cx="233" cy="-927" rx="18" ry="18"/>
<text text-anchor="middle" x="233" y="-923.3" font-family="Times,serif" font-size="14.00">p12</text>
</g>
<!-- transition11 -->
<g id="node51" class="node"><title>transition11</title>
<polygon fill="none" stroke="black" points="251,-873 215,-873 215,-872 251,-872 251,-873"/>
<text text-anchor="middle" x="152" y="-860.8" font-family="Times,serif" font-size="14.00">Prech+seldx+selym2+</text>
</g>
<!-- p12&#45;&gt;transition11 -->
<g id="edge51" class="edge"><title>p12&#45;&gt;transition11</title>
<path fill="none" stroke="black" d="M233,-908.939C233,-898.385 233,-885.534 233,-878.412"/>
<polygon fill="none" stroke="black" points="234.75,-878.059 233,-873.059 231.25,-878.059 234.75,-878.059"/>
</g>
<!-- transition10&#45;&gt;p12 -->
<g id="edge50" class="edge"><title>transition10&#45;&gt;p12</title>
<path fill="none" stroke="black" d="M233,-980.848C233,-979.368 233,-967.319 233,-955.1"/>
<polygon fill="black" stroke="black" points="236.5,-955.025 233,-945.025 229.5,-955.025 236.5,-955.025"/>
</g>
<!-- p13 -->
<g id="node50" class="node"><title>p13</title>
<ellipse fill="none" stroke="black" cx="233" cy="-818" rx="18" ry="18"/>
<text text-anchor="middle" x="233" y="-814.3" font-family="Times,serif" font-size="14.00">p13</text>
</g>
<!-- transition12 -->
<g id="node53" class="node"><title>transition12</title>
<polygon fill="none" stroke="black" points="251,-764 215,-764 215,-763 251,-763 251,-764"/>
<text text-anchor="middle" x="149.5" y="-751.8" font-family="Times,serif" font-size="14.00">EvDone&#45;M1A*M2A2*</text>
</g>
<!-- p13&#45;&gt;transition12 -->
<g id="edge53" class="edge"><title>p13&#45;&gt;transition12</title>
<path fill="none" stroke="black" d="M233,-799.939C233,-789.385 233,-776.534 233,-769.412"/>
<polygon fill="none" stroke="black" points="234.75,-769.059 233,-764.059 231.25,-769.059 234.75,-769.059"/>
</g>
<!-- transition11&#45;&gt;p13 -->
<g id="edge52" class="edge"><title>transition11&#45;&gt;p13</title>
<path fill="none" stroke="black" d="M233,-871.848C233,-870.368 233,-858.319 233,-846.1"/>
<polygon fill="black" stroke="black" points="236.5,-846.025 233,-836.025 229.5,-846.025 236.5,-846.025"/>
</g>
<!-- p14 -->
<g id="node52" class="node"><title>p14</title>
<ellipse fill="none" stroke="black" cx="233" cy="-709" rx="18" ry="18"/>
<text text-anchor="middle" x="233" y="-705.3" font-family="Times,serif" font-size="14.00">p14</text>
</g>
<!-- transition13 -->
<g id="node55" class="node"><title>transition13</title>
<polygon fill="none" stroke="black" points="251,-655 215,-655 215,-654 251,-654 251,-655"/>
<text text-anchor="middle" x="185" y="-642.8" font-family="Times,serif" font-size="14.00">Prech&#45;LX&#45;</text>
</g>
<!-- p14&#45;&gt;transition13 -->
<g id="edge55" class="edge"><title>p14&#45;&gt;transition13</title>
<path fill="none" stroke="black" d="M233,-690.939C233,-680.385 233,-667.534 233,-660.412"/>
<polygon fill="none" stroke="black" points="234.75,-660.059 233,-655.059 231.25,-660.059 234.75,-660.059"/>
</g>
<!-- transition12&#45;&gt;p14 -->
<g id="edge54" class="edge"><title>transition12&#45;&gt;p14</title>
<path fill="none" stroke="black" d="M233,-762.848C233,-761.368 233,-749.319 233,-737.1"/>
<polygon fill="black" stroke="black" points="236.5,-737.025 233,-727.025 229.5,-737.025 236.5,-737.025"/>
</g>
<!-- p15 -->
<g id="node54" class="node"><title>p15</title>
<ellipse fill="none" stroke="black" cx="233" cy="-600" rx="18" ry="18"/>
<text text-anchor="middle" x="233" y="-596.3" font-family="Times,serif" font-size="14.00">p15</text>
</g>
<!-- transition14 -->
<g id="node57" class="node"><title>transition14</title>
<polygon fill="none" stroke="black" points="251,-546 215,-546 215,-545 251,-545 251,-546"/>
<text text-anchor="middle" x="150" y="-533.8" font-family="Times,serif" font-size="14.00">EvDone+M1A&#45;M2A2&#45;</text>
</g>
<!-- p15&#45;&gt;transition14 -->
<g id="edge57" class="edge"><title>p15&#45;&gt;transition14</title>
<path fill="none" stroke="black" d="M233,-581.939C233,-571.385 233,-558.534 233,-551.412"/>
<polygon fill="none" stroke="black" points="234.75,-551.059 233,-546.059 231.25,-551.059 234.75,-551.059"/>
</g>
<!-- transition13&#45;&gt;p15 -->
<g id="edge56" class="edge"><title>transition13&#45;&gt;p15</title>
<path fill="none" stroke="black" d="M233,-653.848C233,-652.368 233,-640.319 233,-628.1"/>
<polygon fill="black" stroke="black" points="236.5,-628.025 233,-618.025 229.5,-628.025 236.5,-628.025"/>
</g>
<!-- p16 -->
<g id="node56" class="node"><title>p16</title>
<ellipse fill="none" stroke="black" cx="233" cy="-491" rx="18" ry="18"/>
<text text-anchor="middle" x="233" y="-487.3" font-family="Times,serif" font-size="14.00">p16</text>
</g>
<!-- transition15 -->
<g id="node59" class="node"><title>transition15</title>
<polygon fill="none" stroke="black" points="251,-437 215,-437 215,-436 251,-436 251,-437"/>
<text text-anchor="middle" x="140.5" y="-424.8" font-family="Times,serif" font-size="14.00">Prech+LY+A2M+selym2&#45;</text>
</g>
<!-- p16&#45;&gt;transition15 -->
<g id="edge59" class="edge"><title>p16&#45;&gt;transition15</title>
<path fill="none" stroke="black" d="M233,-472.939C233,-462.385 233,-449.534 233,-442.412"/>
<polygon fill="none" stroke="black" points="234.75,-442.059 233,-437.059 231.25,-442.059 234.75,-442.059"/>
</g>
<!-- transition14&#45;&gt;p16 -->
<g id="edge58" class="edge"><title>transition14&#45;&gt;p16</title>
<path fill="none" stroke="black" d="M233,-544.848C233,-543.368 233,-531.319 233,-519.1"/>
<polygon fill="black" stroke="black" points="236.5,-519.025 233,-509.025 229.5,-519.025 236.5,-519.025"/>
</g>
<!-- p17 -->
<g id="node58" class="node"><title>p17</title>
<ellipse fill="none" stroke="black" cx="233" cy="-382" rx="18" ry="18"/>
<text text-anchor="middle" x="233" y="-378.3" font-family="Times,serif" font-size="14.00">p17</text>
</g>
<!-- transition16 -->
<g id="node61" class="node"><title>transition16</title>
<polygon fill="none" stroke="black" points="251,-328 215,-328 215,-327 251,-327 251,-328"/>
<text text-anchor="middle" x="149.5" y="-315.8" font-family="Times,serif" font-size="14.00">EvDone&#45;M1A*M2A2*</text>
</g>
<!-- p17&#45;&gt;transition16 -->
<g id="edge61" class="edge"><title>p17&#45;&gt;transition16</title>
<path fill="none" stroke="black" d="M233,-363.939C233,-353.385 233,-340.534 233,-333.412"/>
<polygon fill="none" stroke="black" points="234.75,-333.059 233,-328.059 231.25,-333.059 234.75,-333.059"/>
</g>
<!-- transition15&#45;&gt;p17 -->
<g id="edge60" class="edge"><title>transition15&#45;&gt;p17</title>
<path fill="none" stroke="black" d="M233,-435.848C233,-434.368 233,-422.319 233,-410.1"/>
<polygon fill="black" stroke="black" points="236.5,-410.025 233,-400.025 229.5,-410.025 236.5,-410.025"/>
</g>
<!-- p18 -->
<g id="node60" class="node"><title>p18</title>
<ellipse fill="none" stroke="black" cx="233" cy="-273" rx="18" ry="18"/>
<text text-anchor="middle" x="233" y="-269.3" font-family="Times,serif" font-size="14.00">p18</text>
</g>
<!-- transition17 -->
<g id="node62" class="node"><title>transition17</title>
<polygon fill="none" stroke="black" points="270,-219 234,-219 234,-218 270,-218 270,-219"/>
<text text-anchor="middle" x="204" y="-222.8" font-family="Times,serif" font-size="14.00">Prech&#45;LY&#45;</text>
</g>
<!-- p18&#45;&gt;transition17 -->
<g id="edge63" class="edge"><title>p18&#45;&gt;transition17</title>
<path fill="none" stroke="black" d="M238.804,-255.81C242.694,-244.958 247.565,-231.372 250.164,-224.121"/>
<polygon fill="none" stroke="black" points="251.938,-224.359 251.978,-219.061 248.643,-223.177 251.938,-224.359"/>
</g>
<!-- transition16&#45;&gt;p18 -->
<g id="edge62" class="edge"><title>transition16&#45;&gt;p18</title>
<path fill="none" stroke="black" d="M233,-326.848C233,-325.368 233,-313.319 233,-301.1"/>
<polygon fill="black" stroke="black" points="236.5,-301.025 233,-291.025 229.5,-301.025 236.5,-301.025"/>
</g>
<!-- transition17&#45;&gt;p7 -->
<g id="edge64" class="edge"><title>transition17&#45;&gt;p7</title>
<path fill="none" stroke="black" d="M252.077,-219.169C253.661,-222.649 279,-279.069 279,-327 279,-1364 279,-1364 279,-1364 279,-1392.48 269.894,-1423.97 262.258,-1445.37"/>
<polygon fill="black" stroke="black" points="258.88,-1444.41 258.674,-1455 265.441,-1446.85 258.88,-1444.41"/>
</g>
</g>
</svg>
