<?xml version="1.0" encoding="UTF-8" standalone="no"?>
<!DOCTYPE svg PUBLIC "-//W3C//DTD SVG 1.1//EN"
 "http://www.w3.org/Graphics/SVG/1.1/DTD/svg11.dtd">
<!-- Generated by graphviz version 2.38.0 (20140413.2041)
 -->
<!-- Title: %3 Pages: 1 -->
<svg width="215pt" height="1276pt"
 viewBox="0.00 0.00 215.00 1276.00" xmlns="http://www.w3.org/2000/svg" xmlns:xlink="http://www.w3.org/1999/xlink">
<g id="graph0" class="graph" transform="scale(1 1) rotate(0) translate(4 1272)">
<title>%3</title>
<polygon fill="white" stroke="none" points="-4,4 -4,-1272 211,-1272 211,4 -4,4"/>
<!-- p1 -->
<g id="node1" class="node"><title>p1</title>
<ellipse fill="none" stroke="black" cx="176" cy="-1250" rx="27" ry="18"/>
<text text-anchor="middle" x="176" y="-1246.3" font-family="Times,serif" font-size="14.00">p1</text>
</g>
<!-- transition1 -->
<g id="node2" class="node"><title>transition1</title>
<polygon fill="none" stroke="black" points="164,-1196 128,-1196 128,-1195 164,-1195 164,-1196"/>
<text text-anchor="middle" x="118" y="-1199.8" font-family="Times,serif" font-size="14.00">dr+</text>
</g>
<!-- p1&#45;&gt;transition1 -->
<g id="edge1" class="edge"><title>p1&#45;&gt;transition1</title>
<path fill="none" stroke="black" d="M166.836,-1232.81C158.289,-1217.71 146.748,-1197.32 146.035,-1196.06"/>
</g>
<!-- p2 -->
<g id="node3" class="node"><title>p2</title>
<ellipse fill="none" stroke="black" cx="63" cy="-1141" rx="27" ry="18"/>
<text text-anchor="middle" x="63" y="-1137.3" font-family="Times,serif" font-size="14.00">p2</text>
</g>
<!-- transition1&#45;&gt;p2 -->
<g id="edge2" class="edge"><title>transition1&#45;&gt;p2</title>
<path fill="none" stroke="black" d="M145.94,-1194.96C144.416,-1193.99 114.266,-1174.74 90.7527,-1159.72"/>
<polygon fill="black" stroke="black" points="92.4515,-1156.65 82.1396,-1154.22 88.6842,-1162.55 92.4515,-1156.65"/>
</g>
<!-- p14 -->
<g id="node19" class="node"><title>p14</title>
<ellipse fill="none" stroke="black" cx="146" cy="-1141" rx="27" ry="18"/>
<text text-anchor="middle" x="146" y="-1137.3" font-family="Times,serif" font-size="14.00">p14</text>
</g>
<!-- transition1&#45;&gt;p14 -->
<g id="edge19" class="edge"><title>transition1&#45;&gt;p14</title>
<path fill="none" stroke="black" d="M146,-1194.85C146,-1193.37 146,-1181.32 146,-1169.1"/>
<polygon fill="black" stroke="black" points="149.5,-1169.02 146,-1159.02 142.5,-1169.02 149.5,-1169.02"/>
</g>
<!-- transition2 -->
<g id="node5" class="node"><title>transition2</title>
<polygon fill="none" stroke="black" points="58,-1087 22,-1087 22,-1086 58,-1086 58,-1087"/>
<text text-anchor="middle" x="11" y="-1090.8" font-family="Times,serif" font-size="14.00">da+</text>
</g>
<!-- p2&#45;&gt;transition2 -->
<g id="edge3" class="edge"><title>p2&#45;&gt;transition2</title>
<path fill="none" stroke="black" d="M55.8487,-1123.52C49.308,-1108.45 40.5663,-1088.3 40.0263,-1087.06"/>
</g>
<!-- p3 -->
<g id="node4" class="node"><title>p3</title>
<ellipse fill="none" stroke="black" cx="34" cy="-1032" rx="27" ry="18"/>
<text text-anchor="middle" x="34" y="-1028.3" font-family="Times,serif" font-size="14.00">p3</text>
</g>
<!-- transition4 -->
<g id="node7" class="node"><title>transition4</title>
<polygon fill="none" stroke="black" points="75,-960.5 39,-960.5 39,-959.5 75,-959.5 75,-960.5"/>
<text text-anchor="middle" x="29.5" y="-964.3" font-family="Times,serif" font-size="14.00">zr+</text>
</g>
<!-- p3&#45;&gt;transition4 -->
<g id="edge5" class="edge"><title>p3&#45;&gt;transition4</title>
<path fill="none" stroke="black" d="M39.5677,-1014.05C46.1619,-993.986 56.3396,-963.01 56.9693,-961.093"/>
</g>
<!-- transition2&#45;&gt;p3 -->
<g id="edge4" class="edge"><title>transition2&#45;&gt;p3</title>
<path fill="none" stroke="black" d="M39.9828,-1085.85C39.8152,-1084.37 38.4512,-1072.32 37.068,-1060.1"/>
<polygon fill="black" stroke="black" points="40.5301,-1059.57 35.9273,-1050.02 33.5745,-1060.36 40.5301,-1059.57"/>
</g>
<!-- p4 -->
<g id="node6" class="node"><title>p4</title>
<ellipse fill="none" stroke="black" cx="57" cy="-888" rx="27" ry="18"/>
<text text-anchor="middle" x="57" y="-884.3" font-family="Times,serif" font-size="14.00">p4</text>
</g>
<!-- transition5 -->
<g id="node9" class="node"><title>transition5</title>
<polygon fill="none" stroke="black" points="75,-816.5 39,-816.5 39,-815.5 75,-815.5 75,-816.5"/>
<text text-anchor="middle" x="28.5" y="-820.3" font-family="Times,serif" font-size="14.00">za+</text>
</g>
<!-- p4&#45;&gt;transition5 -->
<g id="edge7" class="edge"><title>p4&#45;&gt;transition5</title>
<path fill="none" stroke="black" d="M57,-869.697C57,-849.615 57,-818.987 57,-817.092"/>
</g>
<!-- transition4&#45;&gt;p4 -->
<g id="edge6" class="edge"><title>transition4&#45;&gt;p4</title>
<path fill="none" stroke="black" d="M57,-958.949C57,-957.748 57,-935.429 57,-916.321"/>
<polygon fill="black" stroke="black" points="60.5001,-916.191 57,-906.191 53.5001,-916.191 60.5001,-916.191"/>
</g>
<!-- p5 -->
<g id="node8" class="node"><title>p5</title>
<ellipse fill="none" stroke="black" cx="57" cy="-744" rx="27" ry="18"/>
<text text-anchor="middle" x="57" y="-740.3" font-family="Times,serif" font-size="14.00">p5</text>
</g>
<!-- transition6 -->
<g id="node11" class="node"><title>transition6</title>
<polygon fill="none" stroke="black" points="75,-690 39,-690 39,-689 75,-689 75,-690"/>
<text text-anchor="middle" x="31.5" y="-693.8" font-family="Times,serif" font-size="14.00">x+</text>
</g>
<!-- p5&#45;&gt;transition6 -->
<g id="edge9" class="edge"><title>p5&#45;&gt;transition6</title>
<path fill="none" stroke="black" d="M57,-725.939C57,-710.929 57,-691.273 57,-690.059"/>
</g>
<!-- transition5&#45;&gt;p5 -->
<g id="edge8" class="edge"><title>transition5&#45;&gt;p5</title>
<path fill="none" stroke="black" d="M57,-814.949C57,-813.748 57,-791.429 57,-772.321"/>
<polygon fill="black" stroke="black" points="60.5001,-772.191 57,-762.191 53.5001,-772.191 60.5001,-772.191"/>
</g>
<!-- p6 -->
<g id="node10" class="node"><title>p6</title>
<ellipse fill="none" stroke="black" cx="57" cy="-635" rx="27" ry="18"/>
<text text-anchor="middle" x="57" y="-631.3" font-family="Times,serif" font-size="14.00">p6</text>
</g>
<!-- transition7 -->
<g id="node13" class="node"><title>transition7</title>
<polygon fill="none" stroke="black" points="75,-581 39,-581 39,-580 75,-580 75,-581"/>
<text text-anchor="middle" x="31" y="-584.8" font-family="Times,serif" font-size="14.00">zr&#45;</text>
</g>
<!-- p6&#45;&gt;transition7 -->
<g id="edge11" class="edge"><title>p6&#45;&gt;transition7</title>
<path fill="none" stroke="black" d="M57,-616.939C57,-601.929 57,-582.273 57,-581.059"/>
</g>
<!-- transition6&#45;&gt;p6 -->
<g id="edge10" class="edge"><title>transition6&#45;&gt;p6</title>
<path fill="none" stroke="black" d="M57,-688.848C57,-687.368 57,-675.319 57,-663.1"/>
<polygon fill="black" stroke="black" points="60.5001,-663.025 57,-653.025 53.5001,-663.025 60.5001,-663.025"/>
</g>
<!-- p7 -->
<g id="node12" class="node"><title>p7</title>
<ellipse fill="none" stroke="black" cx="34" cy="-526" rx="27" ry="18"/>
<text text-anchor="middle" x="34" y="-522.3" font-family="Times,serif" font-size="14.00">p7</text>
</g>
<!-- transition8 -->
<g id="node15" class="node"><title>transition8</title>
<polygon fill="none" stroke="black" points="56,-472 20,-472 20,-471 56,-471 56,-472"/>
<text text-anchor="middle" x="11" y="-475.8" font-family="Times,serif" font-size="14.00">za&#45;</text>
</g>
<!-- p7&#45;&gt;transition8 -->
<g id="edge13" class="edge"><title>p7&#45;&gt;transition8</title>
<path fill="none" stroke="black" d="M35.2876,-507.939C36.4204,-492.929 37.9039,-473.273 37.9955,-472.059"/>
</g>
<!-- transition7&#45;&gt;p7 -->
<g id="edge12" class="edge"><title>transition7&#45;&gt;p7</title>
<path fill="none" stroke="black" d="M56.934,-579.848C56.2705,-578.319 50.7122,-565.511 45.2343,-552.888"/>
<polygon fill="black" stroke="black" points="48.3351,-551.241 41.1434,-543.461 41.9137,-554.028 48.3351,-551.241"/>
</g>
<!-- p10 -->
<g id="node31" class="node"><title>p10</title>
<ellipse fill="none" stroke="black" cx="106" cy="-526" rx="27" ry="18"/>
<text text-anchor="middle" x="106" y="-522.3" font-family="Times,serif" font-size="14.00">p10</text>
</g>
<!-- transition7&#45;&gt;p10 -->
<g id="edge33" class="edge"><title>transition7&#45;&gt;p10</title>
<path fill="none" stroke="black" d="M57.1406,-579.848C58.6941,-578.168 72.8434,-562.863 85.5179,-549.154"/>
<polygon fill="black" stroke="black" points="88.0996,-551.517 92.3182,-541.799 82.9597,-546.765 88.0996,-551.517"/>
</g>
<!-- p8 -->
<g id="node14" class="node"><title>p8</title>
<ellipse fill="none" stroke="black" cx="59" cy="-345" rx="27" ry="18"/>
<text text-anchor="middle" x="59" y="-341.3" font-family="Times,serif" font-size="14.00">p8</text>
</g>
<!-- transition13 -->
<g id="node17" class="node"><title>transition13</title>
<polygon fill="none" stroke="black" points="143,-110 107,-110 107,-109 143,-109 143,-110"/>
<text text-anchor="middle" x="98.5" y="-113.8" font-family="Times,serif" font-size="14.00">lr+</text>
</g>
<!-- p8&#45;&gt;transition13 -->
<g id="edge15" class="edge"><title>p8&#45;&gt;transition13</title>
<path fill="none" stroke="black" d="M58.1152,-326.766C57.0023,-291.001 58.1887,-206.975 89,-146 98.886,-126.436 123.403,-110.992 124.926,-110.046"/>
</g>
<!-- transition8&#45;&gt;p8 -->
<g id="edge14" class="edge"><title>transition8&#45;&gt;p8</title>
<path fill="none" stroke="black" d="M38.0152,-470.909C38.4572,-468.279 48.4227,-408.96 54.4594,-373.028"/>
<polygon fill="black" stroke="black" points="57.914,-373.589 56.1193,-363.147 51.0108,-372.429 57.914,-373.589"/>
</g>
<!-- p9 -->
<g id="node16" class="node"><title>p9</title>
<ellipse fill="none" stroke="black" cx="139" cy="-55" rx="27" ry="18"/>
<text text-anchor="middle" x="139" y="-51.3" font-family="Times,serif" font-size="14.00">p9</text>
</g>
<!-- transition14 -->
<g id="node18" class="node"><title>transition14</title>
<polygon fill="none" stroke="black" points="191,-1 155,-1 155,-0 191,-0 191,-1"/>
<text text-anchor="middle" x="146" y="-4.8" font-family="Times,serif" font-size="14.00">la+</text>
</g>
<!-- p9&#45;&gt;transition14 -->
<g id="edge17" class="edge"><title>p9&#45;&gt;transition14</title>
<path fill="none" stroke="black" d="M149.201,-38.0983C158.903,-22.9746 172.142,-2.33719 172.96,-1.06211"/>
</g>
<!-- transition13&#45;&gt;p9 -->
<g id="edge16" class="edge"><title>transition13&#45;&gt;p9</title>
<path fill="none" stroke="black" d="M125.04,-108.848C125.435,-107.353 128.678,-95.0773 131.938,-82.7338"/>
<polygon fill="black" stroke="black" points="135.333,-83.587 134.503,-73.0247 128.565,-81.7992 135.333,-83.587"/>
</g>
<!-- transition14&#45;&gt;p1 -->
<g id="edge18" class="edge"><title>transition14&#45;&gt;p1</title>
<path fill="none" stroke="black" d="M173.098,-1.16699C175.092,-4.59767 207,-60.2502 207,-109 207,-1142 207,-1142 207,-1142 207,-1170.72 196.571,-1202.12 187.811,-1223.43"/>
<polygon fill="black" stroke="black" points="184.541,-1222.17 183.823,-1232.74 190.976,-1224.93 184.541,-1222.17"/>
</g>
<!-- transition3 -->
<g id="node21" class="node"><title>transition3</title>
<polygon fill="none" stroke="black" points="164,-1087 128,-1087 128,-1086 164,-1086 164,-1087"/>
<text text-anchor="middle" x="121" y="-1090.8" font-family="Times,serif" font-size="14.00">lr&#45;</text>
</g>
<!-- p14&#45;&gt;transition3 -->
<g id="edge20" class="edge"><title>p14&#45;&gt;transition3</title>
<path fill="none" stroke="black" d="M146,-1122.94C146,-1107.93 146,-1088.27 146,-1087.06"/>
</g>
<!-- p15 -->
<g id="node20" class="node"><title>p15</title>
<ellipse fill="none" stroke="black" cx="106" cy="-1032" rx="27" ry="18"/>
<text text-anchor="middle" x="106" y="-1028.3" font-family="Times,serif" font-size="14.00">p15</text>
</g>
<!-- p15&#45;&gt;transition4 -->
<g id="edge22" class="edge"><title>p15&#45;&gt;transition4</title>
<path fill="none" stroke="black" d="M95.1253,-1015.46C81.1406,-995.487 58.4716,-963.102 57.0684,-961.098"/>
</g>
<!-- transition3&#45;&gt;p15 -->
<g id="edge21" class="edge"><title>transition3&#45;&gt;p15</title>
<path fill="none" stroke="black" d="M145.885,-1085.85C144.656,-1084.22 133.761,-1069.78 123.669,-1056.41"/>
<polygon fill="black" stroke="black" points="126.401,-1054.22 117.583,-1048.35 120.814,-1058.44 126.401,-1054.22"/>
</g>
<!-- p16 -->
<g id="node22" class="node"><title>p16</title>
<ellipse fill="none" stroke="black" cx="152" cy="-960" rx="27" ry="18"/>
<text text-anchor="middle" x="152" y="-956.3" font-family="Times,serif" font-size="14.00">p16</text>
</g>
<!-- transition3&#45;&gt;p16 -->
<g id="edge23" class="edge"><title>transition3&#45;&gt;p16</title>
<path fill="none" stroke="black" d="M146.004,-1085.91C146.13,-1083.29 148.954,-1024.47 150.68,-988.491"/>
<polygon fill="black" stroke="black" points="154.193,-988.304 151.177,-978.147 147.201,-987.968 154.193,-988.304"/>
</g>
<!-- transition9 -->
<g id="node24" class="node"><title>transition9</title>
<polygon fill="none" stroke="black" points="170,-888.5 134,-888.5 134,-887.5 170,-887.5 170,-888.5"/>
<text text-anchor="middle" x="126.5" y="-892.3" font-family="Times,serif" font-size="14.00">la&#45;</text>
</g>
<!-- p16&#45;&gt;transition9 -->
<g id="edge24" class="edge"><title>p16&#45;&gt;transition9</title>
<path fill="none" stroke="black" d="M152,-941.697C152,-921.615 152,-890.987 152,-889.092"/>
</g>
<!-- p17 -->
<g id="node23" class="node"><title>p17</title>
<ellipse fill="none" stroke="black" cx="152" cy="-816" rx="27" ry="18"/>
<text text-anchor="middle" x="152" y="-812.3" font-family="Times,serif" font-size="14.00">p17</text>
</g>
<!-- transition10 -->
<g id="node26" class="node"><title>transition10</title>
<polygon fill="none" stroke="black" points="143,-472 107,-472 107,-471 143,-471 143,-472"/>
<text text-anchor="middle" x="98.5" y="-475.8" font-family="Times,serif" font-size="14.00">dr&#45;</text>
</g>
<!-- p17&#45;&gt;transition10 -->
<g id="edge26" class="edge"><title>p17&#45;&gt;transition10</title>
<path fill="none" stroke="black" d="M153.997,-798.044C156.649,-774.033 161,-728.728 161,-690 161,-690 161,-690 161,-580 161,-530.985 127.215,-475.581 125.103,-472.166"/>
</g>
<!-- transition9&#45;&gt;p17 -->
<g id="edge25" class="edge"><title>transition9&#45;&gt;p17</title>
<path fill="none" stroke="black" d="M152,-886.949C152,-885.748 152,-863.429 152,-844.321"/>
<polygon fill="black" stroke="black" points="155.5,-844.191 152,-834.191 148.5,-844.191 155.5,-844.191"/>
</g>
<!-- p11 -->
<g id="node25" class="node"><title>p11</title>
<ellipse fill="none" stroke="black" cx="125" cy="-417" rx="27" ry="18"/>
<text text-anchor="middle" x="125" y="-413.3" font-family="Times,serif" font-size="14.00">p11</text>
</g>
<!-- transition11 -->
<g id="node28" class="node"><title>transition11</title>
<polygon fill="none" stroke="black" points="143,-345.5 107,-345.5 107,-344.5 143,-344.5 143,-345.5"/>
<text text-anchor="middle" x="98" y="-349.3" font-family="Times,serif" font-size="14.00">da&#45;</text>
</g>
<!-- p11&#45;&gt;transition11 -->
<g id="edge28" class="edge"><title>p11&#45;&gt;transition11</title>
<path fill="none" stroke="black" d="M125,-398.697C125,-378.615 125,-347.987 125,-346.092"/>
</g>
<!-- transition10&#45;&gt;p11 -->
<g id="edge27" class="edge"><title>transition10&#45;&gt;p11</title>
<path fill="none" stroke="black" d="M125,-470.848C125,-469.368 125,-457.319 125,-445.1"/>
<polygon fill="black" stroke="black" points="128.5,-445.025 125,-435.025 121.5,-445.025 128.5,-445.025"/>
</g>
<!-- p12 -->
<g id="node27" class="node"><title>p12</title>
<ellipse fill="none" stroke="black" cx="125" cy="-273" rx="27" ry="18"/>
<text text-anchor="middle" x="125" y="-269.3" font-family="Times,serif" font-size="14.00">p12</text>
</g>
<!-- transition12 -->
<g id="node30" class="node"><title>transition12</title>
<polygon fill="none" stroke="black" points="143,-219 107,-219 107,-218 143,-218 143,-219"/>
<text text-anchor="middle" x="101" y="-222.8" font-family="Times,serif" font-size="14.00">x&#45;</text>
</g>
<!-- p12&#45;&gt;transition12 -->
<g id="edge30" class="edge"><title>p12&#45;&gt;transition12</title>
<path fill="none" stroke="black" d="M125,-254.939C125,-239.929 125,-220.273 125,-219.059"/>
</g>
<!-- transition11&#45;&gt;p12 -->
<g id="edge29" class="edge"><title>transition11&#45;&gt;p12</title>
<path fill="none" stroke="black" d="M125,-343.949C125,-342.748 125,-320.429 125,-301.321"/>
<polygon fill="black" stroke="black" points="128.5,-301.191 125,-291.191 121.5,-301.191 128.5,-301.191"/>
</g>
<!-- p13 -->
<g id="node29" class="node"><title>p13</title>
<ellipse fill="none" stroke="black" cx="125" cy="-164" rx="27" ry="18"/>
<text text-anchor="middle" x="125" y="-160.3" font-family="Times,serif" font-size="14.00">p13</text>
</g>
<!-- p13&#45;&gt;transition13 -->
<g id="edge32" class="edge"><title>p13&#45;&gt;transition13</title>
<path fill="none" stroke="black" d="M125,-145.939C125,-130.929 125,-111.273 125,-110.059"/>
</g>
<!-- transition12&#45;&gt;p13 -->
<g id="edge31" class="edge"><title>transition12&#45;&gt;p13</title>
<path fill="none" stroke="black" d="M125,-217.848C125,-216.368 125,-204.319 125,-192.1"/>
<polygon fill="black" stroke="black" points="128.5,-192.025 125,-182.025 121.5,-192.025 128.5,-192.025"/>
</g>
<!-- p10&#45;&gt;transition10 -->
<g id="edge34" class="edge"><title>p10&#45;&gt;transition10</title>
<path fill="none" stroke="black" d="M112.012,-508.23C117.404,-493.188 124.538,-473.289 124.979,-472.06"/>
</g>
</g>
</svg>
