<?xml version="1.0" encoding="UTF-8" standalone="no"?>
<!DOCTYPE svg PUBLIC "-//W3C//DTD SVG 1.1//EN"
 "http://www.w3.org/Graphics/SVG/1.1/DTD/svg11.dtd">
<!-- Generated by graphviz version 2.38.0 (20140413.2041)
 -->
<!-- Title: %3 Pages: 1 -->
<svg width="194pt" height="1276pt"
 viewBox="0.00 0.00 194.00 1276.00" xmlns="http://www.w3.org/2000/svg" xmlns:xlink="http://www.w3.org/1999/xlink">
<g id="graph0" class="graph" transform="scale(1 1) rotate(0) translate(4 1272)">
<title>%3</title>
<polygon fill="white" stroke="none" points="-4,4 -4,-1272 190,-1272 190,4 -4,4"/>
<!-- PL1 -->
<g id="node1" class="node"><title>PL1</title>
<ellipse fill="none" stroke="black" cx="163" cy="-1250" rx="18" ry="18"/>
<text text-anchor="middle" x="163" y="-1246.3" font-family="Times,serif" font-size="14.00">PL1</text>
</g>
<!-- transition1 -->
<g id="node3" class="node"><title>transition1</title>
<polygon fill="none" stroke="black" points="158,-1196 122,-1196 122,-1195 158,-1195 158,-1196"/>
<text text-anchor="middle" x="112" y="-1199.8" font-family="Times,serif" font-size="14.00">dr+</text>
</g>
<!-- PL1&#45;&gt;transition1 -->
<g id="edge1" class="edge"><title>PL1&#45;&gt;transition1</title>
<path fill="none" stroke="black" d="M156.099,-1233.1C151.279,-1221.99 145.169,-1207.91 142.044,-1200.71"/>
<polygon fill="none" stroke="black" points="143.623,-1199.95 140.027,-1196.06 140.412,-1201.35 143.623,-1199.95"/>
</g>
<!-- PL14 -->
<g id="node2" class="node"><title>PL14</title>
<ellipse fill="none" stroke="black" cx="86" cy="-1141" rx="18" ry="18"/>
<text text-anchor="middle" x="86" y="-1137.3" font-family="Times,serif" font-size="14.00">PL14</text>
</g>
<!-- transition11 -->
<g id="node5" class="node"><title>transition11</title>
<polygon fill="none" stroke="black" points="104,-1087 68,-1087 68,-1086 104,-1086 104,-1087"/>
<text text-anchor="middle" x="61" y="-1090.8" font-family="Times,serif" font-size="14.00">lr&#45;</text>
</g>
<!-- PL14&#45;&gt;transition11 -->
<g id="edge3" class="edge"><title>PL14&#45;&gt;transition11</title>
<path fill="none" stroke="black" d="M86,-1122.94C86,-1112.39 86,-1099.53 86,-1092.41"/>
<polygon fill="none" stroke="black" points="87.7501,-1092.06 86,-1087.06 84.2501,-1092.06 87.7501,-1092.06"/>
</g>
<!-- transition1&#45;&gt;PL14 -->
<g id="edge2" class="edge"><title>transition1&#45;&gt;PL14</title>
<path fill="none" stroke="black" d="M139.845,-1194.85C138.012,-1193.05 120.262,-1175.63 105.635,-1161.27"/>
<polygon fill="black" stroke="black" points="107.96,-1158.65 98.3718,-1154.14 103.057,-1163.65 107.96,-1158.65"/>
</g>
<!-- PL2 -->
<g id="node29" class="node"><title>PL2</title>
<ellipse fill="none" stroke="black" cx="140" cy="-1141" rx="18" ry="18"/>
<text text-anchor="middle" x="140" y="-1137.3" font-family="Times,serif" font-size="14.00">PL2</text>
</g>
<!-- transition1&#45;&gt;PL2 -->
<g id="edge31" class="edge"><title>transition1&#45;&gt;PL2</title>
<path fill="none" stroke="black" d="M140,-1194.85C140,-1193.37 140,-1181.32 140,-1169.1"/>
<polygon fill="black" stroke="black" points="143.5,-1169.02 140,-1159.02 136.5,-1169.02 143.5,-1169.02"/>
</g>
<!-- PL16 -->
<g id="node4" class="node"><title>PL16</title>
<ellipse fill="none" stroke="black" cx="32" cy="-1032" rx="18" ry="18"/>
<text text-anchor="middle" x="32" y="-1028.3" font-family="Times,serif" font-size="14.00">PL16</text>
</g>
<!-- transition13 -->
<g id="node7" class="node"><title>transition13</title>
<polygon fill="none" stroke="black" points="51,-978 15,-978 15,-977 51,-977 51,-978"/>
<text text-anchor="middle" x="7.5" y="-981.8" font-family="Times,serif" font-size="14.00">la&#45;</text>
</g>
<!-- PL16&#45;&gt;transition13 -->
<g id="edge5" class="edge"><title>PL16&#45;&gt;transition13</title>
<path fill="none" stroke="black" d="M32.3219,-1013.94C32.521,-1003.39 32.7635,-990.534 32.8979,-983.412"/>
<polygon fill="none" stroke="black" points="34.6542,-983.091 32.9989,-978.059 31.1548,-983.025 34.6542,-983.091"/>
</g>
<!-- transition11&#45;&gt;PL16 -->
<g id="edge4" class="edge"><title>transition11&#45;&gt;PL16</title>
<path fill="none" stroke="black" d="M85.8451,-1085.85C84.0118,-1084.05 66.2624,-1066.63 51.6353,-1052.27"/>
<polygon fill="black" stroke="black" points="53.9603,-1049.65 44.3718,-1045.14 49.057,-1054.65 53.9603,-1049.65"/>
</g>
<!-- PL15 -->
<g id="node17" class="node"><title>PL15</title>
<ellipse fill="none" stroke="black" cx="86" cy="-1032" rx="18" ry="18"/>
<text text-anchor="middle" x="86" y="-1028.3" font-family="Times,serif" font-size="14.00">PL15</text>
</g>
<!-- transition11&#45;&gt;PL15 -->
<g id="edge17" class="edge"><title>transition11&#45;&gt;PL15</title>
<path fill="none" stroke="black" d="M86,-1085.85C86,-1084.37 86,-1072.32 86,-1060.1"/>
<polygon fill="black" stroke="black" points="89.5001,-1060.02 86,-1050.02 82.5001,-1060.02 89.5001,-1060.02"/>
</g>
<!-- PL17 -->
<g id="node6" class="node"><title>PL17</title>
<ellipse fill="none" stroke="black" cx="45" cy="-851" rx="18" ry="18"/>
<text text-anchor="middle" x="45" y="-847.3" font-family="Times,serif" font-size="14.00">PL17</text>
</g>
<!-- transition14 -->
<g id="node9" class="node"><title>transition14</title>
<polygon fill="none" stroke="black" points="104,-489.5 68,-489.5 68,-488.5 104,-488.5 104,-489.5"/>
<text text-anchor="middle" x="59.5" y="-493.3" font-family="Times,serif" font-size="14.00">dr&#45;</text>
</g>
<!-- PL17&#45;&gt;transition14 -->
<g id="edge7" class="edge"><title>PL17&#45;&gt;transition14</title>
<path fill="none" stroke="black" d="M45.4538,-832.611C46.0439,-808.465 47,-763.416 47,-725 47,-725 47,-725 47,-615 47,-565.769 74.9094,-510.378 83.5085,-494.48"/>
<polygon fill="none" stroke="black" points="85.0723,-495.269 85.9717,-490.049 82.013,-493.569 85.0723,-495.269"/>
</g>
<!-- transition13&#45;&gt;PL17 -->
<g id="edge6" class="edge"><title>transition13&#45;&gt;PL17</title>
<path fill="none" stroke="black" d="M33.0087,-976.909C33.2602,-974.29 38.9071,-915.468 42.3608,-879.491"/>
<polygon fill="black" stroke="black" points="45.8822,-879.436 43.3539,-869.147 38.9142,-878.767 45.8822,-879.436"/>
</g>
<!-- PL11 -->
<g id="node8" class="node"><title>PL11</title>
<ellipse fill="none" stroke="black" cx="86" cy="-417" rx="18" ry="18"/>
<text text-anchor="middle" x="86" y="-413.3" font-family="Times,serif" font-size="14.00">PL11</text>
</g>
<!-- transition8 -->
<g id="node11" class="node"><title>transition8</title>
<polygon fill="none" stroke="black" points="104,-345.5 68,-345.5 68,-344.5 104,-344.5 104,-345.5"/>
<text text-anchor="middle" x="59" y="-349.3" font-family="Times,serif" font-size="14.00">da&#45;</text>
</g>
<!-- PL11&#45;&gt;transition8 -->
<g id="edge9" class="edge"><title>PL11&#45;&gt;transition8</title>
<path fill="none" stroke="black" d="M86,-398.697C86,-383.165 86,-361.324 86,-351.348"/>
<polygon fill="none" stroke="black" points="87.7501,-351.092 86,-346.092 84.2501,-351.092 87.7501,-351.092"/>
</g>
<!-- transition14&#45;&gt;PL11 -->
<g id="edge8" class="edge"><title>transition14&#45;&gt;PL11</title>
<path fill="none" stroke="black" d="M86,-487.949C86,-486.748 86,-464.429 86,-445.321"/>
<polygon fill="black" stroke="black" points="89.5001,-445.191 86,-435.191 82.5001,-445.191 89.5001,-445.191"/>
</g>
<!-- PL12 -->
<g id="node10" class="node"><title>PL12</title>
<ellipse fill="none" stroke="black" cx="90" cy="-273" rx="18" ry="18"/>
<text text-anchor="middle" x="90" y="-269.3" font-family="Times,serif" font-size="14.00">PL12</text>
</g>
<!-- transition9 -->
<g id="node13" class="node"><title>transition9</title>
<polygon fill="none" stroke="black" points="110,-219 74,-219 74,-218 110,-218 110,-219"/>
<text text-anchor="middle" x="68" y="-222.8" font-family="Times,serif" font-size="14.00">x&#45;</text>
</g>
<!-- PL12&#45;&gt;transition9 -->
<g id="edge11" class="edge"><title>PL12&#45;&gt;transition9</title>
<path fill="none" stroke="black" d="M90.6438,-254.939C91.0421,-244.385 91.527,-231.534 91.7958,-224.412"/>
<polygon fill="none" stroke="black" points="93.5579,-224.122 91.9978,-219.059 90.0604,-223.99 93.5579,-224.122"/>
</g>
<!-- transition8&#45;&gt;PL12 -->
<g id="edge10" class="edge"><title>transition8&#45;&gt;PL12</title>
<path fill="none" stroke="black" d="M86.0029,-343.949C86.0716,-342.748 87.3469,-320.429 88.4388,-301.321"/>
<polygon fill="black" stroke="black" points="91.9414,-301.375 89.0176,-291.191 84.9528,-300.975 91.9414,-301.375"/>
</g>
<!-- PL13 -->
<g id="node12" class="node"><title>PL13</title>
<ellipse fill="none" stroke="black" cx="93" cy="-164" rx="18" ry="18"/>
<text text-anchor="middle" x="93" y="-160.3" font-family="Times,serif" font-size="14.00">PL13</text>
</g>
<!-- transition10 -->
<g id="node15" class="node"><title>transition10</title>
<polygon fill="none" stroke="black" points="158,-110 122,-110 122,-109 158,-109 158,-110"/>
<text text-anchor="middle" x="113.5" y="-113.8" font-family="Times,serif" font-size="14.00">lr+</text>
</g>
<!-- PL13&#45;&gt;transition10 -->
<g id="edge13" class="edge"><title>PL13&#45;&gt;transition10</title>
<path fill="none" stroke="black" d="M104.618,-149.899C115.152,-138.02 130.008,-121.268 136.61,-113.823"/>
<polygon fill="none" stroke="black" points="137.93,-114.972 139.938,-110.07 135.311,-112.65 137.93,-114.972"/>
</g>
<!-- transition9&#45;&gt;PL13 -->
<g id="edge12" class="edge"><title>transition9&#45;&gt;PL13</title>
<path fill="none" stroke="black" d="M92.0029,-217.848C92.0308,-216.368 92.2581,-204.319 92.4887,-192.1"/>
<polygon fill="black" stroke="black" points="95.9894,-192.089 92.6788,-182.025 88.9907,-191.957 95.9894,-192.089"/>
</g>
<!-- PL9 -->
<g id="node14" class="node"><title>PL9</title>
<ellipse fill="none" stroke="black" cx="140" cy="-55" rx="18" ry="18"/>
<text text-anchor="middle" x="140" y="-51.3" font-family="Times,serif" font-size="14.00">PL9</text>
</g>
<!-- transition7 -->
<g id="node16" class="node"><title>transition7</title>
<polygon fill="none" stroke="black" points="181,-1 145,-1 145,-0 181,-0 181,-1"/>
<text text-anchor="middle" x="136" y="-4.8" font-family="Times,serif" font-size="14.00">la+</text>
</g>
<!-- PL9&#45;&gt;transition7 -->
<g id="edge15" class="edge"><title>PL9&#45;&gt;transition7</title>
<path fill="none" stroke="black" d="M146.901,-38.0983C151.721,-26.9918 157.831,-12.9118 160.956,-5.7104"/>
<polygon fill="none" stroke="black" points="162.588,-6.34553 162.973,-1.06211 159.377,-4.95216 162.588,-6.34553"/>
</g>
<!-- transition10&#45;&gt;PL9 -->
<g id="edge14" class="edge"><title>transition10&#45;&gt;PL9</title>
<path fill="none" stroke="black" d="M140,-108.848C140,-107.368 140,-95.3194 140,-83.1004"/>
<polygon fill="black" stroke="black" points="143.5,-83.0247 140,-73.0247 136.5,-83.0248 143.5,-83.0247"/>
</g>
<!-- transition7&#45;&gt;PL1 -->
<g id="edge16" class="edge"><title>transition7&#45;&gt;PL1</title>
<path fill="none" stroke="black" d="M163.017,-1.04289C163.713,-2.83896 186,-60.6904 186,-109 186,-1142 186,-1142 186,-1142 186,-1170.25 178.243,-1201.77 171.738,-1223.24"/>
<polygon fill="black" stroke="black" points="168.358,-1222.33 168.685,-1232.92 175.033,-1224.43 168.358,-1222.33"/>
</g>
<!-- transition12 -->
<g id="node19" class="node"><title>transition12</title>
<polygon fill="none" stroke="black" points="139,-978 103,-978 103,-977 139,-977 139,-978"/>
<text text-anchor="middle" x="93.5" y="-981.8" font-family="Times,serif" font-size="14.00">zr+</text>
</g>
<!-- PL15&#45;&gt;transition12 -->
<g id="edge18" class="edge"><title>PL15&#45;&gt;transition12</title>
<path fill="none" stroke="black" d="M95.5639,-1016.52C103.093,-1005.12 113.109,-989.949 118.023,-982.507"/>
<polygon fill="none" stroke="black" points="119.661,-983.203 120.956,-978.066 116.741,-981.274 119.661,-983.203"/>
</g>
<!-- PL4 -->
<g id="node18" class="node"><title>PL4</title>
<ellipse fill="none" stroke="black" cx="121" cy="-923" rx="18" ry="18"/>
<text text-anchor="middle" x="121" y="-919.3" font-family="Times,serif" font-size="14.00">PL4</text>
</g>
<!-- transition3 -->
<g id="node21" class="node"><title>transition3</title>
<polygon fill="none" stroke="black" points="139,-851.5 103,-851.5 103,-850.5 139,-850.5 139,-851.5"/>
<text text-anchor="middle" x="92.5" y="-855.3" font-family="Times,serif" font-size="14.00">za+</text>
</g>
<!-- PL4&#45;&gt;transition3 -->
<g id="edge20" class="edge"><title>PL4&#45;&gt;transition3</title>
<path fill="none" stroke="black" d="M121,-904.697C121,-889.165 121,-867.324 121,-857.348"/>
<polygon fill="none" stroke="black" points="122.75,-857.092 121,-852.092 119.25,-857.092 122.75,-857.092"/>
</g>
<!-- transition12&#45;&gt;PL4 -->
<g id="edge19" class="edge"><title>transition12&#45;&gt;PL4</title>
<path fill="none" stroke="black" d="M121,-976.848C121,-975.368 121,-963.319 121,-951.1"/>
<polygon fill="black" stroke="black" points="124.5,-951.025 121,-941.025 117.5,-951.025 124.5,-951.025"/>
</g>
<!-- PL5 -->
<g id="node20" class="node"><title>PL5</title>
<ellipse fill="none" stroke="black" cx="121" cy="-779" rx="18" ry="18"/>
<text text-anchor="middle" x="121" y="-775.3" font-family="Times,serif" font-size="14.00">PL5</text>
</g>
<!-- transition4 -->
<g id="node23" class="node"><title>transition4</title>
<polygon fill="none" stroke="black" points="139,-725 103,-725 103,-724 139,-724 139,-725"/>
<text text-anchor="middle" x="95.5" y="-728.8" font-family="Times,serif" font-size="14.00">x+</text>
</g>
<!-- PL5&#45;&gt;transition4 -->
<g id="edge22" class="edge"><title>PL5&#45;&gt;transition4</title>
<path fill="none" stroke="black" d="M121,-760.939C121,-750.385 121,-737.534 121,-730.412"/>
<polygon fill="none" stroke="black" points="122.75,-730.059 121,-725.059 119.25,-730.059 122.75,-730.059"/>
</g>
<!-- transition3&#45;&gt;PL5 -->
<g id="edge21" class="edge"><title>transition3&#45;&gt;PL5</title>
<path fill="none" stroke="black" d="M121,-849.949C121,-848.748 121,-826.429 121,-807.321"/>
<polygon fill="black" stroke="black" points="124.5,-807.191 121,-797.191 117.5,-807.191 124.5,-807.191"/>
</g>
<!-- PL6 -->
<g id="node22" class="node"><title>PL6</title>
<ellipse fill="none" stroke="black" cx="121" cy="-670" rx="18" ry="18"/>
<text text-anchor="middle" x="121" y="-666.3" font-family="Times,serif" font-size="14.00">PL6</text>
</g>
<!-- transition5 -->
<g id="node25" class="node"><title>transition5</title>
<polygon fill="none" stroke="black" points="139,-616 103,-616 103,-615 139,-615 139,-616"/>
<text text-anchor="middle" x="95" y="-619.8" font-family="Times,serif" font-size="14.00">zr&#45;</text>
</g>
<!-- PL6&#45;&gt;transition5 -->
<g id="edge24" class="edge"><title>PL6&#45;&gt;transition5</title>
<path fill="none" stroke="black" d="M121,-651.939C121,-641.385 121,-628.534 121,-621.412"/>
<polygon fill="none" stroke="black" points="122.75,-621.059 121,-616.059 119.25,-621.059 122.75,-621.059"/>
</g>
<!-- transition4&#45;&gt;PL6 -->
<g id="edge23" class="edge"><title>transition4&#45;&gt;PL6</title>
<path fill="none" stroke="black" d="M121,-723.848C121,-722.368 121,-710.319 121,-698.1"/>
<polygon fill="black" stroke="black" points="124.5,-698.025 121,-688.025 117.5,-698.025 124.5,-698.025"/>
</g>
<!-- PL10 -->
<g id="node24" class="node"><title>PL10</title>
<ellipse fill="none" stroke="black" cx="94" cy="-561" rx="18" ry="18"/>
<text text-anchor="middle" x="94" y="-557.3" font-family="Times,serif" font-size="14.00">PL10</text>
</g>
<!-- PL10&#45;&gt;transition14 -->
<g id="edge26" class="edge"><title>PL10&#45;&gt;transition14</title>
<path fill="none" stroke="black" d="M92.0634,-543.055C90.2715,-527.376 87.7188,-505.04 86.5833,-495.104"/>
<polygon fill="none" stroke="black" points="88.3172,-494.862 86.0107,-490.093 84.8398,-495.26 88.3172,-494.862"/>
</g>
<!-- transition5&#45;&gt;PL10 -->
<g id="edge25" class="edge"><title>transition5&#45;&gt;PL10</title>
<path fill="none" stroke="black" d="M120.923,-614.848C120.116,-613.265 113.15,-599.591 106.506,-586.55"/>
<polygon fill="black" stroke="black" points="109.477,-584.669 101.819,-577.348 103.239,-587.847 109.477,-584.669"/>
</g>
<!-- PL7 -->
<g id="node26" class="node"><title>PL7</title>
<ellipse fill="none" stroke="black" cx="140" cy="-489" rx="18" ry="18"/>
<text text-anchor="middle" x="140" y="-485.3" font-family="Times,serif" font-size="14.00">PL7</text>
</g>
<!-- transition5&#45;&gt;PL7 -->
<g id="edge27" class="edge"><title>transition5&#45;&gt;PL7</title>
<path fill="none" stroke="black" d="M121.014,-614.909C121.413,-612.283 130.399,-553.167 135.863,-517.216"/>
<polygon fill="black" stroke="black" points="139.39,-517.303 137.433,-506.891 132.47,-516.251 139.39,-517.303"/>
</g>
<!-- transition6 -->
<g id="node28" class="node"><title>transition6</title>
<polygon fill="none" stroke="black" points="158,-417.5 122,-417.5 122,-416.5 158,-416.5 158,-417.5"/>
<text text-anchor="middle" x="113" y="-421.3" font-family="Times,serif" font-size="14.00">za&#45;</text>
</g>
<!-- PL7&#45;&gt;transition6 -->
<g id="edge28" class="edge"><title>PL7&#45;&gt;transition6</title>
<path fill="none" stroke="black" d="M140,-470.697C140,-455.165 140,-433.324 140,-423.348"/>
<polygon fill="none" stroke="black" points="141.75,-423.092 140,-418.092 138.25,-423.092 141.75,-423.092"/>
</g>
<!-- PL8 -->
<g id="node27" class="node"><title>PL8</title>
<ellipse fill="none" stroke="black" cx="140" cy="-345" rx="18" ry="18"/>
<text text-anchor="middle" x="140" y="-341.3" font-family="Times,serif" font-size="14.00">PL8</text>
</g>
<!-- PL8&#45;&gt;transition10 -->
<g id="edge30" class="edge"><title>PL8&#45;&gt;transition10</title>
<path fill="none" stroke="black" d="M140,-326.793C140,-278.585 140,-143.86 140,-115.344"/>
<polygon fill="none" stroke="black" points="141.75,-115.118 140,-110.118 138.25,-115.118 141.75,-115.118"/>
</g>
<!-- transition6&#45;&gt;PL8 -->
<g id="edge29" class="edge"><title>transition6&#45;&gt;PL8</title>
<path fill="none" stroke="black" d="M140,-415.949C140,-414.748 140,-392.429 140,-373.321"/>
<polygon fill="black" stroke="black" points="143.5,-373.191 140,-363.191 136.5,-373.191 143.5,-373.191"/>
</g>
<!-- transition2 -->
<g id="node31" class="node"><title>transition2</title>
<polygon fill="none" stroke="black" points="158,-1087 122,-1087 122,-1086 158,-1086 158,-1087"/>
<text text-anchor="middle" x="111" y="-1090.8" font-family="Times,serif" font-size="14.00">da+</text>
</g>
<!-- PL2&#45;&gt;transition2 -->
<g id="edge32" class="edge"><title>PL2&#45;&gt;transition2</title>
<path fill="none" stroke="black" d="M140,-1122.94C140,-1112.39 140,-1099.53 140,-1092.41"/>
<polygon fill="none" stroke="black" points="141.75,-1092.06 140,-1087.06 138.25,-1092.06 141.75,-1092.06"/>
</g>
<!-- PL3 -->
<g id="node30" class="node"><title>PL3</title>
<ellipse fill="none" stroke="black" cx="140" cy="-1032" rx="18" ry="18"/>
<text text-anchor="middle" x="140" y="-1028.3" font-family="Times,serif" font-size="14.00">PL3</text>
</g>
<!-- PL3&#45;&gt;transition12 -->
<g id="edge34" class="edge"><title>PL3&#45;&gt;transition12</title>
<path fill="none" stroke="black" d="M134.196,-1014.81C130.306,-1003.96 125.435,-990.372 122.836,-983.121"/>
<polygon fill="none" stroke="black" points="124.357,-982.177 121.022,-978.061 121.062,-983.359 124.357,-982.177"/>
</g>
<!-- transition2&#45;&gt;PL3 -->
<g id="edge33" class="edge"><title>transition2&#45;&gt;PL3</title>
<path fill="none" stroke="black" d="M140,-1085.85C140,-1084.37 140,-1072.32 140,-1060.1"/>
<polygon fill="black" stroke="black" points="143.5,-1060.02 140,-1050.02 136.5,-1060.02 143.5,-1060.02"/>
</g>
</g>
</svg>
