<?xml version="1.0" encoding="UTF-8" standalone="no"?>
<!DOCTYPE svg PUBLIC "-//W3C//DTD SVG 1.1//EN"
 "http://www.w3.org/Graphics/SVG/1.1/DTD/svg11.dtd">
<!-- Generated by graphviz version 2.38.0 (20140413.2041)
 -->
<!-- Title: %3 Pages: 1 -->
<svg width="300pt" height="1498pt"
 viewBox="0.00 0.00 300.00 1498.00" xmlns="http://www.w3.org/2000/svg" xmlns:xlink="http://www.w3.org/1999/xlink">
<g id="graph0" class="graph" transform="scale(1 1) rotate(0) translate(4 1494)">
<title>%3</title>
<polygon fill="white" stroke="none" points="-4,4 -4,-1494 296,-1494 296,4 -4,4"/>
<!-- p1 -->
<g id="node1" class="node"><title>p1</title>
<ellipse fill="none" stroke="black" cx="259" cy="-1472" rx="18" ry="18"/>
<text text-anchor="middle" x="259" y="-1468.3" font-family="Times,serif" font-size="14.00">p1</text>
</g>
<!-- transition0 -->
<g id="node3" class="node"><title>transition0</title>
<polygon fill="none" stroke="black" points="245,-1418 209,-1418 209,-1417 245,-1417 245,-1418"/>
<text text-anchor="middle" x="184" y="-1421.8" font-family="Times,serif" font-size="14.00">ok+frin*</text>
</g>
<!-- p1&#45;&gt;transition0 -->
<g id="edge1" class="edge"><title>p1&#45;&gt;transition0</title>
<path fill="none" stroke="black" d="M250.086,-1456.24C243.207,-1444.84 234.137,-1429.82 229.691,-1422.46"/>
<polygon fill="none" stroke="black" points="231.122,-1421.44 227.039,-1418.07 228.126,-1423.25 231.122,-1421.44"/>
</g>
<!-- p2 -->
<g id="node2" class="node"><title>p2</title>
<ellipse fill="none" stroke="black" cx="218" cy="-1363" rx="18" ry="18"/>
<text text-anchor="middle" x="218" y="-1359.3" font-family="Times,serif" font-size="14.00">p2</text>
</g>
<!-- transition1 -->
<g id="node5" class="node"><title>transition1</title>
<polygon fill="none" stroke="black" points="233,-1309 197,-1309 197,-1308 233,-1308 233,-1309"/>
<text text-anchor="middle" x="180.5" y="-1312.8" font-family="Times,serif" font-size="14.00">dreq+</text>
</g>
<!-- p2&#45;&gt;transition1 -->
<g id="edge3" class="edge"><title>p2&#45;&gt;transition1</title>
<path fill="none" stroke="black" d="M217.034,-1344.94C216.437,-1334.39 215.709,-1321.53 215.306,-1314.41"/>
<polygon fill="none" stroke="black" points="217.033,-1313.95 215.003,-1309.06 213.539,-1314.15 217.033,-1313.95"/>
</g>
<!-- transition0&#45;&gt;p2 -->
<g id="edge2" class="edge"><title>transition0&#45;&gt;p2</title>
<path fill="none" stroke="black" d="M226.974,-1416.85C226.723,-1415.37 224.677,-1403.32 222.602,-1391.1"/>
<polygon fill="black" stroke="black" points="226.016,-1390.3 220.891,-1381.02 219.115,-1391.47 226.016,-1390.3"/>
</g>
<!-- p3 -->
<g id="node4" class="node"><title>p3</title>
<ellipse fill="none" stroke="black" cx="210" cy="-1254" rx="18" ry="18"/>
<text text-anchor="middle" x="210" y="-1250.3" font-family="Times,serif" font-size="14.00">p3</text>
</g>
<!-- transition4 -->
<g id="node7" class="node"><title>transition4</title>
<polygon fill="none" stroke="black" points="151,-1200 115,-1200 115,-1199 151,-1199 151,-1200"/>
<text text-anchor="middle" x="57.5" y="-1203.8" font-family="Times,serif" font-size="14.00">[cntgt1&#45;]frin*dackn&#45;</text>
</g>
<!-- p3&#45;&gt;transition4 -->
<g id="edge5" class="edge"><title>p3&#45;&gt;transition4</title>
<path fill="none" stroke="black" d="M195.517,-1243.03C177.623,-1230.71 148.204,-1210.46 137.268,-1202.94"/>
<polygon fill="none" stroke="black" points="138.227,-1201.47 133.116,-1200.08 136.242,-1204.36 138.227,-1201.47"/>
</g>
<!-- transition2 -->
<g id="node18" class="node"><title>transition2</title>
<polygon fill="none" stroke="black" points="228,-1200 192,-1200 192,-1199 228,-1199 228,-1200"/>
<text text-anchor="middle" x="133" y="-1187.8" font-family="Times,serif" font-size="14.00">[cntgt1+]frin*dackn&#45;</text>
</g>
<!-- p3&#45;&gt;transition2 -->
<g id="edge17" class="edge"><title>p3&#45;&gt;transition2</title>
<path fill="none" stroke="black" d="M210,-1235.94C210,-1225.39 210,-1212.53 210,-1205.41"/>
<polygon fill="none" stroke="black" points="211.75,-1205.06 210,-1200.06 208.25,-1205.06 211.75,-1205.06"/>
</g>
<!-- transition1&#45;&gt;p3 -->
<g id="edge4" class="edge"><title>transition1&#45;&gt;p3</title>
<path fill="none" stroke="black" d="M214.986,-1307.85C214.846,-1306.37 213.709,-1294.32 212.557,-1282.1"/>
<polygon fill="black" stroke="black" points="216.03,-1281.65 211.606,-1272.02 209.061,-1282.31 216.03,-1281.65"/>
</g>
<!-- p16 -->
<g id="node6" class="node"><title>p16</title>
<ellipse fill="none" stroke="black" cx="128" cy="-1145" rx="18" ry="18"/>
<text text-anchor="middle" x="128" y="-1141.3" font-family="Times,serif" font-size="14.00">p16</text>
</g>
<!-- transition5 -->
<g id="node9" class="node"><title>transition5</title>
<polygon fill="none" stroke="black" points="129,-1036.5 93,-1036.5 93,-1035.5 129,-1035.5 129,-1036.5"/>
<text text-anchor="middle" x="78" y="-1040.3" font-family="Times,serif" font-size="14.00">dreq&#45;</text>
</g>
<!-- p16&#45;&gt;transition5 -->
<g id="edge7" class="edge"><title>p16&#45;&gt;transition5</title>
<path fill="none" stroke="black" d="M125.269,-1126.81C121.314,-1101.92 114.206,-1057.18 111.812,-1042.11"/>
<polygon fill="none" stroke="black" points="113.52,-1041.71 111.007,-1037.04 110.063,-1042.26 113.52,-1041.71"/>
</g>
<!-- transition4&#45;&gt;p16 -->
<g id="edge6" class="edge"><title>transition4&#45;&gt;p16</title>
<path fill="none" stroke="black" d="M132.986,-1198.85C132.846,-1197.37 131.709,-1185.32 130.557,-1173.1"/>
<polygon fill="black" stroke="black" points="134.03,-1172.65 129.606,-1163.02 127.061,-1173.31 134.03,-1172.65"/>
</g>
<!-- p11 -->
<g id="node8" class="node"><title>p11</title>
<ellipse fill="none" stroke="black" cx="154" cy="-382" rx="18" ry="18"/>
<text text-anchor="middle" x="154" y="-378.3" font-family="Times,serif" font-size="14.00">p11</text>
</g>
<!-- transition14 -->
<g id="node11" class="node"><title>transition14</title>
<polygon fill="none" stroke="black" points="218,-328 182,-328 182,-327 218,-327 218,-328"/>
<text text-anchor="middle" x="136.5" y="-331.8" font-family="Times,serif" font-size="14.00">ok*frin+dackn+</text>
</g>
<!-- p11&#45;&gt;transition14 -->
<g id="edge9" class="edge"><title>p11&#45;&gt;transition14</title>
<path fill="none" stroke="black" d="M165.371,-367.899C175.474,-356.258 189.64,-339.936 196.285,-332.281"/>
<polygon fill="none" stroke="black" points="197.984,-332.993 199.939,-328.07 195.34,-330.699 197.984,-332.993"/>
</g>
<!-- transition5&#45;&gt;p11 -->
<g id="edge8" class="edge"><title>transition5&#45;&gt;p11</title>
<path fill="none" stroke="black" d="M110.998,-1034.96C110.907,-1033.15 108,-974.831 108,-928 108,-928 108,-928 108,-490 108,-458.824 124.686,-426.388 137.959,-405.519"/>
<polygon fill="black" stroke="black" points="140.96,-407.326 143.562,-397.055 135.123,-403.461 140.96,-407.326"/>
</g>
<!-- p12 -->
<g id="node10" class="node"><title>p12</title>
<ellipse fill="none" stroke="black" cx="212" cy="-273" rx="18" ry="18"/>
<text text-anchor="middle" x="212" y="-269.3" font-family="Times,serif" font-size="14.00">p12</text>
</g>
<!-- transition15 -->
<g id="node13" class="node"><title>transition15</title>
<polygon fill="none" stroke="black" points="241,-219 205,-219 205,-218 241,-218 241,-219"/>
<text text-anchor="middle" x="186.5" y="-222.8" font-family="Times,serif" font-size="14.00">faout+</text>
</g>
<!-- p12&#45;&gt;transition15 -->
<g id="edge11" class="edge"><title>p12&#45;&gt;transition15</title>
<path fill="none" stroke="black" d="M215.48,-255.23C217.724,-244.419 220.489,-231.098 221.961,-224.004"/>
<polygon fill="none" stroke="black" points="223.685,-224.311 222.988,-219.06 220.258,-223.6 223.685,-224.311"/>
</g>
<!-- transition14&#45;&gt;p12 -->
<g id="edge10" class="edge"><title>transition14&#45;&gt;p12</title>
<path fill="none" stroke="black" d="M200.034,-326.848C200.375,-325.344 203.188,-312.919 206.001,-300.496"/>
<polygon fill="black" stroke="black" points="209.415,-301.268 208.209,-290.742 202.587,-299.722 209.415,-301.268"/>
</g>
<!-- p13 -->
<g id="node12" class="node"><title>p13</title>
<ellipse fill="none" stroke="black" cx="229" cy="-164" rx="18" ry="18"/>
<text text-anchor="middle" x="229" y="-160.3" font-family="Times,serif" font-size="14.00">p13</text>
</g>
<!-- transition16 -->
<g id="node15" class="node"><title>transition16</title>
<polygon fill="none" stroke="black" points="253,-110 217,-110 217,-109 253,-109 253,-110"/>
<text text-anchor="middle" x="195" y="-113.8" font-family="Times,serif" font-size="14.00">ok&#45;frin&#45;</text>
</g>
<!-- p13&#45;&gt;transition16 -->
<g id="edge13" class="edge"><title>p13&#45;&gt;transition16</title>
<path fill="none" stroke="black" d="M230.931,-145.939C232.126,-135.385 233.581,-122.534 234.387,-115.412"/>
<polygon fill="none" stroke="black" points="236.17,-115.224 234.993,-110.059 232.692,-114.831 236.17,-115.224"/>
</g>
<!-- transition15&#45;&gt;p13 -->
<g id="edge12" class="edge"><title>transition15&#45;&gt;p13</title>
<path fill="none" stroke="black" d="M223.017,-217.848C223.185,-216.368 224.549,-204.319 225.932,-192.1"/>
<polygon fill="black" stroke="black" points="229.425,-192.355 227.073,-182.025 222.47,-191.568 229.425,-192.355"/>
</g>
<!-- p14 -->
<g id="node14" class="node"><title>p14</title>
<ellipse fill="none" stroke="black" cx="241" cy="-55" rx="18" ry="18"/>
<text text-anchor="middle" x="241" y="-51.3" font-family="Times,serif" font-size="14.00">p14</text>
</g>
<!-- transition17 -->
<g id="node16" class="node"><title>transition17</title>
<polygon fill="none" stroke="black" points="284,-1 248,-1 248,-0 284,-0 284,-1"/>
<text text-anchor="middle" x="231" y="-4.8" font-family="Times,serif" font-size="14.00">faout&#45;</text>
</g>
<!-- p14&#45;&gt;transition17 -->
<g id="edge15" class="edge"><title>p14&#45;&gt;transition17</title>
<path fill="none" stroke="black" d="M248.366,-38.3849C253.612,-27.2627 260.319,-13.0442 263.753,-5.76429"/>
<polygon fill="none" stroke="black" points="265.42,-6.33164 265.97,-1.06287 262.254,-4.83844 265.42,-6.33164"/>
</g>
<!-- transition16&#45;&gt;p14 -->
<g id="edge14" class="edge"><title>transition16&#45;&gt;p14</title>
<path fill="none" stroke="black" d="M235.017,-108.848C235.185,-107.368 236.549,-95.3194 237.932,-83.1004"/>
<polygon fill="black" stroke="black" points="241.425,-83.355 239.073,-73.0247 234.47,-82.5675 241.425,-83.355"/>
</g>
<!-- transition17&#45;&gt;p1 -->
<g id="edge16" class="edge"><title>transition17&#45;&gt;p1</title>
<path fill="none" stroke="black" d="M266.019,-1.04268C266.806,-2.82989 292,-60.4001 292,-109 292,-1364 292,-1364 292,-1364 292,-1393.2 280.638,-1424.97 271.248,-1446.24"/>
<polygon fill="black" stroke="black" points="267.986,-1444.96 266.988,-1455.51 274.346,-1447.89 267.986,-1444.96"/>
</g>
<!-- p4 -->
<g id="node17" class="node"><title>p4</title>
<ellipse fill="none" stroke="black" cx="210" cy="-1145" rx="18" ry="18"/>
<text text-anchor="middle" x="210" y="-1141.3" font-family="Times,serif" font-size="14.00">p4</text>
</g>
<!-- transition3 -->
<g id="node20" class="node"><title>transition3</title>
<polygon fill="none" stroke="black" points="228,-1091 192,-1091 192,-1090 228,-1090 228,-1091"/>
<text text-anchor="middle" x="177" y="-1094.8" font-family="Times,serif" font-size="14.00">dreq&#45;</text>
</g>
<!-- p4&#45;&gt;transition3 -->
<g id="edge19" class="edge"><title>p4&#45;&gt;transition3</title>
<path fill="none" stroke="black" d="M210,-1126.94C210,-1116.39 210,-1103.53 210,-1096.41"/>
<polygon fill="none" stroke="black" points="211.75,-1096.06 210,-1091.06 208.25,-1096.06 211.75,-1096.06"/>
</g>
<!-- transition2&#45;&gt;p4 -->
<g id="edge18" class="edge"><title>transition2&#45;&gt;p4</title>
<path fill="none" stroke="black" d="M210,-1198.85C210,-1197.37 210,-1185.32 210,-1173.1"/>
<polygon fill="black" stroke="black" points="213.5,-1173.02 210,-1163.02 206.5,-1173.02 213.5,-1173.02"/>
</g>
<!-- p5 -->
<g id="node19" class="node"><title>p5</title>
<ellipse fill="none" stroke="black" cx="210" cy="-1036" rx="18" ry="18"/>
<text text-anchor="middle" x="210" y="-1032.3" font-family="Times,serif" font-size="14.00">p5</text>
</g>
<!-- transition6 -->
<g id="node22" class="node"><title>transition6</title>
<polygon fill="none" stroke="black" points="226,-982 190,-982 190,-981 226,-981 226,-982"/>
<text text-anchor="middle" x="155" y="-985.8" font-family="Times,serif" font-size="14.00">frin+dackn+</text>
</g>
<!-- p5&#45;&gt;transition6 -->
<g id="edge21" class="edge"><title>p5&#45;&gt;transition6</title>
<path fill="none" stroke="black" d="M209.356,-1017.94C208.958,-1007.39 208.473,-994.534 208.204,-987.412"/>
<polygon fill="none" stroke="black" points="209.94,-986.99 208.002,-982.059 206.442,-987.122 209.94,-986.99"/>
</g>
<!-- transition3&#45;&gt;p5 -->
<g id="edge20" class="edge"><title>transition3&#45;&gt;p5</title>
<path fill="none" stroke="black" d="M210,-1089.85C210,-1088.37 210,-1076.32 210,-1064.1"/>
<polygon fill="black" stroke="black" points="213.5,-1064.02 210,-1054.02 206.5,-1064.02 213.5,-1064.02"/>
</g>
<!-- p6 -->
<g id="node21" class="node"><title>p6</title>
<ellipse fill="none" stroke="black" cx="208" cy="-927" rx="18" ry="18"/>
<text text-anchor="middle" x="208" y="-923.3" font-family="Times,serif" font-size="14.00">p6</text>
</g>
<!-- transition7 -->
<g id="node24" class="node"><title>transition7</title>
<polygon fill="none" stroke="black" points="226,-873 190,-873 190,-872 226,-872 226,-873"/>
<text text-anchor="middle" x="171.5" y="-876.8" font-family="Times,serif" font-size="14.00">faout+</text>
</g>
<!-- p6&#45;&gt;transition7 -->
<g id="edge23" class="edge"><title>p6&#45;&gt;transition7</title>
<path fill="none" stroke="black" d="M208,-908.939C208,-898.385 208,-885.534 208,-878.412"/>
<polygon fill="none" stroke="black" points="209.75,-878.059 208,-873.059 206.25,-878.059 209.75,-878.059"/>
</g>
<!-- transition6&#45;&gt;p6 -->
<g id="edge22" class="edge"><title>transition6&#45;&gt;p6</title>
<path fill="none" stroke="black" d="M208,-980.848C208,-979.368 208,-967.319 208,-955.1"/>
<polygon fill="black" stroke="black" points="211.5,-955.025 208,-945.025 204.5,-955.025 211.5,-955.025"/>
</g>
<!-- p7 -->
<g id="node23" class="node"><title>p7</title>
<ellipse fill="none" stroke="black" cx="208" cy="-818" rx="18" ry="18"/>
<text text-anchor="middle" x="208" y="-814.3" font-family="Times,serif" font-size="14.00">p7</text>
</g>
<!-- transition8 -->
<g id="node26" class="node"><title>transition8</title>
<polygon fill="none" stroke="black" points="226,-764 190,-764 190,-763 226,-763 226,-764"/>
<text text-anchor="middle" x="177.5" y="-767.8" font-family="Times,serif" font-size="14.00">frin&#45;</text>
</g>
<!-- p7&#45;&gt;transition8 -->
<g id="edge25" class="edge"><title>p7&#45;&gt;transition8</title>
<path fill="none" stroke="black" d="M208,-799.939C208,-789.385 208,-776.534 208,-769.412"/>
<polygon fill="none" stroke="black" points="209.75,-769.059 208,-764.059 206.25,-769.059 209.75,-769.059"/>
</g>
<!-- transition7&#45;&gt;p7 -->
<g id="edge24" class="edge"><title>transition7&#45;&gt;p7</title>
<path fill="none" stroke="black" d="M208,-871.848C208,-870.368 208,-858.319 208,-846.1"/>
<polygon fill="black" stroke="black" points="211.5,-846.025 208,-836.025 204.5,-846.025 211.5,-846.025"/>
</g>
<!-- p8 -->
<g id="node25" class="node"><title>p8</title>
<ellipse fill="none" stroke="black" cx="208" cy="-709" rx="18" ry="18"/>
<text text-anchor="middle" x="208" y="-705.3" font-family="Times,serif" font-size="14.00">p8</text>
</g>
<!-- transition9 -->
<g id="node28" class="node"><title>transition9</title>
<polygon fill="none" stroke="black" points="226,-655 190,-655 190,-654 226,-654 226,-655"/>
<text text-anchor="middle" x="156.5" y="-658.8" font-family="Times,serif" font-size="14.00">dreq+faout&#45;</text>
</g>
<!-- p8&#45;&gt;transition9 -->
<g id="edge27" class="edge"><title>p8&#45;&gt;transition9</title>
<path fill="none" stroke="black" d="M208,-690.939C208,-680.385 208,-667.534 208,-660.412"/>
<polygon fill="none" stroke="black" points="209.75,-660.059 208,-655.059 206.25,-660.059 209.75,-660.059"/>
</g>
<!-- transition8&#45;&gt;p8 -->
<g id="edge26" class="edge"><title>transition8&#45;&gt;p8</title>
<path fill="none" stroke="black" d="M208,-762.848C208,-761.368 208,-749.319 208,-737.1"/>
<polygon fill="black" stroke="black" points="211.5,-737.025 208,-727.025 204.5,-737.025 211.5,-737.025"/>
</g>
<!-- p9 -->
<g id="node27" class="node"><title>p9</title>
<ellipse fill="none" stroke="black" cx="208" cy="-600" rx="18" ry="18"/>
<text text-anchor="middle" x="208" y="-596.3" font-family="Times,serif" font-size="14.00">p9</text>
</g>
<!-- transition12 -->
<g id="node30" class="node"><title>transition12</title>
<polygon fill="none" stroke="black" points="172,-546 136,-546 136,-545 172,-545 172,-546"/>
<text text-anchor="middle" x="78.5" y="-549.8" font-family="Times,serif" font-size="14.00">[cntgt1&#45;]frin*dackn&#45;</text>
</g>
<!-- p9&#45;&gt;transition12 -->
<g id="edge29" class="edge"><title>p9&#45;&gt;transition12</title>
<path fill="none" stroke="black" d="M195.476,-586.708C183.402,-574.858 165.847,-557.627 158.023,-549.948"/>
<polygon fill="none" stroke="black" points="158.868,-548.326 154.074,-546.072 156.416,-550.824 158.868,-548.326"/>
</g>
<!-- transition10 -->
<g id="node33" class="node"><title>transition10</title>
<polygon fill="none" stroke="black" points="226,-546 190,-546 190,-545 226,-545 226,-546"/>
<text text-anchor="middle" x="131" y="-533.8" font-family="Times,serif" font-size="14.00">[cntgt1+]frin*dackn&#45;</text>
</g>
<!-- p9&#45;&gt;transition10 -->
<g id="edge33" class="edge"><title>p9&#45;&gt;transition10</title>
<path fill="none" stroke="black" d="M208,-581.939C208,-571.385 208,-558.534 208,-551.412"/>
<polygon fill="none" stroke="black" points="209.75,-551.059 208,-546.059 206.25,-551.059 209.75,-551.059"/>
</g>
<!-- transition9&#45;&gt;p9 -->
<g id="edge28" class="edge"><title>transition9&#45;&gt;p9</title>
<path fill="none" stroke="black" d="M208,-653.848C208,-652.368 208,-640.319 208,-628.1"/>
<polygon fill="black" stroke="black" points="211.5,-628.025 208,-618.025 204.5,-628.025 211.5,-628.025"/>
</g>
<!-- p15 -->
<g id="node29" class="node"><title>p15</title>
<ellipse fill="none" stroke="black" cx="154" cy="-491" rx="18" ry="18"/>
<text text-anchor="middle" x="154" y="-487.3" font-family="Times,serif" font-size="14.00">p15</text>
</g>
<!-- transition13 -->
<g id="node31" class="node"><title>transition13</title>
<polygon fill="none" stroke="black" points="172,-437 136,-437 136,-436 172,-436 172,-437"/>
<text text-anchor="middle" x="121" y="-440.8" font-family="Times,serif" font-size="14.00">dreq&#45;</text>
</g>
<!-- p15&#45;&gt;transition13 -->
<g id="edge31" class="edge"><title>p15&#45;&gt;transition13</title>
<path fill="none" stroke="black" d="M154,-472.939C154,-462.385 154,-449.534 154,-442.412"/>
<polygon fill="none" stroke="black" points="155.75,-442.059 154,-437.059 152.25,-442.059 155.75,-442.059"/>
</g>
<!-- transition12&#45;&gt;p15 -->
<g id="edge30" class="edge"><title>transition12&#45;&gt;p15</title>
<path fill="none" stroke="black" d="M154,-544.848C154,-543.368 154,-531.319 154,-519.1"/>
<polygon fill="black" stroke="black" points="157.5,-519.025 154,-509.025 150.5,-519.025 157.5,-519.025"/>
</g>
<!-- transition13&#45;&gt;p11 -->
<g id="edge32" class="edge"><title>transition13&#45;&gt;p11</title>
<path fill="none" stroke="black" d="M154,-435.848C154,-434.368 154,-422.319 154,-410.1"/>
<polygon fill="black" stroke="black" points="157.5,-410.025 154,-400.025 150.5,-410.025 157.5,-410.025"/>
</g>
<!-- p10 -->
<g id="node32" class="node"><title>p10</title>
<ellipse fill="none" stroke="black" cx="208" cy="-491" rx="18" ry="18"/>
<text text-anchor="middle" x="208" y="-487.3" font-family="Times,serif" font-size="14.00">p10</text>
</g>
<!-- transition11 -->
<g id="node34" class="node"><title>transition11</title>
<polygon fill="none" stroke="black" points="245,-437 209,-437 209,-436 245,-436 245,-437"/>
<text text-anchor="middle" x="194" y="-440.8" font-family="Times,serif" font-size="14.00">dreq&#45;</text>
</g>
<!-- p10&#45;&gt;transition11 -->
<g id="edge35" class="edge"><title>p10&#45;&gt;transition11</title>
<path fill="none" stroke="black" d="M213.804,-473.81C217.694,-462.958 222.565,-449.372 225.164,-442.121"/>
<polygon fill="none" stroke="black" points="226.938,-442.359 226.978,-437.061 223.643,-441.177 226.938,-442.359"/>
</g>
<!-- transition10&#45;&gt;p10 -->
<g id="edge34" class="edge"><title>transition10&#45;&gt;p10</title>
<path fill="none" stroke="black" d="M208,-544.848C208,-543.368 208,-531.319 208,-519.1"/>
<polygon fill="black" stroke="black" points="211.5,-519.025 208,-509.025 204.5,-519.025 211.5,-519.025"/>
</g>
<!-- transition11&#45;&gt;p5 -->
<g id="edge36" class="edge"><title>transition11&#45;&gt;p5</title>
<path fill="none" stroke="black" d="M227.077,-437.169C228.661,-440.649 254,-497.069 254,-545 254,-928 254,-928 254,-928 254,-958.969 238.039,-991.447 225.344,-1012.38"/>
<polygon fill="black" stroke="black" points="222.361,-1010.55 219.984,-1020.88 228.281,-1014.29 222.361,-1010.55"/>
</g>
</g>
</svg>
