<?xml version="1.0" encoding="UTF-8" standalone="no"?>
<!DOCTYPE svg PUBLIC "-//W3C//DTD SVG 1.1//EN"
 "http://www.w3.org/Graphics/SVG/1.1/DTD/svg11.dtd">
<!-- Generated by graphviz version 2.38.0 (20140413.2041)
 -->
<!-- Title: %3 Pages: 1 -->
<svg width="286pt" height="1498pt"
 viewBox="0.00 0.00 286.00 1498.00" xmlns="http://www.w3.org/2000/svg" xmlns:xlink="http://www.w3.org/1999/xlink">
<g id="graph0" class="graph" transform="scale(1 1) rotate(0) translate(4 1494)">
<title>%3</title>
<polygon fill="white" stroke="none" points="-4,4 -4,-1494 282,-1494 282,4 -4,4"/>
<!-- p1 -->
<g id="node1" class="node"><title>p1</title>
<ellipse fill="none" stroke="black" cx="255" cy="-1472" rx="18" ry="18"/>
<text text-anchor="middle" x="255" y="-1468.3" font-family="Times,serif" font-size="14.00">p1</text>
</g>
<!-- transition0 -->
<g id="node3" class="node"><title>transition0</title>
<polygon fill="none" stroke="black" points="250,-1418 214,-1418 214,-1417 250,-1417 250,-1418"/>
<text text-anchor="middle" x="189" y="-1421.8" font-family="Times,serif" font-size="14.00">ok+frin*</text>
</g>
<!-- p1&#45;&gt;transition0 -->
<g id="edge1" class="edge"><title>p1&#45;&gt;transition0</title>
<path fill="none" stroke="black" d="M248.099,-1455.1C243.279,-1443.99 237.169,-1429.91 234.044,-1422.71"/>
<polygon fill="none" stroke="black" points="235.623,-1421.95 232.027,-1418.06 232.412,-1423.35 235.623,-1421.95"/>
</g>
<!-- p2 -->
<g id="node2" class="node"><title>p2</title>
<ellipse fill="none" stroke="black" cx="232" cy="-1363" rx="18" ry="18"/>
<text text-anchor="middle" x="232" y="-1359.3" font-family="Times,serif" font-size="14.00">p2</text>
</g>
<!-- transition1 -->
<g id="node5" class="node"><title>transition1</title>
<polygon fill="none" stroke="black" points="250,-1309 214,-1309 214,-1308 250,-1308 250,-1309"/>
<text text-anchor="middle" x="197.5" y="-1312.8" font-family="Times,serif" font-size="14.00">dreq+</text>
</g>
<!-- p2&#45;&gt;transition1 -->
<g id="edge3" class="edge"><title>p2&#45;&gt;transition1</title>
<path fill="none" stroke="black" d="M232,-1344.94C232,-1334.39 232,-1321.53 232,-1314.41"/>
<polygon fill="none" stroke="black" points="233.75,-1314.06 232,-1309.06 230.25,-1314.06 233.75,-1314.06"/>
</g>
<!-- transition0&#45;&gt;p2 -->
<g id="edge2" class="edge"><title>transition0&#45;&gt;p2</title>
<path fill="none" stroke="black" d="M232,-1416.85C232,-1415.37 232,-1403.32 232,-1391.1"/>
<polygon fill="black" stroke="black" points="235.5,-1391.02 232,-1381.02 228.5,-1391.02 235.5,-1391.02"/>
</g>
<!-- p3 -->
<g id="node4" class="node"><title>p3</title>
<ellipse fill="none" stroke="black" cx="232" cy="-1254" rx="18" ry="18"/>
<text text-anchor="middle" x="232" y="-1250.3" font-family="Times,serif" font-size="14.00">p3</text>
</g>
<!-- transition4 -->
<g id="node7" class="node"><title>transition4</title>
<polygon fill="none" stroke="black" points="250,-1200 214,-1200 214,-1199 250,-1199 250,-1200"/>
<text text-anchor="middle" x="156.5" y="-1203.8" font-family="Times,serif" font-size="14.00">[cntgt1&#45;]frin*dackn&#45;</text>
</g>
<!-- p3&#45;&gt;transition4 -->
<g id="edge5" class="edge"><title>p3&#45;&gt;transition4</title>
<path fill="none" stroke="black" d="M232,-1235.94C232,-1225.39 232,-1212.53 232,-1205.41"/>
<polygon fill="none" stroke="black" points="233.75,-1205.06 232,-1200.06 230.25,-1205.06 233.75,-1205.06"/>
</g>
<!-- transition2 -->
<g id="node18" class="node"><title>transition2</title>
<polygon fill="none" stroke="black" points="187,-1200 151,-1200 151,-1199 187,-1199 187,-1200"/>
<text text-anchor="middle" x="92" y="-1187.8" font-family="Times,serif" font-size="14.00">[cntgt1+]frin*dackn&#45;</text>
</g>
<!-- p3&#45;&gt;transition2 -->
<g id="edge17" class="edge"><title>p3&#45;&gt;transition2</title>
<path fill="none" stroke="black" d="M218.639,-1241.76C204.223,-1229.63 182.118,-1211.04 173.072,-1203.43"/>
<polygon fill="none" stroke="black" points="174.043,-1201.96 169.09,-1200.08 171.789,-1204.63 174.043,-1201.96"/>
</g>
<!-- transition1&#45;&gt;p3 -->
<g id="edge4" class="edge"><title>transition1&#45;&gt;p3</title>
<path fill="none" stroke="black" d="M232,-1307.85C232,-1306.37 232,-1294.32 232,-1282.1"/>
<polygon fill="black" stroke="black" points="235.5,-1282.02 232,-1272.02 228.5,-1282.02 235.5,-1282.02"/>
</g>
<!-- p16 -->
<g id="node6" class="node"><title>p16</title>
<ellipse fill="none" stroke="black" cx="232" cy="-1145" rx="18" ry="18"/>
<text text-anchor="middle" x="232" y="-1141.3" font-family="Times,serif" font-size="14.00">p16</text>
</g>
<!-- transition5 -->
<g id="node9" class="node"><title>transition5</title>
<polygon fill="none" stroke="black" points="250,-1036.5 214,-1036.5 214,-1035.5 250,-1035.5 250,-1036.5"/>
<text text-anchor="middle" x="199" y="-1040.3" font-family="Times,serif" font-size="14.00">dreq&#45;</text>
</g>
<!-- p16&#45;&gt;transition5 -->
<g id="edge7" class="edge"><title>p16&#45;&gt;transition5</title>
<path fill="none" stroke="black" d="M232,-1126.81C232,-1101.92 232,-1057.18 232,-1042.11"/>
<polygon fill="none" stroke="black" points="233.75,-1042.04 232,-1037.04 230.25,-1042.04 233.75,-1042.04"/>
</g>
<!-- transition4&#45;&gt;p16 -->
<g id="edge6" class="edge"><title>transition4&#45;&gt;p16</title>
<path fill="none" stroke="black" d="M232,-1198.85C232,-1197.37 232,-1185.32 232,-1173.1"/>
<polygon fill="black" stroke="black" points="235.5,-1173.02 232,-1163.02 228.5,-1173.02 235.5,-1173.02"/>
</g>
<!-- p11 -->
<g id="node8" class="node"><title>p11</title>
<ellipse fill="none" stroke="black" cx="232" cy="-382" rx="18" ry="18"/>
<text text-anchor="middle" x="232" y="-378.3" font-family="Times,serif" font-size="14.00">p11</text>
</g>
<!-- transition14 -->
<g id="node11" class="node"><title>transition14</title>
<polygon fill="none" stroke="black" points="250,-328 214,-328 214,-327 250,-327 250,-328"/>
<text text-anchor="middle" x="168.5" y="-331.8" font-family="Times,serif" font-size="14.00">ok*frin+dackn+</text>
</g>
<!-- p11&#45;&gt;transition14 -->
<g id="edge9" class="edge"><title>p11&#45;&gt;transition14</title>
<path fill="none" stroke="black" d="M232,-363.939C232,-353.385 232,-340.534 232,-333.412"/>
<polygon fill="none" stroke="black" points="233.75,-333.059 232,-328.059 230.25,-333.059 233.75,-333.059"/>
</g>
<!-- transition5&#45;&gt;p11 -->
<g id="edge8" class="edge"><title>transition5&#45;&gt;p11</title>
<path fill="none" stroke="black" d="M232.003,-1034.96C232.124,-1033.15 236,-974.845 236,-928 236,-928 236,-928 236,-490 236,-462.807 234.694,-431.753 233.574,-410.13"/>
<polygon fill="black" stroke="black" points="237.064,-409.839 233.03,-400.042 230.074,-410.216 237.064,-409.839"/>
</g>
<!-- p12 -->
<g id="node10" class="node"><title>p12</title>
<ellipse fill="none" stroke="black" cx="232" cy="-273" rx="18" ry="18"/>
<text text-anchor="middle" x="232" y="-269.3" font-family="Times,serif" font-size="14.00">p12</text>
</g>
<!-- transition15 -->
<g id="node13" class="node"><title>transition15</title>
<polygon fill="none" stroke="black" points="250,-219 214,-219 214,-218 250,-218 250,-219"/>
<text text-anchor="middle" x="195.5" y="-222.8" font-family="Times,serif" font-size="14.00">faout+</text>
</g>
<!-- p12&#45;&gt;transition15 -->
<g id="edge11" class="edge"><title>p12&#45;&gt;transition15</title>
<path fill="none" stroke="black" d="M232,-254.939C232,-244.385 232,-231.534 232,-224.412"/>
<polygon fill="none" stroke="black" points="233.75,-224.059 232,-219.059 230.25,-224.059 233.75,-224.059"/>
</g>
<!-- transition14&#45;&gt;p12 -->
<g id="edge10" class="edge"><title>transition14&#45;&gt;p12</title>
<path fill="none" stroke="black" d="M232,-326.848C232,-325.368 232,-313.319 232,-301.1"/>
<polygon fill="black" stroke="black" points="235.5,-301.025 232,-291.025 228.5,-301.025 235.5,-301.025"/>
</g>
<!-- p13 -->
<g id="node12" class="node"><title>p13</title>
<ellipse fill="none" stroke="black" cx="232" cy="-164" rx="18" ry="18"/>
<text text-anchor="middle" x="232" y="-160.3" font-family="Times,serif" font-size="14.00">p13</text>
</g>
<!-- transition16 -->
<g id="node15" class="node"><title>transition16</title>
<polygon fill="none" stroke="black" points="250,-110 214,-110 214,-109 250,-109 250,-110"/>
<text text-anchor="middle" x="192" y="-113.8" font-family="Times,serif" font-size="14.00">ok&#45;frin&#45;</text>
</g>
<!-- p13&#45;&gt;transition16 -->
<g id="edge13" class="edge"><title>p13&#45;&gt;transition16</title>
<path fill="none" stroke="black" d="M232,-145.939C232,-135.385 232,-122.534 232,-115.412"/>
<polygon fill="none" stroke="black" points="233.75,-115.059 232,-110.059 230.25,-115.059 233.75,-115.059"/>
</g>
<!-- transition15&#45;&gt;p13 -->
<g id="edge12" class="edge"><title>transition15&#45;&gt;p13</title>
<path fill="none" stroke="black" d="M232,-217.848C232,-216.368 232,-204.319 232,-192.1"/>
<polygon fill="black" stroke="black" points="235.5,-192.025 232,-182.025 228.5,-192.025 235.5,-192.025"/>
</g>
<!-- p14 -->
<g id="node14" class="node"><title>p14</title>
<ellipse fill="none" stroke="black" cx="232" cy="-55" rx="18" ry="18"/>
<text text-anchor="middle" x="232" y="-51.3" font-family="Times,serif" font-size="14.00">p14</text>
</g>
<!-- transition17 -->
<g id="node16" class="node"><title>transition17</title>
<polygon fill="none" stroke="black" points="273,-1 237,-1 237,-0 273,-0 273,-1"/>
<text text-anchor="middle" x="220" y="-4.8" font-family="Times,serif" font-size="14.00">faout&#45;</text>
</g>
<!-- p14&#45;&gt;transition17 -->
<g id="edge15" class="edge"><title>p14&#45;&gt;transition17</title>
<path fill="none" stroke="black" d="M238.901,-38.0983C243.721,-26.9918 249.831,-12.9118 252.956,-5.7104"/>
<polygon fill="none" stroke="black" points="254.588,-6.34553 254.973,-1.06211 251.377,-4.95216 254.588,-6.34553"/>
</g>
<!-- transition16&#45;&gt;p14 -->
<g id="edge14" class="edge"><title>transition16&#45;&gt;p14</title>
<path fill="none" stroke="black" d="M232,-108.848C232,-107.368 232,-95.3194 232,-83.1004"/>
<polygon fill="black" stroke="black" points="235.5,-83.0247 232,-73.0247 228.5,-83.0248 235.5,-83.0247"/>
</g>
<!-- transition17&#45;&gt;p1 -->
<g id="edge16" class="edge"><title>transition17&#45;&gt;p1</title>
<path fill="none" stroke="black" d="M255.017,-1.04289C255.713,-2.83896 278,-60.6904 278,-109 278,-1364 278,-1364 278,-1364 278,-1392.25 270.243,-1423.77 263.738,-1445.24"/>
<polygon fill="black" stroke="black" points="260.358,-1444.33 260.685,-1454.92 267.033,-1446.43 260.358,-1444.33"/>
</g>
<!-- p4 -->
<g id="node17" class="node"><title>p4</title>
<ellipse fill="none" stroke="black" cx="150" cy="-1145" rx="18" ry="18"/>
<text text-anchor="middle" x="150" y="-1141.3" font-family="Times,serif" font-size="14.00">p4</text>
</g>
<!-- transition3 -->
<g id="node20" class="node"><title>transition3</title>
<polygon fill="none" stroke="black" points="163,-1091 127,-1091 127,-1090 163,-1090 163,-1091"/>
<text text-anchor="middle" x="112" y="-1094.8" font-family="Times,serif" font-size="14.00">dreq&#45;</text>
</g>
<!-- p4&#45;&gt;transition3 -->
<g id="edge19" class="edge"><title>p4&#45;&gt;transition3</title>
<path fill="none" stroke="black" d="M148.39,-1126.94C147.395,-1116.39 146.182,-1103.53 145.511,-1096.41"/>
<polygon fill="none" stroke="black" points="147.218,-1095.87 145.006,-1091.06 143.733,-1096.2 147.218,-1095.87"/>
</g>
<!-- transition2&#45;&gt;p4 -->
<g id="edge18" class="edge"><title>transition2&#45;&gt;p4</title>
<path fill="none" stroke="black" d="M168.945,-1198.85C168.394,-1197.31 163.747,-1184.35 159.195,-1171.65"/>
<polygon fill="black" stroke="black" points="162.47,-1170.41 155.801,-1162.18 155.881,-1172.78 162.47,-1170.41"/>
</g>
<!-- p5 -->
<g id="node19" class="node"><title>p5</title>
<ellipse fill="none" stroke="black" cx="143" cy="-1036" rx="18" ry="18"/>
<text text-anchor="middle" x="143" y="-1032.3" font-family="Times,serif" font-size="14.00">p5</text>
</g>
<!-- transition6 -->
<g id="node22" class="node"><title>transition6</title>
<polygon fill="none" stroke="black" points="161,-982 125,-982 125,-981 161,-981 161,-982"/>
<text text-anchor="middle" x="90" y="-985.8" font-family="Times,serif" font-size="14.00">frin+dackn+</text>
</g>
<!-- p5&#45;&gt;transition6 -->
<g id="edge21" class="edge"><title>p5&#45;&gt;transition6</title>
<path fill="none" stroke="black" d="M143,-1017.94C143,-1007.39 143,-994.534 143,-987.412"/>
<polygon fill="none" stroke="black" points="144.75,-987.059 143,-982.059 141.25,-987.059 144.75,-987.059"/>
</g>
<!-- transition3&#45;&gt;p5 -->
<g id="edge20" class="edge"><title>transition3&#45;&gt;p5</title>
<path fill="none" stroke="black" d="M144.994,-1089.85C144.938,-1088.37 144.484,-1076.32 144.023,-1064.1"/>
<polygon fill="black" stroke="black" points="147.517,-1063.89 143.642,-1054.02 140.522,-1064.15 147.517,-1063.89"/>
</g>
<!-- p6 -->
<g id="node21" class="node"><title>p6</title>
<ellipse fill="none" stroke="black" cx="143" cy="-927" rx="18" ry="18"/>
<text text-anchor="middle" x="143" y="-923.3" font-family="Times,serif" font-size="14.00">p6</text>
</g>
<!-- transition7 -->
<g id="node24" class="node"><title>transition7</title>
<polygon fill="none" stroke="black" points="161,-873 125,-873 125,-872 161,-872 161,-873"/>
<text text-anchor="middle" x="106.5" y="-876.8" font-family="Times,serif" font-size="14.00">faout+</text>
</g>
<!-- p6&#45;&gt;transition7 -->
<g id="edge23" class="edge"><title>p6&#45;&gt;transition7</title>
<path fill="none" stroke="black" d="M143,-908.939C143,-898.385 143,-885.534 143,-878.412"/>
<polygon fill="none" stroke="black" points="144.75,-878.059 143,-873.059 141.25,-878.059 144.75,-878.059"/>
</g>
<!-- transition6&#45;&gt;p6 -->
<g id="edge22" class="edge"><title>transition6&#45;&gt;p6</title>
<path fill="none" stroke="black" d="M143,-980.848C143,-979.368 143,-967.319 143,-955.1"/>
<polygon fill="black" stroke="black" points="146.5,-955.025 143,-945.025 139.5,-955.025 146.5,-955.025"/>
</g>
<!-- p7 -->
<g id="node23" class="node"><title>p7</title>
<ellipse fill="none" stroke="black" cx="143" cy="-818" rx="18" ry="18"/>
<text text-anchor="middle" x="143" y="-814.3" font-family="Times,serif" font-size="14.00">p7</text>
</g>
<!-- transition8 -->
<g id="node26" class="node"><title>transition8</title>
<polygon fill="none" stroke="black" points="161,-764 125,-764 125,-763 161,-763 161,-764"/>
<text text-anchor="middle" x="112.5" y="-767.8" font-family="Times,serif" font-size="14.00">frin&#45;</text>
</g>
<!-- p7&#45;&gt;transition8 -->
<g id="edge25" class="edge"><title>p7&#45;&gt;transition8</title>
<path fill="none" stroke="black" d="M143,-799.939C143,-789.385 143,-776.534 143,-769.412"/>
<polygon fill="none" stroke="black" points="144.75,-769.059 143,-764.059 141.25,-769.059 144.75,-769.059"/>
</g>
<!-- transition7&#45;&gt;p7 -->
<g id="edge24" class="edge"><title>transition7&#45;&gt;p7</title>
<path fill="none" stroke="black" d="M143,-871.848C143,-870.368 143,-858.319 143,-846.1"/>
<polygon fill="black" stroke="black" points="146.5,-846.025 143,-836.025 139.5,-846.025 146.5,-846.025"/>
</g>
<!-- p8 -->
<g id="node25" class="node"><title>p8</title>
<ellipse fill="none" stroke="black" cx="143" cy="-709" rx="18" ry="18"/>
<text text-anchor="middle" x="143" y="-705.3" font-family="Times,serif" font-size="14.00">p8</text>
</g>
<!-- transition9 -->
<g id="node28" class="node"><title>transition9</title>
<polygon fill="none" stroke="black" points="161,-655 125,-655 125,-654 161,-654 161,-655"/>
<text text-anchor="middle" x="91.5" y="-658.8" font-family="Times,serif" font-size="14.00">dreq+faout&#45;</text>
</g>
<!-- p8&#45;&gt;transition9 -->
<g id="edge27" class="edge"><title>p8&#45;&gt;transition9</title>
<path fill="none" stroke="black" d="M143,-690.939C143,-680.385 143,-667.534 143,-660.412"/>
<polygon fill="none" stroke="black" points="144.75,-660.059 143,-655.059 141.25,-660.059 144.75,-660.059"/>
</g>
<!-- transition8&#45;&gt;p8 -->
<g id="edge26" class="edge"><title>transition8&#45;&gt;p8</title>
<path fill="none" stroke="black" d="M143,-762.848C143,-761.368 143,-749.319 143,-737.1"/>
<polygon fill="black" stroke="black" points="146.5,-737.025 143,-727.025 139.5,-737.025 146.5,-737.025"/>
</g>
<!-- p9 -->
<g id="node27" class="node"><title>p9</title>
<ellipse fill="none" stroke="black" cx="143" cy="-600" rx="18" ry="18"/>
<text text-anchor="middle" x="143" y="-596.3" font-family="Times,serif" font-size="14.00">p9</text>
</g>
<!-- transition10 -->
<g id="node30" class="node"><title>transition10</title>
<polygon fill="none" stroke="black" points="154,-546 118,-546 118,-545 154,-545 154,-546"/>
<text text-anchor="middle" x="59" y="-549.8" font-family="Times,serif" font-size="14.00">[cntgt1+]frin*dackn&#45;</text>
</g>
<!-- p9&#45;&gt;transition10 -->
<g id="edge29" class="edge"><title>p9&#45;&gt;transition10</title>
<path fill="none" stroke="black" d="M140.747,-581.939C139.353,-571.385 137.655,-558.534 136.715,-551.412"/>
<polygon fill="none" stroke="black" points="138.398,-550.787 136.008,-546.059 134.928,-551.245 138.398,-550.787"/>
</g>
<!-- transition12 -->
<g id="node33" class="node"><title>transition12</title>
<polygon fill="none" stroke="black" points="208,-546 172,-546 172,-545 208,-545 208,-546"/>
<text text-anchor="middle" x="114.5" y="-533.8" font-family="Times,serif" font-size="14.00">[cntgt1&#45;]frin*dackn&#45;</text>
</g>
<!-- p9&#45;&gt;transition12 -->
<g id="edge33" class="edge"><title>p9&#45;&gt;transition12</title>
<path fill="none" stroke="black" d="M154.618,-585.899C165.152,-574.02 180.008,-557.268 186.61,-549.823"/>
<polygon fill="none" stroke="black" points="187.93,-550.972 189.938,-546.07 185.311,-548.65 187.93,-550.972"/>
</g>
<!-- transition9&#45;&gt;p9 -->
<g id="edge28" class="edge"><title>transition9&#45;&gt;p9</title>
<path fill="none" stroke="black" d="M143,-653.848C143,-652.368 143,-640.319 143,-628.1"/>
<polygon fill="black" stroke="black" points="146.5,-628.025 143,-618.025 139.5,-628.025 146.5,-628.025"/>
</g>
<!-- p10 -->
<g id="node29" class="node"><title>p10</title>
<ellipse fill="none" stroke="black" cx="136" cy="-491" rx="18" ry="18"/>
<text text-anchor="middle" x="136" y="-487.3" font-family="Times,serif" font-size="14.00">p10</text>
</g>
<!-- transition11 -->
<g id="node31" class="node"><title>transition11</title>
<polygon fill="none" stroke="black" points="131,-437 95,-437 95,-436 131,-436 131,-437"/>
<text text-anchor="middle" x="80" y="-440.8" font-family="Times,serif" font-size="14.00">dreq&#45;</text>
</g>
<!-- p10&#45;&gt;transition11 -->
<g id="edge31" class="edge"><title>p10&#45;&gt;transition11</title>
<path fill="none" stroke="black" d="M129.099,-474.098C124.279,-462.992 118.169,-448.912 115.044,-441.71"/>
<polygon fill="none" stroke="black" points="116.623,-440.952 113.027,-437.062 113.412,-442.346 116.623,-440.952"/>
</g>
<!-- transition10&#45;&gt;p10 -->
<g id="edge30" class="edge"><title>transition10&#45;&gt;p10</title>
<path fill="none" stroke="black" d="M136,-544.848C136,-543.368 136,-531.319 136,-519.1"/>
<polygon fill="black" stroke="black" points="139.5,-519.025 136,-509.025 132.5,-519.025 139.5,-519.025"/>
</g>
<!-- transition11&#45;&gt;p5 -->
<g id="edge32" class="edge"><title>transition11&#45;&gt;p5</title>
<path fill="none" stroke="black" d="M112.983,-437.043C112.287,-438.839 90,-496.69 90,-545 90,-928 90,-928 90,-928 90,-960.469 109.839,-993.26 125.241,-1013.83"/>
<polygon fill="black" stroke="black" points="122.591,-1016.12 131.5,-1021.85 128.112,-1011.82 122.591,-1016.12"/>
</g>
<!-- p15 -->
<g id="node32" class="node"><title>p15</title>
<ellipse fill="none" stroke="black" cx="190" cy="-491" rx="18" ry="18"/>
<text text-anchor="middle" x="190" y="-487.3" font-family="Times,serif" font-size="14.00">p15</text>
</g>
<!-- transition13 -->
<g id="node34" class="node"><title>transition13</title>
<polygon fill="none" stroke="black" points="208,-437 172,-437 172,-436 208,-436 208,-437"/>
<text text-anchor="middle" x="157" y="-440.8" font-family="Times,serif" font-size="14.00">dreq&#45;</text>
</g>
<!-- p15&#45;&gt;transition13 -->
<g id="edge35" class="edge"><title>p15&#45;&gt;transition13</title>
<path fill="none" stroke="black" d="M190,-472.939C190,-462.385 190,-449.534 190,-442.412"/>
<polygon fill="none" stroke="black" points="191.75,-442.059 190,-437.059 188.25,-442.059 191.75,-442.059"/>
</g>
<!-- transition12&#45;&gt;p15 -->
<g id="edge34" class="edge"><title>transition12&#45;&gt;p15</title>
<path fill="none" stroke="black" d="M190,-544.848C190,-543.368 190,-531.319 190,-519.1"/>
<polygon fill="black" stroke="black" points="193.5,-519.025 190,-509.025 186.5,-519.025 193.5,-519.025"/>
</g>
<!-- transition13&#45;&gt;p11 -->
<g id="edge36" class="edge"><title>transition13&#45;&gt;p11</title>
<path fill="none" stroke="black" d="M190.12,-435.848C191.459,-434.159 203.712,-418.697 214.62,-404.931"/>
<polygon fill="black" stroke="black" points="217.662,-406.729 221.129,-396.718 212.175,-402.381 217.662,-406.729"/>
</g>
</g>
</svg>
