<?xml version="1.0" encoding="UTF-8" standalone="no"?>
<!DOCTYPE svg PUBLIC "-//W3C//DTD SVG 1.1//EN"
 "http://www.w3.org/Graphics/SVG/1.1/DTD/svg11.dtd">
<!-- Generated by graphviz version 2.38.0 (20140413.2041)
 -->
<!-- Title: %3 Pages: 1 -->
<svg width="284pt" height="1062pt"
 viewBox="0.00 0.00 284.00 1062.00" xmlns="http://www.w3.org/2000/svg" xmlns:xlink="http://www.w3.org/1999/xlink">
<g id="graph0" class="graph" transform="scale(1 1) rotate(0) translate(4 1058)">
<title>%3</title>
<polygon fill="white" stroke="none" points="-4,4 -4,-1058 280,-1058 280,4 -4,4"/>
<!-- p1 -->
<g id="node1" class="node"><title>p1</title>
<ellipse fill="none" stroke="black" cx="230" cy="-1036" rx="18" ry="18"/>
<text text-anchor="middle" x="230" y="-1032.3" font-family="Times,serif" font-size="14.00">p1</text>
</g>
<!-- transition0 -->
<g id="node3" class="node"><title>transition0</title>
<polygon fill="none" stroke="black" points="225,-982 189,-982 189,-981 225,-981 225,-982"/>
<text text-anchor="middle" x="178" y="-985.8" font-family="Times,serif" font-size="14.00">ok+</text>
</g>
<!-- p1&#45;&gt;transition0 -->
<g id="edge1" class="edge"><title>p1&#45;&gt;transition0</title>
<path fill="none" stroke="black" d="M223.099,-1019.1C218.279,-1007.99 212.169,-993.912 209.044,-986.71"/>
<polygon fill="none" stroke="black" points="210.623,-985.952 207.027,-982.062 207.412,-987.346 210.623,-985.952"/>
</g>
<!-- p2 -->
<g id="node2" class="node"><title>p2</title>
<ellipse fill="none" stroke="black" cx="207" cy="-927" rx="18" ry="18"/>
<text text-anchor="middle" x="207" y="-923.3" font-family="Times,serif" font-size="14.00">p2</text>
</g>
<!-- transition1 -->
<g id="node5" class="node"><title>transition1</title>
<polygon fill="none" stroke="black" points="224,-873 188,-873 188,-872 224,-872 224,-873"/>
<text text-anchor="middle" x="170" y="-876.8" font-family="Times,serif" font-size="14.00">frout+</text>
</g>
<!-- p2&#45;&gt;transition1 -->
<g id="edge3" class="edge"><title>p2&#45;&gt;transition1</title>
<path fill="none" stroke="black" d="M206.678,-908.939C206.479,-898.385 206.236,-885.534 206.102,-878.412"/>
<polygon fill="none" stroke="black" points="207.845,-878.025 206.001,-873.059 204.346,-878.091 207.845,-878.025"/>
</g>
<!-- transition0&#45;&gt;p2 -->
<g id="edge2" class="edge"><title>transition0&#45;&gt;p2</title>
<path fill="none" stroke="black" d="M207,-980.848C207,-979.368 207,-967.319 207,-955.1"/>
<polygon fill="black" stroke="black" points="210.5,-955.025 207,-945.025 203.5,-955.025 210.5,-955.025"/>
</g>
<!-- p3 -->
<g id="node4" class="node"><title>p3</title>
<ellipse fill="none" stroke="black" cx="195" cy="-818" rx="18" ry="18"/>
<text text-anchor="middle" x="195" y="-814.3" font-family="Times,serif" font-size="14.00">p3</text>
</g>
<!-- transition2 -->
<g id="node7" class="node"><title>transition2</title>
<polygon fill="none" stroke="black" points="207,-764 171,-764 171,-763 207,-763 207,-764"/>
<text text-anchor="middle" x="156" y="-767.8" font-family="Times,serif" font-size="14.00">fain+</text>
</g>
<!-- p3&#45;&gt;transition2 -->
<g id="edge5" class="edge"><title>p3&#45;&gt;transition2</title>
<path fill="none" stroke="black" d="M193.069,-799.939C191.874,-789.385 190.419,-776.534 189.613,-769.412"/>
<polygon fill="none" stroke="black" points="191.308,-768.831 189.007,-764.059 187.83,-769.224 191.308,-768.831"/>
</g>
<!-- transition1&#45;&gt;p3 -->
<g id="edge4" class="edge"><title>transition1&#45;&gt;p3</title>
<path fill="none" stroke="black" d="M205.968,-871.848C205.659,-870.359 203.128,-858.164 200.576,-845.865"/>
<polygon fill="black" stroke="black" points="203.934,-844.822 198.475,-835.742 197.08,-846.245 203.934,-844.822"/>
</g>
<!-- p4 -->
<g id="node6" class="node"><title>p4</title>
<ellipse fill="none" stroke="black" cx="186" cy="-709" rx="18" ry="18"/>
<text text-anchor="middle" x="186" y="-705.3" font-family="Times,serif" font-size="14.00">p4</text>
</g>
<!-- transition3 -->
<g id="node9" class="node"><title>transition3</title>
<polygon fill="none" stroke="black" points="203,-655 167,-655 167,-654 203,-654 203,-655"/>
<text text-anchor="middle" x="134.5" y="-658.8" font-family="Times,serif" font-size="14.00">dreq+frout&#45;</text>
</g>
<!-- p4&#45;&gt;transition3 -->
<g id="edge7" class="edge"><title>p4&#45;&gt;transition3</title>
<path fill="none" stroke="black" d="M185.678,-690.939C185.479,-680.385 185.236,-667.534 185.102,-660.412"/>
<polygon fill="none" stroke="black" points="186.845,-660.025 185.001,-655.059 183.346,-660.091 186.845,-660.025"/>
</g>
<!-- transition2&#45;&gt;p4 -->
<g id="edge6" class="edge"><title>transition2&#45;&gt;p4</title>
<path fill="none" stroke="black" d="M188.991,-762.848C188.908,-761.368 188.226,-749.319 187.534,-737.1"/>
<polygon fill="black" stroke="black" points="191.023,-736.811 186.964,-727.025 184.034,-737.207 191.023,-736.811"/>
</g>
<!-- p5 -->
<g id="node8" class="node"><title>p5</title>
<ellipse fill="none" stroke="black" cx="184" cy="-600" rx="18" ry="18"/>
<text text-anchor="middle" x="184" y="-596.3" font-family="Times,serif" font-size="14.00">p5</text>
</g>
<!-- transition4 -->
<g id="node11" class="node"><title>transition4</title>
<polygon fill="none" stroke="black" points="156,-546 120,-546 120,-545 156,-545 156,-546"/>
<text text-anchor="middle" x="60" y="-549.8" font-family="Times,serif" font-size="14.00">[cntgt1+]fain*dackn&#45;</text>
</g>
<!-- p5&#45;&gt;transition4 -->
<g id="edge9" class="edge"><title>p5&#45;&gt;transition4</title>
<path fill="none" stroke="black" d="M172.629,-585.899C162.526,-574.258 148.36,-557.936 141.715,-550.281"/>
<polygon fill="none" stroke="black" points="142.66,-548.699 138.061,-546.07 140.016,-550.993 142.66,-548.699"/>
</g>
<!-- transition10 -->
<g id="node22" class="node"><title>transition10</title>
<polygon fill="none" stroke="black" points="248,-546 212,-546 212,-545 248,-545 248,-546"/>
<text text-anchor="middle" x="154" y="-533.8" font-family="Times,serif" font-size="14.00">[cntgt1&#45;]fain*dackn&#45;</text>
</g>
<!-- p5&#45;&gt;transition10 -->
<g id="edge21" class="edge"><title>p5&#45;&gt;transition10</title>
<path fill="none" stroke="black" d="M195.371,-585.899C205.474,-574.258 219.64,-557.936 226.285,-550.281"/>
<polygon fill="none" stroke="black" points="227.984,-550.993 229.939,-546.07 225.34,-548.699 227.984,-550.993"/>
</g>
<!-- transition3&#45;&gt;p5 -->
<g id="edge8" class="edge"><title>transition3&#45;&gt;p5</title>
<path fill="none" stroke="black" d="M184.997,-653.848C184.969,-652.368 184.742,-640.319 184.511,-628.1"/>
<polygon fill="black" stroke="black" points="188.009,-627.957 184.321,-618.025 181.011,-628.089 188.009,-627.957"/>
</g>
<!-- p6 -->
<g id="node10" class="node"><title>p6</title>
<ellipse fill="none" stroke="black" cx="138" cy="-491" rx="18" ry="18"/>
<text text-anchor="middle" x="138" y="-487.3" font-family="Times,serif" font-size="14.00">p6</text>
</g>
<!-- transition5 -->
<g id="node13" class="node"><title>transition5</title>
<polygon fill="none" stroke="black" points="156,-437 120,-437 120,-436 156,-436 156,-437"/>
<text text-anchor="middle" x="105" y="-440.8" font-family="Times,serif" font-size="14.00">dreq&#45;</text>
</g>
<!-- p6&#45;&gt;transition5 -->
<g id="edge11" class="edge"><title>p6&#45;&gt;transition5</title>
<path fill="none" stroke="black" d="M138,-472.939C138,-462.385 138,-449.534 138,-442.412"/>
<polygon fill="none" stroke="black" points="139.75,-442.059 138,-437.059 136.25,-442.059 139.75,-442.059"/>
</g>
<!-- transition4&#45;&gt;p6 -->
<g id="edge10" class="edge"><title>transition4&#45;&gt;p6</title>
<path fill="none" stroke="black" d="M138,-544.848C138,-543.368 138,-531.319 138,-519.1"/>
<polygon fill="black" stroke="black" points="141.5,-519.025 138,-509.025 134.5,-519.025 141.5,-519.025"/>
</g>
<!-- p7 -->
<g id="node12" class="node"><title>p7</title>
<ellipse fill="none" stroke="black" cx="138" cy="-382" rx="18" ry="18"/>
<text text-anchor="middle" x="138" y="-378.3" font-family="Times,serif" font-size="14.00">p7</text>
</g>
<!-- transition6 -->
<g id="node15" class="node"><title>transition6</title>
<polygon fill="none" stroke="black" points="156,-328 120,-328 120,-327 156,-327 156,-328"/>
<text text-anchor="middle" x="86" y="-331.8" font-family="Times,serif" font-size="14.00">fain&#45;dackn+</text>
</g>
<!-- p7&#45;&gt;transition6 -->
<g id="edge13" class="edge"><title>p7&#45;&gt;transition6</title>
<path fill="none" stroke="black" d="M138,-363.939C138,-353.385 138,-340.534 138,-333.412"/>
<polygon fill="none" stroke="black" points="139.75,-333.059 138,-328.059 136.25,-333.059 139.75,-333.059"/>
</g>
<!-- transition5&#45;&gt;p7 -->
<g id="edge12" class="edge"><title>transition5&#45;&gt;p7</title>
<path fill="none" stroke="black" d="M138,-435.848C138,-434.368 138,-422.319 138,-410.1"/>
<polygon fill="black" stroke="black" points="141.5,-410.025 138,-400.025 134.5,-410.025 141.5,-410.025"/>
</g>
<!-- p8 -->
<g id="node14" class="node"><title>p8</title>
<ellipse fill="none" stroke="black" cx="138" cy="-273" rx="18" ry="18"/>
<text text-anchor="middle" x="138" y="-269.3" font-family="Times,serif" font-size="14.00">p8</text>
</g>
<!-- transition7 -->
<g id="node17" class="node"><title>transition7</title>
<polygon fill="none" stroke="black" points="156,-219 120,-219 120,-218 156,-218 156,-219"/>
<text text-anchor="middle" x="102" y="-222.8" font-family="Times,serif" font-size="14.00">frout+</text>
</g>
<!-- p8&#45;&gt;transition7 -->
<g id="edge15" class="edge"><title>p8&#45;&gt;transition7</title>
<path fill="none" stroke="black" d="M138,-254.939C138,-244.385 138,-231.534 138,-224.412"/>
<polygon fill="none" stroke="black" points="139.75,-224.059 138,-219.059 136.25,-224.059 139.75,-224.059"/>
</g>
<!-- transition6&#45;&gt;p8 -->
<g id="edge14" class="edge"><title>transition6&#45;&gt;p8</title>
<path fill="none" stroke="black" d="M138,-326.848C138,-325.368 138,-313.319 138,-301.1"/>
<polygon fill="black" stroke="black" points="141.5,-301.025 138,-291.025 134.5,-301.025 141.5,-301.025"/>
</g>
<!-- p9 -->
<g id="node16" class="node"><title>p9</title>
<ellipse fill="none" stroke="black" cx="138" cy="-164" rx="18" ry="18"/>
<text text-anchor="middle" x="138" y="-160.3" font-family="Times,serif" font-size="14.00">p9</text>
</g>
<!-- transition8 -->
<g id="node19" class="node"><title>transition8</title>
<polygon fill="none" stroke="black" points="156,-110 120,-110 120,-109 156,-109 156,-110"/>
<text text-anchor="middle" x="105" y="-113.8" font-family="Times,serif" font-size="14.00">fain+</text>
</g>
<!-- p9&#45;&gt;transition8 -->
<g id="edge17" class="edge"><title>p9&#45;&gt;transition8</title>
<path fill="none" stroke="black" d="M138,-145.939C138,-135.385 138,-122.534 138,-115.412"/>
<polygon fill="none" stroke="black" points="139.75,-115.059 138,-110.059 136.25,-115.059 139.75,-115.059"/>
</g>
<!-- transition7&#45;&gt;p9 -->
<g id="edge16" class="edge"><title>transition7&#45;&gt;p9</title>
<path fill="none" stroke="black" d="M138,-217.848C138,-216.368 138,-204.319 138,-192.1"/>
<polygon fill="black" stroke="black" points="141.5,-192.025 138,-182.025 134.5,-192.025 141.5,-192.025"/>
</g>
<!-- p10 -->
<g id="node18" class="node"><title>p10</title>
<ellipse fill="none" stroke="black" cx="138" cy="-55" rx="18" ry="18"/>
<text text-anchor="middle" x="138" y="-51.3" font-family="Times,serif" font-size="14.00">p10</text>
</g>
<!-- transition9 -->
<g id="node20" class="node"><title>transition9</title>
<polygon fill="none" stroke="black" points="179,-1 143,-1 143,-0 179,-0 179,-1"/>
<text text-anchor="middle" x="110.5" y="-4.8" font-family="Times,serif" font-size="14.00">dreq+frout&#45;</text>
</g>
<!-- p10&#45;&gt;transition9 -->
<g id="edge19" class="edge"><title>p10&#45;&gt;transition9</title>
<path fill="none" stroke="black" d="M144.901,-38.0983C149.721,-26.9918 155.831,-12.9118 158.956,-5.7104"/>
<polygon fill="none" stroke="black" points="160.588,-6.34553 160.973,-1.06211 157.377,-4.95216 160.588,-6.34553"/>
</g>
<!-- transition8&#45;&gt;p10 -->
<g id="edge18" class="edge"><title>transition8&#45;&gt;p10</title>
<path fill="none" stroke="black" d="M138,-108.848C138,-107.368 138,-95.3194 138,-83.1004"/>
<polygon fill="black" stroke="black" points="141.5,-83.0247 138,-73.0247 134.5,-83.0248 141.5,-83.0247"/>
</g>
<!-- transition9&#45;&gt;p5 -->
<g id="edge20" class="edge"><title>transition9&#45;&gt;p5</title>
<path fill="none" stroke="black" d="M161.017,-1.04289C161.713,-2.83896 184,-60.6904 184,-109 184,-492 184,-492 184,-492 184,-519.174 184,-550.231 184,-571.86"/>
<polygon fill="black" stroke="black" points="180.5,-571.951 184,-581.951 187.5,-571.951 180.5,-571.951"/>
</g>
<!-- p13 -->
<g id="node21" class="node"><title>p13</title>
<ellipse fill="none" stroke="black" cx="230" cy="-491" rx="18" ry="18"/>
<text text-anchor="middle" x="230" y="-487.3" font-family="Times,serif" font-size="14.00">p13</text>
</g>
<!-- transition11 -->
<g id="node24" class="node"><title>transition11</title>
<polygon fill="none" stroke="black" points="248,-437 212,-437 212,-436 248,-436 248,-437"/>
<text text-anchor="middle" x="197" y="-440.8" font-family="Times,serif" font-size="14.00">dreq&#45;</text>
</g>
<!-- p13&#45;&gt;transition11 -->
<g id="edge23" class="edge"><title>p13&#45;&gt;transition11</title>
<path fill="none" stroke="black" d="M230,-472.939C230,-462.385 230,-449.534 230,-442.412"/>
<polygon fill="none" stroke="black" points="231.75,-442.059 230,-437.059 228.25,-442.059 231.75,-442.059"/>
</g>
<!-- transition10&#45;&gt;p13 -->
<g id="edge22" class="edge"><title>transition10&#45;&gt;p13</title>
<path fill="none" stroke="black" d="M230,-544.848C230,-543.368 230,-531.319 230,-519.1"/>
<polygon fill="black" stroke="black" points="233.5,-519.025 230,-509.025 226.5,-519.025 233.5,-519.025"/>
</g>
<!-- p11 -->
<g id="node23" class="node"><title>p11</title>
<ellipse fill="none" stroke="black" cx="230" cy="-382" rx="18" ry="18"/>
<text text-anchor="middle" x="230" y="-378.3" font-family="Times,serif" font-size="14.00">p11</text>
</g>
<!-- transition12 -->
<g id="node25" class="node"><title>transition12</title>
<polygon fill="none" stroke="black" points="271,-328 235,-328 235,-327 271,-327 271,-328"/>
<text text-anchor="middle" x="191.5" y="-331.8" font-family="Times,serif" font-size="14.00">ok&#45;fain&#45;dackn+</text>
</g>
<!-- p11&#45;&gt;transition12 -->
<g id="edge25" class="edge"><title>p11&#45;&gt;transition12</title>
<path fill="none" stroke="black" d="M236.901,-365.098C241.721,-353.992 247.831,-339.912 250.956,-332.71"/>
<polygon fill="none" stroke="black" points="252.588,-333.346 252.973,-328.062 249.377,-331.952 252.588,-333.346"/>
</g>
<!-- transition11&#45;&gt;p11 -->
<g id="edge24" class="edge"><title>transition11&#45;&gt;p11</title>
<path fill="none" stroke="black" d="M230,-435.848C230,-434.368 230,-422.319 230,-410.1"/>
<polygon fill="black" stroke="black" points="233.5,-410.025 230,-400.025 226.5,-410.025 233.5,-410.025"/>
</g>
<!-- transition12&#45;&gt;p1 -->
<g id="edge26" class="edge"><title>transition12&#45;&gt;p1</title>
<path fill="none" stroke="black" d="M253.017,-328.043C253.713,-329.839 276,-387.69 276,-436 276,-928 276,-928 276,-928 276,-959.176 259.314,-991.612 246.041,-1012.48"/>
<polygon fill="black" stroke="black" points="243.04,-1010.67 240.438,-1020.94 248.877,-1014.54 243.04,-1010.67"/>
</g>
</g>
</svg>
