<?xml version="1.0" encoding="UTF-8" standalone="no"?>
<!DOCTYPE svg PUBLIC "-//W3C//DTD SVG 1.1//EN"
 "http://www.w3.org/Graphics/SVG/1.1/DTD/svg11.dtd">
<!-- Generated by graphviz version 2.38.0 (20140413.2041)
 -->
<!-- Title: %3 Pages: 1 -->
<svg width="148pt" height="1280pt"
 viewBox="0.00 0.00 148.00 1280.00" xmlns="http://www.w3.org/2000/svg" xmlns:xlink="http://www.w3.org/1999/xlink">
<g id="graph0" class="graph" transform="scale(1 1) rotate(0) translate(4 1276)">
<title>%3</title>
<polygon fill="white" stroke="none" points="-4,4 -4,-1276 144,-1276 144,4 -4,4"/>
<!-- PL1 -->
<g id="node1" class="node"><title>PL1</title>
<ellipse fill="none" stroke="black" cx="117" cy="-1254" rx="18" ry="18"/>
<text text-anchor="middle" x="117" y="-1250.3" font-family="Times,serif" font-size="14.00">PL1</text>
</g>
<!-- transition1 -->
<g id="node3" class="node"><title>transition1</title>
<polygon fill="none" stroke="black" points="112,-1200 76,-1200 76,-1199 112,-1199 112,-1200"/>
<text text-anchor="middle" x="65.5" y="-1203.8" font-family="Times,serif" font-size="14.00">Sr+</text>
</g>
<!-- PL1&#45;&gt;transition1 -->
<g id="edge1" class="edge"><title>PL1&#45;&gt;transition1</title>
<path fill="none" stroke="black" d="M110.099,-1237.1C105.279,-1225.99 99.1693,-1211.91 96.0441,-1204.71"/>
<polygon fill="none" stroke="black" points="97.6228,-1203.95 94.027,-1200.06 94.4121,-1205.35 97.6228,-1203.95"/>
</g>
<!-- PL3 -->
<g id="node2" class="node"><title>PL3</title>
<ellipse fill="none" stroke="black" cx="94" cy="-1145" rx="18" ry="18"/>
<text text-anchor="middle" x="94" y="-1141.3" font-family="Times,serif" font-size="14.00">PL3</text>
</g>
<!-- transition2 -->
<g id="node5" class="node"><title>transition2</title>
<polygon fill="none" stroke="black" points="112,-1091 76,-1091 76,-1090 112,-1090 112,-1091"/>
<text text-anchor="middle" x="65" y="-1094.8" font-family="Times,serif" font-size="14.00">Lr+</text>
</g>
<!-- PL3&#45;&gt;transition2 -->
<g id="edge3" class="edge"><title>PL3&#45;&gt;transition2</title>
<path fill="none" stroke="black" d="M94,-1126.94C94,-1116.39 94,-1103.53 94,-1096.41"/>
<polygon fill="none" stroke="black" points="95.7501,-1096.06 94,-1091.06 92.2501,-1096.06 95.7501,-1096.06"/>
</g>
<!-- transition1&#45;&gt;PL3 -->
<g id="edge2" class="edge"><title>transition1&#45;&gt;PL3</title>
<path fill="none" stroke="black" d="M94,-1198.85C94,-1197.37 94,-1185.32 94,-1173.1"/>
<polygon fill="black" stroke="black" points="97.5001,-1173.02 94,-1163.02 90.5001,-1173.02 97.5001,-1173.02"/>
</g>
<!-- PL4 -->
<g id="node4" class="node"><title>PL4</title>
<ellipse fill="none" stroke="black" cx="94" cy="-1036" rx="18" ry="18"/>
<text text-anchor="middle" x="94" y="-1032.3" font-family="Times,serif" font-size="14.00">PL4</text>
</g>
<!-- transition3 -->
<g id="node7" class="node"><title>transition3</title>
<polygon fill="none" stroke="black" points="112,-982 76,-982 76,-981 112,-981 112,-982"/>
<text text-anchor="middle" x="64.5" y="-985.8" font-family="Times,serif" font-size="14.00">La+</text>
</g>
<!-- PL4&#45;&gt;transition3 -->
<g id="edge5" class="edge"><title>PL4&#45;&gt;transition3</title>
<path fill="none" stroke="black" d="M94,-1017.94C94,-1007.39 94,-994.534 94,-987.412"/>
<polygon fill="none" stroke="black" points="95.7501,-987.059 94,-982.059 92.2501,-987.059 95.7501,-987.059"/>
</g>
<!-- transition2&#45;&gt;PL4 -->
<g id="edge4" class="edge"><title>transition2&#45;&gt;PL4</title>
<path fill="none" stroke="black" d="M94,-1089.85C94,-1088.37 94,-1076.32 94,-1064.1"/>
<polygon fill="black" stroke="black" points="97.5001,-1064.02 94,-1054.02 90.5001,-1064.02 97.5001,-1064.02"/>
</g>
<!-- PL5 -->
<g id="node6" class="node"><title>PL5</title>
<ellipse fill="none" stroke="black" cx="94" cy="-927" rx="18" ry="18"/>
<text text-anchor="middle" x="94" y="-923.3" font-family="Times,serif" font-size="14.00">PL5</text>
</g>
<!-- transition4 -->
<g id="node9" class="node"><title>transition4</title>
<polygon fill="none" stroke="black" points="66,-873 30,-873 30,-872 66,-872 66,-873"/>
<text text-anchor="middle" x="19" y="-876.8" font-family="Times,serif" font-size="14.00">Sa+</text>
</g>
<!-- PL5&#45;&gt;transition4 -->
<g id="edge7" class="edge"><title>PL5&#45;&gt;transition4</title>
<path fill="none" stroke="black" d="M82.6292,-912.899C72.5258,-901.258 58.3597,-884.936 51.7155,-877.281"/>
<polygon fill="none" stroke="black" points="52.6597,-875.699 48.0607,-873.07 50.0164,-877.993 52.6597,-875.699"/>
</g>
<!-- transition3&#45;&gt;PL5 -->
<g id="edge6" class="edge"><title>transition3&#45;&gt;PL5</title>
<path fill="none" stroke="black" d="M94,-980.848C94,-979.368 94,-967.319 94,-955.1"/>
<polygon fill="black" stroke="black" points="97.5001,-955.025 94,-945.025 90.5001,-955.025 97.5001,-955.025"/>
</g>
<!-- PL6 -->
<g id="node8" class="node"><title>PL6</title>
<ellipse fill="none" stroke="black" cx="48" cy="-818" rx="18" ry="18"/>
<text text-anchor="middle" x="48" y="-814.3" font-family="Times,serif" font-size="14.00">PL6</text>
</g>
<!-- transition5 -->
<g id="node11" class="node"><title>transition5</title>
<polygon fill="none" stroke="black" points="66,-764 30,-764 30,-763 66,-763 66,-764"/>
<text text-anchor="middle" x="21" y="-767.8" font-family="Times,serif" font-size="14.00">Sr&#45;</text>
</g>
<!-- PL6&#45;&gt;transition5 -->
<g id="edge9" class="edge"><title>PL6&#45;&gt;transition5</title>
<path fill="none" stroke="black" d="M48,-799.939C48,-789.385 48,-776.534 48,-769.412"/>
<polygon fill="none" stroke="black" points="49.7501,-769.059 48,-764.059 46.2501,-769.059 49.7501,-769.059"/>
</g>
<!-- transition4&#45;&gt;PL6 -->
<g id="edge8" class="edge"><title>transition4&#45;&gt;PL6</title>
<path fill="none" stroke="black" d="M48,-871.848C48,-870.368 48,-858.319 48,-846.1"/>
<polygon fill="black" stroke="black" points="51.5001,-846.025 48,-836.025 44.5001,-846.025 51.5001,-846.025"/>
</g>
<!-- PL7 -->
<g id="node10" class="node"><title>PL7</title>
<ellipse fill="none" stroke="black" cx="48" cy="-709" rx="18" ry="18"/>
<text text-anchor="middle" x="48" y="-705.3" font-family="Times,serif" font-size="14.00">PL7</text>
</g>
<!-- transition6 -->
<g id="node13" class="node"><title>transition6</title>
<polygon fill="none" stroke="black" points="66,-655 30,-655 30,-654 66,-654 66,-655"/>
<text text-anchor="middle" x="20.5" y="-658.8" font-family="Times,serif" font-size="14.00">Sa&#45;</text>
</g>
<!-- PL7&#45;&gt;transition6 -->
<g id="edge11" class="edge"><title>PL7&#45;&gt;transition6</title>
<path fill="none" stroke="black" d="M48,-690.939C48,-680.385 48,-667.534 48,-660.412"/>
<polygon fill="none" stroke="black" points="49.7501,-660.059 48,-655.059 46.2501,-660.059 49.7501,-660.059"/>
</g>
<!-- transition5&#45;&gt;PL7 -->
<g id="edge10" class="edge"><title>transition5&#45;&gt;PL7</title>
<path fill="none" stroke="black" d="M48,-762.848C48,-761.368 48,-749.319 48,-737.1"/>
<polygon fill="black" stroke="black" points="51.5001,-737.025 48,-727.025 44.5001,-737.025 51.5001,-737.025"/>
</g>
<!-- PL2 -->
<g id="node12" class="node"><title>PL2</title>
<ellipse fill="none" stroke="black" cx="48" cy="-600" rx="18" ry="18"/>
<text text-anchor="middle" x="48" y="-596.3" font-family="Times,serif" font-size="14.00">PL2</text>
</g>
<!-- transition7 -->
<g id="node14" class="node"><title>transition7</title>
<polygon fill="none" stroke="black" points="112,-546 76,-546 76,-545 112,-545 112,-546"/>
<text text-anchor="middle" x="65.5" y="-549.8" font-family="Times,serif" font-size="14.00">Sr+</text>
</g>
<!-- PL2&#45;&gt;transition7 -->
<g id="edge13" class="edge"><title>PL2&#45;&gt;transition7</title>
<path fill="none" stroke="black" d="M59.3708,-585.899C69.4742,-574.258 83.6403,-557.936 90.2845,-550.281"/>
<polygon fill="none" stroke="black" points="91.9836,-550.993 93.9393,-546.07 89.3403,-548.699 91.9836,-550.993"/>
</g>
<!-- transition8 -->
<g id="node16" class="node"><title>transition8</title>
<polygon fill="none" stroke="black" points="58,-546 22,-546 22,-545 58,-545 58,-546"/>
<text text-anchor="middle" x="11" y="-549.8" font-family="Times,serif" font-size="14.00">Cr+</text>
</g>
<!-- PL2&#45;&gt;transition8 -->
<g id="edge15" class="edge"><title>PL2&#45;&gt;transition8</title>
<path fill="none" stroke="black" d="M45.4247,-581.939C43.8317,-571.385 41.892,-558.534 40.817,-551.412"/>
<polygon fill="none" stroke="black" points="42.4857,-550.742 40.0089,-546.059 39.0249,-551.264 42.4857,-550.742"/>
</g>
<!-- transition6&#45;&gt;PL2 -->
<g id="edge12" class="edge"><title>transition6&#45;&gt;PL2</title>
<path fill="none" stroke="black" d="M48,-653.848C48,-652.368 48,-640.319 48,-628.1"/>
<polygon fill="black" stroke="black" points="51.5001,-628.025 48,-618.025 44.5001,-628.025 51.5001,-628.025"/>
</g>
<!-- transition7&#45;&gt;PL5 -->
<g id="edge14" class="edge"><title>transition7&#45;&gt;PL5</title>
<path fill="none" stroke="black" d="M94,-546.044C94,-547.872 94,-606.75 94,-654 94,-819 94,-819 94,-819 94,-846.174 94,-877.231 94,-898.86"/>
<polygon fill="black" stroke="black" points="90.5001,-898.951 94,-908.951 97.5001,-898.951 90.5001,-898.951"/>
</g>
<!-- PL8 -->
<g id="node15" class="node"><title>PL8</title>
<ellipse fill="none" stroke="black" cx="54" cy="-491" rx="18" ry="18"/>
<text text-anchor="middle" x="54" y="-487.3" font-family="Times,serif" font-size="14.00">PL8</text>
</g>
<!-- transition9 -->
<g id="node18" class="node"><title>transition9</title>
<polygon fill="none" stroke="black" points="85,-437 49,-437 49,-436 85,-436 85,-437"/>
<text text-anchor="middle" x="40" y="-440.8" font-family="Times,serif" font-size="14.00">Lr&#45;</text>
</g>
<!-- PL8&#45;&gt;transition9 -->
<g id="edge17" class="edge"><title>PL8&#45;&gt;transition9</title>
<path fill="none" stroke="black" d="M58.1133,-473.23C60.7652,-462.419 64.0325,-449.098 65.7726,-442.004"/>
<polygon fill="none" stroke="black" points="67.4938,-442.333 66.9853,-437.06 64.0945,-441.499 67.4938,-442.333"/>
</g>
<!-- transition8&#45;&gt;PL8 -->
<g id="edge16" class="edge"><title>transition8&#45;&gt;PL8</title>
<path fill="none" stroke="black" d="M40.0402,-544.848C40.4375,-543.344 43.7194,-530.919 47.0009,-518.496"/>
<polygon fill="black" stroke="black" points="50.4075,-519.305 49.5775,-508.742 43.6396,-517.517 50.4075,-519.305"/>
</g>
<!-- PL9 -->
<g id="node17" class="node"><title>PL9</title>
<ellipse fill="none" stroke="black" cx="74" cy="-382" rx="18" ry="18"/>
<text text-anchor="middle" x="74" y="-378.3" font-family="Times,serif" font-size="14.00">PL9</text>
</g>
<!-- transition10 -->
<g id="node20" class="node"><title>transition10</title>
<polygon fill="none" stroke="black" points="99,-328 63,-328 63,-327 99,-327 99,-328"/>
<text text-anchor="middle" x="53" y="-331.8" font-family="Times,serif" font-size="14.00">La&#45;</text>
</g>
<!-- PL9&#45;&gt;transition10 -->
<g id="edge19" class="edge"><title>PL9&#45;&gt;transition10</title>
<path fill="none" stroke="black" d="M76.2534,-363.939C77.6472,-353.385 79.3445,-340.534 80.2852,-333.412"/>
<polygon fill="none" stroke="black" points="82.0724,-333.245 80.9922,-328.059 78.6025,-332.787 82.0724,-333.245"/>
</g>
<!-- transition9&#45;&gt;PL9 -->
<g id="edge18" class="edge"><title>transition9&#45;&gt;PL9</title>
<path fill="none" stroke="black" d="M67.0201,-435.848C67.2155,-434.368 68.8069,-422.319 70.4207,-410.1"/>
<polygon fill="black" stroke="black" points="73.9118,-410.397 71.7514,-400.025 66.9721,-409.48 73.9118,-410.397"/>
</g>
<!-- PL10 -->
<g id="node19" class="node"><title>PL10</title>
<ellipse fill="none" stroke="black" cx="85" cy="-273" rx="18" ry="18"/>
<text text-anchor="middle" x="85" y="-269.3" font-family="Times,serif" font-size="14.00">PL10</text>
</g>
<!-- transition11 -->
<g id="node22" class="node"><title>transition11</title>
<polygon fill="none" stroke="black" points="106,-219 70,-219 70,-218 106,-218 106,-219"/>
<text text-anchor="middle" x="58" y="-222.8" font-family="Times,serif" font-size="14.00">Ca+</text>
</g>
<!-- PL10&#45;&gt;transition11 -->
<g id="edge21" class="edge"><title>PL10&#45;&gt;transition11</title>
<path fill="none" stroke="black" d="M85.9657,-254.939C86.5631,-244.385 87.2905,-231.534 87.6936,-224.412"/>
<polygon fill="none" stroke="black" points="89.4612,-224.15 87.9967,-219.059 85.9668,-223.952 89.4612,-224.15"/>
</g>
<!-- transition10&#45;&gt;PL10 -->
<g id="edge20" class="edge"><title>transition10&#45;&gt;PL10</title>
<path fill="none" stroke="black" d="M81.0115,-326.848C81.1232,-325.368 82.0325,-313.319 82.9547,-301.1"/>
<polygon fill="black" stroke="black" points="86.4525,-301.26 83.7151,-291.025 79.4724,-300.733 86.4525,-301.26"/>
</g>
<!-- PL11 -->
<g id="node21" class="node"><title>PL11</title>
<ellipse fill="none" stroke="black" cx="91" cy="-164" rx="18" ry="18"/>
<text text-anchor="middle" x="91" y="-160.3" font-family="Times,serif" font-size="14.00">PL11</text>
</g>
<!-- transition12 -->
<g id="node24" class="node"><title>transition12</title>
<polygon fill="none" stroke="black" points="111,-110 75,-110 75,-109 111,-109 111,-110"/>
<text text-anchor="middle" x="65.5" y="-113.8" font-family="Times,serif" font-size="14.00">Cr&#45;</text>
</g>
<!-- PL11&#45;&gt;transition12 -->
<g id="edge23" class="edge"><title>PL11&#45;&gt;transition12</title>
<path fill="none" stroke="black" d="M91.6438,-145.939C92.0421,-135.385 92.527,-122.534 92.7958,-115.412"/>
<polygon fill="none" stroke="black" points="94.5579,-115.122 92.9978,-110.059 91.0604,-114.99 94.5579,-115.122"/>
</g>
<!-- transition11&#45;&gt;PL11 -->
<g id="edge22" class="edge"><title>transition11&#45;&gt;PL11</title>
<path fill="none" stroke="black" d="M88.0086,-217.848C88.0924,-216.368 88.7744,-204.319 89.466,-192.1"/>
<polygon fill="black" stroke="black" points="92.9655,-192.207 90.0363,-182.025 85.9767,-191.811 92.9655,-192.207"/>
</g>
<!-- PL12 -->
<g id="node23" class="node"><title>PL12</title>
<ellipse fill="none" stroke="black" cx="94" cy="-55" rx="18" ry="18"/>
<text text-anchor="middle" x="94" y="-51.3" font-family="Times,serif" font-size="14.00">PL12</text>
</g>
<!-- transition13 -->
<g id="node25" class="node"><title>transition13</title>
<polygon fill="none" stroke="black" points="135,-1 99,-1 99,-0 135,-0 135,-1"/>
<text text-anchor="middle" x="88.5" y="-4.8" font-family="Times,serif" font-size="14.00">Ca&#45;</text>
</g>
<!-- PL12&#45;&gt;transition13 -->
<g id="edge25" class="edge"><title>PL12&#45;&gt;transition13</title>
<path fill="none" stroke="black" d="M100.901,-38.0983C105.721,-26.9918 111.831,-12.9118 114.956,-5.7104"/>
<polygon fill="none" stroke="black" points="116.588,-6.34553 116.973,-1.06211 113.377,-4.95216 116.588,-6.34553"/>
</g>
<!-- transition12&#45;&gt;PL12 -->
<g id="edge24" class="edge"><title>transition12&#45;&gt;PL12</title>
<path fill="none" stroke="black" d="M93.0029,-108.848C93.0308,-107.368 93.2581,-95.3194 93.4887,-83.1004"/>
<polygon fill="black" stroke="black" points="96.9894,-83.089 93.6788,-73.0247 89.9907,-82.9569 96.9894,-83.089"/>
</g>
<!-- transition13&#45;&gt;PL1 -->
<g id="edge26" class="edge"><title>transition13&#45;&gt;PL1</title>
<path fill="none" stroke="black" d="M117.017,-1.04289C117.713,-2.83896 140,-60.6904 140,-109 140,-1146 140,-1146 140,-1146 140,-1174.25 132.243,-1205.77 125.738,-1227.24"/>
<polygon fill="black" stroke="black" points="122.358,-1226.33 122.685,-1236.92 129.033,-1228.43 122.358,-1226.33"/>
</g>
</g>
</svg>
