<?xml version="1.0" encoding="UTF-8" standalone="no"?>
<!DOCTYPE svg PUBLIC "-//W3C//DTD SVG 1.1//EN"
 "http://www.w3.org/Graphics/SVG/1.1/DTD/svg11.dtd">
<!-- Generated by graphviz version 2.38.0 (20140413.2041)
 -->
<!-- Title: %3 Pages: 1 -->
<svg width="147pt" height="1280pt"
 viewBox="0.00 0.00 147.00 1280.00" xmlns="http://www.w3.org/2000/svg" xmlns:xlink="http://www.w3.org/1999/xlink">
<g id="graph0" class="graph" transform="scale(1 1) rotate(0) translate(4 1276)">
<title>%3</title>
<polygon fill="white" stroke="none" points="-4,4 -4,-1276 143,-1276 143,4 -4,4"/>
<!-- pl1 -->
<g id="node1" class="node"><title>pl1</title>
<ellipse fill="none" stroke="black" cx="93" cy="-1254" rx="18" ry="18"/>
<text text-anchor="middle" x="93" y="-1250.3" font-family="Times,serif" font-size="14.00">pl1</text>
</g>
<!-- transition1 -->
<g id="node3" class="node"><title>transition1</title>
<polygon fill="none" stroke="black" points="57,-1145.5 21,-1145.5 21,-1144.5 57,-1144.5 57,-1145.5"/>
<text text-anchor="middle" x="10.5" y="-1149.3" font-family="Times,serif" font-size="14.00">Sr+</text>
</g>
<!-- pl1&#45;&gt;transition1 -->
<g id="edge1" class="edge"><title>pl1&#45;&gt;transition1</title>
<path fill="none" stroke="black" d="M85.1715,-1237.71C79.7652,-1227.13 72.421,-1212.72 66,-1200 54.2877,-1176.79 39.9291,-1147.87 39.0431,-1146.09"/>
</g>
<!-- transition5 -->
<g id="node10" class="node"><title>transition5</title>
<polygon fill="none" stroke="black" points="111,-1200 75,-1200 75,-1199 111,-1199 111,-1200"/>
<text text-anchor="middle" x="64" y="-1203.8" font-family="Times,serif" font-size="14.00">Cr+</text>
</g>
<!-- pl1&#45;&gt;transition5 -->
<g id="edge9" class="edge"><title>pl1&#45;&gt;transition5</title>
<path fill="none" stroke="black" d="M93,-1235.94C93,-1220.93 93,-1201.27 93,-1200.06"/>
</g>
<!-- pl2 -->
<g id="node2" class="node"><title>pl2</title>
<ellipse fill="none" stroke="black" cx="93" cy="-273" rx="18" ry="18"/>
<text text-anchor="middle" x="93" y="-269.3" font-family="Times,serif" font-size="14.00">pl2</text>
</g>
<!-- transition2 -->
<g id="node5" class="node"><title>transition2</title>
<polygon fill="none" stroke="black" points="111,-219 75,-219 75,-218 111,-218 111,-219"/>
<text text-anchor="middle" x="64" y="-222.8" font-family="Times,serif" font-size="14.00">Sa+</text>
</g>
<!-- pl2&#45;&gt;transition2 -->
<g id="edge3" class="edge"><title>pl2&#45;&gt;transition2</title>
<path fill="none" stroke="black" d="M93,-254.939C93,-239.929 93,-220.273 93,-219.059"/>
</g>
<!-- transition1&#45;&gt;pl2 -->
<g id="edge2" class="edge"><title>transition1&#45;&gt;pl2</title>
<path fill="none" stroke="black" d="M39.0058,-1143.96C39.248,-1142.15 47,-1083.94 47,-1037 47,-1037 47,-1037 47,-381 47,-349.824 63.6861,-317.388 76.9589,-296.519"/>
<polygon fill="black" stroke="black" points="79.96,-298.326 82.5619,-288.055 74.1232,-294.461 79.96,-298.326"/>
</g>
<!-- pl3 -->
<g id="node4" class="node"><title>pl3</title>
<ellipse fill="none" stroke="black" cx="93" cy="-164" rx="18" ry="18"/>
<text text-anchor="middle" x="93" y="-160.3" font-family="Times,serif" font-size="14.00">pl3</text>
</g>
<!-- transition3 -->
<g id="node7" class="node"><title>transition3</title>
<polygon fill="none" stroke="black" points="111,-110 75,-110 75,-109 111,-109 111,-110"/>
<text text-anchor="middle" x="66" y="-113.8" font-family="Times,serif" font-size="14.00">Sr&#45;</text>
</g>
<!-- pl3&#45;&gt;transition3 -->
<g id="edge5" class="edge"><title>pl3&#45;&gt;transition3</title>
<path fill="none" stroke="black" d="M93,-145.939C93,-130.929 93,-111.273 93,-110.059"/>
</g>
<!-- transition2&#45;&gt;pl3 -->
<g id="edge4" class="edge"><title>transition2&#45;&gt;pl3</title>
<path fill="none" stroke="black" d="M93,-217.848C93,-216.368 93,-204.319 93,-192.1"/>
<polygon fill="black" stroke="black" points="96.5001,-192.025 93,-182.025 89.5001,-192.025 96.5001,-192.025"/>
</g>
<!-- pl4 -->
<g id="node6" class="node"><title>pl4</title>
<ellipse fill="none" stroke="black" cx="93" cy="-55" rx="18" ry="18"/>
<text text-anchor="middle" x="93" y="-51.3" font-family="Times,serif" font-size="14.00">pl4</text>
</g>
<!-- transition4 -->
<g id="node8" class="node"><title>transition4</title>
<polygon fill="none" stroke="black" points="134,-1 98,-1 98,-0 134,-0 134,-1"/>
<text text-anchor="middle" x="88.5" y="-4.8" font-family="Times,serif" font-size="14.00">Sa&#45;</text>
</g>
<!-- pl4&#45;&gt;transition4 -->
<g id="edge7" class="edge"><title>pl4&#45;&gt;transition4</title>
<path fill="none" stroke="black" d="M99.9008,-38.0983C106.464,-22.9746 115.42,-2.33719 115.973,-1.06211"/>
</g>
<!-- transition3&#45;&gt;pl4 -->
<g id="edge6" class="edge"><title>transition3&#45;&gt;pl4</title>
<path fill="none" stroke="black" d="M93,-108.848C93,-107.368 93,-95.3194 93,-83.1004"/>
<polygon fill="black" stroke="black" points="96.5001,-83.0247 93,-73.0247 89.5001,-83.0248 96.5001,-83.0247"/>
</g>
<!-- transition4&#45;&gt;pl1 -->
<g id="edge8" class="edge"><title>transition4&#45;&gt;pl1</title>
<path fill="none" stroke="black" d="M116.017,-1.04289C116.713,-2.83896 139,-60.6904 139,-109 139,-1146 139,-1146 139,-1146 139,-1177.18 122.314,-1209.61 109.041,-1230.48"/>
<polygon fill="black" stroke="black" points="106.04,-1228.67 103.438,-1238.94 111.877,-1232.54 106.04,-1228.67"/>
</g>
<!-- pl5 -->
<g id="node9" class="node"><title>pl5</title>
<ellipse fill="none" stroke="black" cx="93" cy="-1145" rx="18" ry="18"/>
<text text-anchor="middle" x="93" y="-1141.3" font-family="Times,serif" font-size="14.00">pl5</text>
</g>
<!-- transition6 -->
<g id="node12" class="node"><title>transition6</title>
<polygon fill="none" stroke="black" points="111,-1091 75,-1091 75,-1090 111,-1090 111,-1091"/>
<text text-anchor="middle" x="66" y="-1094.8" font-family="Times,serif" font-size="14.00">Lr&#45;</text>
</g>
<!-- pl5&#45;&gt;transition6 -->
<g id="edge11" class="edge"><title>pl5&#45;&gt;transition6</title>
<path fill="none" stroke="black" d="M93,-1126.94C93,-1111.93 93,-1092.27 93,-1091.06"/>
</g>
<!-- transition5&#45;&gt;pl5 -->
<g id="edge10" class="edge"><title>transition5&#45;&gt;pl5</title>
<path fill="none" stroke="black" d="M93,-1198.85C93,-1197.37 93,-1185.32 93,-1173.1"/>
<polygon fill="black" stroke="black" points="96.5001,-1173.02 93,-1163.02 89.5001,-1173.02 96.5001,-1173.02"/>
</g>
<!-- pl6 -->
<g id="node11" class="node"><title>pl6</title>
<ellipse fill="none" stroke="black" cx="93" cy="-1036" rx="18" ry="18"/>
<text text-anchor="middle" x="93" y="-1032.3" font-family="Times,serif" font-size="14.00">pl6</text>
</g>
<!-- transition7 -->
<g id="node14" class="node"><title>transition7</title>
<polygon fill="none" stroke="black" points="111,-982 75,-982 75,-981 111,-981 111,-982"/>
<text text-anchor="middle" x="65" y="-985.8" font-family="Times,serif" font-size="14.00">La&#45;</text>
</g>
<!-- pl6&#45;&gt;transition7 -->
<g id="edge13" class="edge"><title>pl6&#45;&gt;transition7</title>
<path fill="none" stroke="black" d="M93,-1017.94C93,-1002.93 93,-983.273 93,-982.059"/>
</g>
<!-- transition6&#45;&gt;pl6 -->
<g id="edge12" class="edge"><title>transition6&#45;&gt;pl6</title>
<path fill="none" stroke="black" d="M93,-1089.85C93,-1088.37 93,-1076.32 93,-1064.1"/>
<polygon fill="black" stroke="black" points="96.5001,-1064.02 93,-1054.02 89.5001,-1064.02 96.5001,-1064.02"/>
</g>
<!-- pl7 -->
<g id="node13" class="node"><title>pl7</title>
<ellipse fill="none" stroke="black" cx="93" cy="-927" rx="18" ry="18"/>
<text text-anchor="middle" x="93" y="-923.3" font-family="Times,serif" font-size="14.00">pl7</text>
</g>
<!-- transition8 -->
<g id="node16" class="node"><title>transition8</title>
<polygon fill="none" stroke="black" points="111,-873 75,-873 75,-872 111,-872 111,-873"/>
<text text-anchor="middle" x="63" y="-876.8" font-family="Times,serif" font-size="14.00">Ca+</text>
</g>
<!-- pl7&#45;&gt;transition8 -->
<g id="edge15" class="edge"><title>pl7&#45;&gt;transition8</title>
<path fill="none" stroke="black" d="M93,-908.939C93,-893.929 93,-874.273 93,-873.059"/>
</g>
<!-- transition7&#45;&gt;pl7 -->
<g id="edge14" class="edge"><title>transition7&#45;&gt;pl7</title>
<path fill="none" stroke="black" d="M93,-980.848C93,-979.368 93,-967.319 93,-955.1"/>
<polygon fill="black" stroke="black" points="96.5001,-955.025 93,-945.025 89.5001,-955.025 96.5001,-955.025"/>
</g>
<!-- pl8 -->
<g id="node15" class="node"><title>pl8</title>
<ellipse fill="none" stroke="black" cx="93" cy="-818" rx="18" ry="18"/>
<text text-anchor="middle" x="93" y="-814.3" font-family="Times,serif" font-size="14.00">pl8</text>
</g>
<!-- transition9 -->
<g id="node18" class="node"><title>transition9</title>
<polygon fill="none" stroke="black" points="111,-764 75,-764 75,-763 111,-763 111,-764"/>
<text text-anchor="middle" x="65.5" y="-767.8" font-family="Times,serif" font-size="14.00">Cr&#45;</text>
</g>
<!-- pl8&#45;&gt;transition9 -->
<g id="edge17" class="edge"><title>pl8&#45;&gt;transition9</title>
<path fill="none" stroke="black" d="M93,-799.939C93,-784.929 93,-765.273 93,-764.059"/>
</g>
<!-- transition8&#45;&gt;pl8 -->
<g id="edge16" class="edge"><title>transition8&#45;&gt;pl8</title>
<path fill="none" stroke="black" d="M93,-871.848C93,-870.368 93,-858.319 93,-846.1"/>
<polygon fill="black" stroke="black" points="96.5001,-846.025 93,-836.025 89.5001,-846.025 96.5001,-846.025"/>
</g>
<!-- pl9 -->
<g id="node17" class="node"><title>pl9</title>
<ellipse fill="none" stroke="black" cx="93" cy="-709" rx="18" ry="18"/>
<text text-anchor="middle" x="93" y="-705.3" font-family="Times,serif" font-size="14.00">pl9</text>
</g>
<!-- transition10 -->
<g id="node20" class="node"><title>transition10</title>
<polygon fill="none" stroke="black" points="111,-655 75,-655 75,-654 111,-654 111,-655"/>
<text text-anchor="middle" x="64.5" y="-658.8" font-family="Times,serif" font-size="14.00">Ca&#45;</text>
</g>
<!-- pl9&#45;&gt;transition10 -->
<g id="edge19" class="edge"><title>pl9&#45;&gt;transition10</title>
<path fill="none" stroke="black" d="M93,-690.939C93,-675.929 93,-656.273 93,-655.059"/>
</g>
<!-- transition9&#45;&gt;pl9 -->
<g id="edge18" class="edge"><title>transition9&#45;&gt;pl9</title>
<path fill="none" stroke="black" d="M93,-762.848C93,-761.368 93,-749.319 93,-737.1"/>
<polygon fill="black" stroke="black" points="96.5001,-737.025 93,-727.025 89.5001,-737.025 96.5001,-737.025"/>
</g>
<!-- pl10 -->
<g id="node19" class="node"><title>pl10</title>
<ellipse fill="none" stroke="black" cx="93" cy="-600" rx="18" ry="18"/>
<text text-anchor="middle" x="93" y="-596.3" font-family="Times,serif" font-size="14.00">pl10</text>
</g>
<!-- transition11 -->
<g id="node22" class="node"><title>transition11</title>
<polygon fill="none" stroke="black" points="111,-546 75,-546 75,-545 111,-545 111,-546"/>
<text text-anchor="middle" x="64.5" y="-549.8" font-family="Times,serif" font-size="14.00">Sr+</text>
</g>
<!-- pl10&#45;&gt;transition11 -->
<g id="edge21" class="edge"><title>pl10&#45;&gt;transition11</title>
<path fill="none" stroke="black" d="M93,-581.939C93,-566.929 93,-547.273 93,-546.059"/>
</g>
<!-- transition10&#45;&gt;pl10 -->
<g id="edge20" class="edge"><title>transition10&#45;&gt;pl10</title>
<path fill="none" stroke="black" d="M93,-653.848C93,-652.368 93,-640.319 93,-628.1"/>
<polygon fill="black" stroke="black" points="96.5001,-628.025 93,-618.025 89.5001,-628.025 96.5001,-628.025"/>
</g>
<!-- pl11 -->
<g id="node21" class="node"><title>pl11</title>
<ellipse fill="none" stroke="black" cx="93" cy="-491" rx="18" ry="18"/>
<text text-anchor="middle" x="93" y="-487.3" font-family="Times,serif" font-size="14.00">pl11</text>
</g>
<!-- transition12 -->
<g id="node24" class="node"><title>transition12</title>
<polygon fill="none" stroke="black" points="111,-437 75,-437 75,-436 111,-436 111,-437"/>
<text text-anchor="middle" x="64" y="-440.8" font-family="Times,serif" font-size="14.00">Lr+</text>
</g>
<!-- pl11&#45;&gt;transition12 -->
<g id="edge23" class="edge"><title>pl11&#45;&gt;transition12</title>
<path fill="none" stroke="black" d="M93,-472.939C93,-457.929 93,-438.273 93,-437.059"/>
</g>
<!-- transition11&#45;&gt;pl11 -->
<g id="edge22" class="edge"><title>transition11&#45;&gt;pl11</title>
<path fill="none" stroke="black" d="M93,-544.848C93,-543.368 93,-531.319 93,-519.1"/>
<polygon fill="black" stroke="black" points="96.5001,-519.025 93,-509.025 89.5001,-519.025 96.5001,-519.025"/>
</g>
<!-- pl12 -->
<g id="node23" class="node"><title>pl12</title>
<ellipse fill="none" stroke="black" cx="93" cy="-382" rx="18" ry="18"/>
<text text-anchor="middle" x="93" y="-378.3" font-family="Times,serif" font-size="14.00">pl12</text>
</g>
<!-- transition13 -->
<g id="node25" class="node"><title>transition13</title>
<polygon fill="none" stroke="black" points="111,-328 75,-328 75,-327 111,-327 111,-328"/>
<text text-anchor="middle" x="63.5" y="-331.8" font-family="Times,serif" font-size="14.00">La+</text>
</g>
<!-- pl12&#45;&gt;transition13 -->
<g id="edge25" class="edge"><title>pl12&#45;&gt;transition13</title>
<path fill="none" stroke="black" d="M93,-363.939C93,-348.929 93,-329.273 93,-328.059"/>
</g>
<!-- transition12&#45;&gt;pl12 -->
<g id="edge24" class="edge"><title>transition12&#45;&gt;pl12</title>
<path fill="none" stroke="black" d="M93,-435.848C93,-434.368 93,-422.319 93,-410.1"/>
<polygon fill="black" stroke="black" points="96.5001,-410.025 93,-400.025 89.5001,-410.025 96.5001,-410.025"/>
</g>
<!-- transition13&#45;&gt;pl2 -->
<g id="edge26" class="edge"><title>transition13&#45;&gt;pl2</title>
<path fill="none" stroke="black" d="M93,-326.848C93,-325.368 93,-313.319 93,-301.1"/>
<polygon fill="black" stroke="black" points="96.5001,-301.025 93,-291.025 89.5001,-301.025 96.5001,-301.025"/>
</g>
</g>
</svg>
