<?xml version="1.0" encoding="UTF-8" standalone="no"?>
<!DOCTYPE svg PUBLIC "-//W3C//DTD SVG 1.1//EN"
 "http://www.w3.org/Graphics/SVG/1.1/DTD/svg11.dtd">
<!-- Generated by graphviz version 2.38.0 (20140413.2041)
 -->
<!-- Title: %3 Pages: 1 -->
<svg width="147pt" height="1280pt"
 viewBox="0.00 0.00 147.00 1280.00" xmlns="http://www.w3.org/2000/svg" xmlns:xlink="http://www.w3.org/1999/xlink">
<g id="graph0" class="graph" transform="scale(1 1) rotate(0) translate(4 1276)">
<title>%3</title>
<polygon fill="white" stroke="none" points="-4,4 -4,-1276 143,-1276 143,4 -4,4"/>
<!-- PL1 -->
<g id="node1" class="node"><title>PL1</title>
<ellipse fill="none" stroke="black" cx="93" cy="-1254" rx="18" ry="18"/>
<text text-anchor="middle" x="93" y="-1250.3" font-family="Times,serif" font-size="14.00">PL1</text>
</g>
<!-- transition1 -->
<g id="node3" class="node"><title>transition1</title>
<polygon fill="none" stroke="black" points="57,-1145.5 21,-1145.5 21,-1144.5 57,-1144.5 57,-1145.5"/>
<text text-anchor="middle" x="10.5" y="-1149.3" font-family="Times,serif" font-size="14.00">Sr+</text>
</g>
<!-- PL1&#45;&gt;transition1 -->
<g id="edge1" class="edge"><title>PL1&#45;&gt;transition1</title>
<path fill="none" stroke="black" d="M85.1715,-1237.71C79.7652,-1227.13 72.421,-1212.72 66,-1200 56.8497,-1181.87 46.0844,-1160.25 41.3899,-1150.81"/>
<polygon fill="none" stroke="black" points="42.8352,-1149.79 39.0431,-1146.09 39.7008,-1151.34 42.8352,-1149.79"/>
</g>
<!-- transition5 -->
<g id="node10" class="node"><title>transition5</title>
<polygon fill="none" stroke="black" points="111,-1200 75,-1200 75,-1199 111,-1199 111,-1200"/>
<text text-anchor="middle" x="64" y="-1203.8" font-family="Times,serif" font-size="14.00">Cr+</text>
</g>
<!-- PL1&#45;&gt;transition5 -->
<g id="edge9" class="edge"><title>PL1&#45;&gt;transition5</title>
<path fill="none" stroke="black" d="M93,-1235.94C93,-1225.39 93,-1212.53 93,-1205.41"/>
<polygon fill="none" stroke="black" points="94.7501,-1205.06 93,-1200.06 91.2501,-1205.06 94.7501,-1205.06"/>
</g>
<!-- PL2 -->
<g id="node2" class="node"><title>PL2</title>
<ellipse fill="none" stroke="black" cx="93" cy="-273" rx="18" ry="18"/>
<text text-anchor="middle" x="93" y="-269.3" font-family="Times,serif" font-size="14.00">PL2</text>
</g>
<!-- transition2 -->
<g id="node5" class="node"><title>transition2</title>
<polygon fill="none" stroke="black" points="111,-219 75,-219 75,-218 111,-218 111,-219"/>
<text text-anchor="middle" x="64" y="-222.8" font-family="Times,serif" font-size="14.00">Sa+</text>
</g>
<!-- PL2&#45;&gt;transition2 -->
<g id="edge3" class="edge"><title>PL2&#45;&gt;transition2</title>
<path fill="none" stroke="black" d="M93,-254.939C93,-244.385 93,-231.534 93,-224.412"/>
<polygon fill="none" stroke="black" points="94.7501,-224.059 93,-219.059 91.2501,-224.059 94.7501,-224.059"/>
</g>
<!-- transition1&#45;&gt;PL2 -->
<g id="edge2" class="edge"><title>transition1&#45;&gt;PL2</title>
<path fill="none" stroke="black" d="M39.0058,-1143.96C39.248,-1142.15 47,-1083.94 47,-1037 47,-1037 47,-1037 47,-381 47,-349.824 63.6861,-317.388 76.9589,-296.519"/>
<polygon fill="black" stroke="black" points="79.96,-298.326 82.5619,-288.055 74.1232,-294.461 79.96,-298.326"/>
</g>
<!-- PL3 -->
<g id="node4" class="node"><title>PL3</title>
<ellipse fill="none" stroke="black" cx="93" cy="-164" rx="18" ry="18"/>
<text text-anchor="middle" x="93" y="-160.3" font-family="Times,serif" font-size="14.00">PL3</text>
</g>
<!-- transition3 -->
<g id="node7" class="node"><title>transition3</title>
<polygon fill="none" stroke="black" points="111,-110 75,-110 75,-109 111,-109 111,-110"/>
<text text-anchor="middle" x="66" y="-113.8" font-family="Times,serif" font-size="14.00">Sr&#45;</text>
</g>
<!-- PL3&#45;&gt;transition3 -->
<g id="edge5" class="edge"><title>PL3&#45;&gt;transition3</title>
<path fill="none" stroke="black" d="M93,-145.939C93,-135.385 93,-122.534 93,-115.412"/>
<polygon fill="none" stroke="black" points="94.7501,-115.059 93,-110.059 91.2501,-115.059 94.7501,-115.059"/>
</g>
<!-- transition2&#45;&gt;PL3 -->
<g id="edge4" class="edge"><title>transition2&#45;&gt;PL3</title>
<path fill="none" stroke="black" d="M93,-217.848C93,-216.368 93,-204.319 93,-192.1"/>
<polygon fill="black" stroke="black" points="96.5001,-192.025 93,-182.025 89.5001,-192.025 96.5001,-192.025"/>
</g>
<!-- PL4 -->
<g id="node6" class="node"><title>PL4</title>
<ellipse fill="none" stroke="black" cx="93" cy="-55" rx="18" ry="18"/>
<text text-anchor="middle" x="93" y="-51.3" font-family="Times,serif" font-size="14.00">PL4</text>
</g>
<!-- transition4 -->
<g id="node8" class="node"><title>transition4</title>
<polygon fill="none" stroke="black" points="134,-1 98,-1 98,-0 134,-0 134,-1"/>
<text text-anchor="middle" x="88.5" y="-4.8" font-family="Times,serif" font-size="14.00">Sa&#45;</text>
</g>
<!-- PL4&#45;&gt;transition4 -->
<g id="edge7" class="edge"><title>PL4&#45;&gt;transition4</title>
<path fill="none" stroke="black" d="M99.9008,-38.0983C104.721,-26.9918 110.831,-12.9118 113.956,-5.7104"/>
<polygon fill="none" stroke="black" points="115.588,-6.34553 115.973,-1.06211 112.377,-4.95216 115.588,-6.34553"/>
</g>
<!-- transition3&#45;&gt;PL4 -->
<g id="edge6" class="edge"><title>transition3&#45;&gt;PL4</title>
<path fill="none" stroke="black" d="M93,-108.848C93,-107.368 93,-95.3194 93,-83.1004"/>
<polygon fill="black" stroke="black" points="96.5001,-83.0247 93,-73.0247 89.5001,-83.0248 96.5001,-83.0247"/>
</g>
<!-- transition4&#45;&gt;PL1 -->
<g id="edge8" class="edge"><title>transition4&#45;&gt;PL1</title>
<path fill="none" stroke="black" d="M116.017,-1.04289C116.713,-2.83896 139,-60.6904 139,-109 139,-1146 139,-1146 139,-1146 139,-1177.18 122.314,-1209.61 109.041,-1230.48"/>
<polygon fill="black" stroke="black" points="106.04,-1228.67 103.438,-1238.94 111.877,-1232.54 106.04,-1228.67"/>
</g>
<!-- PL5 -->
<g id="node9" class="node"><title>PL5</title>
<ellipse fill="none" stroke="black" cx="93" cy="-1145" rx="18" ry="18"/>
<text text-anchor="middle" x="93" y="-1141.3" font-family="Times,serif" font-size="14.00">PL5</text>
</g>
<!-- transition6 -->
<g id="node12" class="node"><title>transition6</title>
<polygon fill="none" stroke="black" points="111,-1091 75,-1091 75,-1090 111,-1090 111,-1091"/>
<text text-anchor="middle" x="66" y="-1094.8" font-family="Times,serif" font-size="14.00">Lr&#45;</text>
</g>
<!-- PL5&#45;&gt;transition6 -->
<g id="edge11" class="edge"><title>PL5&#45;&gt;transition6</title>
<path fill="none" stroke="black" d="M93,-1126.94C93,-1116.39 93,-1103.53 93,-1096.41"/>
<polygon fill="none" stroke="black" points="94.7501,-1096.06 93,-1091.06 91.2501,-1096.06 94.7501,-1096.06"/>
</g>
<!-- transition5&#45;&gt;PL5 -->
<g id="edge10" class="edge"><title>transition5&#45;&gt;PL5</title>
<path fill="none" stroke="black" d="M93,-1198.85C93,-1197.37 93,-1185.32 93,-1173.1"/>
<polygon fill="black" stroke="black" points="96.5001,-1173.02 93,-1163.02 89.5001,-1173.02 96.5001,-1173.02"/>
</g>
<!-- PL6 -->
<g id="node11" class="node"><title>PL6</title>
<ellipse fill="none" stroke="black" cx="93" cy="-1036" rx="18" ry="18"/>
<text text-anchor="middle" x="93" y="-1032.3" font-family="Times,serif" font-size="14.00">PL6</text>
</g>
<!-- transition7 -->
<g id="node14" class="node"><title>transition7</title>
<polygon fill="none" stroke="black" points="111,-982 75,-982 75,-981 111,-981 111,-982"/>
<text text-anchor="middle" x="65" y="-985.8" font-family="Times,serif" font-size="14.00">La&#45;</text>
</g>
<!-- PL6&#45;&gt;transition7 -->
<g id="edge13" class="edge"><title>PL6&#45;&gt;transition7</title>
<path fill="none" stroke="black" d="M93,-1017.94C93,-1007.39 93,-994.534 93,-987.412"/>
<polygon fill="none" stroke="black" points="94.7501,-987.059 93,-982.059 91.2501,-987.059 94.7501,-987.059"/>
</g>
<!-- transition6&#45;&gt;PL6 -->
<g id="edge12" class="edge"><title>transition6&#45;&gt;PL6</title>
<path fill="none" stroke="black" d="M93,-1089.85C93,-1088.37 93,-1076.32 93,-1064.1"/>
<polygon fill="black" stroke="black" points="96.5001,-1064.02 93,-1054.02 89.5001,-1064.02 96.5001,-1064.02"/>
</g>
<!-- PL7 -->
<g id="node13" class="node"><title>PL7</title>
<ellipse fill="none" stroke="black" cx="93" cy="-927" rx="18" ry="18"/>
<text text-anchor="middle" x="93" y="-923.3" font-family="Times,serif" font-size="14.00">PL7</text>
</g>
<!-- transition8 -->
<g id="node16" class="node"><title>transition8</title>
<polygon fill="none" stroke="black" points="111,-873 75,-873 75,-872 111,-872 111,-873"/>
<text text-anchor="middle" x="63" y="-876.8" font-family="Times,serif" font-size="14.00">Ca+</text>
</g>
<!-- PL7&#45;&gt;transition8 -->
<g id="edge15" class="edge"><title>PL7&#45;&gt;transition8</title>
<path fill="none" stroke="black" d="M93,-908.939C93,-898.385 93,-885.534 93,-878.412"/>
<polygon fill="none" stroke="black" points="94.7501,-878.059 93,-873.059 91.2501,-878.059 94.7501,-878.059"/>
</g>
<!-- transition7&#45;&gt;PL7 -->
<g id="edge14" class="edge"><title>transition7&#45;&gt;PL7</title>
<path fill="none" stroke="black" d="M93,-980.848C93,-979.368 93,-967.319 93,-955.1"/>
<polygon fill="black" stroke="black" points="96.5001,-955.025 93,-945.025 89.5001,-955.025 96.5001,-955.025"/>
</g>
<!-- PL8 -->
<g id="node15" class="node"><title>PL8</title>
<ellipse fill="none" stroke="black" cx="93" cy="-818" rx="18" ry="18"/>
<text text-anchor="middle" x="93" y="-814.3" font-family="Times,serif" font-size="14.00">PL8</text>
</g>
<!-- transition9 -->
<g id="node18" class="node"><title>transition9</title>
<polygon fill="none" stroke="black" points="111,-764 75,-764 75,-763 111,-763 111,-764"/>
<text text-anchor="middle" x="65.5" y="-767.8" font-family="Times,serif" font-size="14.00">Cr&#45;</text>
</g>
<!-- PL8&#45;&gt;transition9 -->
<g id="edge17" class="edge"><title>PL8&#45;&gt;transition9</title>
<path fill="none" stroke="black" d="M93,-799.939C93,-789.385 93,-776.534 93,-769.412"/>
<polygon fill="none" stroke="black" points="94.7501,-769.059 93,-764.059 91.2501,-769.059 94.7501,-769.059"/>
</g>
<!-- transition8&#45;&gt;PL8 -->
<g id="edge16" class="edge"><title>transition8&#45;&gt;PL8</title>
<path fill="none" stroke="black" d="M93,-871.848C93,-870.368 93,-858.319 93,-846.1"/>
<polygon fill="black" stroke="black" points="96.5001,-846.025 93,-836.025 89.5001,-846.025 96.5001,-846.025"/>
</g>
<!-- PL9 -->
<g id="node17" class="node"><title>PL9</title>
<ellipse fill="none" stroke="black" cx="93" cy="-709" rx="18" ry="18"/>
<text text-anchor="middle" x="93" y="-705.3" font-family="Times,serif" font-size="14.00">PL9</text>
</g>
<!-- transition10 -->
<g id="node20" class="node"><title>transition10</title>
<polygon fill="none" stroke="black" points="111,-655 75,-655 75,-654 111,-654 111,-655"/>
<text text-anchor="middle" x="64.5" y="-658.8" font-family="Times,serif" font-size="14.00">Ca&#45;</text>
</g>
<!-- PL9&#45;&gt;transition10 -->
<g id="edge19" class="edge"><title>PL9&#45;&gt;transition10</title>
<path fill="none" stroke="black" d="M93,-690.939C93,-680.385 93,-667.534 93,-660.412"/>
<polygon fill="none" stroke="black" points="94.7501,-660.059 93,-655.059 91.2501,-660.059 94.7501,-660.059"/>
</g>
<!-- transition9&#45;&gt;PL9 -->
<g id="edge18" class="edge"><title>transition9&#45;&gt;PL9</title>
<path fill="none" stroke="black" d="M93,-762.848C93,-761.368 93,-749.319 93,-737.1"/>
<polygon fill="black" stroke="black" points="96.5001,-737.025 93,-727.025 89.5001,-737.025 96.5001,-737.025"/>
</g>
<!-- PL10 -->
<g id="node19" class="node"><title>PL10</title>
<ellipse fill="none" stroke="black" cx="93" cy="-600" rx="18" ry="18"/>
<text text-anchor="middle" x="93" y="-596.3" font-family="Times,serif" font-size="14.00">PL10</text>
</g>
<!-- transition11 -->
<g id="node22" class="node"><title>transition11</title>
<polygon fill="none" stroke="black" points="111,-546 75,-546 75,-545 111,-545 111,-546"/>
<text text-anchor="middle" x="64.5" y="-549.8" font-family="Times,serif" font-size="14.00">Sr+</text>
</g>
<!-- PL10&#45;&gt;transition11 -->
<g id="edge21" class="edge"><title>PL10&#45;&gt;transition11</title>
<path fill="none" stroke="black" d="M93,-581.939C93,-571.385 93,-558.534 93,-551.412"/>
<polygon fill="none" stroke="black" points="94.7501,-551.059 93,-546.059 91.2501,-551.059 94.7501,-551.059"/>
</g>
<!-- transition10&#45;&gt;PL10 -->
<g id="edge20" class="edge"><title>transition10&#45;&gt;PL10</title>
<path fill="none" stroke="black" d="M93,-653.848C93,-652.368 93,-640.319 93,-628.1"/>
<polygon fill="black" stroke="black" points="96.5001,-628.025 93,-618.025 89.5001,-628.025 96.5001,-628.025"/>
</g>
<!-- PL11 -->
<g id="node21" class="node"><title>PL11</title>
<ellipse fill="none" stroke="black" cx="93" cy="-491" rx="18" ry="18"/>
<text text-anchor="middle" x="93" y="-487.3" font-family="Times,serif" font-size="14.00">PL11</text>
</g>
<!-- transition12 -->
<g id="node24" class="node"><title>transition12</title>
<polygon fill="none" stroke="black" points="111,-437 75,-437 75,-436 111,-436 111,-437"/>
<text text-anchor="middle" x="64" y="-440.8" font-family="Times,serif" font-size="14.00">Lr+</text>
</g>
<!-- PL11&#45;&gt;transition12 -->
<g id="edge23" class="edge"><title>PL11&#45;&gt;transition12</title>
<path fill="none" stroke="black" d="M93,-472.939C93,-462.385 93,-449.534 93,-442.412"/>
<polygon fill="none" stroke="black" points="94.7501,-442.059 93,-437.059 91.2501,-442.059 94.7501,-442.059"/>
</g>
<!-- transition11&#45;&gt;PL11 -->
<g id="edge22" class="edge"><title>transition11&#45;&gt;PL11</title>
<path fill="none" stroke="black" d="M93,-544.848C93,-543.368 93,-531.319 93,-519.1"/>
<polygon fill="black" stroke="black" points="96.5001,-519.025 93,-509.025 89.5001,-519.025 96.5001,-519.025"/>
</g>
<!-- PL12 -->
<g id="node23" class="node"><title>PL12</title>
<ellipse fill="none" stroke="black" cx="93" cy="-382" rx="18" ry="18"/>
<text text-anchor="middle" x="93" y="-378.3" font-family="Times,serif" font-size="14.00">PL12</text>
</g>
<!-- transition13 -->
<g id="node25" class="node"><title>transition13</title>
<polygon fill="none" stroke="black" points="111,-328 75,-328 75,-327 111,-327 111,-328"/>
<text text-anchor="middle" x="63.5" y="-331.8" font-family="Times,serif" font-size="14.00">La+</text>
</g>
<!-- PL12&#45;&gt;transition13 -->
<g id="edge25" class="edge"><title>PL12&#45;&gt;transition13</title>
<path fill="none" stroke="black" d="M93,-363.939C93,-353.385 93,-340.534 93,-333.412"/>
<polygon fill="none" stroke="black" points="94.7501,-333.059 93,-328.059 91.2501,-333.059 94.7501,-333.059"/>
</g>
<!-- transition12&#45;&gt;PL12 -->
<g id="edge24" class="edge"><title>transition12&#45;&gt;PL12</title>
<path fill="none" stroke="black" d="M93,-435.848C93,-434.368 93,-422.319 93,-410.1"/>
<polygon fill="black" stroke="black" points="96.5001,-410.025 93,-400.025 89.5001,-410.025 96.5001,-410.025"/>
</g>
<!-- transition13&#45;&gt;PL2 -->
<g id="edge26" class="edge"><title>transition13&#45;&gt;PL2</title>
<path fill="none" stroke="black" d="M93,-326.848C93,-325.368 93,-313.319 93,-301.1"/>
<polygon fill="black" stroke="black" points="96.5001,-301.025 93,-291.025 89.5001,-301.025 96.5001,-301.025"/>
</g>
</g>
</svg>
