<?xml version="1.0" encoding="UTF-8" standalone="no"?>
<!DOCTYPE svg PUBLIC "-//W3C//DTD SVG 1.1//EN"
 "http://www.w3.org/Graphics/SVG/1.1/DTD/svg11.dtd">
<!-- Generated by graphviz version 2.38.0 (20140413.2041)
 -->
<!-- Title: %3 Pages: 1 -->
<svg width="248pt" height="1280pt"
 viewBox="0.00 0.00 248.00 1280.00" xmlns="http://www.w3.org/2000/svg" xmlns:xlink="http://www.w3.org/1999/xlink">
<g id="graph0" class="graph" transform="scale(1 1) rotate(0) translate(4 1276)">
<title>%3</title>
<polygon fill="white" stroke="none" points="-4,4 -4,-1276 244,-1276 244,4 -4,4"/>
<!-- p1 -->
<g id="node1" class="node"><title>p1</title>
<ellipse fill="none" stroke="black" cx="217" cy="-1254" rx="18" ry="18"/>
<text text-anchor="middle" x="217" y="-1250.3" font-family="Times,serif" font-size="14.00">p1</text>
</g>
<!-- transition0 -->
<g id="node3" class="node"><title>transition0</title>
<polygon fill="none" stroke="black" points="212,-1200 176,-1200 176,-1199 212,-1199 212,-1200"/>
<text text-anchor="middle" x="160" y="-1203.8" font-family="Times,serif" font-size="14.00">start+</text>
</g>
<!-- p1&#45;&gt;transition0 -->
<g id="edge1" class="edge"><title>p1&#45;&gt;transition0</title>
<path fill="none" stroke="black" d="M210.099,-1237.1C205.279,-1225.99 199.169,-1211.91 196.044,-1204.71"/>
<polygon fill="none" stroke="black" points="197.623,-1203.95 194.027,-1200.06 194.412,-1205.35 197.623,-1203.95"/>
</g>
<!-- p2 -->
<g id="node2" class="node"><title>p2</title>
<ellipse fill="none" stroke="black" cx="194" cy="-1145" rx="18" ry="18"/>
<text text-anchor="middle" x="194" y="-1141.3" font-family="Times,serif" font-size="14.00">p2</text>
</g>
<!-- transition1 -->
<g id="node5" class="node"><title>transition1</title>
<polygon fill="none" stroke="black" points="189,-1091 153,-1091 153,-1090 189,-1090 189,-1091"/>
<text text-anchor="middle" x="126.5" y="-1094.8" font-family="Times,serif" font-size="14.00">done&#45;s0+</text>
</g>
<!-- p2&#45;&gt;transition1 -->
<g id="edge3" class="edge"><title>p2&#45;&gt;transition1</title>
<path fill="none" stroke="black" d="M187.099,-1128.1C182.279,-1116.99 176.169,-1102.91 173.044,-1095.71"/>
<polygon fill="none" stroke="black" points="174.623,-1094.95 171.027,-1091.06 171.412,-1096.35 174.623,-1094.95"/>
</g>
<!-- transition0&#45;&gt;p2 -->
<g id="edge2" class="edge"><title>transition0&#45;&gt;p2</title>
<path fill="none" stroke="black" d="M194,-1198.85C194,-1197.37 194,-1185.32 194,-1173.1"/>
<polygon fill="black" stroke="black" points="197.5,-1173.02 194,-1163.02 190.5,-1173.02 197.5,-1173.02"/>
</g>
<!-- p3 -->
<g id="node4" class="node"><title>p3</title>
<ellipse fill="none" stroke="black" cx="171" cy="-1036" rx="18" ry="18"/>
<text text-anchor="middle" x="171" y="-1032.3" font-family="Times,serif" font-size="14.00">p3</text>
</g>
<!-- transition2 -->
<g id="node7" class="node"><title>transition2</title>
<polygon fill="none" stroke="black" points="189,-982 153,-982 153,-981 189,-981 189,-982"/>
<text text-anchor="middle" x="138.5" y="-985.8" font-family="Times,serif" font-size="14.00">Es0+</text>
</g>
<!-- p3&#45;&gt;transition2 -->
<g id="edge5" class="edge"><title>p3&#45;&gt;transition2</title>
<path fill="none" stroke="black" d="M171,-1017.94C171,-1007.39 171,-994.534 171,-987.412"/>
<polygon fill="none" stroke="black" points="172.75,-987.059 171,-982.059 169.25,-987.059 172.75,-987.059"/>
</g>
<!-- transition1&#45;&gt;p3 -->
<g id="edge4" class="edge"><title>transition1&#45;&gt;p3</title>
<path fill="none" stroke="black" d="M171,-1089.85C171,-1088.37 171,-1076.32 171,-1064.1"/>
<polygon fill="black" stroke="black" points="174.5,-1064.02 171,-1054.02 167.5,-1064.02 174.5,-1064.02"/>
</g>
<!-- p4 -->
<g id="node6" class="node"><title>p4</title>
<ellipse fill="none" stroke="black" cx="171" cy="-927" rx="18" ry="18"/>
<text text-anchor="middle" x="171" y="-923.3" font-family="Times,serif" font-size="14.00">p4</text>
</g>
<!-- transition3 -->
<g id="node9" class="node"><title>transition3</title>
<polygon fill="none" stroke="black" points="189,-873 153,-873 153,-872 189,-872 189,-873"/>
<text text-anchor="middle" x="122.5" y="-876.8" font-family="Times,serif" font-size="14.00">MM1+s2+</text>
</g>
<!-- p4&#45;&gt;transition3 -->
<g id="edge7" class="edge"><title>p4&#45;&gt;transition3</title>
<path fill="none" stroke="black" d="M171,-908.939C171,-898.385 171,-885.534 171,-878.412"/>
<polygon fill="none" stroke="black" points="172.75,-878.059 171,-873.059 169.25,-878.059 172.75,-878.059"/>
</g>
<!-- transition2&#45;&gt;p4 -->
<g id="edge6" class="edge"><title>transition2&#45;&gt;p4</title>
<path fill="none" stroke="black" d="M171,-980.848C171,-979.368 171,-967.319 171,-955.1"/>
<polygon fill="black" stroke="black" points="174.5,-955.025 171,-945.025 167.5,-955.025 174.5,-955.025"/>
</g>
<!-- p5 -->
<g id="node8" class="node"><title>p5</title>
<ellipse fill="none" stroke="black" cx="171" cy="-818" rx="18" ry="18"/>
<text text-anchor="middle" x="171" y="-814.3" font-family="Times,serif" font-size="14.00">p5</text>
</g>
<!-- transition4 -->
<g id="node11" class="node"><title>transition4</title>
<polygon fill="none" stroke="black" points="120,-764 84,-764 84,-763 120,-763 120,-764"/>
<text text-anchor="middle" x="53.5" y="-767.8" font-family="Times,serif" font-size="14.00">[my&#45;]Es2+</text>
</g>
<!-- p5&#45;&gt;transition4 -->
<g id="edge9" class="edge"><title>p5&#45;&gt;transition4</title>
<path fill="none" stroke="black" d="M157.037,-806.275C141.167,-794.085 116.182,-774.894 106.263,-767.275"/>
<polygon fill="none" stroke="black" points="107.132,-765.735 102.101,-764.077 105,-768.511 107.132,-765.735"/>
</g>
<!-- transition12 -->
<g id="node26" class="node"><title>transition12</title>
<polygon fill="none" stroke="black" points="212,-764 176,-764 176,-763 212,-763 212,-764"/>
<text text-anchor="middle" x="143.5" y="-767.8" font-family="Times,serif" font-size="14.00">[my+]Es2+</text>
</g>
<!-- p5&#45;&gt;transition12 -->
<g id="edge25" class="edge"><title>p5&#45;&gt;transition12</title>
<path fill="none" stroke="black" d="M177.901,-801.098C182.721,-789.992 188.831,-775.912 191.956,-768.71"/>
<polygon fill="none" stroke="black" points="193.588,-769.346 193.973,-764.062 190.377,-767.952 193.588,-769.346"/>
</g>
<!-- transition3&#45;&gt;p5 -->
<g id="edge8" class="edge"><title>transition3&#45;&gt;p5</title>
<path fill="none" stroke="black" d="M171,-871.848C171,-870.368 171,-858.319 171,-846.1"/>
<polygon fill="black" stroke="black" points="174.5,-846.025 171,-836.025 167.5,-846.025 174.5,-846.025"/>
</g>
<!-- p6 -->
<g id="node10" class="node"><title>p6</title>
<ellipse fill="none" stroke="black" cx="102" cy="-709" rx="18" ry="18"/>
<text text-anchor="middle" x="102" y="-705.3" font-family="Times,serif" font-size="14.00">p6</text>
</g>
<!-- transition5 -->
<g id="node13" class="node"><title>transition5</title>
<polygon fill="none" stroke="black" points="120,-655 84,-655 84,-654 120,-654 120,-655"/>
<text text-anchor="middle" x="47.5" y="-658.8" font-family="Times,serif" font-size="14.00">s1+MA1+k+</text>
</g>
<!-- p6&#45;&gt;transition5 -->
<g id="edge11" class="edge"><title>p6&#45;&gt;transition5</title>
<path fill="none" stroke="black" d="M102,-690.939C102,-680.385 102,-667.534 102,-660.412"/>
<polygon fill="none" stroke="black" points="103.75,-660.059 102,-655.059 100.25,-660.059 103.75,-660.059"/>
</g>
<!-- transition4&#45;&gt;p6 -->
<g id="edge10" class="edge"><title>transition4&#45;&gt;p6</title>
<path fill="none" stroke="black" d="M102,-762.848C102,-761.368 102,-749.319 102,-737.1"/>
<polygon fill="black" stroke="black" points="105.5,-737.025 102,-727.025 98.5001,-737.025 105.5,-737.025"/>
</g>
<!-- p7 -->
<g id="node12" class="node"><title>p7</title>
<ellipse fill="none" stroke="black" cx="102" cy="-600" rx="18" ry="18"/>
<text text-anchor="middle" x="102" y="-596.3" font-family="Times,serif" font-size="14.00">p7</text>
</g>
<!-- transition6 -->
<g id="node15" class="node"><title>transition6</title>
<polygon fill="none" stroke="black" points="120,-546 84,-546 84,-545 120,-545 120,-546"/>
<text text-anchor="middle" x="69.5" y="-549.8" font-family="Times,serif" font-size="14.00">Es1+</text>
</g>
<!-- p7&#45;&gt;transition6 -->
<g id="edge13" class="edge"><title>p7&#45;&gt;transition6</title>
<path fill="none" stroke="black" d="M102,-581.939C102,-571.385 102,-558.534 102,-551.412"/>
<polygon fill="none" stroke="black" points="103.75,-551.059 102,-546.059 100.25,-551.059 103.75,-551.059"/>
</g>
<!-- transition5&#45;&gt;p7 -->
<g id="edge12" class="edge"><title>transition5&#45;&gt;p7</title>
<path fill="none" stroke="black" d="M102,-653.848C102,-652.368 102,-640.319 102,-628.1"/>
<polygon fill="black" stroke="black" points="105.5,-628.025 102,-618.025 98.5001,-628.025 105.5,-628.025"/>
</g>
<!-- p8 -->
<g id="node14" class="node"><title>p8</title>
<ellipse fill="none" stroke="black" cx="102" cy="-491" rx="18" ry="18"/>
<text text-anchor="middle" x="102" y="-487.3" font-family="Times,serif" font-size="14.00">p8</text>
</g>
<!-- transition7 -->
<g id="node17" class="node"><title>transition7</title>
<polygon fill="none" stroke="black" points="120,-437 84,-437 84,-436 120,-436 120,-437"/>
<text text-anchor="middle" x="57" y="-440.8" font-family="Times,serif" font-size="14.00">s2&#45;MM1&#45;</text>
</g>
<!-- p8&#45;&gt;transition7 -->
<g id="edge15" class="edge"><title>p8&#45;&gt;transition7</title>
<path fill="none" stroke="black" d="M102,-472.939C102,-462.385 102,-449.534 102,-442.412"/>
<polygon fill="none" stroke="black" points="103.75,-442.059 102,-437.059 100.25,-442.059 103.75,-442.059"/>
</g>
<!-- transition6&#45;&gt;p8 -->
<g id="edge14" class="edge"><title>transition6&#45;&gt;p8</title>
<path fill="none" stroke="black" d="M102,-544.848C102,-543.368 102,-531.319 102,-519.1"/>
<polygon fill="black" stroke="black" points="105.5,-519.025 102,-509.025 98.5001,-519.025 105.5,-519.025"/>
</g>
<!-- p9 -->
<g id="node16" class="node"><title>p9</title>
<ellipse fill="none" stroke="black" cx="102" cy="-382" rx="18" ry="18"/>
<text text-anchor="middle" x="102" y="-378.3" font-family="Times,serif" font-size="14.00">p9</text>
</g>
<!-- transition8 -->
<g id="node19" class="node"><title>transition8</title>
<polygon fill="none" stroke="black" points="120,-328 84,-328 84,-327 120,-327 120,-328"/>
<text text-anchor="middle" x="71" y="-331.8" font-family="Times,serif" font-size="14.00">Es2&#45;</text>
</g>
<!-- p9&#45;&gt;transition8 -->
<g id="edge17" class="edge"><title>p9&#45;&gt;transition8</title>
<path fill="none" stroke="black" d="M102,-363.939C102,-353.385 102,-340.534 102,-333.412"/>
<polygon fill="none" stroke="black" points="103.75,-333.059 102,-328.059 100.25,-333.059 103.75,-333.059"/>
</g>
<!-- transition7&#45;&gt;p9 -->
<g id="edge16" class="edge"><title>transition7&#45;&gt;p9</title>
<path fill="none" stroke="black" d="M102,-435.848C102,-434.368 102,-422.319 102,-410.1"/>
<polygon fill="black" stroke="black" points="105.5,-410.025 102,-400.025 98.5001,-410.025 105.5,-410.025"/>
</g>
<!-- p10 -->
<g id="node18" class="node"><title>p10</title>
<ellipse fill="none" stroke="black" cx="102" cy="-273" rx="18" ry="18"/>
<text text-anchor="middle" x="102" y="-269.3" font-family="Times,serif" font-size="14.00">p10</text>
</g>
<!-- transition9 -->
<g id="node21" class="node"><title>transition9</title>
<polygon fill="none" stroke="black" points="120,-219 84,-219 84,-218 120,-218 120,-219"/>
<text text-anchor="middle" x="75" y="-222.8" font-family="Times,serif" font-size="14.00">s1&#45;</text>
</g>
<!-- p10&#45;&gt;transition9 -->
<g id="edge19" class="edge"><title>p10&#45;&gt;transition9</title>
<path fill="none" stroke="black" d="M102,-254.939C102,-244.385 102,-231.534 102,-224.412"/>
<polygon fill="none" stroke="black" points="103.75,-224.059 102,-219.059 100.25,-224.059 103.75,-224.059"/>
</g>
<!-- transition8&#45;&gt;p10 -->
<g id="edge18" class="edge"><title>transition8&#45;&gt;p10</title>
<path fill="none" stroke="black" d="M102,-326.848C102,-325.368 102,-313.319 102,-301.1"/>
<polygon fill="black" stroke="black" points="105.5,-301.025 102,-291.025 98.5001,-301.025 105.5,-301.025"/>
</g>
<!-- p11 -->
<g id="node20" class="node"><title>p11</title>
<ellipse fill="none" stroke="black" cx="102" cy="-164" rx="18" ry="18"/>
<text text-anchor="middle" x="102" y="-160.3" font-family="Times,serif" font-size="14.00">p11</text>
</g>
<!-- transition10 -->
<g id="node23" class="node"><title>transition10</title>
<polygon fill="none" stroke="black" points="120,-110 84,-110 84,-109 120,-109 120,-110"/>
<text text-anchor="middle" x="71" y="-113.8" font-family="Times,serif" font-size="14.00">Es1&#45;</text>
</g>
<!-- p11&#45;&gt;transition10 -->
<g id="edge21" class="edge"><title>p11&#45;&gt;transition10</title>
<path fill="none" stroke="black" d="M102,-145.939C102,-135.385 102,-122.534 102,-115.412"/>
<polygon fill="none" stroke="black" points="103.75,-115.059 102,-110.059 100.25,-115.059 103.75,-115.059"/>
</g>
<!-- transition9&#45;&gt;p11 -->
<g id="edge20" class="edge"><title>transition9&#45;&gt;p11</title>
<path fill="none" stroke="black" d="M102,-217.848C102,-216.368 102,-204.319 102,-192.1"/>
<polygon fill="black" stroke="black" points="105.5,-192.025 102,-182.025 98.5001,-192.025 105.5,-192.025"/>
</g>
<!-- p12 -->
<g id="node22" class="node"><title>p12</title>
<ellipse fill="none" stroke="black" cx="102" cy="-55" rx="18" ry="18"/>
<text text-anchor="middle" x="102" y="-51.3" font-family="Times,serif" font-size="14.00">p12</text>
</g>
<!-- transition11 -->
<g id="node24" class="node"><title>transition11</title>
<polygon fill="none" stroke="black" points="143,-1 107,-1 107,-0 143,-0 143,-1"/>
<text text-anchor="middle" x="53.5" y="-4.8" font-family="Times,serif" font-size="14.00">s2+k&#45;MM1+MA1&#45;</text>
</g>
<!-- p12&#45;&gt;transition11 -->
<g id="edge23" class="edge"><title>p12&#45;&gt;transition11</title>
<path fill="none" stroke="black" d="M108.901,-38.0983C113.721,-26.9918 119.831,-12.9118 122.956,-5.7104"/>
<polygon fill="none" stroke="black" points="124.588,-6.34553 124.973,-1.06211 121.377,-4.95216 124.588,-6.34553"/>
</g>
<!-- transition10&#45;&gt;p12 -->
<g id="edge22" class="edge"><title>transition10&#45;&gt;p12</title>
<path fill="none" stroke="black" d="M102,-108.848C102,-107.368 102,-95.3194 102,-83.1004"/>
<polygon fill="black" stroke="black" points="105.5,-83.0247 102,-73.0247 98.5001,-83.0248 105.5,-83.0247"/>
</g>
<!-- transition11&#45;&gt;p5 -->
<g id="edge24" class="edge"><title>transition11&#45;&gt;p5</title>
<path fill="none" stroke="black" d="M125.017,-1.04289C125.713,-2.83896 148,-60.6904 148,-109 148,-710 148,-710 148,-710 148,-738.249 155.757,-769.774 162.262,-791.244"/>
<polygon fill="black" stroke="black" points="158.967,-792.434 165.315,-800.917 165.642,-790.327 158.967,-792.434"/>
</g>
<!-- p15 -->
<g id="node25" class="node"><title>p15</title>
<ellipse fill="none" stroke="black" cx="194" cy="-709" rx="18" ry="18"/>
<text text-anchor="middle" x="194" y="-705.3" font-family="Times,serif" font-size="14.00">p15</text>
</g>
<!-- transition13 -->
<g id="node28" class="node"><title>transition13</title>
<polygon fill="none" stroke="black" points="212,-655 176,-655 176,-654 212,-654 212,-655"/>
<text text-anchor="middle" x="158.5" y="-658.8" font-family="Times,serif" font-size="14.00">s0&#45;s2&#45;</text>
</g>
<!-- p15&#45;&gt;transition13 -->
<g id="edge27" class="edge"><title>p15&#45;&gt;transition13</title>
<path fill="none" stroke="black" d="M194,-690.939C194,-680.385 194,-667.534 194,-660.412"/>
<polygon fill="none" stroke="black" points="195.75,-660.059 194,-655.059 192.25,-660.059 195.75,-660.059"/>
</g>
<!-- transition12&#45;&gt;p15 -->
<g id="edge26" class="edge"><title>transition12&#45;&gt;p15</title>
<path fill="none" stroke="black" d="M194,-762.848C194,-761.368 194,-749.319 194,-737.1"/>
<polygon fill="black" stroke="black" points="197.5,-737.025 194,-727.025 190.5,-737.025 197.5,-737.025"/>
</g>
<!-- p13 -->
<g id="node27" class="node"><title>p13</title>
<ellipse fill="none" stroke="black" cx="194" cy="-600" rx="18" ry="18"/>
<text text-anchor="middle" x="194" y="-596.3" font-family="Times,serif" font-size="14.00">p13</text>
</g>
<!-- transition14 -->
<g id="node30" class="node"><title>transition14</title>
<polygon fill="none" stroke="black" points="212,-546 176,-546 176,-545 212,-545 212,-546"/>
<text text-anchor="middle" x="135.5" y="-549.8" font-family="Times,serif" font-size="14.00">start&#45;Es0&#45;Es2&#45;</text>
</g>
<!-- p13&#45;&gt;transition14 -->
<g id="edge29" class="edge"><title>p13&#45;&gt;transition14</title>
<path fill="none" stroke="black" d="M194,-581.939C194,-571.385 194,-558.534 194,-551.412"/>
<polygon fill="none" stroke="black" points="195.75,-551.059 194,-546.059 192.25,-551.059 195.75,-551.059"/>
</g>
<!-- transition13&#45;&gt;p13 -->
<g id="edge28" class="edge"><title>transition13&#45;&gt;p13</title>
<path fill="none" stroke="black" d="M194,-653.848C194,-652.368 194,-640.319 194,-628.1"/>
<polygon fill="black" stroke="black" points="197.5,-628.025 194,-618.025 190.5,-628.025 197.5,-628.025"/>
</g>
<!-- p14 -->
<g id="node29" class="node"><title>p14</title>
<ellipse fill="none" stroke="black" cx="194" cy="-491" rx="18" ry="18"/>
<text text-anchor="middle" x="194" y="-487.3" font-family="Times,serif" font-size="14.00">p14</text>
</g>
<!-- transition15 -->
<g id="node31" class="node"><title>transition15</title>
<polygon fill="none" stroke="black" points="235,-437 199,-437 199,-436 235,-436 235,-437"/>
<text text-anchor="middle" x="163" y="-440.8" font-family="Times,serif" font-size="14.00">done+MM1&#45;</text>
</g>
<!-- p14&#45;&gt;transition15 -->
<g id="edge31" class="edge"><title>p14&#45;&gt;transition15</title>
<path fill="none" stroke="black" d="M200.901,-474.098C205.721,-462.992 211.831,-448.912 214.956,-441.71"/>
<polygon fill="none" stroke="black" points="216.588,-442.346 216.973,-437.062 213.377,-440.952 216.588,-442.346"/>
</g>
<!-- transition14&#45;&gt;p14 -->
<g id="edge30" class="edge"><title>transition14&#45;&gt;p14</title>
<path fill="none" stroke="black" d="M194,-544.848C194,-543.368 194,-531.319 194,-519.1"/>
<polygon fill="black" stroke="black" points="197.5,-519.025 194,-509.025 190.5,-519.025 197.5,-519.025"/>
</g>
<!-- transition15&#45;&gt;p1 -->
<g id="edge32" class="edge"><title>transition15&#45;&gt;p1</title>
<path fill="none" stroke="black" d="M217.017,-437.043C217.713,-438.839 240,-496.69 240,-545 240,-1146 240,-1146 240,-1146 240,-1174.25 232.243,-1205.77 225.738,-1227.24"/>
<polygon fill="black" stroke="black" points="222.358,-1226.33 222.685,-1236.92 229.033,-1228.43 222.358,-1226.33"/>
</g>
</g>
</svg>
