<?xml version="1.0" encoding="UTF-8" standalone="no"?>
<!DOCTYPE svg PUBLIC "-//W3C//DTD SVG 1.1//EN"
 "http://www.w3.org/Graphics/SVG/1.1/DTD/svg11.dtd">
<!-- Generated by graphviz version 2.38.0 (20140413.2041)
 -->
<!-- Title: %3 Pages: 1 -->
<svg width="154pt" height="1531pt"
 viewBox="0.00 0.00 154.00 1531.00" xmlns="http://www.w3.org/2000/svg" xmlns:xlink="http://www.w3.org/1999/xlink">
<g id="graph0" class="graph" transform="scale(1 1) rotate(0) translate(4 1527)">
<title>%3</title>
<polygon fill="white" stroke="none" points="-4,4 -4,-1527 150,-1527 150,4 -4,4"/>
<!-- PL1 -->
<g id="node1" class="node"><title>PL1</title>
<ellipse fill="none" stroke="black" cx="116" cy="-1505" rx="18" ry="18"/>
<text text-anchor="middle" x="116" y="-1501.3" font-family="Times,serif" font-size="14.00">PL1</text>
</g>
<!-- transition1 -->
<g id="node3" class="node"><title>transition1</title>
<polygon fill="none" stroke="black" points="105,-1451 69,-1451 69,-1450 105,-1450 105,-1451"/>
<text text-anchor="middle" x="61.5" y="-1454.8" font-family="Times,serif" font-size="14.00">b+</text>
</g>
<!-- PL1&#45;&gt;transition1 -->
<g id="edge1" class="edge"><title>PL1&#45;&gt;transition1</title>
<path fill="none" stroke="black" d="M107.767,-1488.95C101.668,-1477.81 93.7361,-1463.31 89.6663,-1455.87"/>
<polygon fill="none" stroke="black" points="90.9706,-1454.61 87.0352,-1451.06 87.9001,-1456.29 90.9706,-1454.61"/>
</g>
<!-- PL2 -->
<g id="node2" class="node"><title>PL2</title>
<ellipse fill="none" stroke="black" cx="74" cy="-1396" rx="18" ry="18"/>
<text text-anchor="middle" x="74" y="-1392.3" font-family="Times,serif" font-size="14.00">PL2</text>
</g>
<!-- transition2 -->
<g id="node5" class="node"><title>transition2</title>
<polygon fill="none" stroke="black" points="79,-1342 43,-1342 43,-1341 79,-1341 79,-1342"/>
<text text-anchor="middle" x="37.5" y="-1345.8" font-family="Times,serif" font-size="14.00">a&#45;</text>
</g>
<!-- PL2&#45;&gt;transition2 -->
<g id="edge3" class="edge"><title>PL2&#45;&gt;transition2</title>
<path fill="none" stroke="black" d="M69.8867,-1378.23C67.2348,-1367.42 63.9675,-1354.1 62.2274,-1347"/>
<polygon fill="none" stroke="black" points="63.9055,-1346.5 61.0147,-1342.06 60.5062,-1347.33 63.9055,-1346.5"/>
</g>
<!-- transition1&#45;&gt;PL2 -->
<g id="edge2" class="edge"><title>transition1&#45;&gt;PL2</title>
<path fill="none" stroke="black" d="M86.9627,-1449.85C86.5937,-1448.34 83.5463,-1435.92 80.4991,-1423.5"/>
<polygon fill="black" stroke="black" points="83.8881,-1422.62 78.1066,-1413.74 77.0896,-1424.29 83.8881,-1422.62"/>
</g>
<!-- PL3 -->
<g id="node4" class="node"><title>PL3</title>
<ellipse fill="none" stroke="black" cx="57" cy="-1287" rx="18" ry="18"/>
<text text-anchor="middle" x="57" y="-1283.3" font-family="Times,serif" font-size="14.00">PL3</text>
</g>
<!-- transition12 -->
<g id="node7" class="node"><title>transition12</title>
<polygon fill="none" stroke="black" points="69,-1233 33,-1233 33,-1232 69,-1232 69,-1233"/>
<text text-anchor="middle" x="25.5" y="-1236.8" font-family="Times,serif" font-size="14.00">x+</text>
</g>
<!-- PL3&#45;&gt;transition12 -->
<g id="edge5" class="edge"><title>PL3&#45;&gt;transition12</title>
<path fill="none" stroke="black" d="M55.0685,-1268.94C53.8738,-1258.39 52.419,-1245.53 51.6127,-1238.41"/>
<polygon fill="none" stroke="black" points="53.3081,-1237.83 51.0067,-1233.06 49.8303,-1238.22 53.3081,-1237.83"/>
</g>
<!-- transition2&#45;&gt;PL3 -->
<g id="edge4" class="edge"><title>transition2&#45;&gt;PL3</title>
<path fill="none" stroke="black" d="M60.9885,-1340.85C60.8768,-1339.37 59.9675,-1327.32 59.0453,-1315.1"/>
<polygon fill="black" stroke="black" points="62.5276,-1314.73 58.2849,-1305.02 55.5475,-1315.26 62.5276,-1314.73"/>
</g>
<!-- PL4 -->
<g id="node6" class="node"><title>PL4</title>
<ellipse fill="none" stroke="black" cx="51" cy="-1178" rx="18" ry="18"/>
<text text-anchor="middle" x="51" y="-1174.3" font-family="Times,serif" font-size="14.00">PL4</text>
</g>
<!-- transition3 -->
<g id="node9" class="node"><title>transition3</title>
<polygon fill="none" stroke="black" points="69,-1124 33,-1124 33,-1123 69,-1123 69,-1124"/>
<text text-anchor="middle" x="27" y="-1127.8" font-family="Times,serif" font-size="14.00">b&#45;</text>
</g>
<!-- PL4&#45;&gt;transition3 -->
<g id="edge7" class="edge"><title>PL4&#45;&gt;transition3</title>
<path fill="none" stroke="black" d="M51,-1159.94C51,-1149.39 51,-1136.53 51,-1129.41"/>
<polygon fill="none" stroke="black" points="52.7501,-1129.06 51,-1124.06 49.2501,-1129.06 52.7501,-1129.06"/>
</g>
<!-- transition12&#45;&gt;PL4 -->
<g id="edge6" class="edge"><title>transition12&#45;&gt;PL4</title>
<path fill="none" stroke="black" d="M51,-1231.85C51,-1230.37 51,-1218.32 51,-1206.1"/>
<polygon fill="black" stroke="black" points="54.5001,-1206.02 51,-1196.02 47.5001,-1206.02 54.5001,-1206.02"/>
</g>
<!-- PL5 -->
<g id="node8" class="node"><title>PL5</title>
<ellipse fill="none" stroke="black" cx="51" cy="-1069" rx="18" ry="18"/>
<text text-anchor="middle" x="51" y="-1065.3" font-family="Times,serif" font-size="14.00">PL5</text>
</g>
<!-- transition4 -->
<g id="node11" class="node"><title>transition4</title>
<polygon fill="none" stroke="black" points="69,-1015 33,-1015 33,-1014 69,-1014 69,-1015"/>
<text text-anchor="middle" x="25.5" y="-1018.8" font-family="Times,serif" font-size="14.00">a+</text>
</g>
<!-- PL5&#45;&gt;transition4 -->
<g id="edge9" class="edge"><title>PL5&#45;&gt;transition4</title>
<path fill="none" stroke="black" d="M51,-1050.94C51,-1040.39 51,-1027.53 51,-1020.41"/>
<polygon fill="none" stroke="black" points="52.7501,-1020.06 51,-1015.06 49.2501,-1020.06 52.7501,-1020.06"/>
</g>
<!-- transition3&#45;&gt;PL5 -->
<g id="edge8" class="edge"><title>transition3&#45;&gt;PL5</title>
<path fill="none" stroke="black" d="M51,-1122.85C51,-1121.37 51,-1109.32 51,-1097.1"/>
<polygon fill="black" stroke="black" points="54.5001,-1097.02 51,-1087.02 47.5001,-1097.02 54.5001,-1097.02"/>
</g>
<!-- PL6 -->
<g id="node10" class="node"><title>PL6</title>
<ellipse fill="none" stroke="black" cx="51" cy="-960" rx="18" ry="18"/>
<text text-anchor="middle" x="51" y="-956.3" font-family="Times,serif" font-size="14.00">PL6</text>
</g>
<!-- transition5 -->
<g id="node13" class="node"><title>transition5</title>
<polygon fill="none" stroke="black" points="69,-906 33,-906 33,-905 69,-905 69,-906"/>
<text text-anchor="middle" x="27.5" y="-909.8" font-family="Times,serif" font-size="14.00">c&#45;</text>
</g>
<!-- PL6&#45;&gt;transition5 -->
<g id="edge11" class="edge"><title>PL6&#45;&gt;transition5</title>
<path fill="none" stroke="black" d="M51,-941.939C51,-931.385 51,-918.534 51,-911.412"/>
<polygon fill="none" stroke="black" points="52.7501,-911.059 51,-906.059 49.2501,-911.059 52.7501,-911.059"/>
</g>
<!-- transition4&#45;&gt;PL6 -->
<g id="edge10" class="edge"><title>transition4&#45;&gt;PL6</title>
<path fill="none" stroke="black" d="M51,-1013.85C51,-1012.37 51,-1000.32 51,-988.1"/>
<polygon fill="black" stroke="black" points="54.5001,-988.025 51,-978.025 47.5001,-988.025 54.5001,-988.025"/>
</g>
<!-- PL7 -->
<g id="node12" class="node"><title>PL7</title>
<ellipse fill="none" stroke="black" cx="48" cy="-851" rx="18" ry="18"/>
<text text-anchor="middle" x="48" y="-847.3" font-family="Times,serif" font-size="14.00">PL7</text>
</g>
<!-- transition6 -->
<g id="node15" class="node"><title>transition6</title>
<polygon fill="none" stroke="black" points="64,-779.5 28,-779.5 28,-778.5 64,-778.5 64,-779.5"/>
<text text-anchor="middle" x="20.5" y="-783.3" font-family="Times,serif" font-size="14.00">b+</text>
</g>
<!-- PL7&#45;&gt;transition6 -->
<g id="edge13" class="edge"><title>PL7&#45;&gt;transition6</title>
<path fill="none" stroke="black" d="M47.5056,-832.697C47.0619,-817.165 46.4378,-795.324 46.1528,-785.348"/>
<polygon fill="none" stroke="black" points="47.8948,-785.04 46.0026,-780.092 44.3962,-785.14 47.8948,-785.04"/>
</g>
<!-- transition5&#45;&gt;PL7 -->
<g id="edge12" class="edge"><title>transition5&#45;&gt;PL7</title>
<path fill="none" stroke="black" d="M50.9914,-904.848C50.9076,-903.368 50.2256,-891.319 49.534,-879.1"/>
<polygon fill="black" stroke="black" points="53.0233,-878.811 48.9637,-869.025 46.0345,-879.207 53.0233,-878.811"/>
</g>
<!-- PL13 -->
<g id="node28" class="node"><title>PL13</title>
<ellipse fill="none" stroke="black" cx="100" cy="-779" rx="18" ry="18"/>
<text text-anchor="middle" x="100" y="-775.3" font-family="Times,serif" font-size="14.00">PL13</text>
</g>
<!-- transition5&#45;&gt;PL13 -->
<g id="edge29" class="edge"><title>transition5&#45;&gt;PL13</title>
<path fill="none" stroke="black" d="M51.0461,-904.946C51.9902,-903.843 67.2186,-885.926 75,-869 84.1907,-849.009 90.7074,-824.905 94.7783,-806.827"/>
<polygon fill="black" stroke="black" points="98.2205,-807.467 96.8942,-796.956 91.3759,-806 98.2205,-807.467"/>
</g>
<!-- PL8 -->
<g id="node14" class="node"><title>PL8</title>
<ellipse fill="none" stroke="black" cx="46" cy="-707" rx="18" ry="18"/>
<text text-anchor="middle" x="46" y="-703.3" font-family="Times,serif" font-size="14.00">PL8</text>
</g>
<!-- transition7 -->
<g id="node17" class="node"><title>transition7</title>
<polygon fill="none" stroke="black" points="64,-635.5 28,-635.5 28,-634.5 64,-634.5 64,-635.5"/>
<text text-anchor="middle" x="22.5" y="-639.3" font-family="Times,serif" font-size="14.00">a&#45;</text>
</g>
<!-- PL8&#45;&gt;transition7 -->
<g id="edge15" class="edge"><title>PL8&#45;&gt;transition7</title>
<path fill="none" stroke="black" d="M46,-688.697C46,-673.165 46,-651.324 46,-641.348"/>
<polygon fill="none" stroke="black" points="47.7501,-641.092 46,-636.092 44.2501,-641.092 47.7501,-641.092"/>
</g>
<!-- transition6&#45;&gt;PL8 -->
<g id="edge14" class="edge"><title>transition6&#45;&gt;PL8</title>
<path fill="none" stroke="black" d="M46,-777.949C46,-776.748 46,-754.429 46,-735.321"/>
<polygon fill="black" stroke="black" points="49.5001,-735.191 46,-725.191 42.5001,-735.191 49.5001,-735.191"/>
</g>
<!-- PL9 -->
<g id="node16" class="node"><title>PL9</title>
<ellipse fill="none" stroke="black" cx="48" cy="-563" rx="18" ry="18"/>
<text text-anchor="middle" x="48" y="-559.3" font-family="Times,serif" font-size="14.00">PL9</text>
</g>
<!-- transition14 -->
<g id="node19" class="node"><title>transition14</title>
<polygon fill="none" stroke="black" points="90,-509 54,-509 54,-508 90,-508 90,-509"/>
<text text-anchor="middle" x="48" y="-512.8" font-family="Times,serif" font-size="14.00">x&#45;</text>
</g>
<!-- PL9&#45;&gt;transition14 -->
<g id="edge17" class="edge"><title>PL9&#45;&gt;transition14</title>
<path fill="none" stroke="black" d="M55.071,-546.385C60.1075,-535.263 66.546,-521.044 69.8426,-513.764"/>
<polygon fill="none" stroke="black" points="71.5031,-514.34 71.9715,-509.063 68.3148,-512.896 71.5031,-514.34"/>
</g>
<!-- transition7&#45;&gt;PL9 -->
<g id="edge16" class="edge"><title>transition7&#45;&gt;PL9</title>
<path fill="none" stroke="black" d="M46.0014,-633.949C46.0358,-632.748 46.6735,-610.429 47.2194,-591.321"/>
<polygon fill="black" stroke="black" points="50.7217,-591.287 47.5088,-581.191 43.7246,-591.087 50.7217,-591.287"/>
</g>
<!-- PL10 -->
<g id="node18" class="node"><title>PL10</title>
<ellipse fill="none" stroke="black" cx="72" cy="-454" rx="18" ry="18"/>
<text text-anchor="middle" x="72" y="-450.3" font-family="Times,serif" font-size="14.00">PL10</text>
</g>
<!-- transition8 -->
<g id="node21" class="node"><title>transition8</title>
<polygon fill="none" stroke="black" points="90,-400 54,-400 54,-399 90,-399 90,-400"/>
<text text-anchor="middle" x="48" y="-403.8" font-family="Times,serif" font-size="14.00">b&#45;</text>
</g>
<!-- PL10&#45;&gt;transition8 -->
<g id="edge19" class="edge"><title>PL10&#45;&gt;transition8</title>
<path fill="none" stroke="black" d="M72,-435.939C72,-425.385 72,-412.534 72,-405.412"/>
<polygon fill="none" stroke="black" points="73.7501,-405.059 72,-400.059 70.2501,-405.059 73.7501,-405.059"/>
</g>
<!-- transition14&#45;&gt;PL10 -->
<g id="edge18" class="edge"><title>transition14&#45;&gt;PL10</title>
<path fill="none" stroke="black" d="M72,-507.848C72,-506.368 72,-494.319 72,-482.1"/>
<polygon fill="black" stroke="black" points="75.5001,-482.025 72,-472.025 68.5001,-482.025 75.5001,-482.025"/>
</g>
<!-- PL11 -->
<g id="node20" class="node"><title>PL11</title>
<ellipse fill="none" stroke="black" cx="72" cy="-345" rx="18" ry="18"/>
<text text-anchor="middle" x="72" y="-341.3" font-family="Times,serif" font-size="14.00">PL11</text>
</g>
<!-- transition9 -->
<g id="node23" class="node"><title>transition9</title>
<polygon fill="none" stroke="black" points="90,-291 54,-291 54,-290 90,-290 90,-291"/>
<text text-anchor="middle" x="46.5" y="-294.8" font-family="Times,serif" font-size="14.00">a+</text>
</g>
<!-- PL11&#45;&gt;transition9 -->
<g id="edge21" class="edge"><title>PL11&#45;&gt;transition9</title>
<path fill="none" stroke="black" d="M72,-326.939C72,-316.385 72,-303.534 72,-296.412"/>
<polygon fill="none" stroke="black" points="73.7501,-296.059 72,-291.059 70.2501,-296.059 73.7501,-296.059"/>
</g>
<!-- transition8&#45;&gt;PL11 -->
<g id="edge20" class="edge"><title>transition8&#45;&gt;PL11</title>
<path fill="none" stroke="black" d="M72,-398.848C72,-397.368 72,-385.319 72,-373.1"/>
<polygon fill="black" stroke="black" points="75.5001,-373.025 72,-363.025 68.5001,-373.025 75.5001,-373.025"/>
</g>
<!-- PL12 -->
<g id="node22" class="node"><title>PL12</title>
<ellipse fill="none" stroke="black" cx="72" cy="-236" rx="18" ry="18"/>
<text text-anchor="middle" x="72" y="-232.3" font-family="Times,serif" font-size="14.00">PL12</text>
</g>
<!-- transition10 -->
<g id="node24" class="node"><title>transition10</title>
<polygon fill="none" stroke="black" points="90,-182 54,-182 54,-181 90,-181 90,-182"/>
<text text-anchor="middle" x="46.5" y="-185.8" font-family="Times,serif" font-size="14.00">c+</text>
</g>
<!-- PL12&#45;&gt;transition10 -->
<g id="edge23" class="edge"><title>PL12&#45;&gt;transition10</title>
<path fill="none" stroke="black" d="M72,-217.939C72,-207.385 72,-194.534 72,-187.412"/>
<polygon fill="none" stroke="black" points="73.7501,-187.059 72,-182.059 70.2501,-187.059 73.7501,-187.059"/>
</g>
<!-- transition9&#45;&gt;PL12 -->
<g id="edge22" class="edge"><title>transition9&#45;&gt;PL12</title>
<path fill="none" stroke="black" d="M72,-289.848C72,-288.368 72,-276.319 72,-264.1"/>
<polygon fill="black" stroke="black" points="75.5001,-264.025 72,-254.025 68.5001,-264.025 75.5001,-264.025"/>
</g>
<!-- transition10&#45;&gt;PL1 -->
<g id="edge24" class="edge"><title>transition10&#45;&gt;PL1</title>
<path fill="none" stroke="black" d="M72.0536,-182.036C74.2944,-183.559 146,-232.723 146,-290 146,-1397 146,-1397 146,-1397 146,-1425.98 135.671,-1457.79 127.135,-1479.13"/>
<polygon fill="black" stroke="black" points="123.876,-1477.85 123.262,-1488.43 130.338,-1480.55 123.876,-1477.85"/>
</g>
<!-- PL15 -->
<g id="node25" class="node"><title>PL15</title>
<ellipse fill="none" stroke="black" cx="47" cy="-127" rx="18" ry="18"/>
<text text-anchor="middle" x="47" y="-123.3" font-family="Times,serif" font-size="14.00">PL15</text>
</g>
<!-- transition10&#45;&gt;PL15 -->
<g id="edge25" class="edge"><title>transition10&#45;&gt;PL15</title>
<path fill="none" stroke="black" d="M71.9283,-180.848C71.1862,-179.275 64.8108,-165.759 58.6939,-152.791"/>
<polygon fill="black" stroke="black" points="61.8016,-151.175 54.3698,-143.624 55.4706,-154.162 61.8016,-151.175"/>
</g>
<!-- transition11 -->
<g id="node27" class="node"><title>transition11</title>
<polygon fill="none" stroke="black" points="64,-73 28,-73 28,-72 64,-72 64,-73"/>
<text text-anchor="middle" x="20.5" y="-76.8" font-family="Times,serif" font-size="14.00">d+</text>
</g>
<!-- PL15&#45;&gt;transition11 -->
<g id="edge26" class="edge"><title>PL15&#45;&gt;transition11</title>
<path fill="none" stroke="black" d="M46.6781,-108.939C46.479,-98.3852 46.2365,-85.5344 46.1021,-78.4124"/>
<polygon fill="none" stroke="black" points="47.8452,-78.0252 46.0011,-73.0591 44.3458,-78.0913 47.8452,-78.0252"/>
</g>
<!-- PL16 -->
<g id="node26" class="node"><title>PL16</title>
<ellipse fill="none" stroke="black" cx="23" cy="-18" rx="18" ry="18"/>
<text text-anchor="middle" x="23" y="-14.3" font-family="Times,serif" font-size="14.00">PL16</text>
</g>
<!-- PL16&#45;&gt;transition12 -->
<g id="edge28" class="edge"><title>PL16&#45;&gt;transition12</title>
<path fill="none" stroke="black" d="M17.3146,-35.0834C10.5036,-55.8203 0,-93.1288 0,-126 0,-1124 0,-1124 0,-1124 1.77636e-15,-1157.73 8.34524,-1166.12 24,-1196 30.6035,-1208.6 41.4766,-1221.49 47.2021,-1227.89"/>
<polygon fill="none" stroke="black" points="46.2724,-1229.46 50.9489,-1231.95 48.8451,-1227.09 46.2724,-1229.46"/>
</g>
<!-- transition11&#45;&gt;PL16 -->
<g id="edge27" class="edge"><title>transition11&#45;&gt;PL16</title>
<path fill="none" stroke="black" d="M45.934,-71.848C45.2621,-70.2997 39.5707,-57.1847 34.0263,-44.4085"/>
<polygon fill="black" stroke="black" points="37.0925,-42.6819 29.9008,-34.9017 30.671,-45.4686 37.0925,-42.6819"/>
</g>
<!-- transition13 -->
<g id="node30" class="node"><title>transition13</title>
<polygon fill="none" stroke="black" points="118,-707.5 82,-707.5 82,-706.5 118,-706.5 118,-707.5"/>
<text text-anchor="middle" x="76" y="-711.3" font-family="Times,serif" font-size="14.00">d&#45;</text>
</g>
<!-- PL13&#45;&gt;transition13 -->
<g id="edge30" class="edge"><title>PL13&#45;&gt;transition13</title>
<path fill="none" stroke="black" d="M100,-760.697C100,-745.165 100,-723.324 100,-713.348"/>
<polygon fill="none" stroke="black" points="101.75,-713.092 100,-708.092 98.2501,-713.092 101.75,-713.092"/>
</g>
<!-- PL14 -->
<g id="node29" class="node"><title>PL14</title>
<ellipse fill="none" stroke="black" cx="100" cy="-635" rx="18" ry="18"/>
<text text-anchor="middle" x="100" y="-631.3" font-family="Times,serif" font-size="14.00">PL14</text>
</g>
<!-- PL14&#45;&gt;transition14 -->
<g id="edge32" class="edge"><title>PL14&#45;&gt;transition14</title>
<path fill="none" stroke="black" d="M96.2238,-617.142C89.8172,-588.541 77.1299,-531.901 73.1933,-514.327"/>
<polygon fill="none" stroke="black" points="74.8127,-513.55 72.012,-509.054 71.3974,-514.315 74.8127,-513.55"/>
</g>
<!-- transition13&#45;&gt;PL14 -->
<g id="edge31" class="edge"><title>transition13&#45;&gt;PL14</title>
<path fill="none" stroke="black" d="M100,-705.949C100,-704.748 100,-682.429 100,-663.321"/>
<polygon fill="black" stroke="black" points="103.5,-663.191 100,-653.191 96.5001,-663.191 103.5,-663.191"/>
</g>
</g>
</svg>
