<?xml version="1.0" encoding="UTF-8" standalone="no"?>
<!DOCTYPE svg PUBLIC "-//W3C//DTD SVG 1.1//EN"
 "http://www.w3.org/Graphics/SVG/1.1/DTD/svg11.dtd">
<!-- Generated by graphviz version 2.38.0 (20140413.2041)
 -->
<!-- Title: %3 Pages: 1 -->
<svg width="154pt" height="1496pt"
 viewBox="0.00 0.00 154.00 1496.00" xmlns="http://www.w3.org/2000/svg" xmlns:xlink="http://www.w3.org/1999/xlink">
<g id="graph0" class="graph" transform="scale(1 1) rotate(0) translate(4 1492)">
<title>%3</title>
<polygon fill="white" stroke="none" points="-4,4 -4,-1492 150,-1492 150,4 -4,4"/>
<!-- PL1 -->
<g id="node1" class="node"><title>PL1</title>
<ellipse fill="none" stroke="black" cx="120" cy="-1470" rx="18" ry="18"/>
<text text-anchor="middle" x="120" y="-1466.3" font-family="Times,serif" font-size="14.00">PL1</text>
</g>
<!-- transition1 -->
<g id="node3" class="node"><title>transition1</title>
<polygon fill="none" stroke="black" points="112,-1416 76,-1416 76,-1415 112,-1415 112,-1416"/>
<text text-anchor="middle" x="68.5" y="-1419.8" font-family="Times,serif" font-size="14.00">b+</text>
</g>
<!-- PL1&#45;&gt;transition1 -->
<g id="edge1" class="edge"><title>PL1&#45;&gt;transition1</title>
<path fill="none" stroke="black" d="M112.34,-1453.38C106.884,-1442.26 99.9085,-1428.04 96.3372,-1420.76"/>
<polygon fill="none" stroke="black" points="97.8042,-1419.78 94.0308,-1416.06 94.6619,-1421.32 97.8042,-1419.78"/>
</g>
<!-- PL3 -->
<g id="node2" class="node"><title>PL3</title>
<ellipse fill="none" stroke="black" cx="87" cy="-1361" rx="18" ry="18"/>
<text text-anchor="middle" x="87" y="-1357.3" font-family="Times,serif" font-size="14.00">PL3</text>
</g>
<!-- transition2 -->
<g id="node5" class="node"><title>transition2</title>
<polygon fill="none" stroke="black" points="98,-1307 62,-1307 62,-1306 98,-1306 98,-1307"/>
<text text-anchor="middle" x="56.5" y="-1310.8" font-family="Times,serif" font-size="14.00">a&#45;</text>
</g>
<!-- PL3&#45;&gt;transition2 -->
<g id="edge3" class="edge"><title>PL3&#45;&gt;transition2</title>
<path fill="none" stroke="black" d="M84.7466,-1342.94C83.3528,-1332.39 81.6555,-1319.53 80.7148,-1312.41"/>
<polygon fill="none" stroke="black" points="82.3975,-1311.79 80.0078,-1307.06 78.9276,-1312.25 82.3975,-1311.79"/>
</g>
<!-- transition1&#45;&gt;PL3 -->
<g id="edge2" class="edge"><title>transition1&#45;&gt;PL3</title>
<path fill="none" stroke="black" d="M93.9799,-1414.85C93.7845,-1413.37 92.1931,-1401.32 90.5793,-1389.1"/>
<polygon fill="black" stroke="black" points="94.0279,-1388.48 89.2486,-1379.02 87.0882,-1389.4 94.0279,-1388.48"/>
</g>
<!-- PL4 -->
<g id="node4" class="node"><title>PL4</title>
<ellipse fill="none" stroke="black" cx="76" cy="-1252" rx="18" ry="18"/>
<text text-anchor="middle" x="76" y="-1248.3" font-family="Times,serif" font-size="14.00">PL4</text>
</g>
<!-- transition12 -->
<g id="node7" class="node"><title>transition12</title>
<polygon fill="none" stroke="black" points="91,-1198 55,-1198 55,-1197 91,-1197 91,-1198"/>
<text text-anchor="middle" x="47.5" y="-1201.8" font-family="Times,serif" font-size="14.00">x+</text>
</g>
<!-- PL4&#45;&gt;transition12 -->
<g id="edge5" class="edge"><title>PL4&#45;&gt;transition12</title>
<path fill="none" stroke="black" d="M75.0343,-1233.94C74.4369,-1223.39 73.7095,-1210.53 73.3064,-1203.41"/>
<polygon fill="none" stroke="black" points="75.0332,-1202.95 73.0033,-1198.06 71.5388,-1203.15 75.0332,-1202.95"/>
</g>
<!-- transition2&#45;&gt;PL4 -->
<g id="edge4" class="edge"><title>transition2&#45;&gt;PL4</title>
<path fill="none" stroke="black" d="M79.9885,-1305.85C79.8768,-1304.37 78.9675,-1292.32 78.0453,-1280.1"/>
<polygon fill="black" stroke="black" points="81.5276,-1279.73 77.2849,-1270.02 74.5475,-1280.26 81.5276,-1279.73"/>
</g>
<!-- PL5 -->
<g id="node6" class="node"><title>PL5</title>
<ellipse fill="none" stroke="black" cx="73" cy="-1143" rx="18" ry="18"/>
<text text-anchor="middle" x="73" y="-1139.3" font-family="Times,serif" font-size="14.00">PL5</text>
</g>
<!-- transition3 -->
<g id="node9" class="node"><title>transition3</title>
<polygon fill="none" stroke="black" points="91,-1089 55,-1089 55,-1088 91,-1088 91,-1089"/>
<text text-anchor="middle" x="49" y="-1092.8" font-family="Times,serif" font-size="14.00">b&#45;</text>
</g>
<!-- PL5&#45;&gt;transition3 -->
<g id="edge7" class="edge"><title>PL5&#45;&gt;transition3</title>
<path fill="none" stroke="black" d="M73,-1124.94C73,-1114.39 73,-1101.53 73,-1094.41"/>
<polygon fill="none" stroke="black" points="74.7501,-1094.06 73,-1089.06 71.2501,-1094.06 74.7501,-1094.06"/>
</g>
<!-- transition12&#45;&gt;PL5 -->
<g id="edge6" class="edge"><title>transition12&#45;&gt;PL5</title>
<path fill="none" stroke="black" d="M73,-1196.85C73,-1195.37 73,-1183.32 73,-1171.1"/>
<polygon fill="black" stroke="black" points="76.5001,-1171.02 73,-1161.02 69.5001,-1171.02 76.5001,-1171.02"/>
</g>
<!-- PL6 -->
<g id="node8" class="node"><title>PL6</title>
<ellipse fill="none" stroke="black" cx="73" cy="-1034" rx="18" ry="18"/>
<text text-anchor="middle" x="73" y="-1030.3" font-family="Times,serif" font-size="14.00">PL6</text>
</g>
<!-- transition4 -->
<g id="node11" class="node"><title>transition4</title>
<polygon fill="none" stroke="black" points="91,-980 55,-980 55,-979 91,-979 91,-980"/>
<text text-anchor="middle" x="47.5" y="-983.8" font-family="Times,serif" font-size="14.00">a+</text>
</g>
<!-- PL6&#45;&gt;transition4 -->
<g id="edge9" class="edge"><title>PL6&#45;&gt;transition4</title>
<path fill="none" stroke="black" d="M73,-1015.94C73,-1005.39 73,-992.534 73,-985.412"/>
<polygon fill="none" stroke="black" points="74.7501,-985.059 73,-980.059 71.2501,-985.059 74.7501,-985.059"/>
</g>
<!-- transition3&#45;&gt;PL6 -->
<g id="edge8" class="edge"><title>transition3&#45;&gt;PL6</title>
<path fill="none" stroke="black" d="M73,-1087.85C73,-1086.37 73,-1074.32 73,-1062.1"/>
<polygon fill="black" stroke="black" points="76.5001,-1062.02 73,-1052.02 69.5001,-1062.02 76.5001,-1062.02"/>
</g>
<!-- PL7 -->
<g id="node10" class="node"><title>PL7</title>
<ellipse fill="none" stroke="black" cx="73" cy="-925" rx="18" ry="18"/>
<text text-anchor="middle" x="73" y="-921.3" font-family="Times,serif" font-size="14.00">PL7</text>
</g>
<!-- transition5 -->
<g id="node13" class="node"><title>transition5</title>
<polygon fill="none" stroke="black" points="91,-871 55,-871 55,-870 91,-870 91,-871"/>
<text text-anchor="middle" x="49.5" y="-874.8" font-family="Times,serif" font-size="14.00">c&#45;</text>
</g>
<!-- PL7&#45;&gt;transition5 -->
<g id="edge11" class="edge"><title>PL7&#45;&gt;transition5</title>
<path fill="none" stroke="black" d="M73,-906.939C73,-896.385 73,-883.534 73,-876.412"/>
<polygon fill="none" stroke="black" points="74.7501,-876.059 73,-871.059 71.2501,-876.059 74.7501,-876.059"/>
</g>
<!-- transition4&#45;&gt;PL7 -->
<g id="edge10" class="edge"><title>transition4&#45;&gt;PL7</title>
<path fill="none" stroke="black" d="M73,-978.848C73,-977.368 73,-965.319 73,-953.1"/>
<polygon fill="black" stroke="black" points="76.5001,-953.025 73,-943.025 69.5001,-953.025 76.5001,-953.025"/>
</g>
<!-- PL14 -->
<g id="node12" class="node"><title>PL14</title>
<ellipse fill="none" stroke="black" cx="46" cy="-816" rx="18" ry="18"/>
<text text-anchor="middle" x="46" y="-812.3" font-family="Times,serif" font-size="14.00">PL14</text>
</g>
<!-- transition13 -->
<g id="node15" class="node"><title>transition13</title>
<polygon fill="none" stroke="black" points="64,-762 28,-762 28,-761 64,-761 64,-762"/>
<text text-anchor="middle" x="22" y="-765.8" font-family="Times,serif" font-size="14.00">d&#45;</text>
</g>
<!-- PL14&#45;&gt;transition13 -->
<g id="edge13" class="edge"><title>PL14&#45;&gt;transition13</title>
<path fill="none" stroke="black" d="M46,-797.939C46,-787.385 46,-774.534 46,-767.412"/>
<polygon fill="none" stroke="black" points="47.7501,-767.059 46,-762.059 44.2501,-767.059 47.7501,-767.059"/>
</g>
<!-- transition5&#45;&gt;PL14 -->
<g id="edge12" class="edge"><title>transition5&#45;&gt;PL14</title>
<path fill="none" stroke="black" d="M72.9225,-869.848C72.1161,-868.265 65.1499,-854.591 58.5064,-841.55"/>
<polygon fill="black" stroke="black" points="61.4765,-839.669 53.8186,-832.348 55.2393,-842.847 61.4765,-839.669"/>
</g>
<!-- PL8 -->
<g id="node26" class="node"><title>PL8</title>
<ellipse fill="none" stroke="black" cx="100" cy="-816" rx="18" ry="18"/>
<text text-anchor="middle" x="100" y="-812.3" font-family="Times,serif" font-size="14.00">PL8</text>
</g>
<!-- transition5&#45;&gt;PL8 -->
<g id="edge27" class="edge"><title>transition5&#45;&gt;PL8</title>
<path fill="none" stroke="black" d="M73.0775,-869.848C73.8839,-868.265 80.8501,-854.591 87.4936,-841.55"/>
<polygon fill="black" stroke="black" points="90.7607,-842.847 92.1814,-832.348 84.5235,-839.669 90.7607,-842.847"/>
</g>
<!-- PL15 -->
<g id="node14" class="node"><title>PL15</title>
<ellipse fill="none" stroke="black" cx="46" cy="-635" rx="18" ry="18"/>
<text text-anchor="middle" x="46" y="-631.3" font-family="Times,serif" font-size="14.00">PL15</text>
</g>
<!-- transition14 -->
<g id="node17" class="node"><title>transition14</title>
<polygon fill="none" stroke="black" points="90,-509 54,-509 54,-508 90,-508 90,-509"/>
<text text-anchor="middle" x="48" y="-512.8" font-family="Times,serif" font-size="14.00">x&#45;</text>
</g>
<!-- PL15&#45;&gt;transition14 -->
<g id="edge15" class="edge"><title>PL15&#45;&gt;transition14</title>
<path fill="none" stroke="black" d="M49.5065,-617.142C55.4555,-588.541 67.2365,-531.901 70.8919,-514.327"/>
<polygon fill="none" stroke="black" points="72.6839,-514.305 71.9888,-509.054 69.2572,-513.593 72.6839,-514.305"/>
</g>
<!-- transition13&#45;&gt;PL15 -->
<g id="edge14" class="edge"><title>transition13&#45;&gt;PL15</title>
<path fill="none" stroke="black" d="M46,-760.909C46,-758.29 46,-699.468 46,-663.491"/>
<polygon fill="black" stroke="black" points="49.5001,-663.147 46,-653.147 42.5001,-663.147 49.5001,-663.147"/>
</g>
<!-- PL11 -->
<g id="node16" class="node"><title>PL11</title>
<ellipse fill="none" stroke="black" cx="72" cy="-454" rx="18" ry="18"/>
<text text-anchor="middle" x="72" y="-450.3" font-family="Times,serif" font-size="14.00">PL11</text>
</g>
<!-- transition8 -->
<g id="node19" class="node"><title>transition8</title>
<polygon fill="none" stroke="black" points="90,-400 54,-400 54,-399 90,-399 90,-400"/>
<text text-anchor="middle" x="48" y="-403.8" font-family="Times,serif" font-size="14.00">b&#45;</text>
</g>
<!-- PL11&#45;&gt;transition8 -->
<g id="edge17" class="edge"><title>PL11&#45;&gt;transition8</title>
<path fill="none" stroke="black" d="M72,-435.939C72,-425.385 72,-412.534 72,-405.412"/>
<polygon fill="none" stroke="black" points="73.7501,-405.059 72,-400.059 70.2501,-405.059 73.7501,-405.059"/>
</g>
<!-- transition14&#45;&gt;PL11 -->
<g id="edge16" class="edge"><title>transition14&#45;&gt;PL11</title>
<path fill="none" stroke="black" d="M72,-507.848C72,-506.368 72,-494.319 72,-482.1"/>
<polygon fill="black" stroke="black" points="75.5001,-482.025 72,-472.025 68.5001,-482.025 75.5001,-482.025"/>
</g>
<!-- PL12 -->
<g id="node18" class="node"><title>PL12</title>
<ellipse fill="none" stroke="black" cx="72" cy="-345" rx="18" ry="18"/>
<text text-anchor="middle" x="72" y="-341.3" font-family="Times,serif" font-size="14.00">PL12</text>
</g>
<!-- transition9 -->
<g id="node21" class="node"><title>transition9</title>
<polygon fill="none" stroke="black" points="90,-291 54,-291 54,-290 90,-290 90,-291"/>
<text text-anchor="middle" x="46.5" y="-294.8" font-family="Times,serif" font-size="14.00">a+</text>
</g>
<!-- PL12&#45;&gt;transition9 -->
<g id="edge19" class="edge"><title>PL12&#45;&gt;transition9</title>
<path fill="none" stroke="black" d="M72,-326.939C72,-316.385 72,-303.534 72,-296.412"/>
<polygon fill="none" stroke="black" points="73.7501,-296.059 72,-291.059 70.2501,-296.059 73.7501,-296.059"/>
</g>
<!-- transition8&#45;&gt;PL12 -->
<g id="edge18" class="edge"><title>transition8&#45;&gt;PL12</title>
<path fill="none" stroke="black" d="M72,-398.848C72,-397.368 72,-385.319 72,-373.1"/>
<polygon fill="black" stroke="black" points="75.5001,-373.025 72,-363.025 68.5001,-373.025 75.5001,-373.025"/>
</g>
<!-- PL13 -->
<g id="node20" class="node"><title>PL13</title>
<ellipse fill="none" stroke="black" cx="72" cy="-236" rx="18" ry="18"/>
<text text-anchor="middle" x="72" y="-232.3" font-family="Times,serif" font-size="14.00">PL13</text>
</g>
<!-- transition10 -->
<g id="node22" class="node"><title>transition10</title>
<polygon fill="none" stroke="black" points="90,-182 54,-182 54,-181 90,-181 90,-182"/>
<text text-anchor="middle" x="46.5" y="-185.8" font-family="Times,serif" font-size="14.00">c+</text>
</g>
<!-- PL13&#45;&gt;transition10 -->
<g id="edge21" class="edge"><title>PL13&#45;&gt;transition10</title>
<path fill="none" stroke="black" d="M72,-217.939C72,-207.385 72,-194.534 72,-187.412"/>
<polygon fill="none" stroke="black" points="73.7501,-187.059 72,-182.059 70.2501,-187.059 73.7501,-187.059"/>
</g>
<!-- transition9&#45;&gt;PL13 -->
<g id="edge20" class="edge"><title>transition9&#45;&gt;PL13</title>
<path fill="none" stroke="black" d="M72,-289.848C72,-288.368 72,-276.319 72,-264.1"/>
<polygon fill="black" stroke="black" points="75.5001,-264.025 72,-254.025 68.5001,-264.025 75.5001,-264.025"/>
</g>
<!-- transition10&#45;&gt;PL1 -->
<g id="edge22" class="edge"><title>transition10&#45;&gt;PL1</title>
<path fill="none" stroke="black" d="M72.0536,-182.036C74.2944,-183.559 146,-232.723 146,-290 146,-1362 146,-1362 146,-1362 146,-1390.42 137.231,-1421.92 129.878,-1443.33"/>
<polygon fill="black" stroke="black" points="126.501,-1442.39 126.427,-1452.98 133.091,-1444.74 126.501,-1442.39"/>
</g>
<!-- PL2 -->
<g id="node23" class="node"><title>PL2</title>
<ellipse fill="none" stroke="black" cx="59" cy="-127" rx="18" ry="18"/>
<text text-anchor="middle" x="59" y="-123.3" font-family="Times,serif" font-size="14.00">PL2</text>
</g>
<!-- transition10&#45;&gt;PL2 -->
<g id="edge23" class="edge"><title>transition10&#45;&gt;PL2</title>
<path fill="none" stroke="black" d="M71.9627,-180.848C71.5937,-179.344 68.5463,-166.919 65.4991,-154.496"/>
<polygon fill="black" stroke="black" points="68.8881,-153.621 63.1066,-144.742 62.0896,-155.288 68.8881,-153.621"/>
</g>
<!-- transition11 -->
<g id="node25" class="node"><title>transition11</title>
<polygon fill="none" stroke="black" points="70,-73 34,-73 34,-72 70,-72 70,-73"/>
<text text-anchor="middle" x="26.5" y="-76.8" font-family="Times,serif" font-size="14.00">d+</text>
</g>
<!-- PL2&#45;&gt;transition11 -->
<g id="edge24" class="edge"><title>PL2&#45;&gt;transition11</title>
<path fill="none" stroke="black" d="M56.7466,-108.939C55.3528,-98.3852 53.6555,-85.5344 52.7148,-78.4124"/>
<polygon fill="none" stroke="black" points="54.3975,-77.7869 52.0078,-73.0591 50.9276,-78.2452 54.3975,-77.7869"/>
</g>
<!-- PL16 -->
<g id="node24" class="node"><title>PL16</title>
<ellipse fill="none" stroke="black" cx="26" cy="-18" rx="18" ry="18"/>
<text text-anchor="middle" x="26" y="-14.3" font-family="Times,serif" font-size="14.00">PL16</text>
</g>
<!-- PL16&#45;&gt;transition12 -->
<g id="edge26" class="edge"><title>PL16&#45;&gt;transition12</title>
<path fill="none" stroke="black" d="M19.573,-35.02C11.8737,-55.6899 3.55271e-15,-92.9277 0,-126 0,-1089 0,-1089 0,-1089 0,-1138.46 53.1949,-1182.18 68.7664,-1193.91"/>
<polygon fill="none" stroke="black" points="67.876,-1195.43 72.9471,-1196.96 69.9382,-1192.6 67.876,-1195.43"/>
</g>
<!-- transition11&#45;&gt;PL16 -->
<g id="edge25" class="edge"><title>transition11&#45;&gt;PL16</title>
<path fill="none" stroke="black" d="M51.9254,-71.848C51.1536,-70.2747 44.5233,-56.759 38.1617,-43.7912"/>
<polygon fill="black" stroke="black" points="41.2112,-42.0604 33.6646,-34.624 34.9267,-45.1434 41.2112,-42.0604"/>
</g>
<!-- transition6 -->
<g id="node28" class="node"><title>transition6</title>
<polygon fill="none" stroke="black" points="118,-762 82,-762 82,-761 118,-761 118,-762"/>
<text text-anchor="middle" x="74.5" y="-765.8" font-family="Times,serif" font-size="14.00">b+</text>
</g>
<!-- PL8&#45;&gt;transition6 -->
<g id="edge28" class="edge"><title>PL8&#45;&gt;transition6</title>
<path fill="none" stroke="black" d="M100,-797.939C100,-787.385 100,-774.534 100,-767.412"/>
<polygon fill="none" stroke="black" points="101.75,-767.059 100,-762.059 98.2501,-767.059 101.75,-767.059"/>
</g>
<!-- PL9 -->
<g id="node27" class="node"><title>PL9</title>
<ellipse fill="none" stroke="black" cx="100" cy="-707" rx="18" ry="18"/>
<text text-anchor="middle" x="100" y="-703.3" font-family="Times,serif" font-size="14.00">PL9</text>
</g>
<!-- transition7 -->
<g id="node30" class="node"><title>transition7</title>
<polygon fill="none" stroke="black" points="118,-635.5 82,-635.5 82,-634.5 118,-634.5 118,-635.5"/>
<text text-anchor="middle" x="76.5" y="-639.3" font-family="Times,serif" font-size="14.00">a&#45;</text>
</g>
<!-- PL9&#45;&gt;transition7 -->
<g id="edge30" class="edge"><title>PL9&#45;&gt;transition7</title>
<path fill="none" stroke="black" d="M100,-688.697C100,-673.165 100,-651.324 100,-641.348"/>
<polygon fill="none" stroke="black" points="101.75,-641.092 100,-636.092 98.2501,-641.092 101.75,-641.092"/>
</g>
<!-- transition6&#45;&gt;PL9 -->
<g id="edge29" class="edge"><title>transition6&#45;&gt;PL9</title>
<path fill="none" stroke="black" d="M100,-760.848C100,-759.368 100,-747.319 100,-735.1"/>
<polygon fill="black" stroke="black" points="103.5,-735.025 100,-725.025 96.5001,-735.025 103.5,-735.025"/>
</g>
<!-- PL10 -->
<g id="node29" class="node"><title>PL10</title>
<ellipse fill="none" stroke="black" cx="96" cy="-563" rx="18" ry="18"/>
<text text-anchor="middle" x="96" y="-559.3" font-family="Times,serif" font-size="14.00">PL10</text>
</g>
<!-- PL10&#45;&gt;transition14 -->
<g id="edge32" class="edge"><title>PL10&#45;&gt;transition14</title>
<path fill="none" stroke="black" d="M88.929,-546.385C83.8925,-535.263 77.454,-521.044 74.1574,-513.764"/>
<polygon fill="none" stroke="black" points="75.6852,-512.896 72.0285,-509.063 72.4969,-514.34 75.6852,-512.896"/>
</g>
<!-- transition7&#45;&gt;PL10 -->
<g id="edge31" class="edge"><title>transition7&#45;&gt;PL10</title>
<path fill="none" stroke="black" d="M99.9971,-633.949C99.9284,-632.748 98.6531,-610.429 97.5612,-591.321"/>
<polygon fill="black" stroke="black" points="101.047,-590.975 96.9824,-581.191 94.0586,-591.375 101.047,-590.975"/>
</g>
</g>
</svg>
