<?xml version="1.0" encoding="UTF-8" standalone="no"?>
<!DOCTYPE svg PUBLIC "-//W3C//DTD SVG 1.1//EN"
 "http://www.w3.org/Graphics/SVG/1.1/DTD/svg11.dtd">
<!-- Generated by graphviz version 2.38.0 (20140413.2041)
 -->
<!-- Title: %3 Pages: 1 -->
<svg width="87pt" height="844pt"
 viewBox="0.00 0.00 87.00 844.00" xmlns="http://www.w3.org/2000/svg" xmlns:xlink="http://www.w3.org/1999/xlink">
<g id="graph0" class="graph" transform="scale(1 1) rotate(0) translate(4 840)">
<title>%3</title>
<polygon fill="white" stroke="none" points="-4,4 -4,-840 83,-840 83,4 -4,4"/>
<!-- PL1 -->
<g id="node1" class="node"><title>PL1</title>
<ellipse fill="none" stroke="black" cx="56" cy="-818" rx="18" ry="18"/>
<text text-anchor="middle" x="56" y="-814.3" font-family="Times,serif" font-size="14.00">PL1</text>
</g>
<!-- transition1 -->
<g id="node3" class="node"><title>transition1</title>
<polygon fill="none" stroke="black" points="51,-764 15,-764 15,-763 51,-763 51,-764"/>
<text text-anchor="middle" x="7.5" y="-767.8" font-family="Times,serif" font-size="14.00">b+</text>
</g>
<!-- PL1&#45;&gt;transition1 -->
<g id="edge1" class="edge"><title>PL1&#45;&gt;transition1</title>
<path fill="none" stroke="black" d="M49.0992,-801.098C44.2795,-789.992 38.1693,-775.912 35.0441,-768.71"/>
<polygon fill="none" stroke="black" points="36.6228,-767.952 33.027,-764.062 33.4121,-769.346 36.6228,-767.952"/>
</g>
<!-- PL2 -->
<g id="node2" class="node"><title>PL2</title>
<ellipse fill="none" stroke="black" cx="33" cy="-709" rx="18" ry="18"/>
<text text-anchor="middle" x="33" y="-705.3" font-family="Times,serif" font-size="14.00">PL2</text>
</g>
<!-- transition2 -->
<g id="node5" class="node"><title>transition2</title>
<polygon fill="none" stroke="black" points="51,-655 15,-655 15,-654 51,-654 51,-655"/>
<text text-anchor="middle" x="7.5" y="-658.8" font-family="Times,serif" font-size="14.00">c+</text>
</g>
<!-- PL2&#45;&gt;transition2 -->
<g id="edge3" class="edge"><title>PL2&#45;&gt;transition2</title>
<path fill="none" stroke="black" d="M33,-690.939C33,-680.385 33,-667.534 33,-660.412"/>
<polygon fill="none" stroke="black" points="34.7501,-660.059 33,-655.059 31.2501,-660.059 34.7501,-660.059"/>
</g>
<!-- transition1&#45;&gt;PL2 -->
<g id="edge2" class="edge"><title>transition1&#45;&gt;PL2</title>
<path fill="none" stroke="black" d="M33,-762.848C33,-761.368 33,-749.319 33,-737.1"/>
<polygon fill="black" stroke="black" points="36.5001,-737.025 33,-727.025 29.5001,-737.025 36.5001,-737.025"/>
</g>
<!-- PL3 -->
<g id="node4" class="node"><title>PL3</title>
<ellipse fill="none" stroke="black" cx="33" cy="-600" rx="18" ry="18"/>
<text text-anchor="middle" x="33" y="-596.3" font-family="Times,serif" font-size="14.00">PL3</text>
</g>
<!-- transition3 -->
<g id="node7" class="node"><title>transition3</title>
<polygon fill="none" stroke="black" points="51,-546 15,-546 15,-545 51,-545 51,-546"/>
<text text-anchor="middle" x="9" y="-549.8" font-family="Times,serif" font-size="14.00">b&#45;</text>
</g>
<!-- PL3&#45;&gt;transition3 -->
<g id="edge5" class="edge"><title>PL3&#45;&gt;transition3</title>
<path fill="none" stroke="black" d="M33,-581.939C33,-571.385 33,-558.534 33,-551.412"/>
<polygon fill="none" stroke="black" points="34.7501,-551.059 33,-546.059 31.2501,-551.059 34.7501,-551.059"/>
</g>
<!-- transition2&#45;&gt;PL3 -->
<g id="edge4" class="edge"><title>transition2&#45;&gt;PL3</title>
<path fill="none" stroke="black" d="M33,-653.848C33,-652.368 33,-640.319 33,-628.1"/>
<polygon fill="black" stroke="black" points="36.5001,-628.025 33,-618.025 29.5001,-628.025 36.5001,-628.025"/>
</g>
<!-- PL4 -->
<g id="node6" class="node"><title>PL4</title>
<ellipse fill="none" stroke="black" cx="33" cy="-491" rx="18" ry="18"/>
<text text-anchor="middle" x="33" y="-487.3" font-family="Times,serif" font-size="14.00">PL4</text>
</g>
<!-- transition4 -->
<g id="node9" class="node"><title>transition4</title>
<polygon fill="none" stroke="black" points="51,-437 15,-437 15,-436 51,-436 51,-437"/>
<text text-anchor="middle" x="9.5" y="-440.8" font-family="Times,serif" font-size="14.00">a&#45;</text>
</g>
<!-- PL4&#45;&gt;transition4 -->
<g id="edge7" class="edge"><title>PL4&#45;&gt;transition4</title>
<path fill="none" stroke="black" d="M33,-472.939C33,-462.385 33,-449.534 33,-442.412"/>
<polygon fill="none" stroke="black" points="34.7501,-442.059 33,-437.059 31.2501,-442.059 34.7501,-442.059"/>
</g>
<!-- transition3&#45;&gt;PL4 -->
<g id="edge6" class="edge"><title>transition3&#45;&gt;PL4</title>
<path fill="none" stroke="black" d="M33,-544.848C33,-543.368 33,-531.319 33,-519.1"/>
<polygon fill="black" stroke="black" points="36.5001,-519.025 33,-509.025 29.5001,-519.025 36.5001,-519.025"/>
</g>
<!-- PL5 -->
<g id="node8" class="node"><title>PL5</title>
<ellipse fill="none" stroke="black" cx="33" cy="-382" rx="18" ry="18"/>
<text text-anchor="middle" x="33" y="-378.3" font-family="Times,serif" font-size="14.00">PL5</text>
</g>
<!-- transition5 -->
<g id="node11" class="node"><title>transition5</title>
<polygon fill="none" stroke="black" points="51,-328 15,-328 15,-327 51,-327 51,-328"/>
<text text-anchor="middle" x="7.5" y="-331.8" font-family="Times,serif" font-size="14.00">b+</text>
</g>
<!-- PL5&#45;&gt;transition5 -->
<g id="edge9" class="edge"><title>PL5&#45;&gt;transition5</title>
<path fill="none" stroke="black" d="M33,-363.939C33,-353.385 33,-340.534 33,-333.412"/>
<polygon fill="none" stroke="black" points="34.7501,-333.059 33,-328.059 31.2501,-333.059 34.7501,-333.059"/>
</g>
<!-- transition4&#45;&gt;PL5 -->
<g id="edge8" class="edge"><title>transition4&#45;&gt;PL5</title>
<path fill="none" stroke="black" d="M33,-435.848C33,-434.368 33,-422.319 33,-410.1"/>
<polygon fill="black" stroke="black" points="36.5001,-410.025 33,-400.025 29.5001,-410.025 36.5001,-410.025"/>
</g>
<!-- PL6 -->
<g id="node10" class="node"><title>PL6</title>
<ellipse fill="none" stroke="black" cx="33" cy="-273" rx="18" ry="18"/>
<text text-anchor="middle" x="33" y="-269.3" font-family="Times,serif" font-size="14.00">PL6</text>
</g>
<!-- transition6 -->
<g id="node13" class="node"><title>transition6</title>
<polygon fill="none" stroke="black" points="51,-219 15,-219 15,-218 51,-218 51,-219"/>
<text text-anchor="middle" x="9.5" y="-222.8" font-family="Times,serif" font-size="14.00">c&#45;</text>
</g>
<!-- PL6&#45;&gt;transition6 -->
<g id="edge11" class="edge"><title>PL6&#45;&gt;transition6</title>
<path fill="none" stroke="black" d="M33,-254.939C33,-244.385 33,-231.534 33,-224.412"/>
<polygon fill="none" stroke="black" points="34.7501,-224.059 33,-219.059 31.2501,-224.059 34.7501,-224.059"/>
</g>
<!-- transition5&#45;&gt;PL6 -->
<g id="edge10" class="edge"><title>transition5&#45;&gt;PL6</title>
<path fill="none" stroke="black" d="M33,-326.848C33,-325.368 33,-313.319 33,-301.1"/>
<polygon fill="black" stroke="black" points="36.5001,-301.025 33,-291.025 29.5001,-301.025 36.5001,-301.025"/>
</g>
<!-- PL7 -->
<g id="node12" class="node"><title>PL7</title>
<ellipse fill="none" stroke="black" cx="33" cy="-164" rx="18" ry="18"/>
<text text-anchor="middle" x="33" y="-160.3" font-family="Times,serif" font-size="14.00">PL7</text>
</g>
<!-- transition7 -->
<g id="node15" class="node"><title>transition7</title>
<polygon fill="none" stroke="black" points="51,-110 15,-110 15,-109 51,-109 51,-110"/>
<text text-anchor="middle" x="9" y="-113.8" font-family="Times,serif" font-size="14.00">b&#45;</text>
</g>
<!-- PL7&#45;&gt;transition7 -->
<g id="edge13" class="edge"><title>PL7&#45;&gt;transition7</title>
<path fill="none" stroke="black" d="M33,-145.939C33,-135.385 33,-122.534 33,-115.412"/>
<polygon fill="none" stroke="black" points="34.7501,-115.059 33,-110.059 31.2501,-115.059 34.7501,-115.059"/>
</g>
<!-- transition6&#45;&gt;PL7 -->
<g id="edge12" class="edge"><title>transition6&#45;&gt;PL7</title>
<path fill="none" stroke="black" d="M33,-217.848C33,-216.368 33,-204.319 33,-192.1"/>
<polygon fill="black" stroke="black" points="36.5001,-192.025 33,-182.025 29.5001,-192.025 36.5001,-192.025"/>
</g>
<!-- PL8 -->
<g id="node14" class="node"><title>PL8</title>
<ellipse fill="none" stroke="black" cx="33" cy="-55" rx="18" ry="18"/>
<text text-anchor="middle" x="33" y="-51.3" font-family="Times,serif" font-size="14.00">PL8</text>
</g>
<!-- transition8 -->
<g id="node16" class="node"><title>transition8</title>
<polygon fill="none" stroke="black" points="74,-1 38,-1 38,-0 74,-0 74,-1"/>
<text text-anchor="middle" x="30.5" y="-4.8" font-family="Times,serif" font-size="14.00">a+</text>
</g>
<!-- PL8&#45;&gt;transition8 -->
<g id="edge15" class="edge"><title>PL8&#45;&gt;transition8</title>
<path fill="none" stroke="black" d="M39.9008,-38.0983C44.7205,-26.9918 50.8307,-12.9118 53.9559,-5.7104"/>
<polygon fill="none" stroke="black" points="55.5879,-6.34553 55.973,-1.06211 52.3772,-4.95216 55.5879,-6.34553"/>
</g>
<!-- transition7&#45;&gt;PL8 -->
<g id="edge14" class="edge"><title>transition7&#45;&gt;PL8</title>
<path fill="none" stroke="black" d="M33,-108.848C33,-107.368 33,-95.3194 33,-83.1004"/>
<polygon fill="black" stroke="black" points="36.5001,-83.0247 33,-73.0247 29.5001,-83.0248 36.5001,-83.0247"/>
</g>
<!-- transition8&#45;&gt;PL1 -->
<g id="edge16" class="edge"><title>transition8&#45;&gt;PL1</title>
<path fill="none" stroke="black" d="M56.0167,-1.04289C56.7131,-2.83896 79,-60.6904 79,-109 79,-710 79,-710 79,-710 79,-738.249 71.2428,-769.774 64.7384,-791.244"/>
<polygon fill="black" stroke="black" points="61.3576,-790.327 61.6854,-800.917 68.033,-792.434 61.3576,-790.327"/>
</g>
</g>
</svg>
