<?xml version="1.0" encoding="UTF-8" standalone="no"?>
<!DOCTYPE svg PUBLIC "-//W3C//DTD SVG 1.1//EN"
 "http://www.w3.org/Graphics/SVG/1.1/DTD/svg11.dtd">
<!-- Generated by graphviz version 2.38.0 (20140413.2041)
 -->
<!-- Title: %3 Pages: 1 -->
<svg width="398pt" height="1239pt"
 viewBox="0.00 0.00 398.00 1239.00" xmlns="http://www.w3.org/2000/svg" xmlns:xlink="http://www.w3.org/1999/xlink">
<g id="graph0" class="graph" transform="scale(1 1) rotate(0) translate(4 1235)">
<title>%3</title>
<polygon fill="white" stroke="none" points="-4,4 -4,-1235 394,-1235 394,4 -4,4"/>
<!-- PL1 -->
<g id="node1" class="node"><title>PL1</title>
<ellipse fill="none" stroke="black" cx="273" cy="-1213" rx="18" ry="18"/>
<text text-anchor="middle" x="273" y="-1209.3" font-family="Times,serif" font-size="14.00">PL1</text>
</g>
<!-- transition3 -->
<g id="node3" class="node"><title>transition3</title>
<polygon fill="none" stroke="black" points="148,-1159 112,-1159 112,-1158 148,-1158 148,-1159"/>
<text text-anchor="middle" x="99" y="-1162.8" font-family="Times,serif" font-size="14.00">Ao+</text>
</g>
<!-- PL1&#45;&gt;transition3 -->
<g id="edge1" class="edge"><title>PL1&#45;&gt;transition3</title>
<path fill="none" stroke="black" d="M256.316,-1205.82C223.97,-1193.83 154.219,-1167.98 134.995,-1160.85"/>
<polygon fill="none" stroke="black" points="135.361,-1159.12 130.064,-1159.02 134.145,-1162.4 135.361,-1159.12"/>
</g>
<!-- PL26 -->
<g id="node2" class="node"><title>PL26</title>
<ellipse fill="none" stroke="black" cx="163" cy="-1104" rx="18" ry="18"/>
<text text-anchor="middle" x="163" y="-1100.3" font-family="Times,serif" font-size="14.00">PL26</text>
</g>
<!-- transition16 -->
<g id="node5" class="node"><title>transition16</title>
<polygon fill="none" stroke="black" points="204,-1050 168,-1050 168,-1049 204,-1049 204,-1050"/>
<text text-anchor="middle" x="155.5" y="-1053.8" font-family="Times,serif" font-size="14.00">Rx+</text>
</g>
<!-- PL26&#45;&gt;transition16 -->
<g id="edge3" class="edge"><title>PL26&#45;&gt;transition16</title>
<path fill="none" stroke="black" d="M169.901,-1087.1C174.721,-1075.99 180.831,-1061.91 183.956,-1054.71"/>
<polygon fill="none" stroke="black" points="185.588,-1055.35 185.973,-1050.06 182.377,-1053.95 185.588,-1055.35"/>
</g>
<!-- transition3&#45;&gt;PL26 -->
<g id="edge2" class="edge"><title>transition3&#45;&gt;PL26</title>
<path fill="none" stroke="black" d="M130.095,-1157.85C131.112,-1156.21 140.147,-1141.7 148.493,-1128.3"/>
<polygon fill="black" stroke="black" points="151.471,-1130.14 153.786,-1119.8 145.529,-1126.44 151.471,-1130.14"/>
</g>
<!-- PL2 -->
<g id="node39" class="node"><title>PL2</title>
<ellipse fill="none" stroke="black" cx="98" cy="-1104" rx="18" ry="18"/>
<text text-anchor="middle" x="98" y="-1100.3" font-family="Times,serif" font-size="14.00">PL2</text>
</g>
<!-- transition3&#45;&gt;PL2 -->
<g id="edge47" class="edge"><title>transition3&#45;&gt;PL2</title>
<path fill="none" stroke="black" d="M129.908,-1157.85C128.931,-1156.23 120.326,-1141.98 112.299,-1128.68"/>
<polygon fill="black" stroke="black" points="115.1,-1126.55 106.935,-1119.8 109.108,-1130.17 115.1,-1126.55"/>
</g>
<!-- PL12 -->
<g id="node4" class="node"><title>PL12</title>
<ellipse fill="none" stroke="black" cx="138" cy="-995" rx="18" ry="18"/>
<text text-anchor="middle" x="138" y="-991.3" font-family="Times,serif" font-size="14.00">PL12</text>
</g>
<!-- transition11 -->
<g id="node7" class="node"><title>transition11</title>
<polygon fill="none" stroke="black" points="140,-923.5 104,-923.5 104,-922.5 140,-922.5 140,-923.5"/>
<text text-anchor="middle" x="88" y="-927.3" font-family="Times,serif" font-size="14.00">R1o+</text>
</g>
<!-- PL12&#45;&gt;transition11 -->
<g id="edge5" class="edge"><title>PL12&#45;&gt;transition11</title>
<path fill="none" stroke="black" d="M134.127,-977.055C130.543,-961.376 125.438,-939.04 123.167,-929.104"/>
<polygon fill="none" stroke="black" points="124.842,-928.578 122.021,-924.093 121.43,-929.358 124.842,-928.578"/>
</g>
<!-- transition16&#45;&gt;PL12 -->
<g id="edge4" class="edge"><title>transition16&#45;&gt;PL12</title>
<path fill="none" stroke="black" d="M185.862,-1048.85C184.276,-1047.1 169.274,-1030.53 156.483,-1016.41"/>
<polygon fill="black" stroke="black" points="159.011,-1013.99 149.704,-1008.92 153.822,-1018.68 159.011,-1013.99"/>
</g>
<!-- PL15 -->
<g id="node25" class="node"><title>PL15</title>
<ellipse fill="none" stroke="black" cx="318" cy="-742" rx="18" ry="18"/>
<text text-anchor="middle" x="318" y="-738.3" font-family="Times,serif" font-size="14.00">PL15</text>
</g>
<!-- transition16&#45;&gt;PL15 -->
<g id="edge26" class="edge"><title>transition16&#45;&gt;PL15</title>
<path fill="none" stroke="black" d="M186.081,-1048.96C189.473,-1047.42 298,-997.428 298,-924 298,-924 298,-924 298,-850 298,-822.066 304.668,-790.718 310.303,-769.211"/>
<polygon fill="black" stroke="black" points="313.697,-770.07 312.953,-759.502 306.944,-768.227 313.697,-770.07"/>
</g>
<!-- PL10 -->
<g id="node26" class="node"><title>PL10</title>
<ellipse fill="none" stroke="black" cx="245" cy="-923" rx="18" ry="18"/>
<text text-anchor="middle" x="245" y="-919.3" font-family="Times,serif" font-size="14.00">PL10</text>
</g>
<!-- transition16&#45;&gt;PL10 -->
<g id="edge28" class="edge"><title>transition16&#45;&gt;PL10</title>
<path fill="none" stroke="black" d="M186.064,-1048.95C187.385,-1047.93 208.679,-1031.32 219,-1013 229.899,-993.656 236.601,-969.321 240.465,-950.988"/>
<polygon fill="black" stroke="black" points="243.939,-951.456 242.422,-940.971 237.069,-950.114 243.939,-951.456"/>
</g>
<!-- PL9 -->
<g id="node27" class="node"><title>PL9</title>
<ellipse fill="none" stroke="black" cx="192" cy="-995" rx="18" ry="18"/>
<text text-anchor="middle" x="192" y="-991.3" font-family="Times,serif" font-size="14.00">PL9</text>
</g>
<!-- transition16&#45;&gt;PL9 -->
<g id="edge30" class="edge"><title>transition16&#45;&gt;PL9</title>
<path fill="none" stroke="black" d="M186.017,-1048.85C186.185,-1047.37 187.549,-1035.32 188.932,-1023.1"/>
<polygon fill="black" stroke="black" points="192.425,-1023.36 190.073,-1013.02 185.47,-1022.57 192.425,-1023.36"/>
</g>
<!-- PL13 -->
<g id="node6" class="node"><title>PL13</title>
<ellipse fill="none" stroke="black" cx="122" cy="-851" rx="18" ry="18"/>
<text text-anchor="middle" x="122" y="-847.3" font-family="Times,serif" font-size="14.00">PL13</text>
</g>
<!-- transition6 -->
<g id="node9" class="node"><title>transition6</title>
<polygon fill="none" stroke="black" points="140,-797 104,-797 104,-796 140,-796 140,-797"/>
<text text-anchor="middle" x="89.5" y="-800.8" font-family="Times,serif" font-size="14.00">A1i+</text>
</g>
<!-- PL13&#45;&gt;transition6 -->
<g id="edge7" class="edge"><title>PL13&#45;&gt;transition6</title>
<path fill="none" stroke="black" d="M122,-832.939C122,-822.385 122,-809.534 122,-802.412"/>
<polygon fill="none" stroke="black" points="123.75,-802.059 122,-797.059 120.25,-802.059 123.75,-802.059"/>
</g>
<!-- transition11&#45;&gt;PL13 -->
<g id="edge6" class="edge"><title>transition11&#45;&gt;PL13</title>
<path fill="none" stroke="black" d="M122,-921.949C122,-920.748 122,-898.429 122,-879.321"/>
<polygon fill="black" stroke="black" points="125.5,-879.191 122,-869.191 118.5,-879.191 125.5,-879.191"/>
</g>
<!-- PL14 -->
<g id="node8" class="node"><title>PL14</title>
<ellipse fill="none" stroke="black" cx="214" cy="-742" rx="18" ry="18"/>
<text text-anchor="middle" x="214" y="-738.3" font-family="Times,serif" font-size="14.00">PL14</text>
</g>
<!-- transition8 -->
<g id="node11" class="node"><title>transition8</title>
<polygon fill="none" stroke="black" points="272,-670.5 236,-670.5 236,-669.5 272,-669.5 272,-670.5"/>
<text text-anchor="middle" x="223" y="-674.3" font-family="Times,serif" font-size="14.00">Ax+</text>
</g>
<!-- PL14&#45;&gt;transition8 -->
<g id="edge9" class="edge"><title>PL14&#45;&gt;transition8</title>
<path fill="none" stroke="black" d="M222.679,-725.811C231.85,-709.762 245.756,-685.427 251.442,-675.477"/>
<polygon fill="none" stroke="black" points="252.982,-676.308 253.944,-671.099 249.943,-674.572 252.982,-676.308"/>
</g>
<!-- transition6&#45;&gt;PL14 -->
<g id="edge8" class="edge"><title>transition6&#45;&gt;PL14</title>
<path fill="none" stroke="black" d="M122.067,-795.962C123.907,-794.902 163.413,-772.143 190.032,-756.808"/>
<polygon fill="black" stroke="black" points="191.91,-759.765 198.827,-751.741 188.415,-753.7 191.91,-759.765"/>
</g>
<!-- PL11 -->
<g id="node10" class="node"><title>PL11</title>
<ellipse fill="none" stroke="black" cx="242" cy="-598" rx="18" ry="18"/>
<text text-anchor="middle" x="242" y="-594.3" font-family="Times,serif" font-size="14.00">PL11</text>
</g>
<!-- transition5 -->
<g id="node13" class="node"><title>transition5</title>
<polygon fill="none" stroke="black" points="198,-544 162,-544 162,-543 198,-543 198,-544"/>
<text text-anchor="middle" x="151" y="-547.8" font-family="Times,serif" font-size="14.00">Rx&#45;</text>
</g>
<!-- PL11&#45;&gt;transition5 -->
<g id="edge11" class="edge"><title>PL11&#45;&gt;transition5</title>
<path fill="none" stroke="black" d="M228.547,-585.5C214.332,-573.349 192.778,-554.923 183.966,-547.39"/>
<polygon fill="none" stroke="black" points="185.025,-545.994 180.088,-544.075 182.751,-548.654 185.025,-545.994"/>
</g>
<!-- transition8&#45;&gt;PL11 -->
<g id="edge10" class="edge"><title>transition8&#45;&gt;PL11</title>
<path fill="none" stroke="black" d="M253.991,-668.949C253.783,-667.735 249.879,-644.959 246.581,-625.722"/>
<polygon fill="black" stroke="black" points="250.026,-625.104 244.887,-615.839 243.127,-626.287 250.026,-625.104"/>
</g>
<!-- PL22 -->
<g id="node12" class="node"><title>PL22</title>
<ellipse fill="none" stroke="black" cx="236" cy="-489" rx="18" ry="18"/>
<text text-anchor="middle" x="236" y="-485.3" font-family="Times,serif" font-size="14.00">PL22</text>
</g>
<!-- transition12 -->
<g id="node15" class="node"><title>transition12</title>
<polygon fill="none" stroke="black" points="254,-417.5 218,-417.5 218,-416.5 254,-416.5 254,-417.5"/>
<text text-anchor="middle" x="203.5" y="-421.3" font-family="Times,serif" font-size="14.00">R2o&#45;</text>
</g>
<!-- PL22&#45;&gt;transition12 -->
<g id="edge13" class="edge"><title>PL22&#45;&gt;transition12</title>
<path fill="none" stroke="black" d="M236,-470.697C236,-455.165 236,-433.324 236,-423.348"/>
<polygon fill="none" stroke="black" points="237.75,-423.092 236,-418.092 234.25,-423.092 237.75,-423.092"/>
</g>
<!-- transition5&#45;&gt;PL22 -->
<g id="edge12" class="edge"><title>transition5&#45;&gt;PL22</title>
<path fill="none" stroke="black" d="M180.161,-542.848C182.062,-541.049 200.469,-523.628 215.637,-509.272"/>
<polygon fill="black" stroke="black" points="218.313,-511.559 223.17,-502.143 213.501,-506.474 218.313,-511.559"/>
</g>
<!-- PL18 -->
<g id="node32" class="node"><title>PL18</title>
<ellipse fill="none" stroke="black" cx="182" cy="-489" rx="18" ry="18"/>
<text text-anchor="middle" x="182" y="-485.3" font-family="Times,serif" font-size="14.00">PL18</text>
</g>
<!-- transition5&#45;&gt;PL18 -->
<g id="edge37" class="edge"><title>transition5&#45;&gt;PL18</title>
<path fill="none" stroke="black" d="M180.006,-542.848C180.062,-541.368 180.516,-529.319 180.977,-517.1"/>
<polygon fill="black" stroke="black" points="184.478,-517.15 181.358,-507.025 177.483,-516.886 184.478,-517.15"/>
</g>
<!-- PL6 -->
<g id="node38" class="node"><title>PL6</title>
<ellipse fill="none" stroke="black" cx="90" cy="-489" rx="18" ry="18"/>
<text text-anchor="middle" x="90" y="-485.3" font-family="Times,serif" font-size="14.00">PL6</text>
</g>
<!-- transition5&#45;&gt;PL6 -->
<g id="edge45" class="edge"><title>transition5&#45;&gt;PL6</title>
<path fill="none" stroke="black" d="M179.935,-542.962C178.144,-541.907 139.895,-519.383 113.861,-504.052"/>
<polygon fill="black" stroke="black" points="115.635,-501.034 105.242,-498.976 112.083,-507.066 115.635,-501.034"/>
</g>
<!-- PL7 -->
<g id="node42" class="node"><title>PL7</title>
<ellipse fill="none" stroke="black" cx="109" cy="-417" rx="18" ry="18"/>
<text text-anchor="middle" x="109" y="-413.3" font-family="Times,serif" font-size="14.00">PL7</text>
</g>
<!-- transition5&#45;&gt;PL7 -->
<g id="edge51" class="edge"><title>transition5&#45;&gt;PL7</title>
<path fill="none" stroke="black" d="M179.957,-542.944C179.07,-541.796 164.735,-523.166 155,-507 142.357,-486.005 129.696,-461.158 120.867,-443.061"/>
<polygon fill="black" stroke="black" points="123.88,-441.252 116.38,-433.769 117.576,-444.296 123.88,-441.252"/>
</g>
<!-- PL23 -->
<g id="node14" class="node"><title>PL23</title>
<ellipse fill="none" stroke="black" cx="236" cy="-345" rx="18" ry="18"/>
<text text-anchor="middle" x="236" y="-341.3" font-family="Times,serif" font-size="14.00">PL23</text>
</g>
<!-- transition13 -->
<g id="node17" class="node"><title>transition13</title>
<polygon fill="none" stroke="black" points="254,-291 218,-291 218,-290 254,-290 254,-291"/>
<text text-anchor="middle" x="205" y="-294.8" font-family="Times,serif" font-size="14.00">A2i&#45;</text>
</g>
<!-- PL23&#45;&gt;transition13 -->
<g id="edge15" class="edge"><title>PL23&#45;&gt;transition13</title>
<path fill="none" stroke="black" d="M236,-326.939C236,-316.385 236,-303.534 236,-296.412"/>
<polygon fill="none" stroke="black" points="237.75,-296.059 236,-291.059 234.25,-296.059 237.75,-296.059"/>
</g>
<!-- transition12&#45;&gt;PL23 -->
<g id="edge14" class="edge"><title>transition12&#45;&gt;PL23</title>
<path fill="none" stroke="black" d="M236,-415.949C236,-414.748 236,-392.429 236,-373.321"/>
<polygon fill="black" stroke="black" points="239.5,-373.191 236,-363.191 232.5,-373.191 239.5,-373.191"/>
</g>
<!-- PL25 -->
<g id="node16" class="node"><title>PL25</title>
<ellipse fill="none" stroke="black" cx="290" cy="-236" rx="18" ry="18"/>
<text text-anchor="middle" x="290" y="-232.3" font-family="Times,serif" font-size="14.00">PL25</text>
</g>
<!-- transition15 -->
<g id="node19" class="node"><title>transition15</title>
<polygon fill="none" stroke="black" points="346,-182 310,-182 310,-181 346,-181 346,-182"/>
<text text-anchor="middle" x="294" y="-185.8" font-family="Times,serif" font-size="14.00">R2o+</text>
</g>
<!-- PL25&#45;&gt;transition15 -->
<g id="edge17" class="edge"><title>PL25&#45;&gt;transition15</title>
<path fill="none" stroke="black" d="M300.183,-220.797C308.362,-209.39 319.34,-194.078 324.732,-186.557"/>
<polygon fill="none" stroke="black" points="326.461,-187.15 327.952,-182.067 323.616,-185.111 326.461,-187.15"/>
</g>
<!-- transition13&#45;&gt;PL25 -->
<g id="edge16" class="edge"><title>transition13&#45;&gt;PL25</title>
<path fill="none" stroke="black" d="M236.155,-289.848C237.988,-288.049 255.738,-270.628 270.365,-256.272"/>
<polygon fill="black" stroke="black" points="272.943,-258.645 277.628,-249.143 268.04,-253.649 272.943,-258.645"/>
</g>
<!-- PL24 -->
<g id="node22" class="node"><title>PL24</title>
<ellipse fill="none" stroke="black" cx="236" cy="-236" rx="18" ry="18"/>
<text text-anchor="middle" x="236" y="-232.3" font-family="Times,serif" font-size="14.00">PL24</text>
</g>
<!-- transition13&#45;&gt;PL24 -->
<g id="edge22" class="edge"><title>transition13&#45;&gt;PL24</title>
<path fill="none" stroke="black" d="M236,-289.848C236,-288.368 236,-276.319 236,-264.1"/>
<polygon fill="black" stroke="black" points="239.5,-264.025 236,-254.025 232.5,-264.025 239.5,-264.025"/>
</g>
<!-- PL16 -->
<g id="node18" class="node"><title>PL16</title>
<ellipse fill="none" stroke="black" cx="328" cy="-127" rx="18" ry="18"/>
<text text-anchor="middle" x="328" y="-123.3" font-family="Times,serif" font-size="14.00">PL16</text>
</g>
<!-- transition7 -->
<g id="node21" class="node"><title>transition7</title>
<polygon fill="none" stroke="black" points="346,-73 310,-73 310,-72 346,-72 346,-73"/>
<text text-anchor="middle" x="295.5" y="-76.8" font-family="Times,serif" font-size="14.00">A2i+</text>
</g>
<!-- PL16&#45;&gt;transition7 -->
<g id="edge19" class="edge"><title>PL16&#45;&gt;transition7</title>
<path fill="none" stroke="black" d="M328,-108.939C328,-98.3852 328,-85.5344 328,-78.4124"/>
<polygon fill="none" stroke="black" points="329.75,-78.0591 328,-73.0591 326.25,-78.0592 329.75,-78.0591"/>
</g>
<!-- transition15&#45;&gt;PL16 -->
<g id="edge18" class="edge"><title>transition15&#45;&gt;PL16</title>
<path fill="none" stroke="black" d="M328,-180.848C328,-179.368 328,-167.319 328,-155.1"/>
<polygon fill="black" stroke="black" points="331.5,-155.025 328,-145.025 324.5,-155.025 331.5,-155.025"/>
</g>
<!-- PL17 -->
<g id="node20" class="node"><title>PL17</title>
<ellipse fill="none" stroke="black" cx="351" cy="-18" rx="18" ry="18"/>
<text text-anchor="middle" x="351" y="-14.3" font-family="Times,serif" font-size="14.00">PL17</text>
</g>
<!-- PL17&#45;&gt;transition8 -->
<g id="edge21" class="edge"><title>PL17&#45;&gt;transition8</title>
<path fill="none" stroke="black" d="M356.685,-35.0834C363.496,-55.8203 374,-93.1288 374,-126 374,-182 374,-182 374,-182 374,-261.529 298,-264.471 298,-344 298,-544 298,-544 298,-544 298,-593.824 266.512,-648.804 256.811,-664.562"/>
<polygon fill="none" stroke="black" points="255.228,-663.791 254.032,-668.952 258.185,-665.663 255.228,-663.791"/>
</g>
<!-- transition7&#45;&gt;PL17 -->
<g id="edge20" class="edge"><title>transition7&#45;&gt;PL17</title>
<path fill="none" stroke="black" d="M328.066,-71.848C328.738,-70.2997 334.429,-57.1847 339.974,-44.4085"/>
<polygon fill="black" stroke="black" points="343.329,-45.4686 344.099,-34.9017 336.908,-42.6819 343.329,-45.4686"/>
</g>
<!-- transition14 -->
<g id="node24" class="node"><title>transition14</title>
<polygon fill="none" stroke="black" points="150,-182 114,-182 114,-181 150,-181 150,-182"/>
<text text-anchor="middle" x="103" y="-185.8" font-family="Times,serif" font-size="14.00">Ax&#45;</text>
</g>
<!-- PL24&#45;&gt;transition14 -->
<g id="edge23" class="edge"><title>PL24&#45;&gt;transition14</title>
<path fill="none" stroke="black" d="M221.344,-225.309C217.395,-222.826 213.084,-220.229 209,-218 182.649,-203.617 149.552,-189.359 137.073,-184.111"/>
<polygon fill="none" stroke="black" points="137.415,-182.358 132.127,-182.052 136.07,-185.589 137.415,-182.358"/>
</g>
<!-- PL8 -->
<g id="node23" class="node"><title>PL8</title>
<ellipse fill="none" stroke="black" cx="66" cy="-127" rx="18" ry="18"/>
<text text-anchor="middle" x="66" y="-123.3" font-family="Times,serif" font-size="14.00">PL8</text>
</g>
<!-- PL8&#45;&gt;transition16 -->
<g id="edge25" class="edge"><title>PL8&#45;&gt;transition16</title>
<path fill="none" stroke="black" d="M52.6439,-139.696C33.3585,-157.954 0,-195.277 0,-235 0,-490 0,-490 0,-490 0,-571.328 38,-587.672 38,-669 38,-797 38,-797 38,-797 38,-898.334 43.8324,-937.124 111,-1013 130.661,-1035.21 167.046,-1044.95 180.668,-1047.94"/>
<polygon fill="none" stroke="black" points="180.608,-1049.71 185.854,-1048.98 181.294,-1046.28 180.608,-1049.71"/>
</g>
<!-- transition14&#45;&gt;PL8 -->
<g id="edge24" class="edge"><title>transition14&#45;&gt;PL8</title>
<path fill="none" stroke="black" d="M131.952,-180.962C130.728,-179.979 106.262,-160.332 87.4842,-145.252"/>
<polygon fill="black" stroke="black" points="89.6039,-142.466 79.6152,-138.933 85.2209,-147.924 89.6039,-142.466"/>
</g>
<!-- PL15&#45;&gt;transition15 -->
<g id="edge27" class="edge"><title>PL15&#45;&gt;transition15</title>
<path fill="none" stroke="black" d="M321.556,-724.039C326.802,-697.498 336,-644.476 336,-599 336,-599 336,-599 336,-290 336,-250.394 330.583,-202.84 328.664,-187.237"/>
<polygon fill="none" stroke="black" points="330.371,-186.784 328.006,-182.044 326.898,-187.224 330.371,-186.784"/>
</g>
<!-- PL10&#45;&gt;transition8 -->
<g id="edge29" class="edge"><title>PL10&#45;&gt;transition8</title>
<path fill="none" stroke="black" d="M245.619,-904.748C247.44,-853.941 252.726,-706.544 253.806,-676.417"/>
<polygon fill="none" stroke="black" points="255.565,-676.188 253.995,-671.129 252.067,-676.063 255.565,-676.188"/>
</g>
<!-- transition4 -->
<g id="node29" class="node"><title>transition4</title>
<polygon fill="none" stroke="black" points="201,-923.5 165,-923.5 165,-922.5 201,-922.5 201,-923.5"/>
<text text-anchor="middle" x="154" y="-927.3" font-family="Times,serif" font-size="14.00">Ao&#45;</text>
</g>
<!-- PL9&#45;&gt;transition4 -->
<g id="edge31" class="edge"><title>PL9&#45;&gt;transition4</title>
<path fill="none" stroke="black" d="M189.821,-977.055C187.805,-961.376 184.934,-939.04 183.656,-929.104"/>
<polygon fill="none" stroke="black" points="185.385,-928.829 183.012,-924.093 181.914,-929.276 185.385,-928.829"/>
</g>
<!-- PL4 -->
<g id="node28" class="node"><title>PL4</title>
<ellipse fill="none" stroke="black" cx="344" cy="-851" rx="18" ry="18"/>
<text text-anchor="middle" x="344" y="-847.3" font-family="Times,serif" font-size="14.00">PL4</text>
</g>
<!-- transition2 -->
<g id="node30" class="node"><title>transition2</title>
<polygon fill="none" stroke="black" points="385,-797 349,-797 349,-796 385,-796 385,-797"/>
<text text-anchor="middle" x="338" y="-800.8" font-family="Times,serif" font-size="14.00">Ri+</text>
</g>
<!-- PL4&#45;&gt;transition2 -->
<g id="edge33" class="edge"><title>PL4&#45;&gt;transition2</title>
<path fill="none" stroke="black" d="M350.901,-834.098C355.721,-822.992 361.831,-808.912 364.956,-801.71"/>
<polygon fill="none" stroke="black" points="366.588,-802.346 366.973,-797.062 363.377,-800.952 366.588,-802.346"/>
</g>
<!-- transition4&#45;&gt;PL4 -->
<g id="edge32" class="edge"><title>transition4&#45;&gt;PL4</title>
<path fill="none" stroke="black" d="M183.056,-921.971C184.199,-921.386 202.738,-911.91 218,-905 252.353,-889.446 292.607,-872.78 318.199,-862.376"/>
<polygon fill="black" stroke="black" points="319.613,-865.58 327.568,-858.581 316.985,-859.092 319.613,-865.58"/>
</g>
<!-- PL5 -->
<g id="node31" class="node"><title>PL5</title>
<ellipse fill="none" stroke="black" cx="172" cy="-670" rx="18" ry="18"/>
<text text-anchor="middle" x="172" y="-666.3" font-family="Times,serif" font-size="14.00">PL5</text>
</g>
<!-- transition4&#45;&gt;PL5 -->
<g id="edge35" class="edge"><title>transition4&#45;&gt;PL5</title>
<path fill="none" stroke="black" d="M182.998,-921.954C182.864,-918.889 176.011,-762.514 173.192,-698.191"/>
<polygon fill="black" stroke="black" points="176.68,-697.837 172.745,-688 169.686,-698.143 176.68,-697.837"/>
</g>
<!-- transition2&#45;&gt;PL1 -->
<g id="edge34" class="edge"><title>transition2&#45;&gt;PL1</title>
<path fill="none" stroke="black" d="M367.017,-797.05C367.713,-799.138 390,-866.394 390,-922 390,-1105 390,-1105 390,-1105 390,-1153.85 333.765,-1186.4 299.268,-1201.76"/>
<polygon fill="black" stroke="black" points="297.592,-1198.67 289.763,-1205.81 300.335,-1205.11 297.592,-1198.67"/>
</g>
<!-- PL5&#45;&gt;transition5 -->
<g id="edge36" class="edge"><title>PL5&#45;&gt;transition5</title>
<path fill="none" stroke="black" d="M173.096,-651.881C174.932,-623.184 178.541,-566.793 179.661,-549.302"/>
<polygon fill="none" stroke="black" points="181.424,-549.155 179.997,-544.054 177.931,-548.931 181.424,-549.155"/>
</g>
<!-- transition9 -->
<g id="node34" class="node"><title>transition9</title>
<polygon fill="none" stroke="black" points="200,-417.5 164,-417.5 164,-416.5 200,-416.5 200,-417.5"/>
<text text-anchor="middle" x="149.5" y="-421.3" font-family="Times,serif" font-size="14.00">R1o&#45;</text>
</g>
<!-- PL18&#45;&gt;transition9 -->
<g id="edge38" class="edge"><title>PL18&#45;&gt;transition9</title>
<path fill="none" stroke="black" d="M182,-470.697C182,-455.165 182,-433.324 182,-423.348"/>
<polygon fill="none" stroke="black" points="183.75,-423.092 182,-418.092 180.25,-423.092 183.75,-423.092"/>
</g>
<!-- PL19 -->
<g id="node33" class="node"><title>PL19</title>
<ellipse fill="none" stroke="black" cx="182" cy="-345" rx="18" ry="18"/>
<text text-anchor="middle" x="182" y="-341.3" font-family="Times,serif" font-size="14.00">PL19</text>
</g>
<!-- transition10 -->
<g id="node36" class="node"><title>transition10</title>
<polygon fill="none" stroke="black" points="200,-291 164,-291 164,-290 200,-290 200,-291"/>
<text text-anchor="middle" x="151" y="-294.8" font-family="Times,serif" font-size="14.00">A1i&#45;</text>
</g>
<!-- PL19&#45;&gt;transition10 -->
<g id="edge40" class="edge"><title>PL19&#45;&gt;transition10</title>
<path fill="none" stroke="black" d="M182,-326.939C182,-316.385 182,-303.534 182,-296.412"/>
<polygon fill="none" stroke="black" points="183.75,-296.059 182,-291.059 180.25,-296.059 183.75,-296.059"/>
</g>
<!-- transition9&#45;&gt;PL19 -->
<g id="edge39" class="edge"><title>transition9&#45;&gt;PL19</title>
<path fill="none" stroke="black" d="M182,-415.949C182,-414.748 182,-392.429 182,-373.321"/>
<polygon fill="black" stroke="black" points="185.5,-373.191 182,-363.191 178.5,-373.191 185.5,-373.191"/>
</g>
<!-- PL20 -->
<g id="node35" class="node"><title>PL20</title>
<ellipse fill="none" stroke="black" cx="182" cy="-236" rx="18" ry="18"/>
<text text-anchor="middle" x="182" y="-232.3" font-family="Times,serif" font-size="14.00">PL20</text>
</g>
<!-- PL20&#45;&gt;transition14 -->
<g id="edge42" class="edge"><title>PL20&#45;&gt;transition14</title>
<path fill="none" stroke="black" d="M170.151,-222.44C158.96,-210.578 142.856,-193.507 135.685,-185.906"/>
<polygon fill="none" stroke="black" points="136.772,-184.508 132.067,-182.072 134.226,-186.909 136.772,-184.508"/>
</g>
<!-- transition10&#45;&gt;PL20 -->
<g id="edge41" class="edge"><title>transition10&#45;&gt;PL20</title>
<path fill="none" stroke="black" d="M182,-289.848C182,-288.368 182,-276.319 182,-264.1"/>
<polygon fill="black" stroke="black" points="185.5,-264.025 182,-254.025 178.5,-264.025 185.5,-264.025"/>
</g>
<!-- PL21 -->
<g id="node37" class="node"><title>PL21</title>
<ellipse fill="none" stroke="black" cx="128" cy="-236" rx="18" ry="18"/>
<text text-anchor="middle" x="128" y="-232.3" font-family="Times,serif" font-size="14.00">PL21</text>
</g>
<!-- transition10&#45;&gt;PL21 -->
<g id="edge43" class="edge"><title>transition10&#45;&gt;PL21</title>
<path fill="none" stroke="black" d="M181.845,-289.848C180.012,-288.049 162.262,-270.628 147.635,-256.272"/>
<polygon fill="black" stroke="black" points="149.96,-253.649 140.372,-249.143 145.057,-258.645 149.96,-253.649"/>
</g>
<!-- PL21&#45;&gt;transition11 -->
<g id="edge44" class="edge"><title>PL21&#45;&gt;transition11</title>
<path fill="none" stroke="black" d="M112.982,-246.504C88.8211,-263.1 44,-299.836 44,-344 44,-418 44,-418 44,-418 44,-498.817 76,-516.183 76,-597 76,-797 76,-797 76,-797 76,-847.078 108.919,-901.883 119.061,-917.58"/>
<polygon fill="none" stroke="black" points="117.742,-918.756 121.967,-921.952 120.657,-916.819 117.742,-918.756"/>
</g>
<!-- PL6&#45;&gt;transition3 -->
<g id="edge46" class="edge"><title>PL6&#45;&gt;transition3</title>
<path fill="none" stroke="black" d="M78.2341,-502.796C53.8385,-530.714 0,-600.129 0,-669 0,-1050 0,-1050 0,-1050 0,-1116.14 100.799,-1149.54 124.879,-1156.58"/>
<polygon fill="none" stroke="black" points="124.62,-1158.32 129.906,-1157.98 125.558,-1154.95 124.62,-1158.32"/>
</g>
<!-- transition1 -->
<g id="node41" class="node"><title>transition1</title>
<polygon fill="none" stroke="black" points="110,-1050 74,-1050 74,-1049 110,-1049 110,-1050"/>
<text text-anchor="middle" x="65" y="-1053.8" font-family="Times,serif" font-size="14.00">Ri&#45;</text>
</g>
<!-- PL2&#45;&gt;transition1 -->
<g id="edge48" class="edge"><title>PL2&#45;&gt;transition1</title>
<path fill="none" stroke="black" d="M96.0685,-1085.94C94.8738,-1075.39 93.419,-1062.53 92.6127,-1055.41"/>
<polygon fill="none" stroke="black" points="94.3081,-1054.83 92.0067,-1050.06 90.8303,-1055.22 94.3081,-1054.83"/>
</g>
<!-- PL3 -->
<g id="node40" class="node"><title>PL3</title>
<ellipse fill="none" stroke="black" cx="46" cy="-995" rx="18" ry="18"/>
<text text-anchor="middle" x="46" y="-991.3" font-family="Times,serif" font-size="14.00">PL3</text>
</g>
<!-- PL3&#45;&gt;transition4 -->
<g id="edge50" class="edge"><title>PL3&#45;&gt;transition4</title>
<path fill="none" stroke="black" d="M61.7156,-985.97C92.7109,-970.133 160.291,-935.603 178.438,-926.331"/>
<polygon fill="none" stroke="black" points="179.282,-927.865 182.938,-924.032 177.689,-924.748 179.282,-927.865"/>
</g>
<!-- transition1&#45;&gt;PL3 -->
<g id="edge49" class="edge"><title>transition1&#45;&gt;PL3</title>
<path fill="none" stroke="black" d="M91.868,-1048.85C90.3703,-1047.12 76.401,-1031.03 64.268,-1017.05"/>
<polygon fill="black" stroke="black" points="66.6427,-1014.44 57.4447,-1009.19 61.3562,-1019.03 66.6427,-1014.44"/>
</g>
<!-- PL7&#45;&gt;transition14 -->
<g id="edge52" class="edge"><title>PL7&#45;&gt;transition14</title>
<path fill="none" stroke="black" d="M104.163,-399.421C94.8655,-364.538 77.4135,-281.537 101,-218 106.339,-203.618 120.284,-191.131 127.512,-185.377"/>
<polygon fill="none" stroke="black" points="128.991,-186.453 131.932,-182.047 126.885,-183.658 128.991,-186.453"/>
</g>
</g>
</svg>
