<?xml version="1.0" encoding="UTF-8" standalone="no"?>
<!DOCTYPE svg PUBLIC "-//W3C//DTD SVG 1.1//EN"
 "http://www.w3.org/Graphics/SVG/1.1/DTD/svg11.dtd">
<!-- Generated by graphviz version 2.38.0 (20140413.2041)
 -->
<!-- Title: %3 Pages: 1 -->
<svg width="482pt" height="1021pt"
 viewBox="0.00 0.00 482.00 1021.00" xmlns="http://www.w3.org/2000/svg" xmlns:xlink="http://www.w3.org/1999/xlink">
<g id="graph0" class="graph" transform="scale(1 1) rotate(0) translate(4 1017)">
<title>%3</title>
<polygon fill="white" stroke="none" points="-4,4 -4,-1017 478,-1017 478,4 -4,4"/>
<!-- PL1 -->
<g id="node1" class="node"><title>PL1</title>
<ellipse fill="none" stroke="black" cx="430" cy="-995" rx="18" ry="18"/>
<text text-anchor="middle" x="430" y="-991.3" font-family="Times,serif" font-size="14.00">PL1</text>
</g>
<!-- transition3 -->
<g id="node3" class="node"><title>transition3</title>
<polygon fill="none" stroke="black" points="397,-941 361,-941 361,-940 397,-940 397,-941"/>
<text text-anchor="middle" x="348" y="-944.8" font-family="Times,serif" font-size="14.00">Ao+</text>
</g>
<!-- PL1&#45;&gt;transition3 -->
<g id="edge1" class="edge"><title>PL1&#45;&gt;transition3</title>
<path fill="none" stroke="black" d="M417.914,-981.44C406.5,-969.578 390.073,-952.507 382.759,-944.906"/>
<polygon fill="none" stroke="black" points="383.797,-943.461 379.069,-941.072 381.275,-945.888 383.797,-943.461"/>
</g>
<!-- PL26 -->
<g id="node2" class="node"><title>PL26</title>
<ellipse fill="none" stroke="black" cx="290" cy="-886" rx="18" ry="18"/>
<text text-anchor="middle" x="290" y="-882.3" font-family="Times,serif" font-size="14.00">PL26</text>
</g>
<!-- transition16 -->
<g id="node5" class="node"><title>transition16</title>
<polygon fill="none" stroke="black" points="242,-832 206,-832 206,-831 242,-831 242,-832"/>
<text text-anchor="middle" x="193.5" y="-835.8" font-family="Times,serif" font-size="14.00">Rx+</text>
</g>
<!-- PL26&#45;&gt;transition16 -->
<g id="edge3" class="edge"><title>PL26&#45;&gt;transition16</title>
<path fill="none" stroke="black" d="M276.325,-874.018C261.109,-861.799 237.429,-842.784 228.036,-835.241"/>
<polygon fill="none" stroke="black" points="229.09,-833.843 224.095,-832.076 226.898,-836.572 229.09,-833.843"/>
</g>
<!-- transition3&#45;&gt;PL26 -->
<g id="edge2" class="edge"><title>transition3&#45;&gt;PL26</title>
<path fill="none" stroke="black" d="M378.935,-939.962C377.173,-938.912 339.671,-916.579 313.934,-901.253"/>
<polygon fill="black" stroke="black" points="315.455,-898.085 305.072,-895.976 311.874,-904.099 315.455,-898.085"/>
</g>
<!-- PL2 -->
<g id="node31" class="node"><title>PL2</title>
<ellipse fill="none" stroke="black" cx="353" cy="-886" rx="18" ry="18"/>
<text text-anchor="middle" x="353" y="-882.3" font-family="Times,serif" font-size="14.00">PL2</text>
</g>
<!-- transition3&#45;&gt;PL2 -->
<g id="edge36" class="edge"><title>transition3&#45;&gt;PL2</title>
<path fill="none" stroke="black" d="M378.925,-939.848C378.154,-938.275 371.523,-924.759 365.162,-911.791"/>
<polygon fill="black" stroke="black" points="368.211,-910.06 360.665,-902.624 361.927,-913.143 368.211,-910.06"/>
</g>
<!-- PL10 -->
<g id="node4" class="node"><title>PL10</title>
<ellipse fill="none" stroke="black" cx="211" cy="-777" rx="18" ry="18"/>
<text text-anchor="middle" x="211" y="-773.3" font-family="Times,serif" font-size="14.00">PL10</text>
</g>
<!-- transition8 -->
<g id="node7" class="node"><title>transition8</title>
<polygon fill="none" stroke="black" points="206,-705.5 170,-705.5 170,-704.5 206,-704.5 206,-705.5"/>
<text text-anchor="middle" x="157" y="-709.3" font-family="Times,serif" font-size="14.00">Ax+</text>
</g>
<!-- PL10&#45;&gt;transition8 -->
<g id="edge5" class="edge"><title>PL10&#45;&gt;transition8</title>
<path fill="none" stroke="black" d="M205.666,-759.765C200.472,-743.958 192.896,-720.901 189.615,-710.914"/>
<polygon fill="none" stroke="black" points="191.255,-710.299 188.031,-706.096 187.93,-711.392 191.255,-710.299"/>
</g>
<!-- transition16&#45;&gt;PL10 -->
<g id="edge4" class="edge"><title>transition16&#45;&gt;PL10</title>
<path fill="none" stroke="black" d="M223.963,-830.848C223.594,-829.344 220.546,-816.919 217.499,-804.496"/>
<polygon fill="black" stroke="black" points="220.888,-803.621 215.107,-794.742 214.09,-805.288 220.888,-803.621"/>
</g>
<!-- PL12 -->
<g id="node21" class="node"><title>PL12</title>
<ellipse fill="none" stroke="black" cx="48" cy="-705" rx="18" ry="18"/>
<text text-anchor="middle" x="48" y="-701.3" font-family="Times,serif" font-size="14.00">PL12</text>
</g>
<!-- transition16&#45;&gt;PL12 -->
<g id="edge22" class="edge"><title>transition16&#45;&gt;PL12</title>
<path fill="none" stroke="black" d="M211.73,-830.994C186.136,-830.346 126.413,-825.432 90,-795 70.9099,-779.045 59.9481,-752.445 54.0443,-732.472"/>
<polygon fill="black" stroke="black" points="57.3961,-731.459 51.4017,-722.723 50.6399,-733.291 57.3961,-731.459"/>
</g>
<!-- PL15 -->
<g id="node22" class="node"><title>PL15</title>
<ellipse fill="none" stroke="black" cx="399" cy="-561" rx="18" ry="18"/>
<text text-anchor="middle" x="399" y="-557.3" font-family="Times,serif" font-size="14.00">PL15</text>
</g>
<!-- transition16&#45;&gt;PL15 -->
<g id="edge24" class="edge"><title>transition16&#45;&gt;PL15</title>
<path fill="none" stroke="black" d="M224.084,-830.991C227.596,-830.6 340.158,-817.929 361,-795 388.073,-765.216 395.972,-643.986 398.182,-589.158"/>
<polygon fill="black" stroke="black" points="401.681,-589.247 398.553,-579.125 394.686,-588.989 401.681,-589.247"/>
</g>
<!-- PL9 -->
<g id="node27" class="node"><title>PL9</title>
<ellipse fill="none" stroke="black" cx="274" cy="-777" rx="18" ry="18"/>
<text text-anchor="middle" x="274" y="-773.3" font-family="Times,serif" font-size="14.00">PL9</text>
</g>
<!-- transition16&#45;&gt;PL9 -->
<g id="edge30" class="edge"><title>transition16&#45;&gt;PL9</title>
<path fill="none" stroke="black" d="M224.143,-830.848C225.806,-829.086 241.606,-812.338 254.98,-798.161"/>
<polygon fill="black" stroke="black" points="257.739,-800.337 262.056,-790.661 252.647,-795.533 257.739,-800.337"/>
</g>
<!-- PL11 -->
<g id="node6" class="node"><title>PL11</title>
<ellipse fill="none" stroke="black" cx="226" cy="-633" rx="18" ry="18"/>
<text text-anchor="middle" x="226" y="-629.3" font-family="Times,serif" font-size="14.00">PL11</text>
</g>
<!-- transition5 -->
<g id="node9" class="node"><title>transition5</title>
<polygon fill="none" stroke="black" points="298,-561.5 262,-561.5 262,-560.5 298,-560.5 298,-561.5"/>
<text text-anchor="middle" x="251" y="-565.3" font-family="Times,serif" font-size="14.00">Rx&#45;</text>
</g>
<!-- PL11&#45;&gt;transition5 -->
<g id="edge7" class="edge"><title>PL11&#45;&gt;transition5</title>
<path fill="none" stroke="black" d="M236.669,-618.17C249.175,-601.959 269.168,-576.041 276.852,-566.081"/>
<polygon fill="none" stroke="black" points="278.252,-567.131 279.92,-562.103 275.481,-564.993 278.252,-567.131"/>
</g>
<!-- transition8&#45;&gt;PL11 -->
<g id="edge6" class="edge"><title>transition8&#45;&gt;PL11</title>
<path fill="none" stroke="black" d="M188.028,-703.949C188.718,-702.677 202.261,-677.729 212.978,-657.987"/>
<polygon fill="black" stroke="black" points="216.101,-659.572 217.796,-649.114 209.949,-656.232 216.101,-659.572"/>
</g>
<!-- PL18 -->
<g id="node8" class="node"><title>PL18</title>
<ellipse fill="none" stroke="black" cx="230" cy="-489" rx="18" ry="18"/>
<text text-anchor="middle" x="230" y="-485.3" font-family="Times,serif" font-size="14.00">PL18</text>
</g>
<!-- transition9 -->
<g id="node11" class="node"><title>transition9</title>
<polygon fill="none" stroke="black" points="244,-417.5 208,-417.5 208,-416.5 244,-416.5 244,-417.5"/>
<text text-anchor="middle" x="193.5" y="-421.3" font-family="Times,serif" font-size="14.00">R1o&#45;</text>
</g>
<!-- PL18&#45;&gt;transition9 -->
<g id="edge9" class="edge"><title>PL18&#45;&gt;transition9</title>
<path fill="none" stroke="black" d="M229.011,-470.697C228.124,-455.165 226.876,-433.324 226.306,-423.348"/>
<polygon fill="none" stroke="black" points="228.038,-422.984 226.005,-418.092 224.543,-423.184 228.038,-422.984"/>
</g>
<!-- transition5&#45;&gt;PL18 -->
<g id="edge8" class="edge"><title>transition5&#45;&gt;PL18</title>
<path fill="none" stroke="black" d="M279.964,-559.949C279.031,-558.644 260.295,-532.413 246.039,-512.455"/>
<polygon fill="black" stroke="black" points="248.737,-510.211 240.077,-504.108 243.041,-514.279 248.737,-510.211"/>
</g>
<!-- PL6 -->
<g id="node30" class="node"><title>PL6</title>
<ellipse fill="none" stroke="black" cx="456" cy="-489" rx="18" ry="18"/>
<text text-anchor="middle" x="456" y="-485.3" font-family="Times,serif" font-size="14.00">PL6</text>
</g>
<!-- transition5&#45;&gt;PL6 -->
<g id="edge34" class="edge"><title>transition5&#45;&gt;PL6</title>
<path fill="none" stroke="black" d="M280.05,-559.97C281.079,-559.352 297.758,-549.369 312,-543 352.027,-525.101 400.11,-508.309 429.344,-498.6"/>
<polygon fill="black" stroke="black" points="430.449,-501.921 438.854,-495.471 428.261,-495.271 430.449,-501.921"/>
</g>
<!-- PL22 -->
<g id="node36" class="node"><title>PL22</title>
<ellipse fill="none" stroke="black" cx="330" cy="-489" rx="18" ry="18"/>
<text text-anchor="middle" x="330" y="-485.3" font-family="Times,serif" font-size="14.00">PL22</text>
</g>
<!-- transition5&#45;&gt;PL22 -->
<g id="edge43" class="edge"><title>transition5&#45;&gt;PL22</title>
<path fill="none" stroke="black" d="M280.036,-559.949C280.969,-558.644 299.705,-532.413 313.961,-512.455"/>
<polygon fill="black" stroke="black" points="316.959,-514.279 319.923,-504.108 311.263,-510.211 316.959,-514.279"/>
</g>
<!-- PL7 -->
<g id="node42" class="node"><title>PL7</title>
<ellipse fill="none" stroke="black" cx="280" cy="-417" rx="18" ry="18"/>
<text text-anchor="middle" x="280" y="-413.3" font-family="Times,serif" font-size="14.00">PL7</text>
</g>
<!-- transition5&#45;&gt;PL7 -->
<g id="edge51" class="edge"><title>transition5&#45;&gt;PL7</title>
<path fill="none" stroke="black" d="M280,-559.897C280,-556.821 280,-485.53 280,-445.195"/>
<polygon fill="black" stroke="black" points="283.5,-445.195 280,-435.195 276.5,-445.195 283.5,-445.195"/>
</g>
<!-- PL19 -->
<g id="node10" class="node"><title>PL19</title>
<ellipse fill="none" stroke="black" cx="226" cy="-345" rx="18" ry="18"/>
<text text-anchor="middle" x="226" y="-341.3" font-family="Times,serif" font-size="14.00">PL19</text>
</g>
<!-- transition10 -->
<g id="node13" class="node"><title>transition10</title>
<polygon fill="none" stroke="black" points="198,-291 162,-291 162,-290 198,-290 198,-291"/>
<text text-anchor="middle" x="149" y="-294.8" font-family="Times,serif" font-size="14.00">A1i&#45;</text>
</g>
<!-- PL19&#45;&gt;transition10 -->
<g id="edge11" class="edge"><title>PL19&#45;&gt;transition10</title>
<path fill="none" stroke="black" d="M214.629,-330.899C204.526,-319.258 190.36,-302.936 183.715,-295.281"/>
<polygon fill="none" stroke="black" points="184.66,-293.699 180.061,-291.07 182.016,-295.993 184.66,-293.699"/>
</g>
<!-- transition9&#45;&gt;PL19 -->
<g id="edge10" class="edge"><title>transition9&#45;&gt;PL19</title>
<path fill="none" stroke="black" d="M226,-415.949C226,-414.748 226,-392.429 226,-373.321"/>
<polygon fill="black" stroke="black" points="229.5,-373.191 226,-363.191 222.5,-373.191 229.5,-373.191"/>
</g>
<!-- PL21 -->
<g id="node12" class="node"><title>PL21</title>
<ellipse fill="none" stroke="black" cx="88" cy="-236" rx="18" ry="18"/>
<text text-anchor="middle" x="88" y="-232.3" font-family="Times,serif" font-size="14.00">PL21</text>
</g>
<!-- transition11 -->
<g id="node15" class="node"><title>transition11</title>
<polygon fill="none" stroke="black" points="68,-182 32,-182 32,-181 68,-181 68,-182"/>
<text text-anchor="middle" x="16" y="-185.8" font-family="Times,serif" font-size="14.00">R1o+</text>
</g>
<!-- PL21&#45;&gt;transition11 -->
<g id="edge13" class="edge"><title>PL21&#45;&gt;transition11</title>
<path fill="none" stroke="black" d="M77.8167,-220.797C69.6385,-209.39 58.66,-194.078 53.2676,-186.557"/>
<polygon fill="none" stroke="black" points="54.3836,-185.111 50.0479,-182.067 51.5391,-187.15 54.3836,-185.111"/>
</g>
<!-- transition10&#45;&gt;PL21 -->
<g id="edge12" class="edge"><title>transition10&#45;&gt;PL21</title>
<path fill="none" stroke="black" d="M179.933,-289.962C178.093,-288.902 138.587,-266.143 111.968,-250.808"/>
<polygon fill="black" stroke="black" points="113.585,-247.7 103.173,-245.741 110.09,-253.765 113.585,-247.7"/>
</g>
<!-- PL20 -->
<g id="node18" class="node"><title>PL20</title>
<ellipse fill="none" stroke="black" cx="180" cy="-236" rx="18" ry="18"/>
<text text-anchor="middle" x="180" y="-232.3" font-family="Times,serif" font-size="14.00">PL20</text>
</g>
<!-- transition10&#45;&gt;PL20 -->
<g id="edge18" class="edge"><title>transition10&#45;&gt;PL20</title>
<path fill="none" stroke="black" d="M180,-289.848C180,-288.368 180,-276.319 180,-264.1"/>
<polygon fill="black" stroke="black" points="183.5,-264.025 180,-254.025 176.5,-264.025 183.5,-264.025"/>
</g>
<!-- PL13 -->
<g id="node14" class="node"><title>PL13</title>
<ellipse fill="none" stroke="black" cx="50" cy="-127" rx="18" ry="18"/>
<text text-anchor="middle" x="50" y="-123.3" font-family="Times,serif" font-size="14.00">PL13</text>
</g>
<!-- transition6 -->
<g id="node17" class="node"><title>transition6</title>
<polygon fill="none" stroke="black" points="68,-73 32,-73 32,-72 68,-72 68,-73"/>
<text text-anchor="middle" x="17.5" y="-76.8" font-family="Times,serif" font-size="14.00">A1i+</text>
</g>
<!-- PL13&#45;&gt;transition6 -->
<g id="edge15" class="edge"><title>PL13&#45;&gt;transition6</title>
<path fill="none" stroke="black" d="M50,-108.939C50,-98.3852 50,-85.5344 50,-78.4124"/>
<polygon fill="none" stroke="black" points="51.7501,-78.0591 50,-73.0591 48.2501,-78.0592 51.7501,-78.0591"/>
</g>
<!-- transition11&#45;&gt;PL13 -->
<g id="edge14" class="edge"><title>transition11&#45;&gt;PL13</title>
<path fill="none" stroke="black" d="M50,-180.848C50,-179.368 50,-167.319 50,-155.1"/>
<polygon fill="black" stroke="black" points="53.5001,-155.025 50,-145.025 46.5001,-155.025 53.5001,-155.025"/>
</g>
<!-- PL14 -->
<g id="node16" class="node"><title>PL14</title>
<ellipse fill="none" stroke="black" cx="27" cy="-18" rx="18" ry="18"/>
<text text-anchor="middle" x="27" y="-14.3" font-family="Times,serif" font-size="14.00">PL14</text>
</g>
<!-- PL14&#45;&gt;transition8 -->
<g id="edge17" class="edge"><title>PL14&#45;&gt;transition8</title>
<path fill="none" stroke="black" d="M21.3146,-35.0834C14.5036,-55.8203 4,-93.1288 4,-126 4,-237 4,-237 4,-237 4,-442.779 160.559,-666.282 184.85,-699.72"/>
<polygon fill="none" stroke="black" points="183.594,-700.965 187.966,-703.955 186.413,-698.891 183.594,-700.965"/>
</g>
<!-- transition6&#45;&gt;PL14 -->
<g id="edge16" class="edge"><title>transition6&#45;&gt;PL14</title>
<path fill="none" stroke="black" d="M49.934,-71.848C49.2621,-70.2997 43.5707,-57.1847 38.0263,-44.4085"/>
<polygon fill="black" stroke="black" points="41.0925,-42.6819 33.9008,-34.9017 34.671,-45.4686 41.0925,-42.6819"/>
</g>
<!-- transition14 -->
<g id="node20" class="node"><title>transition14</title>
<polygon fill="none" stroke="black" points="221,-182 185,-182 185,-181 221,-181 221,-182"/>
<text text-anchor="middle" x="174" y="-185.8" font-family="Times,serif" font-size="14.00">Ax&#45;</text>
</g>
<!-- PL20&#45;&gt;transition14 -->
<g id="edge19" class="edge"><title>PL20&#45;&gt;transition14</title>
<path fill="none" stroke="black" d="M186.901,-219.098C191.721,-207.992 197.831,-193.912 200.956,-186.71"/>
<polygon fill="none" stroke="black" points="202.588,-187.346 202.973,-182.062 199.377,-185.952 202.588,-187.346"/>
</g>
<!-- PL8 -->
<g id="node19" class="node"><title>PL8</title>
<ellipse fill="none" stroke="black" cx="169" cy="-127" rx="18" ry="18"/>
<text text-anchor="middle" x="169" y="-123.3" font-family="Times,serif" font-size="14.00">PL8</text>
</g>
<!-- PL8&#45;&gt;transition16 -->
<g id="edge21" class="edge"><title>PL8&#45;&gt;transition16</title>
<path fill="none" stroke="black" d="M165.099,-144.801C161.138,-162.791 155.273,-192.232 153,-218 150.15,-250.319 152.7,-258.557 153,-291 154.778,-483.025 129.675,-533.539 161,-723 166.48,-756.143 165.771,-766.783 184,-795 193.626,-809.901 210.978,-822.502 219.299,-828.018"/>
<polygon fill="none" stroke="black" points="218.763,-829.75 223.922,-830.954 220.64,-826.796 218.763,-829.75"/>
</g>
<!-- transition14&#45;&gt;PL8 -->
<g id="edge20" class="edge"><title>transition14&#45;&gt;PL8</title>
<path fill="none" stroke="black" d="M202.902,-180.848C201.848,-179.204 192.431,-164.526 183.79,-151.055"/>
<polygon fill="black" stroke="black" points="186.664,-149.053 178.319,-142.526 180.772,-152.833 186.664,-149.053"/>
</g>
<!-- PL12&#45;&gt;transition11 -->
<g id="edge23" class="edge"><title>PL12&#45;&gt;transition11</title>
<path fill="none" stroke="black" d="M46.8146,-686.961C45.066,-660.315 42,-607.155 42,-562 42,-562 42,-562 42,-290 42,-250.394 47.417,-202.84 49.336,-187.237"/>
<polygon fill="none" stroke="black" points="51.1015,-187.224 49.9942,-182.044 47.6293,-186.784 51.1015,-187.224"/>
</g>
<!-- transition15 -->
<g id="node24" class="node"><title>transition15</title>
<polygon fill="none" stroke="black" points="382,-182 346,-182 346,-181 382,-181 382,-182"/>
<text text-anchor="middle" x="330" y="-185.8" font-family="Times,serif" font-size="14.00">R2o+</text>
</g>
<!-- PL15&#45;&gt;transition15 -->
<g id="edge25" class="edge"><title>PL15&#45;&gt;transition15</title>
<path fill="none" stroke="black" d="M401.173,-542.984C404.379,-516.369 410,-463.25 410,-418 410,-418 410,-418 410,-290 410,-256.905 405.418,-247.79 391,-218 384.67,-204.92 373.285,-191.843 367.532,-185.669"/>
<polygon fill="none" stroke="black" points="368.78,-184.442 364.053,-182.052 366.258,-186.869 368.78,-184.442"/>
</g>
<!-- PL16 -->
<g id="node23" class="node"><title>PL16</title>
<ellipse fill="none" stroke="black" cx="364" cy="-127" rx="18" ry="18"/>
<text text-anchor="middle" x="364" y="-123.3" font-family="Times,serif" font-size="14.00">PL16</text>
</g>
<!-- transition7 -->
<g id="node26" class="node"><title>transition7</title>
<polygon fill="none" stroke="black" points="382,-73 346,-73 346,-72 382,-72 382,-73"/>
<text text-anchor="middle" x="331.5" y="-76.8" font-family="Times,serif" font-size="14.00">A2i+</text>
</g>
<!-- PL16&#45;&gt;transition7 -->
<g id="edge27" class="edge"><title>PL16&#45;&gt;transition7</title>
<path fill="none" stroke="black" d="M364,-108.939C364,-98.3852 364,-85.5344 364,-78.4124"/>
<polygon fill="none" stroke="black" points="365.75,-78.0591 364,-73.0591 362.25,-78.0592 365.75,-78.0591"/>
</g>
<!-- transition15&#45;&gt;PL16 -->
<g id="edge26" class="edge"><title>transition15&#45;&gt;PL16</title>
<path fill="none" stroke="black" d="M364,-180.848C364,-179.368 364,-167.319 364,-155.1"/>
<polygon fill="black" stroke="black" points="367.5,-155.025 364,-145.025 360.5,-155.025 367.5,-155.025"/>
</g>
<!-- PL17 -->
<g id="node25" class="node"><title>PL17</title>
<ellipse fill="none" stroke="black" cx="341" cy="-18" rx="18" ry="18"/>
<text text-anchor="middle" x="341" y="-14.3" font-family="Times,serif" font-size="14.00">PL17</text>
</g>
<!-- PL17&#45;&gt;transition8 -->
<g id="edge29" class="edge"><title>PL17&#45;&gt;transition8</title>
<path fill="none" stroke="black" d="M335.315,-35.0834C328.504,-55.8203 318,-93.1288 318,-126 318,-182 318,-182 318,-182 318,-215.095 317.663,-226.669 299,-254 267.97,-299.443 228.938,-280.83 199,-327 176.994,-360.937 180,-375.553 180,-416 180,-562 180,-562 180,-562 180,-615.473 185.725,-680.094 187.489,-698.735"/>
<polygon fill="none" stroke="black" points="185.769,-699.135 187.994,-703.943 189.253,-698.797 185.769,-699.135"/>
</g>
<!-- transition7&#45;&gt;PL17 -->
<g id="edge28" class="edge"><title>transition7&#45;&gt;PL17</title>
<path fill="none" stroke="black" d="M363.934,-71.848C363.262,-70.2997 357.571,-57.1847 352.026,-44.4085"/>
<polygon fill="black" stroke="black" points="355.092,-42.6819 347.901,-34.9017 348.671,-45.4686 355.092,-42.6819"/>
</g>
<!-- transition4 -->
<g id="node29" class="node"><title>transition4</title>
<polygon fill="none" stroke="black" points="303,-705.5 267,-705.5 267,-704.5 303,-704.5 303,-705.5"/>
<text text-anchor="middle" x="256" y="-709.3" font-family="Times,serif" font-size="14.00">Ao&#45;</text>
</g>
<!-- PL9&#45;&gt;transition4 -->
<g id="edge31" class="edge"><title>PL9&#45;&gt;transition4</title>
<path fill="none" stroke="black" d="M276.663,-759.055C279.127,-743.376 282.637,-721.04 284.198,-711.104"/>
<polygon fill="none" stroke="black" points="285.938,-711.304 284.985,-706.093 282.48,-710.761 285.938,-711.304"/>
</g>
<!-- PL5 -->
<g id="node28" class="node"><title>PL5</title>
<ellipse fill="none" stroke="black" cx="280" cy="-633" rx="18" ry="18"/>
<text text-anchor="middle" x="280" y="-629.3" font-family="Times,serif" font-size="14.00">PL5</text>
</g>
<!-- PL5&#45;&gt;transition5 -->
<g id="edge33" class="edge"><title>PL5&#45;&gt;transition5</title>
<path fill="none" stroke="black" d="M280,-614.697C280,-599.165 280,-577.324 280,-567.348"/>
<polygon fill="none" stroke="black" points="281.75,-567.092 280,-562.092 278.25,-567.092 281.75,-567.092"/>
</g>
<!-- transition4&#45;&gt;PL5 -->
<g id="edge32" class="edge"><title>transition4&#45;&gt;PL5</title>
<path fill="none" stroke="black" d="M284.996,-703.949C284.911,-702.748 283.316,-680.429 281.952,-661.321"/>
<polygon fill="black" stroke="black" points="285.432,-660.916 281.228,-651.191 278.449,-661.415 285.432,-660.916"/>
</g>
<!-- PL4 -->
<g id="node34" class="node"><title>PL4</title>
<ellipse fill="none" stroke="black" cx="334" cy="-633" rx="18" ry="18"/>
<text text-anchor="middle" x="334" y="-629.3" font-family="Times,serif" font-size="14.00">PL4</text>
</g>
<!-- transition4&#45;&gt;PL4 -->
<g id="edge40" class="edge"><title>transition4&#45;&gt;PL4</title>
<path fill="none" stroke="black" d="M285.036,-703.949C285.949,-702.644 304.311,-676.413 318.282,-656.455"/>
<polygon fill="black" stroke="black" points="321.257,-658.307 324.125,-648.108 315.523,-654.293 321.257,-658.307"/>
</g>
<!-- PL6&#45;&gt;transition3 -->
<g id="edge35" class="edge"><title>PL6&#45;&gt;transition3</title>
<path fill="none" stroke="black" d="M452.217,-506.66C442.606,-550.503 418,-672.816 418,-776 418,-832 418,-832 418,-832 418,-874.487 390.97,-921.085 381.915,-935.502"/>
<polygon fill="none" stroke="black" points="380.359,-934.686 379.112,-939.835 383.297,-936.588 380.359,-934.686"/>
</g>
<!-- transition1 -->
<g id="node33" class="node"><title>transition1</title>
<polygon fill="none" stroke="black" points="361,-832 325,-832 325,-831 361,-831 361,-832"/>
<text text-anchor="middle" x="316" y="-835.8" font-family="Times,serif" font-size="14.00">Ri&#45;</text>
</g>
<!-- PL2&#45;&gt;transition1 -->
<g id="edge37" class="edge"><title>PL2&#45;&gt;transition1</title>
<path fill="none" stroke="black" d="M349.836,-868.23C347.796,-857.419 345.283,-844.098 343.944,-837.004"/>
<polygon fill="none" stroke="black" points="345.658,-836.649 343.011,-832.06 342.219,-837.298 345.658,-836.649"/>
</g>
<!-- PL3 -->
<g id="node32" class="node"><title>PL3</title>
<ellipse fill="none" stroke="black" cx="334" cy="-777" rx="18" ry="18"/>
<text text-anchor="middle" x="334" y="-773.3" font-family="Times,serif" font-size="14.00">PL3</text>
</g>
<!-- PL3&#45;&gt;transition4 -->
<g id="edge39" class="edge"><title>PL3&#45;&gt;transition4</title>
<path fill="none" stroke="black" d="M324.084,-761.834C312.814,-745.735 295.071,-720.388 288.028,-710.325"/>
<polygon fill="none" stroke="black" points="289.372,-709.195 285.071,-706.102 286.505,-711.202 289.372,-709.195"/>
</g>
<!-- transition1&#45;&gt;PL3 -->
<g id="edge38" class="edge"><title>transition1&#45;&gt;PL3</title>
<path fill="none" stroke="black" d="M342.974,-830.848C342.723,-829.368 340.677,-817.319 338.602,-805.1"/>
<polygon fill="black" stroke="black" points="342.016,-804.298 336.891,-795.025 335.115,-805.47 342.016,-804.298"/>
</g>
<!-- transition2 -->
<g id="node35" class="node"><title>transition2</title>
<polygon fill="none" stroke="black" points="357,-561.5 321,-561.5 321,-560.5 357,-560.5 357,-561.5"/>
<text text-anchor="middle" x="310" y="-565.3" font-family="Times,serif" font-size="14.00">Ri+</text>
</g>
<!-- PL4&#45;&gt;transition2 -->
<g id="edge41" class="edge"><title>PL4&#45;&gt;transition2</title>
<path fill="none" stroke="black" d="M335.236,-614.697C336.345,-599.165 337.905,-577.324 338.618,-567.348"/>
<polygon fill="none" stroke="black" points="340.383,-567.204 338.993,-562.092 336.892,-566.955 340.383,-567.204"/>
</g>
<!-- transition2&#45;&gt;PL1 -->
<g id="edge42" class="edge"><title>transition2&#45;&gt;PL1</title>
<path fill="none" stroke="black" d="M339.085,-562.077C342.628,-565.301 456,-669.296 456,-776 456,-887 456,-887 456,-887 456,-915.422 447.231,-946.919 439.878,-968.335"/>
<polygon fill="black" stroke="black" points="436.501,-967.385 436.427,-977.98 443.091,-969.744 436.501,-967.385"/>
</g>
<!-- transition12 -->
<g id="node38" class="node"><title>transition12</title>
<polygon fill="none" stroke="black" points="352,-417.5 316,-417.5 316,-416.5 352,-416.5 352,-417.5"/>
<text text-anchor="middle" x="330.5" y="-421.3" font-family="Times,serif" font-size="14.00">R2o&#45;</text>
</g>
<!-- PL22&#45;&gt;transition12 -->
<g id="edge44" class="edge"><title>PL22&#45;&gt;transition12</title>
<path fill="none" stroke="black" d="M330.989,-470.697C331.876,-455.165 333.124,-433.324 333.694,-423.348"/>
<polygon fill="none" stroke="black" points="335.457,-423.184 333.995,-418.092 331.962,-422.984 335.457,-423.184"/>
</g>
<!-- PL23 -->
<g id="node37" class="node"><title>PL23</title>
<ellipse fill="none" stroke="black" cx="334" cy="-345" rx="18" ry="18"/>
<text text-anchor="middle" x="334" y="-341.3" font-family="Times,serif" font-size="14.00">PL23</text>
</g>
<!-- transition13 -->
<g id="node40" class="node"><title>transition13</title>
<polygon fill="none" stroke="black" points="352,-291 316,-291 316,-290 352,-290 352,-291"/>
<text text-anchor="middle" x="303" y="-294.8" font-family="Times,serif" font-size="14.00">A2i&#45;</text>
</g>
<!-- PL23&#45;&gt;transition13 -->
<g id="edge46" class="edge"><title>PL23&#45;&gt;transition13</title>
<path fill="none" stroke="black" d="M334,-326.939C334,-316.385 334,-303.534 334,-296.412"/>
<polygon fill="none" stroke="black" points="335.75,-296.059 334,-291.059 332.25,-296.059 335.75,-296.059"/>
</g>
<!-- transition12&#45;&gt;PL23 -->
<g id="edge45" class="edge"><title>transition12&#45;&gt;PL23</title>
<path fill="none" stroke="black" d="M334,-415.949C334,-414.748 334,-392.429 334,-373.321"/>
<polygon fill="black" stroke="black" points="337.5,-373.191 334,-363.191 330.5,-373.191 337.5,-373.191"/>
</g>
<!-- PL25 -->
<g id="node39" class="node"><title>PL25</title>
<ellipse fill="none" stroke="black" cx="364" cy="-236" rx="18" ry="18"/>
<text text-anchor="middle" x="364" y="-232.3" font-family="Times,serif" font-size="14.00">PL25</text>
</g>
<!-- PL25&#45;&gt;transition15 -->
<g id="edge48" class="edge"><title>PL25&#45;&gt;transition15</title>
<path fill="none" stroke="black" d="M364,-217.939C364,-207.385 364,-194.534 364,-187.412"/>
<polygon fill="none" stroke="black" points="365.75,-187.059 364,-182.059 362.25,-187.059 365.75,-187.059"/>
</g>
<!-- transition13&#45;&gt;PL25 -->
<g id="edge47" class="edge"><title>transition13&#45;&gt;PL25</title>
<path fill="none" stroke="black" d="M334.086,-289.848C334.996,-288.24 342.971,-274.152 350.457,-260.926"/>
<polygon fill="black" stroke="black" points="353.588,-262.499 355.468,-252.072 347.496,-259.051 353.588,-262.499"/>
</g>
<!-- PL24 -->
<g id="node41" class="node"><title>PL24</title>
<ellipse fill="none" stroke="black" cx="272" cy="-236" rx="18" ry="18"/>
<text text-anchor="middle" x="272" y="-232.3" font-family="Times,serif" font-size="14.00">PL24</text>
</g>
<!-- transition13&#45;&gt;PL24 -->
<g id="edge49" class="edge"><title>transition13&#45;&gt;PL24</title>
<path fill="none" stroke="black" d="M333.955,-289.962C332.823,-288.994 310.531,-269.938 293.009,-254.959"/>
<polygon fill="black" stroke="black" points="295.262,-252.281 285.386,-248.443 290.713,-257.601 295.262,-252.281"/>
</g>
<!-- PL24&#45;&gt;transition14 -->
<g id="edge50" class="edge"><title>PL24&#45;&gt;transition14</title>
<path fill="none" stroke="black" d="M258.037,-224.275C242.167,-212.085 217.182,-192.894 207.263,-185.275"/>
<polygon fill="none" stroke="black" points="208.132,-183.735 203.101,-182.077 206,-186.511 208.132,-183.735"/>
</g>
<!-- PL7&#45;&gt;transition14 -->
<g id="edge52" class="edge"><title>PL7&#45;&gt;transition14</title>
<path fill="none" stroke="black" d="M275.207,-399.539C269.947,-381.632 261.161,-352.192 253,-327 235.065,-271.642 211.315,-205.134 204.747,-186.852"/>
<polygon fill="none" stroke="black" points="206.362,-186.17 203.021,-182.058 203.069,-187.356 206.362,-186.17"/>
</g>
</g>
</svg>
