<?xml version="1.0" encoding="UTF-8" standalone="no"?>
<!DOCTYPE svg PUBLIC "-//W3C//DTD SVG 1.1//EN"
 "http://www.w3.org/Graphics/SVG/1.1/DTD/svg11.dtd">
<!-- Generated by graphviz version 2.38.0 (20140413.2041)
 -->
<!-- Title: %3 Pages: 1 -->
<svg width="477pt" height="1383pt"
 viewBox="0.00 0.00 477.00 1383.00" xmlns="http://www.w3.org/2000/svg" xmlns:xlink="http://www.w3.org/1999/xlink">
<g id="graph0" class="graph" transform="scale(1 1) rotate(0) translate(4 1379)">
<title>%3</title>
<polygon fill="white" stroke="none" points="-4,4 -4,-1379 473,-1379 473,4 -4,4"/>
<!-- PL1 -->
<g id="node1" class="node"><title>PL1</title>
<ellipse fill="none" stroke="black" cx="402" cy="-1357" rx="18" ry="18"/>
<text text-anchor="middle" x="402" y="-1353.3" font-family="Times,serif" font-size="14.00">PL1</text>
</g>
<!-- transition3 -->
<g id="node3" class="node"><title>transition3</title>
<polygon fill="none" stroke="black" points="332,-1303 296,-1303 296,-1302 332,-1302 332,-1303"/>
<text text-anchor="middle" x="283" y="-1306.8" font-family="Times,serif" font-size="14.00">Ao+</text>
</g>
<!-- PL1&#45;&gt;transition3 -->
<g id="edge1" class="edge"><title>PL1&#45;&gt;transition3</title>
<path fill="none" stroke="black" d="M386.672,-1346.77C366.254,-1334.47 331.247,-1313.39 318.67,-1305.81"/>
<polygon fill="none" stroke="black" points="319.323,-1304.16 314.137,-1303.08 317.517,-1307.16 319.323,-1304.16"/>
</g>
<!-- PL2 -->
<g id="node2" class="node"><title>PL2</title>
<ellipse fill="none" stroke="black" cx="291" cy="-1248" rx="18" ry="18"/>
<text text-anchor="middle" x="291" y="-1244.3" font-family="Times,serif" font-size="14.00">PL2</text>
</g>
<!-- transition1 -->
<g id="node5" class="node"><title>transition1</title>
<polygon fill="none" stroke="black" points="309,-1176.5 273,-1176.5 273,-1175.5 309,-1175.5 309,-1176.5"/>
<text text-anchor="middle" x="264" y="-1180.3" font-family="Times,serif" font-size="14.00">Ri&#45;</text>
</g>
<!-- PL2&#45;&gt;transition1 -->
<g id="edge3" class="edge"><title>PL2&#45;&gt;transition1</title>
<path fill="none" stroke="black" d="M291,-1229.7C291,-1214.17 291,-1192.32 291,-1182.35"/>
<polygon fill="none" stroke="black" points="292.75,-1182.09 291,-1177.09 289.25,-1182.09 292.75,-1182.09"/>
</g>
<!-- transition3&#45;&gt;PL2 -->
<g id="edge2" class="edge"><title>transition3&#45;&gt;PL2</title>
<path fill="none" stroke="black" d="M313.934,-1301.85C313.262,-1300.3 307.571,-1287.18 302.026,-1274.41"/>
<polygon fill="black" stroke="black" points="305.092,-1272.68 297.901,-1264.9 298.671,-1275.47 305.092,-1272.68"/>
</g>
<!-- PL26 -->
<g id="node12" class="node"><title>PL26</title>
<ellipse fill="none" stroke="black" cx="108" cy="-1176" rx="18" ry="18"/>
<text text-anchor="middle" x="108" y="-1172.3" font-family="Times,serif" font-size="14.00">PL26</text>
</g>
<!-- transition3&#45;&gt;PL26 -->
<g id="edge13" class="edge"><title>transition3&#45;&gt;PL26</title>
<path fill="none" stroke="black" d="M313.851,-1301.91C308.955,-1298.94 184.925,-1223.68 131.795,-1191.44"/>
<polygon fill="black" stroke="black" points="133.398,-1188.32 123.033,-1186.12 129.766,-1194.3 133.398,-1188.32"/>
</g>
<!-- PL3 -->
<g id="node4" class="node"><title>PL3</title>
<ellipse fill="none" stroke="black" cx="291" cy="-1104" rx="18" ry="18"/>
<text text-anchor="middle" x="291" y="-1100.3" font-family="Times,serif" font-size="14.00">PL3</text>
</g>
<!-- transition4 -->
<g id="node7" class="node"><title>transition4</title>
<polygon fill="none" stroke="black" points="309,-1050 273,-1050 273,-1049 309,-1049 309,-1050"/>
<text text-anchor="middle" x="262" y="-1053.8" font-family="Times,serif" font-size="14.00">Ao&#45;</text>
</g>
<!-- PL3&#45;&gt;transition4 -->
<g id="edge5" class="edge"><title>PL3&#45;&gt;transition4</title>
<path fill="none" stroke="black" d="M291,-1085.94C291,-1075.39 291,-1062.53 291,-1055.41"/>
<polygon fill="none" stroke="black" points="292.75,-1055.06 291,-1050.06 289.25,-1055.06 292.75,-1055.06"/>
</g>
<!-- transition1&#45;&gt;PL3 -->
<g id="edge4" class="edge"><title>transition1&#45;&gt;PL3</title>
<path fill="none" stroke="black" d="M291,-1174.95C291,-1173.75 291,-1151.43 291,-1132.32"/>
<polygon fill="black" stroke="black" points="294.5,-1132.19 291,-1122.19 287.5,-1132.19 294.5,-1132.19"/>
</g>
<!-- PL4 -->
<g id="node6" class="node"><title>PL4</title>
<ellipse fill="none" stroke="black" cx="423" cy="-995" rx="18" ry="18"/>
<text text-anchor="middle" x="423" y="-991.3" font-family="Times,serif" font-size="14.00">PL4</text>
</g>
<!-- transition2 -->
<g id="node8" class="node"><title>transition2</title>
<polygon fill="none" stroke="black" points="464,-941 428,-941 428,-940 464,-940 464,-941"/>
<text text-anchor="middle" x="417" y="-944.8" font-family="Times,serif" font-size="14.00">Ri+</text>
</g>
<!-- PL4&#45;&gt;transition2 -->
<g id="edge7" class="edge"><title>PL4&#45;&gt;transition2</title>
<path fill="none" stroke="black" d="M429.901,-978.098C434.721,-966.992 440.831,-952.912 443.956,-945.71"/>
<polygon fill="none" stroke="black" points="445.588,-946.346 445.973,-941.062 442.377,-944.952 445.588,-946.346"/>
</g>
<!-- transition4&#45;&gt;PL4 -->
<g id="edge6" class="edge"><title>transition4&#45;&gt;PL4</title>
<path fill="none" stroke="black" d="M291.164,-1048.95C294.537,-1047.94 349.16,-1031.53 391,-1013 393.502,-1011.89 396.078,-1010.67 398.63,-1009.4"/>
<polygon fill="black" stroke="black" points="400.329,-1012.47 407.596,-1004.76 397.107,-1006.25 400.329,-1012.47"/>
</g>
<!-- PL5 -->
<g id="node9" class="node"><title>PL5</title>
<ellipse fill="none" stroke="black" cx="287" cy="-995" rx="18" ry="18"/>
<text text-anchor="middle" x="287" y="-991.3" font-family="Times,serif" font-size="14.00">PL5</text>
</g>
<!-- transition4&#45;&gt;PL5 -->
<g id="edge9" class="edge"><title>transition4&#45;&gt;PL5</title>
<path fill="none" stroke="black" d="M290.989,-1048.85C290.877,-1047.37 289.967,-1035.32 289.045,-1023.1"/>
<polygon fill="black" stroke="black" points="292.528,-1022.73 288.285,-1013.02 285.547,-1023.26 292.528,-1022.73"/>
</g>
<!-- transition2&#45;&gt;PL1 -->
<g id="edge8" class="edge"><title>transition2&#45;&gt;PL1</title>
<path fill="none" stroke="black" d="M446.017,-941.043C446.713,-942.839 469,-1000.69 469,-1049 469,-1249 469,-1249 469,-1249 469,-1284.41 442.317,-1317.74 422.629,-1337.51"/>
<polygon fill="black" stroke="black" points="420.004,-1335.18 415.237,-1344.64 424.864,-1340.22 420.004,-1335.18"/>
</g>
<!-- transition5 -->
<g id="node11" class="node"><title>transition5</title>
<polygon fill="none" stroke="black" points="280,-941 244,-941 244,-940 280,-940 280,-941"/>
<text text-anchor="middle" x="233" y="-944.8" font-family="Times,serif" font-size="14.00">Rx&#45;</text>
</g>
<!-- PL5&#45;&gt;transition5 -->
<g id="edge10" class="edge"><title>PL5&#45;&gt;transition5</title>
<path fill="none" stroke="black" d="M279.634,-978.385C274.388,-967.263 267.681,-953.044 264.247,-945.764"/>
<polygon fill="none" stroke="black" points="265.746,-944.838 262.03,-941.063 262.58,-946.332 265.746,-944.838"/>
</g>
<!-- PL6 -->
<g id="node10" class="node"><title>PL6</title>
<ellipse fill="none" stroke="black" cx="331" cy="-886" rx="18" ry="18"/>
<text text-anchor="middle" x="331" y="-882.3" font-family="Times,serif" font-size="14.00">PL6</text>
</g>
<!-- PL6&#45;&gt;transition3 -->
<g id="edge12" class="edge"><title>PL6&#45;&gt;transition3</title>
<path fill="none" stroke="black" d="M332.545,-904.033C334.323,-925.131 337,-962.184 337,-994 337,-1177 337,-1177 337,-1177 337,-1224.35 320.838,-1280.15 315.61,-1296.96"/>
<polygon fill="none" stroke="black" points="313.872,-1296.65 314.017,-1301.95 317.206,-1297.72 313.872,-1296.65"/>
</g>
<!-- transition5&#45;&gt;PL6 -->
<g id="edge11" class="edge"><title>transition5&#45;&gt;PL6</title>
<path fill="none" stroke="black" d="M262.05,-939.962C263.343,-938.969 289.425,-918.934 309.13,-903.799"/>
<polygon fill="black" stroke="black" points="311.295,-906.549 317.094,-897.681 307.031,-900.997 311.295,-906.549"/>
</g>
<!-- PL7 -->
<g id="node18" class="node"><title>PL7</title>
<ellipse fill="none" stroke="black" cx="194" cy="-814" rx="18" ry="18"/>
<text text-anchor="middle" x="194" y="-810.3" font-family="Times,serif" font-size="14.00">PL7</text>
</g>
<!-- transition5&#45;&gt;PL7 -->
<g id="edge21" class="edge"><title>transition5&#45;&gt;PL7</title>
<path fill="none" stroke="black" d="M261.899,-939.962C259.823,-939.178 226.386,-926.288 212,-904 200.137,-885.621 195.846,-861.016 194.404,-842.336"/>
<polygon fill="black" stroke="black" points="197.886,-841.909 193.848,-832.113 190.896,-842.289 197.886,-841.909"/>
</g>
<!-- PL18 -->
<g id="node31" class="node"><title>PL18</title>
<ellipse fill="none" stroke="black" cx="140" cy="-886" rx="18" ry="18"/>
<text text-anchor="middle" x="140" y="-882.3" font-family="Times,serif" font-size="14.00">PL18</text>
</g>
<!-- transition5&#45;&gt;PL18 -->
<g id="edge37" class="edge"><title>transition5&#45;&gt;PL18</title>
<path fill="none" stroke="black" d="M261.867,-939.942C259.126,-938.756 214.722,-919.532 179,-904 174.692,-902.127 170.118,-900.136 165.676,-898.2"/>
<polygon fill="black" stroke="black" points="166.881,-894.907 156.316,-894.12 164.084,-901.324 166.881,-894.907"/>
</g>
<!-- PL22 -->
<g id="node37" class="node"><title>PL22</title>
<ellipse fill="none" stroke="black" cx="239" cy="-886" rx="18" ry="18"/>
<text text-anchor="middle" x="239" y="-882.3" font-family="Times,serif" font-size="14.00">PL22</text>
</g>
<!-- transition5&#45;&gt;PL22 -->
<g id="edge45" class="edge"><title>transition5&#45;&gt;PL22</title>
<path fill="none" stroke="black" d="M261.934,-939.848C261.262,-938.3 255.571,-925.185 250.026,-912.409"/>
<polygon fill="black" stroke="black" points="253.092,-910.682 245.901,-902.902 246.671,-913.469 253.092,-910.682"/>
</g>
<!-- transition16 -->
<g id="node14" class="node"><title>transition16</title>
<polygon fill="none" stroke="black" points="146,-435 110,-435 110,-434 146,-434 146,-435"/>
<text text-anchor="middle" x="97.5" y="-438.8" font-family="Times,serif" font-size="14.00">Rx+</text>
</g>
<!-- PL26&#45;&gt;transition16 -->
<g id="edge14" class="edge"><title>PL26&#45;&gt;transition16</title>
<path fill="none" stroke="black" d="M99.0959,-1160.2C86.239,-1137.39 64,-1091.87 64,-1050 64,-1050 64,-1050 64,-560 64,-506.721 110.637,-453.317 124.288,-438.825"/>
<polygon fill="none" stroke="black" points="125.729,-439.853 127.954,-435.046 123.216,-437.417 125.729,-439.853"/>
</g>
<!-- PL9 -->
<g id="node13" class="node"><title>PL9</title>
<ellipse fill="none" stroke="black" cx="213" cy="-380" rx="18" ry="18"/>
<text text-anchor="middle" x="213" y="-376.3" font-family="Times,serif" font-size="14.00">PL9</text>
</g>
<!-- PL9&#45;&gt;transition4 -->
<g id="edge16" class="edge"><title>PL9&#45;&gt;transition4</title>
<path fill="none" stroke="black" d="M226.974,-391.674C246.299,-407.14 281.05,-437.607 301,-471 335.389,-528.562 334.316,-548.974 346,-615 409.901,-976.117 369.464,-844.973 358,-904 348.04,-955.284 337.943,-966.567 314,-1013 307.809,-1025.01 298.786,-1038.15 294.094,-1044.74"/>
<polygon fill="none" stroke="black" points="292.56,-1043.87 291.041,-1048.94 295.394,-1045.92 292.56,-1043.87"/>
</g>
<!-- transition16&#45;&gt;PL9 -->
<g id="edge15" class="edge"><title>transition16&#45;&gt;PL9</title>
<path fill="none" stroke="black" d="M128.093,-433.942C130.011,-432.759 161.078,-413.58 186,-398 187.11,-397.306 188.244,-396.596 189.39,-395.878"/>
<polygon fill="black" stroke="black" points="191.551,-398.654 198.156,-390.37 187.827,-392.726 191.551,-398.654"/>
</g>
<!-- PL10 -->
<g id="node15" class="node"><title>PL10</title>
<ellipse fill="none" stroke="black" cx="116" cy="-308" rx="18" ry="18"/>
<text text-anchor="middle" x="116" y="-304.3" font-family="Times,serif" font-size="14.00">PL10</text>
</g>
<!-- transition16&#45;&gt;PL10 -->
<g id="edge17" class="edge"><title>transition16&#45;&gt;PL10</title>
<path fill="none" stroke="black" d="M127.991,-433.909C127.74,-431.29 122.093,-372.468 118.639,-336.491"/>
<polygon fill="black" stroke="black" points="122.086,-335.767 117.646,-326.147 115.118,-336.436 122.086,-335.767"/>
</g>
<!-- PL12 -->
<g id="node21" class="node"><title>PL12</title>
<ellipse fill="none" stroke="black" cx="65" cy="-380" rx="18" ry="18"/>
<text text-anchor="middle" x="65" y="-376.3" font-family="Times,serif" font-size="14.00">PL12</text>
</g>
<!-- transition16&#45;&gt;PL12 -->
<g id="edge25" class="edge"><title>transition16&#45;&gt;PL12</title>
<path fill="none" stroke="black" d="M127.954,-433.962C126.798,-432.988 103.898,-413.723 86.0478,-398.707"/>
<polygon fill="black" stroke="black" points="88.2036,-395.947 78.2981,-392.187 83.6972,-401.303 88.2036,-395.947"/>
</g>
<!-- PL15 -->
<g id="node26" class="node"><title>PL15</title>
<ellipse fill="none" stroke="black" cx="159" cy="-380" rx="18" ry="18"/>
<text text-anchor="middle" x="159" y="-376.3" font-family="Times,serif" font-size="14.00">PL15</text>
</g>
<!-- transition16&#45;&gt;PL15 -->
<g id="edge31" class="edge"><title>transition16&#45;&gt;PL15</title>
<path fill="none" stroke="black" d="M128.089,-433.848C129.035,-432.23 137.371,-417.978 145.148,-404.683"/>
<polygon fill="black" stroke="black" points="148.316,-406.198 150.344,-395.799 142.274,-402.663 148.316,-406.198"/>
</g>
<!-- transition8 -->
<g id="node17" class="node"><title>transition8</title>
<polygon fill="none" stroke="black" points="157,-73 121,-73 121,-72 157,-72 157,-73"/>
<text text-anchor="middle" x="108" y="-76.8" font-family="Times,serif" font-size="14.00">Ax+</text>
</g>
<!-- PL10&#45;&gt;transition8 -->
<g id="edge18" class="edge"><title>PL10&#45;&gt;transition8</title>
<path fill="none" stroke="black" d="M117.691,-289.793C122.43,-241.585 135.672,-106.86 138.475,-78.3445"/>
<polygon fill="none" stroke="black" points="140.241,-78.2654 138.988,-73.1182 136.758,-77.923 140.241,-78.2654"/>
</g>
<!-- PL11 -->
<g id="node16" class="node"><title>PL11</title>
<ellipse fill="none" stroke="black" cx="237" cy="-18" rx="18" ry="18"/>
<text text-anchor="middle" x="237" y="-14.3" font-family="Times,serif" font-size="14.00">PL11</text>
</g>
<!-- PL11&#45;&gt;transition5 -->
<g id="edge20" class="edge"><title>PL11&#45;&gt;transition5</title>
<path fill="none" stroke="black" d="M252.745,-26.886C280.448,-42.0051 335,-77.8864 335,-126 335,-381 335,-381 335,-381 335,-612.603 272.625,-893.671 263.19,-934.865"/>
<polygon fill="none" stroke="black" points="261.437,-934.678 262.013,-939.944 264.846,-935.468 261.437,-934.678"/>
</g>
<!-- transition8&#45;&gt;PL11 -->
<g id="edge19" class="edge"><title>transition8&#45;&gt;PL11</title>
<path fill="none" stroke="black" d="M139.071,-71.9616C141.05,-70.8914 183.932,-47.6999 212.289,-32.3643"/>
<polygon fill="black" stroke="black" points="214.137,-35.3437 221.268,-27.508 210.807,-29.1865 214.137,-35.3437"/>
</g>
<!-- transition14 -->
<g id="node20" class="node"><title>transition14</title>
<polygon fill="none" stroke="black" points="189,-561.5 153,-561.5 153,-560.5 189,-560.5 189,-561.5"/>
<text text-anchor="middle" x="142" y="-565.3" font-family="Times,serif" font-size="14.00">Ax&#45;</text>
</g>
<!-- PL7&#45;&gt;transition14 -->
<g id="edge22" class="edge"><title>PL7&#45;&gt;transition14</title>
<path fill="none" stroke="black" d="M192.419,-795.748C187.764,-744.941 174.257,-597.544 171.496,-567.417"/>
<polygon fill="none" stroke="black" points="173.211,-566.948 171.012,-562.129 169.725,-567.267 173.211,-566.948"/>
</g>
<!-- PL8 -->
<g id="node19" class="node"><title>PL8</title>
<ellipse fill="none" stroke="black" cx="158" cy="-489" rx="18" ry="18"/>
<text text-anchor="middle" x="158" y="-485.3" font-family="Times,serif" font-size="14.00">PL8</text>
</g>
<!-- PL8&#45;&gt;transition16 -->
<g id="edge24" class="edge"><title>PL8&#45;&gt;transition16</title>
<path fill="none" stroke="black" d="M149.483,-472.954C143.174,-461.807 134.968,-447.311 130.758,-439.873"/>
<polygon fill="none" stroke="black" points="132.022,-438.554 128.036,-435.064 128.977,-440.278 132.022,-438.554"/>
</g>
<!-- transition14&#45;&gt;PL8 -->
<g id="edge23" class="edge"><title>transition14&#45;&gt;PL8</title>
<path fill="none" stroke="black" d="M170.991,-559.949C170.765,-558.735 166.535,-535.959 162.963,-516.722"/>
<polygon fill="black" stroke="black" points="166.394,-516.032 161.127,-506.839 159.512,-517.31 166.394,-516.032"/>
</g>
<!-- transition11 -->
<g id="node23" class="node"><title>transition11</title>
<polygon fill="none" stroke="black" points="80,-308.5 44,-308.5 44,-307.5 80,-307.5 80,-308.5"/>
<text text-anchor="middle" x="28" y="-312.3" font-family="Times,serif" font-size="14.00">R1o+</text>
</g>
<!-- PL12&#45;&gt;transition11 -->
<g id="edge26" class="edge"><title>PL12&#45;&gt;transition11</title>
<path fill="none" stroke="black" d="M64.2584,-361.697C63.5928,-346.165 62.6567,-324.324 62.2292,-314.348"/>
<polygon fill="none" stroke="black" points="63.9665,-314.013 62.004,-309.092 60.4697,-314.163 63.9665,-314.013"/>
</g>
<!-- PL13 -->
<g id="node22" class="node"><title>PL13</title>
<ellipse fill="none" stroke="black" cx="66" cy="-236" rx="18" ry="18"/>
<text text-anchor="middle" x="66" y="-232.3" font-family="Times,serif" font-size="14.00">PL13</text>
</g>
<!-- transition6 -->
<g id="node25" class="node"><title>transition6</title>
<polygon fill="none" stroke="black" points="86,-182 50,-182 50,-181 86,-181 86,-182"/>
<text text-anchor="middle" x="35.5" y="-185.8" font-family="Times,serif" font-size="14.00">A1i+</text>
</g>
<!-- PL13&#45;&gt;transition6 -->
<g id="edge28" class="edge"><title>PL13&#45;&gt;transition6</title>
<path fill="none" stroke="black" d="M66.6438,-217.939C67.0421,-207.385 67.527,-194.534 67.7958,-187.412"/>
<polygon fill="none" stroke="black" points="69.5579,-187.122 67.9978,-182.059 66.0604,-186.99 69.5579,-187.122"/>
</g>
<!-- transition11&#45;&gt;PL13 -->
<g id="edge27" class="edge"><title>transition11&#45;&gt;PL13</title>
<path fill="none" stroke="black" d="M62.0029,-306.949C62.0716,-305.748 63.3469,-283.429 64.4388,-264.321"/>
<polygon fill="black" stroke="black" points="67.9414,-264.375 65.0176,-254.191 60.9528,-263.975 67.9414,-264.375"/>
</g>
<!-- PL14 -->
<g id="node24" class="node"><title>PL14</title>
<ellipse fill="none" stroke="black" cx="69" cy="-127" rx="18" ry="18"/>
<text text-anchor="middle" x="69" y="-123.3" font-family="Times,serif" font-size="14.00">PL14</text>
</g>
<!-- PL14&#45;&gt;transition8 -->
<g id="edge30" class="edge"><title>PL14&#45;&gt;transition8</title>
<path fill="none" stroke="black" d="M83.1655,-115.275C99.2652,-103.085 124.612,-83.8936 134.675,-76.2748"/>
<polygon fill="none" stroke="black" points="135.968,-77.4908 138.898,-73.0773 133.855,-74.7003 135.968,-77.4908"/>
</g>
<!-- transition6&#45;&gt;PL14 -->
<g id="edge29" class="edge"><title>transition6&#45;&gt;PL14</title>
<path fill="none" stroke="black" d="M68.0029,-180.848C68.0308,-179.368 68.2581,-167.319 68.4887,-155.1"/>
<polygon fill="black" stroke="black" points="71.9894,-155.089 68.6788,-145.025 64.9907,-154.957 71.9894,-155.089"/>
</g>
<!-- transition15 -->
<g id="node28" class="node"><title>transition15</title>
<polygon fill="none" stroke="black" points="188,-308.5 152,-308.5 152,-307.5 188,-307.5 188,-308.5"/>
<text text-anchor="middle" x="168" y="-312.3" font-family="Times,serif" font-size="14.00">R2o+</text>
</g>
<!-- PL15&#45;&gt;transition15 -->
<g id="edge32" class="edge"><title>PL15&#45;&gt;transition15</title>
<path fill="none" stroke="black" d="M161.663,-362.055C164.127,-346.376 167.637,-324.04 169.198,-314.104"/>
<polygon fill="none" stroke="black" points="170.938,-314.304 169.985,-309.093 167.48,-313.761 170.938,-314.304"/>
</g>
<!-- PL16 -->
<g id="node27" class="node"><title>PL16</title>
<ellipse fill="none" stroke="black" cx="168" cy="-236" rx="18" ry="18"/>
<text text-anchor="middle" x="168" y="-232.3" font-family="Times,serif" font-size="14.00">PL16</text>
</g>
<!-- transition7 -->
<g id="node30" class="node"><title>transition7</title>
<polygon fill="none" stroke="black" points="182,-182 146,-182 146,-181 182,-181 182,-182"/>
<text text-anchor="middle" x="131.5" y="-185.8" font-family="Times,serif" font-size="14.00">A2i+</text>
</g>
<!-- PL16&#45;&gt;transition7 -->
<g id="edge34" class="edge"><title>PL16&#45;&gt;transition7</title>
<path fill="none" stroke="black" d="M166.712,-217.939C165.916,-207.385 164.946,-194.534 164.408,-187.412"/>
<polygon fill="none" stroke="black" points="166.126,-186.913 164.004,-182.059 162.636,-187.177 166.126,-186.913"/>
</g>
<!-- transition15&#45;&gt;PL16 -->
<g id="edge33" class="edge"><title>transition15&#45;&gt;PL16</title>
<path fill="none" stroke="black" d="M169.999,-306.949C169.964,-305.748 169.327,-283.429 168.781,-264.321"/>
<polygon fill="black" stroke="black" points="172.275,-264.087 168.491,-254.191 165.278,-264.287 172.275,-264.087"/>
</g>
<!-- PL17 -->
<g id="node29" class="node"><title>PL17</title>
<ellipse fill="none" stroke="black" cx="163" cy="-127" rx="18" ry="18"/>
<text text-anchor="middle" x="163" y="-123.3" font-family="Times,serif" font-size="14.00">PL17</text>
</g>
<!-- PL17&#45;&gt;transition8 -->
<g id="edge36" class="edge"><title>PL17&#45;&gt;transition8</title>
<path fill="none" stroke="black" d="M155.929,-110.385C150.893,-99.2627 144.454,-85.0442 141.157,-77.7643"/>
<polygon fill="none" stroke="black" points="142.685,-76.8957 139.028,-73.0629 139.497,-78.3396 142.685,-76.8957"/>
</g>
<!-- transition7&#45;&gt;PL17 -->
<g id="edge35" class="edge"><title>transition7&#45;&gt;PL17</title>
<path fill="none" stroke="black" d="M163.997,-180.848C163.969,-179.368 163.742,-167.319 163.511,-155.1"/>
<polygon fill="black" stroke="black" points="167.009,-154.957 163.321,-145.025 160.011,-155.089 167.009,-154.957"/>
</g>
<!-- transition9 -->
<g id="node33" class="node"><title>transition9</title>
<polygon fill="none" stroke="black" points="158,-814.5 122,-814.5 122,-813.5 158,-813.5 158,-814.5"/>
<text text-anchor="middle" x="107.5" y="-818.3" font-family="Times,serif" font-size="14.00">R1o&#45;</text>
</g>
<!-- PL18&#45;&gt;transition9 -->
<g id="edge38" class="edge"><title>PL18&#45;&gt;transition9</title>
<path fill="none" stroke="black" d="M140,-867.697C140,-852.165 140,-830.324 140,-820.348"/>
<polygon fill="none" stroke="black" points="141.75,-820.092 140,-815.092 138.25,-820.092 141.75,-820.092"/>
</g>
<!-- PL19 -->
<g id="node32" class="node"><title>PL19</title>
<ellipse fill="none" stroke="black" cx="140" cy="-742" rx="18" ry="18"/>
<text text-anchor="middle" x="140" y="-738.3" font-family="Times,serif" font-size="14.00">PL19</text>
</g>
<!-- transition10 -->
<g id="node35" class="node"><title>transition10</title>
<polygon fill="none" stroke="black" points="158,-688 122,-688 122,-687 158,-687 158,-688"/>
<text text-anchor="middle" x="109" y="-691.8" font-family="Times,serif" font-size="14.00">A1i&#45;</text>
</g>
<!-- PL19&#45;&gt;transition10 -->
<g id="edge40" class="edge"><title>PL19&#45;&gt;transition10</title>
<path fill="none" stroke="black" d="M140,-723.939C140,-713.385 140,-700.534 140,-693.412"/>
<polygon fill="none" stroke="black" points="141.75,-693.059 140,-688.059 138.25,-693.059 141.75,-693.059"/>
</g>
<!-- transition9&#45;&gt;PL19 -->
<g id="edge39" class="edge"><title>transition9&#45;&gt;PL19</title>
<path fill="none" stroke="black" d="M140,-812.949C140,-811.748 140,-789.429 140,-770.321"/>
<polygon fill="black" stroke="black" points="143.5,-770.191 140,-760.191 136.5,-770.191 143.5,-770.191"/>
</g>
<!-- PL20 -->
<g id="node34" class="node"><title>PL20</title>
<ellipse fill="none" stroke="black" cx="148" cy="-633" rx="18" ry="18"/>
<text text-anchor="middle" x="148" y="-629.3" font-family="Times,serif" font-size="14.00">PL20</text>
</g>
<!-- PL20&#45;&gt;transition14 -->
<g id="edge42" class="edge"><title>PL20&#45;&gt;transition14</title>
<path fill="none" stroke="black" d="M153.334,-615.765C158.528,-599.958 166.104,-576.901 169.385,-566.914"/>
<polygon fill="none" stroke="black" points="171.07,-567.392 170.969,-562.096 167.745,-566.299 171.07,-567.392"/>
</g>
<!-- transition10&#45;&gt;PL20 -->
<g id="edge41" class="edge"><title>transition10&#45;&gt;PL20</title>
<path fill="none" stroke="black" d="M140.023,-686.848C140.246,-685.368 142.065,-673.319 143.909,-661.1"/>
<polygon fill="black" stroke="black" points="147.398,-661.435 145.43,-651.025 140.477,-660.39 147.398,-661.435"/>
</g>
<!-- PL21 -->
<g id="node36" class="node"><title>PL21</title>
<ellipse fill="none" stroke="black" cx="18" cy="-561" rx="18" ry="18"/>
<text text-anchor="middle" x="18" y="-557.3" font-family="Times,serif" font-size="14.00">PL21</text>
</g>
<!-- transition10&#45;&gt;PL21 -->
<g id="edge43" class="edge"><title>transition10&#45;&gt;PL21</title>
<path fill="none" stroke="black" d="M139.912,-686.909C137.161,-684.091 70.9372,-616.239 37.2731,-581.747"/>
<polygon fill="black" stroke="black" points="39.7247,-579.248 30.2353,-574.536 34.7152,-584.137 39.7247,-579.248"/>
</g>
<!-- PL21&#45;&gt;transition11 -->
<g id="edge44" class="edge"><title>PL21&#45;&gt;transition11</title>
<path fill="none" stroke="black" d="M17.8815,-542.98C18.0381,-508.301 20.4438,-427.224 38,-362 43.0867,-343.102 54.221,-322.451 59.3352,-313.525"/>
<polygon fill="none" stroke="black" points="60.9227,-314.278 61.9502,-309.081 57.9062,-312.503 60.9227,-314.278"/>
</g>
<!-- transition12 -->
<g id="node39" class="node"><title>transition12</title>
<polygon fill="none" stroke="black" points="266,-814.5 230,-814.5 230,-813.5 266,-813.5 266,-814.5"/>
<text text-anchor="middle" x="244.5" y="-818.3" font-family="Times,serif" font-size="14.00">R2o&#45;</text>
</g>
<!-- PL22&#45;&gt;transition12 -->
<g id="edge46" class="edge"><title>PL22&#45;&gt;transition12</title>
<path fill="none" stroke="black" d="M241.179,-868.055C243.195,-852.376 246.066,-830.04 247.344,-820.104"/>
<polygon fill="none" stroke="black" points="249.086,-820.276 247.988,-815.093 245.615,-819.829 249.086,-820.276"/>
</g>
<!-- PL23 -->
<g id="node38" class="node"><title>PL23</title>
<ellipse fill="none" stroke="black" cx="248" cy="-742" rx="18" ry="18"/>
<text text-anchor="middle" x="248" y="-738.3" font-family="Times,serif" font-size="14.00">PL23</text>
</g>
<!-- transition13 -->
<g id="node41" class="node"><title>transition13</title>
<polygon fill="none" stroke="black" points="266,-688 230,-688 230,-687 266,-687 266,-688"/>
<text text-anchor="middle" x="217" y="-691.8" font-family="Times,serif" font-size="14.00">A2i&#45;</text>
</g>
<!-- PL23&#45;&gt;transition13 -->
<g id="edge48" class="edge"><title>PL23&#45;&gt;transition13</title>
<path fill="none" stroke="black" d="M248,-723.939C248,-713.385 248,-700.534 248,-693.412"/>
<polygon fill="none" stroke="black" points="249.75,-693.059 248,-688.059 246.25,-693.059 249.75,-693.059"/>
</g>
<!-- transition12&#45;&gt;PL23 -->
<g id="edge47" class="edge"><title>transition12&#45;&gt;PL23</title>
<path fill="none" stroke="black" d="M248,-812.949C248,-811.748 248,-789.429 248,-770.321"/>
<polygon fill="black" stroke="black" points="251.5,-770.191 248,-760.191 244.5,-770.191 251.5,-770.191"/>
</g>
<!-- PL24 -->
<g id="node40" class="node"><title>PL24</title>
<ellipse fill="none" stroke="black" cx="240" cy="-633" rx="18" ry="18"/>
<text text-anchor="middle" x="240" y="-629.3" font-family="Times,serif" font-size="14.00">PL24</text>
</g>
<!-- PL24&#45;&gt;transition14 -->
<g id="edge50" class="edge"><title>PL24&#45;&gt;transition14</title>
<path fill="none" stroke="black" d="M227.664,-619.485C211.592,-603.18 184.39,-575.584 174.625,-565.678"/>
<polygon fill="none" stroke="black" points="175.863,-564.44 171.106,-562.108 173.37,-566.897 175.863,-564.44"/>
</g>
<!-- transition13&#45;&gt;PL24 -->
<g id="edge49" class="edge"><title>transition13&#45;&gt;PL24</title>
<path fill="none" stroke="black" d="M247.977,-686.848C247.754,-685.368 245.935,-673.319 244.091,-661.1"/>
<polygon fill="black" stroke="black" points="247.523,-660.39 242.57,-651.025 240.602,-661.435 247.523,-660.39"/>
</g>
<!-- PL25 -->
<g id="node42" class="node"><title>PL25</title>
<ellipse fill="none" stroke="black" cx="274" cy="-489" rx="18" ry="18"/>
<text text-anchor="middle" x="274" y="-485.3" font-family="Times,serif" font-size="14.00">PL25</text>
</g>
<!-- transition13&#45;&gt;PL25 -->
<g id="edge51" class="edge"><title>transition13&#45;&gt;PL25</title>
<path fill="none" stroke="black" d="M248.041,-686.946C248.883,-685.842 262.418,-667.917 267,-651 279.356,-605.388 278.454,-549.877 276.411,-517.387"/>
<polygon fill="black" stroke="black" points="279.894,-517.024 275.692,-507.298 272.912,-517.521 279.894,-517.024"/>
</g>
<!-- PL25&#45;&gt;transition15 -->
<g id="edge52" class="edge"><title>PL25&#45;&gt;transition15</title>
<path fill="none" stroke="black" d="M272.858,-470.649C270.428,-444.911 262.924,-396.005 240,-362 222.336,-335.797 187.375,-317.276 174.716,-311.179"/>
<polygon fill="none" stroke="black" points="175.412,-309.572 170.139,-309.06 173.941,-312.749 175.412,-309.572"/>
</g>
</g>
</svg>
