<?xml version="1.0" encoding="UTF-8" standalone="no"?>
<!DOCTYPE svg PUBLIC "-//W3C//DTD SVG 1.1//EN"
 "http://www.w3.org/Graphics/SVG/1.1/DTD/svg11.dtd">
<!-- Generated by graphviz version 2.38.0 (20140413.2041)
 -->
<!-- Title: %3 Pages: 1 -->
<svg width="466pt" height="1021pt"
 viewBox="0.00 0.00 466.00 1021.00" xmlns="http://www.w3.org/2000/svg" xmlns:xlink="http://www.w3.org/1999/xlink">
<g id="graph0" class="graph" transform="scale(1 1) rotate(0) translate(4 1017)">
<title>%3</title>
<polygon fill="white" stroke="none" points="-4,4 -4,-1017 462,-1017 462,4 -4,4"/>
<!-- PL1 -->
<g id="node1" class="node"><title>PL1</title>
<ellipse fill="none" stroke="black" cx="364" cy="-995" rx="18" ry="18"/>
<text text-anchor="middle" x="364" y="-991.3" font-family="Times,serif" font-size="14.00">PL1</text>
</g>
<!-- transition3 -->
<g id="node3" class="node"><title>transition3</title>
<polygon fill="none" stroke="black" points="313,-941 277,-941 277,-940 313,-940 313,-941"/>
<text text-anchor="middle" x="264" y="-944.8" font-family="Times,serif" font-size="14.00">Ao+</text>
</g>
<!-- PL1&#45;&gt;transition3 -->
<g id="edge1" class="edge"><title>PL1&#45;&gt;transition3</title>
<path fill="none" stroke="black" d="M350.037,-983.275C334.167,-971.085 309.182,-951.894 299.263,-944.275"/>
<polygon fill="none" stroke="black" points="300.132,-942.735 295.101,-941.077 298,-945.511 300.132,-942.735"/>
</g>
<!-- PL26 -->
<g id="node2" class="node"><title>PL26</title>
<ellipse fill="none" stroke="black" cx="195" cy="-886" rx="18" ry="18"/>
<text text-anchor="middle" x="195" y="-882.3" font-family="Times,serif" font-size="14.00">PL26</text>
</g>
<!-- transition16 -->
<g id="node5" class="node"><title>transition16</title>
<polygon fill="none" stroke="black" points="201,-832 165,-832 165,-831 201,-831 201,-832"/>
<text text-anchor="middle" x="152.5" y="-835.8" font-family="Times,serif" font-size="14.00">Rx+</text>
</g>
<!-- PL26&#45;&gt;transition16 -->
<g id="edge3" class="edge"><title>PL26&#45;&gt;transition16</title>
<path fill="none" stroke="black" d="M191.203,-868.23C188.755,-857.419 185.739,-844.098 184.133,-837.004"/>
<polygon fill="none" stroke="black" points="185.825,-836.55 183.014,-832.06 182.411,-837.323 185.825,-836.55"/>
</g>
<!-- transition3&#45;&gt;PL26 -->
<g id="edge2" class="edge"><title>transition3&#45;&gt;PL26</title>
<path fill="none" stroke="black" d="M294.928,-939.962C292.898,-938.886 248.689,-915.455 219.76,-900.123"/>
<polygon fill="black" stroke="black" points="221.093,-896.868 210.618,-895.278 217.815,-903.053 221.093,-896.868"/>
</g>
<!-- PL2 -->
<g id="node10" class="node"><title>PL2</title>
<ellipse fill="none" stroke="black" cx="272" cy="-886" rx="18" ry="18"/>
<text text-anchor="middle" x="272" y="-882.3" font-family="Times,serif" font-size="14.00">PL2</text>
</g>
<!-- transition3&#45;&gt;PL2 -->
<g id="edge10" class="edge"><title>transition3&#45;&gt;PL2</title>
<path fill="none" stroke="black" d="M294.934,-939.848C294.262,-938.3 288.571,-925.185 283.026,-912.409"/>
<polygon fill="black" stroke="black" points="286.092,-910.682 278.901,-902.902 279.671,-913.469 286.092,-910.682"/>
</g>
<!-- PL10 -->
<g id="node4" class="node"><title>PL10</title>
<ellipse fill="none" stroke="black" cx="126" cy="-777" rx="18" ry="18"/>
<text text-anchor="middle" x="126" y="-773.3" font-family="Times,serif" font-size="14.00">PL10</text>
</g>
<!-- transition8 -->
<g id="node7" class="node"><title>transition8</title>
<polygon fill="none" stroke="black" points="144,-705.5 108,-705.5 108,-704.5 144,-704.5 144,-705.5"/>
<text text-anchor="middle" x="95" y="-709.3" font-family="Times,serif" font-size="14.00">Ax+</text>
</g>
<!-- PL10&#45;&gt;transition8 -->
<g id="edge5" class="edge"><title>PL10&#45;&gt;transition8</title>
<path fill="none" stroke="black" d="M126,-758.697C126,-743.165 126,-721.324 126,-711.348"/>
<polygon fill="none" stroke="black" points="127.75,-711.092 126,-706.092 124.25,-711.092 127.75,-711.092"/>
</g>
<!-- transition16&#45;&gt;PL10 -->
<g id="edge4" class="edge"><title>transition16&#45;&gt;PL10</title>
<path fill="none" stroke="black" d="M182.836,-830.848C180.89,-829.038 161.95,-811.427 146.46,-797.024"/>
<polygon fill="black" stroke="black" points="148.49,-794.132 138.783,-789.886 143.723,-799.259 148.49,-794.132"/>
</g>
<!-- PL12 -->
<g id="node18" class="node"><title>PL12</title>
<ellipse fill="none" stroke="black" cx="440" cy="-561" rx="18" ry="18"/>
<text text-anchor="middle" x="440" y="-557.3" font-family="Times,serif" font-size="14.00">PL12</text>
</g>
<!-- transition16&#45;&gt;PL12 -->
<g id="edge20" class="edge"><title>transition16&#45;&gt;PL12</title>
<path fill="none" stroke="black" d="M183.051,-830.995C185.206,-830.792 254.506,-824.05 299,-795 369.963,-748.668 387.414,-727.445 424,-651 433.291,-631.586 437.22,-607.442 438.865,-589.201"/>
<polygon fill="black" stroke="black" points="442.356,-589.452 439.592,-579.223 435.374,-588.942 442.356,-589.452"/>
</g>
<!-- PL9 -->
<g id="node23" class="node"><title>PL9</title>
<ellipse fill="none" stroke="black" cx="218" cy="-777" rx="18" ry="18"/>
<text text-anchor="middle" x="218" y="-773.3" font-family="Times,serif" font-size="14.00">PL9</text>
</g>
<!-- transition16&#45;&gt;PL9 -->
<g id="edge26" class="edge"><title>transition16&#45;&gt;PL9</title>
<path fill="none" stroke="black" d="M183.1,-830.848C184.186,-829.204 193.879,-814.526 202.775,-801.055"/>
<polygon fill="black" stroke="black" points="205.817,-802.8 208.407,-792.526 199.976,-798.942 205.817,-802.8"/>
</g>
<!-- PL15 -->
<g id="node26" class="node"><title>PL15</title>
<ellipse fill="none" stroke="black" cx="23" cy="-705" rx="18" ry="18"/>
<text text-anchor="middle" x="23" y="-701.3" font-family="Times,serif" font-size="14.00">PL15</text>
</g>
<!-- transition16&#45;&gt;PL15 -->
<g id="edge31" class="edge"><title>transition16&#45;&gt;PL15</title>
<path fill="none" stroke="black" d="M182.852,-830.965C179.813,-830.243 130.691,-818.323 99,-795 74.1659,-776.723 52.0676,-748.839 38.1887,-729.161"/>
<polygon fill="black" stroke="black" points="40.9614,-727.017 32.41,-720.762 35.1944,-730.984 40.9614,-727.017"/>
</g>
<!-- PL11 -->
<g id="node6" class="node"><title>PL11</title>
<ellipse fill="none" stroke="black" cx="218" cy="-633" rx="18" ry="18"/>
<text text-anchor="middle" x="218" y="-629.3" font-family="Times,serif" font-size="14.00">PL11</text>
</g>
<!-- transition5 -->
<g id="node9" class="node"><title>transition5</title>
<polygon fill="none" stroke="black" points="288,-561.5 252,-561.5 252,-560.5 288,-560.5 288,-561.5"/>
<text text-anchor="middle" x="241" y="-565.3" font-family="Times,serif" font-size="14.00">Rx&#45;</text>
</g>
<!-- PL11&#45;&gt;transition5 -->
<g id="edge7" class="edge"><title>PL11&#45;&gt;transition5</title>
<path fill="none" stroke="black" d="M228.274,-618.17C240.202,-602.113 259.204,-576.534 266.754,-566.37"/>
<polygon fill="none" stroke="black" points="268.346,-567.161 269.923,-562.103 265.537,-565.073 268.346,-567.161"/>
</g>
<!-- transition8&#45;&gt;PL11 -->
<g id="edge6" class="edge"><title>transition8&#45;&gt;PL11</title>
<path fill="none" stroke="black" d="M126.067,-703.949C127.952,-702.515 169.391,-670.985 195.984,-650.751"/>
<polygon fill="black" stroke="black" points="198.188,-653.472 204.027,-644.631 193.95,-647.901 198.188,-653.472"/>
</g>
<!-- PL6 -->
<g id="node8" class="node"><title>PL6</title>
<ellipse fill="none" stroke="black" cx="368" cy="-489" rx="18" ry="18"/>
<text text-anchor="middle" x="368" y="-485.3" font-family="Times,serif" font-size="14.00">PL6</text>
</g>
<!-- PL6&#45;&gt;transition3 -->
<g id="edge9" class="edge"><title>PL6&#45;&gt;transition3</title>
<path fill="none" stroke="black" d="M359.061,-504.735C344.679,-529.884 318,-583.125 318,-632 318,-832 318,-832 318,-832 318,-872.761 302.134,-920.315 296.757,-935.26"/>
<polygon fill="none" stroke="black" points="295.113,-934.661 295.017,-939.957 298.395,-935.877 295.113,-934.661"/>
</g>
<!-- transition5&#45;&gt;PL6 -->
<g id="edge8" class="edge"><title>transition5&#45;&gt;PL6</title>
<path fill="none" stroke="black" d="M270.071,-559.949C272.099,-558.501 317.069,-526.379 345.356,-506.174"/>
<polygon fill="black" stroke="black" points="347.43,-508.994 353.533,-500.333 343.361,-503.298 347.43,-508.994"/>
</g>
<!-- PL7 -->
<g id="node15" class="node"><title>PL7</title>
<ellipse fill="none" stroke="black" cx="272" cy="-417" rx="18" ry="18"/>
<text text-anchor="middle" x="272" y="-413.3" font-family="Times,serif" font-size="14.00">PL7</text>
</g>
<!-- transition5&#45;&gt;PL7 -->
<g id="edge16" class="edge"><title>transition5&#45;&gt;PL7</title>
<path fill="none" stroke="black" d="M270.001,-559.897C270.045,-556.821 271.049,-485.53 271.617,-445.195"/>
<polygon fill="black" stroke="black" points="275.117,-445.243 271.758,-435.195 268.117,-445.144 275.117,-445.243"/>
</g>
<!-- PL22 -->
<g id="node31" class="node"><title>PL22</title>
<ellipse fill="none" stroke="black" cx="218" cy="-489" rx="18" ry="18"/>
<text text-anchor="middle" x="218" y="-485.3" font-family="Times,serif" font-size="14.00">PL22</text>
</g>
<!-- transition5&#45;&gt;PL22 -->
<g id="edge37" class="edge"><title>transition5&#45;&gt;PL22</title>
<path fill="none" stroke="black" d="M269.962,-559.949C268.988,-558.638 249.332,-532.177 234.482,-512.187"/>
<polygon fill="black" stroke="black" points="237.253,-510.048 228.48,-504.108 231.634,-514.222 237.253,-510.048"/>
</g>
<!-- PL18 -->
<g id="node37" class="node"><title>PL18</title>
<ellipse fill="none" stroke="black" cx="314" cy="-489" rx="18" ry="18"/>
<text text-anchor="middle" x="314" y="-485.3" font-family="Times,serif" font-size="14.00">PL18</text>
</g>
<!-- transition5&#45;&gt;PL18 -->
<g id="edge45" class="edge"><title>transition5&#45;&gt;PL18</title>
<path fill="none" stroke="black" d="M270.032,-559.949C270.84,-558.664 286.833,-533.219 299.3,-513.386"/>
<polygon fill="black" stroke="black" points="302.354,-515.105 304.712,-504.776 296.427,-511.379 302.354,-515.105"/>
</g>
<!-- transition1 -->
<g id="node12" class="node"><title>transition1</title>
<polygon fill="none" stroke="black" points="290,-832 254,-832 254,-831 290,-831 290,-832"/>
<text text-anchor="middle" x="245" y="-835.8" font-family="Times,serif" font-size="14.00">Ri&#45;</text>
</g>
<!-- PL2&#45;&gt;transition1 -->
<g id="edge11" class="edge"><title>PL2&#45;&gt;transition1</title>
<path fill="none" stroke="black" d="M272,-867.939C272,-857.385 272,-844.534 272,-837.412"/>
<polygon fill="none" stroke="black" points="273.75,-837.059 272,-832.059 270.25,-837.059 273.75,-837.059"/>
</g>
<!-- PL3 -->
<g id="node11" class="node"><title>PL3</title>
<ellipse fill="none" stroke="black" cx="272" cy="-777" rx="18" ry="18"/>
<text text-anchor="middle" x="272" y="-773.3" font-family="Times,serif" font-size="14.00">PL3</text>
</g>
<!-- transition4 -->
<g id="node14" class="node"><title>transition4</title>
<polygon fill="none" stroke="black" points="290,-705.5 254,-705.5 254,-704.5 290,-704.5 290,-705.5"/>
<text text-anchor="middle" x="243" y="-709.3" font-family="Times,serif" font-size="14.00">Ao&#45;</text>
</g>
<!-- PL3&#45;&gt;transition4 -->
<g id="edge13" class="edge"><title>PL3&#45;&gt;transition4</title>
<path fill="none" stroke="black" d="M272,-758.697C272,-743.165 272,-721.324 272,-711.348"/>
<polygon fill="none" stroke="black" points="273.75,-711.092 272,-706.092 270.25,-711.092 273.75,-711.092"/>
</g>
<!-- transition1&#45;&gt;PL3 -->
<g id="edge12" class="edge"><title>transition1&#45;&gt;PL3</title>
<path fill="none" stroke="black" d="M272,-830.848C272,-829.368 272,-817.319 272,-805.1"/>
<polygon fill="black" stroke="black" points="275.5,-805.025 272,-795.025 268.5,-805.025 275.5,-805.025"/>
</g>
<!-- PL5 -->
<g id="node13" class="node"><title>PL5</title>
<ellipse fill="none" stroke="black" cx="272" cy="-633" rx="18" ry="18"/>
<text text-anchor="middle" x="272" y="-629.3" font-family="Times,serif" font-size="14.00">PL5</text>
</g>
<!-- PL5&#45;&gt;transition5 -->
<g id="edge15" class="edge"><title>PL5&#45;&gt;transition5</title>
<path fill="none" stroke="black" d="M271.506,-614.697C271.062,-599.165 270.438,-577.324 270.153,-567.348"/>
<polygon fill="none" stroke="black" points="271.895,-567.04 270.003,-562.092 268.396,-567.14 271.895,-567.04"/>
</g>
<!-- transition4&#45;&gt;PL5 -->
<g id="edge14" class="edge"><title>transition4&#45;&gt;PL5</title>
<path fill="none" stroke="black" d="M272,-703.949C272,-702.748 272,-680.429 272,-661.321"/>
<polygon fill="black" stroke="black" points="275.5,-661.191 272,-651.191 268.5,-661.191 275.5,-661.191"/>
</g>
<!-- PL4 -->
<g id="node24" class="node"><title>PL4</title>
<ellipse fill="none" stroke="black" cx="364" cy="-633" rx="18" ry="18"/>
<text text-anchor="middle" x="364" y="-629.3" font-family="Times,serif" font-size="14.00">PL4</text>
</g>
<!-- transition4&#45;&gt;PL4 -->
<g id="edge28" class="edge"><title>transition4&#45;&gt;PL4</title>
<path fill="none" stroke="black" d="M272.067,-703.949C273.952,-702.515 315.391,-670.985 341.984,-650.751"/>
<polygon fill="black" stroke="black" points="344.188,-653.472 350.027,-644.631 339.95,-647.901 344.188,-653.472"/>
</g>
<!-- transition14 -->
<g id="node17" class="node"><title>transition14</title>
<polygon fill="none" stroke="black" points="259,-182 223,-182 223,-181 259,-181 259,-182"/>
<text text-anchor="middle" x="212" y="-185.8" font-family="Times,serif" font-size="14.00">Ax&#45;</text>
</g>
<!-- PL7&#45;&gt;transition14 -->
<g id="edge17" class="edge"><title>PL7&#45;&gt;transition14</title>
<path fill="none" stroke="black" d="M269.72,-398.793C263.334,-350.585 245.486,-215.86 241.708,-187.344"/>
<polygon fill="none" stroke="black" points="243.407,-186.845 241.016,-182.118 239.938,-187.305 243.407,-186.845"/>
</g>
<!-- PL8 -->
<g id="node16" class="node"><title>PL8</title>
<ellipse fill="none" stroke="black" cx="210" cy="-127" rx="18" ry="18"/>
<text text-anchor="middle" x="210" y="-123.3" font-family="Times,serif" font-size="14.00">PL8</text>
</g>
<!-- PL8&#45;&gt;transition16 -->
<g id="edge19" class="edge"><title>PL8&#45;&gt;transition16</title>
<path fill="none" stroke="black" d="M200.995,-142.996C189.757,-163.168 172,-200.502 172,-235 172,-706 172,-706 172,-706 172,-752.75 179.729,-808.957 182.23,-825.917"/>
<polygon fill="none" stroke="black" points="180.513,-826.268 182.992,-830.95 183.974,-825.744 180.513,-826.268"/>
</g>
<!-- transition14&#45;&gt;PL8 -->
<g id="edge18" class="edge"><title>transition14&#45;&gt;PL8</title>
<path fill="none" stroke="black" d="M240.911,-180.848C239.965,-179.23 231.629,-164.978 223.852,-151.683"/>
<polygon fill="black" stroke="black" points="226.726,-149.663 218.656,-142.799 220.684,-153.198 226.726,-149.663"/>
</g>
<!-- transition11 -->
<g id="node20" class="node"><title>transition11</title>
<polygon fill="none" stroke="black" points="382,-182 346,-182 346,-181 382,-181 382,-182"/>
<text text-anchor="middle" x="330" y="-185.8" font-family="Times,serif" font-size="14.00">R1o+</text>
</g>
<!-- PL12&#45;&gt;transition11 -->
<g id="edge21" class="edge"><title>PL12&#45;&gt;transition11</title>
<path fill="none" stroke="black" d="M434.987,-543.564C427.432,-517.297 414,-464.115 414,-418 414,-418 414,-418 414,-290 414,-256.407 406.404,-247.853 391,-218 384.476,-205.355 373.569,-192.482 367.818,-186.105"/>
<polygon fill="none" stroke="black" points="368.737,-184.524 364.051,-182.053 366.174,-186.907 368.737,-184.524"/>
</g>
<!-- PL13 -->
<g id="node19" class="node"><title>PL13</title>
<ellipse fill="none" stroke="black" cx="314" cy="-127" rx="18" ry="18"/>
<text text-anchor="middle" x="314" y="-123.3" font-family="Times,serif" font-size="14.00">PL13</text>
</g>
<!-- transition6 -->
<g id="node22" class="node"><title>transition6</title>
<polygon fill="none" stroke="black" points="265,-73 229,-73 229,-72 265,-72 265,-73"/>
<text text-anchor="middle" x="214.5" y="-76.8" font-family="Times,serif" font-size="14.00">A1i+</text>
</g>
<!-- PL13&#45;&gt;transition6 -->
<g id="edge23" class="edge"><title>PL13&#45;&gt;transition6</title>
<path fill="none" stroke="black" d="M300.118,-115.018C284.671,-102.799 260.632,-83.7836 251.097,-76.2409"/>
<polygon fill="none" stroke="black" points="252.104,-74.806 247.097,-73.0765 249.932,-77.551 252.104,-74.806"/>
</g>
<!-- transition11&#45;&gt;PL13 -->
<g id="edge22" class="edge"><title>transition11&#45;&gt;PL13</title>
<path fill="none" stroke="black" d="M363.857,-180.848C362.194,-179.086 346.394,-162.338 333.02,-148.161"/>
<polygon fill="black" stroke="black" points="335.353,-145.533 325.944,-140.661 330.261,-150.337 335.353,-145.533"/>
</g>
<!-- PL14 -->
<g id="node21" class="node"><title>PL14</title>
<ellipse fill="none" stroke="black" cx="149" cy="-18" rx="18" ry="18"/>
<text text-anchor="middle" x="149" y="-14.3" font-family="Times,serif" font-size="14.00">PL14</text>
</g>
<!-- PL14&#45;&gt;transition8 -->
<g id="edge25" class="edge"><title>PL14&#45;&gt;transition8</title>
<path fill="none" stroke="black" d="M145.137,-35.9464C140.693,-56.9579 134,-93.9238 134,-126 134,-562 134,-562 134,-562 134,-615.473 128.275,-680.094 126.511,-698.735"/>
<polygon fill="none" stroke="black" points="124.747,-698.797 126.006,-703.943 128.231,-699.135 124.747,-698.797"/>
</g>
<!-- transition6&#45;&gt;PL14 -->
<g id="edge24" class="edge"><title>transition6&#45;&gt;PL14</title>
<path fill="none" stroke="black" d="M246.929,-71.9616C244.95,-70.8914 202.068,-47.6999 173.711,-32.3643"/>
<polygon fill="black" stroke="black" points="175.193,-29.1865 164.732,-27.508 171.863,-35.3437 175.193,-29.1865"/>
</g>
<!-- PL9&#45;&gt;transition4 -->
<g id="edge27" class="edge"><title>PL9&#45;&gt;transition4</title>
<path fill="none" stroke="black" d="M228.669,-762.17C241.175,-745.959 261.168,-720.041 268.852,-710.081"/>
<polygon fill="none" stroke="black" points="270.252,-711.131 271.92,-706.103 267.481,-708.993 270.252,-711.131"/>
</g>
<!-- transition2 -->
<g id="node25" class="node"><title>transition2</title>
<polygon fill="none" stroke="black" points="397,-561.5 361,-561.5 361,-560.5 397,-560.5 397,-561.5"/>
<text text-anchor="middle" x="350" y="-565.3" font-family="Times,serif" font-size="14.00">Ri+</text>
</g>
<!-- PL4&#45;&gt;transition2 -->
<g id="edge29" class="edge"><title>PL4&#45;&gt;transition2</title>
<path fill="none" stroke="black" d="M367.631,-615.055C370.991,-599.376 375.777,-577.04 377.906,-567.104"/>
<polygon fill="none" stroke="black" points="379.643,-567.349 378.98,-562.093 376.221,-566.616 379.643,-567.349"/>
</g>
<!-- transition2&#45;&gt;PL1 -->
<g id="edge30" class="edge"><title>transition2&#45;&gt;PL1</title>
<path fill="none" stroke="black" d="M379.022,-562.056C379.961,-564.416 410,-640.412 410,-704 410,-887 410,-887 410,-887 410,-918.176 393.314,-950.612 380.041,-971.481"/>
<polygon fill="black" stroke="black" points="377.04,-969.674 374.438,-979.945 382.877,-973.539 377.04,-969.674"/>
</g>
<!-- transition15 -->
<g id="node28" class="node"><title>transition15</title>
<polygon fill="none" stroke="black" points="68,-182 32,-182 32,-181 68,-181 68,-182"/>
<text text-anchor="middle" x="16" y="-185.8" font-family="Times,serif" font-size="14.00">R2o+</text>
</g>
<!-- PL15&#45;&gt;transition15 -->
<g id="edge32" class="edge"><title>PL15&#45;&gt;transition15</title>
<path fill="none" stroke="black" d="M19.2462,-687.049C13.709,-660.521 4,-607.517 4,-562 4,-562 4,-562 4,-290 4,-256.905 8.58215,-247.79 23,-218 29.3305,-204.92 40.7151,-191.843 46.4677,-185.669"/>
<polygon fill="none" stroke="black" points="47.742,-186.869 49.9473,-182.052 45.2196,-184.442 47.742,-186.869"/>
</g>
<!-- PL16 -->
<g id="node27" class="node"><title>PL16</title>
<ellipse fill="none" stroke="black" cx="50" cy="-127" rx="18" ry="18"/>
<text text-anchor="middle" x="50" y="-123.3" font-family="Times,serif" font-size="14.00">PL16</text>
</g>
<!-- transition7 -->
<g id="node30" class="node"><title>transition7</title>
<polygon fill="none" stroke="black" points="68,-73 32,-73 32,-72 68,-72 68,-73"/>
<text text-anchor="middle" x="17.5" y="-76.8" font-family="Times,serif" font-size="14.00">A2i+</text>
</g>
<!-- PL16&#45;&gt;transition7 -->
<g id="edge34" class="edge"><title>PL16&#45;&gt;transition7</title>
<path fill="none" stroke="black" d="M50,-108.939C50,-98.3852 50,-85.5344 50,-78.4124"/>
<polygon fill="none" stroke="black" points="51.7501,-78.0591 50,-73.0591 48.2501,-78.0592 51.7501,-78.0591"/>
</g>
<!-- transition15&#45;&gt;PL16 -->
<g id="edge33" class="edge"><title>transition15&#45;&gt;PL16</title>
<path fill="none" stroke="black" d="M50,-180.848C50,-179.368 50,-167.319 50,-155.1"/>
<polygon fill="black" stroke="black" points="53.5001,-155.025 50,-145.025 46.5001,-155.025 53.5001,-155.025"/>
</g>
<!-- PL17 -->
<g id="node29" class="node"><title>PL17</title>
<ellipse fill="none" stroke="black" cx="80" cy="-18" rx="18" ry="18"/>
<text text-anchor="middle" x="80" y="-14.3" font-family="Times,serif" font-size="14.00">PL17</text>
</g>
<!-- PL17&#45;&gt;transition8 -->
<g id="edge36" class="edge"><title>PL17&#45;&gt;transition8</title>
<path fill="none" stroke="black" d="M84.0375,-35.5656C88.7773,-56.4973 96,-93.6934 96,-126 96,-562 96,-562 96,-562 96,-616.567 117.469,-680.431 124.083,-698.813"/>
<polygon fill="none" stroke="black" points="122.604,-699.86 125.978,-703.944 125.887,-698.647 122.604,-699.86"/>
</g>
<!-- transition7&#45;&gt;PL17 -->
<g id="edge35" class="edge"><title>transition7&#45;&gt;PL17</title>
<path fill="none" stroke="black" d="M50.0861,-71.848C50.9964,-70.2397 58.9708,-56.1515 66.4567,-42.9264"/>
<polygon fill="black" stroke="black" points="69.5883,-44.4992 71.4684,-34.0725 63.4965,-41.0509 69.5883,-44.4992"/>
</g>
<!-- transition12 -->
<g id="node33" class="node"><title>transition12</title>
<polygon fill="none" stroke="black" points="236,-417.5 200,-417.5 200,-416.5 236,-416.5 236,-417.5"/>
<text text-anchor="middle" x="185.5" y="-421.3" font-family="Times,serif" font-size="14.00">R2o&#45;</text>
</g>
<!-- PL22&#45;&gt;transition12 -->
<g id="edge38" class="edge"><title>PL22&#45;&gt;transition12</title>
<path fill="none" stroke="black" d="M218,-470.697C218,-455.165 218,-433.324 218,-423.348"/>
<polygon fill="none" stroke="black" points="219.75,-423.092 218,-418.092 216.25,-423.092 219.75,-423.092"/>
</g>
<!-- PL23 -->
<g id="node32" class="node"><title>PL23</title>
<ellipse fill="none" stroke="black" cx="218" cy="-345" rx="18" ry="18"/>
<text text-anchor="middle" x="218" y="-341.3" font-family="Times,serif" font-size="14.00">PL23</text>
</g>
<!-- transition13 -->
<g id="node35" class="node"><title>transition13</title>
<polygon fill="none" stroke="black" points="236,-291 200,-291 200,-290 236,-290 236,-291"/>
<text text-anchor="middle" x="187" y="-294.8" font-family="Times,serif" font-size="14.00">A2i&#45;</text>
</g>
<!-- PL23&#45;&gt;transition13 -->
<g id="edge40" class="edge"><title>PL23&#45;&gt;transition13</title>
<path fill="none" stroke="black" d="M218,-326.939C218,-316.385 218,-303.534 218,-296.412"/>
<polygon fill="none" stroke="black" points="219.75,-296.059 218,-291.059 216.25,-296.059 219.75,-296.059"/>
</g>
<!-- transition12&#45;&gt;PL23 -->
<g id="edge39" class="edge"><title>transition12&#45;&gt;PL23</title>
<path fill="none" stroke="black" d="M218,-415.949C218,-414.748 218,-392.429 218,-373.321"/>
<polygon fill="black" stroke="black" points="221.5,-373.191 218,-363.191 214.5,-373.191 221.5,-373.191"/>
</g>
<!-- PL25 -->
<g id="node34" class="node"><title>PL25</title>
<ellipse fill="none" stroke="black" cx="50" cy="-236" rx="18" ry="18"/>
<text text-anchor="middle" x="50" y="-232.3" font-family="Times,serif" font-size="14.00">PL25</text>
</g>
<!-- PL25&#45;&gt;transition15 -->
<g id="edge42" class="edge"><title>PL25&#45;&gt;transition15</title>
<path fill="none" stroke="black" d="M50,-217.939C50,-207.385 50,-194.534 50,-187.412"/>
<polygon fill="none" stroke="black" points="51.7501,-187.059 50,-182.059 48.2501,-187.059 51.7501,-187.059"/>
</g>
<!-- transition13&#45;&gt;PL25 -->
<g id="edge41" class="edge"><title>transition13&#45;&gt;PL25</title>
<path fill="none" stroke="black" d="M217.878,-289.962C214.1,-288.77 123.341,-260.137 76.88,-245.48"/>
<polygon fill="black" stroke="black" points="77.7449,-242.083 67.1552,-242.412 75.6389,-248.759 77.7449,-242.083"/>
</g>
<!-- PL24 -->
<g id="node36" class="node"><title>PL24</title>
<ellipse fill="none" stroke="black" cx="218" cy="-236" rx="18" ry="18"/>
<text text-anchor="middle" x="218" y="-232.3" font-family="Times,serif" font-size="14.00">PL24</text>
</g>
<!-- transition13&#45;&gt;PL24 -->
<g id="edge43" class="edge"><title>transition13&#45;&gt;PL24</title>
<path fill="none" stroke="black" d="M218,-289.848C218,-288.368 218,-276.319 218,-264.1"/>
<polygon fill="black" stroke="black" points="221.5,-264.025 218,-254.025 214.5,-264.025 221.5,-264.025"/>
</g>
<!-- PL24&#45;&gt;transition14 -->
<g id="edge44" class="edge"><title>PL24&#45;&gt;transition14</title>
<path fill="none" stroke="black" d="M224.901,-219.098C229.721,-207.992 235.831,-193.912 238.956,-186.71"/>
<polygon fill="none" stroke="black" points="240.588,-187.346 240.973,-182.062 237.377,-185.952 240.588,-187.346"/>
</g>
<!-- transition9 -->
<g id="node39" class="node"><title>transition9</title>
<polygon fill="none" stroke="black" points="344,-417.5 308,-417.5 308,-416.5 344,-416.5 344,-417.5"/>
<text text-anchor="middle" x="322.5" y="-421.3" font-family="Times,serif" font-size="14.00">R1o&#45;</text>
</g>
<!-- PL18&#45;&gt;transition9 -->
<g id="edge46" class="edge"><title>PL18&#45;&gt;transition9</title>
<path fill="none" stroke="black" d="M316.905,-471.055C319.593,-455.376 323.422,-433.04 325.125,-423.104"/>
<polygon fill="none" stroke="black" points="326.864,-423.317 325.984,-418.093 323.414,-422.726 326.864,-423.317"/>
</g>
<!-- PL19 -->
<g id="node38" class="node"><title>PL19</title>
<ellipse fill="none" stroke="black" cx="326" cy="-345" rx="18" ry="18"/>
<text text-anchor="middle" x="326" y="-341.3" font-family="Times,serif" font-size="14.00">PL19</text>
</g>
<!-- transition10 -->
<g id="node41" class="node"><title>transition10</title>
<polygon fill="none" stroke="black" points="344,-291 308,-291 308,-290 344,-290 344,-291"/>
<text text-anchor="middle" x="295" y="-294.8" font-family="Times,serif" font-size="14.00">A1i&#45;</text>
</g>
<!-- PL19&#45;&gt;transition10 -->
<g id="edge48" class="edge"><title>PL19&#45;&gt;transition10</title>
<path fill="none" stroke="black" d="M326,-326.939C326,-316.385 326,-303.534 326,-296.412"/>
<polygon fill="none" stroke="black" points="327.75,-296.059 326,-291.059 324.25,-296.059 327.75,-296.059"/>
</g>
<!-- transition9&#45;&gt;PL19 -->
<g id="edge47" class="edge"><title>transition9&#45;&gt;PL19</title>
<path fill="none" stroke="black" d="M326,-415.949C326,-414.748 326,-392.429 326,-373.321"/>
<polygon fill="black" stroke="black" points="329.5,-373.191 326,-363.191 322.5,-373.191 329.5,-373.191"/>
</g>
<!-- PL21 -->
<g id="node40" class="node"><title>PL21</title>
<ellipse fill="none" stroke="black" cx="364" cy="-236" rx="18" ry="18"/>
<text text-anchor="middle" x="364" y="-232.3" font-family="Times,serif" font-size="14.00">PL21</text>
</g>
<!-- PL21&#45;&gt;transition11 -->
<g id="edge50" class="edge"><title>PL21&#45;&gt;transition11</title>
<path fill="none" stroke="black" d="M364,-217.939C364,-207.385 364,-194.534 364,-187.412"/>
<polygon fill="none" stroke="black" points="365.75,-187.059 364,-182.059 362.25,-187.059 365.75,-187.059"/>
</g>
<!-- transition10&#45;&gt;PL21 -->
<g id="edge49" class="edge"><title>transition10&#45;&gt;PL21</title>
<path fill="none" stroke="black" d="M326.109,-289.848C327.313,-288.169 338.274,-272.881 348.099,-259.177"/>
<polygon fill="black" stroke="black" points="350.99,-261.152 353.972,-250.986 345.301,-257.073 350.99,-261.152"/>
</g>
<!-- PL20 -->
<g id="node42" class="node"><title>PL20</title>
<ellipse fill="none" stroke="black" cx="310" cy="-236" rx="18" ry="18"/>
<text text-anchor="middle" x="310" y="-232.3" font-family="Times,serif" font-size="14.00">PL20</text>
</g>
<!-- transition10&#45;&gt;PL20 -->
<g id="edge51" class="edge"><title>transition10&#45;&gt;PL20</title>
<path fill="none" stroke="black" d="M325.954,-289.848C325.497,-288.334 321.701,-275.761 317.927,-263.259"/>
<polygon fill="black" stroke="black" points="321.21,-262.023 314.969,-253.461 314.509,-264.046 321.21,-262.023"/>
</g>
<!-- PL20&#45;&gt;transition14 -->
<g id="edge52" class="edge"><title>PL20&#45;&gt;transition14</title>
<path fill="none" stroke="black" d="M296.037,-224.275C280.167,-212.085 255.182,-192.894 245.263,-185.275"/>
<polygon fill="none" stroke="black" points="246.132,-183.735 241.101,-182.077 244,-186.511 246.132,-183.735"/>
</g>
</g>
</svg>
