<?xml version="1.0" encoding="UTF-8" standalone="no"?>
<!-- Generated by graphviz version 2.38.0 (20140413.2041)
 -->

<!-- Title: %3 Pages: 1 -->

<svg
   xmlns:dc="http://purl.org/dc/elements/1.1/"
   xmlns:cc="http://creativecommons.org/ns#"
   xmlns:rdf="http://www.w3.org/1999/02/22-rdf-syntax-ns#"
   xmlns:svg="http://www.w3.org/2000/svg"
   xmlns="http://www.w3.org/2000/svg"
   xmlns:sodipodi="http://sodipodi.sourceforge.net/DTD/sodipodi-0.dtd"
   xmlns:inkscape="http://www.inkscape.org/namespaces/inkscape"
   width="338pt"
   height="735pt"
   viewBox="0.00 0.00 338.00 735.00"
   id="svg3631"
   version="1.1"
   inkscape:version="0.48.5 r10040"
   sodipodi:docname="I2C.svg">
  <metadata
     id="metadata4237">
    <rdf:RDF>
      <cc:Work
         rdf:about="">
        <dc:format>image/svg+xml</dc:format>
        <dc:type
           rdf:resource="http://purl.org/dc/dcmitype/StillImage" />
      </cc:Work>
    </rdf:RDF>
  </metadata>
  <defs
     id="defs4235" />
  <sodipodi:namedview
     pagecolor="#ffffff"
     bordercolor="#666666"
     borderopacity="1"
     objecttolerance="10"
     gridtolerance="10"
     guidetolerance="10"
     inkscape:pageopacity="0"
     inkscape:pageshadow="2"
     inkscape:window-width="1412"
     inkscape:window-height="965"
     id="namedview4233"
     showgrid="false"
     inkscape:zoom="0.82612245"
     inkscape:cx="211.25"
     inkscape:cy="459.375"
     inkscape:window-x="0"
     inkscape:window-y="0"
     inkscape:window-maximized="0"
     inkscape:current-layer="graph0" />
  <g
     id="graph0"
     class="graph"
     transform="scale(1 1) rotate(0) translate(4 731)">
    <title
       id="title3634">%3</title>
    <!-- p1 -->
    <g
       id="node1"
       class="node">
      <title
         id="title3639">p1</title>
      <ellipse
         fill="none"
         stroke="black"
         cx="161"
         cy="-709"
         rx="18"
         ry="18"
         id="ellipse3641" />
      <text
         text-anchor="middle"
         x="161"
         y="-705.3"
         font-family="Times,serif"
         font-size="14.00"
         id="text3643">p1</text>
    </g>
    <!-- transition10 -->
    <polygon
       style="fill:none;stroke:#000000"
       id="polygon3648"
       points="120,-654 156,-654 156,-655 156,-655 120,-655 " />
    <text
       style="font-size:14px;text-anchor:middle;font-family:'Times,serif'"
       id="text3650"
       font-size="14.00"
       y="-640.43042"
       x="96.973557">[SDA-]CLK+</text>
    <!-- p1&#45;&gt;transition10 -->
    <g
       id="edge1"
       class="edge">
      <title
         id="title3653">p1-&gt;transition10</title>
      <path
         fill="none"
         stroke="black"
         d="M154.099,-692.098C149.279,-680.992 143.169,-666.912 140.044,-659.71"
         id="path3655" />
      <polygon
         fill="none"
         stroke="black"
         points="141.623,-658.952 138.027,-655.062 138.412,-660.346 141.623,-658.952"
         id="polygon3657" />
    </g>
    <!-- transition0 -->
    <polygon
       style="fill:none;stroke:#000000"
       id="polygon3662"
       points="212,-654 248,-654 248,-655 248,-655 212,-655 " />
    <text
       style="font-size:14px;text-anchor:middle;font-family:'Times,serif'"
       id="text3664"
       font-size="14.00"
       y="-639.79144"
       x="270.51526">[SDA+]CLK+</text>
    <!-- p1&#45;&gt;transition0 -->
    <g
       id="edge25"
       class="edge">
      <title
         id="title3667">p1-&gt;transition0</title>
      <path
         fill="none"
         stroke="black"
         d="M174.963,-697.275C190.833,-685.085 215.818,-665.894 225.737,-658.275"
         id="path3669" />
      <polygon
         fill="none"
         stroke="black"
         points="227,-659.511 229.899,-655.077 224.868,-656.735 227,-659.511"
         id="polygon3671" />
    </g>
    <!-- p10 -->
    <g
       id="node2"
       class="node">
      <title
         id="title3674">p10</title>
      <ellipse
         fill="none"
         stroke="black"
         cx="138"
         cy="-600"
         rx="18"
         ry="18"
         id="ellipse3676" />
      <text
         text-anchor="middle"
         x="138"
         y="-596.3"
         font-family="Times,serif"
         font-size="14.00"
         id="text3678">p10</text>
    </g>
    <!-- transition12 -->
    <polygon
       style="fill:none;stroke:#000000"
       id="polygon3683"
       points="66,-545 102,-545 102,-546 102,-546 66,-546 " />
    <text
       style="font-size:14px;text-anchor:middle;font-family:'Times,serif'"
       id="text3685"
       font-size="14.00"
       y="-549.03058"
       x="65.081024">CLK-</text>
    <!-- p10&#45;&gt;transition12 -->
    <g
       id="edge3"
       class="edge">
      <title
         id="title3688">p10-&gt;transition12</title>
      <path
         fill="none"
         stroke="black"
         d="M125.476,-586.708C113.402,-574.858 95.8468,-557.627 88.0229,-549.948"
         id="path3690" />
      <polygon
         fill="none"
         stroke="black"
         points="88.868,-548.326 84.0737,-546.072 86.4163,-550.824 88.868,-548.326"
         id="polygon3692" />
    </g>
    <!-- transition11 -->
    <polygon
       style="fill:none;stroke:#000000"
       id="polygon3697"
       points="120,-545 156,-545 156,-546 156,-546 120,-546 " />
    <text
       style="font-size:14px;text-anchor:middle;font-family:'Times,serif'"
       id="text3699"
       font-size="14.00"
       y="-551.33887"
       x="120.88867">aux+</text>
    <!-- p10&#45;&gt;transition11 -->
    <g
       id="edge13"
       class="edge">
      <title
         id="title3702">p10-&gt;transition11</title>
      <path
         fill="none"
         stroke="black"
         d="M138,-581.939C138,-571.385 138,-558.534 138,-551.412"
         id="path3704" />
      <polygon
         fill="none"
         stroke="black"
         points="139.75,-551.059 138,-546.059 136.25,-551.059 139.75,-551.059"
         id="polygon3706" />
    </g>
    <!-- transition10&#45;&gt;p10 -->
    <g
       id="edge2"
       class="edge">
      <title
         id="title3709">transition10-&gt;p10</title>
      <path
         fill="none"
         stroke="black"
         d="M138,-653.848C138,-652.368 138,-640.319 138,-628.1"
         id="path3711" />
      <polygon
         fill="black"
         stroke="black"
         points="141.5,-628.025 138,-618.025 134.5,-628.025 141.5,-628.025"
         id="polygon3713" />
    </g>
    <!-- p12 -->
    <g
       id="node4"
       class="node">
      <title
         id="title3716">p12</title>
      <ellipse
         fill="none"
         stroke="black"
         cx="84"
         cy="-491"
         rx="18"
         ry="18"
         id="ellipse3718" />
      <text
         text-anchor="middle"
         x="84"
         y="-487.3"
         font-family="Times,serif"
         font-size="14.00"
         id="text3720">p12</text>
    </g>
    <!-- transition13 -->
    <polygon
       style="fill:none;stroke:#000000"
       id="polygon3725"
       points="66,-436 102,-436 102,-437 102,-437 66,-437 " />
    <text
       style="font-size:14px;text-anchor:middle;font-family:'Times,serif'"
       id="text3727"
       font-size="14.00"
       y="-440.79999"
       x="64.272728">a+b+</text>
    <!-- p12&#45;&gt;transition13 -->
    <g
       id="edge5"
       class="edge">
      <title
         id="title3730">p12-&gt;transition13</title>
      <path
         fill="none"
         stroke="black"
         d="M84,-472.939C84,-462.385 84,-449.534 84,-442.412"
         id="path3732" />
      <polygon
         fill="none"
         stroke="black"
         points="85.7501,-442.059 84,-437.059 82.2501,-442.059 85.7501,-442.059"
         id="polygon3734" />
    </g>
    <!-- transition12&#45;&gt;p12 -->
    <g
       id="edge4"
       class="edge">
      <title
         id="title3737">transition12-&gt;p12</title>
      <path
         fill="none"
         stroke="black"
         d="M84,-544.848C84,-543.368 84,-531.319 84,-519.1"
         id="path3739" />
      <polygon
         fill="black"
         stroke="black"
         points="87.5001,-519.025 84,-509.025 80.5001,-519.025 87.5001,-519.025"
         id="polygon3741" />
    </g>
    <!-- p13 -->
    <g
       id="node6"
       class="node">
      <title
         id="title3744">p13</title>
      <ellipse
         fill="none"
         stroke="black"
         cx="84"
         cy="-382"
         rx="18"
         ry="18"
         id="ellipse3746" />
      <text
         text-anchor="middle"
         x="84"
         y="-378.3"
         font-family="Times,serif"
         font-size="14.00"
         id="text3748">p13</text>
    </g>
    <!-- transition14 -->
    <polygon
       style="fill:none;stroke:#000000"
       id="polygon3753"
       points="66,-327 102,-327 102,-328 102,-328 66,-328 " />
    <text
       style="font-size:14px;text-anchor:middle;font-family:'Times,serif'"
       id="text3755"
       font-size="14.00"
       y="-331.2229"
       x="62.04216">CLK+</text>
    <!-- p13&#45;&gt;transition14 -->
    <g
       id="edge7"
       class="edge">
      <title
         id="title3758">p13-&gt;transition14</title>
      <path
         fill="none"
         stroke="black"
         d="M84,-363.939C84,-353.385 84,-340.534 84,-333.412"
         id="path3760" />
      <polygon
         fill="none"
         stroke="black"
         points="85.7501,-333.059 84,-328.059 82.2501,-333.059 85.7501,-333.059"
         id="polygon3762" />
    </g>
    <!-- transition13&#45;&gt;p13 -->
    <g
       id="edge6"
       class="edge">
      <title
         id="title3765">transition13-&gt;p13</title>
      <path
         fill="none"
         stroke="black"
         d="M84,-435.848C84,-434.368 84,-422.319 84,-410.1"
         id="path3767" />
      <polygon
         fill="black"
         stroke="black"
         points="87.5001,-410.025 84,-400.025 80.5001,-410.025 87.5001,-410.025"
         id="polygon3769" />
    </g>
    <!-- p14 -->
    <g
       id="node8"
       class="node">
      <title
         id="title3772">p14</title>
      <ellipse
         fill="none"
         stroke="black"
         cx="84"
         cy="-273"
         rx="18"
         ry="18"
         id="ellipse3774" />
      <text
         text-anchor="middle"
         x="84"
         y="-269.3"
         font-family="Times,serif"
         font-size="14.00"
         id="text3776">p14</text>
    </g>
    <!-- transition15 -->
    <polygon
       style="fill:none;stroke:#000000"
       id="polygon3781"
       points="66,-218 102,-218 102,-219 102,-219 66,-219 " />
    <text
       style="font-size:14px;text-anchor:middle;font-family:'Times,serif'"
       id="text3783"
       font-size="14.00"
       y="-222.22293"
       x="61.0415">CLK-</text>
    <!-- p14&#45;&gt;transition15 -->
    <g
       id="edge9"
       class="edge">
      <title
         id="title3786">p14-&gt;transition15</title>
      <path
         fill="none"
         stroke="black"
         d="M84,-254.939C84,-244.385 84,-231.534 84,-224.412"
         id="path3788" />
      <polygon
         fill="none"
         stroke="black"
         points="85.7501,-224.059 84,-219.059 82.2501,-224.059 85.7501,-224.059"
         id="polygon3790" />
    </g>
    <!-- transition14&#45;&gt;p14 -->
    <g
       id="edge8"
       class="edge">
      <title
         id="title3793">transition14-&gt;p14</title>
      <path
         fill="none"
         stroke="black"
         d="M84,-326.848C84,-325.368 84,-313.319 84,-301.1"
         id="path3795" />
      <polygon
         fill="black"
         stroke="black"
         points="87.5001,-301.025 84,-291.025 80.5001,-301.025 87.5001,-301.025"
         id="polygon3797" />
    </g>
    <!-- p15 -->
    <g
       id="node10"
       class="node">
      <title
         id="title3800">p15</title>
      <ellipse
         fill="none"
         stroke="black"
         cx="84"
         cy="-164"
         rx="18"
         ry="18"
         id="ellipse3802" />
      <text
         text-anchor="middle"
         x="84"
         y="-160.3"
         font-family="Times,serif"
         font-size="14.00"
         id="text3804">p15</text>
    </g>
    <!-- transition16 -->
    <polygon
       style="fill:none;stroke:#000000"
       id="polygon3809"
       points="47,-109 83,-109 83,-110 83,-110 47,-110 " />
    <text
       style="font-size:14px;text-anchor:middle;font-family:'Times,serif'"
       id="text3811"
       font-size="14.00"
       y="-98.026619"
       x="66.277336">a-b-</text>
    <!-- p15&#45;&gt;transition16 -->
    <g
       id="edge11"
       class="edge">
      <title
         id="title3814">p15-&gt;transition16</title>
      <path
         fill="none"
         stroke="black"
         d="M78.1961,-146.81C74.3056,-135.958 69.4352,-122.372 66.8357,-115.121"
         id="path3816" />
      <polygon
         fill="none"
         stroke="black"
         points="68.3567,-114.177 65.022,-110.061 65.062,-115.359 68.3567,-114.177"
         id="polygon3818" />
    </g>
    <!-- transition15&#45;&gt;p15 -->
    <g
       id="edge10"
       class="edge">
      <title
         id="title3821">transition15-&gt;p15</title>
      <path
         fill="none"
         stroke="black"
         d="M84,-217.848C84,-216.368 84,-204.319 84,-192.1"
         id="path3823" />
      <polygon
         fill="black"
         stroke="black"
         points="87.5001,-192.025 84,-182.025 80.5001,-192.025 87.5001,-192.025"
         id="polygon3825" />
    </g>
    <!-- transition16&#45;&gt;p1 -->
    <g
       id="edge12"
       class="edge">
      <title
         id="title3828">transition16-&gt;p1</title>
      <path
         fill="none"
         stroke="black"
         d="M64.9225,-110.169C63.3389,-113.649 38,-170.069 38,-218 38,-601 38,-601 38,-601 38,-651.837 98.5483,-684.01 134.682,-698.684"
         id="path3830" />
      <polygon
         fill="black"
         stroke="black"
         points="133.566,-702.005 144.155,-702.36 136.099,-695.479 133.566,-702.005"
         id="polygon3832" />
    </g>
    <!-- p11 -->
    <g
       id="node13"
       class="node">
      <title
         id="title3835">p11</title>
      <ellipse
         fill="none"
         stroke="black"
         cx="138"
         cy="-491"
         rx="18"
         ry="18"
         id="ellipse3837" />
      <text
         text-anchor="middle"
         x="138"
         y="-487.3"
         font-family="Times,serif"
         font-size="14.00"
         id="text3839">p11</text>
    </g>
    <!-- transition17 -->
    <polygon
       style="fill:none;stroke:#000000"
       id="polygon3844"
       points="120,-436 156,-436 156,-437 156,-437 120,-437 " />
    <text
       style="font-size:14px;text-anchor:middle;font-family:'Times,serif'"
       id="text3846"
       font-size="14.00"
       y="-440.2229"
       x="116.58037">CLK-</text>
    <!-- p11&#45;&gt;transition17 -->
    <g
       id="edge15"
       class="edge">
      <title
         id="title3849">p11-&gt;transition17</title>
      <path
         fill="none"
         stroke="black"
         d="M138,-472.939C138,-462.385 138,-449.534 138,-442.412"
         id="path3851" />
      <polygon
         fill="none"
         stroke="black"
         points="139.75,-442.059 138,-437.059 136.25,-442.059 139.75,-442.059"
         id="polygon3853" />
    </g>
    <!-- transition11&#45;&gt;p11 -->
    <g
       id="edge14"
       class="edge">
      <title
         id="title3856">transition11-&gt;p11</title>
      <path
         fill="none"
         stroke="black"
         d="M138,-544.848C138,-543.368 138,-531.319 138,-519.1"
         id="path3858" />
      <polygon
         fill="black"
         stroke="black"
         points="141.5,-519.025 138,-509.025 134.5,-519.025 141.5,-519.025"
         id="polygon3860" />
    </g>
    <!-- p16 -->
    <g
       id="node15"
       class="node">
      <title
         id="title3863">p16</title>
      <ellipse
         fill="none"
         stroke="black"
         cx="138"
         cy="-382"
         rx="18"
         ry="18"
         id="ellipse3865" />
      <text
         text-anchor="middle"
         x="138"
         y="-378.3"
         font-family="Times,serif"
         font-size="14.00"
         id="text3867">p16</text>
    </g>
    <!-- transition18 -->
    <polygon
       style="fill:none;stroke:#000000"
       id="polygon3872"
       points="120,-327 156,-327 156,-328 156,-328 120,-328 " />
    <text
       style="font-size:14px;text-anchor:middle;font-family:'Times,serif'"
       id="text3874"
       font-size="14.00"
       y="-331.60764"
       x="126.15745">b+</text>
    <!-- p16&#45;&gt;transition18 -->
    <g
       id="edge17"
       class="edge">
      <title
         id="title3877">p16-&gt;transition18</title>
      <path
         fill="none"
         stroke="black"
         d="M138,-363.939C138,-353.385 138,-340.534 138,-333.412"
         id="path3879" />
      <polygon
         fill="none"
         stroke="black"
         points="139.75,-333.059 138,-328.059 136.25,-333.059 139.75,-333.059"
         id="polygon3881" />
    </g>
    <!-- transition17&#45;&gt;p16 -->
    <g
       id="edge16"
       class="edge">
      <title
         id="title3884">transition17-&gt;p16</title>
      <path
         fill="none"
         stroke="black"
         d="M138,-435.848C138,-434.368 138,-422.319 138,-410.1"
         id="path3886" />
      <polygon
         fill="black"
         stroke="black"
         points="141.5,-410.025 138,-400.025 134.5,-410.025 141.5,-410.025"
         id="polygon3888" />
    </g>
    <!-- p17 -->
    <g
       id="node17"
       class="node">
      <title
         id="title3891">p17</title>
      <ellipse
         fill="none"
         stroke="black"
         cx="138"
         cy="-273"
         rx="18"
         ry="18"
         id="ellipse3893" />
      <text
         text-anchor="middle"
         x="138"
         y="-269.3"
         font-family="Times,serif"
         font-size="14.00"
         id="text3895">p17</text>
    </g>
    <!-- transition19 -->
    <polygon
       style="fill:none;stroke:#000000"
       id="polygon3900"
       points="120,-218 156,-218 156,-219 156,-219 120,-219 " />
    <text
       style="font-size:14px;text-anchor:middle;font-family:'Times,serif'"
       id="text3902"
       font-size="14.00"
       y="-223.37708"
       x="115.8498">CLK+</text>
    <!-- p17&#45;&gt;transition19 -->
    <g
       id="edge19"
       class="edge">
      <title
         id="title3905">p17-&gt;transition19</title>
      <path
         fill="none"
         stroke="black"
         d="M138,-254.939C138,-244.385 138,-231.534 138,-224.412"
         id="path3907" />
      <polygon
         fill="none"
         stroke="black"
         points="139.75,-224.059 138,-219.059 136.25,-224.059 139.75,-224.059"
         id="polygon3909" />
    </g>
    <!-- transition18&#45;&gt;p17 -->
    <g
       id="edge18"
       class="edge">
      <title
         id="title3912">transition18-&gt;p17</title>
      <path
         fill="none"
         stroke="black"
         d="M138,-326.848C138,-325.368 138,-313.319 138,-301.1"
         id="path3914" />
      <polygon
         fill="black"
         stroke="black"
         points="141.5,-301.025 138,-291.025 134.5,-301.025 141.5,-301.025"
         id="polygon3916" />
    </g>
    <!-- p18 -->
    <g
       id="node19"
       class="node">
      <title
         id="title3919">p18</title>
      <ellipse
         fill="none"
         stroke="black"
         cx="138"
         cy="-164"
         rx="18"
         ry="18"
         id="ellipse3921" />
      <text
         text-anchor="middle"
         x="138"
         y="-160.3"
         font-family="Times,serif"
         font-size="14.00"
         id="text3923">p18</text>
    </g>
    <!-- transition20 -->
    <polygon
       style="fill:none;stroke:#000000"
       id="polygon3928"
       points="111,-109 147,-109 147,-110 147,-110 111,-110 " />
    <text
       style="font-size:14px;text-anchor:middle;font-family:'Times,serif'"
       id="text3930"
       font-size="14.00"
       y="-97.064827"
       x="159.71278">CLK-aux-</text>
    <!-- p18&#45;&gt;transition20 -->
    <g
       id="edge21"
       class="edge">
      <title
         id="title3933">p18-&gt;transition20</title>
      <path
         fill="none"
         stroke="black"
         d="M135.103,-145.939C133.311,-135.385 131.128,-122.534 129.919,-115.412"
         id="path3935" />
      <polygon
         fill="none"
         stroke="black"
         points="131.572,-114.696 129.01,-110.059 128.122,-115.282 131.572,-114.696"
         id="polygon3937" />
    </g>
    <!-- transition19&#45;&gt;p18 -->
    <g
       id="edge20"
       class="edge">
      <title
         id="title3940">transition19-&gt;p18</title>
      <path
         fill="none"
         stroke="black"
         d="M138,-217.848C138,-216.368 138,-204.319 138,-192.1"
         id="path3942" />
      <polygon
         fill="black"
         stroke="black"
         points="141.5,-192.025 138,-182.025 134.5,-192.025 141.5,-192.025"
         id="polygon3944" />
    </g>
    <!-- p19 -->
    <g
       id="node21"
       class="node">
      <title
         id="title3947">p19</title>
      <ellipse
         fill="none"
         stroke="black"
         cx="99"
         cy="-55"
         rx="18"
         ry="18"
         id="ellipse3949" />
      <text
         text-anchor="middle"
         x="99"
         y="-51.3"
         font-family="Times,serif"
         font-size="14.00"
         id="text3951">p19</text>
    </g>
    <!-- transition21 -->
    <polygon
       style="fill:none;stroke:#000000"
       id="polygon3956"
       points="12,0 48,0 48,-1 48,-1 12,-1 " />
    <text
       style="font-size:14px;text-anchor:middle;font-family:'Times,serif'"
       id="text3958"
       font-size="14.00"
       y="-4.2229252"
       x="12.540184">b-</text>
    <!-- p19&#45;&gt;transition21 -->
    <g
       id="edge23"
       class="edge">
      <title
         id="title3961">p19-&gt;transition21</title>
      <path
         fill="none"
         stroke="black"
         d="M85.0368,-43.2747C69.1671,-31.0849 44.1822,-11.8936 34.2634,-4.27477"
         id="path3963" />
      <polygon
         fill="none"
         stroke="black"
         points="35.132,-2.73528 30.1007,-1.07732 32.9999,-5.51098 35.132,-2.73528"
         id="polygon3965" />
    </g>
    <!-- transition20&#45;&gt;p19 -->
    <g
       id="edge22"
       class="edge">
      <title
         id="title3968">transition20-&gt;p19</title>
      <path
         fill="none"
         stroke="black"
         d="M128.914,-108.848C128.004,-107.24 120.029,-93.1515 112.543,-79.9264"
         id="path3970" />
      <polygon
         fill="black"
         stroke="black"
         points="115.504,-78.0509 107.532,-71.0725 109.412,-81.4992 115.504,-78.0509"
         id="polygon3972" />
    </g>
    <!-- transition21&#45;&gt;p1 -->
    <g
       id="edge24"
       class="edge">
      <title
         id="title3975">transition21-&gt;p1</title>
      <path
         fill="none"
         stroke="black"
         d="M29.9139,-1.16843C28.1543,-4.62824 0,-60.7394 0,-109 0,-601 0,-601 0,-601 0,-664.206 87.1335,-692.324 133.199,-702.772"
         id="path3977" />
      <polygon
         fill="black"
         stroke="black"
         points="132.644,-706.233 143.155,-704.901 134.108,-699.388 132.644,-706.233"
         id="polygon3979" />
    </g>
    <!-- p2 -->
    <g
       id="node24"
       class="node">
      <title
         id="title3982">p2</title>
      <ellipse
         fill="none"
         stroke="black"
         cx="230"
         cy="-600"
         rx="18"
         ry="18"
         id="ellipse3984" />
      <text
         text-anchor="middle"
         x="230"
         y="-596.3"
         font-family="Times,serif"
         font-size="14.00"
         id="text3986">p2</text>
    </g>
    <!-- transition2 -->
    <polygon
       style="fill:none;stroke:#000000"
       id="polygon3991"
       points="212,-545 248,-545 248,-546 248,-546 212,-546 " />
    <text
       style="font-size:14px;text-anchor:middle;font-family:'Times,serif'"
       id="text3993"
       font-size="14.00"
       y="-549.79999"
       x="208.54875">CLK-</text>
    <!-- p2&#45;&gt;transition2 -->
    <g
       id="edge27"
       class="edge">
      <title
         id="title3996">p2-&gt;transition2</title>
      <path
         fill="none"
         stroke="black"
         d="M230,-581.939C230,-571.385 230,-558.534 230,-551.412"
         id="path3998" />
      <polygon
         fill="none"
         stroke="black"
         points="231.75,-551.059 230,-546.059 228.25,-551.059 231.75,-551.059"
         id="polygon4000" />
    </g>
    <!-- transition1 -->
    <polygon
       style="fill:none;stroke:#000000"
       id="polygon4005"
       points="266,-545 302,-545 302,-546 302,-546 266,-546 " />
    <text
       style="font-size:14px;text-anchor:middle;font-family:'Times,serif'"
       id="text4007"
       font-size="14.00"
       y="-550.61554"
       x="300.4328">aux+</text>
    <!-- p2&#45;&gt;transition1 -->
    <g
       id="edge33"
       class="edge">
      <title
         id="title4010">p2-&gt;transition1</title>
      <path
         fill="none"
         stroke="black"
         d="M242.524,-586.708C254.598,-574.858 272.153,-557.627 279.977,-549.948"
         id="path4012" />
      <polygon
         fill="none"
         stroke="black"
         points="281.584,-550.824 283.926,-546.072 279.132,-548.326 281.584,-550.824"
         id="polygon4014" />
    </g>
    <!-- transition0&#45;&gt;p2 -->
    <g
       id="edge26"
       class="edge">
      <title
         id="title4017">transition0-&gt;p2</title>
      <path
         fill="none"
         stroke="black"
         d="M230,-653.848C230,-652.368 230,-640.319 230,-628.1"
         id="path4019" />
      <polygon
         fill="black"
         stroke="black"
         points="233.5,-628.025 230,-618.025 226.5,-628.025 233.5,-628.025"
         id="polygon4021" />
    </g>
    <!-- p4 -->
    <g
       id="node26"
       class="node">
      <title
         id="title4024">p4</title>
      <ellipse
         fill="none"
         stroke="black"
         cx="230"
         cy="-491"
         rx="18"
         ry="18"
         id="ellipse4026" />
      <text
         text-anchor="middle"
         x="230"
         y="-487.3"
         font-family="Times,serif"
         font-size="14.00"
         id="text4028">p4</text>
    </g>
    <!-- transition8 -->
    <polygon
       style="fill:none;stroke:#000000"
       id="polygon4033"
       points="212,-436 248,-436 248,-437 248,-437 212,-437 " />
    <text
       style="font-size:14px;text-anchor:middle;font-family:'Times,serif'"
       id="text4035"
       font-size="14.00"
       y="-443.24664"
       x="207.04875">CLK+</text>
    <!-- p4&#45;&gt;transition8 -->
    <g
       id="edge29"
       class="edge">
      <title
         id="title4038">p4-&gt;transition8</title>
      <path
         fill="none"
         stroke="black"
         d="M230,-472.939C230,-462.385 230,-449.534 230,-442.412"
         id="path4040" />
      <polygon
         fill="none"
         stroke="black"
         points="231.75,-442.059 230,-437.059 228.25,-442.059 231.75,-442.059"
         id="polygon4042" />
    </g>
    <!-- transition2&#45;&gt;p4 -->
    <g
       id="edge28"
       class="edge">
      <title
         id="title4045">transition2-&gt;p4</title>
      <path
         fill="none"
         stroke="black"
         d="M230,-544.848C230,-543.368 230,-531.319 230,-519.1"
         id="path4047" />
      <polygon
         fill="black"
         stroke="black"
         points="233.5,-519.025 230,-509.025 226.5,-519.025 233.5,-519.025"
         id="polygon4049" />
    </g>
    <!-- p9 -->
    <g
       id="node28"
       class="node">
      <title
         id="title4052">p9</title>
      <ellipse
         fill="none"
         stroke="black"
         cx="230"
         cy="-382"
         rx="18"
         ry="18"
         id="ellipse4054" />
      <text
         text-anchor="middle"
         x="230"
         y="-378.3"
         font-family="Times,serif"
         font-size="14.00"
         id="text4056">p9</text>
    </g>
    <!-- transition9 -->
    <polygon
       style="fill:none;stroke:#000000"
       id="polygon4061"
       points="193,-327 229,-327 229,-328 229,-328 193,-328 " />
    <text
       style="font-size:14px;text-anchor:middle;font-family:'Times,serif'"
       id="text4063"
       font-size="14.00"
       y="-314.67349"
       x="210.75296">CLK-</text>
    <!-- p9&#45;&gt;transition9 -->
    <g
       id="edge31"
       class="edge">
      <title
         id="title4066">p9-&gt;transition9</title>
      <path
         fill="none"
         stroke="black"
         d="M224.196,-364.81C220.306,-353.958 215.435,-340.372 212.836,-333.121"
         id="path4068" />
      <polygon
         fill="none"
         stroke="black"
         points="214.357,-332.177 211.022,-328.061 211.062,-333.359 214.357,-332.177"
         id="polygon4070" />
    </g>
    <!-- transition8&#45;&gt;p9 -->
    <g
       id="edge30"
       class="edge">
      <title
         id="title4073">transition8-&gt;p9</title>
      <path
         fill="none"
         stroke="black"
         d="M230,-435.848C230,-434.368 230,-422.319 230,-410.1"
         id="path4075" />
      <polygon
         fill="black"
         stroke="black"
         points="233.5,-410.025 230,-400.025 226.5,-410.025 233.5,-410.025"
         id="polygon4077" />
    </g>
    <!-- transition9&#45;&gt;p1 -->
    <g
       id="edge32"
       class="edge">
      <title
         id="title4080">transition9-&gt;p1</title>
      <path
         fill="none"
         stroke="black"
         d="M210.923,-328.169C209.339,-331.649 184,-388.069 184,-436 184,-601 184,-601 184,-601 184,-629.249 176.243,-660.774 169.738,-682.244"
         id="path4082" />
      <polygon
         fill="black"
         stroke="black"
         points="166.358,-681.327 166.685,-691.917 173.033,-683.434 166.358,-681.327"
         id="polygon4084" />
    </g>
    <!-- p3 -->
    <g
       id="node31"
       class="node">
      <title
         id="title4087">p3</title>
      <ellipse
         fill="none"
         stroke="black"
         cx="284"
         cy="-491"
         rx="18"
         ry="18"
         id="ellipse4089" />
      <text
         text-anchor="middle"
         x="284"
         y="-487.3"
         font-family="Times,serif"
         font-size="14.00"
         id="text4091">p3</text>
    </g>
    <!-- transition3 -->
    <polygon
       style="fill:none;stroke:#000000"
       id="polygon4096"
       points="266,-436 302,-436 302,-437 302,-437 266,-437 " />
    <text
       style="font-size:14px;text-anchor:middle;font-family:'Times,serif'"
       id="text4098"
       font-size="14.00"
       y="-442.43109"
       x="305.77274">CLK-</text>
    <!-- p3&#45;&gt;transition3 -->
    <g
       id="edge35"
       class="edge">
      <title
         id="title4101">p3-&gt;transition3</title>
      <path
         fill="none"
         stroke="black"
         d="M284,-472.939C284,-462.385 284,-449.534 284,-442.412"
         id="path4103" />
      <polygon
         fill="none"
         stroke="black"
         points="285.75,-442.059 284,-437.059 282.25,-442.059 285.75,-442.059"
         id="polygon4105" />
    </g>
    <!-- transition1&#45;&gt;p3 -->
    <g
       id="edge34"
       class="edge">
      <title
         id="title4108">transition1-&gt;p3</title>
      <path
         fill="none"
         stroke="black"
         d="M284,-544.848C284,-543.368 284,-531.319 284,-519.1"
         id="path4110" />
      <polygon
         fill="black"
         stroke="black"
         points="287.5,-519.025 284,-509.025 280.5,-519.025 287.5,-519.025"
         id="polygon4112" />
    </g>
    <!-- p5 -->
    <g
       id="node33"
       class="node">
      <title
         id="title4115">p5</title>
      <ellipse
         fill="none"
         stroke="black"
         cx="284"
         cy="-382"
         rx="18"
         ry="18"
         id="ellipse4117" />
      <text
         text-anchor="middle"
         x="284"
         y="-378.3"
         font-family="Times,serif"
         font-size="14.00"
         id="text4119">p5</text>
    </g>
    <!-- transition4 -->
    <polygon
       style="fill:none;stroke:#000000"
       id="polygon4124"
       points="266,-327 302,-327 302,-328 302,-328 266,-328 " />
    <text
       style="font-size:14px;text-anchor:middle;font-family:'Times,serif'"
       id="text4126"
       font-size="14.00"
       y="-335.06216"
       x="298.46179">a+</text>
    <!-- p5&#45;&gt;transition4 -->
    <g
       id="edge37"
       class="edge">
      <title
         id="title4129">p5-&gt;transition4</title>
      <path
         fill="none"
         stroke="black"
         d="M284,-363.939C284,-353.385 284,-340.534 284,-333.412"
         id="path4131" />
      <polygon
         fill="none"
         stroke="black"
         points="285.75,-333.059 284,-328.059 282.25,-333.059 285.75,-333.059"
         id="polygon4133" />
    </g>
    <!-- transition3&#45;&gt;p5 -->
    <g
       id="edge36"
       class="edge">
      <title
         id="title4136">transition3-&gt;p5</title>
      <path
         fill="none"
         stroke="black"
         d="M284,-435.848C284,-434.368 284,-422.319 284,-410.1"
         id="path4138" />
      <polygon
         fill="black"
         stroke="black"
         points="287.5,-410.025 284,-400.025 280.5,-410.025 287.5,-410.025"
         id="polygon4140" />
    </g>
    <!-- p6 -->
    <g
       id="node35"
       class="node">
      <title
         id="title4143">p6</title>
      <ellipse
         fill="none"
         stroke="black"
         cx="284"
         cy="-273"
         rx="18"
         ry="18"
         id="ellipse4145" />
      <text
         text-anchor="middle"
         x="284"
         y="-269.3"
         font-family="Times,serif"
         font-size="14.00"
         id="text4147">p6</text>
    </g>
    <!-- transition5 -->
    <polygon
       style="fill:none;stroke:#000000"
       id="polygon4152"
       points="266,-218 302,-218 302,-219 302,-219 266,-219 " />
    <text
       style="font-size:14px;text-anchor:middle;font-family:'Times,serif'"
       id="text4154"
       font-size="14.00"
       y="-224.43109"
       x="305.90381">CLK+</text>
    <!-- p6&#45;&gt;transition5 -->
    <g
       id="edge39"
       class="edge">
      <title
         id="title4157">p6-&gt;transition5</title>
      <path
         fill="none"
         stroke="black"
         d="M284,-254.939C284,-244.385 284,-231.534 284,-224.412"
         id="path4159" />
      <polygon
         fill="none"
         stroke="black"
         points="285.75,-224.059 284,-219.059 282.25,-224.059 285.75,-224.059"
         id="polygon4161" />
    </g>
    <!-- transition4&#45;&gt;p6 -->
    <g
       id="edge38"
       class="edge">
      <title
         id="title4164">transition4-&gt;p6</title>
      <path
         fill="none"
         stroke="black"
         d="M284,-326.848C284,-325.368 284,-313.319 284,-301.1"
         id="path4166" />
      <polygon
         fill="black"
         stroke="black"
         points="287.5,-301.025 284,-291.025 280.5,-301.025 287.5,-301.025"
         id="polygon4168" />
    </g>
    <!-- p7 -->
    <g
       id="node37"
       class="node">
      <title
         id="title4171">p7</title>
      <ellipse
         fill="none"
         stroke="black"
         cx="284"
         cy="-164"
         rx="18"
         ry="18"
         id="ellipse4173" />
      <text
         text-anchor="middle"
         x="284"
         y="-160.3"
         font-family="Times,serif"
         font-size="14.00"
         id="text4175">p7</text>
    </g>
    <!-- transition6 -->
    <polygon
       style="fill:none;stroke:#000000"
       id="polygon4180"
       points="266,-109 302,-109 302,-110 302,-110 266,-110 " />
    <text
       style="font-size:14px;text-anchor:middle;font-family:'Times,serif'"
       id="text4182"
       font-size="14.00"
       y="-117.06219"
       x="247.60211">CLK-aux-</text>
    <!-- p7&#45;&gt;transition6 -->
    <g
       id="edge41"
       class="edge">
      <title
         id="title4185">p7-&gt;transition6</title>
      <path
         fill="none"
         stroke="black"
         d="M284,-145.939C284,-135.385 284,-122.534 284,-115.412"
         id="path4187" />
      <polygon
         fill="none"
         stroke="black"
         points="285.75,-115.059 284,-110.059 282.25,-115.059 285.75,-115.059"
         id="polygon4189" />
    </g>
    <!-- transition5&#45;&gt;p7 -->
    <g
       id="edge40"
       class="edge">
      <title
         id="title4192">transition5-&gt;p7</title>
      <path
         fill="none"
         stroke="black"
         d="M284,-217.848C284,-216.368 284,-204.319 284,-192.1"
         id="path4194" />
      <polygon
         fill="black"
         stroke="black"
         points="287.5,-192.025 284,-182.025 280.5,-192.025 287.5,-192.025"
         id="polygon4196" />
    </g>
    <!-- p8 -->
    <g
       id="node39"
       class="node">
      <title
         id="title4199">p8</title>
      <ellipse
         fill="none"
         stroke="black"
         cx="284"
         cy="-55"
         rx="18"
         ry="18"
         id="ellipse4201" />
      <text
         text-anchor="middle"
         x="284"
         y="-51.3"
         font-family="Times,serif"
         font-size="14.00"
         id="text4203">p8</text>
    </g>
    <!-- transition7 -->
    <polygon
       style="fill:none;stroke:#000000"
       id="polygon4208"
       points="289,0 325,0 325,-1 325,-1 289,-1 " />
    <text
       style="font-size:14px;text-anchor:middle;font-family:'Times,serif'"
       id="text4210"
       font-size="14.00"
       y="-7.2466407"
       x="288.39328">a-</text>
    <!-- p8&#45;&gt;transition7 -->
    <g
       id="edge43"
       class="edge">
      <title
         id="title4213">p8-&gt;transition7</title>
      <path
         fill="none"
         stroke="black"
         d="M290.901,-38.0983C295.721,-26.9918 301.831,-12.9118 304.956,-5.7104"
         id="path4215" />
      <polygon
         fill="none"
         stroke="black"
         points="306.588,-6.34553 306.973,-1.06211 303.377,-4.95216 306.588,-6.34553"
         id="polygon4217" />
    </g>
    <!-- transition6&#45;&gt;p8 -->
    <g
       id="edge42"
       class="edge">
      <title
         id="title4220">transition6-&gt;p8</title>
      <path
         fill="none"
         stroke="black"
         d="M284,-108.848C284,-107.368 284,-95.3194 284,-83.1004"
         id="path4222" />
      <polygon
         fill="black"
         stroke="black"
         points="287.5,-83.0247 284,-73.0247 280.5,-83.0248 287.5,-83.0247"
         id="polygon4224" />
    </g>
    <!-- transition7&#45;&gt;p1 -->
    <g
       id="edge44"
       class="edge">
      <title
         id="title4227">transition7-&gt;p1</title>
      <path
         fill="none"
         stroke="black"
         d="M307.017,-1.04289C307.713,-2.83896 330,-60.6904 330,-109 330,-601 330,-601 330,-601 330,-667.023 236.789,-693.996 188.815,-703.506"
         id="path4229" />
      <polygon
         fill="black"
         stroke="black"
         points="187.959,-700.105 178.767,-705.373 189.238,-706.987 187.959,-700.105"
         id="polygon4231" />
    </g>
  </g>
</svg>
