<?xml version="1.0" encoding="UTF-8" standalone="no"?>
<!DOCTYPE svg PUBLIC "-//W3C//DTD SVG 1.1//EN"
 "http://www.w3.org/Graphics/SVG/1.1/DTD/svg11.dtd">
<!-- Generated by graphviz version 2.38.0 (20140413.2041)
 -->
<!-- Title: %3 Pages: 1 -->
<svg width="631pt" height="1675pt"
 viewBox="0.00 0.00 631.06 1675.00" xmlns="http://www.w3.org/2000/svg" xmlns:xlink="http://www.w3.org/1999/xlink">
<g id="graph0" class="graph" transform="scale(1 1) rotate(0) translate(4 1671)">
<title>%3</title>
<polygon fill="white" stroke="none" points="-4,4 -4,-1671 627.06,-1671 627.06,4 -4,4"/>
<!-- PL1 -->
<g id="node1" class="node"><title>PL1</title>
<ellipse fill="none" stroke="black" cx="85" cy="-1649" rx="18" ry="18"/>
<text text-anchor="middle" x="85" y="-1645.3" font-family="Times,serif" font-size="14.00">PL1</text>
</g>
<!-- transition7 -->
<g id="node3" class="node"><title>transition7</title>
<polygon fill="none" stroke="black" points="169,-1595 133,-1595 133,-1594 169,-1594 169,-1595"/>
<text text-anchor="middle" x="127" y="-1598.8" font-family="Times,serif" font-size="14.00">x&#45;</text>
</g>
<!-- PL1&#45;&gt;transition7 -->
<g id="edge1" class="edge"><title>PL1&#45;&gt;transition7</title>
<path fill="none" stroke="black" d="M98.6752,-1637.02C113.891,-1624.8 137.571,-1605.78 146.964,-1598.24"/>
<polygon fill="none" stroke="black" points="148.102,-1599.57 150.905,-1595.08 145.91,-1596.84 148.102,-1599.57"/>
</g>
<!-- PL2 -->
<g id="node2" class="node"><title>PL2</title>
<ellipse fill="none" stroke="black" cx="151" cy="-1540" rx="18" ry="18"/>
<text text-anchor="middle" x="151" y="-1536.3" font-family="Times,serif" font-size="14.00">PL2</text>
</g>
<!-- transition1 -->
<g id="node5" class="node"><title>transition1</title>
<polygon fill="none" stroke="black" points="169,-1486 133,-1486 133,-1485 169,-1485 169,-1486"/>
<text text-anchor="middle" x="122" y="-1489.8" font-family="Times,serif" font-size="14.00">do+</text>
</g>
<!-- PL2&#45;&gt;transition1 -->
<g id="edge3" class="edge"><title>PL2&#45;&gt;transition1</title>
<path fill="none" stroke="black" d="M151,-1521.94C151,-1511.39 151,-1498.53 151,-1491.41"/>
<polygon fill="none" stroke="black" points="152.75,-1491.06 151,-1486.06 149.25,-1491.06 152.75,-1491.06"/>
</g>
<!-- transition7&#45;&gt;PL2 -->
<g id="edge2" class="edge"><title>transition7&#45;&gt;PL2</title>
<path fill="none" stroke="black" d="M151,-1593.85C151,-1592.37 151,-1580.32 151,-1568.1"/>
<polygon fill="black" stroke="black" points="154.5,-1568.02 151,-1558.02 147.5,-1568.02 154.5,-1568.02"/>
</g>
<!-- PL3 -->
<g id="node4" class="node"><title>PL3</title>
<ellipse fill="none" stroke="black" cx="151" cy="-1431" rx="18" ry="18"/>
<text text-anchor="middle" x="151" y="-1427.3" font-family="Times,serif" font-size="14.00">PL3</text>
</g>
<!-- transition2 -->
<g id="node7" class="node"><title>transition2</title>
<polygon fill="none" stroke="black" points="169,-1377 133,-1377 133,-1376 169,-1376 169,-1377"/>
<text text-anchor="middle" x="123.5" y="-1380.8" font-family="Times,serif" font-size="14.00">di+</text>
</g>
<!-- PL3&#45;&gt;transition2 -->
<g id="edge5" class="edge"><title>PL3&#45;&gt;transition2</title>
<path fill="none" stroke="black" d="M151,-1412.94C151,-1402.39 151,-1389.53 151,-1382.41"/>
<polygon fill="none" stroke="black" points="152.75,-1382.06 151,-1377.06 149.25,-1382.06 152.75,-1382.06"/>
</g>
<!-- transition1&#45;&gt;PL3 -->
<g id="edge4" class="edge"><title>transition1&#45;&gt;PL3</title>
<path fill="none" stroke="black" d="M151,-1484.85C151,-1483.37 151,-1471.32 151,-1459.1"/>
<polygon fill="black" stroke="black" points="154.5,-1459.02 151,-1449.02 147.5,-1459.02 154.5,-1459.02"/>
</g>
<!-- PL4 -->
<g id="node6" class="node"><title>PL4</title>
<ellipse fill="none" stroke="black" cx="112" cy="-1322" rx="18" ry="18"/>
<text text-anchor="middle" x="112" y="-1318.3" font-family="Times,serif" font-size="14.00">PL4</text>
</g>
<!-- transition5 -->
<g id="node9" class="node"><title>transition5</title>
<polygon fill="none" stroke="black" points="123,-1268 87,-1268 87,-1267 123,-1267 123,-1268"/>
<text text-anchor="middle" x="74" y="-1271.8" font-family="Times,serif" font-size="14.00">pdo&#45;</text>
</g>
<!-- PL4&#45;&gt;transition5 -->
<g id="edge7" class="edge"><title>PL4&#45;&gt;transition5</title>
<path fill="none" stroke="black" d="M109.747,-1303.94C108.353,-1293.39 106.655,-1280.53 105.715,-1273.41"/>
<polygon fill="none" stroke="black" points="107.398,-1272.79 105.008,-1268.06 103.928,-1273.25 107.398,-1272.79"/>
</g>
<!-- transition2&#45;&gt;PL4 -->
<g id="edge6" class="edge"><title>transition2&#45;&gt;PL4</title>
<path fill="none" stroke="black" d="M150.888,-1375.85C149.652,-1374.17 138.403,-1358.88 128.319,-1345.18"/>
<polygon fill="black" stroke="black" points="131.037,-1342.97 122.291,-1336.99 125.399,-1347.11 131.037,-1342.97"/>
</g>
<!-- PL13 -->
<g id="node26" class="node"><title>PL13</title>
<ellipse fill="none" stroke="black" cx="191" cy="-1322" rx="18" ry="18"/>
<text text-anchor="middle" x="191" y="-1318.3" font-family="Times,serif" font-size="14.00">PL13</text>
</g>
<!-- transition2&#45;&gt;PL13 -->
<g id="edge29" class="edge"><title>transition2&#45;&gt;PL13</title>
<path fill="none" stroke="black" d="M151.115,-1375.85C152.382,-1374.17 163.92,-1358.88 174.262,-1345.18"/>
<polygon fill="black" stroke="black" points="177.214,-1347.08 180.445,-1336.99 171.627,-1342.86 177.214,-1347.08"/>
</g>
<!-- PL5 -->
<g id="node8" class="node"><title>PL5</title>
<ellipse fill="none" stroke="black" cx="139" cy="-1213" rx="18" ry="18"/>
<text text-anchor="middle" x="139" y="-1209.3" font-family="Times,serif" font-size="14.00">PL5</text>
</g>
<!-- transition11 -->
<g id="node11" class="node"><title>transition11</title>
<polygon fill="none" stroke="black" points="174,-1141.5 138,-1141.5 138,-1140.5 174,-1140.5 174,-1141.5"/>
<text text-anchor="middle" x="128.5" y="-1145.3" font-family="Times,serif" font-size="14.00">do&#45;</text>
</g>
<!-- PL5&#45;&gt;transition11 -->
<g id="edge9" class="edge"><title>PL5&#45;&gt;transition11</title>
<path fill="none" stroke="black" d="M143.029,-1195.41C146.833,-1179.74 152.309,-1157.2 154.747,-1147.16"/>
<polygon fill="none" stroke="black" points="156.498,-1147.37 155.977,-1142.09 153.096,-1146.54 156.498,-1147.37"/>
</g>
<!-- transition5&#45;&gt;PL5 -->
<g id="edge8" class="edge"><title>transition5&#45;&gt;PL5</title>
<path fill="none" stroke="black" d="M105.098,-1266.85C106.152,-1265.2 115.569,-1250.53 124.21,-1237.05"/>
<polygon fill="black" stroke="black" points="127.228,-1238.83 129.681,-1228.53 121.336,-1235.05 127.228,-1238.83"/>
</g>
<!-- PL11 -->
<g id="node18" class="node"><title>PL11</title>
<ellipse fill="none" stroke="black" cx="97" cy="-1141" rx="18" ry="18"/>
<text text-anchor="middle" x="97" y="-1137.3" font-family="Times,serif" font-size="14.00">PL11</text>
</g>
<!-- transition5&#45;&gt;PL11 -->
<g id="edge19" class="edge"><title>transition5&#45;&gt;PL11</title>
<path fill="none" stroke="black" d="M104.994,-1266.91C104.827,-1264.29 101.062,-1205.47 98.7595,-1169.49"/>
<polygon fill="black" stroke="black" points="102.229,-1168.9 98.0974,-1159.15 95.2434,-1169.35 102.229,-1168.9"/>
</g>
<!-- PL6 -->
<g id="node10" class="node"><title>PL6</title>
<ellipse fill="none" stroke="black" cx="156" cy="-1069" rx="18" ry="18"/>
<text text-anchor="middle" x="156" y="-1065.3" font-family="Times,serif" font-size="14.00">PL6</text>
</g>
<!-- transition3 -->
<g id="node13" class="node"><title>transition3</title>
<polygon fill="none" stroke="black" points="174,-997.5 138,-997.5 138,-996.5 174,-996.5 174,-997.5"/>
<text text-anchor="middle" x="130" y="-1001.3" font-family="Times,serif" font-size="14.00">di&#45;</text>
</g>
<!-- PL6&#45;&gt;transition3 -->
<g id="edge11" class="edge"><title>PL6&#45;&gt;transition3</title>
<path fill="none" stroke="black" d="M156,-1050.7C156,-1035.17 156,-1013.32 156,-1003.35"/>
<polygon fill="none" stroke="black" points="157.75,-1003.09 156,-998.092 154.25,-1003.09 157.75,-1003.09"/>
</g>
<!-- transition11&#45;&gt;PL6 -->
<g id="edge10" class="edge"><title>transition11&#45;&gt;PL6</title>
<path fill="none" stroke="black" d="M156,-1139.95C156,-1138.75 156,-1116.43 156,-1097.32"/>
<polygon fill="black" stroke="black" points="159.5,-1097.19 156,-1087.19 152.5,-1097.19 159.5,-1097.19"/>
</g>
<!-- PL7 -->
<g id="node12" class="node"><title>PL7</title>
<ellipse fill="none" stroke="black" cx="125" cy="-925" rx="18" ry="18"/>
<text text-anchor="middle" x="125" y="-921.3" font-family="Times,serif" font-size="14.00">PL7</text>
</g>
<!-- transition9 -->
<g id="node14" class="node"><title>transition9</title>
<polygon fill="none" stroke="black" points="93,-853.5 57,-853.5 57,-852.5 93,-852.5 93,-853.5"/>
<text text-anchor="middle" x="42.5" y="-857.3" font-family="Times,serif" font-size="14.00">pdo+</text>
</g>
<!-- PL7&#45;&gt;transition9 -->
<g id="edge13" class="edge"><title>PL7&#45;&gt;transition9</title>
<path fill="none" stroke="black" d="M114.882,-909.834C103.382,-893.735 85.277,-868.388 78.0894,-858.325"/>
<polygon fill="none" stroke="black" points="79.4032,-857.154 75.0729,-854.102 76.5551,-859.188 79.4032,-857.154"/>
</g>
<!-- transition3&#45;&gt;PL7 -->
<g id="edge12" class="edge"><title>transition3&#45;&gt;PL7</title>
<path fill="none" stroke="black" d="M155.978,-995.949C155.425,-994.703 144.808,-970.727 136.155,-951.189"/>
<polygon fill="black" stroke="black" points="139.245,-949.523 131.996,-941.797 132.845,-952.357 139.245,-949.523"/>
</g>
<!-- PL8 -->
<g id="node21" class="node"><title>PL8</title>
<ellipse fill="none" stroke="black" cx="154" cy="-853" rx="18" ry="18"/>
<text text-anchor="middle" x="154" y="-849.3" font-family="Times,serif" font-size="14.00">PL8</text>
</g>
<!-- transition3&#45;&gt;PL8 -->
<g id="edge23" class="edge"><title>transition3&#45;&gt;PL8</title>
<path fill="none" stroke="black" d="M155.999,-995.897C155.955,-992.821 154.951,-921.53 154.383,-881.195"/>
<polygon fill="black" stroke="black" points="157.883,-881.144 154.242,-871.195 150.883,-881.243 157.883,-881.144"/>
</g>
<!-- transition9&#45;&gt;PL1 -->
<g id="edge14" class="edge"><title>transition9&#45;&gt;PL1</title>
<path fill="none" stroke="black" d="M74.9551,-854.114C73.0776,-858.867 13,-1011.97 13,-1140 13,-1541 13,-1541 13,-1541 13,-1577.53 42.2456,-1610.96 63.4586,-1630.4"/>
<polygon fill="black" stroke="black" points="61.2994,-1633.16 71.1177,-1637.15 65.9254,-1627.91 61.2994,-1633.16"/>
</g>
<!-- PL39 -->
<g id="node15" class="node"><title>PL39</title>
<ellipse fill="none" stroke="black" cx="60" cy="-781" rx="18" ry="18"/>
<text text-anchor="middle" x="60" y="-777.3" font-family="Times,serif" font-size="14.00">PL39</text>
</g>
<!-- transition9&#45;&gt;PL39 -->
<g id="edge15" class="edge"><title>transition9&#45;&gt;PL39</title>
<path fill="none" stroke="black" d="M74.9891,-851.949C74.7289,-850.735 69.8484,-827.959 65.7262,-808.722"/>
<polygon fill="black" stroke="black" points="69.1261,-807.884 63.6084,-798.839 62.2814,-809.351 69.1261,-807.884"/>
</g>
<!-- transition4 -->
<g id="node17" class="node"><title>transition4</title>
<polygon fill="none" stroke="black" points="71,-727 35,-727 35,-726 71,-726 71,-727"/>
<text text-anchor="middle" x="17.5" y="-730.8" font-family="Times,serif" font-size="14.00">pack+</text>
</g>
<!-- PL39&#45;&gt;transition4 -->
<g id="edge16" class="edge"><title>PL39&#45;&gt;transition4</title>
<path fill="none" stroke="black" d="M57.7466,-762.939C56.3528,-752.385 54.6555,-739.534 53.7148,-732.412"/>
<polygon fill="none" stroke="black" points="55.3975,-731.787 53.0078,-727.059 51.9276,-732.245 55.3975,-731.787"/>
</g>
<!-- PL40 -->
<g id="node16" class="node"><title>PL40</title>
<ellipse fill="none" stroke="black" cx="26" cy="-672" rx="18" ry="18"/>
<text text-anchor="middle" x="26" y="-668.3" font-family="Times,serif" font-size="14.00">PL40</text>
</g>
<!-- PL40&#45;&gt;transition5 -->
<g id="edge18" class="edge"><title>PL40&#45;&gt;transition5</title>
<path fill="none" stroke="black" d="M20.3146,-689.083C13.5036,-709.82 3,-747.129 3,-780 3,-926 3,-926 3,-926 3,-1069.55 86.9973,-1233.38 102.542,-1262.47"/>
<polygon fill="none" stroke="black" points="101.005,-1263.31 104.926,-1266.87 104.081,-1261.64 101.005,-1263.31"/>
</g>
<!-- transition4&#45;&gt;PL40 -->
<g id="edge17" class="edge"><title>transition4&#45;&gt;PL40</title>
<path fill="none" stroke="black" d="M52.9225,-725.848C52.1161,-724.265 45.1499,-710.591 38.5064,-697.55"/>
<polygon fill="black" stroke="black" points="41.4765,-695.669 33.8186,-688.348 35.2393,-698.847 41.4765,-695.669"/>
</g>
<!-- transition8 -->
<g id="node20" class="node"><title>transition8</title>
<polygon fill="none" stroke="black" points="115,-1069.5 79,-1069.5 79,-1068.5 115,-1068.5 115,-1069.5"/>
<text text-anchor="middle" x="63" y="-1073.3" font-family="Times,serif" font-size="14.00">pack&#45;</text>
</g>
<!-- PL11&#45;&gt;transition8 -->
<g id="edge20" class="edge"><title>PL11&#45;&gt;transition8</title>
<path fill="none" stroke="black" d="M97,-1122.7C97,-1107.17 97,-1085.32 97,-1075.35"/>
<polygon fill="none" stroke="black" points="98.7501,-1075.09 97,-1070.09 95.2501,-1075.09 98.7501,-1075.09"/>
</g>
<!-- PL12 -->
<g id="node19" class="node"><title>PL12</title>
<ellipse fill="none" stroke="black" cx="92" cy="-997" rx="18" ry="18"/>
<text text-anchor="middle" x="92" y="-993.3" font-family="Times,serif" font-size="14.00">PL12</text>
</g>
<!-- PL12&#45;&gt;transition9 -->
<g id="edge22" class="edge"><title>PL12&#45;&gt;transition9</title>
<path fill="none" stroke="black" d="M89.9494,-978.871C86.0897,-946.632 77.926,-878.441 75.6189,-859.17"/>
<polygon fill="none" stroke="black" points="77.3396,-858.82 75.0076,-854.063 73.8644,-859.236 77.3396,-858.82"/>
</g>
<!-- transition8&#45;&gt;PL12 -->
<g id="edge21" class="edge"><title>transition8&#45;&gt;PL12</title>
<path fill="none" stroke="black" d="M96.9964,-1067.95C96.9105,-1066.75 95.3163,-1044.43 93.9515,-1025.32"/>
<polygon fill="black" stroke="black" points="97.4316,-1024.92 93.2279,-1015.19 90.4494,-1025.42 97.4316,-1024.92"/>
</g>
<!-- transition28 -->
<g id="node23" class="node"><title>transition28</title>
<polygon fill="none" stroke="black" points="242,-509 206,-509 206,-508 242,-508 242,-509"/>
<text text-anchor="middle" x="189" y="-512.8" font-family="Times,serif" font-size="14.00">mrdc&#45;</text>
</g>
<!-- PL8&#45;&gt;transition28 -->
<g id="edge24" class="edge"><title>PL8&#45;&gt;transition28</title>
<path fill="none" stroke="black" d="M152.446,-835.033C150.384,-811.009 147,-765.689 147,-727 147,-727 147,-727 147,-671 147,-601.722 205.15,-530.511 220.383,-513.044"/>
<polygon fill="none" stroke="black" points="221.917,-513.954 223.944,-509.06 219.307,-511.622 221.917,-513.954"/>
</g>
<!-- PL9 -->
<g id="node22" class="node"><title>PL9</title>
<ellipse fill="none" stroke="black" cx="225" cy="-454" rx="18" ry="18"/>
<text text-anchor="middle" x="225" y="-450.3" font-family="Times,serif" font-size="14.00">PL9</text>
</g>
<!-- transition6 -->
<g id="node25" class="node"><title>transition6</title>
<polygon fill="none" stroke="black" points="247,-400 211,-400 211,-399 247,-399 247,-400"/>
<text text-anchor="middle" x="195" y="-403.8" font-family="Times,serif" font-size="14.00">xack&#45;</text>
</g>
<!-- PL9&#45;&gt;transition6 -->
<g id="edge26" class="edge"><title>PL9&#45;&gt;transition6</title>
<path fill="none" stroke="black" d="M226.288,-435.939C227.084,-425.385 228.054,-412.534 228.592,-405.412"/>
<polygon fill="none" stroke="black" points="230.364,-405.177 228.996,-400.059 226.874,-404.913 230.364,-405.177"/>
</g>
<!-- transition28&#45;&gt;PL9 -->
<g id="edge25" class="edge"><title>transition28&#45;&gt;PL9</title>
<path fill="none" stroke="black" d="M224.003,-507.848C224.031,-506.368 224.258,-494.319 224.489,-482.1"/>
<polygon fill="black" stroke="black" points="227.989,-482.089 224.679,-472.025 220.991,-481.957 227.989,-482.089"/>
</g>
<!-- PL10 -->
<g id="node24" class="node"><title>PL10</title>
<ellipse fill="none" stroke="black" cx="253" cy="-345" rx="18" ry="18"/>
<text text-anchor="middle" x="253" y="-341.3" font-family="Times,serif" font-size="14.00">PL10</text>
</g>
<!-- PL10&#45;&gt;transition7 -->
<g id="edge28" class="edge"><title>PL10&#45;&gt;transition7</title>
<path fill="none" stroke="black" d="M262.168,-360.949C276.866,-384.757 306.82,-432.62 334,-472 395.865,-561.635 477,-562.088 477,-671 477,-1486 477,-1486 477,-1486 477,-1556.69 197.282,-1589.09 156.051,-1593.48"/>
<polygon fill="none" stroke="black" points="155.853,-1591.74 151.059,-1593.99 156.213,-1595.22 155.853,-1591.74"/>
</g>
<!-- transition6&#45;&gt;PL10 -->
<g id="edge27" class="edge"><title>transition6&#45;&gt;PL10</title>
<path fill="none" stroke="black" d="M229.069,-398.848C229.781,-397.275 235.902,-383.759 241.774,-370.791"/>
<polygon fill="black" stroke="black" points="244.988,-372.177 245.925,-361.624 238.611,-369.29 244.988,-372.177"/>
</g>
<!-- transition10 -->
<g id="node28" class="node"><title>transition10</title>
<polygon fill="none" stroke="black" points="259,-1268 223,-1268 223,-1267 259,-1267 259,-1268"/>
<text text-anchor="middle" x="204.5" y="-1271.8" font-family="Times,serif" font-size="14.00">mrdc+</text>
</g>
<!-- PL13&#45;&gt;transition10 -->
<g id="edge30" class="edge"><title>PL13&#45;&gt;transition10</title>
<path fill="none" stroke="black" d="M202.849,-1308.44C214.04,-1296.58 230.144,-1279.51 237.315,-1271.91"/>
<polygon fill="none" stroke="black" points="238.774,-1272.91 240.933,-1268.07 236.228,-1270.51 238.774,-1272.91"/>
</g>
<!-- PL14 -->
<g id="node27" class="node"><title>PL14</title>
<ellipse fill="none" stroke="black" cx="193" cy="-1213" rx="18" ry="18"/>
<text text-anchor="middle" x="193" y="-1209.3" font-family="Times,serif" font-size="14.00">PL14</text>
</g>
<!-- PL14&#45;&gt;transition11 -->
<g id="edge32" class="edge"><title>PL14&#45;&gt;transition11</title>
<path fill="none" stroke="black" d="M184.972,-1196.81C176.571,-1180.92 163.875,-1156.9 158.522,-1146.77"/>
<polygon fill="none" stroke="black" points="159.936,-1145.7 156.052,-1142.1 156.842,-1147.34 159.936,-1145.7"/>
</g>
<!-- transition10&#45;&gt;PL14 -->
<g id="edge31" class="edge"><title>transition10&#45;&gt;PL14</title>
<path fill="none" stroke="black" d="M240.862,-1266.85C239.276,-1265.1 224.274,-1248.53 211.483,-1234.41"/>
<polygon fill="black" stroke="black" points="214.011,-1231.99 204.704,-1226.92 208.822,-1236.68 214.011,-1231.99"/>
</g>
<!-- PL15 -->
<g id="node29" class="node"><title>PL15</title>
<ellipse fill="none" stroke="black" cx="310" cy="-1213" rx="18" ry="18"/>
<text text-anchor="middle" x="310" y="-1209.3" font-family="Times,serif" font-size="14.00">PL15</text>
</g>
<!-- transition10&#45;&gt;PL15 -->
<g id="edge33" class="edge"><title>transition10&#45;&gt;PL15</title>
<path fill="none" stroke="black" d="M241.05,-1266.96C242.343,-1265.97 268.425,-1245.93 288.13,-1230.8"/>
<polygon fill="black" stroke="black" points="290.295,-1233.55 296.094,-1224.68 286.031,-1228 290.295,-1233.55"/>
</g>
<!-- PL37 -->
<g id="node66" class="node"><title>PL37</title>
<ellipse fill="none" stroke="black" cx="247" cy="-1213" rx="18" ry="18"/>
<text text-anchor="middle" x="247" y="-1209.3" font-family="Times,serif" font-size="14.00">PL37</text>
</g>
<!-- transition10&#45;&gt;PL37 -->
<g id="edge77" class="edge"><title>transition10&#45;&gt;PL37</title>
<path fill="none" stroke="black" d="M241.017,-1266.85C241.185,-1265.37 242.549,-1253.32 243.932,-1241.1"/>
<polygon fill="black" stroke="black" points="247.425,-1241.36 245.073,-1231.02 240.47,-1240.57 247.425,-1241.36"/>
</g>
<!-- transition20 -->
<g id="node31" class="node"><title>transition20</title>
<polygon fill="none" stroke="black" points="353,-1141.5 317,-1141.5 317,-1140.5 353,-1140.5 353,-1141.5"/>
<text text-anchor="middle" x="299.5" y="-1145.3" font-family="Times,serif" font-size="14.00">busy+</text>
</g>
<!-- PL15&#45;&gt;transition20 -->
<g id="edge34" class="edge"><title>PL15&#45;&gt;transition20</title>
<path fill="none" stroke="black" d="M315.798,-1195.76C321.444,-1179.96 329.678,-1156.9 333.245,-1146.91"/>
<polygon fill="none" stroke="black" points="334.932,-1147.39 334.966,-1142.1 331.636,-1146.22 334.932,-1147.39"/>
</g>
<!-- PL16 -->
<g id="node30" class="node"><title>PL16</title>
<ellipse fill="none" stroke="black" cx="335" cy="-1069" rx="18" ry="18"/>
<text text-anchor="middle" x="335" y="-1065.3" font-family="Times,serif" font-size="14.00">PL16</text>
</g>
<!-- transition22 -->
<g id="node33" class="node"><title>transition22</title>
<polygon fill="none" stroke="black" points="353,-997.5 317,-997.5 317,-996.5 353,-996.5 353,-997.5"/>
<text text-anchor="middle" x="302" y="-1001.3" font-family="Times,serif" font-size="14.00">breq&#45;</text>
</g>
<!-- PL16&#45;&gt;transition22 -->
<g id="edge36" class="edge"><title>PL16&#45;&gt;transition22</title>
<path fill="none" stroke="black" d="M335,-1050.7C335,-1035.17 335,-1013.32 335,-1003.35"/>
<polygon fill="none" stroke="black" points="336.75,-1003.09 335,-998.092 333.25,-1003.09 336.75,-1003.09"/>
</g>
<!-- transition20&#45;&gt;PL16 -->
<g id="edge35" class="edge"><title>transition20&#45;&gt;PL16</title>
<path fill="none" stroke="black" d="M335,-1139.95C335,-1138.75 335,-1116.43 335,-1097.32"/>
<polygon fill="black" stroke="black" points="338.5,-1097.19 335,-1087.19 331.5,-1097.19 338.5,-1097.19"/>
</g>
<!-- PL17 -->
<g id="node32" class="node"><title>PL17</title>
<ellipse fill="none" stroke="black" cx="393" cy="-925" rx="18" ry="18"/>
<text text-anchor="middle" x="393" y="-921.3" font-family="Times,serif" font-size="14.00">PL17</text>
</g>
<!-- transition17 -->
<g id="node35" class="node"><title>transition17</title>
<polygon fill="none" stroke="black" points="568,-727 532,-727 532,-726 568,-726 568,-727"/>
<text text-anchor="middle" x="520" y="-730.8" font-family="Times,serif" font-size="14.00">pro&#45;</text>
</g>
<!-- PL17&#45;&gt;transition17 -->
<g id="edge38" class="edge"><title>PL17&#45;&gt;transition17</title>
<path fill="none" stroke="black" d="M403.791,-910.459C435.571,-870.583 527.767,-754.897 546.612,-731.251"/>
<polygon fill="none" stroke="black" points="548.172,-732.102 549.92,-727.101 545.435,-729.92 548.172,-732.102"/>
</g>
<!-- transition22&#45;&gt;PL17 -->
<g id="edge37" class="edge"><title>transition22&#45;&gt;PL17</title>
<path fill="none" stroke="black" d="M335.042,-995.949C336.145,-994.618 358.741,-967.348 375.386,-947.258"/>
<polygon fill="black" stroke="black" points="378.171,-949.383 381.856,-939.45 372.78,-944.917 378.171,-949.383"/>
</g>
<!-- PL32 -->
<g id="node57" class="node"><title>PL32</title>
<ellipse fill="none" stroke="black" cx="339" cy="-925" rx="18" ry="18"/>
<text text-anchor="middle" x="339" y="-921.3" font-family="Times,serif" font-size="14.00">PL32</text>
</g>
<!-- transition22&#45;&gt;PL32 -->
<g id="edge65" class="edge"><title>transition22&#45;&gt;PL32</title>
<path fill="none" stroke="black" d="M335.003,-995.949C335.072,-994.748 336.347,-972.429 337.439,-953.321"/>
<polygon fill="black" stroke="black" points="340.941,-953.375 338.018,-943.191 333.953,-952.975 340.941,-953.375"/>
</g>
<!-- PL18 -->
<g id="node34" class="node"><title>PL18</title>
<ellipse fill="none" stroke="black" cx="577" cy="-672" rx="18" ry="18"/>
<text text-anchor="middle" x="577" y="-668.3" font-family="Times,serif" font-size="14.00">PL18</text>
</g>
<!-- transition12 -->
<g id="node37" class="node"><title>transition12</title>
<polygon fill="none" stroke="black" points="595,-618 559,-618 559,-617 595,-617 595,-618"/>
<text text-anchor="middle" x="547.5" y="-621.8" font-family="Times,serif" font-size="14.00">aro&#45;</text>
</g>
<!-- PL18&#45;&gt;transition12 -->
<g id="edge40" class="edge"><title>PL18&#45;&gt;transition12</title>
<path fill="none" stroke="black" d="M577,-653.939C577,-643.385 577,-630.534 577,-623.412"/>
<polygon fill="none" stroke="black" points="578.75,-623.059 577,-618.059 575.25,-623.059 578.75,-623.059"/>
</g>
<!-- transition17&#45;&gt;PL18 -->
<g id="edge39" class="edge"><title>transition17&#45;&gt;PL18</title>
<path fill="none" stroke="black" d="M550.077,-725.848C550.884,-724.265 557.85,-710.591 564.494,-697.55"/>
<polygon fill="black" stroke="black" points="567.761,-698.847 569.181,-688.348 561.523,-695.669 567.761,-698.847"/>
</g>
<!-- PL26 -->
<g id="node48" class="node"><title>PL26</title>
<ellipse fill="none" stroke="black" cx="523" cy="-672" rx="18" ry="18"/>
<text text-anchor="middle" x="523" y="-668.3" font-family="Times,serif" font-size="14.00">PL26</text>
</g>
<!-- transition17&#45;&gt;PL26 -->
<g id="edge53" class="edge"><title>transition17&#45;&gt;PL26</title>
<path fill="none" stroke="black" d="M549.923,-725.848C549.116,-724.265 542.15,-710.591 535.506,-697.55"/>
<polygon fill="black" stroke="black" points="538.477,-695.669 530.819,-688.348 532.239,-698.847 538.477,-695.669"/>
</g>
<!-- PL19 -->
<g id="node36" class="node"><title>PL19</title>
<ellipse fill="none" stroke="black" cx="558" cy="-563" rx="18" ry="18"/>
<text text-anchor="middle" x="558" y="-559.3" font-family="Times,serif" font-size="14.00">PL19</text>
</g>
<!-- transition13 -->
<g id="node39" class="node"><title>transition13</title>
<polygon fill="none" stroke="black" points="567,-509 531,-509 531,-508 567,-508 567,-509"/>
<text text-anchor="middle" x="521" y="-512.8" font-family="Times,serif" font-size="14.00">ari&#45;</text>
</g>
<!-- PL19&#45;&gt;transition13 -->
<g id="edge42" class="edge"><title>PL19&#45;&gt;transition13</title>
<path fill="none" stroke="black" d="M555.103,-544.939C553.311,-534.385 551.128,-521.534 549.919,-514.412"/>
<polygon fill="none" stroke="black" points="551.572,-513.696 549.01,-509.059 548.122,-514.282 551.572,-513.696"/>
</g>
<!-- transition12&#45;&gt;PL19 -->
<g id="edge41" class="edge"><title>transition12&#45;&gt;PL19</title>
<path fill="none" stroke="black" d="M576.945,-616.848C576.394,-615.309 571.747,-602.348 567.195,-589.648"/>
<polygon fill="black" stroke="black" points="570.47,-588.413 563.801,-580.181 563.881,-590.775 570.47,-588.413"/>
</g>
<!-- PL20 -->
<g id="node38" class="node"><title>PL20</title>
<ellipse fill="none" stroke="black" cx="532" cy="-454" rx="18" ry="18"/>
<text text-anchor="middle" x="532" y="-450.3" font-family="Times,serif" font-size="14.00">PL20</text>
</g>
<!-- transition19 -->
<g id="node41" class="node"><title>transition19</title>
<polygon fill="none" stroke="black" points="546,-400 510,-400 510,-399 546,-399 546,-400"/>
<text text-anchor="middle" x="496.5" y="-403.8" font-family="Times,serif" font-size="14.00">pro+</text>
</g>
<!-- PL20&#45;&gt;transition19 -->
<g id="edge44" class="edge"><title>PL20&#45;&gt;transition19</title>
<path fill="none" stroke="black" d="M530.712,-435.939C529.916,-425.385 528.946,-412.534 528.408,-405.412"/>
<polygon fill="none" stroke="black" points="530.126,-404.913 528.004,-400.059 526.636,-405.177 530.126,-404.913"/>
</g>
<!-- transition13&#45;&gt;PL20 -->
<g id="edge43" class="edge"><title>transition13&#45;&gt;PL20</title>
<path fill="none" stroke="black" d="M548.951,-507.848C548.466,-506.334 544.433,-493.761 540.423,-481.259"/>
<polygon fill="black" stroke="black" points="543.667,-479.914 537.28,-471.461 537.001,-482.052 543.667,-479.914"/>
</g>
<!-- PL21 -->
<g id="node40" class="node"><title>PL21</title>
<ellipse fill="none" stroke="black" cx="528" cy="-345" rx="18" ry="18"/>
<text text-anchor="middle" x="528" y="-341.3" font-family="Times,serif" font-size="14.00">PL21</text>
</g>
<!-- transition14 -->
<g id="node43" class="node"><title>transition14</title>
<polygon fill="none" stroke="black" points="546,-291 510,-291 510,-290 546,-290 546,-291"/>
<text text-anchor="middle" x="499.5" y="-294.8" font-family="Times,serif" font-size="14.00">pri&#45;</text>
</g>
<!-- PL21&#45;&gt;transition14 -->
<g id="edge46" class="edge"><title>PL21&#45;&gt;transition14</title>
<path fill="none" stroke="black" d="M528,-326.939C528,-316.385 528,-303.534 528,-296.412"/>
<polygon fill="none" stroke="black" points="529.75,-296.059 528,-291.059 526.25,-296.059 529.75,-296.059"/>
</g>
<!-- transition19&#45;&gt;PL21 -->
<g id="edge45" class="edge"><title>transition19&#45;&gt;PL21</title>
<path fill="none" stroke="black" d="M528,-398.848C528,-397.368 528,-385.319 528,-373.1"/>
<polygon fill="black" stroke="black" points="531.5,-373.025 528,-363.025 524.5,-373.025 531.5,-373.025"/>
</g>
<!-- PL22 -->
<g id="node42" class="node"><title>PL22</title>
<ellipse fill="none" stroke="black" cx="541" cy="-236" rx="18" ry="18"/>
<text text-anchor="middle" x="541" y="-232.3" font-family="Times,serif" font-size="14.00">PL22</text>
</g>
<!-- transition15 -->
<g id="node45" class="node"><title>transition15</title>
<polygon fill="none" stroke="black" points="571,-182 535,-182 535,-181 571,-181 571,-182"/>
<text text-anchor="middle" x="522" y="-185.8" font-family="Times,serif" font-size="14.00">aro+</text>
</g>
<!-- PL22&#45;&gt;transition15 -->
<g id="edge48" class="edge"><title>PL22&#45;&gt;transition15</title>
<path fill="none" stroke="black" d="M544.797,-218.23C547.245,-207.419 550.261,-194.098 551.867,-187.004"/>
<polygon fill="none" stroke="black" points="553.589,-187.323 552.986,-182.06 550.175,-186.55 553.589,-187.323"/>
</g>
<!-- transition14&#45;&gt;PL22 -->
<g id="edge47" class="edge"><title>transition14&#45;&gt;PL22</title>
<path fill="none" stroke="black" d="M528.037,-289.848C528.406,-288.344 531.454,-275.919 534.501,-263.496"/>
<polygon fill="black" stroke="black" points="537.91,-264.288 536.893,-253.742 531.112,-262.621 537.91,-264.288"/>
</g>
<!-- PL25 -->
<g id="node65" class="node"><title>PL25</title>
<ellipse fill="none" stroke="black" cx="299" cy="-236" rx="18" ry="18"/>
<text text-anchor="middle" x="299" y="-232.3" font-family="Times,serif" font-size="14.00">PL25</text>
</g>
<!-- transition14&#45;&gt;PL25 -->
<g id="edge75" class="edge"><title>transition14&#45;&gt;PL25</title>
<path fill="none" stroke="black" d="M527.834,-289.962C522.417,-288.708 385.805,-257.09 326.289,-243.316"/>
<polygon fill="black" stroke="black" points="326.979,-239.883 316.447,-241.038 325.401,-246.703 326.979,-239.883"/>
</g>
<!-- PL23 -->
<g id="node44" class="node"><title>PL23</title>
<ellipse fill="none" stroke="black" cx="559" cy="-127" rx="18" ry="18"/>
<text text-anchor="middle" x="559" y="-123.3" font-family="Times,serif" font-size="14.00">PL23</text>
</g>
<!-- transition16 -->
<g id="node47" class="node"><title>transition16</title>
<polygon fill="none" stroke="black" points="583,-73 547,-73 547,-72 583,-72 583,-73"/>
<text text-anchor="middle" x="535.5" y="-76.8" font-family="Times,serif" font-size="14.00">ari+</text>
</g>
<!-- PL23&#45;&gt;transition16 -->
<g id="edge50" class="edge"><title>PL23&#45;&gt;transition16</title>
<path fill="none" stroke="black" d="M560.931,-108.939C562.126,-98.3852 563.581,-85.5344 564.387,-78.4124"/>
<polygon fill="none" stroke="black" points="566.17,-78.2243 564.993,-73.0591 562.692,-77.8305 566.17,-78.2243"/>
</g>
<!-- transition15&#45;&gt;PL23 -->
<g id="edge49" class="edge"><title>transition15&#45;&gt;PL23</title>
<path fill="none" stroke="black" d="M553.017,-180.848C553.185,-179.368 554.549,-167.319 555.932,-155.1"/>
<polygon fill="black" stroke="black" points="559.425,-155.355 557.073,-145.025 552.47,-154.568 559.425,-155.355"/>
</g>
<!-- PL24 -->
<g id="node46" class="node"><title>PL24</title>
<ellipse fill="none" stroke="black" cx="594" cy="-18" rx="18" ry="18"/>
<text text-anchor="middle" x="594" y="-14.3" font-family="Times,serif" font-size="14.00">PL24</text>
</g>
<!-- PL24&#45;&gt;transition17 -->
<g id="edge52" class="edge"><title>PL24&#45;&gt;transition17</title>
<path fill="none" stroke="black" d="M601.02,-34.5938C609.603,-55.1147 623,-92.511 623,-126 623,-618 623,-618 623,-618 623,-651.095 623.24,-663.072 604,-690 590.928,-708.295 565.421,-719.943 554.81,-724.19"/>
<polygon fill="none" stroke="black" points="554.168,-722.562 550.107,-725.963 555.403,-725.837 554.168,-722.562"/>
</g>
<!-- transition16&#45;&gt;PL24 -->
<g id="edge51" class="edge"><title>transition16&#45;&gt;PL24</title>
<path fill="none" stroke="black" d="M565.083,-71.848C565.963,-70.2397 573.672,-56.1515 580.908,-42.9264"/>
<polygon fill="black" stroke="black" points="584.023,-44.5252 585.753,-34.0725 577.882,-41.165 584.023,-44.5252"/>
</g>
<!-- transition18 -->
<g id="node50" class="node"><title>transition18</title>
<polygon fill="none" stroke="black" points="541,-618 505,-618 505,-617 541,-617 541,-618"/>
<text text-anchor="middle" x="493" y="-621.8" font-family="Times,serif" font-size="14.00">pri+</text>
</g>
<!-- PL26&#45;&gt;transition18 -->
<g id="edge54" class="edge"><title>PL26&#45;&gt;transition18</title>
<path fill="none" stroke="black" d="M523,-653.939C523,-643.385 523,-630.534 523,-623.412"/>
<polygon fill="none" stroke="black" points="524.75,-623.059 523,-618.059 521.25,-623.059 524.75,-623.059"/>
</g>
<!-- PL27 -->
<g id="node49" class="node"><title>PL27</title>
<ellipse fill="none" stroke="black" cx="497" cy="-563" rx="18" ry="18"/>
<text text-anchor="middle" x="497" y="-559.3" font-family="Times,serif" font-size="14.00">PL27</text>
</g>
<!-- transition26 -->
<g id="node52" class="node"><title>transition26</title>
<polygon fill="none" stroke="black" points="417,-509 381,-509 381,-508 417,-508 417,-509"/>
<text text-anchor="middle" x="364.5" y="-512.8" font-family="Times,serif" font-size="14.00">breq+</text>
</g>
<!-- PL27&#45;&gt;transition26 -->
<g id="edge56" class="edge"><title>PL27&#45;&gt;transition26</title>
<path fill="none" stroke="black" d="M481.255,-553.485C458.402,-541.125 417.276,-518.884 403.578,-511.476"/>
<polygon fill="none" stroke="black" points="404.388,-509.924 399.157,-509.085 402.723,-513.003 404.388,-509.924"/>
</g>
<!-- transition18&#45;&gt;PL27 -->
<g id="edge55" class="edge"><title>transition18&#45;&gt;PL27</title>
<path fill="none" stroke="black" d="M522.925,-616.848C522.154,-615.275 515.523,-601.759 509.162,-588.791"/>
<polygon fill="black" stroke="black" points="512.211,-587.06 504.665,-579.624 505.927,-590.143 512.211,-587.06"/>
</g>
<!-- PL28 -->
<g id="node51" class="node"><title>PL28</title>
<ellipse fill="none" stroke="black" cx="415" cy="-454" rx="18" ry="18"/>
<text text-anchor="middle" x="415" y="-450.3" font-family="Times,serif" font-size="14.00">PL28</text>
</g>
<!-- PL28&#45;&gt;transition19 -->
<g id="edge58" class="edge"><title>PL28&#45;&gt;transition19</title>
<path fill="none" stroke="black" d="M429.595,-443.195C433.545,-440.713 437.871,-438.145 442,-436 471.776,-420.529 509.725,-406.507 523.082,-401.732"/>
<polygon fill="none" stroke="black" points="523.724,-403.362 527.858,-400.049 522.56,-400.061 523.724,-403.362"/>
</g>
<!-- transition26&#45;&gt;PL28 -->
<g id="edge57" class="edge"><title>transition26&#45;&gt;PL28</title>
<path fill="none" stroke="black" d="M399.046,-507.848C399.503,-506.334 403.299,-493.761 407.073,-481.259"/>
<polygon fill="black" stroke="black" points="410.491,-482.046 410.031,-471.461 403.79,-480.023 410.491,-482.046"/>
</g>
<!-- PL29 -->
<g id="node53" class="node"><title>PL29</title>
<ellipse fill="none" stroke="black" cx="469" cy="-454" rx="18" ry="18"/>
<text text-anchor="middle" x="469" y="-450.3" font-family="Times,serif" font-size="14.00">PL29</text>
</g>
<!-- transition26&#45;&gt;PL29 -->
<g id="edge59" class="edge"><title>transition26&#45;&gt;PL29</title>
<path fill="none" stroke="black" d="M399.051,-507.962C400.362,-506.969 426.823,-486.934 446.813,-471.799"/>
<polygon fill="black" stroke="black" points="449.033,-474.508 454.892,-465.681 444.807,-468.928 449.033,-474.508"/>
</g>
<!-- PL30 -->
<g id="node54" class="node"><title>PL30</title>
<ellipse fill="none" stroke="black" cx="361" cy="-454" rx="18" ry="18"/>
<text text-anchor="middle" x="361" y="-450.3" font-family="Times,serif" font-size="14.00">PL30</text>
</g>
<!-- transition26&#45;&gt;PL30 -->
<g id="edge61" class="edge"><title>transition26&#45;&gt;PL30</title>
<path fill="none" stroke="black" d="M398.891,-507.848C397.687,-506.169 386.726,-490.881 376.901,-477.177"/>
<polygon fill="black" stroke="black" points="379.699,-475.073 371.028,-468.986 374.01,-479.152 379.699,-475.073"/>
</g>
<!-- PL29&#45;&gt;transition20 -->
<g id="edge60" class="edge"><title>PL29&#45;&gt;transition20</title>
<path fill="none" stroke="black" d="M465.078,-471.695C456.946,-507.82 439,-596.037 439,-671 439,-998 439,-998 439,-998 439,-1066.58 359.064,-1124.06 339.353,-1137.18"/>
<polygon fill="none" stroke="black" points="338.322,-1135.77 335.075,-1139.95 340.224,-1138.71 338.322,-1135.77"/>
</g>
<!-- transition21 -->
<g id="node56" class="node"><title>transition21</title>
<polygon fill="none" stroke="black" points="379,-400 343,-400 343,-399 379,-399 379,-400"/>
<text text-anchor="middle" x="326" y="-403.8" font-family="Times,serif" font-size="14.00">bprn+</text>
</g>
<!-- PL30&#45;&gt;transition21 -->
<g id="edge62" class="edge"><title>PL30&#45;&gt;transition21</title>
<path fill="none" stroke="black" d="M361,-435.939C361,-425.385 361,-412.534 361,-405.412"/>
<polygon fill="none" stroke="black" points="362.75,-405.059 361,-400.059 359.25,-405.059 362.75,-405.059"/>
</g>
<!-- PL31 -->
<g id="node55" class="node"><title>PL31</title>
<ellipse fill="none" stroke="black" cx="338" cy="-345" rx="18" ry="18"/>
<text text-anchor="middle" x="338" y="-341.3" font-family="Times,serif" font-size="14.00">PL31</text>
</g>
<!-- PL31&#45;&gt;transition22 -->
<g id="edge64" class="edge"><title>PL31&#45;&gt;transition22</title>
<path fill="none" stroke="black" d="M332.315,-362.083C325.504,-382.82 315,-420.129 315,-453 315,-509 315,-509 315,-509 315,-581.661 293,-598.339 293,-671 293,-854 293,-854 293,-854 293,-910.181 323.605,-973.921 332.564,-991.375"/>
<polygon fill="none" stroke="black" points="331.092,-992.335 334.97,-995.945 334.189,-990.705 331.092,-992.335"/>
</g>
<!-- transition21&#45;&gt;PL31 -->
<g id="edge63" class="edge"><title>transition21&#45;&gt;PL31</title>
<path fill="none" stroke="black" d="M360.934,-398.848C360.262,-397.3 354.571,-384.185 349.026,-371.409"/>
<polygon fill="black" stroke="black" points="352.092,-369.682 344.901,-361.902 345.671,-372.469 352.092,-369.682"/>
</g>
<!-- transition23 -->
<g id="node59" class="node"><title>transition23</title>
<polygon fill="none" stroke="black" points="357,-853.5 321,-853.5 321,-852.5 357,-852.5 357,-853.5"/>
<text text-anchor="middle" x="305.5" y="-857.3" font-family="Times,serif" font-size="14.00">bprn&#45;</text>
</g>
<!-- PL32&#45;&gt;transition23 -->
<g id="edge66" class="edge"><title>PL32&#45;&gt;transition23</title>
<path fill="none" stroke="black" d="M339,-906.697C339,-891.165 339,-869.324 339,-859.348"/>
<polygon fill="none" stroke="black" points="340.75,-859.092 339,-854.092 337.25,-859.092 340.75,-859.092"/>
</g>
<!-- PL33 -->
<g id="node58" class="node"><title>PL33</title>
<ellipse fill="none" stroke="black" cx="339" cy="-781" rx="18" ry="18"/>
<text text-anchor="middle" x="339" y="-777.3" font-family="Times,serif" font-size="14.00">PL33</text>
</g>
<!-- transition24 -->
<g id="node61" class="node"><title>transition24</title>
<polygon fill="none" stroke="black" points="357,-727 321,-727 321,-726 357,-726 357,-727"/>
<text text-anchor="middle" x="313.5" y="-730.8" font-family="Times,serif" font-size="14.00">x+</text>
</g>
<!-- PL33&#45;&gt;transition24 -->
<g id="edge68" class="edge"><title>PL33&#45;&gt;transition24</title>
<path fill="none" stroke="black" d="M339,-762.939C339,-752.385 339,-739.534 339,-732.412"/>
<polygon fill="none" stroke="black" points="340.75,-732.059 339,-727.059 337.25,-732.059 340.75,-732.059"/>
</g>
<!-- transition23&#45;&gt;PL33 -->
<g id="edge67" class="edge"><title>transition23&#45;&gt;PL33</title>
<path fill="none" stroke="black" d="M339,-851.949C339,-850.748 339,-828.429 339,-809.321"/>
<polygon fill="black" stroke="black" points="342.5,-809.191 339,-799.191 335.5,-809.191 342.5,-809.191"/>
</g>
<!-- PL34 -->
<g id="node60" class="node"><title>PL34</title>
<ellipse fill="none" stroke="black" cx="339" cy="-672" rx="18" ry="18"/>
<text text-anchor="middle" x="339" y="-668.3" font-family="Times,serif" font-size="14.00">PL34</text>
</g>
<!-- transition25 -->
<g id="node63" class="node"><title>transition25</title>
<polygon fill="none" stroke="black" points="357,-618 321,-618 321,-617 357,-617 357,-618"/>
<text text-anchor="middle" x="305" y="-621.8" font-family="Times,serif" font-size="14.00">busy&#45;</text>
</g>
<!-- PL34&#45;&gt;transition25 -->
<g id="edge70" class="edge"><title>PL34&#45;&gt;transition25</title>
<path fill="none" stroke="black" d="M339,-653.939C339,-643.385 339,-630.534 339,-623.412"/>
<polygon fill="none" stroke="black" points="340.75,-623.059 339,-618.059 337.25,-623.059 340.75,-623.059"/>
</g>
<!-- transition24&#45;&gt;PL34 -->
<g id="edge69" class="edge"><title>transition24&#45;&gt;PL34</title>
<path fill="none" stroke="black" d="M339,-725.848C339,-724.368 339,-712.319 339,-700.1"/>
<polygon fill="black" stroke="black" points="342.5,-700.025 339,-690.025 335.5,-700.025 342.5,-700.025"/>
</g>
<!-- PL35 -->
<g id="node62" class="node"><title>PL35</title>
<ellipse fill="none" stroke="black" cx="269" cy="-563" rx="18" ry="18"/>
<text text-anchor="middle" x="269" y="-559.3" font-family="Times,serif" font-size="14.00">PL35</text>
</g>
<!-- PL35&#45;&gt;transition28 -->
<g id="edge72" class="edge"><title>PL35&#45;&gt;transition28</title>
<path fill="none" stroke="black" d="M257.645,-548.626C247.757,-536.981 234.028,-520.811 227.596,-513.235"/>
<polygon fill="none" stroke="black" points="228.629,-511.748 224.059,-509.069 225.961,-514.013 228.629,-511.748"/>
</g>
<!-- transition25&#45;&gt;PL35 -->
<g id="edge71" class="edge"><title>transition25&#45;&gt;PL35</title>
<path fill="none" stroke="black" d="M338.949,-616.962C337.638,-615.969 311.177,-595.934 291.187,-580.799"/>
<polygon fill="black" stroke="black" points="293.193,-577.928 283.108,-574.681 288.967,-583.508 293.193,-577.928"/>
</g>
<!-- PL36 -->
<g id="node64" class="node"><title>PL36</title>
<ellipse fill="none" stroke="black" cx="361" cy="-563" rx="18" ry="18"/>
<text text-anchor="middle" x="361" y="-559.3" font-family="Times,serif" font-size="14.00">PL36</text>
</g>
<!-- transition25&#45;&gt;PL36 -->
<g id="edge73" class="edge"><title>transition25&#45;&gt;PL36</title>
<path fill="none" stroke="black" d="M339.063,-616.848C339.706,-615.3 345.15,-602.185 350.453,-589.409"/>
<polygon fill="black" stroke="black" points="353.798,-590.48 354.399,-579.902 347.333,-587.796 353.798,-590.48"/>
</g>
<!-- PL36&#45;&gt;transition26 -->
<g id="edge74" class="edge"><title>PL36&#45;&gt;transition26</title>
<path fill="none" stroke="black" d="M371.183,-547.797C379.362,-536.39 390.34,-521.078 395.732,-513.557"/>
<polygon fill="none" stroke="black" points="397.461,-514.15 398.952,-509.067 394.616,-512.111 397.461,-514.15"/>
</g>
<!-- PL25&#45;&gt;transition22 -->
<g id="edge76" class="edge"><title>PL25&#45;&gt;transition22</title>
<path fill="none" stroke="black" d="M281.564,-240.573C241.638,-249.878 147,-278.811 147,-344 147,-509 147,-509 147,-509 147,-616.729 255,-618.271 255,-726 255,-854 255,-854 255,-854 255,-916.95 315.415,-977.728 331.242,-992.57"/>
<polygon fill="none" stroke="black" points="330.07,-993.869 334.942,-995.949 332.431,-991.285 330.07,-993.869"/>
</g>
<!-- transition27 -->
<g id="node68" class="node"><title>transition27</title>
<polygon fill="none" stroke="black" points="244,-1141.5 208,-1141.5 208,-1140.5 244,-1140.5 244,-1141.5"/>
<text text-anchor="middle" x="190.5" y="-1145.3" font-family="Times,serif" font-size="14.00">xack+</text>
</g>
<!-- PL37&#45;&gt;transition27 -->
<g id="edge78" class="edge"><title>PL37&#45;&gt;transition27</title>
<path fill="none" stroke="black" d="M242.023,-1195.41C237.323,-1179.74 230.559,-1157.2 227.548,-1147.16"/>
<polygon fill="none" stroke="black" points="229.141,-1146.38 226.028,-1142.09 225.789,-1147.39 229.141,-1146.38"/>
</g>
<!-- PL38 -->
<g id="node67" class="node"><title>PL38</title>
<ellipse fill="none" stroke="black" cx="209" cy="-781" rx="18" ry="18"/>
<text text-anchor="middle" x="209" y="-777.3" font-family="Times,serif" font-size="14.00">PL38</text>
</g>
<!-- PL38&#45;&gt;transition28 -->
<g id="edge80" class="edge"><title>PL38&#45;&gt;transition28</title>
<path fill="none" stroke="black" d="M209.961,-762.635C212.94,-708.817 221.924,-546.504 223.695,-514.51"/>
<polygon fill="none" stroke="black" points="225.463,-514.23 223.992,-509.141 221.968,-514.036 225.463,-514.23"/>
</g>
<!-- transition27&#45;&gt;PL38 -->
<g id="edge79" class="edge"><title>transition27&#45;&gt;PL38</title>
<path fill="none" stroke="black" d="M225.991,-1139.94C225.597,-1137.55 213,-1060.38 213,-998 213,-998 213,-998 213,-924 213,-883.98 211.393,-837.641 210.216,-809.073"/>
<polygon fill="black" stroke="black" points="213.711,-808.887 209.79,-799.045 206.718,-809.184 213.711,-808.887"/>
</g>
</g>
</svg>
