<?xml version="1.0" encoding="UTF-8" standalone="no"?>
<!DOCTYPE svg PUBLIC "-//W3C//DTD SVG 1.1//EN"
 "http://www.w3.org/Graphics/SVG/1.1/DTD/svg11.dtd">
<!-- Generated by graphviz version 2.38.0 (20140413.2041)
 -->
<!-- Title: %3 Pages: 1 -->
<svg width="594pt" height="2364pt"
 viewBox="0.00 0.00 594.00 2364.00" xmlns="http://www.w3.org/2000/svg" xmlns:xlink="http://www.w3.org/1999/xlink">
<g id="graph0" class="graph" transform="scale(1 1) rotate(0) translate(4 2360)">
<title>%3</title>
<polygon fill="white" stroke="none" points="-4,4 -4,-2360 590,-2360 590,4 -4,4"/>
<!-- PL1 -->
<g id="node1" class="node"><title>PL1</title>
<ellipse fill="none" stroke="black" cx="540" cy="-2338" rx="18" ry="18"/>
<text text-anchor="middle" x="540" y="-2334.3" font-family="Times,serif" font-size="14.00">PL1</text>
</g>
<!-- transition1 -->
<g id="node3" class="node"><title>transition1</title>
<polygon fill="none" stroke="black" points="512,-2284 476,-2284 476,-2283 512,-2283 512,-2284"/>
<text text-anchor="middle" x="464.5" y="-2287.8" font-family="Times,serif" font-size="14.00">ari+</text>
</g>
<!-- PL1&#45;&gt;transition1 -->
<g id="edge1" class="edge"><title>PL1&#45;&gt;transition1</title>
<path fill="none" stroke="black" d="M528.629,-2323.9C518.526,-2312.26 504.36,-2295.94 497.715,-2288.28"/>
<polygon fill="none" stroke="black" points="498.66,-2286.7 494.061,-2284.07 496.016,-2288.99 498.66,-2286.7"/>
</g>
<!-- PL6 -->
<g id="node2" class="node"><title>PL6</title>
<ellipse fill="none" stroke="black" cx="482" cy="-2229" rx="18" ry="18"/>
<text text-anchor="middle" x="482" y="-2225.3" font-family="Times,serif" font-size="14.00">PL6</text>
</g>
<!-- transition6 -->
<g id="node5" class="node"><title>transition6</title>
<polygon fill="none" stroke="black" points="477,-2175 441,-2175 441,-2174 477,-2174 477,-2175"/>
<text text-anchor="middle" x="429" y="-2178.8" font-family="Times,serif" font-size="14.00">pro&#45;</text>
</g>
<!-- PL6&#45;&gt;transition6 -->
<g id="edge3" class="edge"><title>PL6&#45;&gt;transition6</title>
<path fill="none" stroke="black" d="M475.099,-2212.1C470.279,-2200.99 464.169,-2186.91 461.044,-2179.71"/>
<polygon fill="none" stroke="black" points="462.623,-2178.95 459.027,-2175.06 459.412,-2180.35 462.623,-2178.95"/>
</g>
<!-- transition1&#45;&gt;PL6 -->
<g id="edge2" class="edge"><title>transition1&#45;&gt;PL6</title>
<path fill="none" stroke="black" d="M493.966,-2282.85C493.625,-2281.34 490.812,-2268.92 487.999,-2256.5"/>
<polygon fill="black" stroke="black" points="491.413,-2255.72 485.791,-2246.74 484.585,-2257.27 491.413,-2255.72"/>
</g>
<!-- PL7 -->
<g id="node4" class="node"><title>PL7</title>
<ellipse fill="none" stroke="black" cx="448" cy="-2120" rx="18" ry="18"/>
<text text-anchor="middle" x="448" y="-2116.3" font-family="Times,serif" font-size="14.00">PL7</text>
</g>
<!-- transition2 -->
<g id="node7" class="node"><title>transition2</title>
<polygon fill="none" stroke="black" points="466,-2048.5 430,-2048.5 430,-2047.5 466,-2047.5 466,-2048.5"/>
<text text-anchor="middle" x="418.5" y="-2052.3" font-family="Times,serif" font-size="14.00">aro&#45;</text>
</g>
<!-- PL7&#45;&gt;transition2 -->
<g id="edge5" class="edge"><title>PL7&#45;&gt;transition2</title>
<path fill="none" stroke="black" d="M448,-2101.7C448,-2086.17 448,-2064.32 448,-2054.35"/>
<polygon fill="none" stroke="black" points="449.75,-2054.09 448,-2049.09 446.25,-2054.09 449.75,-2054.09"/>
</g>
<!-- transition6&#45;&gt;PL7 -->
<g id="edge4" class="edge"><title>transition6&#45;&gt;PL7</title>
<path fill="none" stroke="black" d="M458.968,-2173.85C458.659,-2172.36 456.128,-2160.16 453.576,-2147.87"/>
<polygon fill="black" stroke="black" points="456.934,-2146.82 451.475,-2137.74 450.08,-2148.24 456.934,-2146.82"/>
</g>
<!-- PL13 -->
<g id="node18" class="node"><title>PL13</title>
<ellipse fill="none" stroke="black" cx="324" cy="-2048" rx="18" ry="18"/>
<text text-anchor="middle" x="324" y="-2044.3" font-family="Times,serif" font-size="14.00">PL13</text>
</g>
<!-- transition6&#45;&gt;PL13 -->
<g id="edge19" class="edge"><title>transition6&#45;&gt;PL13</title>
<path fill="none" stroke="black" d="M458.902,-2173.91C455.844,-2171.08 381.861,-2102.58 344.784,-2068.24"/>
<polygon fill="black" stroke="black" points="346.767,-2065.31 337.052,-2061.08 342.011,-2070.45 346.767,-2065.31"/>
</g>
<!-- PL8 -->
<g id="node6" class="node"><title>PL8</title>
<ellipse fill="none" stroke="black" cx="448" cy="-1976" rx="18" ry="18"/>
<text text-anchor="middle" x="448" y="-1972.3" font-family="Times,serif" font-size="14.00">PL8</text>
</g>
<!-- transition3 -->
<g id="node9" class="node"><title>transition3</title>
<polygon fill="none" stroke="black" points="466,-1904.5 430,-1904.5 430,-1903.5 466,-1903.5 466,-1904.5"/>
<text text-anchor="middle" x="420" y="-1908.3" font-family="Times,serif" font-size="14.00">ari&#45;</text>
</g>
<!-- PL8&#45;&gt;transition3 -->
<g id="edge7" class="edge"><title>PL8&#45;&gt;transition3</title>
<path fill="none" stroke="black" d="M448,-1957.7C448,-1942.17 448,-1920.32 448,-1910.35"/>
<polygon fill="none" stroke="black" points="449.75,-1910.09 448,-1905.09 446.25,-1910.09 449.75,-1910.09"/>
</g>
<!-- transition2&#45;&gt;PL8 -->
<g id="edge6" class="edge"><title>transition2&#45;&gt;PL8</title>
<path fill="none" stroke="black" d="M448,-2046.95C448,-2045.75 448,-2023.43 448,-2004.32"/>
<polygon fill="black" stroke="black" points="451.5,-2004.19 448,-1994.19 444.5,-2004.19 451.5,-2004.19"/>
</g>
<!-- PL9 -->
<g id="node8" class="node"><title>PL9</title>
<ellipse fill="none" stroke="black" cx="448" cy="-1832" rx="18" ry="18"/>
<text text-anchor="middle" x="448" y="-1828.3" font-family="Times,serif" font-size="14.00">PL9</text>
</g>
<!-- transition10 -->
<g id="node11" class="node"><title>transition10</title>
<polygon fill="none" stroke="black" points="466,-1778 430,-1778 430,-1777 466,-1777 466,-1778"/>
<text text-anchor="middle" x="416.5" y="-1781.8" font-family="Times,serif" font-size="14.00">pro+</text>
</g>
<!-- PL9&#45;&gt;transition10 -->
<g id="edge9" class="edge"><title>PL9&#45;&gt;transition10</title>
<path fill="none" stroke="black" d="M448,-1813.94C448,-1803.39 448,-1790.53 448,-1783.41"/>
<polygon fill="none" stroke="black" points="449.75,-1783.06 448,-1778.06 446.25,-1783.06 449.75,-1783.06"/>
</g>
<!-- transition3&#45;&gt;PL9 -->
<g id="edge8" class="edge"><title>transition3&#45;&gt;PL9</title>
<path fill="none" stroke="black" d="M448,-1902.95C448,-1901.75 448,-1879.43 448,-1860.32"/>
<polygon fill="black" stroke="black" points="451.5,-1860.19 448,-1850.19 444.5,-1860.19 451.5,-1860.19"/>
</g>
<!-- PL10 -->
<g id="node10" class="node"><title>PL10</title>
<ellipse fill="none" stroke="black" cx="448" cy="-1723" rx="18" ry="18"/>
<text text-anchor="middle" x="448" y="-1719.3" font-family="Times,serif" font-size="14.00">PL10</text>
</g>
<!-- transition4 -->
<g id="node13" class="node"><title>transition4</title>
<polygon fill="none" stroke="black" points="466,-1669 430,-1669 430,-1668 466,-1668 466,-1669"/>
<text text-anchor="middle" x="419.5" y="-1672.8" font-family="Times,serif" font-size="14.00">pri&#45;</text>
</g>
<!-- PL10&#45;&gt;transition4 -->
<g id="edge11" class="edge"><title>PL10&#45;&gt;transition4</title>
<path fill="none" stroke="black" d="M448,-1704.94C448,-1694.39 448,-1681.53 448,-1674.41"/>
<polygon fill="none" stroke="black" points="449.75,-1674.06 448,-1669.06 446.25,-1674.06 449.75,-1674.06"/>
</g>
<!-- transition10&#45;&gt;PL10 -->
<g id="edge10" class="edge"><title>transition10&#45;&gt;PL10</title>
<path fill="none" stroke="black" d="M448,-1776.85C448,-1775.37 448,-1763.32 448,-1751.1"/>
<polygon fill="black" stroke="black" points="451.5,-1751.02 448,-1741.02 444.5,-1751.02 451.5,-1751.02"/>
</g>
<!-- PL11 -->
<g id="node12" class="node"><title>PL11</title>
<ellipse fill="none" stroke="black" cx="540" cy="-1614" rx="18" ry="18"/>
<text text-anchor="middle" x="540" y="-1610.3" font-family="Times,serif" font-size="14.00">PL11</text>
</g>
<!-- transition5 -->
<g id="node14" class="node"><title>transition5</title>
<polygon fill="none" stroke="black" points="581,-1560 545,-1560 545,-1559 581,-1559 581,-1560"/>
<text text-anchor="middle" x="532" y="-1563.8" font-family="Times,serif" font-size="14.00">aro+</text>
</g>
<!-- PL11&#45;&gt;transition5 -->
<g id="edge13" class="edge"><title>PL11&#45;&gt;transition5</title>
<path fill="none" stroke="black" d="M546.901,-1597.1C551.721,-1585.99 557.831,-1571.91 560.956,-1564.71"/>
<polygon fill="none" stroke="black" points="562.588,-1565.35 562.973,-1560.06 559.377,-1563.95 562.588,-1565.35"/>
</g>
<!-- transition4&#45;&gt;PL11 -->
<g id="edge12" class="edge"><title>transition4&#45;&gt;PL11</title>
<path fill="none" stroke="black" d="M448.067,-1667.96C449.907,-1666.9 489.413,-1644.14 516.032,-1628.81"/>
<polygon fill="black" stroke="black" points="517.91,-1631.77 524.827,-1623.74 514.415,-1625.7 517.91,-1631.77"/>
</g>
<!-- PL12 -->
<g id="node15" class="node"><title>PL12</title>
<ellipse fill="none" stroke="black" cx="448" cy="-1614" rx="18" ry="18"/>
<text text-anchor="middle" x="448" y="-1610.3" font-family="Times,serif" font-size="14.00">PL12</text>
</g>
<!-- transition4&#45;&gt;PL12 -->
<g id="edge15" class="edge"><title>transition4&#45;&gt;PL12</title>
<path fill="none" stroke="black" d="M448,-1667.85C448,-1666.37 448,-1654.32 448,-1642.1"/>
<polygon fill="black" stroke="black" points="451.5,-1642.02 448,-1632.02 444.5,-1642.02 451.5,-1642.02"/>
</g>
<!-- transition5&#45;&gt;PL1 -->
<g id="edge14" class="edge"><title>transition5&#45;&gt;PL1</title>
<path fill="none" stroke="black" d="M563.017,-1560.04C563.713,-1561.84 586,-1619.69 586,-1668 586,-2230 586,-2230 586,-2230 586,-2261.18 569.314,-2293.61 556.041,-2314.48"/>
<polygon fill="black" stroke="black" points="553.04,-2312.67 550.438,-2322.94 558.877,-2316.54 553.04,-2312.67"/>
</g>
<!-- transition12 -->
<g id="node17" class="node"><title>transition12</title>
<polygon fill="none" stroke="black" points="466,-1560 430,-1560 430,-1559 466,-1559 466,-1560"/>
<text text-anchor="middle" x="415" y="-1563.8" font-family="Times,serif" font-size="14.00">breq&#45;</text>
</g>
<!-- PL12&#45;&gt;transition12 -->
<g id="edge16" class="edge"><title>PL12&#45;&gt;transition12</title>
<path fill="none" stroke="black" d="M448,-1595.94C448,-1585.39 448,-1572.53 448,-1565.41"/>
<polygon fill="none" stroke="black" points="449.75,-1565.06 448,-1560.06 446.25,-1565.06 449.75,-1565.06"/>
</g>
<!-- PL2 -->
<g id="node16" class="node"><title>PL2</title>
<ellipse fill="none" stroke="black" cx="532" cy="-1505" rx="18" ry="18"/>
<text text-anchor="middle" x="532" y="-1501.3" font-family="Times,serif" font-size="14.00">PL2</text>
</g>
<!-- PL2&#45;&gt;transition6 -->
<g id="edge18" class="edge"><title>PL2&#45;&gt;transition6</title>
<path fill="none" stroke="black" d="M522.995,-1521C511.757,-1541.17 494,-1578.5 494,-1613 494,-2049 494,-2049 494,-2049 494,-2089.45 487.503,-2099.53 475,-2138 471.231,-2149.59 464.954,-2162.5 461.488,-2169.26"/>
<polygon fill="none" stroke="black" points="459.806,-2168.7 459.031,-2173.94 462.904,-2170.33 459.806,-2168.7"/>
</g>
<!-- transition12&#45;&gt;PL2 -->
<g id="edge17" class="edge"><title>transition12&#45;&gt;PL2</title>
<path fill="none" stroke="black" d="M448.061,-1558.96C449.7,-1557.93 484.067,-1536.24 508.312,-1520.95"/>
<polygon fill="black" stroke="black" points="510.429,-1523.75 517.019,-1515.45 506.694,-1517.83 510.429,-1523.75"/>
</g>
<!-- PL20 -->
<g id="node26" class="node"><title>PL20</title>
<ellipse fill="none" stroke="black" cx="402" cy="-1505" rx="18" ry="18"/>
<text text-anchor="middle" x="402" y="-1501.3" font-family="Times,serif" font-size="14.00">PL20</text>
</g>
<!-- transition12&#45;&gt;PL20 -->
<g id="edge29" class="edge"><title>transition12&#45;&gt;PL20</title>
<path fill="none" stroke="black" d="M447.868,-1558.85C446.37,-1557.12 432.401,-1541.03 420.268,-1527.05"/>
<polygon fill="black" stroke="black" points="422.643,-1524.44 413.445,-1519.19 417.356,-1529.03 422.643,-1524.44"/>
</g>
<!-- transition27 -->
<g id="node20" class="node"><title>transition27</title>
<polygon fill="none" stroke="black" points="308,-1976.5 272,-1976.5 272,-1975.5 308,-1975.5 308,-1976.5"/>
<text text-anchor="middle" x="260" y="-1980.3" font-family="Times,serif" font-size="14.00">pri+</text>
</g>
<!-- PL13&#45;&gt;transition27 -->
<g id="edge20" class="edge"><title>PL13&#45;&gt;transition27</title>
<path fill="none" stroke="black" d="M316.454,-2031.46C308.722,-2015.54 297.163,-1991.75 292.293,-1981.72"/>
<polygon fill="none" stroke="black" points="293.806,-1980.83 290.047,-1977.1 290.658,-1982.36 293.806,-1980.83"/>
</g>
<!-- PL14 -->
<g id="node19" class="node"><title>PL14</title>
<ellipse fill="none" stroke="black" cx="273" cy="-1904" rx="18" ry="18"/>
<text text-anchor="middle" x="273" y="-1900.3" font-family="Times,serif" font-size="14.00">PL14</text>
</g>
<!-- transition28 -->
<g id="node22" class="node"><title>transition28</title>
<polygon fill="none" stroke="black" points="290,-1124 254,-1124 254,-1123 290,-1123 290,-1124"/>
<text text-anchor="middle" x="237.5" y="-1127.8" font-family="Times,serif" font-size="14.00">breq+</text>
</g>
<!-- PL14&#45;&gt;transition28 -->
<g id="edge22" class="edge"><title>PL14&#45;&gt;transition28</title>
<path fill="none" stroke="black" d="M271.003,-1886.04C268.351,-1862.03 264,-1816.73 264,-1778 264,-1778 264,-1778 264,-1232 264,-1192.39 269.417,-1144.84 271.336,-1129.24"/>
<polygon fill="none" stroke="black" points="273.102,-1129.22 271.994,-1124.04 269.629,-1128.78 273.102,-1129.22"/>
</g>
<!-- transition27&#45;&gt;PL14 -->
<g id="edge21" class="edge"><title>transition27&#45;&gt;PL14</title>
<path fill="none" stroke="black" d="M289.988,-1974.95C289.693,-1973.74 284.162,-1950.96 279.49,-1931.72"/>
<polygon fill="black" stroke="black" points="282.851,-1930.73 277.089,-1921.84 276.048,-1932.38 282.851,-1930.73"/>
</g>
<!-- PL15 -->
<g id="node21" class="node"><title>PL15</title>
<ellipse fill="none" stroke="black" cx="180" cy="-1069" rx="18" ry="18"/>
<text text-anchor="middle" x="180" y="-1065.3" font-family="Times,serif" font-size="14.00">PL15</text>
</g>
<!-- PL15&#45;&gt;transition10 -->
<g id="edge24" class="edge"><title>PL15&#45;&gt;transition10</title>
<path fill="none" stroke="black" d="M193.056,-1082.24C224.529,-1113.15 302,-1198.14 302,-1286 302,-1669 302,-1669 302,-1669 302,-1740.69 417.191,-1770.23 442.937,-1775.94"/>
<polygon fill="none" stroke="black" points="442.642,-1777.67 447.894,-1776.98 443.359,-1774.24 442.642,-1777.67"/>
</g>
<!-- transition28&#45;&gt;PL15 -->
<g id="edge23" class="edge"><title>transition28&#45;&gt;PL15</title>
<path fill="none" stroke="black" d="M271.933,-1122.96C270.093,-1121.9 230.587,-1099.14 203.968,-1083.81"/>
<polygon fill="black" stroke="black" points="205.585,-1080.7 195.173,-1078.74 202.09,-1086.77 205.585,-1080.7"/>
</g>
<!-- PL16 -->
<g id="node23" class="node"><title>PL16</title>
<ellipse fill="none" stroke="black" cx="272" cy="-888" rx="18" ry="18"/>
<text text-anchor="middle" x="272" y="-884.3" font-family="Times,serif" font-size="14.00">PL16</text>
</g>
<!-- transition28&#45;&gt;PL16 -->
<g id="edge25" class="edge"><title>transition28&#45;&gt;PL16</title>
<path fill="none" stroke="black" d="M271.94,-1122.95C270.722,-1121.93 251.127,-1105.38 245,-1087 224.621,-1025.86 229.958,-1004.66 245,-942 247.469,-931.715 252.284,-921.177 257.173,-912.233"/>
<polygon fill="black" stroke="black" points="260.209,-913.975 262.199,-903.569 254.154,-910.462 260.209,-913.975"/>
</g>
<!-- PL18 -->
<g id="node33" class="node"><title>PL18</title>
<ellipse fill="none" stroke="black" cx="272" cy="-1069" rx="18" ry="18"/>
<text text-anchor="middle" x="272" y="-1065.3" font-family="Times,serif" font-size="14.00">PL18</text>
</g>
<!-- transition28&#45;&gt;PL18 -->
<g id="edge37" class="edge"><title>transition28&#45;&gt;PL18</title>
<path fill="none" stroke="black" d="M272,-1122.85C272,-1121.37 272,-1109.32 272,-1097.1"/>
<polygon fill="black" stroke="black" points="275.5,-1097.02 272,-1087.02 268.5,-1097.02 275.5,-1097.02"/>
</g>
<!-- transition24 -->
<g id="node25" class="node"><title>transition24</title>
<polygon fill="none" stroke="black" points="382,-435 346,-435 346,-434 382,-434 382,-435"/>
<text text-anchor="middle" x="328.5" y="-438.8" font-family="Times,serif" font-size="14.00">busy+</text>
</g>
<!-- PL16&#45;&gt;transition24 -->
<g id="edge26" class="edge"><title>PL16&#45;&gt;transition24</title>
<path fill="none" stroke="black" d="M275.901,-870.401C288.246,-817.545 327.163,-648.336 353,-507 357.538,-482.177 361.685,-452.302 363.294,-440.336"/>
<polygon fill="none" stroke="black" points="365.063,-440.303 363.985,-435.116 361.593,-439.843 365.063,-440.303"/>
</g>
<!-- PL17 -->
<g id="node24" class="node"><title>PL17</title>
<ellipse fill="none" stroke="black" cx="402" cy="-380" rx="18" ry="18"/>
<text text-anchor="middle" x="402" y="-376.3" font-family="Times,serif" font-size="14.00">PL17</text>
</g>
<!-- PL17&#45;&gt;transition12 -->
<g id="edge28" class="edge"><title>PL17&#45;&gt;transition12</title>
<path fill="none" stroke="black" d="M417.018,-390.504C441.179,-407.1 486,-443.836 486,-488 486,-1451 486,-1451 486,-1451 486,-1493.36 459.663,-1540.04 450.841,-1554.49"/>
<polygon fill="none" stroke="black" points="449.29,-1553.67 448.109,-1558.83 452.252,-1555.53 449.29,-1553.67"/>
</g>
<!-- transition24&#45;&gt;PL17 -->
<g id="edge27" class="edge"><title>transition24&#45;&gt;PL17</title>
<path fill="none" stroke="black" d="M364.109,-433.848C365.313,-432.169 376.274,-416.881 386.099,-403.177"/>
<polygon fill="black" stroke="black" points="388.99,-405.152 391.972,-394.986 383.301,-401.073 388.99,-405.152"/>
</g>
<!-- transition7 -->
<g id="node28" class="node"><title>transition7</title>
<polygon fill="none" stroke="black" points="401,-1451 365,-1451 365,-1450 401,-1450 401,-1451"/>
<text text-anchor="middle" x="349.5" y="-1454.8" font-family="Times,serif" font-size="14.00">bprn&#45;</text>
</g>
<!-- PL20&#45;&gt;transition7 -->
<g id="edge30" class="edge"><title>PL20&#45;&gt;transition7</title>
<path fill="none" stroke="black" d="M396.196,-1487.81C392.306,-1476.96 387.435,-1463.37 384.836,-1456.12"/>
<polygon fill="none" stroke="black" points="386.357,-1455.18 383.022,-1451.06 383.062,-1456.36 386.357,-1455.18"/>
</g>
<!-- PL21 -->
<g id="node27" class="node"><title>PL21</title>
<ellipse fill="none" stroke="black" cx="381" cy="-1396" rx="18" ry="18"/>
<text text-anchor="middle" x="381" y="-1392.3" font-family="Times,serif" font-size="14.00">PL21</text>
</g>
<!-- transition8 -->
<g id="node30" class="node"><title>transition8</title>
<polygon fill="none" stroke="black" points="390,-1342 354,-1342 354,-1341 390,-1341 390,-1342"/>
<text text-anchor="middle" x="346.5" y="-1345.8" font-family="Times,serif" font-size="14.00">x+</text>
</g>
<!-- PL21&#45;&gt;transition8 -->
<g id="edge32" class="edge"><title>PL21&#45;&gt;transition8</title>
<path fill="none" stroke="black" d="M378.103,-1377.94C376.311,-1367.39 374.128,-1354.53 372.919,-1347.41"/>
<polygon fill="none" stroke="black" points="374.572,-1346.7 372.01,-1342.06 371.122,-1347.28 374.572,-1346.7"/>
</g>
<!-- transition7&#45;&gt;PL21 -->
<g id="edge31" class="edge"><title>transition7&#45;&gt;PL21</title>
<path fill="none" stroke="black" d="M382.994,-1449.85C382.938,-1448.37 382.484,-1436.32 382.023,-1424.1"/>
<polygon fill="black" stroke="black" points="385.517,-1423.89 381.642,-1414.02 378.522,-1424.15 385.517,-1423.89"/>
</g>
<!-- PL22 -->
<g id="node29" class="node"><title>PL22</title>
<ellipse fill="none" stroke="black" cx="367" cy="-1287" rx="18" ry="18"/>
<text text-anchor="middle" x="367" y="-1283.3" font-family="Times,serif" font-size="14.00">PL22</text>
</g>
<!-- transition9 -->
<g id="node32" class="node"><title>transition9</title>
<polygon fill="none" stroke="black" points="382,-1233 346,-1233 346,-1232 382,-1232 382,-1233"/>
<text text-anchor="middle" x="330" y="-1236.8" font-family="Times,serif" font-size="14.00">busy&#45;</text>
</g>
<!-- PL22&#45;&gt;transition9 -->
<g id="edge34" class="edge"><title>PL22&#45;&gt;transition9</title>
<path fill="none" stroke="black" d="M366.034,-1268.94C365.437,-1258.39 364.709,-1245.53 364.306,-1238.41"/>
<polygon fill="none" stroke="black" points="366.033,-1237.95 364.003,-1233.06 362.539,-1238.15 366.033,-1237.95"/>
</g>
<!-- transition8&#45;&gt;PL22 -->
<g id="edge33" class="edge"><title>transition8&#45;&gt;PL22</title>
<path fill="none" stroke="black" d="M371.986,-1340.85C371.846,-1339.37 370.709,-1327.32 369.557,-1315.1"/>
<polygon fill="black" stroke="black" points="373.03,-1314.65 368.606,-1305.02 366.061,-1315.31 373.03,-1314.65"/>
</g>
<!-- PL3 -->
<g id="node31" class="node"><title>PL3</title>
<ellipse fill="none" stroke="black" cx="310" cy="-1178" rx="18" ry="18"/>
<text text-anchor="middle" x="310" y="-1174.3" font-family="Times,serif" font-size="14.00">PL3</text>
</g>
<!-- PL3&#45;&gt;transition28 -->
<g id="edge36" class="edge"><title>PL3&#45;&gt;transition28</title>
<path fill="none" stroke="black" d="M299.817,-1162.8C291.638,-1151.39 280.66,-1136.08 275.268,-1128.56"/>
<polygon fill="none" stroke="black" points="276.384,-1127.11 272.048,-1124.07 273.539,-1129.15 276.384,-1127.11"/>
</g>
<!-- transition9&#45;&gt;PL3 -->
<g id="edge35" class="edge"><title>transition9&#45;&gt;PL3</title>
<path fill="none" stroke="black" d="M363.845,-1231.85C362.012,-1230.05 344.262,-1212.63 329.635,-1198.27"/>
<polygon fill="black" stroke="black" points="331.96,-1195.65 322.372,-1191.14 327.057,-1200.65 331.96,-1195.65"/>
</g>
<!-- PL23 -->
<g id="node36" class="node"><title>PL23</title>
<ellipse fill="none" stroke="black" cx="364" cy="-1178" rx="18" ry="18"/>
<text text-anchor="middle" x="364" y="-1174.3" font-family="Times,serif" font-size="14.00">PL23</text>
</g>
<!-- transition9&#45;&gt;PL23 -->
<g id="edge41" class="edge"><title>transition9&#45;&gt;PL23</title>
<path fill="none" stroke="black" d="M364,-1231.85C364,-1230.37 364,-1218.32 364,-1206.1"/>
<polygon fill="black" stroke="black" points="367.5,-1206.02 364,-1196.02 360.5,-1206.02 367.5,-1206.02"/>
</g>
<!-- transition11 -->
<g id="node35" class="node"><title>transition11</title>
<polygon fill="none" stroke="black" points="290,-1015 254,-1015 254,-1014 290,-1014 290,-1015"/>
<text text-anchor="middle" x="237" y="-1018.8" font-family="Times,serif" font-size="14.00">bprn+</text>
</g>
<!-- PL18&#45;&gt;transition11 -->
<g id="edge38" class="edge"><title>PL18&#45;&gt;transition11</title>
<path fill="none" stroke="black" d="M272,-1050.94C272,-1040.39 272,-1027.53 272,-1020.41"/>
<polygon fill="none" stroke="black" points="273.75,-1020.06 272,-1015.06 270.25,-1020.06 273.75,-1020.06"/>
</g>
<!-- PL19 -->
<g id="node34" class="node"><title>PL19</title>
<ellipse fill="none" stroke="black" cx="272" cy="-960" rx="18" ry="18"/>
<text text-anchor="middle" x="272" y="-956.3" font-family="Times,serif" font-size="14.00">PL19</text>
</g>
<!-- PL19&#45;&gt;transition12 -->
<g id="edge40" class="edge"><title>PL19&#45;&gt;transition12</title>
<path fill="none" stroke="black" d="M286.703,-970.391C329.003,-997.931 448,-1079.29 448,-1123 448,-1451 448,-1451 448,-1451 448,-1490.5 448,-1538.12 448,-1553.75"/>
<polygon fill="none" stroke="black" points="446.25,-1553.96 448,-1558.96 449.75,-1553.96 446.25,-1553.96"/>
</g>
<!-- transition11&#45;&gt;PL19 -->
<g id="edge39" class="edge"><title>transition11&#45;&gt;PL19</title>
<path fill="none" stroke="black" d="M272,-1013.85C272,-1012.37 272,-1000.32 272,-988.1"/>
<polygon fill="black" stroke="black" points="275.5,-988.025 272,-978.025 268.5,-988.025 275.5,-988.025"/>
</g>
<!-- transition26 -->
<g id="node38" class="node"><title>transition26</title>
<polygon fill="none" stroke="black" points="382,-1124 346,-1124 346,-1123 382,-1123 382,-1124"/>
<text text-anchor="middle" x="329" y="-1127.8" font-family="Times,serif" font-size="14.00">mrdc&#45;</text>
</g>
<!-- PL23&#45;&gt;transition26 -->
<g id="edge42" class="edge"><title>PL23&#45;&gt;transition26</title>
<path fill="none" stroke="black" d="M364,-1159.94C364,-1149.39 364,-1136.53 364,-1129.41"/>
<polygon fill="none" stroke="black" points="365.75,-1129.06 364,-1124.06 362.25,-1129.06 365.75,-1129.06"/>
</g>
<!-- PL24 -->
<g id="node37" class="node"><title>PL24</title>
<ellipse fill="none" stroke="black" cx="364" cy="-1069" rx="18" ry="18"/>
<text text-anchor="middle" x="364" y="-1065.3" font-family="Times,serif" font-size="14.00">PL24</text>
</g>
<!-- transition13 -->
<g id="node40" class="node"><title>transition13</title>
<polygon fill="none" stroke="black" points="420,-1015 384,-1015 384,-1014 420,-1014 420,-1015"/>
<text text-anchor="middle" x="368" y="-1018.8" font-family="Times,serif" font-size="14.00">xack&#45;</text>
</g>
<!-- PL24&#45;&gt;transition13 -->
<g id="edge44" class="edge"><title>PL24&#45;&gt;transition13</title>
<path fill="none" stroke="black" d="M374.183,-1053.8C382.362,-1042.39 393.34,-1027.08 398.732,-1019.56"/>
<polygon fill="none" stroke="black" points="400.461,-1020.15 401.952,-1015.07 397.616,-1018.11 400.461,-1020.15"/>
</g>
<!-- transition26&#45;&gt;PL24 -->
<g id="edge43" class="edge"><title>transition26&#45;&gt;PL24</title>
<path fill="none" stroke="black" d="M364,-1122.85C364,-1121.37 364,-1109.32 364,-1097.1"/>
<polygon fill="black" stroke="black" points="367.5,-1097.02 364,-1087.02 360.5,-1097.02 367.5,-1097.02"/>
</g>
<!-- PL25 -->
<g id="node39" class="node"><title>PL25</title>
<ellipse fill="none" stroke="black" cx="402" cy="-960" rx="18" ry="18"/>
<text text-anchor="middle" x="402" y="-956.3" font-family="Times,serif" font-size="14.00">PL25</text>
</g>
<!-- transition19 -->
<g id="node42" class="node"><title>transition19</title>
<polygon fill="none" stroke="black" points="420,-888.5 384,-888.5 384,-887.5 420,-887.5 420,-888.5"/>
<text text-anchor="middle" x="378" y="-892.3" font-family="Times,serif" font-size="14.00">x&#45;</text>
</g>
<!-- PL25&#45;&gt;transition19 -->
<g id="edge46" class="edge"><title>PL25&#45;&gt;transition19</title>
<path fill="none" stroke="black" d="M402,-941.697C402,-926.165 402,-904.324 402,-894.348"/>
<polygon fill="none" stroke="black" points="403.75,-894.092 402,-889.092 400.25,-894.092 403.75,-894.092"/>
</g>
<!-- transition13&#45;&gt;PL25 -->
<g id="edge45" class="edge"><title>transition13&#45;&gt;PL25</title>
<path fill="none" stroke="black" d="M402,-1013.85C402,-1012.37 402,-1000.32 402,-988.1"/>
<polygon fill="black" stroke="black" points="405.5,-988.025 402,-978.025 398.5,-988.025 405.5,-988.025"/>
</g>
<!-- PL5 -->
<g id="node41" class="node"><title>PL5</title>
<ellipse fill="none" stroke="black" cx="364" cy="-816" rx="18" ry="18"/>
<text text-anchor="middle" x="364" y="-812.3" font-family="Times,serif" font-size="14.00">PL5</text>
</g>
<!-- transition14 -->
<g id="node44" class="node"><title>transition14</title>
<polygon fill="none" stroke="black" points="382,-762 346,-762 346,-761 382,-761 382,-762"/>
<text text-anchor="middle" x="335" y="-765.8" font-family="Times,serif" font-size="14.00">do+</text>
</g>
<!-- PL5&#45;&gt;transition14 -->
<g id="edge48" class="edge"><title>PL5&#45;&gt;transition14</title>
<path fill="none" stroke="black" d="M364,-797.939C364,-787.385 364,-774.534 364,-767.412"/>
<polygon fill="none" stroke="black" points="365.75,-767.059 364,-762.059 362.25,-767.059 365.75,-767.059"/>
</g>
<!-- transition19&#45;&gt;PL5 -->
<g id="edge47" class="edge"><title>transition19&#45;&gt;PL5</title>
<path fill="none" stroke="black" d="M401.972,-886.949C401.282,-885.677 387.739,-860.729 377.022,-840.987"/>
<polygon fill="black" stroke="black" points="380.051,-839.232 372.204,-832.114 373.899,-842.572 380.051,-839.232"/>
</g>
<!-- PL34 -->
<g id="node43" class="node"><title>PL34</title>
<ellipse fill="none" stroke="black" cx="276" cy="-707" rx="18" ry="18"/>
<text text-anchor="middle" x="276" y="-703.3" font-family="Times,serif" font-size="14.00">PL34</text>
</g>
<!-- transition15 -->
<g id="node46" class="node"><title>transition15</title>
<polygon fill="none" stroke="black" points="290,-653 254,-653 254,-652 290,-652 290,-653"/>
<text text-anchor="middle" x="244.5" y="-656.8" font-family="Times,serif" font-size="14.00">di+</text>
</g>
<!-- PL34&#45;&gt;transition15 -->
<g id="edge50" class="edge"><title>PL34&#45;&gt;transition15</title>
<path fill="none" stroke="black" d="M274.712,-688.939C273.916,-678.385 272.946,-665.534 272.408,-658.412"/>
<polygon fill="none" stroke="black" points="274.126,-657.913 272.004,-653.059 270.636,-658.177 274.126,-657.913"/>
</g>
<!-- transition14&#45;&gt;PL34 -->
<g id="edge49" class="edge"><title>transition14&#45;&gt;PL34</title>
<path fill="none" stroke="black" d="M363.936,-760.962C362.203,-759.917 325.506,-737.816 300.072,-722.498"/>
<polygon fill="black" stroke="black" points="301.669,-719.374 291.297,-717.213 298.058,-725.371 301.669,-719.374"/>
</g>
<!-- PL35 -->
<g id="node45" class="node"><title>PL35</title>
<ellipse fill="none" stroke="black" cx="182" cy="-598" rx="18" ry="18"/>
<text text-anchor="middle" x="182" y="-594.3" font-family="Times,serif" font-size="14.00">PL35</text>
</g>
<!-- transition18 -->
<g id="node48" class="node"><title>transition18</title>
<polygon fill="none" stroke="black" points="164,-544 128,-544 128,-543 164,-543 164,-544"/>
<text text-anchor="middle" x="115" y="-547.8" font-family="Times,serif" font-size="14.00">pdo&#45;</text>
</g>
<!-- PL35&#45;&gt;transition18 -->
<g id="edge52" class="edge"><title>PL35&#45;&gt;transition18</title>
<path fill="none" stroke="black" d="M172.353,-582.797C164.605,-571.39 154.204,-556.078 149.096,-548.557"/>
<polygon fill="none" stroke="black" points="150.302,-547.22 146.045,-544.067 147.407,-549.186 150.302,-547.22"/>
</g>
<!-- transition15&#45;&gt;PL35 -->
<g id="edge51" class="edge"><title>transition15&#45;&gt;PL35</title>
<path fill="none" stroke="black" d="M271.935,-651.962C270.144,-650.907 231.895,-628.383 205.861,-613.052"/>
<polygon fill="black" stroke="black" points="207.635,-610.034 197.242,-607.976 204.083,-616.066 207.635,-610.034"/>
</g>
<!-- PL36 -->
<g id="node62" class="node"><title>PL36</title>
<ellipse fill="none" stroke="black" cx="272" cy="-598" rx="18" ry="18"/>
<text text-anchor="middle" x="272" y="-594.3" font-family="Times,serif" font-size="14.00">PL36</text>
</g>
<!-- transition15&#45;&gt;PL36 -->
<g id="edge71" class="edge"><title>transition15&#45;&gt;PL36</title>
<path fill="none" stroke="black" d="M272,-651.848C272,-650.368 272,-638.319 272,-626.1"/>
<polygon fill="black" stroke="black" points="275.5,-626.025 272,-616.025 268.5,-626.025 275.5,-626.025"/>
</g>
<!-- PL27 -->
<g id="node47" class="node"><title>PL27</title>
<ellipse fill="none" stroke="black" cx="218" cy="-489" rx="18" ry="18"/>
<text text-anchor="middle" x="218" y="-485.3" font-family="Times,serif" font-size="14.00">PL27</text>
</g>
<!-- transition23 -->
<g id="node50" class="node"><title>transition23</title>
<polygon fill="none" stroke="black" points="283,-435 247,-435 247,-434 283,-434 283,-435"/>
<text text-anchor="middle" x="237.5" y="-438.8" font-family="Times,serif" font-size="14.00">do&#45;</text>
</g>
<!-- PL27&#45;&gt;transition23 -->
<g id="edge54" class="edge"><title>PL27&#45;&gt;transition23</title>
<path fill="none" stroke="black" d="M229.618,-474.899C240.152,-463.02 255.008,-446.268 261.61,-438.823"/>
<polygon fill="none" stroke="black" points="262.93,-439.972 264.938,-435.07 260.311,-437.65 262.93,-439.972"/>
</g>
<!-- transition18&#45;&gt;PL27 -->
<g id="edge53" class="edge"><title>transition18&#45;&gt;PL27</title>
<path fill="none" stroke="black" d="M146.052,-542.962C147.408,-541.963 174.919,-521.712 195.52,-506.548"/>
<polygon fill="black" stroke="black" points="197.85,-509.178 203.829,-500.432 193.701,-503.541 197.85,-509.178"/>
</g>
<!-- PL31 -->
<g id="node57" class="node"><title>PL31</title>
<ellipse fill="none" stroke="black" cx="110" cy="-489" rx="18" ry="18"/>
<text text-anchor="middle" x="110" y="-485.3" font-family="Times,serif" font-size="14.00">PL31</text>
</g>
<!-- transition18&#45;&gt;PL31 -->
<g id="edge63" class="edge"><title>transition18&#45;&gt;PL31</title>
<path fill="none" stroke="black" d="M145.897,-542.848C144.774,-541.194 134.689,-526.347 125.494,-512.81"/>
<polygon fill="black" stroke="black" points="128.197,-510.561 119.683,-504.255 122.406,-514.494 128.197,-510.561"/>
</g>
<!-- PL28 -->
<g id="node49" class="node"><title>PL28</title>
<ellipse fill="none" stroke="black" cx="265" cy="-380" rx="18" ry="18"/>
<text text-anchor="middle" x="265" y="-376.3" font-family="Times,serif" font-size="14.00">PL28</text>
</g>
<!-- transition16 -->
<g id="node52" class="node"><title>transition16</title>
<polygon fill="none" stroke="black" points="283,-308.5 247,-308.5 247,-307.5 283,-307.5 283,-308.5"/>
<text text-anchor="middle" x="239" y="-312.3" font-family="Times,serif" font-size="14.00">di&#45;</text>
</g>
<!-- PL28&#45;&gt;transition16 -->
<g id="edge56" class="edge"><title>PL28&#45;&gt;transition16</title>
<path fill="none" stroke="black" d="M265,-361.697C265,-346.165 265,-324.324 265,-314.348"/>
<polygon fill="none" stroke="black" points="266.75,-314.092 265,-309.092 263.25,-314.092 266.75,-314.092"/>
</g>
<!-- transition23&#45;&gt;PL28 -->
<g id="edge55" class="edge"><title>transition23&#45;&gt;PL28</title>
<path fill="none" stroke="black" d="M265,-433.848C265,-432.368 265,-420.319 265,-408.1"/>
<polygon fill="black" stroke="black" points="268.5,-408.025 265,-398.025 261.5,-408.025 268.5,-408.025"/>
</g>
<!-- PL29 -->
<g id="node51" class="node"><title>PL29</title>
<ellipse fill="none" stroke="black" cx="258" cy="-236" rx="18" ry="18"/>
<text text-anchor="middle" x="258" y="-232.3" font-family="Times,serif" font-size="14.00">PL29</text>
</g>
<!-- transition21 -->
<g id="node54" class="node"><title>transition21</title>
<polygon fill="none" stroke="black" points="256,-182 220,-182 220,-181 256,-181 256,-182"/>
<text text-anchor="middle" x="205.5" y="-185.8" font-family="Times,serif" font-size="14.00">pdo+</text>
</g>
<!-- PL29&#45;&gt;transition21 -->
<g id="edge58" class="edge"><title>PL29&#45;&gt;transition21</title>
<path fill="none" stroke="black" d="M251.891,-218.81C247.795,-207.958 242.669,-194.372 239.932,-187.121"/>
<polygon fill="none" stroke="black" points="241.426,-186.122 238.023,-182.061 238.151,-187.357 241.426,-186.122"/>
</g>
<!-- transition16&#45;&gt;PL29 -->
<g id="edge57" class="edge"><title>transition16&#45;&gt;PL29</title>
<path fill="none" stroke="black" d="M264.995,-306.949C264.875,-305.748 262.643,-283.429 260.732,-264.321"/>
<polygon fill="black" stroke="black" points="264.197,-263.793 259.719,-254.191 257.232,-264.49 264.197,-263.793"/>
</g>
<!-- PL30 -->
<g id="node61" class="node"><title>PL30</title>
<ellipse fill="none" stroke="black" cx="425" cy="-236" rx="18" ry="18"/>
<text text-anchor="middle" x="425" y="-232.3" font-family="Times,serif" font-size="14.00">PL30</text>
</g>
<!-- transition16&#45;&gt;PL30 -->
<g id="edge69" class="edge"><title>transition16&#45;&gt;PL30</title>
<path fill="none" stroke="black" d="M265.116,-306.949C268.714,-305.375 355.151,-267.559 399.4,-248.2"/>
<polygon fill="black" stroke="black" points="400.903,-251.363 408.662,-244.148 398.097,-244.95 400.903,-251.363"/>
</g>
<!-- PL4 -->
<g id="node53" class="node"><title>PL4</title>
<ellipse fill="none" stroke="black" cx="172" cy="-127" rx="18" ry="18"/>
<text text-anchor="middle" x="172" y="-123.3" font-family="Times,serif" font-size="14.00">PL4</text>
</g>
<!-- transition17 -->
<g id="node56" class="node"><title>transition17</title>
<polygon fill="none" stroke="black" points="159,-73 123,-73 123,-72 159,-72 159,-73"/>
<text text-anchor="middle" x="105.5" y="-76.8" font-family="Times,serif" font-size="14.00">pack+</text>
</g>
<!-- PL4&#45;&gt;transition17 -->
<g id="edge60" class="edge"><title>PL4&#45;&gt;transition17</title>
<path fill="none" stroke="black" d="M163.2,-110.954C156.541,-99.5695 147.839,-84.6924 143.578,-77.4078"/>
<polygon fill="none" stroke="black" points="145.073,-76.4968 141.038,-73.0644 142.052,-78.2639 145.073,-76.4968"/>
</g>
<!-- transition21&#45;&gt;PL4 -->
<g id="edge59" class="edge"><title>transition21&#45;&gt;PL4</title>
<path fill="none" stroke="black" d="M237.952,-180.962C236.728,-179.979 212.262,-160.332 193.484,-145.252"/>
<polygon fill="black" stroke="black" points="195.604,-142.466 185.615,-138.933 191.221,-147.924 195.604,-142.466"/>
</g>
<!-- PL33 -->
<g id="node60" class="node"><title>PL33</title>
<ellipse fill="none" stroke="black" cx="314" cy="-127" rx="18" ry="18"/>
<text text-anchor="middle" x="314" y="-123.3" font-family="Times,serif" font-size="14.00">PL33</text>
</g>
<!-- transition21&#45;&gt;PL33 -->
<g id="edge67" class="edge"><title>transition21&#45;&gt;PL33</title>
<path fill="none" stroke="black" d="M238.055,-180.962C239.501,-179.953 269.108,-159.306 290.92,-144.095"/>
<polygon fill="black" stroke="black" points="293.197,-146.775 299.397,-138.184 289.193,-141.033 293.197,-146.775"/>
</g>
<!-- PL26 -->
<g id="node55" class="node"><title>PL26</title>
<ellipse fill="none" stroke="black" cx="102" cy="-18" rx="18" ry="18"/>
<text text-anchor="middle" x="102" y="-14.3" font-family="Times,serif" font-size="14.00">PL26</text>
</g>
<!-- PL26&#45;&gt;transition18 -->
<g id="edge62" class="edge"><title>PL26&#45;&gt;transition18</title>
<path fill="none" stroke="black" d="M92.9945,-33.9965C81.7574,-54.1682 64,-91.5021 64,-126 64,-435 64,-435 64,-435 64,-468.095 62.8441,-480.75 83,-507 98.4592,-527.133 128.613,-537.876 140.752,-541.537"/>
<polygon fill="none" stroke="black" points="140.588,-543.309 145.875,-542.969 141.531,-539.938 140.588,-543.309"/>
</g>
<!-- transition17&#45;&gt;PL26 -->
<g id="edge61" class="edge"><title>transition17&#45;&gt;PL26</title>
<path fill="none" stroke="black" d="M140.888,-71.848C139.652,-70.1686 128.403,-54.8805 118.319,-41.1773"/>
<polygon fill="black" stroke="black" points="121.037,-38.9658 112.291,-32.9858 115.399,-43.1146 121.037,-38.9658"/>
</g>
<!-- transition20 -->
<g id="node59" class="node"><title>transition20</title>
<polygon fill="none" stroke="black" points="222,-435 186,-435 186,-434 222,-434 222,-435"/>
<text text-anchor="middle" x="170" y="-438.8" font-family="Times,serif" font-size="14.00">pack&#45;</text>
</g>
<!-- PL31&#45;&gt;transition20 -->
<g id="edge64" class="edge"><title>PL31&#45;&gt;transition20</title>
<path fill="none" stroke="black" d="M124.742,-478.462C128.69,-475.978 132.979,-473.342 137,-471 159.991,-457.607 188.298,-442.994 199.309,-437.379"/>
<polygon fill="none" stroke="black" points="200.223,-438.878 203.891,-435.055 198.64,-435.756 200.223,-438.878"/>
</g>
<!-- PL32 -->
<g id="node58" class="node"><title>PL32</title>
<ellipse fill="none" stroke="black" cx="207" cy="-308" rx="18" ry="18"/>
<text text-anchor="middle" x="207" y="-304.3" font-family="Times,serif" font-size="14.00">PL32</text>
</g>
<!-- PL32&#45;&gt;transition21 -->
<g id="edge66" class="edge"><title>PL32&#45;&gt;transition21</title>
<path fill="none" stroke="black" d="M211.117,-290.401C218.185,-261.898 232.293,-205.01 236.672,-187.353"/>
<polygon fill="none" stroke="black" points="238.482,-187.328 237.987,-182.054 235.084,-186.486 238.482,-187.328"/>
</g>
<!-- transition20&#45;&gt;PL32 -->
<g id="edge65" class="edge"><title>transition20&#45;&gt;PL32</title>
<path fill="none" stroke="black" d="M204.002,-433.909C204.065,-431.29 205.477,-372.468 206.34,-336.491"/>
<polygon fill="black" stroke="black" points="209.847,-336.228 206.588,-326.147 202.849,-336.06 209.847,-336.228"/>
</g>
<!-- PL33&#45;&gt;transition19 -->
<g id="edge68" class="edge"><title>PL33&#45;&gt;transition19</title>
<path fill="none" stroke="black" d="M323.741,-142.527C336.148,-162.474 356,-199.877 356,-235 356,-309 356,-309 356,-309 356,-349.447 362.497,-359.534 375,-398 380.413,-414.651 384.534,-417.729 391,-434 400.396,-457.644 410,-462.558 410,-488 410,-762 410,-762 410,-762 410,-808.665 404.379,-864.93 402.56,-881.91"/>
<polygon fill="none" stroke="black" points="400.813,-881.788 402.006,-886.95 404.292,-882.171 400.813,-881.788"/>
</g>
<!-- PL30&#45;&gt;transition26 -->
<g id="edge70" class="edge"><title>PL30&#45;&gt;transition26</title>
<path fill="none" stroke="black" d="M429.435,-253.474C436.118,-279.794 448,-333.048 448,-379 448,-961 448,-961 448,-961 448,-1031.48 384.564,-1101.8 367.946,-1119.02"/>
<polygon fill="none" stroke="black" points="366.335,-1118.16 364.061,-1122.94 368.823,-1120.62 366.335,-1118.16"/>
</g>
<!-- transition22 -->
<g id="node64" class="node"><title>transition22</title>
<polygon fill="none" stroke="black" points="290,-544 254,-544 254,-543 290,-543 290,-544"/>
<text text-anchor="middle" x="235.5" y="-547.8" font-family="Times,serif" font-size="14.00">mrdc+</text>
</g>
<!-- PL36&#45;&gt;transition22 -->
<g id="edge72" class="edge"><title>PL36&#45;&gt;transition22</title>
<path fill="none" stroke="black" d="M272,-579.939C272,-569.385 272,-556.534 272,-549.412"/>
<polygon fill="none" stroke="black" points="273.75,-549.059 272,-544.059 270.25,-549.059 273.75,-549.059"/>
</g>
<!-- PL37 -->
<g id="node63" class="node"><title>PL37</title>
<ellipse fill="none" stroke="black" cx="272" cy="-489" rx="18" ry="18"/>
<text text-anchor="middle" x="272" y="-485.3" font-family="Times,serif" font-size="14.00">PL37</text>
</g>
<!-- PL37&#45;&gt;transition23 -->
<g id="edge74" class="edge"><title>PL37&#45;&gt;transition23</title>
<path fill="none" stroke="black" d="M269.747,-470.939C268.353,-460.385 266.655,-447.534 265.715,-440.412"/>
<polygon fill="none" stroke="black" points="267.398,-439.787 265.008,-435.059 263.928,-440.245 267.398,-439.787"/>
</g>
<!-- transition22&#45;&gt;PL37 -->
<g id="edge73" class="edge"><title>transition22&#45;&gt;PL37</title>
<path fill="none" stroke="black" d="M272,-542.848C272,-541.368 272,-529.319 272,-517.1"/>
<polygon fill="black" stroke="black" points="275.5,-517.025 272,-507.025 268.5,-517.025 275.5,-517.025"/>
</g>
<!-- PL38 -->
<g id="node65" class="node"><title>PL38</title>
<ellipse fill="none" stroke="black" cx="326" cy="-489" rx="18" ry="18"/>
<text text-anchor="middle" x="326" y="-485.3" font-family="Times,serif" font-size="14.00">PL38</text>
</g>
<!-- transition22&#45;&gt;PL38 -->
<g id="edge75" class="edge"><title>transition22&#45;&gt;PL38</title>
<path fill="none" stroke="black" d="M272.155,-542.848C273.988,-541.049 291.738,-523.628 306.365,-509.272"/>
<polygon fill="black" stroke="black" points="308.943,-511.645 313.628,-502.143 304.04,-506.649 308.943,-511.645"/>
</g>
<!-- PL39 -->
<g id="node66" class="node"><title>PL39</title>
<ellipse fill="none" stroke="black" cx="164" cy="-489" rx="18" ry="18"/>
<text text-anchor="middle" x="164" y="-485.3" font-family="Times,serif" font-size="14.00">PL39</text>
</g>
<!-- transition22&#45;&gt;PL39 -->
<g id="edge77" class="edge"><title>transition22&#45;&gt;PL39</title>
<path fill="none" stroke="black" d="M271.866,-542.949C269.121,-541.908 224.672,-524.964 191,-507 189.845,-506.384 188.674,-505.737 187.499,-505.07"/>
<polygon fill="black" stroke="black" points="189.002,-501.89 178.627,-499.744 185.4,-507.892 189.002,-501.89"/>
</g>
<!-- PL38&#45;&gt;transition24 -->
<g id="edge76" class="edge"><title>PL38&#45;&gt;transition24</title>
<path fill="none" stroke="black" d="M336.183,-473.797C344.362,-462.39 355.34,-447.078 360.732,-439.557"/>
<polygon fill="none" stroke="black" points="362.461,-440.15 363.952,-435.067 359.616,-438.111 362.461,-440.15"/>
</g>
<!-- transition25 -->
<g id="node68" class="node"><title>transition25</title>
<polygon fill="none" stroke="black" points="141,-435 105,-435 105,-434 141,-434 141,-435"/>
<text text-anchor="middle" x="87.5" y="-438.8" font-family="Times,serif" font-size="14.00">xack+</text>
</g>
<!-- PL39&#45;&gt;transition25 -->
<g id="edge78" class="edge"><title>PL39&#45;&gt;transition25</title>
<path fill="none" stroke="black" d="M153.441,-474.351C144.431,-462.704 132.04,-446.686 126.24,-439.189"/>
<polygon fill="none" stroke="black" points="127.496,-437.952 123.053,-435.068 124.728,-440.094 127.496,-437.952"/>
</g>
<!-- PL40 -->
<g id="node67" class="node"><title>PL40</title>
<ellipse fill="none" stroke="black" cx="18" cy="-380" rx="18" ry="18"/>
<text text-anchor="middle" x="18" y="-376.3" font-family="Times,serif" font-size="14.00">PL40</text>
</g>
<!-- PL40&#45;&gt;transition26 -->
<g id="edge80" class="edge"><title>PL40&#45;&gt;transition26</title>
<path fill="none" stroke="black" d="M23.2103,-397.493C30.993,-421.738 46.4142,-468.315 62,-507 134.907,-687.961 118.363,-757.591 245,-906 263.723,-927.942 282.251,-918.517 299,-942 337.685,-996.239 308.028,-1027.01 337,-1087 343.319,-1100.09 354.709,-1113.16 360.465,-1119.33"/>
<polygon fill="none" stroke="black" points="359.218,-1120.56 363.947,-1122.95 361.739,-1118.13 359.218,-1120.56"/>
</g>
<!-- transition25&#45;&gt;PL40 -->
<g id="edge79" class="edge"><title>transition25&#45;&gt;PL40</title>
<path fill="none" stroke="black" d="M122.924,-433.962C120.772,-432.875 73.4776,-409.003 43.1272,-393.683"/>
<polygon fill="black" stroke="black" points="44.4516,-390.431 33.9472,-389.05 41.2973,-396.68 44.4516,-390.431"/>
</g>
</g>
</svg>
