<?xml version="1.0" encoding="UTF-8" standalone="no"?>
<!DOCTYPE svg PUBLIC "-//W3C//DTD SVG 1.1//EN"
 "http://www.w3.org/Graphics/SVG/1.1/DTD/svg11.dtd">
<!-- Generated by graphviz version 2.38.0 (20140413.2041)
 -->
<!-- Title: %3 Pages: 1 -->
<svg width="546pt" height="2403pt"
 viewBox="0.00 0.00 546.36 2403.00" xmlns="http://www.w3.org/2000/svg" xmlns:xlink="http://www.w3.org/1999/xlink">
<g id="graph0" class="graph" transform="scale(1 1) rotate(0) translate(4 2399)">
<title>%3</title>
<polygon fill="white" stroke="none" points="-4,4 -4,-2399 542.362,-2399 542.362,4 -4,4"/>
<!-- PL1 -->
<g id="node1" class="node"><title>PL1</title>
<ellipse fill="none" stroke="black" cx="339.362" cy="-2377" rx="18" ry="18"/>
<text text-anchor="middle" x="339.362" y="-2373.3" font-family="Times,serif" font-size="14.00">PL1</text>
</g>
<!-- transition6 -->
<g id="node3" class="node"><title>transition6</title>
<polygon fill="none" stroke="black" points="447.362,-2323 411.362,-2323 411.362,-2322 447.362,-2322 447.362,-2323"/>
<text text-anchor="middle" x="399.362" y="-2326.8" font-family="Times,serif" font-size="14.00">pro&#45;</text>
</g>
<!-- PL1&#45;&gt;transition6 -->
<g id="edge1" class="edge"><title>PL1&#45;&gt;transition6</title>
<path fill="none" stroke="black" d="M354.629,-2367.01C375.618,-2354.65 412.225,-2333.09 424.895,-2325.63"/>
<polygon fill="none" stroke="black" points="425.8,-2327.13 429.221,-2323.08 424.024,-2324.11 425.8,-2327.13"/>
</g>
<!-- PL13 -->
<g id="node2" class="node"><title>PL13</title>
<ellipse fill="none" stroke="black" cx="396.362" cy="-2268" rx="18" ry="18"/>
<text text-anchor="middle" x="396.362" y="-2264.3" font-family="Times,serif" font-size="14.00">PL13</text>
</g>
<!-- transition27 -->
<g id="node5" class="node"><title>transition27</title>
<polygon fill="none" stroke="black" points="407.362,-2214 371.362,-2214 371.362,-2213 407.362,-2213 407.362,-2214"/>
<text text-anchor="middle" x="359.362" y="-2217.8" font-family="Times,serif" font-size="14.00">pri+</text>
</g>
<!-- PL13&#45;&gt;transition27 -->
<g id="edge3" class="edge"><title>PL13&#45;&gt;transition27</title>
<path fill="none" stroke="black" d="M394.109,-2249.94C392.715,-2239.39 391.018,-2226.53 390.077,-2219.41"/>
<polygon fill="none" stroke="black" points="391.76,-2218.79 389.37,-2214.06 388.29,-2219.25 391.76,-2218.79"/>
</g>
<!-- transition6&#45;&gt;PL13 -->
<g id="edge2" class="edge"><title>transition6&#45;&gt;PL13</title>
<path fill="none" stroke="black" d="M429.267,-2321.85C428.25,-2320.21 419.215,-2305.7 410.87,-2292.3"/>
<polygon fill="black" stroke="black" points="413.833,-2290.44 405.576,-2283.8 407.891,-2294.14 413.833,-2290.44"/>
</g>
<!-- PL7 -->
<g id="node12" class="node"><title>PL7</title>
<ellipse fill="none" stroke="black" cx="463.362" cy="-2268" rx="18" ry="18"/>
<text text-anchor="middle" x="463.362" y="-2264.3" font-family="Times,serif" font-size="14.00">PL7</text>
</g>
<!-- transition6&#45;&gt;PL7 -->
<g id="edge12" class="edge"><title>transition6&#45;&gt;PL7</title>
<path fill="none" stroke="black" d="M429.46,-2321.85C430.514,-2320.2 439.931,-2305.53 448.572,-2292.05"/>
<polygon fill="black" stroke="black" points="451.59,-2293.83 454.043,-2283.53 445.698,-2290.05 451.59,-2293.83"/>
</g>
<!-- PL14 -->
<g id="node4" class="node"><title>PL14</title>
<ellipse fill="none" stroke="black" cx="386.362" cy="-2159" rx="18" ry="18"/>
<text text-anchor="middle" x="386.362" y="-2155.3" font-family="Times,serif" font-size="14.00">PL14</text>
</g>
<!-- transition28 -->
<g id="node7" class="node"><title>transition28</title>
<polygon fill="none" stroke="black" points="402.362,-2105 366.362,-2105 366.362,-2104 402.362,-2104 402.362,-2105"/>
<text text-anchor="middle" x="349.862" y="-2108.8" font-family="Times,serif" font-size="14.00">breq+</text>
</g>
<!-- PL14&#45;&gt;transition28 -->
<g id="edge5" class="edge"><title>PL14&#45;&gt;transition28</title>
<path fill="none" stroke="black" d="M385.718,-2140.94C385.32,-2130.39 384.835,-2117.53 384.566,-2110.41"/>
<polygon fill="none" stroke="black" points="386.302,-2109.99 384.364,-2105.06 382.804,-2110.12 386.302,-2109.99"/>
</g>
<!-- transition27&#45;&gt;PL14 -->
<g id="edge4" class="edge"><title>transition27&#45;&gt;PL14</title>
<path fill="none" stroke="black" d="M389.354,-2212.85C389.27,-2211.37 388.588,-2199.32 387.896,-2187.1"/>
<polygon fill="black" stroke="black" points="391.385,-2186.81 387.326,-2177.02 384.397,-2187.21 391.385,-2186.81"/>
</g>
<!-- PL18 -->
<g id="node6" class="node"><title>PL18</title>
<ellipse fill="none" stroke="black" cx="438.362" cy="-2050" rx="18" ry="18"/>
<text text-anchor="middle" x="438.362" y="-2046.3" font-family="Times,serif" font-size="14.00">PL18</text>
</g>
<!-- transition11 -->
<g id="node9" class="node"><title>transition11</title>
<polygon fill="none" stroke="black" points="472.362,-1996 436.362,-1996 436.362,-1995 472.362,-1995 472.362,-1996"/>
<text text-anchor="middle" x="419.362" y="-1999.8" font-family="Times,serif" font-size="14.00">bprn+</text>
</g>
<!-- PL18&#45;&gt;transition11 -->
<g id="edge7" class="edge"><title>PL18&#45;&gt;transition11</title>
<path fill="none" stroke="black" d="M443.337,-2032.52C446.607,-2021.69 450.669,-2008.23 452.834,-2001.06"/>
<polygon fill="none" stroke="black" points="454.574,-2001.35 454.344,-1996.06 451.223,-2000.34 454.574,-2001.35"/>
</g>
<!-- transition28&#45;&gt;PL18 -->
<g id="edge6" class="edge"><title>transition28&#45;&gt;PL18</title>
<path fill="none" stroke="black" d="M384.517,-2103.85C386.35,-2102.05 404.1,-2084.63 418.727,-2070.27"/>
<polygon fill="black" stroke="black" points="421.305,-2072.65 425.99,-2063.14 416.402,-2067.65 421.305,-2072.65"/>
</g>
<!-- PL16 -->
<g id="node32" class="node"><title>PL16</title>
<ellipse fill="none" stroke="black" cx="346.362" cy="-1941" rx="18" ry="18"/>
<text text-anchor="middle" x="346.362" y="-1937.3" font-family="Times,serif" font-size="14.00">PL16</text>
</g>
<!-- transition28&#45;&gt;PL16 -->
<g id="edge35" class="edge"><title>transition28&#45;&gt;PL16</title>
<path fill="none" stroke="black" d="M384.305,-2103.95C383.134,-2102.92 364.283,-2086.1 357.362,-2068 345.008,-2035.7 343.692,-1995.45 344.508,-1969.26"/>
<polygon fill="black" stroke="black" points="348.018,-1969.1 344.962,-1958.96 341.024,-1968.8 348.018,-1969.1"/>
</g>
<!-- PL15 -->
<g id="node35" class="node"><title>PL15</title>
<ellipse fill="none" stroke="black" cx="384.362" cy="-2050" rx="18" ry="18"/>
<text text-anchor="middle" x="384.362" y="-2046.3" font-family="Times,serif" font-size="14.00">PL15</text>
</g>
<!-- transition28&#45;&gt;PL15 -->
<g id="edge39" class="edge"><title>transition28&#45;&gt;PL15</title>
<path fill="none" stroke="black" d="M384.362,-2103.85C384.362,-2102.37 384.362,-2090.32 384.362,-2078.1"/>
<polygon fill="black" stroke="black" points="387.862,-2078.02 384.362,-2068.02 380.862,-2078.02 387.862,-2078.02"/>
</g>
<!-- PL19 -->
<g id="node8" class="node"><title>PL19</title>
<ellipse fill="none" stroke="black" cx="454.362" cy="-1869" rx="18" ry="18"/>
<text text-anchor="middle" x="454.362" y="-1865.3" font-family="Times,serif" font-size="14.00">PL19</text>
</g>
<!-- transition12 -->
<g id="node11" class="node"><title>transition12</title>
<polygon fill="none" stroke="black" points="464.362,-1743 428.362,-1743 428.362,-1742 464.362,-1742 464.362,-1743"/>
<text text-anchor="middle" x="413.362" y="-1746.8" font-family="Times,serif" font-size="14.00">breq&#45;</text>
</g>
<!-- PL19&#45;&gt;transition12 -->
<g id="edge9" class="edge"><title>PL19&#45;&gt;transition12</title>
<path fill="none" stroke="black" d="M453.267,-1850.88C451.43,-1822.18 447.821,-1765.79 446.701,-1748.3"/>
<polygon fill="none" stroke="black" points="448.431,-1747.93 446.366,-1743.05 444.939,-1748.16 448.431,-1747.93"/>
</g>
<!-- transition11&#45;&gt;PL19 -->
<g id="edge8" class="edge"><title>transition11&#45;&gt;PL19</title>
<path fill="none" stroke="black" d="M454.362,-1994.91C454.362,-1992.29 454.362,-1933.47 454.362,-1897.49"/>
<polygon fill="black" stroke="black" points="457.862,-1897.15 454.362,-1887.15 450.862,-1897.15 457.862,-1897.15"/>
</g>
<!-- PL3 -->
<g id="node10" class="node"><title>PL3</title>
<ellipse fill="none" stroke="black" cx="515.362" cy="-1688" rx="18" ry="18"/>
<text text-anchor="middle" x="515.362" y="-1684.3" font-family="Times,serif" font-size="14.00">PL3</text>
</g>
<!-- PL3&#45;&gt;transition6 -->
<g id="edge11" class="edge"><title>PL3&#45;&gt;transition6</title>
<path fill="none" stroke="black" d="M521.048,-1705.08C527.858,-1725.82 538.362,-1763.13 538.362,-1796 538.362,-2214 538.362,-2214 538.362,-2214 538.362,-2273.53 455.316,-2311.42 434.2,-2320.09"/>
<polygon fill="none" stroke="black" points="433.45,-2318.51 429.441,-2321.97 434.734,-2321.76 433.45,-2318.51"/>
</g>
<!-- transition12&#45;&gt;PL3 -->
<g id="edge10" class="edge"><title>transition12&#45;&gt;PL3</title>
<path fill="none" stroke="black" d="M446.412,-1741.96C447.705,-1740.97 473.787,-1720.93 493.492,-1705.8"/>
<polygon fill="black" stroke="black" points="495.658,-1708.55 501.456,-1699.68 491.393,-1703 495.658,-1708.55"/>
</g>
<!-- PL20 -->
<g id="node25" class="node"><title>PL20</title>
<ellipse fill="none" stroke="black" cx="400.362" cy="-1688" rx="18" ry="18"/>
<text text-anchor="middle" x="400.362" y="-1684.3" font-family="Times,serif" font-size="14.00">PL20</text>
</g>
<!-- transition12&#45;&gt;PL20 -->
<g id="edge27" class="edge"><title>transition12&#45;&gt;PL20</title>
<path fill="none" stroke="black" d="M446.23,-1741.85C444.732,-1740.12 430.763,-1724.03 418.63,-1710.05"/>
<polygon fill="black" stroke="black" points="421.005,-1707.44 411.807,-1702.19 415.718,-1712.03 421.005,-1707.44"/>
</g>
<!-- transition1 -->
<g id="node14" class="node"><title>transition1</title>
<polygon fill="none" stroke="black" points="483.362,-2214 447.362,-2214 447.362,-2213 483.362,-2213 483.362,-2214"/>
<text text-anchor="middle" x="435.862" y="-2217.8" font-family="Times,serif" font-size="14.00">aro&#45;</text>
</g>
<!-- PL7&#45;&gt;transition1 -->
<g id="edge13" class="edge"><title>PL7&#45;&gt;transition1</title>
<path fill="none" stroke="black" d="M464.006,-2249.94C464.404,-2239.39 464.889,-2226.53 465.158,-2219.41"/>
<polygon fill="none" stroke="black" points="466.92,-2219.12 465.36,-2214.06 463.422,-2218.99 466.92,-2219.12"/>
</g>
<!-- PL8 -->
<g id="node13" class="node"><title>PL8</title>
<ellipse fill="none" stroke="black" cx="465.362" cy="-2159" rx="18" ry="18"/>
<text text-anchor="middle" x="465.362" y="-2155.3" font-family="Times,serif" font-size="14.00">PL8</text>
</g>
<!-- transition2 -->
<g id="node16" class="node"><title>transition2</title>
<polygon fill="none" stroke="black" points="510.362,-2105 474.362,-2105 474.362,-2104 510.362,-2104 510.362,-2105"/>
<text text-anchor="middle" x="464.362" y="-2108.8" font-family="Times,serif" font-size="14.00">ari&#45;</text>
</g>
<!-- PL8&#45;&gt;transition2 -->
<g id="edge15" class="edge"><title>PL8&#45;&gt;transition2</title>
<path fill="none" stroke="black" d="M473.172,-2142.67C478.845,-2131.53 486.159,-2117.18 489.907,-2109.82"/>
<polygon fill="none" stroke="black" points="491.619,-2110.31 492.33,-2105.06 488.501,-2108.72 491.619,-2110.31"/>
</g>
<!-- transition1&#45;&gt;PL8 -->
<g id="edge14" class="edge"><title>transition1&#45;&gt;PL8</title>
<path fill="none" stroke="black" d="M465.362,-2212.85C465.362,-2211.37 465.362,-2199.32 465.362,-2187.1"/>
<polygon fill="black" stroke="black" points="468.862,-2187.02 465.362,-2177.02 461.862,-2187.02 468.862,-2187.02"/>
</g>
<!-- PL9 -->
<g id="node15" class="node"><title>PL9</title>
<ellipse fill="none" stroke="black" cx="492.362" cy="-2050" rx="18" ry="18"/>
<text text-anchor="middle" x="492.362" y="-2046.3" font-family="Times,serif" font-size="14.00">PL9</text>
</g>
<!-- transition10 -->
<g id="node18" class="node"><title>transition10</title>
<polygon fill="none" stroke="black" points="418.362,-1996 382.362,-1996 382.362,-1995 418.362,-1995 418.362,-1996"/>
<text text-anchor="middle" x="368.862" y="-1999.8" font-family="Times,serif" font-size="14.00">pro+</text>
</g>
<!-- PL9&#45;&gt;transition10 -->
<g id="edge17" class="edge"><title>PL9&#45;&gt;transition10</title>
<path fill="none" stroke="black" d="M477.6,-2039.5C473.652,-2037.01 469.368,-2034.37 465.362,-2032 442.986,-2018.77 415.565,-2004.06 404.903,-1998.4"/>
<polygon fill="none" stroke="black" points="405.706,-1996.85 400.468,-1996.06 404.069,-1999.94 405.706,-1996.85"/>
</g>
<!-- transition2&#45;&gt;PL9 -->
<g id="edge16" class="edge"><title>transition2&#45;&gt;PL9</title>
<path fill="none" stroke="black" d="M492.362,-2103.85C492.362,-2102.37 492.362,-2090.32 492.362,-2078.1"/>
<polygon fill="black" stroke="black" points="495.862,-2078.02 492.362,-2068.02 488.862,-2078.02 495.862,-2078.02"/>
</g>
<!-- PL10 -->
<g id="node17" class="node"><title>PL10</title>
<ellipse fill="none" stroke="black" cx="400.362" cy="-1941" rx="18" ry="18"/>
<text text-anchor="middle" x="400.362" y="-1937.3" font-family="Times,serif" font-size="14.00">PL10</text>
</g>
<!-- transition3 -->
<g id="node20" class="node"><title>transition3</title>
<polygon fill="none" stroke="black" points="418.362,-1869.5 382.362,-1869.5 382.362,-1868.5 418.362,-1868.5 418.362,-1869.5"/>
<text text-anchor="middle" x="371.862" y="-1873.3" font-family="Times,serif" font-size="14.00">pri&#45;</text>
</g>
<!-- PL10&#45;&gt;transition3 -->
<g id="edge19" class="edge"><title>PL10&#45;&gt;transition3</title>
<path fill="none" stroke="black" d="M400.362,-1922.7C400.362,-1907.17 400.362,-1885.32 400.362,-1875.35"/>
<polygon fill="none" stroke="black" points="402.112,-1875.09 400.362,-1870.09 398.612,-1875.09 402.112,-1875.09"/>
</g>
<!-- transition10&#45;&gt;PL10 -->
<g id="edge18" class="edge"><title>transition10&#45;&gt;PL10</title>
<path fill="none" stroke="black" d="M400.362,-1994.85C400.362,-1993.37 400.362,-1981.32 400.362,-1969.1"/>
<polygon fill="black" stroke="black" points="403.862,-1969.02 400.362,-1959.02 396.862,-1969.02 403.862,-1969.02"/>
</g>
<!-- PL11 -->
<g id="node19" class="node"><title>PL11</title>
<ellipse fill="none" stroke="black" cx="308.362" cy="-1797" rx="18" ry="18"/>
<text text-anchor="middle" x="308.362" y="-1793.3" font-family="Times,serif" font-size="14.00">PL11</text>
</g>
<!-- transition4 -->
<g id="node22" class="node"><title>transition4</title>
<polygon fill="none" stroke="black" points="326.362,-1743 290.362,-1743 290.362,-1742 326.362,-1742 326.362,-1743"/>
<text text-anchor="middle" x="277.362" y="-1746.8" font-family="Times,serif" font-size="14.00">aro+</text>
</g>
<!-- PL11&#45;&gt;transition4 -->
<g id="edge21" class="edge"><title>PL11&#45;&gt;transition4</title>
<path fill="none" stroke="black" d="M308.362,-1778.94C308.362,-1768.39 308.362,-1755.53 308.362,-1748.41"/>
<polygon fill="none" stroke="black" points="310.112,-1748.06 308.362,-1743.06 306.612,-1748.06 310.112,-1748.06"/>
</g>
<!-- transition3&#45;&gt;PL11 -->
<g id="edge20" class="edge"><title>transition3&#45;&gt;PL11</title>
<path fill="none" stroke="black" d="M400.295,-1867.95C398.41,-1866.51 356.971,-1834.99 330.378,-1814.75"/>
<polygon fill="black" stroke="black" points="332.413,-1811.9 322.335,-1808.63 328.174,-1817.47 332.413,-1811.9"/>
</g>
<!-- PL12 -->
<g id="node24" class="node"><title>PL12</title>
<ellipse fill="none" stroke="black" cx="402.362" cy="-1797" rx="18" ry="18"/>
<text text-anchor="middle" x="402.362" y="-1793.3" font-family="Times,serif" font-size="14.00">PL12</text>
</g>
<!-- transition3&#45;&gt;PL12 -->
<g id="edge25" class="edge"><title>transition3&#45;&gt;PL12</title>
<path fill="none" stroke="black" d="M400.364,-1867.95C400.398,-1866.75 401.036,-1844.43 401.582,-1825.32"/>
<polygon fill="black" stroke="black" points="405.084,-1825.29 401.871,-1815.19 398.087,-1825.09 405.084,-1825.29"/>
</g>
<!-- PL2 -->
<g id="node21" class="node"><title>PL2</title>
<ellipse fill="none" stroke="black" cx="308.362" cy="-1688" rx="18" ry="18"/>
<text text-anchor="middle" x="308.362" y="-1684.3" font-family="Times,serif" font-size="14.00">PL2</text>
</g>
<!-- transition5 -->
<g id="node23" class="node"><title>transition5</title>
<polygon fill="none" stroke="black" points="307.362,-1634 271.362,-1634 271.362,-1633 307.362,-1633 307.362,-1634"/>
<text text-anchor="middle" x="259.862" y="-1637.8" font-family="Times,serif" font-size="14.00">ari+</text>
</g>
<!-- PL2&#45;&gt;transition5 -->
<g id="edge23" class="edge"><title>PL2&#45;&gt;transition5</title>
<path fill="none" stroke="black" d="M302.558,-1670.81C298.668,-1659.96 293.797,-1646.37 291.198,-1639.12"/>
<polygon fill="none" stroke="black" points="292.719,-1638.18 289.384,-1634.06 289.424,-1639.36 292.719,-1638.18"/>
</g>
<!-- transition4&#45;&gt;PL2 -->
<g id="edge22" class="edge"><title>transition4&#45;&gt;PL2</title>
<path fill="none" stroke="black" d="M308.362,-1741.85C308.362,-1740.37 308.362,-1728.32 308.362,-1716.1"/>
<polygon fill="black" stroke="black" points="311.862,-1716.02 308.362,-1706.02 304.862,-1716.02 311.862,-1716.02"/>
</g>
<!-- transition5&#45;&gt;PL1 -->
<g id="edge24" class="edge"><title>transition5&#45;&gt;PL1</title>
<path fill="none" stroke="black" d="M289.285,-1634.17C287.701,-1637.65 262.362,-1694.07 262.362,-1742 262.362,-2269 262.362,-2269 262.362,-2269 262.362,-2306.71 294.259,-2340.2 316.994,-2359.28"/>
<polygon fill="black" stroke="black" points="314.898,-2362.09 324.879,-2365.64 319.292,-2356.64 314.898,-2362.09"/>
</g>
<!-- PL12&#45;&gt;transition12 -->
<g id="edge26" class="edge"><title>PL12&#45;&gt;transition12</title>
<path fill="none" stroke="black" d="M413.465,-1782.63C423.133,-1770.98 436.557,-1754.81 442.846,-1747.23"/>
<polygon fill="none" stroke="black" points="444.457,-1748.03 446.305,-1743.07 441.764,-1745.8 444.457,-1748.03"/>
</g>
<!-- transition7 -->
<g id="node27" class="node"><title>transition7</title>
<polygon fill="none" stroke="black" points="418.362,-1634 382.362,-1634 382.362,-1633 418.362,-1633 418.362,-1634"/>
<text text-anchor="middle" x="366.862" y="-1637.8" font-family="Times,serif" font-size="14.00">bprn&#45;</text>
</g>
<!-- PL20&#45;&gt;transition7 -->
<g id="edge28" class="edge"><title>PL20&#45;&gt;transition7</title>
<path fill="none" stroke="black" d="M400.362,-1669.94C400.362,-1659.39 400.362,-1646.53 400.362,-1639.41"/>
<polygon fill="none" stroke="black" points="402.112,-1639.06 400.362,-1634.06 398.612,-1639.06 402.112,-1639.06"/>
</g>
<!-- PL21 -->
<g id="node26" class="node"><title>PL21</title>
<ellipse fill="none" stroke="black" cx="400.362" cy="-1579" rx="18" ry="18"/>
<text text-anchor="middle" x="400.362" y="-1575.3" font-family="Times,serif" font-size="14.00">PL21</text>
</g>
<!-- transition8 -->
<g id="node29" class="node"><title>transition8</title>
<polygon fill="none" stroke="black" points="311.362,-1525 275.362,-1525 275.362,-1524 311.362,-1524 311.362,-1525"/>
<text text-anchor="middle" x="267.862" y="-1528.8" font-family="Times,serif" font-size="14.00">x+</text>
</g>
<!-- PL21&#45;&gt;transition8 -->
<g id="edge30" class="edge"><title>PL21&#45;&gt;transition8</title>
<path fill="none" stroke="black" d="M384.574,-1570.18C359.853,-1557.93 313.275,-1534.86 298.201,-1527.4"/>
<polygon fill="none" stroke="black" points="298.664,-1525.67 293.407,-1525.02 297.11,-1528.81 298.664,-1525.67"/>
</g>
<!-- transition7&#45;&gt;PL21 -->
<g id="edge29" class="edge"><title>transition7&#45;&gt;PL21</title>
<path fill="none" stroke="black" d="M400.362,-1632.85C400.362,-1631.37 400.362,-1619.32 400.362,-1607.1"/>
<polygon fill="black" stroke="black" points="403.862,-1607.02 400.362,-1597.02 396.862,-1607.02 403.862,-1607.02"/>
</g>
<!-- PL22 -->
<g id="node28" class="node"><title>PL22</title>
<ellipse fill="none" stroke="black" cx="286.362" cy="-1470" rx="18" ry="18"/>
<text text-anchor="middle" x="286.362" y="-1466.3" font-family="Times,serif" font-size="14.00">PL22</text>
</g>
<!-- transition9 -->
<g id="node31" class="node"><title>transition9</title>
<polygon fill="none" stroke="black" points="296.362,-1416 260.362,-1416 260.362,-1415 296.362,-1415 296.362,-1416"/>
<text text-anchor="middle" x="244.362" y="-1419.8" font-family="Times,serif" font-size="14.00">busy&#45;</text>
</g>
<!-- PL22&#45;&gt;transition9 -->
<g id="edge32" class="edge"><title>PL22&#45;&gt;transition9</title>
<path fill="none" stroke="black" d="M283.787,-1451.94C282.194,-1441.39 280.254,-1428.53 279.179,-1421.41"/>
<polygon fill="none" stroke="black" points="280.848,-1420.74 278.371,-1416.06 277.387,-1421.26 280.848,-1420.74"/>
</g>
<!-- transition8&#45;&gt;PL22 -->
<g id="edge31" class="edge"><title>transition8&#45;&gt;PL22</title>
<path fill="none" stroke="black" d="M293.342,-1523.85C293.147,-1522.37 291.555,-1510.32 289.941,-1498.1"/>
<polygon fill="black" stroke="black" points="293.39,-1497.48 288.611,-1488.02 286.45,-1498.4 293.39,-1497.48"/>
</g>
<!-- PL4 -->
<g id="node30" class="node"><title>PL4</title>
<ellipse fill="none" stroke="black" cx="224.362" cy="-1361" rx="18" ry="18"/>
<text text-anchor="middle" x="224.362" y="-1357.3" font-family="Times,serif" font-size="14.00">PL4</text>
</g>
<!-- PL4&#45;&gt;transition28 -->
<g id="edge34" class="edge"><title>PL4&#45;&gt;transition28</title>
<path fill="none" stroke="black" d="M224.362,-1379.05C224.362,-1400.16 224.362,-1437.23 224.362,-1469 224.362,-1743 224.362,-1743 224.362,-1743 224.362,-1836.85 300.362,-1846.15 300.362,-1940 300.362,-1996 300.362,-1996 300.362,-1996 300.362,-2048.38 362.681,-2090.65 379.964,-2101.37"/>
<polygon fill="none" stroke="black" points="379.113,-2102.9 384.301,-2103.97 380.912,-2099.89 379.113,-2102.9"/>
</g>
<!-- transition9&#45;&gt;PL4 -->
<g id="edge33" class="edge"><title>transition9&#45;&gt;PL4</title>
<path fill="none" stroke="black" d="M278.207,-1414.85C276.374,-1413.05 258.624,-1395.63 243.997,-1381.27"/>
<polygon fill="black" stroke="black" points="246.322,-1378.65 236.734,-1374.14 241.419,-1383.65 246.322,-1378.65"/>
</g>
<!-- PL23 -->
<g id="node36" class="node"><title>PL23</title>
<ellipse fill="none" stroke="black" cx="278.362" cy="-1361" rx="18" ry="18"/>
<text text-anchor="middle" x="278.362" y="-1357.3" font-family="Times,serif" font-size="14.00">PL23</text>
</g>
<!-- transition9&#45;&gt;PL23 -->
<g id="edge41" class="edge"><title>transition9&#45;&gt;PL23</title>
<path fill="none" stroke="black" d="M278.362,-1414.85C278.362,-1413.37 278.362,-1401.32 278.362,-1389.1"/>
<polygon fill="black" stroke="black" points="281.862,-1389.02 278.362,-1379.02 274.862,-1389.02 281.862,-1389.02"/>
</g>
<!-- transition24 -->
<g id="node34" class="node"><title>transition24</title>
<polygon fill="none" stroke="black" points="372.362,-618 336.362,-618 336.362,-617 372.362,-617 372.362,-618"/>
<text text-anchor="middle" x="318.862" y="-621.8" font-family="Times,serif" font-size="14.00">busy+</text>
</g>
<!-- PL16&#45;&gt;transition24 -->
<g id="edge36" class="edge"><title>PL16&#45;&gt;transition24</title>
<path fill="none" stroke="black" d="M347.943,-1922.97C350.274,-1896.33 354.362,-1843.19 354.362,-1798 354.362,-1798 354.362,-1798 354.362,-743 354.362,-696.43 354.362,-640.101 354.362,-623.098"/>
<polygon fill="none" stroke="black" points="356.112,-623.051 354.362,-618.051 352.612,-623.051 356.112,-623.051"/>
</g>
<!-- PL17 -->
<g id="node33" class="node"><title>PL17</title>
<ellipse fill="none" stroke="black" cx="400.362" cy="-563" rx="18" ry="18"/>
<text text-anchor="middle" x="400.362" y="-559.3" font-family="Times,serif" font-size="14.00">PL17</text>
</g>
<!-- PL17&#45;&gt;transition12 -->
<g id="edge38" class="edge"><title>PL17&#45;&gt;transition12</title>
<path fill="none" stroke="black" d="M410.8,-578.055C424.372,-597.76 446.362,-635.21 446.362,-671 446.362,-1634 446.362,-1634 446.362,-1634 446.362,-1673.5 446.362,-1721.12 446.362,-1736.75"/>
<polygon fill="none" stroke="black" points="444.612,-1736.96 446.362,-1741.96 448.112,-1736.96 444.612,-1736.96"/>
</g>
<!-- transition24&#45;&gt;PL17 -->
<g id="edge37" class="edge"><title>transition24&#45;&gt;PL17</title>
<path fill="none" stroke="black" d="M354.494,-616.848C355.992,-615.122 369.961,-599.027 382.094,-585.048"/>
<polygon fill="black" stroke="black" points="385.006,-587.033 388.917,-577.186 379.719,-582.444 385.006,-587.033"/>
</g>
<!-- PL15&#45;&gt;transition10 -->
<g id="edge40" class="edge"><title>PL15&#45;&gt;transition10</title>
<path fill="none" stroke="black" d="M389.337,-2032.52C392.607,-2021.69 396.669,-2008.23 398.834,-2001.06"/>
<polygon fill="none" stroke="black" points="400.574,-2001.35 400.344,-1996.06 397.223,-2000.34 400.574,-2001.35"/>
</g>
<!-- transition26 -->
<g id="node38" class="node"><title>transition26</title>
<polygon fill="none" stroke="black" points="261.362,-1307 225.362,-1307 225.362,-1306 261.362,-1306 261.362,-1307"/>
<text text-anchor="middle" x="208.362" y="-1310.8" font-family="Times,serif" font-size="14.00">mrdc&#45;</text>
</g>
<!-- PL23&#45;&gt;transition26 -->
<g id="edge42" class="edge"><title>PL23&#45;&gt;transition26</title>
<path fill="none" stroke="black" d="M268.798,-1345.52C261.269,-1334.12 251.253,-1318.95 246.339,-1311.51"/>
<polygon fill="none" stroke="black" points="247.621,-1310.27 243.406,-1307.07 244.701,-1312.2 247.621,-1310.27"/>
</g>
<!-- PL24 -->
<g id="node37" class="node"><title>PL24</title>
<ellipse fill="none" stroke="black" cx="151.362" cy="-1252" rx="18" ry="18"/>
<text text-anchor="middle" x="151.362" y="-1248.3" font-family="Times,serif" font-size="14.00">PL24</text>
</g>
<!-- transition13 -->
<g id="node40" class="node"><title>transition13</title>
<polygon fill="none" stroke="black" points="156.362,-1198 120.362,-1198 120.362,-1197 156.362,-1197 156.362,-1198"/>
<text text-anchor="middle" x="104.362" y="-1201.8" font-family="Times,serif" font-size="14.00">xack&#45;</text>
</g>
<!-- PL24&#45;&gt;transition13 -->
<g id="edge44" class="edge"><title>PL24&#45;&gt;transition13</title>
<path fill="none" stroke="black" d="M147.249,-1234.23C144.597,-1223.42 141.33,-1210.1 139.59,-1203"/>
<polygon fill="none" stroke="black" points="141.268,-1202.5 138.377,-1198.06 137.868,-1203.33 141.268,-1202.5"/>
</g>
<!-- transition26&#45;&gt;PL24 -->
<g id="edge43" class="edge"><title>transition26&#45;&gt;PL24</title>
<path fill="none" stroke="black" d="M243.295,-1305.96C241.456,-1304.9 201.949,-1282.14 175.33,-1266.81"/>
<polygon fill="black" stroke="black" points="176.947,-1263.7 166.535,-1261.74 173.453,-1269.77 176.947,-1263.7"/>
</g>
<!-- PL25 -->
<g id="node39" class="node"><title>PL25</title>
<ellipse fill="none" stroke="black" cx="131.362" cy="-1143" rx="18" ry="18"/>
<text text-anchor="middle" x="131.362" y="-1139.3" font-family="Times,serif" font-size="14.00">PL25</text>
</g>
<!-- transition19 -->
<g id="node42" class="node"><title>transition19</title>
<polygon fill="none" stroke="black" points="107.362,-1089 71.3621,-1089 71.3621,-1088 107.362,-1088 107.362,-1089"/>
<text text-anchor="middle" x="65.3621" y="-1092.8" font-family="Times,serif" font-size="14.00">x&#45;</text>
</g>
<!-- PL25&#45;&gt;transition19 -->
<g id="edge46" class="edge"><title>PL25&#45;&gt;transition19</title>
<path fill="none" stroke="black" d="M120.546,-1128.35C111.316,-1116.7 98.623,-1100.69 92.6816,-1093.19"/>
<polygon fill="none" stroke="black" points="93.8933,-1091.9 89.4163,-1089.07 91.1501,-1094.07 93.8933,-1091.9"/>
</g>
<!-- transition13&#45;&gt;PL25 -->
<g id="edge45" class="edge"><title>transition13&#45;&gt;PL25</title>
<path fill="none" stroke="black" d="M138.342,-1196.85C138.147,-1195.37 136.555,-1183.32 134.941,-1171.1"/>
<polygon fill="black" stroke="black" points="138.39,-1170.48 133.611,-1161.02 131.45,-1171.4 138.39,-1170.48"/>
</g>
<!-- PL6 -->
<g id="node41" class="node"><title>PL6</title>
<ellipse fill="none" stroke="black" cx="89.3621" cy="-1034" rx="18" ry="18"/>
<text text-anchor="middle" x="89.3621" y="-1030.3" font-family="Times,serif" font-size="14.00">PL6</text>
</g>
<!-- transition14 -->
<g id="node44" class="node"><title>transition14</title>
<polygon fill="none" stroke="black" points="107.362,-980 71.3621,-980 71.3621,-979 107.362,-979 107.362,-980"/>
<text text-anchor="middle" x="60.3621" y="-983.8" font-family="Times,serif" font-size="14.00">do+</text>
</g>
<!-- PL6&#45;&gt;transition14 -->
<g id="edge48" class="edge"><title>PL6&#45;&gt;transition14</title>
<path fill="none" stroke="black" d="M89.3621,-1015.94C89.3621,-1005.39 89.3621,-992.534 89.3621,-985.412"/>
<polygon fill="none" stroke="black" points="91.1122,-985.059 89.3621,-980.059 87.6122,-985.059 91.1122,-985.059"/>
</g>
<!-- transition19&#45;&gt;PL6 -->
<g id="edge47" class="edge"><title>transition19&#45;&gt;PL6</title>
<path fill="none" stroke="black" d="M89.3621,-1087.85C89.3621,-1086.37 89.3621,-1074.32 89.3621,-1062.1"/>
<polygon fill="black" stroke="black" points="92.8622,-1062.02 89.3621,-1052.02 85.8622,-1062.02 92.8622,-1062.02"/>
</g>
<!-- PL34 -->
<g id="node43" class="node"><title>PL34</title>
<ellipse fill="none" stroke="black" cx="89.3621" cy="-925" rx="18" ry="18"/>
<text text-anchor="middle" x="89.3621" y="-921.3" font-family="Times,serif" font-size="14.00">PL34</text>
</g>
<!-- transition15 -->
<g id="node46" class="node"><title>transition15</title>
<polygon fill="none" stroke="black" points="107.362,-871 71.3621,-871 71.3621,-870 107.362,-870 107.362,-871"/>
<text text-anchor="middle" x="61.8621" y="-874.8" font-family="Times,serif" font-size="14.00">di+</text>
</g>
<!-- PL34&#45;&gt;transition15 -->
<g id="edge50" class="edge"><title>PL34&#45;&gt;transition15</title>
<path fill="none" stroke="black" d="M89.3621,-906.939C89.3621,-896.385 89.3621,-883.534 89.3621,-876.412"/>
<polygon fill="none" stroke="black" points="91.1122,-876.059 89.3621,-871.059 87.6122,-876.059 91.1122,-876.059"/>
</g>
<!-- transition14&#45;&gt;PL34 -->
<g id="edge49" class="edge"><title>transition14&#45;&gt;PL34</title>
<path fill="none" stroke="black" d="M89.3621,-978.848C89.3621,-977.368 89.3621,-965.319 89.3621,-953.1"/>
<polygon fill="black" stroke="black" points="92.8622,-953.025 89.3621,-943.025 85.8622,-953.025 92.8622,-953.025"/>
</g>
<!-- PL36 -->
<g id="node45" class="node"><title>PL36</title>
<ellipse fill="none" stroke="black" cx="149.362" cy="-816" rx="18" ry="18"/>
<text text-anchor="middle" x="149.362" y="-812.3" font-family="Times,serif" font-size="14.00">PL36</text>
</g>
<!-- transition22 -->
<g id="node48" class="node"><title>transition22</title>
<polygon fill="none" stroke="black" points="183.362,-744.5 147.362,-744.5 147.362,-743.5 183.362,-743.5 183.362,-744.5"/>
<text text-anchor="middle" x="128.862" y="-748.3" font-family="Times,serif" font-size="14.00">mrdc+</text>
</g>
<!-- PL36&#45;&gt;transition22 -->
<g id="edge52" class="edge"><title>PL36&#45;&gt;transition22</title>
<path fill="none" stroke="black" d="M153.235,-798.055C156.819,-782.376 161.924,-760.04 164.195,-750.104"/>
<polygon fill="none" stroke="black" points="165.933,-750.358 165.341,-745.093 162.521,-749.578 165.933,-750.358"/>
</g>
<!-- transition15&#45;&gt;PL36 -->
<g id="edge51" class="edge"><title>transition15&#45;&gt;PL36</title>
<path fill="none" stroke="black" d="M89.4056,-869.962C90.4851,-869.008 111.449,-850.49 128.287,-835.616"/>
<polygon fill="black" stroke="black" points="130.938,-837.944 136.116,-828.701 126.304,-832.698 130.938,-837.944"/>
</g>
<!-- PL35 -->
<g id="node68" class="node"><title>PL35</title>
<ellipse fill="none" stroke="black" cx="84.3621" cy="-744" rx="18" ry="18"/>
<text text-anchor="middle" x="84.3621" y="-740.3" font-family="Times,serif" font-size="14.00">PL35</text>
</g>
<!-- transition15&#45;&gt;PL35 -->
<g id="edge79" class="edge"><title>transition15&#45;&gt;PL35</title>
<path fill="none" stroke="black" d="M89.3585,-869.909C89.2537,-867.29 86.9008,-808.468 85.4618,-772.491"/>
<polygon fill="black" stroke="black" points="88.945,-771.999 85.048,-762.147 81.9506,-772.279 88.945,-771.999"/>
</g>
<!-- PL38 -->
<g id="node47" class="node"><title>PL38</title>
<ellipse fill="none" stroke="black" cx="308.362" cy="-672" rx="18" ry="18"/>
<text text-anchor="middle" x="308.362" y="-668.3" font-family="Times,serif" font-size="14.00">PL38</text>
</g>
<!-- PL38&#45;&gt;transition24 -->
<g id="edge54" class="edge"><title>PL38&#45;&gt;transition24</title>
<path fill="none" stroke="black" d="M319.733,-657.899C329.836,-646.258 344.002,-629.936 350.647,-622.281"/>
<polygon fill="none" stroke="black" points="352.346,-622.993 354.301,-618.07 349.702,-620.699 352.346,-622.993"/>
</g>
<!-- transition22&#45;&gt;PL38 -->
<g id="edge53" class="edge"><title>transition22&#45;&gt;PL38</title>
<path fill="none" stroke="black" d="M165.466,-742.949C168.622,-741.404 243.109,-704.942 283.255,-685.29"/>
<polygon fill="black" stroke="black" points="284.983,-688.341 292.426,-680.801 281.906,-682.054 284.983,-688.341"/>
</g>
<!-- PL39 -->
<g id="node49" class="node"><title>PL39</title>
<ellipse fill="none" stroke="black" cx="178.362" cy="-672" rx="18" ry="18"/>
<text text-anchor="middle" x="178.362" y="-668.3" font-family="Times,serif" font-size="14.00">PL39</text>
</g>
<!-- transition22&#45;&gt;PL39 -->
<g id="edge55" class="edge"><title>transition22&#45;&gt;PL39</title>
<path fill="none" stroke="black" d="M165.372,-742.949C165.597,-741.735 169.827,-718.959 173.399,-699.722"/>
<polygon fill="black" stroke="black" points="176.85,-700.31 175.235,-689.839 169.968,-699.032 176.85,-700.31"/>
</g>
<!-- PL37 -->
<g id="node52" class="node"><title>PL37</title>
<ellipse fill="none" stroke="black" cx="124.362" cy="-672" rx="18" ry="18"/>
<text text-anchor="middle" x="124.362" y="-668.3" font-family="Times,serif" font-size="14.00">PL37</text>
</g>
<!-- transition22&#45;&gt;PL37 -->
<g id="edge59" class="edge"><title>transition22&#45;&gt;PL37</title>
<path fill="none" stroke="black" d="M165.332,-742.949C164.587,-741.677 149.975,-716.729 138.412,-696.987"/>
<polygon fill="black" stroke="black" points="141.289,-694.973 133.214,-688.114 135.248,-698.511 141.289,-694.973"/>
</g>
<!-- transition25 -->
<g id="node51" class="node"><title>transition25</title>
<polygon fill="none" stroke="black" points="196.362,-618 160.362,-618 160.362,-617 196.362,-617 196.362,-618"/>
<text text-anchor="middle" x="142.862" y="-621.8" font-family="Times,serif" font-size="14.00">xack+</text>
</g>
<!-- PL39&#45;&gt;transition25 -->
<g id="edge56" class="edge"><title>PL39&#45;&gt;transition25</title>
<path fill="none" stroke="black" d="M178.362,-653.939C178.362,-643.385 178.362,-630.534 178.362,-623.412"/>
<polygon fill="none" stroke="black" points="180.112,-623.059 178.362,-618.059 176.612,-623.059 180.112,-623.059"/>
</g>
<!-- PL40 -->
<g id="node50" class="node"><title>PL40</title>
<ellipse fill="none" stroke="black" cx="216.362" cy="-563" rx="18" ry="18"/>
<text text-anchor="middle" x="216.362" y="-559.3" font-family="Times,serif" font-size="14.00">PL40</text>
</g>
<!-- PL40&#45;&gt;transition26 -->
<g id="edge58" class="edge"><title>PL40&#45;&gt;transition26</title>
<path fill="none" stroke="black" d="M218.422,-581.02C220.793,-602.105 224.362,-639.146 224.362,-671 224.362,-1198 224.362,-1198 224.362,-1198 224.362,-1238.1 237.227,-1285.34 241.785,-1300.81"/>
<polygon fill="none" stroke="black" points="240.221,-1301.68 243.348,-1305.96 243.57,-1300.66 240.221,-1301.68"/>
</g>
<!-- transition25&#45;&gt;PL40 -->
<g id="edge57" class="edge"><title>transition25&#45;&gt;PL40</title>
<path fill="none" stroke="black" d="M178.471,-616.848C179.675,-615.169 190.636,-599.881 200.461,-586.177"/>
<polygon fill="black" stroke="black" points="203.352,-588.152 206.335,-577.986 197.663,-584.073 203.352,-588.152"/>
</g>
<!-- transition23 -->
<g id="node54" class="node"><title>transition23</title>
<polygon fill="none" stroke="black" points="142.362,-618 106.362,-618 106.362,-617 142.362,-617 142.362,-618"/>
<text text-anchor="middle" x="96.8621" y="-621.8" font-family="Times,serif" font-size="14.00">do&#45;</text>
</g>
<!-- PL37&#45;&gt;transition23 -->
<g id="edge60" class="edge"><title>PL37&#45;&gt;transition23</title>
<path fill="none" stroke="black" d="M124.362,-653.939C124.362,-643.385 124.362,-630.534 124.362,-623.412"/>
<polygon fill="none" stroke="black" points="126.112,-623.059 124.362,-618.059 122.612,-623.059 126.112,-623.059"/>
</g>
<!-- PL28 -->
<g id="node53" class="node"><title>PL28</title>
<ellipse fill="none" stroke="black" cx="124.362" cy="-563" rx="18" ry="18"/>
<text text-anchor="middle" x="124.362" y="-559.3" font-family="Times,serif" font-size="14.00">PL28</text>
</g>
<!-- transition16 -->
<g id="node56" class="node"><title>transition16</title>
<polygon fill="none" stroke="black" points="142.362,-509 106.362,-509 106.362,-508 142.362,-508 142.362,-509"/>
<text text-anchor="middle" x="98.3621" y="-512.8" font-family="Times,serif" font-size="14.00">di&#45;</text>
</g>
<!-- PL28&#45;&gt;transition16 -->
<g id="edge62" class="edge"><title>PL28&#45;&gt;transition16</title>
<path fill="none" stroke="black" d="M124.362,-544.939C124.362,-534.385 124.362,-521.534 124.362,-514.412"/>
<polygon fill="none" stroke="black" points="126.112,-514.059 124.362,-509.059 122.612,-514.059 126.112,-514.059"/>
</g>
<!-- transition23&#45;&gt;PL28 -->
<g id="edge61" class="edge"><title>transition23&#45;&gt;PL28</title>
<path fill="none" stroke="black" d="M124.362,-616.848C124.362,-615.368 124.362,-603.319 124.362,-591.1"/>
<polygon fill="black" stroke="black" points="127.862,-591.025 124.362,-581.025 120.862,-591.025 127.862,-591.025"/>
</g>
<!-- PL29 -->
<g id="node55" class="node"><title>PL29</title>
<ellipse fill="none" stroke="black" cx="116.362" cy="-454" rx="18" ry="18"/>
<text text-anchor="middle" x="116.362" y="-450.3" font-family="Times,serif" font-size="14.00">PL29</text>
</g>
<!-- transition21 -->
<g id="node58" class="node"><title>transition21</title>
<polygon fill="none" stroke="black" points="115.362,-400 79.3621,-400 79.3621,-399 115.362,-399 115.362,-400"/>
<text text-anchor="middle" x="64.8621" y="-403.8" font-family="Times,serif" font-size="14.00">pdo+</text>
</g>
<!-- PL29&#45;&gt;transition21 -->
<g id="edge64" class="edge"><title>PL29&#45;&gt;transition21</title>
<path fill="none" stroke="black" d="M110.558,-436.81C106.668,-425.958 101.797,-412.372 99.1978,-405.121"/>
<polygon fill="none" stroke="black" points="100.719,-404.177 97.3841,-400.061 97.4241,-405.359 100.719,-404.177"/>
</g>
<!-- transition16&#45;&gt;PL29 -->
<g id="edge63" class="edge"><title>transition16&#45;&gt;PL29</title>
<path fill="none" stroke="black" d="M124.339,-507.848C124.116,-506.368 122.297,-494.319 120.453,-482.1"/>
<polygon fill="black" stroke="black" points="123.885,-481.39 118.932,-472.025 116.964,-482.435 123.885,-481.39"/>
</g>
<!-- PL30 -->
<g id="node67" class="node"><title>PL30</title>
<ellipse fill="none" stroke="black" cx="239.362" cy="-454" rx="18" ry="18"/>
<text text-anchor="middle" x="239.362" y="-450.3" font-family="Times,serif" font-size="14.00">PL30</text>
</g>
<!-- transition16&#45;&gt;PL30 -->
<g id="edge77" class="edge"><title>transition16&#45;&gt;PL30</title>
<path fill="none" stroke="black" d="M124.445,-507.962C126.86,-506.849 181.16,-481.824 214.243,-466.577"/>
<polygon fill="black" stroke="black" points="215.732,-469.744 223.349,-462.38 212.802,-463.387 215.732,-469.744"/>
</g>
<!-- PL5 -->
<g id="node57" class="node"><title>PL5</title>
<ellipse fill="none" stroke="black" cx="124.362" cy="-345" rx="18" ry="18"/>
<text text-anchor="middle" x="124.362" y="-341.3" font-family="Times,serif" font-size="14.00">PL5</text>
</g>
<!-- transition17 -->
<g id="node60" class="node"><title>transition17</title>
<polygon fill="none" stroke="black" points="142.362,-291 106.362,-291 106.362,-290 142.362,-290 142.362,-291"/>
<text text-anchor="middle" x="88.8621" y="-294.8" font-family="Times,serif" font-size="14.00">pack+</text>
</g>
<!-- PL5&#45;&gt;transition17 -->
<g id="edge66" class="edge"><title>PL5&#45;&gt;transition17</title>
<path fill="none" stroke="black" d="M124.362,-326.939C124.362,-316.385 124.362,-303.534 124.362,-296.412"/>
<polygon fill="none" stroke="black" points="126.112,-296.059 124.362,-291.059 122.612,-296.059 126.112,-296.059"/>
</g>
<!-- transition21&#45;&gt;PL5 -->
<g id="edge65" class="edge"><title>transition21&#45;&gt;PL5</title>
<path fill="none" stroke="black" d="M97.4396,-398.848C98.246,-397.265 105.212,-383.591 111.856,-370.55"/>
<polygon fill="black" stroke="black" points="115.123,-371.847 116.544,-361.348 108.886,-368.669 115.123,-371.847"/>
</g>
<!-- PL33 -->
<g id="node65" class="node"><title>PL33</title>
<ellipse fill="none" stroke="black" cx="32.3621" cy="-345" rx="18" ry="18"/>
<text text-anchor="middle" x="32.3621" y="-341.3" font-family="Times,serif" font-size="14.00">PL33</text>
</g>
<!-- transition21&#45;&gt;PL33 -->
<g id="edge73" class="edge"><title>transition21&#45;&gt;PL33</title>
<path fill="none" stroke="black" d="M97.315,-398.962C96.1215,-397.988 72.4945,-378.723 54.0781,-363.707"/>
<polygon fill="black" stroke="black" points="56.0444,-360.794 46.0824,-357.187 51.6208,-366.219 56.0444,-360.794"/>
</g>
<!-- PL26 -->
<g id="node59" class="node"><title>PL26</title>
<ellipse fill="none" stroke="black" cx="124.362" cy="-236" rx="18" ry="18"/>
<text text-anchor="middle" x="124.362" y="-232.3" font-family="Times,serif" font-size="14.00">PL26</text>
</g>
<!-- transition18 -->
<g id="node62" class="node"><title>transition18</title>
<polygon fill="none" stroke="black" points="130.362,-182 94.3621,-182 94.3621,-181 130.362,-181 130.362,-182"/>
<text text-anchor="middle" x="81.3621" y="-185.8" font-family="Times,serif" font-size="14.00">pdo&#45;</text>
</g>
<!-- PL26&#45;&gt;transition18 -->
<g id="edge68" class="edge"><title>PL26&#45;&gt;transition18</title>
<path fill="none" stroke="black" d="M120.565,-218.23C118.117,-207.419 115.101,-194.098 113.495,-187.004"/>
<polygon fill="none" stroke="black" points="115.187,-186.55 112.376,-182.06 111.773,-187.323 115.187,-186.55"/>
</g>
<!-- transition17&#45;&gt;PL26 -->
<g id="edge67" class="edge"><title>transition17&#45;&gt;PL26</title>
<path fill="none" stroke="black" d="M124.362,-289.848C124.362,-288.368 124.362,-276.319 124.362,-264.1"/>
<polygon fill="black" stroke="black" points="127.862,-264.025 124.362,-254.025 120.862,-264.025 127.862,-264.025"/>
</g>
<!-- PL31 -->
<g id="node61" class="node"><title>PL31</title>
<ellipse fill="none" stroke="black" cx="93.3621" cy="-127" rx="18" ry="18"/>
<text text-anchor="middle" x="93.3621" y="-123.3" font-family="Times,serif" font-size="14.00">PL31</text>
</g>
<!-- transition20 -->
<g id="node64" class="node"><title>transition20</title>
<polygon fill="none" stroke="black" points="107.362,-73 71.3621,-73 71.3621,-72 107.362,-72 107.362,-73"/>
<text text-anchor="middle" x="55.3621" y="-76.8" font-family="Times,serif" font-size="14.00">pack&#45;</text>
</g>
<!-- PL31&#45;&gt;transition20 -->
<g id="edge70" class="edge"><title>PL31&#45;&gt;transition20</title>
<path fill="none" stroke="black" d="M92.0745,-108.939C91.278,-98.3852 90.3081,-85.5344 89.7706,-78.4124"/>
<polygon fill="none" stroke="black" points="91.488,-77.9132 89.3666,-73.0591 87.9979,-78.1767 91.488,-77.9132"/>
</g>
<!-- transition18&#45;&gt;PL31 -->
<g id="edge69" class="edge"><title>transition18&#45;&gt;PL31</title>
<path fill="none" stroke="black" d="M112.308,-180.848C111.756,-179.309 107.11,-166.348 102.557,-153.648"/>
<polygon fill="black" stroke="black" points="105.832,-152.413 99.1628,-144.181 99.2427,-154.775 105.832,-152.413"/>
</g>
<!-- PL27 -->
<g id="node66" class="node"><title>PL27</title>
<ellipse fill="none" stroke="black" cx="162.362" cy="-127" rx="18" ry="18"/>
<text text-anchor="middle" x="162.362" y="-123.3" font-family="Times,serif" font-size="14.00">PL27</text>
</g>
<!-- transition18&#45;&gt;PL27 -->
<g id="edge75" class="edge"><title>transition18&#45;&gt;PL27</title>
<path fill="none" stroke="black" d="M112.506,-180.848C114.168,-179.086 129.968,-162.338 143.342,-148.161"/>
<polygon fill="black" stroke="black" points="146.101,-150.337 150.418,-140.661 141.01,-145.533 146.101,-150.337"/>
</g>
<!-- PL32 -->
<g id="node63" class="node"><title>PL32</title>
<ellipse fill="none" stroke="black" cx="64.3621" cy="-18" rx="18" ry="18"/>
<text text-anchor="middle" x="64.3621" y="-14.3" font-family="Times,serif" font-size="14.00">PL32</text>
</g>
<!-- PL32&#45;&gt;transition21 -->
<g id="edge72" class="edge"><title>PL32&#45;&gt;transition21</title>
<path fill="none" stroke="black" d="M58.4295,-35.0631C51.3224,-55.7785 40.3621,-93.0644 40.3621,-126 40.3621,-237 40.3621,-237 40.3621,-237 40.3621,-302.742 82.6496,-375.419 94.3778,-394.311"/>
<polygon fill="none" stroke="black" points="93.1606,-395.658 97.3208,-398.938 96.1138,-393.78 93.1606,-395.658"/>
</g>
<!-- transition20&#45;&gt;PL32 -->
<g id="edge71" class="edge"><title>transition20&#45;&gt;PL32</title>
<path fill="none" stroke="black" d="M89.2904,-71.848C88.5483,-70.2747 82.1729,-56.759 76.0561,-43.7912"/>
<polygon fill="black" stroke="black" points="79.1637,-42.1752 71.7319,-34.624 72.8327,-45.1615 79.1637,-42.1752"/>
</g>
<!-- PL33&#45;&gt;transition19 -->
<g id="edge74" class="edge"><title>PL33&#45;&gt;transition19</title>
<path fill="none" stroke="black" d="M30.3019,-363.02C27.9316,-384.105 24.3621,-421.146 24.3621,-453 24.3621,-980 24.3621,-980 24.3621,-980 24.3621,-1027.39 70.8779,-1071.89 85.2096,-1084.47"/>
<polygon fill="none" stroke="black" points="84.3713,-1086.06 89.315,-1087.96 86.6373,-1083.39 84.3713,-1086.06"/>
</g>
<!-- PL27&#45;&gt;transition23 -->
<g id="edge76" class="edge"><title>PL27&#45;&gt;transition23</title>
<path fill="none" stroke="black" d="M164.422,-145.02C166.793,-166.105 170.362,-203.146 170.362,-235 170.362,-509 170.362,-509 170.362,-509 170.362,-542.095 165.78,-551.21 151.362,-581 145.032,-594.08 133.647,-607.157 127.894,-613.331"/>
<polygon fill="none" stroke="black" points="126.62,-612.131 124.415,-616.948 129.142,-614.558 126.62,-612.131"/>
</g>
<!-- PL30&#45;&gt;transition26 -->
<g id="edge78" class="edge"><title>PL30&#45;&gt;transition26</title>
<path fill="none" stroke="black" d="M245.048,-471.083C251.858,-491.82 262.362,-529.129 262.362,-562 262.362,-1198 262.362,-1198 262.362,-1198 262.362,-1238.1 249.497,-1285.34 244.939,-1300.81"/>
<polygon fill="none" stroke="black" points="243.155,-1300.66 243.376,-1305.96 246.504,-1301.68 243.155,-1300.66"/>
</g>
<!-- PL35&#45;&gt;transition18 -->
<g id="edge80" class="edge"><title>PL35&#45;&gt;transition18</title>
<path fill="none" stroke="black" d="M79.5884,-726.582C73.1181,-702.841 62.3621,-657.443 62.3621,-618 62.3621,-618 62.3621,-618 62.3621,-508 62.3621,-423.661 -20.9972,-407.114 5.36212,-327 27.1152,-260.886 91.8663,-200.178 108.455,-185.408"/>
<polygon fill="none" stroke="black" points="109.687,-186.657 112.303,-182.05 107.385,-184.02 109.687,-186.657"/>
</g>
</g>
</svg>
