<?xml version="1.0" encoding="UTF-8" standalone="no"?>
<!DOCTYPE svg PUBLIC "-//W3C//DTD SVG 1.1//EN"
 "http://www.w3.org/Graphics/SVG/1.1/DTD/svg11.dtd">
<!-- Generated by graphviz version 2.38.0 (20140413.2041)
 -->
<!-- Title: %3 Pages: 1 -->
<svg width="458pt" height="2329pt"
 viewBox="0.00 0.00 458.00 2329.00" xmlns="http://www.w3.org/2000/svg" xmlns:xlink="http://www.w3.org/1999/xlink">
<g id="graph0" class="graph" transform="scale(1 1) rotate(0) translate(4 2325)">
<title>%3</title>
<polygon fill="white" stroke="none" points="-4,4 -4,-2325 454,-2325 454,4 -4,4"/>
<!-- PL1 -->
<g id="node1" class="node"><title>PL1</title>
<ellipse fill="none" stroke="black" cx="187" cy="-2303" rx="18" ry="18"/>
<text text-anchor="middle" x="187" y="-2299.3" font-family="Times,serif" font-size="14.00">PL1</text>
</g>
<!-- transition0 -->
<g id="node3" class="node"><title>transition0</title>
<polygon fill="none" stroke="black" points="230,-2249 194,-2249 194,-2248 230,-2248 230,-2249"/>
<text text-anchor="middle" x="182.5" y="-2252.8" font-family="Times,serif" font-size="14.00">ari+</text>
</g>
<!-- PL1&#45;&gt;transition0 -->
<g id="edge1" class="edge"><title>PL1&#45;&gt;transition0</title>
<path fill="none" stroke="black" d="M194.366,-2286.38C199.612,-2275.26 206.319,-2261.04 209.753,-2253.76"/>
<polygon fill="none" stroke="black" points="211.42,-2254.33 211.97,-2249.06 208.254,-2252.84 211.42,-2254.33"/>
</g>
<!-- PL37 -->
<g id="node2" class="node"><title>PL37</title>
<ellipse fill="none" stroke="black" cx="217" cy="-2194" rx="18" ry="18"/>
<text text-anchor="middle" x="217" y="-2190.3" font-family="Times,serif" font-size="14.00">PL37</text>
</g>
<!-- transition5 -->
<g id="node5" class="node"><title>transition5</title>
<polygon fill="none" stroke="black" points="254,-2140 218,-2140 218,-2139 254,-2139 254,-2140"/>
<text text-anchor="middle" x="206" y="-2143.8" font-family="Times,serif" font-size="14.00">pro&#45;</text>
</g>
<!-- PL37&#45;&gt;transition5 -->
<g id="edge3" class="edge"><title>PL37&#45;&gt;transition5</title>
<path fill="none" stroke="black" d="M222.804,-2176.81C226.694,-2165.96 231.565,-2152.37 234.164,-2145.12"/>
<polygon fill="none" stroke="black" points="235.938,-2145.36 235.978,-2140.06 232.643,-2144.18 235.938,-2145.36"/>
</g>
<!-- transition0&#45;&gt;PL37 -->
<g id="edge2" class="edge"><title>transition0&#45;&gt;PL37</title>
<path fill="none" stroke="black" d="M212.014,-2247.85C212.154,-2246.37 213.291,-2234.32 214.443,-2222.1"/>
<polygon fill="black" stroke="black" points="217.939,-2222.31 215.394,-2212.02 210.97,-2221.65 217.939,-2222.31"/>
</g>
<!-- PL28 -->
<g id="node4" class="node"><title>PL28</title>
<ellipse fill="none" stroke="black" cx="300" cy="-2085" rx="18" ry="18"/>
<text text-anchor="middle" x="300" y="-2081.3" font-family="Times,serif" font-size="14.00">PL28</text>
</g>
<!-- transition26 -->
<g id="node7" class="node"><title>transition26</title>
<polygon fill="none" stroke="black" points="318,-2031 282,-2031 282,-2030 318,-2030 318,-2031"/>
<text text-anchor="middle" x="270" y="-2034.8" font-family="Times,serif" font-size="14.00">pri+</text>
</g>
<!-- PL28&#45;&gt;transition26 -->
<g id="edge5" class="edge"><title>PL28&#45;&gt;transition26</title>
<path fill="none" stroke="black" d="M300,-2066.94C300,-2056.39 300,-2043.53 300,-2036.41"/>
<polygon fill="none" stroke="black" points="301.75,-2036.06 300,-2031.06 298.25,-2036.06 301.75,-2036.06"/>
</g>
<!-- transition5&#45;&gt;PL28 -->
<g id="edge4" class="edge"><title>transition5&#45;&gt;PL28</title>
<path fill="none" stroke="black" d="M236.046,-2138.96C237.221,-2137.99 260.485,-2118.72 278.618,-2103.71"/>
<polygon fill="black" stroke="black" points="281.021,-2106.26 286.491,-2097.19 276.557,-2100.87 281.021,-2106.26"/>
</g>
<!-- PL22 -->
<g id="node14" class="node"><title>PL22</title>
<ellipse fill="none" stroke="black" cx="246" cy="-2085" rx="18" ry="18"/>
<text text-anchor="middle" x="246" y="-2081.3" font-family="Times,serif" font-size="14.00">PL22</text>
</g>
<!-- transition5&#45;&gt;PL22 -->
<g id="edge14" class="edge"><title>transition5&#45;&gt;PL22</title>
<path fill="none" stroke="black" d="M236.029,-2138.85C236.31,-2137.36 238.61,-2125.16 240.931,-2112.87"/>
<polygon fill="black" stroke="black" points="244.426,-2113.22 242.841,-2102.74 237.548,-2111.92 244.426,-2113.22"/>
</g>
<!-- PL29 -->
<g id="node6" class="node"><title>PL29</title>
<ellipse fill="none" stroke="black" cx="300" cy="-1976" rx="18" ry="18"/>
<text text-anchor="middle" x="300" y="-1972.3" font-family="Times,serif" font-size="14.00">PL29</text>
</g>
<!-- transition27 -->
<g id="node9" class="node"><title>transition27</title>
<polygon fill="none" stroke="black" points="372,-1922 336,-1922 336,-1921 372,-1921 372,-1922"/>
<text text-anchor="middle" x="319.5" y="-1925.8" font-family="Times,serif" font-size="14.00">breq+</text>
</g>
<!-- PL29&#45;&gt;transition27 -->
<g id="edge7" class="edge"><title>PL29&#45;&gt;transition27</title>
<path fill="none" stroke="black" d="M312.524,-1962.71C324.598,-1950.86 342.153,-1933.63 349.977,-1925.95"/>
<polygon fill="none" stroke="black" points="351.584,-1926.82 353.926,-1922.07 349.132,-1924.33 351.584,-1926.82"/>
</g>
<!-- transition26&#45;&gt;PL29 -->
<g id="edge6" class="edge"><title>transition26&#45;&gt;PL29</title>
<path fill="none" stroke="black" d="M300,-2029.85C300,-2028.37 300,-2016.32 300,-2004.1"/>
<polygon fill="black" stroke="black" points="303.5,-2004.02 300,-1994.02 296.5,-2004.02 303.5,-2004.02"/>
</g>
<!-- PL31 -->
<g id="node8" class="node"><title>PL31</title>
<ellipse fill="none" stroke="black" cx="400" cy="-1795" rx="18" ry="18"/>
<text text-anchor="middle" x="400" y="-1791.3" font-family="Times,serif" font-size="14.00">PL31</text>
</g>
<!-- transition23 -->
<g id="node11" class="node"><title>transition23</title>
<polygon fill="none" stroke="black" points="418,-1669 382,-1669 382,-1668 418,-1668 418,-1669"/>
<text text-anchor="middle" x="364.5" y="-1672.8" font-family="Times,serif" font-size="14.00">busy+</text>
</g>
<!-- PL31&#45;&gt;transition23 -->
<g id="edge9" class="edge"><title>PL31&#45;&gt;transition23</title>
<path fill="none" stroke="black" d="M400,-1776.88C400,-1748.18 400,-1691.79 400,-1674.3"/>
<polygon fill="none" stroke="black" points="401.75,-1674.05 400,-1669.05 398.25,-1674.05 401.75,-1674.05"/>
</g>
<!-- transition27&#45;&gt;PL31 -->
<g id="edge8" class="edge"><title>transition27&#45;&gt;PL31</title>
<path fill="none" stroke="black" d="M354.054,-1920.95C355.16,-1919.89 372.978,-1902.64 381,-1885 389.927,-1865.38 394.735,-1841.39 397.28,-1823.26"/>
<polygon fill="black" stroke="black" points="400.784,-1823.44 398.559,-1813.08 393.839,-1822.57 400.784,-1823.44"/>
</g>
<!-- PL32 -->
<g id="node63" class="node"><title>PL32</title>
<ellipse fill="none" stroke="black" cx="354" cy="-1867" rx="18" ry="18"/>
<text text-anchor="middle" x="354" y="-1863.3" font-family="Times,serif" font-size="14.00">PL32</text>
</g>
<!-- transition27&#45;&gt;PL32 -->
<g id="edge72" class="edge"><title>transition27&#45;&gt;PL32</title>
<path fill="none" stroke="black" d="M354,-1920.85C354,-1919.37 354,-1907.32 354,-1895.1"/>
<polygon fill="black" stroke="black" points="357.5,-1895.02 354,-1885.02 350.5,-1895.02 357.5,-1895.02"/>
</g>
<!-- PL30 -->
<g id="node66" class="node"><title>PL30</title>
<ellipse fill="none" stroke="black" cx="300" cy="-1867" rx="18" ry="18"/>
<text text-anchor="middle" x="300" y="-1863.3" font-family="Times,serif" font-size="14.00">PL30</text>
</g>
<!-- transition27&#45;&gt;PL30 -->
<g id="edge76" class="edge"><title>transition27&#45;&gt;PL30</title>
<path fill="none" stroke="black" d="M353.845,-1920.85C352.012,-1919.05 334.262,-1901.63 319.635,-1887.27"/>
<polygon fill="black" stroke="black" points="321.96,-1884.65 312.372,-1880.14 317.057,-1889.65 321.96,-1884.65"/>
</g>
<!-- PL19 -->
<g id="node10" class="node"><title>PL19</title>
<ellipse fill="none" stroke="black" cx="366" cy="-1614" rx="18" ry="18"/>
<text text-anchor="middle" x="366" y="-1610.3" font-family="Times,serif" font-size="14.00">PL19</text>
</g>
<!-- transition11 -->
<g id="node13" class="node"><title>transition11</title>
<polygon fill="none" stroke="black" points="334,-1560 298,-1560 298,-1559 334,-1559 334,-1560"/>
<text text-anchor="middle" x="283" y="-1563.8" font-family="Times,serif" font-size="14.00">breq&#45;</text>
</g>
<!-- PL19&#45;&gt;transition11 -->
<g id="edge11" class="edge"><title>PL19&#45;&gt;transition11</title>
<path fill="none" stroke="black" d="M354.151,-1600.44C342.96,-1588.58 326.856,-1571.51 319.685,-1563.91"/>
<polygon fill="none" stroke="black" points="320.772,-1562.51 316.067,-1560.07 318.226,-1564.91 320.772,-1562.51"/>
</g>
<!-- transition23&#45;&gt;PL19 -->
<g id="edge10" class="edge"><title>transition23&#45;&gt;PL19</title>
<path fill="none" stroke="black" d="M399.902,-1667.85C398.848,-1666.2 389.431,-1651.53 380.79,-1638.05"/>
<polygon fill="black" stroke="black" points="383.664,-1636.05 375.319,-1629.53 377.772,-1639.83 383.664,-1636.05"/>
</g>
<!-- PL2 -->
<g id="node12" class="node"><title>PL2</title>
<ellipse fill="none" stroke="black" cx="199" cy="-1505" rx="18" ry="18"/>
<text text-anchor="middle" x="199" y="-1501.3" font-family="Times,serif" font-size="14.00">PL2</text>
</g>
<!-- PL2&#45;&gt;transition5 -->
<g id="edge13" class="edge"><title>PL2&#45;&gt;transition5</title>
<path fill="none" stroke="black" d="M189.918,-1520.67C184.094,-1530.97 177.069,-1545.3 174,-1559 157.964,-1630.59 200,-1648.64 200,-1722 200,-2031 200,-2031 200,-2031 200,-2073.12 224.951,-2119.96 233.309,-2134.47"/>
<polygon fill="none" stroke="black" points="231.841,-2135.43 235.897,-2138.83 234.851,-2133.64 231.841,-2135.43"/>
</g>
<!-- transition11&#45;&gt;PL2 -->
<g id="edge12" class="edge"><title>transition11&#45;&gt;PL2</title>
<path fill="none" stroke="black" d="M315.915,-1558.96C313.459,-1557.85 258.214,-1532.82 224.556,-1517.58"/>
<polygon fill="black" stroke="black" points="225.845,-1514.32 215.291,-1513.38 222.956,-1520.69 225.845,-1514.32"/>
</g>
<!-- PL38 -->
<g id="node23" class="node"><title>PL38</title>
<ellipse fill="none" stroke="black" cx="316" cy="-1505" rx="18" ry="18"/>
<text text-anchor="middle" x="316" y="-1501.3" font-family="Times,serif" font-size="14.00">PL38</text>
</g>
<!-- transition11&#45;&gt;PL38 -->
<g id="edge24" class="edge"><title>transition11&#45;&gt;PL38</title>
<path fill="none" stroke="black" d="M316,-1558.85C316,-1557.37 316,-1545.32 316,-1533.1"/>
<polygon fill="black" stroke="black" points="319.5,-1533.02 316,-1523.02 312.5,-1533.02 319.5,-1533.02"/>
</g>
<!-- transition1 -->
<g id="node16" class="node"><title>transition1</title>
<polygon fill="none" stroke="black" points="264,-2031 228,-2031 228,-2030 264,-2030 264,-2031"/>
<text text-anchor="middle" x="216.5" y="-2034.8" font-family="Times,serif" font-size="14.00">aro&#45;</text>
</g>
<!-- PL22&#45;&gt;transition1 -->
<g id="edge15" class="edge"><title>PL22&#45;&gt;transition1</title>
<path fill="none" stroke="black" d="M246,-2066.94C246,-2056.39 246,-2043.53 246,-2036.41"/>
<polygon fill="none" stroke="black" points="247.75,-2036.06 246,-2031.06 244.25,-2036.06 247.75,-2036.06"/>
</g>
<!-- PL23 -->
<g id="node15" class="node"><title>PL23</title>
<ellipse fill="none" stroke="black" cx="246" cy="-1976" rx="18" ry="18"/>
<text text-anchor="middle" x="246" y="-1972.3" font-family="Times,serif" font-size="14.00">PL23</text>
</g>
<!-- transition2 -->
<g id="node18" class="node"><title>transition2</title>
<polygon fill="none" stroke="black" points="264,-1922 228,-1922 228,-1921 264,-1921 264,-1922"/>
<text text-anchor="middle" x="218" y="-1925.8" font-family="Times,serif" font-size="14.00">ari&#45;</text>
</g>
<!-- PL23&#45;&gt;transition2 -->
<g id="edge17" class="edge"><title>PL23&#45;&gt;transition2</title>
<path fill="none" stroke="black" d="M246,-1957.94C246,-1947.39 246,-1934.53 246,-1927.41"/>
<polygon fill="none" stroke="black" points="247.75,-1927.06 246,-1922.06 244.25,-1927.06 247.75,-1927.06"/>
</g>
<!-- transition1&#45;&gt;PL23 -->
<g id="edge16" class="edge"><title>transition1&#45;&gt;PL23</title>
<path fill="none" stroke="black" d="M246,-2029.85C246,-2028.37 246,-2016.32 246,-2004.1"/>
<polygon fill="black" stroke="black" points="249.5,-2004.02 246,-1994.02 242.5,-2004.02 249.5,-2004.02"/>
</g>
<!-- PL24 -->
<g id="node17" class="node"><title>PL24</title>
<ellipse fill="none" stroke="black" cx="246" cy="-1867" rx="18" ry="18"/>
<text text-anchor="middle" x="246" y="-1863.3" font-family="Times,serif" font-size="14.00">PL24</text>
</g>
<!-- transition9 -->
<g id="node20" class="node"><title>transition9</title>
<polygon fill="none" stroke="black" points="279,-1795.5 243,-1795.5 243,-1794.5 279,-1794.5 279,-1795.5"/>
<text text-anchor="middle" x="229.5" y="-1799.3" font-family="Times,serif" font-size="14.00">pro+</text>
</g>
<!-- PL24&#45;&gt;transition9 -->
<g id="edge19" class="edge"><title>PL24&#45;&gt;transition9</title>
<path fill="none" stroke="black" d="M249.631,-1849.05C252.991,-1833.38 257.777,-1811.04 259.906,-1801.1"/>
<polygon fill="none" stroke="black" points="261.643,-1801.35 260.98,-1796.09 258.221,-1800.62 261.643,-1801.35"/>
</g>
<!-- transition2&#45;&gt;PL24 -->
<g id="edge18" class="edge"><title>transition2&#45;&gt;PL24</title>
<path fill="none" stroke="black" d="M246,-1920.85C246,-1919.37 246,-1907.32 246,-1895.1"/>
<polygon fill="black" stroke="black" points="249.5,-1895.02 246,-1885.02 242.5,-1895.02 249.5,-1895.02"/>
</g>
<!-- PL25 -->
<g id="node19" class="node"><title>PL25</title>
<ellipse fill="none" stroke="black" cx="261" cy="-1723" rx="18" ry="18"/>
<text text-anchor="middle" x="261" y="-1719.3" font-family="Times,serif" font-size="14.00">PL25</text>
</g>
<!-- transition3 -->
<g id="node22" class="node"><title>transition3</title>
<polygon fill="none" stroke="black" points="279,-1669 243,-1669 243,-1668 279,-1668 279,-1669"/>
<text text-anchor="middle" x="232.5" y="-1672.8" font-family="Times,serif" font-size="14.00">pri&#45;</text>
</g>
<!-- PL25&#45;&gt;transition3 -->
<g id="edge21" class="edge"><title>PL25&#45;&gt;transition3</title>
<path fill="none" stroke="black" d="M261,-1704.94C261,-1694.39 261,-1681.53 261,-1674.41"/>
<polygon fill="none" stroke="black" points="262.75,-1674.06 261,-1669.06 259.25,-1674.06 262.75,-1674.06"/>
</g>
<!-- transition9&#45;&gt;PL25 -->
<g id="edge20" class="edge"><title>transition9&#45;&gt;PL25</title>
<path fill="none" stroke="black" d="M261,-1793.95C261,-1792.75 261,-1770.43 261,-1751.32"/>
<polygon fill="black" stroke="black" points="264.5,-1751.19 261,-1741.19 257.5,-1751.19 264.5,-1751.19"/>
</g>
<!-- PL27 -->
<g id="node21" class="node"><title>PL27</title>
<ellipse fill="none" stroke="black" cx="274" cy="-1614" rx="18" ry="18"/>
<text text-anchor="middle" x="274" y="-1610.3" font-family="Times,serif" font-size="14.00">PL27</text>
</g>
<!-- PL27&#45;&gt;transition11 -->
<g id="edge23" class="edge"><title>PL27&#45;&gt;transition11</title>
<path fill="none" stroke="black" d="M284.816,-1599.35C294.046,-1587.7 306.739,-1571.69 312.681,-1564.19"/>
<polygon fill="none" stroke="black" points="314.212,-1565.07 315.946,-1560.07 311.469,-1562.9 314.212,-1565.07"/>
</g>
<!-- transition3&#45;&gt;PL27 -->
<g id="edge22" class="edge"><title>transition3&#45;&gt;PL27</title>
<path fill="none" stroke="black" d="M261.037,-1667.85C261.406,-1666.34 264.454,-1653.92 267.501,-1641.5"/>
<polygon fill="black" stroke="black" points="270.91,-1642.29 269.893,-1631.74 264.112,-1640.62 270.91,-1642.29"/>
</g>
<!-- PL26 -->
<g id="node67" class="node"><title>PL26</title>
<ellipse fill="none" stroke="black" cx="220" cy="-1614" rx="18" ry="18"/>
<text text-anchor="middle" x="220" y="-1610.3" font-family="Times,serif" font-size="14.00">PL26</text>
</g>
<!-- transition3&#45;&gt;PL26 -->
<g id="edge78" class="edge"><title>transition3&#45;&gt;PL26</title>
<path fill="none" stroke="black" d="M260.882,-1667.85C259.575,-1666.16 247.615,-1650.7 236.966,-1636.93"/>
<polygon fill="black" stroke="black" points="239.499,-1634.49 230.612,-1628.72 233.962,-1638.77 239.499,-1634.49"/>
</g>
<!-- transition6 -->
<g id="node25" class="node"><title>transition6</title>
<polygon fill="none" stroke="black" points="334,-1451 298,-1451 298,-1450 334,-1450 334,-1451"/>
<text text-anchor="middle" x="282.5" y="-1454.8" font-family="Times,serif" font-size="14.00">bprn&#45;</text>
</g>
<!-- PL38&#45;&gt;transition6 -->
<g id="edge25" class="edge"><title>PL38&#45;&gt;transition6</title>
<path fill="none" stroke="black" d="M316,-1486.94C316,-1476.39 316,-1463.53 316,-1456.41"/>
<polygon fill="none" stroke="black" points="317.75,-1456.06 316,-1451.06 314.25,-1456.06 317.75,-1456.06"/>
</g>
<!-- PL39 -->
<g id="node24" class="node"><title>PL39</title>
<ellipse fill="none" stroke="black" cx="316" cy="-1396" rx="18" ry="18"/>
<text text-anchor="middle" x="316" y="-1392.3" font-family="Times,serif" font-size="14.00">PL39</text>
</g>
<!-- transition7 -->
<g id="node27" class="node"><title>transition7</title>
<polygon fill="none" stroke="black" points="334,-1342 298,-1342 298,-1341 334,-1341 334,-1342"/>
<text text-anchor="middle" x="290.5" y="-1345.8" font-family="Times,serif" font-size="14.00">x+</text>
</g>
<!-- PL39&#45;&gt;transition7 -->
<g id="edge27" class="edge"><title>PL39&#45;&gt;transition7</title>
<path fill="none" stroke="black" d="M316,-1377.94C316,-1367.39 316,-1354.53 316,-1347.41"/>
<polygon fill="none" stroke="black" points="317.75,-1347.06 316,-1342.06 314.25,-1347.06 317.75,-1347.06"/>
</g>
<!-- transition6&#45;&gt;PL39 -->
<g id="edge26" class="edge"><title>transition6&#45;&gt;PL39</title>
<path fill="none" stroke="black" d="M316,-1449.85C316,-1448.37 316,-1436.32 316,-1424.1"/>
<polygon fill="black" stroke="black" points="319.5,-1424.02 316,-1414.02 312.5,-1424.02 319.5,-1424.02"/>
</g>
<!-- PL40 -->
<g id="node26" class="node"><title>PL40</title>
<ellipse fill="none" stroke="black" cx="316" cy="-1287" rx="18" ry="18"/>
<text text-anchor="middle" x="316" y="-1283.3" font-family="Times,serif" font-size="14.00">PL40</text>
</g>
<!-- transition8 -->
<g id="node29" class="node"><title>transition8</title>
<polygon fill="none" stroke="black" points="334,-1233 298,-1233 298,-1232 334,-1232 334,-1233"/>
<text text-anchor="middle" x="282" y="-1236.8" font-family="Times,serif" font-size="14.00">busy&#45;</text>
</g>
<!-- PL40&#45;&gt;transition8 -->
<g id="edge29" class="edge"><title>PL40&#45;&gt;transition8</title>
<path fill="none" stroke="black" d="M316,-1268.94C316,-1258.39 316,-1245.53 316,-1238.41"/>
<polygon fill="none" stroke="black" points="317.75,-1238.06 316,-1233.06 314.25,-1238.06 317.75,-1238.06"/>
</g>
<!-- transition7&#45;&gt;PL40 -->
<g id="edge28" class="edge"><title>transition7&#45;&gt;PL40</title>
<path fill="none" stroke="black" d="M316,-1340.85C316,-1339.37 316,-1327.32 316,-1315.1"/>
<polygon fill="black" stroke="black" points="319.5,-1315.02 316,-1305.02 312.5,-1315.02 319.5,-1315.02"/>
</g>
<!-- PL34 -->
<g id="node28" class="node"><title>PL34</title>
<ellipse fill="none" stroke="black" cx="314" cy="-1178" rx="18" ry="18"/>
<text text-anchor="middle" x="314" y="-1174.3" font-family="Times,serif" font-size="14.00">PL34</text>
</g>
<!-- transition25 -->
<g id="node31" class="node"><title>transition25</title>
<polygon fill="none" stroke="black" points="344,-1124 308,-1124 308,-1123 344,-1123 344,-1124"/>
<text text-anchor="middle" x="291" y="-1127.8" font-family="Times,serif" font-size="14.00">mrdc&#45;</text>
</g>
<!-- PL34&#45;&gt;transition25 -->
<g id="edge31" class="edge"><title>PL34&#45;&gt;transition25</title>
<path fill="none" stroke="black" d="M317.797,-1160.23C320.245,-1149.42 323.261,-1136.1 324.867,-1129"/>
<polygon fill="none" stroke="black" points="326.589,-1129.32 325.986,-1124.06 323.175,-1128.55 326.589,-1129.32"/>
</g>
<!-- transition8&#45;&gt;PL34 -->
<g id="edge30" class="edge"><title>transition8&#45;&gt;PL34</title>
<path fill="none" stroke="black" d="M315.994,-1231.85C315.938,-1230.37 315.484,-1218.32 315.023,-1206.1"/>
<polygon fill="black" stroke="black" points="318.517,-1205.89 314.642,-1196.02 311.522,-1206.15 318.517,-1205.89"/>
</g>
<!-- PL3 -->
<g id="node62" class="node"><title>PL3</title>
<ellipse fill="none" stroke="black" cx="368" cy="-1178" rx="18" ry="18"/>
<text text-anchor="middle" x="368" y="-1174.3" font-family="Times,serif" font-size="14.00">PL3</text>
</g>
<!-- transition8&#45;&gt;PL3 -->
<g id="edge70" class="edge"><title>transition8&#45;&gt;PL3</title>
<path fill="none" stroke="black" d="M316.149,-1231.85C317.888,-1230.08 334.502,-1213.14 348.462,-1198.91"/>
<polygon fill="black" stroke="black" points="351.328,-1200.99 355.833,-1191.4 346.331,-1196.09 351.328,-1200.99"/>
</g>
<!-- PL12 -->
<g id="node30" class="node"><title>PL12</title>
<ellipse fill="none" stroke="black" cx="219" cy="-1069" rx="18" ry="18"/>
<text text-anchor="middle" x="219" y="-1065.3" font-family="Times,serif" font-size="14.00">PL12</text>
</g>
<!-- transition12 -->
<g id="node33" class="node"><title>transition12</title>
<polygon fill="none" stroke="black" points="220,-1015 184,-1015 184,-1014 220,-1014 220,-1015"/>
<text text-anchor="middle" x="168" y="-1018.8" font-family="Times,serif" font-size="14.00">xack&#45;</text>
</g>
<!-- PL12&#45;&gt;transition12 -->
<g id="edge33" class="edge"><title>PL12&#45;&gt;transition12</title>
<path fill="none" stroke="black" d="M213.714,-1051.52C210.24,-1040.69 205.924,-1027.23 203.624,-1020.06"/>
<polygon fill="none" stroke="black" points="205.213,-1019.29 202.019,-1015.06 201.88,-1020.36 205.213,-1019.29"/>
</g>
<!-- transition25&#45;&gt;PL12 -->
<g id="edge32" class="edge"><title>transition25&#45;&gt;PL12</title>
<path fill="none" stroke="black" d="M325.922,-1122.96C323.718,-1121.87 275.031,-1097.75 244.124,-1082.44"/>
<polygon fill="black" stroke="black" points="245.31,-1079.13 234.795,-1077.82 242.203,-1085.4 245.31,-1079.13"/>
</g>
<!-- PL13 -->
<g id="node32" class="node"><title>PL13</title>
<ellipse fill="none" stroke="black" cx="166" cy="-960" rx="18" ry="18"/>
<text text-anchor="middle" x="166" y="-956.3" font-family="Times,serif" font-size="14.00">PL13</text>
</g>
<!-- transition18 -->
<g id="node35" class="node"><title>transition18</title>
<polygon fill="none" stroke="black" points="166,-906 130,-906 130,-905 166,-905 166,-906"/>
<text text-anchor="middle" x="124" y="-909.8" font-family="Times,serif" font-size="14.00">x&#45;</text>
</g>
<!-- PL13&#45;&gt;transition18 -->
<g id="edge35" class="edge"><title>PL13&#45;&gt;transition18</title>
<path fill="none" stroke="black" d="M160.502,-942.81C156.816,-931.958 152.202,-918.372 149.739,-911.121"/>
<polygon fill="none" stroke="black" points="151.286,-910.233 148.021,-906.061 147.972,-911.359 151.286,-910.233"/>
</g>
<!-- transition12&#45;&gt;PL13 -->
<g id="edge34" class="edge"><title>transition12&#45;&gt;PL13</title>
<path fill="none" stroke="black" d="M201.897,-1013.85C200.774,-1012.19 190.689,-997.347 181.494,-983.81"/>
<polygon fill="black" stroke="black" points="184.197,-981.561 175.683,-975.255 178.406,-985.494 184.197,-981.561"/>
</g>
<!-- PL5 -->
<g id="node34" class="node"><title>PL5</title>
<ellipse fill="none" stroke="black" cx="148" cy="-851" rx="18" ry="18"/>
<text text-anchor="middle" x="148" y="-847.3" font-family="Times,serif" font-size="14.00">PL5</text>
</g>
<!-- transition13 -->
<g id="node37" class="node"><title>transition13</title>
<polygon fill="none" stroke="black" points="166,-797 130,-797 130,-796 166,-796 166,-797"/>
<text text-anchor="middle" x="119" y="-800.8" font-family="Times,serif" font-size="14.00">do+</text>
</g>
<!-- PL5&#45;&gt;transition13 -->
<g id="edge37" class="edge"><title>PL5&#45;&gt;transition13</title>
<path fill="none" stroke="black" d="M148,-832.939C148,-822.385 148,-809.534 148,-802.412"/>
<polygon fill="none" stroke="black" points="149.75,-802.059 148,-797.059 146.25,-802.059 149.75,-802.059"/>
</g>
<!-- transition18&#45;&gt;PL5 -->
<g id="edge36" class="edge"><title>transition18&#45;&gt;PL5</title>
<path fill="none" stroke="black" d="M148,-904.848C148,-903.368 148,-891.319 148,-879.1"/>
<polygon fill="black" stroke="black" points="151.5,-879.025 148,-869.025 144.5,-879.025 151.5,-879.025"/>
</g>
<!-- PL6 -->
<g id="node36" class="node"><title>PL6</title>
<ellipse fill="none" stroke="black" cx="148" cy="-742" rx="18" ry="18"/>
<text text-anchor="middle" x="148" y="-738.3" font-family="Times,serif" font-size="14.00">PL6</text>
</g>
<!-- transition14 -->
<g id="node39" class="node"><title>transition14</title>
<polygon fill="none" stroke="black" points="166,-688 130,-688 130,-687 166,-687 166,-688"/>
<text text-anchor="middle" x="120.5" y="-691.8" font-family="Times,serif" font-size="14.00">di+</text>
</g>
<!-- PL6&#45;&gt;transition14 -->
<g id="edge39" class="edge"><title>PL6&#45;&gt;transition14</title>
<path fill="none" stroke="black" d="M148,-723.939C148,-713.385 148,-700.534 148,-693.412"/>
<polygon fill="none" stroke="black" points="149.75,-693.059 148,-688.059 146.25,-693.059 149.75,-693.059"/>
</g>
<!-- transition13&#45;&gt;PL6 -->
<g id="edge38" class="edge"><title>transition13&#45;&gt;PL6</title>
<path fill="none" stroke="black" d="M148,-795.848C148,-794.368 148,-782.319 148,-770.1"/>
<polygon fill="black" stroke="black" points="151.5,-770.025 148,-760.025 144.5,-770.025 151.5,-770.025"/>
</g>
<!-- PL7 -->
<g id="node38" class="node"><title>PL7</title>
<ellipse fill="none" stroke="black" cx="118" cy="-633" rx="18" ry="18"/>
<text text-anchor="middle" x="118" y="-629.3" font-family="Times,serif" font-size="14.00">PL7</text>
</g>
<!-- transition17 -->
<g id="node41" class="node"><title>transition17</title>
<polygon fill="none" stroke="black" points="119,-579 83,-579 83,-578 119,-578 119,-579"/>
<text text-anchor="middle" x="70" y="-582.8" font-family="Times,serif" font-size="14.00">pdo&#45;</text>
</g>
<!-- PL7&#45;&gt;transition17 -->
<g id="edge41" class="edge"><title>PL7&#45;&gt;transition17</title>
<path fill="none" stroke="black" d="M112.714,-615.521C109.24,-604.688 104.924,-591.235 102.624,-584.062"/>
<polygon fill="none" stroke="black" points="104.213,-583.287 101.019,-579.061 100.88,-584.356 104.213,-583.287"/>
</g>
<!-- transition14&#45;&gt;PL7 -->
<g id="edge40" class="edge"><title>transition14&#45;&gt;PL7</title>
<path fill="none" stroke="black" d="M147.914,-686.848C147.004,-685.24 139.029,-671.152 131.543,-657.926"/>
<polygon fill="black" stroke="black" points="134.504,-656.051 126.532,-649.072 128.412,-659.499 134.504,-656.051"/>
</g>
<!-- PL16 -->
<g id="node55" class="node"><title>PL16</title>
<ellipse fill="none" stroke="black" cx="177" cy="-633" rx="18" ry="18"/>
<text text-anchor="middle" x="177" y="-629.3" font-family="Times,serif" font-size="14.00">PL16</text>
</g>
<!-- transition14&#45;&gt;PL16 -->
<g id="edge60" class="edge"><title>transition14&#45;&gt;PL16</title>
<path fill="none" stroke="black" d="M148.083,-686.848C148.963,-685.24 156.672,-671.152 163.908,-657.926"/>
<polygon fill="black" stroke="black" points="167.023,-659.525 168.753,-649.072 160.882,-656.165 167.023,-659.525"/>
</g>
<!-- PL8 -->
<g id="node40" class="node"><title>PL8</title>
<ellipse fill="none" stroke="black" cx="92" cy="-524" rx="18" ry="18"/>
<text text-anchor="middle" x="92" y="-520.3" font-family="Times,serif" font-size="14.00">PL8</text>
</g>
<!-- transition22 -->
<g id="node43" class="node"><title>transition22</title>
<polygon fill="none" stroke="black" points="143,-452.5 107,-452.5 107,-451.5 143,-451.5 143,-452.5"/>
<text text-anchor="middle" x="97.5" y="-456.3" font-family="Times,serif" font-size="14.00">do&#45;</text>
</g>
<!-- PL8&#45;&gt;transition22 -->
<g id="edge43" class="edge"><title>PL8&#45;&gt;transition22</title>
<path fill="none" stroke="black" d="M99.3238,-507.465C106.829,-491.545 118.048,-467.747 122.774,-457.721"/>
<polygon fill="none" stroke="black" points="124.405,-458.367 124.954,-453.098 121.239,-456.874 124.405,-458.367"/>
</g>
<!-- transition17&#45;&gt;PL8 -->
<g id="edge42" class="edge"><title>transition17&#45;&gt;PL8</title>
<path fill="none" stroke="black" d="M100.974,-577.848C100.723,-576.368 98.6769,-564.319 96.602,-552.1"/>
<polygon fill="black" stroke="black" points="100.016,-551.298 94.891,-542.025 93.1146,-552.47 100.016,-551.298"/>
</g>
<!-- PL14 -->
<g id="node52" class="node"><title>PL14</title>
<ellipse fill="none" stroke="black" cx="50" cy="-452" rx="18" ry="18"/>
<text text-anchor="middle" x="50" y="-448.3" font-family="Times,serif" font-size="14.00">PL14</text>
</g>
<!-- transition17&#45;&gt;PL14 -->
<g id="edge56" class="edge"><title>transition17&#45;&gt;PL14</title>
<path fill="none" stroke="black" d="M100.926,-577.954C99.4132,-577.003 75.0481,-561.482 65,-542 55.093,-522.792 51.5071,-498.446 50.3068,-480.074"/>
<polygon fill="black" stroke="black" points="53.8008,-479.861 49.8461,-470.032 46.8082,-480.182 53.8008,-479.861"/>
</g>
<!-- PL9 -->
<g id="node42" class="node"><title>PL9</title>
<ellipse fill="none" stroke="black" cx="125" cy="-380" rx="18" ry="18"/>
<text text-anchor="middle" x="125" y="-376.3" font-family="Times,serif" font-size="14.00">PL9</text>
</g>
<!-- transition15 -->
<g id="node45" class="node"><title>transition15</title>
<polygon fill="none" stroke="black" points="143,-308.5 107,-308.5 107,-307.5 143,-307.5 143,-308.5"/>
<text text-anchor="middle" x="99" y="-312.3" font-family="Times,serif" font-size="14.00">di&#45;</text>
</g>
<!-- PL9&#45;&gt;transition15 -->
<g id="edge45" class="edge"><title>PL9&#45;&gt;transition15</title>
<path fill="none" stroke="black" d="M125,-361.697C125,-346.165 125,-324.324 125,-314.348"/>
<polygon fill="none" stroke="black" points="126.75,-314.092 125,-309.092 123.25,-314.092 126.75,-314.092"/>
</g>
<!-- transition22&#45;&gt;PL9 -->
<g id="edge44" class="edge"><title>transition22&#45;&gt;PL9</title>
<path fill="none" stroke="black" d="M125,-450.949C125,-449.748 125,-427.429 125,-408.321"/>
<polygon fill="black" stroke="black" points="128.5,-408.191 125,-398.191 121.5,-408.191 128.5,-408.191"/>
</g>
<!-- PL11 -->
<g id="node44" class="node"><title>PL11</title>
<ellipse fill="none" stroke="black" cx="146" cy="-236" rx="18" ry="18"/>
<text text-anchor="middle" x="146" y="-232.3" font-family="Times,serif" font-size="14.00">PL11</text>
</g>
<!-- PL11&#45;&gt;transition25 -->
<g id="edge47" class="edge"><title>PL11&#45;&gt;transition25</title>
<path fill="none" stroke="black" d="M164,-238.017C224.089,-242.472 414,-265.528 414,-379 414,-525 414,-525 414,-525 414,-598.954 376,-613.046 376,-687 376,-1015 376,-1015 376,-1015 376,-1059.44 340.713,-1105.43 329.427,-1119.01"/>
<polygon fill="none" stroke="black" points="328.067,-1117.9 326.143,-1122.84 330.725,-1120.18 328.067,-1117.9"/>
</g>
<!-- transition15&#45;&gt;PL11 -->
<g id="edge46" class="edge"><title>transition15&#45;&gt;PL11</title>
<path fill="none" stroke="black" d="M125.015,-306.949C125.383,-305.722 132.355,-282.482 138.163,-263.122"/>
<polygon fill="black" stroke="black" points="141.532,-264.073 141.053,-253.489 134.827,-262.062 141.532,-264.073"/>
</g>
<!-- PL10 -->
<g id="node46" class="node"><title>PL10</title>
<ellipse fill="none" stroke="black" cx="92" cy="-236" rx="18" ry="18"/>
<text text-anchor="middle" x="92" y="-232.3" font-family="Times,serif" font-size="14.00">PL10</text>
</g>
<!-- transition15&#45;&gt;PL10 -->
<g id="edge48" class="edge"><title>transition15&#45;&gt;PL10</title>
<path fill="none" stroke="black" d="M124.976,-306.949C124.386,-305.697 112.982,-281.507 103.749,-261.921"/>
<polygon fill="black" stroke="black" points="106.877,-260.349 99.447,-252.797 100.545,-263.334 106.877,-260.349"/>
</g>
<!-- transition20 -->
<g id="node48" class="node"><title>transition20</title>
<polygon fill="none" stroke="black" points="89,-182 53,-182 53,-181 89,-181 89,-182"/>
<text text-anchor="middle" x="38.5" y="-185.8" font-family="Times,serif" font-size="14.00">pdo+</text>
</g>
<!-- PL10&#45;&gt;transition20 -->
<g id="edge49" class="edge"><title>PL10&#45;&gt;transition20</title>
<path fill="none" stroke="black" d="M85.6993,-219.098C81.3923,-208.228 75.9566,-194.51 73.0522,-187.179"/>
<polygon fill="none" stroke="black" points="74.4934,-186.066 71.0246,-182.062 71.2395,-187.355 74.4934,-186.066"/>
</g>
<!-- PL36 -->
<g id="node47" class="node"><title>PL36</title>
<ellipse fill="none" stroke="black" cx="27" cy="-127" rx="18" ry="18"/>
<text text-anchor="middle" x="27" y="-123.3" font-family="Times,serif" font-size="14.00">PL36</text>
</g>
<!-- PL36&#45;&gt;transition18 -->
<g id="edge51" class="edge"><title>PL36&#45;&gt;transition18</title>
<path fill="none" stroke="black" d="M21.3146,-144.083C14.5036,-164.82 4,-202.129 4,-235 4,-797 4,-797 4,-797 4,-868.06 117.613,-898.092 143.007,-903.917"/>
<polygon fill="none" stroke="black" points="142.638,-905.628 147.896,-904.979 143.381,-902.208 142.638,-905.628"/>
</g>
<!-- transition20&#45;&gt;PL36 -->
<g id="edge50" class="edge"><title>transition20&#45;&gt;PL36</title>
<path fill="none" stroke="black" d="M70.8738,-180.848C69.4496,-179.132 56.236,-163.216 44.6788,-149.295"/>
<polygon fill="black" stroke="black" points="47.2476,-146.91 38.1671,-141.451 41.8617,-151.381 47.2476,-146.91"/>
</g>
<!-- PL4 -->
<g id="node49" class="node"><title>PL4</title>
<ellipse fill="none" stroke="black" cx="98" cy="-127" rx="18" ry="18"/>
<text text-anchor="middle" x="98" y="-123.3" font-family="Times,serif" font-size="14.00">PL4</text>
</g>
<!-- transition20&#45;&gt;PL4 -->
<g id="edge52" class="edge"><title>transition20&#45;&gt;PL4</title>
<path fill="none" stroke="black" d="M71.0775,-180.848C71.8839,-179.265 78.8501,-165.591 85.4936,-152.55"/>
<polygon fill="black" stroke="black" points="88.7607,-153.847 90.1814,-143.348 82.5235,-150.669 88.7607,-153.847"/>
</g>
<!-- transition16 -->
<g id="node51" class="node"><title>transition16</title>
<polygon fill="none" stroke="black" points="132,-73 96,-73 96,-72 132,-72 132,-73"/>
<text text-anchor="middle" x="78.5" y="-76.8" font-family="Times,serif" font-size="14.00">pack+</text>
</g>
<!-- PL4&#45;&gt;transition16 -->
<g id="edge53" class="edge"><title>PL4&#45;&gt;transition16</title>
<path fill="none" stroke="black" d="M102.975,-109.521C106.245,-98.6879 110.307,-85.2347 112.472,-78.0622"/>
<polygon fill="none" stroke="black" points="114.212,-78.353 113.982,-73.0606 110.861,-77.3415 114.212,-78.353"/>
</g>
<!-- PL35 -->
<g id="node50" class="node"><title>PL35</title>
<ellipse fill="none" stroke="black" cx="153" cy="-18" rx="18" ry="18"/>
<text text-anchor="middle" x="153" y="-14.3" font-family="Times,serif" font-size="14.00">PL35</text>
</g>
<!-- PL35&#45;&gt;transition17 -->
<g id="edge55" class="edge"><title>PL35&#45;&gt;transition17</title>
<path fill="none" stroke="black" d="M162.045,-33.622C173.566,-53.6767 192,-91.2015 192,-126 192,-453 192,-453 192,-453 192,-493.447 197.758,-510.016 173,-542 155.431,-564.697 119.712,-574.146 106.272,-576.996"/>
<polygon fill="none" stroke="black" points="105.726,-575.319 101.144,-577.977 106.384,-578.756 105.726,-575.319"/>
</g>
<!-- transition16&#45;&gt;PL35 -->
<g id="edge54" class="edge"><title>transition16&#45;&gt;PL35</title>
<path fill="none" stroke="black" d="M114.112,-71.848C115.348,-70.1686 126.597,-54.8805 136.681,-41.1773"/>
<polygon fill="black" stroke="black" points="139.601,-43.1146 142.709,-32.9858 133.963,-38.9658 139.601,-43.1146"/>
</g>
<!-- transition19 -->
<g id="node54" class="node"><title>transition19</title>
<polygon fill="none" stroke="black" points="68,-380.5 32,-380.5 32,-379.5 68,-379.5 68,-380.5"/>
<text text-anchor="middle" x="16" y="-384.3" font-family="Times,serif" font-size="14.00">pack&#45;</text>
</g>
<!-- PL14&#45;&gt;transition19 -->
<g id="edge57" class="edge"><title>PL14&#45;&gt;transition19</title>
<path fill="none" stroke="black" d="M50,-433.697C50,-418.165 50,-396.324 50,-386.348"/>
<polygon fill="none" stroke="black" points="51.7501,-386.092 50,-381.092 48.2501,-386.092 51.7501,-386.092"/>
</g>
<!-- PL15 -->
<g id="node53" class="node"><title>PL15</title>
<ellipse fill="none" stroke="black" cx="50" cy="-308" rx="18" ry="18"/>
<text text-anchor="middle" x="50" y="-304.3" font-family="Times,serif" font-size="14.00">PL15</text>
</g>
<!-- PL15&#45;&gt;transition20 -->
<g id="edge59" class="edge"><title>PL15&#45;&gt;transition20</title>
<path fill="none" stroke="black" d="M52.8322,-290.142C57.6371,-261.541 67.1526,-204.901 70.105,-187.327"/>
<polygon fill="none" stroke="black" points="71.8883,-187.275 70.991,-182.054 68.4367,-186.695 71.8883,-187.275"/>
</g>
<!-- transition19&#45;&gt;PL15 -->
<g id="edge58" class="edge"><title>transition19&#45;&gt;PL15</title>
<path fill="none" stroke="black" d="M50,-378.949C50,-377.748 50,-355.429 50,-336.321"/>
<polygon fill="black" stroke="black" points="53.5001,-336.191 50,-326.191 46.5001,-336.191 53.5001,-336.191"/>
</g>
<!-- transition21 -->
<g id="node57" class="node"><title>transition21</title>
<polygon fill="none" stroke="black" points="234,-579 198,-579 198,-578 234,-578 234,-579"/>
<text text-anchor="middle" x="179.5" y="-582.8" font-family="Times,serif" font-size="14.00">mrdc+</text>
</g>
<!-- PL16&#45;&gt;transition21 -->
<g id="edge61" class="edge"><title>PL16&#45;&gt;transition21</title>
<path fill="none" stroke="black" d="M187.247,-618.075C195.817,-606.428 207.492,-590.562 212.951,-583.143"/>
<polygon fill="none" stroke="black" points="214.396,-584.132 215.95,-579.068 211.577,-582.058 214.396,-584.132"/>
</g>
<!-- PL18 -->
<g id="node56" class="node"><title>PL18</title>
<ellipse fill="none" stroke="black" cx="292" cy="-524" rx="18" ry="18"/>
<text text-anchor="middle" x="292" y="-520.3" font-family="Times,serif" font-size="14.00">PL18</text>
</g>
<!-- PL18&#45;&gt;transition23 -->
<g id="edge63" class="edge"><title>PL18&#45;&gt;transition23</title>
<path fill="none" stroke="black" d="M306.96,-534.756C339.537,-557.316 414,-616.583 414,-687 414,-1179 414,-1179 414,-1179 414,-1251.01 412,-1268.99 412,-1341 412,-1560 412,-1560 412,-1560 412,-1599.74 403.875,-1647.21 400.996,-1662.78"/>
<polygon fill="none" stroke="black" points="399.226,-1662.72 400.009,-1667.96 402.664,-1663.37 399.226,-1662.72"/>
</g>
<!-- transition21&#45;&gt;PL18 -->
<g id="edge62" class="edge"><title>transition21&#45;&gt;PL18</title>
<path fill="none" stroke="black" d="M216.055,-577.962C217.501,-576.953 247.108,-556.306 268.92,-541.095"/>
<polygon fill="black" stroke="black" points="271.197,-543.775 277.397,-535.184 267.193,-538.033 271.197,-543.775"/>
</g>
<!-- PL20 -->
<g id="node58" class="node"><title>PL20</title>
<ellipse fill="none" stroke="black" cx="238" cy="-524" rx="18" ry="18"/>
<text text-anchor="middle" x="238" y="-520.3" font-family="Times,serif" font-size="14.00">PL20</text>
</g>
<!-- transition21&#45;&gt;PL20 -->
<g id="edge64" class="edge"><title>transition21&#45;&gt;PL20</title>
<path fill="none" stroke="black" d="M216.063,-577.848C216.706,-576.3 222.15,-563.185 227.453,-550.409"/>
<polygon fill="black" stroke="black" points="230.798,-551.48 231.399,-540.902 224.333,-548.796 230.798,-551.48"/>
</g>
<!-- PL17 -->
<g id="node61" class="node"><title>PL17</title>
<ellipse fill="none" stroke="black" cx="146" cy="-524" rx="18" ry="18"/>
<text text-anchor="middle" x="146" y="-520.3" font-family="Times,serif" font-size="14.00">PL17</text>
</g>
<!-- transition21&#45;&gt;PL17 -->
<g id="edge68" class="edge"><title>transition21&#45;&gt;PL17</title>
<path fill="none" stroke="black" d="M215.949,-577.962C214.638,-576.969 188.177,-556.934 168.187,-541.799"/>
<polygon fill="black" stroke="black" points="170.193,-538.928 160.108,-535.681 165.967,-544.508 170.193,-538.928"/>
</g>
<!-- transition24 -->
<g id="node60" class="node"><title>transition24</title>
<polygon fill="none" stroke="black" points="283,-452.5 247,-452.5 247,-451.5 283,-451.5 283,-452.5"/>
<text text-anchor="middle" x="229.5" y="-456.3" font-family="Times,serif" font-size="14.00">xack+</text>
</g>
<!-- PL20&#45;&gt;transition24 -->
<g id="edge65" class="edge"><title>PL20&#45;&gt;transition24</title>
<path fill="none" stroke="black" d="M244.262,-506.765C250.359,-490.958 259.252,-467.901 263.104,-457.914"/>
<polygon fill="none" stroke="black" points="264.796,-458.39 264.963,-453.096 261.531,-457.131 264.796,-458.39"/>
</g>
<!-- PL21 -->
<g id="node59" class="node"><title>PL21</title>
<ellipse fill="none" stroke="black" cx="265" cy="-380" rx="18" ry="18"/>
<text text-anchor="middle" x="265" y="-376.3" font-family="Times,serif" font-size="14.00">PL21</text>
</g>
<!-- PL21&#45;&gt;transition25 -->
<g id="edge67" class="edge"><title>PL21&#45;&gt;transition25</title>
<path fill="none" stroke="black" d="M277.054,-393.946C297.789,-417.624 338,-470.333 338,-523 338,-1015 338,-1015 338,-1015 338,-1054.74 329.875,-1102.21 326.996,-1117.78"/>
<polygon fill="none" stroke="black" points="325.226,-1117.72 326.009,-1122.96 328.664,-1118.37 325.226,-1117.72"/>
</g>
<!-- transition24&#45;&gt;PL21 -->
<g id="edge66" class="edge"><title>transition24&#45;&gt;PL21</title>
<path fill="none" stroke="black" d="M265,-450.949C265,-449.748 265,-427.429 265,-408.321"/>
<polygon fill="black" stroke="black" points="268.5,-408.191 265,-398.191 261.5,-408.191 268.5,-408.191"/>
</g>
<!-- PL17&#45;&gt;transition22 -->
<g id="edge69" class="edge"><title>PL17&#45;&gt;transition22</title>
<path fill="none" stroke="black" d="M141.023,-506.411C136.323,-490.745 129.559,-468.198 126.548,-458.159"/>
<polygon fill="none" stroke="black" points="128.141,-457.381 125.028,-453.094 124.789,-458.386 128.141,-457.381"/>
</g>
<!-- PL3&#45;&gt;transition27 -->
<g id="edge71" class="edge"><title>PL3&#45;&gt;transition27</title>
<path fill="none" stroke="black" d="M379.749,-1191.74C402.422,-1217.71 450,-1279.53 450,-1341 450,-1796 450,-1796 450,-1796 450,-1856.87 377.501,-1906.35 358.51,-1918.26"/>
<polygon fill="none" stroke="black" points="357.433,-1916.87 354.07,-1920.96 359.251,-1919.86 357.433,-1916.87"/>
</g>
<!-- transition10 -->
<g id="node65" class="node"><title>transition10</title>
<polygon fill="none" stroke="black" points="349,-1795.5 313,-1795.5 313,-1794.5 349,-1794.5 349,-1795.5"/>
<text text-anchor="middle" x="296" y="-1799.3" font-family="Times,serif" font-size="14.00">bprn+</text>
</g>
<!-- PL32&#45;&gt;transition10 -->
<g id="edge73" class="edge"><title>PL32&#45;&gt;transition10</title>
<path fill="none" stroke="black" d="M348.666,-1849.76C343.472,-1833.96 335.896,-1810.9 332.615,-1800.91"/>
<polygon fill="none" stroke="black" points="334.255,-1800.3 331.031,-1796.1 330.93,-1801.39 334.255,-1800.3"/>
</g>
<!-- PL33 -->
<g id="node64" class="node"><title>PL33</title>
<ellipse fill="none" stroke="black" cx="327" cy="-1723" rx="18" ry="18"/>
<text text-anchor="middle" x="327" y="-1719.3" font-family="Times,serif" font-size="14.00">PL33</text>
</g>
<!-- PL33&#45;&gt;transition11 -->
<g id="edge75" class="edge"><title>PL33&#45;&gt;transition11</title>
<path fill="none" stroke="black" d="M325.844,-1704.97C323.4,-1668.98 317.817,-1586.75 316.355,-1565.23"/>
<polygon fill="none" stroke="black" points="318.09,-1564.95 316.005,-1560.08 314.598,-1565.18 318.09,-1564.95"/>
</g>
<!-- transition10&#45;&gt;PL33 -->
<g id="edge74" class="edge"><title>transition10&#45;&gt;PL33</title>
<path fill="none" stroke="black" d="M330.997,-1793.95C330.928,-1792.75 329.653,-1770.43 328.561,-1751.32"/>
<polygon fill="black" stroke="black" points="332.047,-1750.98 327.982,-1741.19 325.059,-1751.37 332.047,-1750.98"/>
</g>
<!-- PL30&#45;&gt;transition9 -->
<g id="edge77" class="edge"><title>PL30&#45;&gt;transition9</title>
<path fill="none" stroke="black" d="M291.538,-1850.81C282.596,-1834.76 269.038,-1810.43 263.494,-1800.48"/>
<polygon fill="none" stroke="black" points="265.017,-1799.61 261.055,-1796.1 261.96,-1801.32 265.017,-1799.61"/>
</g>
<!-- transition4 -->
<g id="node68" class="node"><title>transition4</title>
<polygon fill="none" stroke="black" points="219,-1560 183,-1560 183,-1559 219,-1559 219,-1560"/>
<text text-anchor="middle" x="170" y="-1563.8" font-family="Times,serif" font-size="14.00">aro+</text>
</g>
<!-- PL26&#45;&gt;transition4 -->
<g id="edge79" class="edge"><title>PL26&#45;&gt;transition4</title>
<path fill="none" stroke="black" d="M214.196,-1596.81C210.306,-1585.96 205.435,-1572.37 202.836,-1565.12"/>
<polygon fill="none" stroke="black" points="204.357,-1564.18 201.022,-1560.06 201.062,-1565.36 204.357,-1564.18"/>
</g>
<!-- transition4&#45;&gt;PL1 -->
<g id="edge80" class="edge"><title>transition4&#45;&gt;PL1</title>
<path fill="none" stroke="black" d="M200.972,-1560.06C199.791,-1562.74 162,-1649.1 162,-1722 162,-2195 162,-2195 162,-2195 162,-2223.36 170.432,-2254.87 177.502,-2276.3"/>
<polygon fill="black" stroke="black" points="174.26,-2277.64 180.82,-2285.96 180.88,-2275.36 174.26,-2277.64"/>
</g>
</g>
</svg>
