<?xml version="1.0" encoding="UTF-8" standalone="no"?>
<!DOCTYPE svg PUBLIC "-//W3C//DTD SVG 1.1//EN"
 "http://www.w3.org/Graphics/SVG/1.1/DTD/svg11.dtd">
<!-- Generated by graphviz version 2.38.0 (20140413.2041)
 -->
<!-- Title: %3 Pages: 1 -->
<svg width="455pt" height="2582pt"
 viewBox="0.00 0.00 455.00 2582.00" xmlns="http://www.w3.org/2000/svg" xmlns:xlink="http://www.w3.org/1999/xlink">
<g id="graph0" class="graph" transform="scale(1 1) rotate(0) translate(4 2578)">
<title>%3</title>
<polygon fill="white" stroke="none" points="-4,4 -4,-2578 451,-2578 451,4 -4,4"/>
<!-- PL1 -->
<g id="node1" class="node"><title>PL1</title>
<ellipse fill="none" stroke="black" cx="415" cy="-2556" rx="18" ry="18"/>
<text text-anchor="middle" x="415" y="-2552.3" font-family="Times,serif" font-size="14.00">PL1</text>
</g>
<!-- transition1 -->
<g id="node3" class="node"><title>transition1</title>
<polygon fill="none" stroke="black" points="402,-2502 366,-2502 366,-2501 402,-2501 402,-2502"/>
<text text-anchor="middle" x="354.5" y="-2505.8" font-family="Times,serif" font-size="14.00">ari+</text>
</g>
<!-- PL1&#45;&gt;transition1 -->
<g id="edge1" class="edge"><title>PL1&#45;&gt;transition1</title>
<path fill="none" stroke="black" d="M406.2,-2539.95C399.541,-2528.57 390.839,-2513.69 386.578,-2506.41"/>
<polygon fill="none" stroke="black" points="388.073,-2505.5 384.038,-2502.06 385.052,-2507.26 388.073,-2505.5"/>
</g>
<!-- PL37 -->
<g id="node2" class="node"><title>PL37</title>
<ellipse fill="none" stroke="black" cx="379" cy="-2447" rx="18" ry="18"/>
<text text-anchor="middle" x="379" y="-2443.3" font-family="Times,serif" font-size="14.00">PL37</text>
</g>
<!-- transition6 -->
<g id="node5" class="node"><title>transition6</title>
<polygon fill="none" stroke="black" points="389,-2393 353,-2393 353,-2392 389,-2392 389,-2393"/>
<text text-anchor="middle" x="341" y="-2396.8" font-family="Times,serif" font-size="14.00">pro&#45;</text>
</g>
<!-- PL37&#45;&gt;transition6 -->
<g id="edge3" class="edge"><title>PL37&#45;&gt;transition6</title>
<path fill="none" stroke="black" d="M376.425,-2428.94C374.832,-2418.39 372.892,-2405.53 371.817,-2398.41"/>
<polygon fill="none" stroke="black" points="373.486,-2397.74 371.009,-2393.06 370.025,-2398.26 373.486,-2397.74"/>
</g>
<!-- transition1&#45;&gt;PL37 -->
<g id="edge2" class="edge"><title>transition1&#45;&gt;PL37</title>
<path fill="none" stroke="black" d="M383.986,-2500.85C383.846,-2499.37 382.709,-2487.32 381.557,-2475.1"/>
<polygon fill="black" stroke="black" points="385.03,-2474.65 380.606,-2465.02 378.061,-2475.31 385.03,-2474.65"/>
</g>
<!-- PL22 -->
<g id="node4" class="node"><title>PL22</title>
<ellipse fill="none" stroke="black" cx="315" cy="-2338" rx="18" ry="18"/>
<text text-anchor="middle" x="315" y="-2334.3" font-family="Times,serif" font-size="14.00">PL22</text>
</g>
<!-- transition2 -->
<g id="node7" class="node"><title>transition2</title>
<polygon fill="none" stroke="black" points="258,-2266.5 222,-2266.5 222,-2265.5 258,-2265.5 258,-2266.5"/>
<text text-anchor="middle" x="210.5" y="-2270.3" font-family="Times,serif" font-size="14.00">aro&#45;</text>
</g>
<!-- PL22&#45;&gt;transition2 -->
<g id="edge5" class="edge"><title>PL22&#45;&gt;transition2</title>
<path fill="none" stroke="black" d="M302.277,-2325.13C284.949,-2308.95 254.845,-2280.86 244.021,-2270.75"/>
<polygon fill="none" stroke="black" points="244.967,-2269.24 240.118,-2267.11 242.579,-2271.8 244.967,-2269.24"/>
</g>
<!-- transition6&#45;&gt;PL22 -->
<g id="edge4" class="edge"><title>transition6&#45;&gt;PL22</title>
<path fill="none" stroke="black" d="M370.839,-2391.85C368.938,-2390.05 350.531,-2372.63 335.363,-2358.27"/>
<polygon fill="black" stroke="black" points="337.499,-2355.47 327.83,-2351.14 332.687,-2360.56 337.499,-2355.47"/>
</g>
<!-- PL28 -->
<g id="node29" class="node"><title>PL28</title>
<ellipse fill="none" stroke="black" cx="340" cy="-2266" rx="18" ry="18"/>
<text text-anchor="middle" x="340" y="-2262.3" font-family="Times,serif" font-size="14.00">PL28</text>
</g>
<!-- transition6&#45;&gt;PL28 -->
<g id="edge31" class="edge"><title>transition6&#45;&gt;PL28</title>
<path fill="none" stroke="black" d="M370.978,-2391.91C370.322,-2389.27 355.463,-2329.35 346.567,-2293.48"/>
<polygon fill="black" stroke="black" points="349.93,-2292.5 344.126,-2283.64 343.136,-2294.18 349.93,-2292.5"/>
</g>
<!-- PL23 -->
<g id="node6" class="node"><title>PL23</title>
<ellipse fill="none" stroke="black" cx="219" cy="-2194" rx="18" ry="18"/>
<text text-anchor="middle" x="219" y="-2190.3" font-family="Times,serif" font-size="14.00">PL23</text>
</g>
<!-- transition3 -->
<g id="node9" class="node"><title>transition3</title>
<polygon fill="none" stroke="black" points="226,-2122.5 190,-2122.5 190,-2121.5 226,-2121.5 226,-2122.5"/>
<text text-anchor="middle" x="180" y="-2126.3" font-family="Times,serif" font-size="14.00">ari&#45;</text>
</g>
<!-- PL23&#45;&gt;transition3 -->
<g id="edge7" class="edge"><title>PL23&#45;&gt;transition3</title>
<path fill="none" stroke="black" d="M216.337,-2176.05C213.873,-2160.38 210.363,-2138.04 208.802,-2128.1"/>
<polygon fill="none" stroke="black" points="210.52,-2127.76 208.015,-2123.09 207.062,-2128.3 210.52,-2127.76"/>
</g>
<!-- transition2&#45;&gt;PL23 -->
<g id="edge6" class="edge"><title>transition2&#45;&gt;PL23</title>
<path fill="none" stroke="black" d="M239.985,-2264.95C239.617,-2263.72 232.645,-2240.48 226.837,-2221.12"/>
<polygon fill="black" stroke="black" points="230.173,-2220.06 223.947,-2211.49 223.468,-2222.07 230.173,-2220.06"/>
</g>
<!-- PL24 -->
<g id="node8" class="node"><title>PL24</title>
<ellipse fill="none" stroke="black" cx="202" cy="-2050" rx="18" ry="18"/>
<text text-anchor="middle" x="202" y="-2046.3" font-family="Times,serif" font-size="14.00">PL24</text>
</g>
<!-- transition10 -->
<g id="node11" class="node"><title>transition10</title>
<polygon fill="none" stroke="black" points="220,-1996 184,-1996 184,-1995 220,-1995 220,-1996"/>
<text text-anchor="middle" x="170.5" y="-1999.8" font-family="Times,serif" font-size="14.00">pro+</text>
</g>
<!-- PL24&#45;&gt;transition10 -->
<g id="edge9" class="edge"><title>PL24&#45;&gt;transition10</title>
<path fill="none" stroke="black" d="M202,-2031.94C202,-2021.39 202,-2008.53 202,-2001.41"/>
<polygon fill="none" stroke="black" points="203.75,-2001.06 202,-1996.06 200.25,-2001.06 203.75,-2001.06"/>
</g>
<!-- transition3&#45;&gt;PL24 -->
<g id="edge8" class="edge"><title>transition3&#45;&gt;PL24</title>
<path fill="none" stroke="black" d="M207.996,-2120.95C207.893,-2119.75 205.98,-2097.43 204.342,-2078.32"/>
<polygon fill="black" stroke="black" points="207.815,-2077.86 203.474,-2068.19 200.84,-2078.45 207.815,-2077.86"/>
</g>
<!-- PL25 -->
<g id="node10" class="node"><title>PL25</title>
<ellipse fill="none" stroke="black" cx="202" cy="-1941" rx="18" ry="18"/>
<text text-anchor="middle" x="202" y="-1937.3" font-family="Times,serif" font-size="14.00">PL25</text>
</g>
<!-- transition4 -->
<g id="node13" class="node"><title>transition4</title>
<polygon fill="none" stroke="black" points="327,-1887 291,-1887 291,-1886 327,-1886 327,-1887"/>
<text text-anchor="middle" x="280.5" y="-1890.8" font-family="Times,serif" font-size="14.00">pri&#45;</text>
</g>
<!-- PL25&#45;&gt;transition4 -->
<g id="edge11" class="edge"><title>PL25&#45;&gt;transition4</title>
<path fill="none" stroke="black" d="M217.788,-1932.18C242.509,-1919.93 289.087,-1896.86 304.161,-1889.4"/>
<polygon fill="none" stroke="black" points="305.252,-1890.81 308.955,-1887.02 303.698,-1887.67 305.252,-1890.81"/>
</g>
<!-- transition10&#45;&gt;PL25 -->
<g id="edge10" class="edge"><title>transition10&#45;&gt;PL25</title>
<path fill="none" stroke="black" d="M202,-1994.85C202,-1993.37 202,-1981.32 202,-1969.1"/>
<polygon fill="black" stroke="black" points="205.5,-1969.02 202,-1959.02 198.5,-1969.02 205.5,-1969.02"/>
</g>
<!-- PL26 -->
<g id="node12" class="node"><title>PL26</title>
<ellipse fill="none" stroke="black" cx="363" cy="-1832" rx="18" ry="18"/>
<text text-anchor="middle" x="363" y="-1828.3" font-family="Times,serif" font-size="14.00">PL26</text>
</g>
<!-- transition5 -->
<g id="node14" class="node"><title>transition5</title>
<polygon fill="none" stroke="black" points="381,-1778 345,-1778 345,-1777 381,-1777 381,-1778"/>
<text text-anchor="middle" x="332" y="-1781.8" font-family="Times,serif" font-size="14.00">aro+</text>
</g>
<!-- PL26&#45;&gt;transition5 -->
<g id="edge13" class="edge"><title>PL26&#45;&gt;transition5</title>
<path fill="none" stroke="black" d="M363,-1813.94C363,-1803.39 363,-1790.53 363,-1783.41"/>
<polygon fill="none" stroke="black" points="364.75,-1783.06 363,-1778.06 361.25,-1783.06 364.75,-1783.06"/>
</g>
<!-- transition4&#45;&gt;PL26 -->
<g id="edge12" class="edge"><title>transition4&#45;&gt;PL26</title>
<path fill="none" stroke="black" d="M309.155,-1885.85C310.988,-1884.05 328.738,-1866.63 343.365,-1852.27"/>
<polygon fill="black" stroke="black" points="345.943,-1854.65 350.628,-1845.14 341.04,-1849.65 345.943,-1854.65"/>
</g>
<!-- PL27 -->
<g id="node15" class="node"><title>PL27</title>
<ellipse fill="none" stroke="black" cx="309" cy="-1832" rx="18" ry="18"/>
<text text-anchor="middle" x="309" y="-1828.3" font-family="Times,serif" font-size="14.00">PL27</text>
</g>
<!-- transition4&#45;&gt;PL27 -->
<g id="edge15" class="edge"><title>transition4&#45;&gt;PL27</title>
<path fill="none" stroke="black" d="M309,-1885.85C309,-1884.37 309,-1872.32 309,-1860.1"/>
<polygon fill="black" stroke="black" points="312.5,-1860.02 309,-1850.02 305.5,-1860.02 312.5,-1860.02"/>
</g>
<!-- transition5&#45;&gt;PL1 -->
<g id="edge14" class="edge"><title>transition5&#45;&gt;PL1</title>
<path fill="none" stroke="black" d="M363.061,-1778.03C365.604,-1779.48 447,-1826.14 447,-1886 447,-2448 447,-2448 447,-2448 447,-2477.12 435.983,-2508.91 426.877,-2530.21"/>
<polygon fill="black" stroke="black" points="423.617,-2528.92 422.746,-2539.48 430.012,-2531.77 423.617,-2528.92"/>
</g>
<!-- transition12 -->
<g id="node17" class="node"><title>transition12</title>
<polygon fill="none" stroke="black" points="327,-1778 291,-1778 291,-1777 327,-1777 327,-1778"/>
<text text-anchor="middle" x="276" y="-1781.8" font-family="Times,serif" font-size="14.00">breq&#45;</text>
</g>
<!-- PL27&#45;&gt;transition12 -->
<g id="edge16" class="edge"><title>PL27&#45;&gt;transition12</title>
<path fill="none" stroke="black" d="M309,-1813.94C309,-1803.39 309,-1790.53 309,-1783.41"/>
<polygon fill="none" stroke="black" points="310.75,-1783.06 309,-1778.06 307.25,-1783.06 310.75,-1783.06"/>
</g>
<!-- PL38 -->
<g id="node16" class="node"><title>PL38</title>
<ellipse fill="none" stroke="black" cx="294" cy="-1723" rx="18" ry="18"/>
<text text-anchor="middle" x="294" y="-1719.3" font-family="Times,serif" font-size="14.00">PL38</text>
</g>
<!-- transition7 -->
<g id="node19" class="node"><title>transition7</title>
<polygon fill="none" stroke="black" points="312,-1669 276,-1669 276,-1668 312,-1668 312,-1669"/>
<text text-anchor="middle" x="260.5" y="-1672.8" font-family="Times,serif" font-size="14.00">bprn&#45;</text>
</g>
<!-- PL38&#45;&gt;transition7 -->
<g id="edge18" class="edge"><title>PL38&#45;&gt;transition7</title>
<path fill="none" stroke="black" d="M294,-1704.94C294,-1694.39 294,-1681.53 294,-1674.41"/>
<polygon fill="none" stroke="black" points="295.75,-1674.06 294,-1669.06 292.25,-1674.06 295.75,-1674.06"/>
</g>
<!-- transition12&#45;&gt;PL38 -->
<g id="edge17" class="edge"><title>transition12&#45;&gt;PL38</title>
<path fill="none" stroke="black" d="M308.957,-1776.85C308.528,-1775.33 304.97,-1762.76 301.432,-1750.26"/>
<polygon fill="black" stroke="black" points="304.75,-1749.13 298.659,-1740.46 298.014,-1751.04 304.75,-1749.13"/>
</g>
<!-- PL2 -->
<g id="node28" class="node"><title>PL2</title>
<ellipse fill="none" stroke="black" cx="424" cy="-1723" rx="18" ry="18"/>
<text text-anchor="middle" x="424" y="-1719.3" font-family="Times,serif" font-size="14.00">PL2</text>
</g>
<!-- transition12&#45;&gt;PL2 -->
<g id="edge29" class="edge"><title>transition12&#45;&gt;PL2</title>
<path fill="none" stroke="black" d="M309.135,-1776.95C311.913,-1775.84 356.905,-1757.9 392,-1741 394.466,-1739.81 397.017,-1738.54 399.554,-1737.24"/>
<polygon fill="black" stroke="black" points="401.269,-1740.29 408.501,-1732.55 398.019,-1734.09 401.269,-1740.29"/>
</g>
<!-- PL39 -->
<g id="node18" class="node"><title>PL39</title>
<ellipse fill="none" stroke="black" cx="294" cy="-1614" rx="18" ry="18"/>
<text text-anchor="middle" x="294" y="-1610.3" font-family="Times,serif" font-size="14.00">PL39</text>
</g>
<!-- transition8 -->
<g id="node21" class="node"><title>transition8</title>
<polygon fill="none" stroke="black" points="220,-1560 184,-1560 184,-1559 220,-1559 220,-1560"/>
<text text-anchor="middle" x="176.5" y="-1563.8" font-family="Times,serif" font-size="14.00">x+</text>
</g>
<!-- PL39&#45;&gt;transition8 -->
<g id="edge20" class="edge"><title>PL39&#45;&gt;transition8</title>
<path fill="none" stroke="black" d="M278.808,-1604.25C257.449,-1591.94 219.691,-1570.19 206.612,-1562.66"/>
<polygon fill="none" stroke="black" points="207.352,-1561.06 202.146,-1560.08 205.605,-1564.1 207.352,-1561.06"/>
</g>
<!-- transition7&#45;&gt;PL39 -->
<g id="edge19" class="edge"><title>transition7&#45;&gt;PL39</title>
<path fill="none" stroke="black" d="M294,-1667.85C294,-1666.37 294,-1654.32 294,-1642.1"/>
<polygon fill="black" stroke="black" points="297.5,-1642.02 294,-1632.02 290.5,-1642.02 297.5,-1642.02"/>
</g>
<!-- PL40 -->
<g id="node20" class="node"><title>PL40</title>
<ellipse fill="none" stroke="black" cx="202" cy="-1505" rx="18" ry="18"/>
<text text-anchor="middle" x="202" y="-1501.3" font-family="Times,serif" font-size="14.00">PL40</text>
</g>
<!-- transition9 -->
<g id="node23" class="node"><title>transition9</title>
<polygon fill="none" stroke="black" points="220,-1451 184,-1451 184,-1450 220,-1450 220,-1451"/>
<text text-anchor="middle" x="168" y="-1454.8" font-family="Times,serif" font-size="14.00">busy&#45;</text>
</g>
<!-- PL40&#45;&gt;transition9 -->
<g id="edge22" class="edge"><title>PL40&#45;&gt;transition9</title>
<path fill="none" stroke="black" d="M202,-1486.94C202,-1476.39 202,-1463.53 202,-1456.41"/>
<polygon fill="none" stroke="black" points="203.75,-1456.06 202,-1451.06 200.25,-1456.06 203.75,-1456.06"/>
</g>
<!-- transition8&#45;&gt;PL40 -->
<g id="edge21" class="edge"><title>transition8&#45;&gt;PL40</title>
<path fill="none" stroke="black" d="M202,-1558.85C202,-1557.37 202,-1545.32 202,-1533.1"/>
<polygon fill="black" stroke="black" points="205.5,-1533.02 202,-1523.02 198.5,-1533.02 205.5,-1533.02"/>
</g>
<!-- PL3 -->
<g id="node22" class="node"><title>PL3</title>
<ellipse fill="none" stroke="black" cx="202" cy="-1396" rx="18" ry="18"/>
<text text-anchor="middle" x="202" y="-1392.3" font-family="Times,serif" font-size="14.00">PL3</text>
</g>
<!-- transition28 -->
<g id="node25" class="node"><title>transition28</title>
<polygon fill="none" stroke="black" points="266,-1342 230,-1342 230,-1341 266,-1341 266,-1342"/>
<text text-anchor="middle" x="213.5" y="-1345.8" font-family="Times,serif" font-size="14.00">breq+</text>
</g>
<!-- PL3&#45;&gt;transition28 -->
<g id="edge24" class="edge"><title>PL3&#45;&gt;transition28</title>
<path fill="none" stroke="black" d="M213.371,-1381.9C223.474,-1370.26 237.64,-1353.94 244.285,-1346.28"/>
<polygon fill="none" stroke="black" points="245.984,-1346.99 247.939,-1342.07 243.34,-1344.7 245.984,-1346.99"/>
</g>
<!-- transition9&#45;&gt;PL3 -->
<g id="edge23" class="edge"><title>transition9&#45;&gt;PL3</title>
<path fill="none" stroke="black" d="M202,-1449.85C202,-1448.37 202,-1436.32 202,-1424.1"/>
<polygon fill="black" stroke="black" points="205.5,-1424.02 202,-1414.02 198.5,-1424.02 205.5,-1424.02"/>
</g>
<!-- PL34 -->
<g id="node36" class="node"><title>PL34</title>
<ellipse fill="none" stroke="black" cx="148" cy="-1396" rx="18" ry="18"/>
<text text-anchor="middle" x="148" y="-1392.3" font-family="Times,serif" font-size="14.00">PL34</text>
</g>
<!-- transition9&#45;&gt;PL34 -->
<g id="edge41" class="edge"><title>transition9&#45;&gt;PL34</title>
<path fill="none" stroke="black" d="M201.845,-1449.85C200.012,-1448.05 182.262,-1430.63 167.635,-1416.27"/>
<polygon fill="black" stroke="black" points="169.96,-1413.65 160.372,-1409.14 165.057,-1418.65 169.96,-1413.65"/>
</g>
<!-- PL31 -->
<g id="node24" class="node"><title>PL31</title>
<ellipse fill="none" stroke="black" cx="290" cy="-1106" rx="18" ry="18"/>
<text text-anchor="middle" x="290" y="-1102.3" font-family="Times,serif" font-size="14.00">PL31</text>
</g>
<!-- transition24 -->
<g id="node27" class="node"><title>transition24</title>
<polygon fill="none" stroke="black" points="350,-618 314,-618 314,-617 350,-617 350,-618"/>
<text text-anchor="middle" x="296.5" y="-621.8" font-family="Times,serif" font-size="14.00">busy+</text>
</g>
<!-- PL31&#45;&gt;transition24 -->
<g id="edge26" class="edge"><title>PL31&#45;&gt;transition24</title>
<path fill="none" stroke="black" d="M298.702,-1089.77C311.004,-1066.77 332,-1021.44 332,-980 332,-980 332,-980 332,-743 332,-696.43 332,-640.101 332,-623.098"/>
<polygon fill="none" stroke="black" points="333.75,-623.051 332,-618.051 330.25,-623.051 333.75,-623.051"/>
</g>
<!-- transition28&#45;&gt;PL31 -->
<g id="edge25" class="edge"><title>transition28&#45;&gt;PL31</title>
<path fill="none" stroke="black" d="M248.008,-1340.96C248.322,-1339.11 258.464,-1279.65 267,-1232 273.06,-1198.17 280.26,-1159.24 284.969,-1133.93"/>
<polygon fill="black" stroke="black" points="288.433,-1134.45 286.825,-1123.97 281.552,-1133.16 288.433,-1134.45"/>
</g>
<!-- PL32 -->
<g id="node32" class="node"><title>PL32</title>
<ellipse fill="none" stroke="black" cx="294" cy="-1287" rx="18" ry="18"/>
<text text-anchor="middle" x="294" y="-1283.3" font-family="Times,serif" font-size="14.00">PL32</text>
</g>
<!-- transition28&#45;&gt;PL32 -->
<g id="edge35" class="edge"><title>transition28&#45;&gt;PL32</title>
<path fill="none" stroke="black" d="M248.132,-1340.85C249.63,-1339.12 263.599,-1323.03 275.732,-1309.05"/>
<polygon fill="black" stroke="black" points="278.644,-1311.03 282.555,-1301.19 273.357,-1306.44 278.644,-1311.03"/>
</g>
<!-- PL30 -->
<g id="node35" class="node"><title>PL30</title>
<ellipse fill="none" stroke="black" cx="175" cy="-1287" rx="18" ry="18"/>
<text text-anchor="middle" x="175" y="-1283.3" font-family="Times,serif" font-size="14.00">PL30</text>
</g>
<!-- transition28&#45;&gt;PL30 -->
<g id="edge39" class="edge"><title>transition28&#45;&gt;PL30</title>
<path fill="none" stroke="black" d="M247.947,-1340.96C246.566,-1339.96 218.43,-1319.53 197.513,-1304.35"/>
<polygon fill="black" stroke="black" points="199.516,-1301.47 189.368,-1298.43 195.404,-1307.14 199.516,-1301.47"/>
</g>
<!-- PL19 -->
<g id="node26" class="node"><title>PL19</title>
<ellipse fill="none" stroke="black" cx="355" cy="-563" rx="18" ry="18"/>
<text text-anchor="middle" x="355" y="-559.3" font-family="Times,serif" font-size="14.00">PL19</text>
</g>
<!-- PL19&#45;&gt;transition12 -->
<g id="edge28" class="edge"><title>PL19&#45;&gt;transition12</title>
<path fill="none" stroke="black" d="M360.685,-580.083C367.496,-600.82 378,-638.129 378,-671 378,-1669 378,-1669 378,-1669 378,-1717.62 327.72,-1761.93 313.002,-1773.86"/>
<polygon fill="none" stroke="black" points="311.903,-1772.5 309.05,-1776.96 314.064,-1775.25 311.903,-1772.5"/>
</g>
<!-- transition24&#45;&gt;PL19 -->
<g id="edge27" class="edge"><title>transition24&#45;&gt;PL19</title>
<path fill="none" stroke="black" d="M332.066,-616.848C332.738,-615.3 338.429,-602.185 343.974,-589.409"/>
<polygon fill="black" stroke="black" points="347.329,-590.469 348.099,-579.902 340.908,-587.682 347.329,-590.469"/>
</g>
<!-- PL2&#45;&gt;transition6 -->
<g id="edge30" class="edge"><title>PL2&#45;&gt;transition6</title>
<path fill="none" stroke="black" d="M420.137,-1740.95C415.693,-1761.96 409,-1798.92 409,-1831 409,-2267 409,-2267 409,-2267 409,-2316.12 381.806,-2371.59 373.428,-2387.51"/>
<polygon fill="none" stroke="black" points="371.866,-2386.72 371.028,-2391.95 374.945,-2388.39 371.866,-2386.72"/>
</g>
<!-- transition27 -->
<g id="node31" class="node"><title>transition27</title>
<polygon fill="none" stroke="black" points="325,-2194.5 289,-2194.5 289,-2193.5 325,-2193.5 325,-2194.5"/>
<text text-anchor="middle" x="277" y="-2198.3" font-family="Times,serif" font-size="14.00">pri+</text>
</g>
<!-- PL28&#45;&gt;transition27 -->
<g id="edge32" class="edge"><title>PL28&#45;&gt;transition27</title>
<path fill="none" stroke="black" d="M332.676,-2249.46C325.171,-2233.54 313.952,-2209.75 309.226,-2199.72"/>
<polygon fill="none" stroke="black" points="310.761,-2198.87 307.046,-2195.1 307.595,-2200.37 310.761,-2198.87"/>
</g>
<!-- PL29 -->
<g id="node30" class="node"><title>PL29</title>
<ellipse fill="none" stroke="black" cx="284" cy="-2122" rx="18" ry="18"/>
<text text-anchor="middle" x="284" y="-2118.3" font-family="Times,serif" font-size="14.00">PL29</text>
</g>
<!-- PL29&#45;&gt;transition28 -->
<g id="edge34" class="edge"><title>PL29&#45;&gt;transition28</title>
<path fill="none" stroke="black" d="M276.365,-2105.24C265.798,-2081.93 248,-2036.65 248,-1996 248,-1996 248,-1996 248,-1450 248,-1410.5 248,-1362.88 248,-1347.25"/>
<polygon fill="none" stroke="black" points="249.75,-1347.04 248,-1342.04 246.25,-1347.04 249.75,-1347.04"/>
</g>
<!-- transition27&#45;&gt;PL29 -->
<g id="edge33" class="edge"><title>transition27&#45;&gt;PL29</title>
<path fill="none" stroke="black" d="M306.983,-2192.95C306.58,-2191.72 298.944,-2168.48 292.583,-2149.12"/>
<polygon fill="black" stroke="black" points="295.865,-2147.9 289.418,-2139.49 289.214,-2150.08 295.865,-2147.9"/>
</g>
<!-- transition11 -->
<g id="node34" class="node"><title>transition11</title>
<polygon fill="none" stroke="black" points="312,-1233 276,-1233 276,-1232 312,-1232 312,-1233"/>
<text text-anchor="middle" x="259" y="-1236.8" font-family="Times,serif" font-size="14.00">bprn+</text>
</g>
<!-- PL32&#45;&gt;transition11 -->
<g id="edge36" class="edge"><title>PL32&#45;&gt;transition11</title>
<path fill="none" stroke="black" d="M294,-1268.94C294,-1258.39 294,-1245.53 294,-1238.41"/>
<polygon fill="none" stroke="black" points="295.75,-1238.06 294,-1233.06 292.25,-1238.06 295.75,-1238.06"/>
</g>
<!-- PL33 -->
<g id="node33" class="node"><title>PL33</title>
<ellipse fill="none" stroke="black" cx="313" cy="-1178" rx="18" ry="18"/>
<text text-anchor="middle" x="313" y="-1174.3" font-family="Times,serif" font-size="14.00">PL33</text>
</g>
<!-- PL33&#45;&gt;transition12 -->
<g id="edge38" class="edge"><title>PL33&#45;&gt;transition12</title>
<path fill="none" stroke="black" d="M319.674,-1195C327.67,-1215.64 340,-1252.86 340,-1286 340,-1669 340,-1669 340,-1669 340,-1710.2 318.903,-1756.92 311.517,-1772.02"/>
<polygon fill="none" stroke="black" points="309.778,-1771.58 309.089,-1776.83 312.903,-1773.16 309.778,-1771.58"/>
</g>
<!-- transition11&#45;&gt;PL33 -->
<g id="edge37" class="edge"><title>transition11&#45;&gt;PL33</title>
<path fill="none" stroke="black" d="M294.055,-1231.85C294.606,-1230.31 299.253,-1217.35 303.805,-1204.65"/>
<polygon fill="black" stroke="black" points="307.119,-1205.78 307.199,-1195.18 300.53,-1203.41 307.119,-1205.78"/>
</g>
<!-- PL30&#45;&gt;transition10 -->
<g id="edge40" class="edge"><title>PL30&#45;&gt;transition10</title>
<path fill="none" stroke="black" d="M160.925,-1298.81C139.712,-1316.45 102,-1353.62 102,-1395 102,-1887 102,-1887 102,-1887 102,-1943.85 177.519,-1983.45 197.303,-1992.85"/>
<polygon fill="none" stroke="black" points="196.653,-1994.48 201.928,-1994.97 198.109,-1991.3 196.653,-1994.48"/>
</g>
<!-- transition26 -->
<g id="node38" class="node"><title>transition26</title>
<polygon fill="none" stroke="black" points="70,-1342 34,-1342 34,-1341 70,-1341 70,-1342"/>
<text text-anchor="middle" x="17" y="-1345.8" font-family="Times,serif" font-size="14.00">mrdc&#45;</text>
</g>
<!-- PL34&#45;&gt;transition26 -->
<g id="edge42" class="edge"><title>PL34&#45;&gt;transition26</title>
<path fill="none" stroke="black" d="M132.576,-1386.48C110.395,-1374.24 70.6406,-1352.29 56.8608,-1344.68"/>
<polygon fill="none" stroke="black" points="57.3772,-1342.97 52.1541,-1342.09 55.6855,-1346.03 57.3772,-1342.97"/>
</g>
<!-- PL12 -->
<g id="node37" class="node"><title>PL12</title>
<ellipse fill="none" stroke="black" cx="94" cy="-1287" rx="18" ry="18"/>
<text text-anchor="middle" x="94" y="-1283.3" font-family="Times,serif" font-size="14.00">PL12</text>
</g>
<!-- transition13 -->
<g id="node40" class="node"><title>transition13</title>
<polygon fill="none" stroke="black" points="112,-1233 76,-1233 76,-1232 112,-1232 112,-1233"/>
<text text-anchor="middle" x="60" y="-1236.8" font-family="Times,serif" font-size="14.00">xack&#45;</text>
</g>
<!-- PL12&#45;&gt;transition13 -->
<g id="edge44" class="edge"><title>PL12&#45;&gt;transition13</title>
<path fill="none" stroke="black" d="M94,-1268.94C94,-1258.39 94,-1245.53 94,-1238.41"/>
<polygon fill="none" stroke="black" points="95.7501,-1238.06 94,-1233.06 92.2501,-1238.06 95.7501,-1238.06"/>
</g>
<!-- transition26&#45;&gt;PL12 -->
<g id="edge43" class="edge"><title>transition26&#45;&gt;PL12</title>
<path fill="none" stroke="black" d="M52.1205,-1340.85C53.4593,-1339.16 65.7119,-1323.7 76.6205,-1309.93"/>
<polygon fill="black" stroke="black" points="79.6616,-1311.73 83.1293,-1301.72 74.1754,-1307.38 79.6616,-1311.73"/>
</g>
<!-- PL13 -->
<g id="node39" class="node"><title>PL13</title>
<ellipse fill="none" stroke="black" cx="144" cy="-1178" rx="18" ry="18"/>
<text text-anchor="middle" x="144" y="-1174.3" font-family="Times,serif" font-size="14.00">PL13</text>
</g>
<!-- transition19 -->
<g id="node42" class="node"><title>transition19</title>
<polygon fill="none" stroke="black" points="208,-1106.5 172,-1106.5 172,-1105.5 208,-1105.5 208,-1106.5"/>
<text text-anchor="middle" x="166" y="-1110.3" font-family="Times,serif" font-size="14.00">x&#45;</text>
</g>
<!-- PL13&#45;&gt;transition19 -->
<g id="edge46" class="edge"><title>PL13&#45;&gt;transition19</title>
<path fill="none" stroke="black" d="M153.531,-1162.5C164.136,-1146.36 180.641,-1121.24 187.187,-1111.28"/>
<polygon fill="none" stroke="black" points="188.65,-1112.24 189.934,-1107.1 185.725,-1110.32 188.65,-1112.24"/>
</g>
<!-- transition13&#45;&gt;PL13 -->
<g id="edge45" class="edge"><title>transition13&#45;&gt;PL13</title>
<path fill="none" stroke="black" d="M94.1434,-1231.85C95.806,-1230.09 111.606,-1213.34 124.98,-1199.16"/>
<polygon fill="black" stroke="black" points="127.739,-1201.34 132.056,-1191.66 122.647,-1196.53 127.739,-1201.34"/>
</g>
<!-- PL5 -->
<g id="node41" class="node"><title>PL5</title>
<ellipse fill="none" stroke="black" cx="190" cy="-1034" rx="18" ry="18"/>
<text text-anchor="middle" x="190" y="-1030.3" font-family="Times,serif" font-size="14.00">PL5</text>
</g>
<!-- transition14 -->
<g id="node44" class="node"><title>transition14</title>
<polygon fill="none" stroke="black" points="208,-980 172,-980 172,-979 208,-979 208,-980"/>
<text text-anchor="middle" x="161" y="-983.8" font-family="Times,serif" font-size="14.00">do+</text>
</g>
<!-- PL5&#45;&gt;transition14 -->
<g id="edge48" class="edge"><title>PL5&#45;&gt;transition14</title>
<path fill="none" stroke="black" d="M190,-1015.94C190,-1005.39 190,-992.534 190,-985.412"/>
<polygon fill="none" stroke="black" points="191.75,-985.059 190,-980.059 188.25,-985.059 191.75,-985.059"/>
</g>
<!-- transition19&#45;&gt;PL5 -->
<g id="edge47" class="edge"><title>transition19&#45;&gt;PL5</title>
<path fill="none" stroke="black" d="M190,-1104.95C190,-1103.75 190,-1081.43 190,-1062.32"/>
<polygon fill="black" stroke="black" points="193.5,-1062.19 190,-1052.19 186.5,-1062.19 193.5,-1062.19"/>
</g>
<!-- PL6 -->
<g id="node43" class="node"><title>PL6</title>
<ellipse fill="none" stroke="black" cx="190" cy="-925" rx="18" ry="18"/>
<text text-anchor="middle" x="190" y="-921.3" font-family="Times,serif" font-size="14.00">PL6</text>
</g>
<!-- transition15 -->
<g id="node46" class="node"><title>transition15</title>
<polygon fill="none" stroke="black" points="208,-871 172,-871 172,-870 208,-870 208,-871"/>
<text text-anchor="middle" x="162.5" y="-874.8" font-family="Times,serif" font-size="14.00">di+</text>
</g>
<!-- PL6&#45;&gt;transition15 -->
<g id="edge50" class="edge"><title>PL6&#45;&gt;transition15</title>
<path fill="none" stroke="black" d="M190,-906.939C190,-896.385 190,-883.534 190,-876.412"/>
<polygon fill="none" stroke="black" points="191.75,-876.059 190,-871.059 188.25,-876.059 191.75,-876.059"/>
</g>
<!-- transition14&#45;&gt;PL6 -->
<g id="edge49" class="edge"><title>transition14&#45;&gt;PL6</title>
<path fill="none" stroke="black" d="M190,-978.848C190,-977.368 190,-965.319 190,-953.1"/>
<polygon fill="black" stroke="black" points="193.5,-953.025 190,-943.025 186.5,-953.025 193.5,-953.025"/>
</g>
<!-- PL16 -->
<g id="node45" class="node"><title>PL16</title>
<ellipse fill="none" stroke="black" cx="142" cy="-816" rx="18" ry="18"/>
<text text-anchor="middle" x="142" y="-812.3" font-family="Times,serif" font-size="14.00">PL16</text>
</g>
<!-- transition22 -->
<g id="node48" class="node"><title>transition22</title>
<polygon fill="none" stroke="black" points="158,-744.5 122,-744.5 122,-743.5 158,-743.5 158,-744.5"/>
<text text-anchor="middle" x="103.5" y="-748.3" font-family="Times,serif" font-size="14.00">mrdc+</text>
</g>
<!-- PL16&#45;&gt;transition22 -->
<g id="edge52" class="edge"><title>PL16&#45;&gt;transition22</title>
<path fill="none" stroke="black" d="M141.506,-797.697C141.062,-782.165 140.438,-760.324 140.153,-750.348"/>
<polygon fill="none" stroke="black" points="141.895,-750.04 140.003,-745.092 138.396,-750.14 141.895,-750.04"/>
</g>
<!-- transition15&#45;&gt;PL16 -->
<g id="edge51" class="edge"><title>transition15&#45;&gt;PL16</title>
<path fill="none" stroke="black" d="M189.862,-869.848C188.276,-868.096 173.274,-851.532 160.483,-837.409"/>
<polygon fill="black" stroke="black" points="163.011,-834.985 153.704,-829.923 157.822,-839.684 163.011,-834.985"/>
</g>
<!-- PL7 -->
<g id="node68" class="node"><title>PL7</title>
<ellipse fill="none" stroke="black" cx="194" cy="-744" rx="18" ry="18"/>
<text text-anchor="middle" x="194" y="-740.3" font-family="Times,serif" font-size="14.00">PL7</text>
</g>
<!-- transition15&#45;&gt;PL7 -->
<g id="edge79" class="edge"><title>transition15&#45;&gt;PL7</title>
<path fill="none" stroke="black" d="M190.003,-869.909C190.087,-867.29 191.969,-808.468 193.12,-772.491"/>
<polygon fill="black" stroke="black" points="196.63,-772.254 193.451,-762.147 189.633,-772.03 196.63,-772.254"/>
</g>
<!-- PL17 -->
<g id="node47" class="node"><title>PL17</title>
<ellipse fill="none" stroke="black" cx="148" cy="-672" rx="18" ry="18"/>
<text text-anchor="middle" x="148" y="-668.3" font-family="Times,serif" font-size="14.00">PL17</text>
</g>
<!-- transition23 -->
<g id="node50" class="node"><title>transition23</title>
<polygon fill="none" stroke="black" points="166,-618 130,-618 130,-617 166,-617 166,-618"/>
<text text-anchor="middle" x="120.5" y="-621.8" font-family="Times,serif" font-size="14.00">do&#45;</text>
</g>
<!-- PL17&#45;&gt;transition23 -->
<g id="edge54" class="edge"><title>PL17&#45;&gt;transition23</title>
<path fill="none" stroke="black" d="M148,-653.939C148,-643.385 148,-630.534 148,-623.412"/>
<polygon fill="none" stroke="black" points="149.75,-623.059 148,-618.059 146.25,-623.059 149.75,-623.059"/>
</g>
<!-- transition22&#45;&gt;PL17 -->
<g id="edge53" class="edge"><title>transition22&#45;&gt;PL17</title>
<path fill="none" stroke="black" d="M140.006,-742.949C140.143,-741.748 142.694,-719.429 144.878,-700.321"/>
<polygon fill="black" stroke="black" points="148.377,-700.524 146.035,-690.191 141.422,-699.729 148.377,-700.524"/>
</g>
<!-- PL20 -->
<g id="node64" class="node"><title>PL20</title>
<ellipse fill="none" stroke="black" cx="94" cy="-672" rx="18" ry="18"/>
<text text-anchor="middle" x="94" y="-668.3" font-family="Times,serif" font-size="14.00">PL20</text>
</g>
<!-- transition22&#45;&gt;PL20 -->
<g id="edge73" class="edge"><title>transition22&#45;&gt;PL20</title>
<path fill="none" stroke="black" d="M139.967,-742.949C139.117,-741.657 122.214,-715.934 109.15,-696.055"/>
<polygon fill="black" stroke="black" points="111.906,-693.875 103.489,-687.44 106.056,-697.72 111.906,-693.875"/>
</g>
<!-- PL18 -->
<g id="node67" class="node"><title>PL18</title>
<ellipse fill="none" stroke="black" cx="286" cy="-672" rx="18" ry="18"/>
<text text-anchor="middle" x="286" y="-668.3" font-family="Times,serif" font-size="14.00">PL18</text>
</g>
<!-- transition22&#45;&gt;PL18 -->
<g id="edge77" class="edge"><title>transition22&#45;&gt;PL18</title>
<path fill="none" stroke="black" d="M140.166,-742.882C141.804,-741.724 155.273,-732.262 167,-726 198.211,-709.334 235.717,-693.244 260.168,-683.25"/>
<polygon fill="black" stroke="black" points="261.524,-686.478 269.48,-679.481 258.897,-679.989 261.524,-686.478"/>
</g>
<!-- PL9 -->
<g id="node49" class="node"><title>PL9</title>
<ellipse fill="none" stroke="black" cx="148" cy="-563" rx="18" ry="18"/>
<text text-anchor="middle" x="148" y="-559.3" font-family="Times,serif" font-size="14.00">PL9</text>
</g>
<!-- transition16 -->
<g id="node52" class="node"><title>transition16</title>
<polygon fill="none" stroke="black" points="166,-509 130,-509 130,-508 166,-508 166,-509"/>
<text text-anchor="middle" x="122" y="-512.8" font-family="Times,serif" font-size="14.00">di&#45;</text>
</g>
<!-- PL9&#45;&gt;transition16 -->
<g id="edge56" class="edge"><title>PL9&#45;&gt;transition16</title>
<path fill="none" stroke="black" d="M148,-544.939C148,-534.385 148,-521.534 148,-514.412"/>
<polygon fill="none" stroke="black" points="149.75,-514.059 148,-509.059 146.25,-514.059 149.75,-514.059"/>
</g>
<!-- transition23&#45;&gt;PL9 -->
<g id="edge55" class="edge"><title>transition23&#45;&gt;PL9</title>
<path fill="none" stroke="black" d="M148,-616.848C148,-615.368 148,-603.319 148,-591.1"/>
<polygon fill="black" stroke="black" points="151.5,-591.025 148,-581.025 144.5,-591.025 151.5,-591.025"/>
</g>
<!-- PL10 -->
<g id="node51" class="node"><title>PL10</title>
<ellipse fill="none" stroke="black" cx="148" cy="-454" rx="18" ry="18"/>
<text text-anchor="middle" x="148" y="-450.3" font-family="Times,serif" font-size="14.00">PL10</text>
</g>
<!-- transition21 -->
<g id="node54" class="node"><title>transition21</title>
<polygon fill="none" stroke="black" points="212,-400 176,-400 176,-399 212,-399 212,-400"/>
<text text-anchor="middle" x="161.5" y="-403.8" font-family="Times,serif" font-size="14.00">pdo+</text>
</g>
<!-- PL10&#45;&gt;transition21 -->
<g id="edge58" class="edge"><title>PL10&#45;&gt;transition21</title>
<path fill="none" stroke="black" d="M159.371,-439.899C169.474,-428.258 183.64,-411.936 190.285,-404.281"/>
<polygon fill="none" stroke="black" points="191.984,-404.993 193.939,-400.07 189.34,-402.699 191.984,-404.993"/>
</g>
<!-- transition16&#45;&gt;PL10 -->
<g id="edge57" class="edge"><title>transition16&#45;&gt;PL10</title>
<path fill="none" stroke="black" d="M148,-507.848C148,-506.368 148,-494.319 148,-482.1"/>
<polygon fill="black" stroke="black" points="151.5,-482.025 148,-472.025 144.5,-482.025 151.5,-482.025"/>
</g>
<!-- PL11 -->
<g id="node63" class="node"><title>PL11</title>
<ellipse fill="none" stroke="black" cx="94" cy="-454" rx="18" ry="18"/>
<text text-anchor="middle" x="94" y="-450.3" font-family="Times,serif" font-size="14.00">PL11</text>
</g>
<!-- transition16&#45;&gt;PL11 -->
<g id="edge71" class="edge"><title>transition16&#45;&gt;PL11</title>
<path fill="none" stroke="black" d="M147.845,-507.848C146.012,-506.049 128.262,-488.628 113.635,-474.272"/>
<polygon fill="black" stroke="black" points="115.96,-471.649 106.372,-467.143 111.057,-476.645 115.96,-471.649"/>
</g>
<!-- PL4 -->
<g id="node53" class="node"><title>PL4</title>
<ellipse fill="none" stroke="black" cx="194" cy="-345" rx="18" ry="18"/>
<text text-anchor="middle" x="194" y="-341.3" font-family="Times,serif" font-size="14.00">PL4</text>
</g>
<!-- transition17 -->
<g id="node56" class="node"><title>transition17</title>
<polygon fill="none" stroke="black" points="212,-291 176,-291 176,-290 212,-290 212,-291"/>
<text text-anchor="middle" x="158.5" y="-294.8" font-family="Times,serif" font-size="14.00">pack+</text>
</g>
<!-- PL4&#45;&gt;transition17 -->
<g id="edge60" class="edge"><title>PL4&#45;&gt;transition17</title>
<path fill="none" stroke="black" d="M194,-326.939C194,-316.385 194,-303.534 194,-296.412"/>
<polygon fill="none" stroke="black" points="195.75,-296.059 194,-291.059 192.25,-296.059 195.75,-296.059"/>
</g>
<!-- transition21&#45;&gt;PL4 -->
<g id="edge59" class="edge"><title>transition21&#45;&gt;PL4</title>
<path fill="none" stroke="black" d="M194,-398.848C194,-397.368 194,-385.319 194,-373.1"/>
<polygon fill="black" stroke="black" points="197.5,-373.025 194,-363.025 190.5,-373.025 197.5,-373.025"/>
</g>
<!-- PL36 -->
<g id="node62" class="node"><title>PL36</title>
<ellipse fill="none" stroke="black" cx="286" cy="-345" rx="18" ry="18"/>
<text text-anchor="middle" x="286" y="-341.3" font-family="Times,serif" font-size="14.00">PL36</text>
</g>
<!-- transition21&#45;&gt;PL36 -->
<g id="edge69" class="edge"><title>transition21&#45;&gt;PL36</title>
<path fill="none" stroke="black" d="M194.067,-398.962C195.907,-397.902 235.413,-375.143 262.032,-359.808"/>
<polygon fill="black" stroke="black" points="263.91,-362.765 270.827,-354.741 260.415,-356.7 263.91,-362.765"/>
</g>
<!-- PL35 -->
<g id="node55" class="node"><title>PL35</title>
<ellipse fill="none" stroke="black" cx="194" cy="-236" rx="18" ry="18"/>
<text text-anchor="middle" x="194" y="-232.3" font-family="Times,serif" font-size="14.00">PL35</text>
</g>
<!-- transition18 -->
<g id="node58" class="node"><title>transition18</title>
<polygon fill="none" stroke="black" points="189,-182 153,-182 153,-181 189,-181 189,-182"/>
<text text-anchor="middle" x="140" y="-185.8" font-family="Times,serif" font-size="14.00">pdo&#45;</text>
</g>
<!-- PL35&#45;&gt;transition18 -->
<g id="edge62" class="edge"><title>PL35&#45;&gt;transition18</title>
<path fill="none" stroke="black" d="M187.099,-219.098C182.279,-207.992 176.169,-193.912 173.044,-186.71"/>
<polygon fill="none" stroke="black" points="174.623,-185.952 171.027,-182.062 171.412,-187.346 174.623,-185.952"/>
</g>
<!-- transition17&#45;&gt;PL35 -->
<g id="edge61" class="edge"><title>transition17&#45;&gt;PL35</title>
<path fill="none" stroke="black" d="M194,-289.848C194,-288.368 194,-276.319 194,-264.1"/>
<polygon fill="black" stroke="black" points="197.5,-264.025 194,-254.025 190.5,-264.025 197.5,-264.025"/>
</g>
<!-- PL8 -->
<g id="node57" class="node"><title>PL8</title>
<ellipse fill="none" stroke="black" cx="77" cy="-127" rx="18" ry="18"/>
<text text-anchor="middle" x="77" y="-123.3" font-family="Times,serif" font-size="14.00">PL8</text>
</g>
<!-- PL8&#45;&gt;transition23 -->
<g id="edge64" class="edge"><title>PL8&#45;&gt;transition23</title>
<path fill="none" stroke="black" d="M69.9799,-143.594C61.3973,-164.115 48,-201.511 48,-235 48,-455 48,-455 48,-455 48,-492.578 126.898,-591.214 144.532,-612.79"/>
<polygon fill="none" stroke="black" points="143.398,-614.166 147.928,-616.913 146.1,-611.941 143.398,-614.166"/>
</g>
<!-- transition18&#45;&gt;PL8 -->
<g id="edge63" class="edge"><title>transition18&#45;&gt;PL8</title>
<path fill="none" stroke="black" d="M170.932,-180.962C169.052,-179.902 128.687,-157.143 101.489,-141.808"/>
<polygon fill="black" stroke="black" points="102.932,-138.603 92.5024,-136.741 99.4942,-144.701 102.932,-138.603"/>
</g>
<!-- PL14 -->
<g id="node59" class="node"><title>PL14</title>
<ellipse fill="none" stroke="black" cx="177" cy="-127" rx="18" ry="18"/>
<text text-anchor="middle" x="177" y="-123.3" font-family="Times,serif" font-size="14.00">PL14</text>
</g>
<!-- transition18&#45;&gt;PL14 -->
<g id="edge65" class="edge"><title>transition18&#45;&gt;PL14</title>
<path fill="none" stroke="black" d="M171.017,-180.848C171.185,-179.368 172.549,-167.319 173.932,-155.1"/>
<polygon fill="black" stroke="black" points="177.425,-155.355 175.073,-145.025 170.47,-154.568 177.425,-155.355"/>
</g>
<!-- transition20 -->
<g id="node61" class="node"><title>transition20</title>
<polygon fill="none" stroke="black" points="201,-73 165,-73 165,-72 201,-72 201,-73"/>
<text text-anchor="middle" x="149" y="-76.8" font-family="Times,serif" font-size="14.00">pack&#45;</text>
</g>
<!-- PL14&#45;&gt;transition20 -->
<g id="edge66" class="edge"><title>PL14&#45;&gt;transition20</title>
<path fill="none" stroke="black" d="M178.931,-108.939C180.126,-98.3852 181.581,-85.5344 182.387,-78.4124"/>
<polygon fill="none" stroke="black" points="184.17,-78.2243 182.993,-73.0591 180.692,-77.8305 184.17,-78.2243"/>
</g>
<!-- PL15 -->
<g id="node60" class="node"><title>PL15</title>
<ellipse fill="none" stroke="black" cx="211" cy="-18" rx="18" ry="18"/>
<text text-anchor="middle" x="211" y="-14.3" font-family="Times,serif" font-size="14.00">PL15</text>
</g>
<!-- PL15&#45;&gt;transition21 -->
<g id="edge68" class="edge"><title>PL15&#45;&gt;transition21</title>
<path fill="none" stroke="black" d="M218.02,-34.5938C226.603,-55.1147 240,-92.511 240,-126 240,-291 240,-291 240,-291 240,-324.095 235.418,-333.21 221,-363 214.67,-376.08 203.285,-389.157 197.532,-395.331"/>
<polygon fill="none" stroke="black" points="196.258,-394.131 194.053,-398.948 198.78,-396.558 196.258,-394.131"/>
</g>
<!-- transition20&#45;&gt;PL15 -->
<g id="edge67" class="edge"><title>transition20&#45;&gt;PL15</title>
<path fill="none" stroke="black" d="M183.08,-71.848C183.917,-70.265 191.141,-56.5906 198.03,-43.5496"/>
<polygon fill="black" stroke="black" points="201.315,-44.8245 202.892,-34.3476 195.126,-41.5546 201.315,-44.8245"/>
</g>
<!-- PL36&#45;&gt;transition19 -->
<g id="edge70" class="edge"><title>PL36&#45;&gt;transition19</title>
<path fill="none" stroke="black" d="M275.562,-360.055C261.99,-379.76 240,-417.21 240,-453 240,-980 240,-980 240,-980 240,-1030.62 204.219,-1085.05 193.194,-1100.62"/>
<polygon fill="none" stroke="black" points="191.566,-1099.88 190.036,-1104.95 194.395,-1101.94 191.566,-1099.88"/>
</g>
<!-- PL11&#45;&gt;transition26 -->
<g id="edge72" class="edge"><title>PL11&#45;&gt;transition26</title>
<path fill="none" stroke="black" d="M81.9648,-467.688C58.7381,-493.564 10,-555.222 10,-617 10,-1233 10,-1233 10,-1233 10,-1275.88 39.1097,-1322.22 48.8604,-1336.53"/>
<polygon fill="none" stroke="black" points="47.5747,-1337.75 51.8795,-1340.84 50.4395,-1335.74 47.5747,-1337.75"/>
</g>
<!-- transition25 -->
<g id="node66" class="node"><title>transition25</title>
<polygon fill="none" stroke="black" points="112,-618 76,-618 76,-617 112,-617 112,-618"/>
<text text-anchor="middle" x="58.5" y="-621.8" font-family="Times,serif" font-size="14.00">xack+</text>
</g>
<!-- PL20&#45;&gt;transition25 -->
<g id="edge74" class="edge"><title>PL20&#45;&gt;transition25</title>
<path fill="none" stroke="black" d="M94,-653.939C94,-643.385 94,-630.534 94,-623.412"/>
<polygon fill="none" stroke="black" points="95.7501,-623.059 94,-618.059 92.2501,-623.059 95.7501,-623.059"/>
</g>
<!-- PL21 -->
<g id="node65" class="node"><title>PL21</title>
<ellipse fill="none" stroke="black" cx="56" cy="-563" rx="18" ry="18"/>
<text text-anchor="middle" x="56" y="-559.3" font-family="Times,serif" font-size="14.00">PL21</text>
</g>
<!-- PL21&#45;&gt;transition26 -->
<g id="edge76" class="edge"><title>PL21&#45;&gt;transition26</title>
<path fill="none" stroke="black" d="M53.9398,-581.02C51.5695,-602.105 48,-639.146 48,-671 48,-1233 48,-1233 48,-1233 48,-1272.53 50.7085,-1320.13 51.668,-1335.76"/>
<polygon fill="none" stroke="black" points="49.9347,-1336.08 51.9971,-1340.96 53.4277,-1335.86 49.9347,-1336.08"/>
</g>
<!-- transition25&#45;&gt;PL21 -->
<g id="edge75" class="edge"><title>transition25&#45;&gt;PL21</title>
<path fill="none" stroke="black" d="M93.891,-616.848C92.6869,-615.169 81.7257,-599.881 71.9007,-586.177"/>
<polygon fill="black" stroke="black" points="74.6989,-584.073 66.0275,-577.986 69.01,-588.152 74.6989,-584.073"/>
</g>
<!-- PL18&#45;&gt;transition24 -->
<g id="edge78" class="edge"><title>PL18&#45;&gt;transition24</title>
<path fill="none" stroke="black" d="M297.371,-657.899C307.474,-646.258 321.64,-629.936 328.285,-622.281"/>
<polygon fill="none" stroke="black" points="329.984,-622.993 331.939,-618.07 327.34,-620.699 329.984,-622.993"/>
</g>
<!-- PL7&#45;&gt;transition18 -->
<g id="edge80" class="edge"><title>PL7&#45;&gt;transition18</title>
<path fill="none" stroke="black" d="M194,-725.609C194,-701.462 194,-656.411 194,-618 194,-618 194,-618 194,-508 194,-433.154 148,-420.846 148,-346 148,-346 148,-346 148,-290 148,-249.239 163.866,-201.685 169.243,-186.74"/>
<polygon fill="none" stroke="black" points="170.887,-187.339 170.983,-182.043 167.605,-186.123 170.887,-187.339"/>
</g>
</g>
</svg>
