<?xml version="1.0" encoding="UTF-8" standalone="no"?>
<!DOCTYPE svg PUBLIC "-//W3C//DTD SVG 1.1//EN"
 "http://www.w3.org/Graphics/SVG/1.1/DTD/svg11.dtd">
<!-- Generated by graphviz version 2.38.0 (20140413.2041)
 -->
<!-- Title: %3 Pages: 1 -->
<svg width="628pt" height="2329pt"
 viewBox="0.00 0.00 628.00 2329.00" xmlns="http://www.w3.org/2000/svg" xmlns:xlink="http://www.w3.org/1999/xlink">
<g id="graph0" class="graph" transform="scale(1 1) rotate(0) translate(4 2325)">
<title>%3</title>
<polygon fill="white" stroke="none" points="-4,4 -4,-2325 624,-2325 624,4 -4,4"/>
<!-- PL1 -->
<g id="node1" class="node"><title>PL1</title>
<ellipse fill="none" stroke="black" cx="243" cy="-2303" rx="18" ry="18"/>
<text text-anchor="middle" x="243" y="-2299.3" font-family="Times,serif" font-size="14.00">PL1</text>
</g>
<!-- transition0 -->
<g id="node3" class="node"><title>transition0</title>
<polygon fill="none" stroke="black" points="222,-2249 186,-2249 186,-2248 222,-2248 222,-2249"/>
<text text-anchor="middle" x="174.5" y="-2252.8" font-family="Times,serif" font-size="14.00">ari+</text>
</g>
<!-- PL1&#45;&gt;transition0 -->
<g id="edge1" class="edge"><title>PL1&#45;&gt;transition0</title>
<path fill="none" stroke="black" d="M232.753,-2288.07C224.183,-2276.43 212.508,-2260.56 207.049,-2253.14"/>
<polygon fill="none" stroke="black" points="208.423,-2252.06 204.05,-2249.07 205.604,-2254.13 208.423,-2252.06"/>
</g>
<!-- PL37 -->
<g id="node2" class="node"><title>PL37</title>
<ellipse fill="none" stroke="black" cx="171" cy="-2194" rx="18" ry="18"/>
<text text-anchor="middle" x="171" y="-2190.3" font-family="Times,serif" font-size="14.00">PL37</text>
</g>
<!-- transition5 -->
<g id="node5" class="node"><title>transition5</title>
<polygon fill="none" stroke="black" points="151,-2140 115,-2140 115,-2139 151,-2139 151,-2140"/>
<text text-anchor="middle" x="103" y="-2143.8" font-family="Times,serif" font-size="14.00">pro&#45;</text>
</g>
<!-- PL37&#45;&gt;transition5 -->
<g id="edge3" class="edge"><title>PL37&#45;&gt;transition5</title>
<path fill="none" stroke="black" d="M160.817,-2178.8C152.638,-2167.39 141.66,-2152.08 136.268,-2144.56"/>
<polygon fill="none" stroke="black" points="137.384,-2143.11 133.048,-2140.07 134.539,-2145.15 137.384,-2143.11"/>
</g>
<!-- transition0&#45;&gt;PL37 -->
<g id="edge2" class="edge"><title>transition0&#45;&gt;PL37</title>
<path fill="none" stroke="black" d="M203.905,-2247.85C202.888,-2246.21 193.853,-2231.7 185.507,-2218.3"/>
<polygon fill="black" stroke="black" points="188.471,-2216.44 180.214,-2209.8 182.529,-2220.14 188.471,-2216.44"/>
</g>
<!-- PL28 -->
<g id="node4" class="node"><title>PL28</title>
<ellipse fill="none" stroke="black" cx="160" cy="-2085" rx="18" ry="18"/>
<text text-anchor="middle" x="160" y="-2081.3" font-family="Times,serif" font-size="14.00">PL28</text>
</g>
<!-- transition26 -->
<g id="node7" class="node"><title>transition26</title>
<polygon fill="none" stroke="black" points="178,-2031 142,-2031 142,-2030 178,-2030 178,-2031"/>
<text text-anchor="middle" x="130" y="-2034.8" font-family="Times,serif" font-size="14.00">pri+</text>
</g>
<!-- PL28&#45;&gt;transition26 -->
<g id="edge5" class="edge"><title>PL28&#45;&gt;transition26</title>
<path fill="none" stroke="black" d="M160,-2066.94C160,-2056.39 160,-2043.53 160,-2036.41"/>
<polygon fill="none" stroke="black" points="161.75,-2036.06 160,-2031.06 158.25,-2036.06 161.75,-2036.06"/>
</g>
<!-- transition5&#45;&gt;PL28 -->
<g id="edge4" class="edge"><title>transition5&#45;&gt;PL28</title>
<path fill="none" stroke="black" d="M133.077,-2138.85C133.884,-2137.26 140.85,-2123.59 147.494,-2110.55"/>
<polygon fill="black" stroke="black" points="150.761,-2111.85 152.181,-2101.35 144.523,-2108.67 150.761,-2111.85"/>
</g>
<!-- PL22 -->
<g id="node24" class="node"><title>PL22</title>
<ellipse fill="none" stroke="black" cx="106" cy="-2085" rx="18" ry="18"/>
<text text-anchor="middle" x="106" y="-2081.3" font-family="Times,serif" font-size="14.00">PL22</text>
</g>
<!-- transition5&#45;&gt;PL22 -->
<g id="edge26" class="edge"><title>transition5&#45;&gt;PL22</title>
<path fill="none" stroke="black" d="M132.923,-2138.85C132.116,-2137.26 125.15,-2123.59 118.506,-2110.55"/>
<polygon fill="black" stroke="black" points="121.477,-2108.67 113.819,-2101.35 115.239,-2111.85 121.477,-2108.67"/>
</g>
<!-- PL29 -->
<g id="node6" class="node"><title>PL29</title>
<ellipse fill="none" stroke="black" cx="160" cy="-1976" rx="18" ry="18"/>
<text text-anchor="middle" x="160" y="-1972.3" font-family="Times,serif" font-size="14.00">PL29</text>
</g>
<!-- transition27 -->
<g id="node9" class="node"><title>transition27</title>
<polygon fill="none" stroke="black" points="178,-1922 142,-1922 142,-1921 178,-1921 178,-1922"/>
<text text-anchor="middle" x="125.5" y="-1925.8" font-family="Times,serif" font-size="14.00">breq+</text>
</g>
<!-- PL29&#45;&gt;transition27 -->
<g id="edge7" class="edge"><title>PL29&#45;&gt;transition27</title>
<path fill="none" stroke="black" d="M160,-1957.94C160,-1947.39 160,-1934.53 160,-1927.41"/>
<polygon fill="none" stroke="black" points="161.75,-1927.06 160,-1922.06 158.25,-1927.06 161.75,-1927.06"/>
</g>
<!-- transition26&#45;&gt;PL29 -->
<g id="edge6" class="edge"><title>transition26&#45;&gt;PL29</title>
<path fill="none" stroke="black" d="M160,-2029.85C160,-2028.37 160,-2016.32 160,-2004.1"/>
<polygon fill="black" stroke="black" points="163.5,-2004.02 160,-1994.02 156.5,-2004.02 163.5,-2004.02"/>
</g>
<!-- PL32 -->
<g id="node8" class="node"><title>PL32</title>
<ellipse fill="none" stroke="black" cx="52" cy="-1867" rx="18" ry="18"/>
<text text-anchor="middle" x="52" y="-1863.3" font-family="Times,serif" font-size="14.00">PL32</text>
</g>
<!-- transition10 -->
<g id="node11" class="node"><title>transition10</title>
<polygon fill="none" stroke="black" points="70,-1813 34,-1813 34,-1812 70,-1812 70,-1813"/>
<text text-anchor="middle" x="17" y="-1816.8" font-family="Times,serif" font-size="14.00">bprn+</text>
</g>
<!-- PL32&#45;&gt;transition10 -->
<g id="edge9" class="edge"><title>PL32&#45;&gt;transition10</title>
<path fill="none" stroke="black" d="M52,-1848.94C52,-1838.39 52,-1825.53 52,-1818.41"/>
<polygon fill="none" stroke="black" points="53.7501,-1818.06 52,-1813.06 50.2501,-1818.06 53.7501,-1818.06"/>
</g>
<!-- transition27&#45;&gt;PL32 -->
<g id="edge8" class="edge"><title>transition27&#45;&gt;PL32</title>
<path fill="none" stroke="black" d="M159.866,-1920.95C157.121,-1919.91 112.672,-1902.96 79,-1885 77.8454,-1884.38 76.6739,-1883.74 75.4986,-1883.07"/>
<polygon fill="black" stroke="black" points="77.0024,-1879.89 66.6271,-1877.74 73.3995,-1885.89 77.0024,-1879.89"/>
</g>
<!-- PL31 -->
<g id="node20" class="node"><title>PL31</title>
<ellipse fill="none" stroke="black" cx="198" cy="-1758" rx="18" ry="18"/>
<text text-anchor="middle" x="198" y="-1754.3" font-family="Times,serif" font-size="14.00">PL31</text>
</g>
<!-- transition27&#45;&gt;PL31 -->
<g id="edge20" class="edge"><title>transition27&#45;&gt;PL31</title>
<path fill="none" stroke="black" d="M160.057,-1920.95C161.229,-1919.92 180.079,-1903.1 187,-1885 199.354,-1852.7 200.671,-1812.45 199.855,-1786.26"/>
<polygon fill="black" stroke="black" points="203.338,-1785.8 199.4,-1775.96 196.344,-1786.1 203.338,-1785.8"/>
</g>
<!-- PL30 -->
<g id="node35" class="node"><title>PL30</title>
<ellipse fill="none" stroke="black" cx="160" cy="-1867" rx="18" ry="18"/>
<text text-anchor="middle" x="160" y="-1863.3" font-family="Times,serif" font-size="14.00">PL30</text>
</g>
<!-- transition27&#45;&gt;PL30 -->
<g id="edge39" class="edge"><title>transition27&#45;&gt;PL30</title>
<path fill="none" stroke="black" d="M160,-1920.85C160,-1919.37 160,-1907.32 160,-1895.1"/>
<polygon fill="black" stroke="black" points="163.5,-1895.02 160,-1885.02 156.5,-1895.02 163.5,-1895.02"/>
</g>
<!-- PL33 -->
<g id="node10" class="node"><title>PL33</title>
<ellipse fill="none" stroke="black" cx="52" cy="-1686" rx="18" ry="18"/>
<text text-anchor="middle" x="52" y="-1682.3" font-family="Times,serif" font-size="14.00">PL33</text>
</g>
<!-- transition11 -->
<g id="node13" class="node"><title>transition11</title>
<polygon fill="none" stroke="black" points="116,-1560 80,-1560 80,-1559 116,-1559 116,-1560"/>
<text text-anchor="middle" x="65" y="-1563.8" font-family="Times,serif" font-size="14.00">breq&#45;</text>
</g>
<!-- PL33&#45;&gt;transition11 -->
<g id="edge11" class="edge"><title>PL33&#45;&gt;transition11</title>
<path fill="none" stroke="black" d="M53.4409,-1667.92C55.491,-1649.48 60.2711,-1619.59 71,-1596 77.0169,-1582.77 88.5436,-1569.76 94.3974,-1563.64"/>
<polygon fill="none" stroke="black" points="95.6719,-1564.84 97.946,-1560.05 93.1846,-1562.37 95.6719,-1564.84"/>
</g>
<!-- transition10&#45;&gt;PL33 -->
<g id="edge10" class="edge"><title>transition10&#45;&gt;PL33</title>
<path fill="none" stroke="black" d="M52,-1811.91C52,-1809.29 52,-1750.47 52,-1714.49"/>
<polygon fill="black" stroke="black" points="55.5001,-1714.15 52,-1704.15 48.5001,-1714.15 55.5001,-1714.15"/>
</g>
<!-- PL38 -->
<g id="node12" class="node"><title>PL38</title>
<ellipse fill="none" stroke="black" cx="150" cy="-1505" rx="18" ry="18"/>
<text text-anchor="middle" x="150" y="-1501.3" font-family="Times,serif" font-size="14.00">PL38</text>
</g>
<!-- transition6 -->
<g id="node15" class="node"><title>transition6</title>
<polygon fill="none" stroke="black" points="169,-1451 133,-1451 133,-1450 169,-1450 169,-1451"/>
<text text-anchor="middle" x="117.5" y="-1454.8" font-family="Times,serif" font-size="14.00">bprn&#45;</text>
</g>
<!-- PL38&#45;&gt;transition6 -->
<g id="edge13" class="edge"><title>PL38&#45;&gt;transition6</title>
<path fill="none" stroke="black" d="M150.322,-1486.94C150.521,-1476.39 150.764,-1463.53 150.898,-1456.41"/>
<polygon fill="none" stroke="black" points="152.654,-1456.09 150.999,-1451.06 149.155,-1456.03 152.654,-1456.09"/>
</g>
<!-- transition11&#45;&gt;PL38 -->
<g id="edge12" class="edge"><title>transition11&#45;&gt;PL38</title>
<path fill="none" stroke="black" d="M98.1492,-1558.85C99.8883,-1557.08 116.502,-1540.14 130.462,-1525.91"/>
<polygon fill="black" stroke="black" points="133.328,-1527.99 137.833,-1518.4 128.331,-1523.09 133.328,-1527.99"/>
</g>
<!-- PL2 -->
<g id="node23" class="node"><title>PL2</title>
<ellipse fill="none" stroke="black" cx="31" cy="-1505" rx="18" ry="18"/>
<text text-anchor="middle" x="31" y="-1501.3" font-family="Times,serif" font-size="14.00">PL2</text>
</g>
<!-- transition11&#45;&gt;PL2 -->
<g id="edge24" class="edge"><title>transition11&#45;&gt;PL2</title>
<path fill="none" stroke="black" d="M97.9514,-1558.96C96.7088,-1557.98 71.8721,-1538.33 52.8097,-1523.25"/>
<polygon fill="black" stroke="black" points="54.8358,-1520.39 44.8215,-1516.93 50.4929,-1525.88 54.8358,-1520.39"/>
</g>
<!-- PL39 -->
<g id="node14" class="node"><title>PL39</title>
<ellipse fill="none" stroke="black" cx="151" cy="-1396" rx="18" ry="18"/>
<text text-anchor="middle" x="151" y="-1392.3" font-family="Times,serif" font-size="14.00">PL39</text>
</g>
<!-- transition7 -->
<g id="node17" class="node"><title>transition7</title>
<polygon fill="none" stroke="black" points="170,-1342 134,-1342 134,-1341 170,-1341 170,-1342"/>
<text text-anchor="middle" x="126.5" y="-1345.8" font-family="Times,serif" font-size="14.00">x+</text>
</g>
<!-- PL39&#45;&gt;transition7 -->
<g id="edge15" class="edge"><title>PL39&#45;&gt;transition7</title>
<path fill="none" stroke="black" d="M151.322,-1377.94C151.521,-1367.39 151.764,-1354.53 151.898,-1347.41"/>
<polygon fill="none" stroke="black" points="153.654,-1347.09 151.999,-1342.06 150.155,-1347.03 153.654,-1347.09"/>
</g>
<!-- transition6&#45;&gt;PL39 -->
<g id="edge14" class="edge"><title>transition6&#45;&gt;PL39</title>
<path fill="none" stroke="black" d="M151,-1449.85C151,-1448.37 151,-1436.32 151,-1424.1"/>
<polygon fill="black" stroke="black" points="154.5,-1424.02 151,-1414.02 147.5,-1424.02 154.5,-1424.02"/>
</g>
<!-- PL40 -->
<g id="node16" class="node"><title>PL40</title>
<ellipse fill="none" stroke="black" cx="244" cy="-1287" rx="18" ry="18"/>
<text text-anchor="middle" x="244" y="-1283.3" font-family="Times,serif" font-size="14.00">PL40</text>
</g>
<!-- transition8 -->
<g id="node19" class="node"><title>transition8</title>
<polygon fill="none" stroke="black" points="262,-1233 226,-1233 226,-1232 262,-1232 262,-1233"/>
<text text-anchor="middle" x="210" y="-1236.8" font-family="Times,serif" font-size="14.00">busy&#45;</text>
</g>
<!-- PL40&#45;&gt;transition8 -->
<g id="edge17" class="edge"><title>PL40&#45;&gt;transition8</title>
<path fill="none" stroke="black" d="M244,-1268.94C244,-1258.39 244,-1245.53 244,-1238.41"/>
<polygon fill="none" stroke="black" points="245.75,-1238.06 244,-1233.06 242.25,-1238.06 245.75,-1238.06"/>
</g>
<!-- transition7&#45;&gt;PL40 -->
<g id="edge16" class="edge"><title>transition7&#45;&gt;PL40</title>
<path fill="none" stroke="black" d="M152.067,-1340.96C153.907,-1339.9 193.413,-1317.14 220.032,-1301.81"/>
<polygon fill="black" stroke="black" points="221.91,-1304.77 228.827,-1296.74 218.415,-1298.7 221.91,-1304.77"/>
</g>
<!-- PL3 -->
<g id="node18" class="node"><title>PL3</title>
<ellipse fill="none" stroke="black" cx="298" cy="-1178" rx="18" ry="18"/>
<text text-anchor="middle" x="298" y="-1174.3" font-family="Times,serif" font-size="14.00">PL3</text>
</g>
<!-- PL3&#45;&gt;transition27 -->
<g id="edge19" class="edge"><title>PL3&#45;&gt;transition27</title>
<path fill="none" stroke="black" d="M296.97,-1196.04C295.785,-1217.15 294,-1254.21 294,-1286 294,-1560 294,-1560 294,-1560 294,-1650.33 244,-1666.67 244,-1757 244,-1813 244,-1813 244,-1813 244,-1865.38 181.682,-1907.65 164.398,-1918.37"/>
<polygon fill="none" stroke="black" points="163.451,-1916.89 160.061,-1920.97 165.249,-1919.9 163.451,-1916.89"/>
</g>
<!-- transition8&#45;&gt;PL3 -->
<g id="edge18" class="edge"><title>transition8&#45;&gt;PL3</title>
<path fill="none" stroke="black" d="M244.155,-1231.85C245.988,-1230.05 263.738,-1212.63 278.365,-1198.27"/>
<polygon fill="black" stroke="black" points="280.943,-1200.65 285.628,-1191.14 276.04,-1195.65 280.943,-1200.65"/>
</g>
<!-- PL34 -->
<g id="node36" class="node"><title>PL34</title>
<ellipse fill="none" stroke="black" cx="244" cy="-1178" rx="18" ry="18"/>
<text text-anchor="middle" x="244" y="-1174.3" font-family="Times,serif" font-size="14.00">PL34</text>
</g>
<!-- transition8&#45;&gt;PL34 -->
<g id="edge41" class="edge"><title>transition8&#45;&gt;PL34</title>
<path fill="none" stroke="black" d="M244,-1231.85C244,-1230.37 244,-1218.32 244,-1206.1"/>
<polygon fill="black" stroke="black" points="247.5,-1206.02 244,-1196.02 240.5,-1206.02 247.5,-1206.02"/>
</g>
<!-- transition23 -->
<g id="node22" class="node"><title>transition23</title>
<polygon fill="none" stroke="black" points="216,-452.5 180,-452.5 180,-451.5 216,-451.5 216,-452.5"/>
<text text-anchor="middle" x="162.5" y="-456.3" font-family="Times,serif" font-size="14.00">busy+</text>
</g>
<!-- PL31&#45;&gt;transition23 -->
<g id="edge21" class="edge"><title>PL31&#45;&gt;transition23</title>
<path fill="none" stroke="black" d="M198,-1739.95C198,-1713.29 198,-1660.11 198,-1615 198,-1615 198,-1615 198,-578 198,-531.43 198,-475.101 198,-458.098"/>
<polygon fill="none" stroke="black" points="199.75,-458.051 198,-453.051 196.25,-458.051 199.75,-458.051"/>
</g>
<!-- PL19 -->
<g id="node21" class="node"><title>PL19</title>
<ellipse fill="none" stroke="black" cx="150" cy="-380" rx="18" ry="18"/>
<text text-anchor="middle" x="150" y="-376.3" font-family="Times,serif" font-size="14.00">PL19</text>
</g>
<!-- PL19&#45;&gt;transition11 -->
<g id="edge23" class="edge"><title>PL19&#45;&gt;transition11</title>
<path fill="none" stroke="black" d="M141.196,-396.188C127.339,-421.569 102,-474.597 102,-523 102,-1451 102,-1451 102,-1451 102,-1490.53 99.2915,-1538.13 98.332,-1553.76"/>
<polygon fill="none" stroke="black" points="96.5723,-1553.86 98.0029,-1558.96 100.065,-1554.08 96.5723,-1553.86"/>
</g>
<!-- transition23&#45;&gt;PL19 -->
<g id="edge22" class="edge"><title>transition23&#45;&gt;PL19</title>
<path fill="none" stroke="black" d="M197.965,-450.949C197.075,-449.651 179.282,-423.702 165.625,-403.786"/>
<polygon fill="black" stroke="black" points="168.444,-401.708 159.902,-395.44 162.671,-405.667 168.444,-401.708"/>
</g>
<!-- PL2&#45;&gt;transition5 -->
<g id="edge25" class="edge"><title>PL2&#45;&gt;transition5</title>
<path fill="none" stroke="black" d="M24.8202,-1522.04C17.417,-1542.74 6,-1580 6,-1613 6,-2031 6,-2031 6,-2031 6,-2096.24 104.473,-2130.33 127.997,-2137.54"/>
<polygon fill="none" stroke="black" points="127.618,-2139.25 132.908,-2138.98 128.601,-2135.89 127.618,-2139.25"/>
</g>
<!-- transition1 -->
<g id="node26" class="node"><title>transition1</title>
<polygon fill="none" stroke="black" points="124,-2031 88,-2031 88,-2030 124,-2030 124,-2031"/>
<text text-anchor="middle" x="76.5" y="-2034.8" font-family="Times,serif" font-size="14.00">aro&#45;</text>
</g>
<!-- PL22&#45;&gt;transition1 -->
<g id="edge27" class="edge"><title>PL22&#45;&gt;transition1</title>
<path fill="none" stroke="black" d="M106,-2066.94C106,-2056.39 106,-2043.53 106,-2036.41"/>
<polygon fill="none" stroke="black" points="107.75,-2036.06 106,-2031.06 104.25,-2036.06 107.75,-2036.06"/>
</g>
<!-- PL23 -->
<g id="node25" class="node"><title>PL23</title>
<ellipse fill="none" stroke="black" cx="106" cy="-1976" rx="18" ry="18"/>
<text text-anchor="middle" x="106" y="-1972.3" font-family="Times,serif" font-size="14.00">PL23</text>
</g>
<!-- transition2 -->
<g id="node28" class="node"><title>transition2</title>
<polygon fill="none" stroke="black" points="124,-1922 88,-1922 88,-1921 124,-1921 124,-1922"/>
<text text-anchor="middle" x="78" y="-1925.8" font-family="Times,serif" font-size="14.00">ari&#45;</text>
</g>
<!-- PL23&#45;&gt;transition2 -->
<g id="edge29" class="edge"><title>PL23&#45;&gt;transition2</title>
<path fill="none" stroke="black" d="M106,-1957.94C106,-1947.39 106,-1934.53 106,-1927.41"/>
<polygon fill="none" stroke="black" points="107.75,-1927.06 106,-1922.06 104.25,-1927.06 107.75,-1927.06"/>
</g>
<!-- transition1&#45;&gt;PL23 -->
<g id="edge28" class="edge"><title>transition1&#45;&gt;PL23</title>
<path fill="none" stroke="black" d="M106,-2029.85C106,-2028.37 106,-2016.32 106,-2004.1"/>
<polygon fill="black" stroke="black" points="109.5,-2004.02 106,-1994.02 102.5,-2004.02 109.5,-2004.02"/>
</g>
<!-- PL24 -->
<g id="node27" class="node"><title>PL24</title>
<ellipse fill="none" stroke="black" cx="106" cy="-1867" rx="18" ry="18"/>
<text text-anchor="middle" x="106" y="-1863.3" font-family="Times,serif" font-size="14.00">PL24</text>
</g>
<!-- transition9 -->
<g id="node30" class="node"><title>transition9</title>
<polygon fill="none" stroke="black" points="143,-1813 107,-1813 107,-1812 143,-1812 143,-1813"/>
<text text-anchor="middle" x="93.5" y="-1816.8" font-family="Times,serif" font-size="14.00">pro+</text>
</g>
<!-- PL24&#45;&gt;transition9 -->
<g id="edge31" class="edge"><title>PL24&#45;&gt;transition9</title>
<path fill="none" stroke="black" d="M111.804,-1849.81C115.694,-1838.96 120.565,-1825.37 123.164,-1818.12"/>
<polygon fill="none" stroke="black" points="124.938,-1818.36 124.978,-1813.06 121.643,-1817.18 124.938,-1818.36"/>
</g>
<!-- transition2&#45;&gt;PL24 -->
<g id="edge30" class="edge"><title>transition2&#45;&gt;PL24</title>
<path fill="none" stroke="black" d="M106,-1920.85C106,-1919.37 106,-1907.32 106,-1895.1"/>
<polygon fill="black" stroke="black" points="109.5,-1895.02 106,-1885.02 102.5,-1895.02 109.5,-1895.02"/>
</g>
<!-- PL25 -->
<g id="node29" class="node"><title>PL25</title>
<ellipse fill="none" stroke="black" cx="125" cy="-1758" rx="18" ry="18"/>
<text text-anchor="middle" x="125" y="-1754.3" font-family="Times,serif" font-size="14.00">PL25</text>
</g>
<!-- transition3 -->
<g id="node32" class="node"><title>transition3</title>
<polygon fill="none" stroke="black" points="143,-1686.5 107,-1686.5 107,-1685.5 143,-1685.5 143,-1686.5"/>
<text text-anchor="middle" x="96.5" y="-1690.3" font-family="Times,serif" font-size="14.00">pri&#45;</text>
</g>
<!-- PL25&#45;&gt;transition3 -->
<g id="edge33" class="edge"><title>PL25&#45;&gt;transition3</title>
<path fill="none" stroke="black" d="M125,-1739.7C125,-1724.17 125,-1702.32 125,-1692.35"/>
<polygon fill="none" stroke="black" points="126.75,-1692.09 125,-1687.09 123.25,-1692.09 126.75,-1692.09"/>
</g>
<!-- transition9&#45;&gt;PL25 -->
<g id="edge32" class="edge"><title>transition9&#45;&gt;PL25</title>
<path fill="none" stroke="black" d="M125,-1811.85C125,-1810.37 125,-1798.32 125,-1786.1"/>
<polygon fill="black" stroke="black" points="128.5,-1786.02 125,-1776.02 121.5,-1786.02 128.5,-1786.02"/>
</g>
<!-- PL26 -->
<g id="node31" class="node"><title>PL26</title>
<ellipse fill="none" stroke="black" cx="152" cy="-1614" rx="18" ry="18"/>
<text text-anchor="middle" x="152" y="-1610.3" font-family="Times,serif" font-size="14.00">PL26</text>
</g>
<!-- transition4 -->
<g id="node33" class="node"><title>transition4</title>
<polygon fill="none" stroke="black" points="266,-1560 230,-1560 230,-1559 266,-1559 266,-1560"/>
<text text-anchor="middle" x="217" y="-1563.8" font-family="Times,serif" font-size="14.00">aro+</text>
</g>
<!-- PL26&#45;&gt;transition4 -->
<g id="edge35" class="edge"><title>PL26&#45;&gt;transition4</title>
<path fill="none" stroke="black" d="M167.424,-1604.48C189.605,-1592.24 229.359,-1570.29 243.139,-1562.68"/>
<polygon fill="none" stroke="black" points="244.314,-1564.03 247.846,-1560.09 242.623,-1560.97 244.314,-1564.03"/>
</g>
<!-- transition3&#45;&gt;PL26 -->
<g id="edge34" class="edge"><title>transition3&#45;&gt;PL26</title>
<path fill="none" stroke="black" d="M125.02,-1684.95C125.498,-1683.71 134.643,-1660 142.156,-1640.52"/>
<polygon fill="black" stroke="black" points="145.441,-1641.73 145.774,-1631.14 138.91,-1639.21 145.441,-1641.73"/>
</g>
<!-- PL27 -->
<g id="node34" class="node"><title>PL27</title>
<ellipse fill="none" stroke="black" cx="98" cy="-1614" rx="18" ry="18"/>
<text text-anchor="middle" x="98" y="-1610.3" font-family="Times,serif" font-size="14.00">PL27</text>
</g>
<!-- transition3&#45;&gt;PL27 -->
<g id="edge37" class="edge"><title>transition3&#45;&gt;PL27</title>
<path fill="none" stroke="black" d="M124.98,-1684.95C124.502,-1683.71 115.357,-1660 107.844,-1640.52"/>
<polygon fill="black" stroke="black" points="111.09,-1639.21 104.226,-1631.14 104.559,-1641.73 111.09,-1639.21"/>
</g>
<!-- transition4&#45;&gt;PL1 -->
<g id="edge36" class="edge"><title>transition4&#45;&gt;PL1</title>
<path fill="none" stroke="black" d="M248.025,-1560.08C249.054,-1563.37 282,-1669.54 282,-1757 282,-2195 282,-2195 282,-2195 282,-2225.18 268.138,-2257.4 256.942,-2278.51"/>
<polygon fill="black" stroke="black" points="253.816,-2276.93 252.045,-2287.38 259.943,-2280.32 253.816,-2276.93"/>
</g>
<!-- PL27&#45;&gt;transition11 -->
<g id="edge38" class="edge"><title>PL27&#45;&gt;transition11</title>
<path fill="none" stroke="black" d="M98,-1595.94C98,-1585.39 98,-1572.53 98,-1565.41"/>
<polygon fill="none" stroke="black" points="99.7501,-1565.06 98,-1560.06 96.2501,-1565.06 99.7501,-1565.06"/>
</g>
<!-- PL30&#45;&gt;transition9 -->
<g id="edge40" class="edge"><title>PL30&#45;&gt;transition9</title>
<path fill="none" stroke="black" d="M150.436,-1851.52C142.907,-1840.12 132.891,-1824.95 127.977,-1817.51"/>
<polygon fill="none" stroke="black" points="129.259,-1816.27 125.044,-1813.07 126.339,-1818.2 129.259,-1816.27"/>
</g>
<!-- transition25 -->
<g id="node38" class="node"><title>transition25</title>
<polygon fill="none" stroke="black" points="381,-1124 345,-1124 345,-1123 381,-1123 381,-1124"/>
<text text-anchor="middle" x="328" y="-1127.8" font-family="Times,serif" font-size="14.00">mrdc&#45;</text>
</g>
<!-- PL34&#45;&gt;transition25 -->
<g id="edge42" class="edge"><title>PL34&#45;&gt;transition25</title>
<path fill="none" stroke="black" d="M258.561,-1167.13C262.511,-1164.65 266.846,-1162.1 271,-1160 302.743,-1143.98 343.408,-1130.3 357.727,-1125.67"/>
<polygon fill="none" stroke="black" points="358.611,-1127.23 362.847,-1124.05 357.552,-1123.89 358.611,-1127.23"/>
</g>
<!-- PL12 -->
<g id="node37" class="node"><title>PL12</title>
<ellipse fill="none" stroke="black" cx="509" cy="-1069" rx="18" ry="18"/>
<text text-anchor="middle" x="509" y="-1065.3" font-family="Times,serif" font-size="14.00">PL12</text>
</g>
<!-- transition12 -->
<g id="node40" class="node"><title>transition12</title>
<polygon fill="none" stroke="black" points="527,-1015 491,-1015 491,-1014 527,-1014 527,-1015"/>
<text text-anchor="middle" x="475" y="-1018.8" font-family="Times,serif" font-size="14.00">xack&#45;</text>
</g>
<!-- PL12&#45;&gt;transition12 -->
<g id="edge44" class="edge"><title>PL12&#45;&gt;transition12</title>
<path fill="none" stroke="black" d="M509,-1050.94C509,-1040.39 509,-1027.53 509,-1020.41"/>
<polygon fill="none" stroke="black" points="510.75,-1020.06 509,-1015.06 507.25,-1020.06 510.75,-1020.06"/>
</g>
<!-- transition25&#45;&gt;PL12 -->
<g id="edge43" class="edge"><title>transition25&#45;&gt;PL12</title>
<path fill="none" stroke="black" d="M363.106,-1122.96C366.313,-1121.8 441.627,-1094.46 482.755,-1079.53"/>
<polygon fill="black" stroke="black" points="483.966,-1082.81 492.172,-1076.11 481.578,-1076.23 483.966,-1082.81"/>
</g>
<!-- PL13 -->
<g id="node39" class="node"><title>PL13</title>
<ellipse fill="none" stroke="black" cx="509" cy="-960" rx="18" ry="18"/>
<text text-anchor="middle" x="509" y="-956.3" font-family="Times,serif" font-size="14.00">PL13</text>
</g>
<!-- transition18 -->
<g id="node42" class="node"><title>transition18</title>
<polygon fill="none" stroke="black" points="527,-906 491,-906 491,-905 527,-905 527,-906"/>
<text text-anchor="middle" x="485" y="-909.8" font-family="Times,serif" font-size="14.00">x&#45;</text>
</g>
<!-- PL13&#45;&gt;transition18 -->
<g id="edge46" class="edge"><title>PL13&#45;&gt;transition18</title>
<path fill="none" stroke="black" d="M509,-941.939C509,-931.385 509,-918.534 509,-911.412"/>
<polygon fill="none" stroke="black" points="510.75,-911.059 509,-906.059 507.25,-911.059 510.75,-911.059"/>
</g>
<!-- transition12&#45;&gt;PL13 -->
<g id="edge45" class="edge"><title>transition12&#45;&gt;PL13</title>
<path fill="none" stroke="black" d="M509,-1013.85C509,-1012.37 509,-1000.32 509,-988.1"/>
<polygon fill="black" stroke="black" points="512.5,-988.025 509,-978.025 505.5,-988.025 512.5,-988.025"/>
</g>
<!-- PL5 -->
<g id="node41" class="node"><title>PL5</title>
<ellipse fill="none" stroke="black" cx="509" cy="-851" rx="18" ry="18"/>
<text text-anchor="middle" x="509" y="-847.3" font-family="Times,serif" font-size="14.00">PL5</text>
</g>
<!-- transition13 -->
<g id="node44" class="node"><title>transition13</title>
<polygon fill="none" stroke="black" points="527,-797 491,-797 491,-796 527,-796 527,-797"/>
<text text-anchor="middle" x="480" y="-800.8" font-family="Times,serif" font-size="14.00">do+</text>
</g>
<!-- PL5&#45;&gt;transition13 -->
<g id="edge48" class="edge"><title>PL5&#45;&gt;transition13</title>
<path fill="none" stroke="black" d="M509,-832.939C509,-822.385 509,-809.534 509,-802.412"/>
<polygon fill="none" stroke="black" points="510.75,-802.059 509,-797.059 507.25,-802.059 510.75,-802.059"/>
</g>
<!-- transition18&#45;&gt;PL5 -->
<g id="edge47" class="edge"><title>transition18&#45;&gt;PL5</title>
<path fill="none" stroke="black" d="M509,-904.848C509,-903.368 509,-891.319 509,-879.1"/>
<polygon fill="black" stroke="black" points="512.5,-879.025 509,-869.025 505.5,-879.025 512.5,-879.025"/>
</g>
<!-- PL6 -->
<g id="node43" class="node"><title>PL6</title>
<ellipse fill="none" stroke="black" cx="509" cy="-742" rx="18" ry="18"/>
<text text-anchor="middle" x="509" y="-738.3" font-family="Times,serif" font-size="14.00">PL6</text>
</g>
<!-- transition14 -->
<g id="node46" class="node"><title>transition14</title>
<polygon fill="none" stroke="black" points="527,-688 491,-688 491,-687 527,-687 527,-688"/>
<text text-anchor="middle" x="481.5" y="-691.8" font-family="Times,serif" font-size="14.00">di+</text>
</g>
<!-- PL6&#45;&gt;transition14 -->
<g id="edge50" class="edge"><title>PL6&#45;&gt;transition14</title>
<path fill="none" stroke="black" d="M509,-723.939C509,-713.385 509,-700.534 509,-693.412"/>
<polygon fill="none" stroke="black" points="510.75,-693.059 509,-688.059 507.25,-693.059 510.75,-693.059"/>
</g>
<!-- transition13&#45;&gt;PL6 -->
<g id="edge49" class="edge"><title>transition13&#45;&gt;PL6</title>
<path fill="none" stroke="black" d="M509,-795.848C509,-794.368 509,-782.319 509,-770.1"/>
<polygon fill="black" stroke="black" points="512.5,-770.025 509,-760.025 505.5,-770.025 512.5,-770.025"/>
</g>
<!-- PL7 -->
<g id="node45" class="node"><title>PL7</title>
<ellipse fill="none" stroke="black" cx="536" cy="-633" rx="18" ry="18"/>
<text text-anchor="middle" x="536" y="-629.3" font-family="Times,serif" font-size="14.00">PL7</text>
</g>
<!-- transition17 -->
<g id="node48" class="node"><title>transition17</title>
<polygon fill="none" stroke="black" points="554,-579 518,-579 518,-578 554,-578 554,-579"/>
<text text-anchor="middle" x="505" y="-582.8" font-family="Times,serif" font-size="14.00">pdo&#45;</text>
</g>
<!-- PL7&#45;&gt;transition17 -->
<g id="edge52" class="edge"><title>PL7&#45;&gt;transition17</title>
<path fill="none" stroke="black" d="M536,-614.939C536,-604.385 536,-591.534 536,-584.412"/>
<polygon fill="none" stroke="black" points="537.75,-584.059 536,-579.059 534.25,-584.059 537.75,-584.059"/>
</g>
<!-- transition14&#45;&gt;PL7 -->
<g id="edge51" class="edge"><title>transition14&#45;&gt;PL7</title>
<path fill="none" stroke="black" d="M509.077,-686.848C509.884,-685.265 516.85,-671.591 523.494,-658.55"/>
<polygon fill="black" stroke="black" points="526.761,-659.847 528.181,-649.348 520.523,-656.669 526.761,-659.847"/>
</g>
<!-- PL16 -->
<g id="node62" class="node"><title>PL16</title>
<ellipse fill="none" stroke="black" cx="482" cy="-633" rx="18" ry="18"/>
<text text-anchor="middle" x="482" y="-629.3" font-family="Times,serif" font-size="14.00">PL16</text>
</g>
<!-- transition14&#45;&gt;PL16 -->
<g id="edge71" class="edge"><title>transition14&#45;&gt;PL16</title>
<path fill="none" stroke="black" d="M508.923,-686.848C508.116,-685.265 501.15,-671.591 494.506,-658.55"/>
<polygon fill="black" stroke="black" points="497.477,-656.669 489.819,-649.348 491.239,-659.847 497.477,-656.669"/>
</g>
<!-- PL8 -->
<g id="node47" class="node"><title>PL8</title>
<ellipse fill="none" stroke="black" cx="536" cy="-524" rx="18" ry="18"/>
<text text-anchor="middle" x="536" y="-520.3" font-family="Times,serif" font-size="14.00">PL8</text>
</g>
<!-- transition22 -->
<g id="node50" class="node"><title>transition22</title>
<polygon fill="none" stroke="black" points="554,-452.5 518,-452.5 518,-451.5 554,-451.5 554,-452.5"/>
<text text-anchor="middle" x="527.5" y="-456.3" font-family="Times,serif" font-size="14.00">do&#45;</text>
</g>
<!-- PL8&#45;&gt;transition22 -->
<g id="edge54" class="edge"><title>PL8&#45;&gt;transition22</title>
<path fill="none" stroke="black" d="M536,-505.697C536,-490.165 536,-468.324 536,-458.348"/>
<polygon fill="none" stroke="black" points="537.75,-458.092 536,-453.092 534.25,-458.092 537.75,-458.092"/>
</g>
<!-- transition17&#45;&gt;PL8 -->
<g id="edge53" class="edge"><title>transition17&#45;&gt;PL8</title>
<path fill="none" stroke="black" d="M536,-577.848C536,-576.368 536,-564.319 536,-552.1"/>
<polygon fill="black" stroke="black" points="539.5,-552.025 536,-542.025 532.5,-552.025 539.5,-552.025"/>
</g>
<!-- PL14 -->
<g id="node58" class="node"><title>PL14</title>
<ellipse fill="none" stroke="black" cx="482" cy="-452" rx="18" ry="18"/>
<text text-anchor="middle" x="482" y="-448.3" font-family="Times,serif" font-size="14.00">PL14</text>
</g>
<!-- transition17&#45;&gt;PL14 -->
<g id="edge65" class="edge"><title>transition17&#45;&gt;PL14</title>
<path fill="none" stroke="black" d="M535.948,-577.947C534.886,-576.865 517.758,-559.283 509,-542 498.933,-522.134 491.876,-497.839 487.508,-479.655"/>
<polygon fill="black" stroke="black" points="490.881,-478.705 485.244,-469.734 484.057,-480.262 490.881,-478.705"/>
</g>
<!-- PL9 -->
<g id="node49" class="node"><title>PL9</title>
<ellipse fill="none" stroke="black" cx="536" cy="-380" rx="18" ry="18"/>
<text text-anchor="middle" x="536" y="-376.3" font-family="Times,serif" font-size="14.00">PL9</text>
</g>
<!-- transition15 -->
<g id="node52" class="node"><title>transition15</title>
<polygon fill="none" stroke="black" points="554,-308.5 518,-308.5 518,-307.5 554,-307.5 554,-308.5"/>
<text text-anchor="middle" x="510" y="-312.3" font-family="Times,serif" font-size="14.00">di&#45;</text>
</g>
<!-- PL9&#45;&gt;transition15 -->
<g id="edge56" class="edge"><title>PL9&#45;&gt;transition15</title>
<path fill="none" stroke="black" d="M536,-361.697C536,-346.165 536,-324.324 536,-314.348"/>
<polygon fill="none" stroke="black" points="537.75,-314.092 536,-309.092 534.25,-314.092 537.75,-314.092"/>
</g>
<!-- transition22&#45;&gt;PL9 -->
<g id="edge55" class="edge"><title>transition22&#45;&gt;PL9</title>
<path fill="none" stroke="black" d="M536,-450.949C536,-449.748 536,-427.429 536,-408.321"/>
<polygon fill="black" stroke="black" points="539.5,-408.191 536,-398.191 532.5,-408.191 539.5,-408.191"/>
</g>
<!-- PL11 -->
<g id="node51" class="node"><title>PL11</title>
<ellipse fill="none" stroke="black" cx="482" cy="-236" rx="18" ry="18"/>
<text text-anchor="middle" x="482" y="-232.3" font-family="Times,serif" font-size="14.00">PL11</text>
</g>
<!-- PL11&#45;&gt;transition25 -->
<g id="edge58" class="edge"><title>PL11&#45;&gt;transition25</title>
<path fill="none" stroke="black" d="M473.114,-251.84C467.236,-262.217 459.762,-276.569 455,-290 441.483,-328.121 436,-338.553 436,-379 436,-1015 436,-1015 436,-1015 436,-1064.46 382.805,-1108.18 367.234,-1119.91"/>
<polygon fill="none" stroke="black" points="366.062,-1118.6 363.053,-1122.96 368.124,-1121.43 366.062,-1118.6"/>
</g>
<!-- transition15&#45;&gt;PL11 -->
<g id="edge57" class="edge"><title>transition15&#45;&gt;PL11</title>
<path fill="none" stroke="black" d="M535.961,-306.949C534.944,-305.631 514.311,-278.884 498.86,-258.856"/>
<polygon fill="black" stroke="black" points="501.508,-256.558 492.628,-250.778 495.965,-260.833 501.508,-256.558"/>
</g>
<!-- PL10 -->
<g id="node53" class="node"><title>PL10</title>
<ellipse fill="none" stroke="black" cx="536" cy="-236" rx="18" ry="18"/>
<text text-anchor="middle" x="536" y="-232.3" font-family="Times,serif" font-size="14.00">PL10</text>
</g>
<!-- transition15&#45;&gt;PL10 -->
<g id="edge59" class="edge"><title>transition15&#45;&gt;PL10</title>
<path fill="none" stroke="black" d="M536,-306.949C536,-305.748 536,-283.429 536,-264.321"/>
<polygon fill="black" stroke="black" points="539.5,-264.191 536,-254.191 532.5,-264.191 539.5,-264.191"/>
</g>
<!-- transition20 -->
<g id="node55" class="node"><title>transition20</title>
<polygon fill="none" stroke="black" points="527,-182 491,-182 491,-181 527,-181 527,-182"/>
<text text-anchor="middle" x="476.5" y="-185.8" font-family="Times,serif" font-size="14.00">pdo+</text>
</g>
<!-- PL10&#45;&gt;transition20 -->
<g id="edge60" class="edge"><title>PL10&#45;&gt;transition20</title>
<path fill="none" stroke="black" d="M528.19,-219.67C522.517,-208.534 515.204,-194.177 511.455,-186.818"/>
<polygon fill="none" stroke="black" points="512.861,-185.724 509.032,-182.064 509.743,-187.313 512.861,-185.724"/>
</g>
<!-- PL4 -->
<g id="node54" class="node"><title>PL4</title>
<ellipse fill="none" stroke="black" cx="482" cy="-127" rx="18" ry="18"/>
<text text-anchor="middle" x="482" y="-123.3" font-family="Times,serif" font-size="14.00">PL4</text>
</g>
<!-- transition16 -->
<g id="node57" class="node"><title>transition16</title>
<polygon fill="none" stroke="black" points="527,-73 491,-73 491,-72 527,-72 527,-73"/>
<text text-anchor="middle" x="473.5" y="-76.8" font-family="Times,serif" font-size="14.00">pack+</text>
</g>
<!-- PL4&#45;&gt;transition16 -->
<g id="edge62" class="edge"><title>PL4&#45;&gt;transition16</title>
<path fill="none" stroke="black" d="M489.81,-110.67C495.483,-99.5343 502.796,-85.1772 506.545,-77.8184"/>
<polygon fill="none" stroke="black" points="508.257,-78.3132 508.968,-73.0636 505.139,-76.7245 508.257,-78.3132"/>
</g>
<!-- transition20&#45;&gt;PL4 -->
<g id="edge61" class="edge"><title>transition20&#45;&gt;PL4</title>
<path fill="none" stroke="black" d="M508.923,-180.848C508.116,-179.265 501.15,-165.591 494.506,-152.55"/>
<polygon fill="black" stroke="black" points="497.477,-150.669 489.819,-143.348 491.239,-153.847 497.477,-150.669"/>
</g>
<!-- PL36 -->
<g id="node61" class="node"><title>PL36</title>
<ellipse fill="none" stroke="black" cx="536" cy="-127" rx="18" ry="18"/>
<text text-anchor="middle" x="536" y="-123.3" font-family="Times,serif" font-size="14.00">PL36</text>
</g>
<!-- transition20&#45;&gt;PL36 -->
<g id="edge69" class="edge"><title>transition20&#45;&gt;PL36</title>
<path fill="none" stroke="black" d="M509.077,-180.848C509.884,-179.265 516.85,-165.591 523.494,-152.55"/>
<polygon fill="black" stroke="black" points="526.761,-153.847 528.181,-143.348 520.523,-150.669 526.761,-153.847"/>
</g>
<!-- PL35 -->
<g id="node56" class="node"><title>PL35</title>
<ellipse fill="none" stroke="black" cx="545" cy="-18" rx="18" ry="18"/>
<text text-anchor="middle" x="545" y="-14.3" font-family="Times,serif" font-size="14.00">PL35</text>
</g>
<!-- PL35&#45;&gt;transition17 -->
<g id="edge64" class="edge"><title>PL35&#45;&gt;transition17</title>
<path fill="none" stroke="black" d="M553.768,-34.0266C564.71,-54.2317 582,-91.6026 582,-126 582,-453 582,-453 582,-453 582,-493.447 579.748,-505.183 563,-542 556.983,-555.227 545.456,-568.238 539.603,-574.364"/>
<polygon fill="none" stroke="black" points="538.328,-573.164 536.054,-577.948 540.815,-575.626 538.328,-573.164"/>
</g>
<!-- transition16&#45;&gt;PL35 -->
<g id="edge63" class="edge"><title>transition16&#45;&gt;PL35</title>
<path fill="none" stroke="black" d="M509.103,-71.848C510.226,-70.1944 520.311,-55.3471 529.506,-41.8101"/>
<polygon fill="black" stroke="black" points="532.594,-43.4941 535.317,-33.2553 526.803,-39.5609 532.594,-43.4941"/>
</g>
<!-- transition19 -->
<g id="node60" class="node"><title>transition19</title>
<polygon fill="none" stroke="black" points="500,-380.5 464,-380.5 464,-379.5 500,-379.5 500,-380.5"/>
<text text-anchor="middle" x="448" y="-384.3" font-family="Times,serif" font-size="14.00">pack&#45;</text>
</g>
<!-- PL14&#45;&gt;transition19 -->
<g id="edge66" class="edge"><title>PL14&#45;&gt;transition19</title>
<path fill="none" stroke="black" d="M482,-433.697C482,-418.165 482,-396.324 482,-386.348"/>
<polygon fill="none" stroke="black" points="483.75,-386.092 482,-381.092 480.25,-386.092 483.75,-386.092"/>
</g>
<!-- PL15 -->
<g id="node59" class="node"><title>PL15</title>
<ellipse fill="none" stroke="black" cx="482" cy="-308" rx="18" ry="18"/>
<text text-anchor="middle" x="482" y="-304.3" font-family="Times,serif" font-size="14.00">PL15</text>
</g>
<!-- PL15&#45;&gt;transition20 -->
<g id="edge68" class="edge"><title>PL15&#45;&gt;transition20</title>
<path fill="none" stroke="black" d="M471.384,-293.08C458.981,-274.985 441.743,-242.771 455,-218 465.61,-198.175 492.493,-187.382 503.831,-183.587"/>
<polygon fill="none" stroke="black" points="504.62,-185.175 508.884,-182.031 503.59,-181.83 504.62,-185.175"/>
</g>
<!-- transition19&#45;&gt;PL15 -->
<g id="edge67" class="edge"><title>transition19&#45;&gt;PL15</title>
<path fill="none" stroke="black" d="M482,-378.949C482,-377.748 482,-355.429 482,-336.321"/>
<polygon fill="black" stroke="black" points="485.5,-336.191 482,-326.191 478.5,-336.191 485.5,-336.191"/>
</g>
<!-- PL36&#45;&gt;transition18 -->
<g id="edge70" class="edge"><title>PL36&#45;&gt;transition18</title>
<path fill="none" stroke="black" d="M551.018,-137.504C575.179,-154.1 620,-190.836 620,-235 620,-797 620,-797 620,-797 620,-857.081 535.43,-894.561 513.926,-903.12"/>
<polygon fill="none" stroke="black" points="513.127,-901.552 509.08,-904.971 514.376,-904.822 513.127,-901.552"/>
</g>
<!-- transition21 -->
<g id="node64" class="node"><title>transition21</title>
<polygon fill="none" stroke="black" points="381,-579 345,-579 345,-578 381,-578 381,-579"/>
<text text-anchor="middle" x="326.5" y="-582.8" font-family="Times,serif" font-size="14.00">mrdc+</text>
</g>
<!-- PL16&#45;&gt;transition21 -->
<g id="edge72" class="edge"><title>PL16&#45;&gt;transition21</title>
<path fill="none" stroke="black" d="M465.454,-624.631C438.044,-612.423 384.596,-588.618 368.023,-581.237"/>
<polygon fill="none" stroke="black" points="368.33,-579.458 363.051,-579.023 366.906,-582.655 368.33,-579.458"/>
</g>
<!-- PL20 -->
<g id="node63" class="node"><title>PL20</title>
<ellipse fill="none" stroke="black" cx="336" cy="-524" rx="18" ry="18"/>
<text text-anchor="middle" x="336" y="-520.3" font-family="Times,serif" font-size="14.00">PL20</text>
</g>
<!-- transition24 -->
<g id="node66" class="node"><title>transition24</title>
<polygon fill="none" stroke="black" points="354,-452.5 318,-452.5 318,-451.5 354,-451.5 354,-452.5"/>
<text text-anchor="middle" x="300.5" y="-456.3" font-family="Times,serif" font-size="14.00">xack+</text>
</g>
<!-- PL20&#45;&gt;transition24 -->
<g id="edge74" class="edge"><title>PL20&#45;&gt;transition24</title>
<path fill="none" stroke="black" d="M336,-505.697C336,-490.165 336,-468.324 336,-458.348"/>
<polygon fill="none" stroke="black" points="337.75,-458.092 336,-453.092 334.25,-458.092 337.75,-458.092"/>
</g>
<!-- transition21&#45;&gt;PL20 -->
<g id="edge73" class="edge"><title>transition21&#45;&gt;PL20</title>
<path fill="none" stroke="black" d="M362.923,-577.848C362.116,-576.265 355.15,-562.591 348.506,-549.55"/>
<polygon fill="black" stroke="black" points="351.477,-547.669 343.819,-540.348 345.239,-550.847 351.477,-547.669"/>
</g>
<!-- PL18 -->
<g id="node67" class="node"><title>PL18</title>
<ellipse fill="none" stroke="black" cx="244" cy="-524" rx="18" ry="18"/>
<text text-anchor="middle" x="244" y="-520.3" font-family="Times,serif" font-size="14.00">PL18</text>
</g>
<!-- transition21&#45;&gt;PL18 -->
<g id="edge77" class="edge"><title>transition21&#45;&gt;PL18</title>
<path fill="none" stroke="black" d="M362.914,-577.962C360.403,-576.843 303.649,-551.566 269.468,-536.343"/>
<polygon fill="black" stroke="black" points="270.639,-533.033 260.08,-532.162 267.791,-539.427 270.639,-533.033"/>
</g>
<!-- PL17 -->
<g id="node68" class="node"><title>PL17</title>
<ellipse fill="none" stroke="black" cx="390" cy="-524" rx="18" ry="18"/>
<text text-anchor="middle" x="390" y="-520.3" font-family="Times,serif" font-size="14.00">PL17</text>
</g>
<!-- transition21&#45;&gt;PL17 -->
<g id="edge79" class="edge"><title>transition21&#45;&gt;PL17</title>
<path fill="none" stroke="black" d="M363.077,-577.848C363.884,-576.265 370.85,-562.591 377.494,-549.55"/>
<polygon fill="black" stroke="black" points="380.761,-550.847 382.181,-540.348 374.523,-547.669 380.761,-550.847"/>
</g>
<!-- PL21 -->
<g id="node65" class="node"><title>PL21</title>
<ellipse fill="none" stroke="black" cx="313" cy="-380" rx="18" ry="18"/>
<text text-anchor="middle" x="313" y="-376.3" font-family="Times,serif" font-size="14.00">PL21</text>
</g>
<!-- PL21&#45;&gt;transition25 -->
<g id="edge76" class="edge"><title>PL21&#45;&gt;transition25</title>
<path fill="none" stroke="black" d="M308.565,-397.474C301.882,-423.794 290,-477.048 290,-523 290,-1015 290,-1015 290,-1015 290,-1064.46 343.195,-1108.18 358.766,-1119.91"/>
<polygon fill="none" stroke="black" points="357.876,-1121.43 362.947,-1122.96 359.938,-1118.6 357.876,-1121.43"/>
</g>
<!-- transition24&#45;&gt;PL21 -->
<g id="edge75" class="edge"><title>transition24&#45;&gt;PL21</title>
<path fill="none" stroke="black" d="M335.983,-450.949C335.58,-449.722 327.944,-426.482 321.583,-407.122"/>
<polygon fill="black" stroke="black" points="324.865,-405.897 318.418,-397.489 318.214,-408.082 324.865,-405.897"/>
</g>
<!-- PL18&#45;&gt;transition23 -->
<g id="edge78" class="edge"><title>PL18&#45;&gt;transition23</title>
<path fill="none" stroke="black" d="M234.469,-508.496C223.864,-492.358 207.359,-467.242 200.813,-457.28"/>
<polygon fill="none" stroke="black" points="202.275,-456.318 198.066,-453.101 199.35,-458.241 202.275,-456.318"/>
</g>
<!-- PL17&#45;&gt;transition22 -->
<g id="edge80" class="edge"><title>PL17&#45;&gt;transition22</title>
<path fill="none" stroke="black" d="M406.52,-516.519C429.829,-507.178 473.489,-488.962 509,-470 517.246,-465.597 526.352,-459.612 531.602,-456.044"/>
<polygon fill="none" stroke="black" points="532.717,-457.401 535.834,-453.118 530.726,-454.522 532.717,-457.401"/>
</g>
</g>
</svg>
