<?xml version="1.0" encoding="UTF-8" standalone="no"?>
<!DOCTYPE svg PUBLIC "-//W3C//DTD SVG 1.1//EN"
 "http://www.w3.org/Graphics/SVG/1.1/DTD/svg11.dtd">
<!-- Generated by graphviz version 2.38.0 (20140413.2041)
 -->
<!-- Title: %3 Pages: 1 -->
<svg width="507pt" height="2582pt"
 viewBox="0.00 0.00 507.00 2582.00" xmlns="http://www.w3.org/2000/svg" xmlns:xlink="http://www.w3.org/1999/xlink">
<g id="graph0" class="graph" transform="scale(1 1) rotate(0) translate(4 2578)">
<title>%3</title>
<polygon fill="white" stroke="none" points="-4,4 -4,-2578 503,-2578 503,4 -4,4"/>
<!-- PL1 -->
<g id="node1" class="node"><title>PL1</title>
<ellipse fill="none" stroke="black" cx="476" cy="-2556" rx="18" ry="18"/>
<text text-anchor="middle" x="476" y="-2552.3" font-family="Times,serif" font-size="14.00">PL1</text>
</g>
<!-- transition0 -->
<g id="node3" class="node"><title>transition0</title>
<polygon fill="none" stroke="black" points="471,-2502 435,-2502 435,-2501 471,-2501 471,-2502"/>
<text text-anchor="middle" x="423.5" y="-2505.8" font-family="Times,serif" font-size="14.00">ari+</text>
</g>
<!-- PL1&#45;&gt;transition0 -->
<g id="edge1" class="edge"><title>PL1&#45;&gt;transition0</title>
<path fill="none" stroke="black" d="M469.099,-2539.1C464.279,-2527.99 458.169,-2513.91 455.044,-2506.71"/>
<polygon fill="none" stroke="black" points="456.623,-2505.95 453.027,-2502.06 453.412,-2507.35 456.623,-2505.95"/>
</g>
<!-- PL37 -->
<g id="node2" class="node"><title>PL37</title>
<ellipse fill="none" stroke="black" cx="453" cy="-2447" rx="18" ry="18"/>
<text text-anchor="middle" x="453" y="-2443.3" font-family="Times,serif" font-size="14.00">PL37</text>
</g>
<!-- transition5 -->
<g id="node5" class="node"><title>transition5</title>
<polygon fill="none" stroke="black" points="456,-2393 420,-2393 420,-2392 456,-2392 456,-2393"/>
<text text-anchor="middle" x="408" y="-2396.8" font-family="Times,serif" font-size="14.00">pro&#45;</text>
</g>
<!-- PL37&#45;&gt;transition5 -->
<g id="edge3" class="edge"><title>PL37&#45;&gt;transition5</title>
<path fill="none" stroke="black" d="M448.336,-2429.52C445.27,-2418.69 441.463,-2405.23 439.433,-2398.06"/>
<polygon fill="none" stroke="black" points="441.063,-2397.4 438.017,-2393.06 437.695,-2398.35 441.063,-2397.4"/>
</g>
<!-- transition0&#45;&gt;PL37 -->
<g id="edge2" class="edge"><title>transition0&#45;&gt;PL37</title>
<path fill="none" stroke="black" d="M453,-2500.85C453,-2499.37 453,-2487.32 453,-2475.1"/>
<polygon fill="black" stroke="black" points="456.5,-2475.02 453,-2465.02 449.5,-2475.02 456.5,-2475.02"/>
</g>
<!-- PL22 -->
<g id="node4" class="node"><title>PL22</title>
<ellipse fill="none" stroke="black" cx="365" cy="-2338" rx="18" ry="18"/>
<text text-anchor="middle" x="365" y="-2334.3" font-family="Times,serif" font-size="14.00">PL22</text>
</g>
<!-- transition1 -->
<g id="node7" class="node"><title>transition1</title>
<polygon fill="none" stroke="black" points="310,-2266.5 274,-2266.5 274,-2265.5 310,-2265.5 310,-2266.5"/>
<text text-anchor="middle" x="262.5" y="-2270.3" font-family="Times,serif" font-size="14.00">aro&#45;</text>
</g>
<!-- PL22&#45;&gt;transition1 -->
<g id="edge5" class="edge"><title>PL22&#45;&gt;transition1</title>
<path fill="none" stroke="black" d="M352.284,-2324.81C335.347,-2308.57 306.307,-2280.72 295.874,-2270.72"/>
<polygon fill="none" stroke="black" points="296.934,-2269.31 292.114,-2267.11 294.511,-2271.83 296.934,-2269.31"/>
</g>
<!-- transition5&#45;&gt;PL22 -->
<g id="edge4" class="edge"><title>transition5&#45;&gt;PL22</title>
<path fill="none" stroke="black" d="M437.947,-2391.96C436.566,-2390.96 408.43,-2370.53 387.513,-2355.35"/>
<polygon fill="black" stroke="black" points="389.516,-2352.47 379.368,-2349.43 385.404,-2358.14 389.516,-2352.47"/>
</g>
<!-- PL28 -->
<g id="node16" class="node"><title>PL28</title>
<ellipse fill="none" stroke="black" cx="392" cy="-2266" rx="18" ry="18"/>
<text text-anchor="middle" x="392" y="-2262.3" font-family="Times,serif" font-size="14.00">PL28</text>
</g>
<!-- transition5&#45;&gt;PL28 -->
<g id="edge16" class="edge"><title>transition5&#45;&gt;PL28</title>
<path fill="none" stroke="black" d="M437.967,-2391.91C436.989,-2389.25 414.72,-2328.74 401.543,-2292.93"/>
<polygon fill="black" stroke="black" points="404.674,-2291.31 397.936,-2283.13 398.105,-2293.72 404.674,-2291.31"/>
</g>
<!-- PL23 -->
<g id="node6" class="node"><title>PL23</title>
<ellipse fill="none" stroke="black" cx="271" cy="-2194" rx="18" ry="18"/>
<text text-anchor="middle" x="271" y="-2190.3" font-family="Times,serif" font-size="14.00">PL23</text>
</g>
<!-- transition2 -->
<g id="node9" class="node"><title>transition2</title>
<polygon fill="none" stroke="black" points="278,-2122.5 242,-2122.5 242,-2121.5 278,-2121.5 278,-2122.5"/>
<text text-anchor="middle" x="232" y="-2126.3" font-family="Times,serif" font-size="14.00">ari&#45;</text>
</g>
<!-- PL23&#45;&gt;transition2 -->
<g id="edge7" class="edge"><title>PL23&#45;&gt;transition2</title>
<path fill="none" stroke="black" d="M268.337,-2176.05C265.873,-2160.38 262.363,-2138.04 260.802,-2128.1"/>
<polygon fill="none" stroke="black" points="262.52,-2127.76 260.015,-2123.09 259.062,-2128.3 262.52,-2127.76"/>
</g>
<!-- transition1&#45;&gt;PL23 -->
<g id="edge6" class="edge"><title>transition1&#45;&gt;PL23</title>
<path fill="none" stroke="black" d="M291.985,-2264.95C291.617,-2263.72 284.645,-2240.48 278.837,-2221.12"/>
<polygon fill="black" stroke="black" points="282.173,-2220.06 275.947,-2211.49 275.468,-2222.07 282.173,-2220.06"/>
</g>
<!-- PL24 -->
<g id="node8" class="node"><title>PL24</title>
<ellipse fill="none" stroke="black" cx="254" cy="-2050" rx="18" ry="18"/>
<text text-anchor="middle" x="254" y="-2046.3" font-family="Times,serif" font-size="14.00">PL24</text>
</g>
<!-- transition9 -->
<g id="node11" class="node"><title>transition9</title>
<polygon fill="none" stroke="black" points="272,-1996 236,-1996 236,-1995 272,-1995 272,-1996"/>
<text text-anchor="middle" x="222.5" y="-1999.8" font-family="Times,serif" font-size="14.00">pro+</text>
</g>
<!-- PL24&#45;&gt;transition9 -->
<g id="edge9" class="edge"><title>PL24&#45;&gt;transition9</title>
<path fill="none" stroke="black" d="M254,-2031.94C254,-2021.39 254,-2008.53 254,-2001.41"/>
<polygon fill="none" stroke="black" points="255.75,-2001.06 254,-1996.06 252.25,-2001.06 255.75,-2001.06"/>
</g>
<!-- transition2&#45;&gt;PL24 -->
<g id="edge8" class="edge"><title>transition2&#45;&gt;PL24</title>
<path fill="none" stroke="black" d="M259.996,-2120.95C259.893,-2119.75 257.98,-2097.43 256.342,-2078.32"/>
<polygon fill="black" stroke="black" points="259.815,-2077.86 255.474,-2068.19 252.84,-2078.45 259.815,-2077.86"/>
</g>
<!-- PL25 -->
<g id="node10" class="node"><title>PL25</title>
<ellipse fill="none" stroke="black" cx="254" cy="-1941" rx="18" ry="18"/>
<text text-anchor="middle" x="254" y="-1937.3" font-family="Times,serif" font-size="14.00">PL25</text>
</g>
<!-- transition3 -->
<g id="node13" class="node"><title>transition3</title>
<polygon fill="none" stroke="black" points="379,-1887 343,-1887 343,-1886 379,-1886 379,-1887"/>
<text text-anchor="middle" x="332.5" y="-1890.8" font-family="Times,serif" font-size="14.00">pri&#45;</text>
</g>
<!-- PL25&#45;&gt;transition3 -->
<g id="edge11" class="edge"><title>PL25&#45;&gt;transition3</title>
<path fill="none" stroke="black" d="M269.788,-1932.18C294.509,-1919.93 341.087,-1896.86 356.161,-1889.4"/>
<polygon fill="none" stroke="black" points="357.252,-1890.81 360.955,-1887.02 355.698,-1887.67 357.252,-1890.81"/>
</g>
<!-- transition9&#45;&gt;PL25 -->
<g id="edge10" class="edge"><title>transition9&#45;&gt;PL25</title>
<path fill="none" stroke="black" d="M254,-1994.85C254,-1993.37 254,-1981.32 254,-1969.1"/>
<polygon fill="black" stroke="black" points="257.5,-1969.02 254,-1959.02 250.5,-1969.02 257.5,-1969.02"/>
</g>
<!-- PL27 -->
<g id="node12" class="node"><title>PL27</title>
<ellipse fill="none" stroke="black" cx="361" cy="-1832" rx="18" ry="18"/>
<text text-anchor="middle" x="361" y="-1828.3" font-family="Times,serif" font-size="14.00">PL27</text>
</g>
<!-- transition11 -->
<g id="node15" class="node"><title>transition11</title>
<polygon fill="none" stroke="black" points="379,-1778 343,-1778 343,-1777 379,-1777 379,-1778"/>
<text text-anchor="middle" x="328" y="-1781.8" font-family="Times,serif" font-size="14.00">breq&#45;</text>
</g>
<!-- PL27&#45;&gt;transition11 -->
<g id="edge13" class="edge"><title>PL27&#45;&gt;transition11</title>
<path fill="none" stroke="black" d="M361,-1813.94C361,-1803.39 361,-1790.53 361,-1783.41"/>
<polygon fill="none" stroke="black" points="362.75,-1783.06 361,-1778.06 359.25,-1783.06 362.75,-1783.06"/>
</g>
<!-- transition3&#45;&gt;PL27 -->
<g id="edge12" class="edge"><title>transition3&#45;&gt;PL27</title>
<path fill="none" stroke="black" d="M361,-1885.85C361,-1884.37 361,-1872.32 361,-1860.1"/>
<polygon fill="black" stroke="black" points="364.5,-1860.02 361,-1850.02 357.5,-1860.02 364.5,-1860.02"/>
</g>
<!-- PL26 -->
<g id="node67" class="node"><title>PL26</title>
<ellipse fill="none" stroke="black" cx="415" cy="-1832" rx="18" ry="18"/>
<text text-anchor="middle" x="415" y="-1828.3" font-family="Times,serif" font-size="14.00">PL26</text>
</g>
<!-- transition3&#45;&gt;PL26 -->
<g id="edge78" class="edge"><title>transition3&#45;&gt;PL26</title>
<path fill="none" stroke="black" d="M361.155,-1885.85C362.988,-1884.05 380.738,-1866.63 395.365,-1852.27"/>
<polygon fill="black" stroke="black" points="397.943,-1854.65 402.628,-1845.14 393.04,-1849.65 397.943,-1854.65"/>
</g>
<!-- PL2 -->
<g id="node14" class="node"><title>PL2</title>
<ellipse fill="none" stroke="black" cx="476" cy="-1723" rx="18" ry="18"/>
<text text-anchor="middle" x="476" y="-1719.3" font-family="Times,serif" font-size="14.00">PL2</text>
</g>
<!-- PL2&#45;&gt;transition5 -->
<g id="edge15" class="edge"><title>PL2&#45;&gt;transition5</title>
<path fill="none" stroke="black" d="M472.137,-1740.95C467.693,-1761.96 461,-1798.92 461,-1831 461,-2267 461,-2267 461,-2267 461,-2314.35 444.838,-2370.15 439.61,-2386.96"/>
<polygon fill="none" stroke="black" points="437.872,-2386.65 438.017,-2391.95 441.206,-2387.72 437.872,-2386.65"/>
</g>
<!-- transition11&#45;&gt;PL2 -->
<g id="edge14" class="edge"><title>transition11&#45;&gt;PL2</title>
<path fill="none" stroke="black" d="M361.135,-1776.95C363.913,-1775.84 408.905,-1757.9 444,-1741 446.466,-1739.81 449.017,-1738.54 451.554,-1737.24"/>
<polygon fill="black" stroke="black" points="453.269,-1740.29 460.501,-1732.55 450.019,-1734.09 453.269,-1740.29"/>
</g>
<!-- PL38 -->
<g id="node23" class="node"><title>PL38</title>
<ellipse fill="none" stroke="black" cx="346" cy="-1723" rx="18" ry="18"/>
<text text-anchor="middle" x="346" y="-1719.3" font-family="Times,serif" font-size="14.00">PL38</text>
</g>
<!-- transition11&#45;&gt;PL38 -->
<g id="edge24" class="edge"><title>transition11&#45;&gt;PL38</title>
<path fill="none" stroke="black" d="M360.957,-1776.85C360.528,-1775.33 356.97,-1762.76 353.432,-1750.26"/>
<polygon fill="black" stroke="black" points="356.75,-1749.13 350.659,-1740.46 350.014,-1751.04 356.75,-1749.13"/>
</g>
<!-- transition26 -->
<g id="node18" class="node"><title>transition26</title>
<polygon fill="none" stroke="black" points="377,-2194.5 341,-2194.5 341,-2193.5 377,-2193.5 377,-2194.5"/>
<text text-anchor="middle" x="329" y="-2198.3" font-family="Times,serif" font-size="14.00">pri+</text>
</g>
<!-- PL28&#45;&gt;transition26 -->
<g id="edge17" class="edge"><title>PL28&#45;&gt;transition26</title>
<path fill="none" stroke="black" d="M384.676,-2249.46C377.171,-2233.54 365.952,-2209.75 361.226,-2199.72"/>
<polygon fill="none" stroke="black" points="362.761,-2198.87 359.046,-2195.1 359.595,-2200.37 362.761,-2198.87"/>
</g>
<!-- PL29 -->
<g id="node17" class="node"><title>PL29</title>
<ellipse fill="none" stroke="black" cx="337" cy="-2122" rx="18" ry="18"/>
<text text-anchor="middle" x="337" y="-2118.3" font-family="Times,serif" font-size="14.00">PL29</text>
</g>
<!-- transition27 -->
<g id="node20" class="node"><title>transition27</title>
<polygon fill="none" stroke="black" points="291,-1342 255,-1342 255,-1341 291,-1341 291,-1342"/>
<text text-anchor="middle" x="238.5" y="-1345.8" font-family="Times,serif" font-size="14.00">breq+</text>
</g>
<!-- PL29&#45;&gt;transition27 -->
<g id="edge19" class="edge"><title>PL29&#45;&gt;transition27</title>
<path fill="none" stroke="black" d="M329.334,-2105.65C318.496,-2082.49 300,-2036.96 300,-1996 300,-1996 300,-1996 300,-1450 300,-1409.18 281.625,-1362.21 275.192,-1347.02"/>
<polygon fill="none" stroke="black" points="276.681,-1346.05 273.077,-1342.17 273.473,-1347.45 276.681,-1346.05"/>
</g>
<!-- transition26&#45;&gt;PL29 -->
<g id="edge18" class="edge"><title>transition26&#45;&gt;PL29</title>
<path fill="none" stroke="black" d="M358.984,-2192.95C358.598,-2191.72 351.294,-2168.48 345.21,-2149.12"/>
<polygon fill="black" stroke="black" points="348.52,-2147.98 342.182,-2139.49 341.842,-2150.08 348.52,-2147.98"/>
</g>
<!-- PL32 -->
<g id="node19" class="node"><title>PL32</title>
<ellipse fill="none" stroke="black" cx="319" cy="-1287" rx="18" ry="18"/>
<text text-anchor="middle" x="319" y="-1283.3" font-family="Times,serif" font-size="14.00">PL32</text>
</g>
<!-- transition10 -->
<g id="node22" class="node"><title>transition10</title>
<polygon fill="none" stroke="black" points="337,-1233 301,-1233 301,-1232 337,-1232 337,-1233"/>
<text text-anchor="middle" x="284" y="-1236.8" font-family="Times,serif" font-size="14.00">bprn+</text>
</g>
<!-- PL32&#45;&gt;transition10 -->
<g id="edge21" class="edge"><title>PL32&#45;&gt;transition10</title>
<path fill="none" stroke="black" d="M319,-1268.94C319,-1258.39 319,-1245.53 319,-1238.41"/>
<polygon fill="none" stroke="black" points="320.75,-1238.06 319,-1233.06 317.25,-1238.06 320.75,-1238.06"/>
</g>
<!-- transition27&#45;&gt;PL32 -->
<g id="edge20" class="edge"><title>transition27&#45;&gt;PL32</title>
<path fill="none" stroke="black" d="M273.132,-1340.85C274.63,-1339.12 288.599,-1323.03 300.732,-1309.05"/>
<polygon fill="black" stroke="black" points="303.644,-1311.03 307.555,-1301.19 298.357,-1306.44 303.644,-1311.03"/>
</g>
<!-- PL31 -->
<g id="node30" class="node"><title>PL31</title>
<ellipse fill="none" stroke="black" cx="355" cy="-1106" rx="18" ry="18"/>
<text text-anchor="middle" x="355" y="-1102.3" font-family="Times,serif" font-size="14.00">PL31</text>
</g>
<!-- transition27&#45;&gt;PL31 -->
<g id="edge32" class="edge"><title>transition27&#45;&gt;PL31</title>
<path fill="none" stroke="black" d="M273,-1340.92C273.021,-1337.64 273.963,-1231.94 311,-1160 317.329,-1147.71 326.917,-1135.71 335.529,-1126.24"/>
<polygon fill="black" stroke="black" points="338.109,-1128.61 342.44,-1118.94 333.025,-1123.8 338.109,-1128.61"/>
</g>
<!-- PL30 -->
<g id="node33" class="node"><title>PL30</title>
<ellipse fill="none" stroke="black" cx="214" cy="-1287" rx="18" ry="18"/>
<text text-anchor="middle" x="214" y="-1283.3" font-family="Times,serif" font-size="14.00">PL30</text>
</g>
<!-- transition27&#45;&gt;PL30 -->
<g id="edge36" class="edge"><title>transition27&#45;&gt;PL30</title>
<path fill="none" stroke="black" d="M272.831,-1340.85C270.786,-1339.01 250.622,-1320.9 234.462,-1306.38"/>
<polygon fill="black" stroke="black" points="236.726,-1303.71 226.948,-1299.63 232.048,-1308.92 236.726,-1303.71"/>
</g>
<!-- PL33 -->
<g id="node21" class="node"><title>PL33</title>
<ellipse fill="none" stroke="black" cx="338" cy="-1178" rx="18" ry="18"/>
<text text-anchor="middle" x="338" y="-1174.3" font-family="Times,serif" font-size="14.00">PL33</text>
</g>
<!-- PL33&#45;&gt;transition11 -->
<g id="edge23" class="edge"><title>PL33&#45;&gt;transition11</title>
<path fill="none" stroke="black" d="M348.554,-1192.79C372.719,-1225.78 430,-1312.67 430,-1395 430,-1669 430,-1669 430,-1669 430,-1702.73 425.293,-1713.33 406,-1741 394.913,-1756.9 374.832,-1769.35 365.722,-1774.47"/>
<polygon fill="none" stroke="black" points="364.666,-1773.05 361.088,-1776.96 366.321,-1776.13 364.666,-1773.05"/>
</g>
<!-- transition10&#45;&gt;PL33 -->
<g id="edge22" class="edge"><title>transition10&#45;&gt;PL33</title>
<path fill="none" stroke="black" d="M319.055,-1231.85C319.606,-1230.31 324.253,-1217.35 328.805,-1204.65"/>
<polygon fill="black" stroke="black" points="332.119,-1205.78 332.199,-1195.18 325.53,-1203.41 332.119,-1205.78"/>
</g>
<!-- transition6 -->
<g id="node25" class="node"><title>transition6</title>
<polygon fill="none" stroke="black" points="364,-1669 328,-1669 328,-1668 364,-1668 364,-1669"/>
<text text-anchor="middle" x="312.5" y="-1672.8" font-family="Times,serif" font-size="14.00">bprn&#45;</text>
</g>
<!-- PL38&#45;&gt;transition6 -->
<g id="edge25" class="edge"><title>PL38&#45;&gt;transition6</title>
<path fill="none" stroke="black" d="M346,-1704.94C346,-1694.39 346,-1681.53 346,-1674.41"/>
<polygon fill="none" stroke="black" points="347.75,-1674.06 346,-1669.06 344.25,-1674.06 347.75,-1674.06"/>
</g>
<!-- PL39 -->
<g id="node24" class="node"><title>PL39</title>
<ellipse fill="none" stroke="black" cx="346" cy="-1614" rx="18" ry="18"/>
<text text-anchor="middle" x="346" y="-1610.3" font-family="Times,serif" font-size="14.00">PL39</text>
</g>
<!-- transition7 -->
<g id="node27" class="node"><title>transition7</title>
<polygon fill="none" stroke="black" points="272,-1560 236,-1560 236,-1559 272,-1559 272,-1560"/>
<text text-anchor="middle" x="228.5" y="-1563.8" font-family="Times,serif" font-size="14.00">x+</text>
</g>
<!-- PL39&#45;&gt;transition7 -->
<g id="edge27" class="edge"><title>PL39&#45;&gt;transition7</title>
<path fill="none" stroke="black" d="M330.808,-1604.25C309.449,-1591.94 271.691,-1570.19 258.612,-1562.66"/>
<polygon fill="none" stroke="black" points="259.352,-1561.06 254.146,-1560.08 257.605,-1564.1 259.352,-1561.06"/>
</g>
<!-- transition6&#45;&gt;PL39 -->
<g id="edge26" class="edge"><title>transition6&#45;&gt;PL39</title>
<path fill="none" stroke="black" d="M346,-1667.85C346,-1666.37 346,-1654.32 346,-1642.1"/>
<polygon fill="black" stroke="black" points="349.5,-1642.02 346,-1632.02 342.5,-1642.02 349.5,-1642.02"/>
</g>
<!-- PL40 -->
<g id="node26" class="node"><title>PL40</title>
<ellipse fill="none" stroke="black" cx="254" cy="-1505" rx="18" ry="18"/>
<text text-anchor="middle" x="254" y="-1501.3" font-family="Times,serif" font-size="14.00">PL40</text>
</g>
<!-- transition8 -->
<g id="node29" class="node"><title>transition8</title>
<polygon fill="none" stroke="black" points="272,-1451 236,-1451 236,-1450 272,-1450 272,-1451"/>
<text text-anchor="middle" x="220" y="-1454.8" font-family="Times,serif" font-size="14.00">busy&#45;</text>
</g>
<!-- PL40&#45;&gt;transition8 -->
<g id="edge29" class="edge"><title>PL40&#45;&gt;transition8</title>
<path fill="none" stroke="black" d="M254,-1486.94C254,-1476.39 254,-1463.53 254,-1456.41"/>
<polygon fill="none" stroke="black" points="255.75,-1456.06 254,-1451.06 252.25,-1456.06 255.75,-1456.06"/>
</g>
<!-- transition7&#45;&gt;PL40 -->
<g id="edge28" class="edge"><title>transition7&#45;&gt;PL40</title>
<path fill="none" stroke="black" d="M254,-1558.85C254,-1557.37 254,-1545.32 254,-1533.1"/>
<polygon fill="black" stroke="black" points="257.5,-1533.02 254,-1523.02 250.5,-1533.02 257.5,-1533.02"/>
</g>
<!-- PL3 -->
<g id="node28" class="node"><title>PL3</title>
<ellipse fill="none" stroke="black" cx="254" cy="-1396" rx="18" ry="18"/>
<text text-anchor="middle" x="254" y="-1392.3" font-family="Times,serif" font-size="14.00">PL3</text>
</g>
<!-- PL3&#45;&gt;transition27 -->
<g id="edge31" class="edge"><title>PL3&#45;&gt;transition27</title>
<path fill="none" stroke="black" d="M259.804,-1378.81C263.694,-1367.96 268.565,-1354.37 271.164,-1347.12"/>
<polygon fill="none" stroke="black" points="272.938,-1347.36 272.978,-1342.06 269.643,-1346.18 272.938,-1347.36"/>
</g>
<!-- transition8&#45;&gt;PL3 -->
<g id="edge30" class="edge"><title>transition8&#45;&gt;PL3</title>
<path fill="none" stroke="black" d="M254,-1449.85C254,-1448.37 254,-1436.32 254,-1424.1"/>
<polygon fill="black" stroke="black" points="257.5,-1424.02 254,-1414.02 250.5,-1424.02 257.5,-1424.02"/>
</g>
<!-- PL34 -->
<g id="node34" class="node"><title>PL34</title>
<ellipse fill="none" stroke="black" cx="200" cy="-1396" rx="18" ry="18"/>
<text text-anchor="middle" x="200" y="-1392.3" font-family="Times,serif" font-size="14.00">PL34</text>
</g>
<!-- transition8&#45;&gt;PL34 -->
<g id="edge38" class="edge"><title>transition8&#45;&gt;PL34</title>
<path fill="none" stroke="black" d="M253.845,-1449.85C252.012,-1448.05 234.262,-1430.63 219.635,-1416.27"/>
<polygon fill="black" stroke="black" points="221.96,-1413.65 212.372,-1409.14 217.057,-1418.65 221.96,-1413.65"/>
</g>
<!-- transition23 -->
<g id="node32" class="node"><title>transition23</title>
<polygon fill="none" stroke="black" points="375,-618 339,-618 339,-617 375,-617 375,-618"/>
<text text-anchor="middle" x="321.5" y="-621.8" font-family="Times,serif" font-size="14.00">busy+</text>
</g>
<!-- PL31&#45;&gt;transition23 -->
<g id="edge33" class="edge"><title>PL31&#45;&gt;transition23</title>
<path fill="none" stroke="black" d="M355.908,-1087.61C357.088,-1063.47 359,-1018.43 359,-980 359,-980 359,-980 359,-743 359,-696.424 357.595,-640.099 357.14,-623.097"/>
<polygon fill="none" stroke="black" points="358.888,-623.001 357.001,-618.051 355.389,-623.097 358.888,-623.001"/>
</g>
<!-- PL19 -->
<g id="node31" class="node"><title>PL19</title>
<ellipse fill="none" stroke="black" cx="380" cy="-563" rx="18" ry="18"/>
<text text-anchor="middle" x="380" y="-559.3" font-family="Times,serif" font-size="14.00">PL19</text>
</g>
<!-- PL19&#45;&gt;transition11 -->
<g id="edge35" class="edge"><title>PL19&#45;&gt;transition11</title>
<path fill="none" stroke="black" d="M385.685,-580.083C392.496,-600.82 403,-638.129 403,-671 403,-1233 403,-1233 403,-1233 403,-1305.17 392,-1322.83 392,-1395 392,-1669 392,-1669 392,-1669 392,-1710.2 370.903,-1756.92 363.517,-1772.02"/>
<polygon fill="none" stroke="black" points="361.778,-1771.58 361.089,-1776.83 364.903,-1773.16 361.778,-1771.58"/>
</g>
<!-- transition23&#45;&gt;PL19 -->
<g id="edge34" class="edge"><title>transition23&#45;&gt;PL19</title>
<path fill="none" stroke="black" d="M357.066,-616.848C357.738,-615.3 363.429,-602.185 368.974,-589.409"/>
<polygon fill="black" stroke="black" points="372.329,-590.469 373.099,-579.902 365.908,-587.682 372.329,-590.469"/>
</g>
<!-- PL30&#45;&gt;transition9 -->
<g id="edge37" class="edge"><title>PL30&#45;&gt;transition9</title>
<path fill="none" stroke="black" d="M201.568,-1300.24C183.994,-1318.92 154,-1356.45 154,-1395 154,-1887 154,-1887 154,-1887 154,-1943.85 229.519,-1983.45 249.303,-1992.85"/>
<polygon fill="none" stroke="black" points="248.653,-1994.48 253.928,-1994.97 250.109,-1991.3 248.653,-1994.48"/>
</g>
<!-- transition25 -->
<g id="node36" class="node"><title>transition25</title>
<polygon fill="none" stroke="black" points="121,-1342 85,-1342 85,-1341 121,-1341 121,-1342"/>
<text text-anchor="middle" x="68" y="-1345.8" font-family="Times,serif" font-size="14.00">mrdc&#45;</text>
</g>
<!-- PL34&#45;&gt;transition25 -->
<g id="edge39" class="edge"><title>PL34&#45;&gt;transition25</title>
<path fill="none" stroke="black" d="M184.415,-1386.48C162.003,-1374.24 121.835,-1352.29 107.911,-1344.68"/>
<polygon fill="none" stroke="black" points="108.383,-1342.95 103.156,-1342.09 106.704,-1346.02 108.383,-1342.95"/>
</g>
<!-- PL12 -->
<g id="node35" class="node"><title>PL12</title>
<ellipse fill="none" stroke="black" cx="151" cy="-1287" rx="18" ry="18"/>
<text text-anchor="middle" x="151" y="-1283.3" font-family="Times,serif" font-size="14.00">PL12</text>
</g>
<!-- transition12 -->
<g id="node38" class="node"><title>transition12</title>
<polygon fill="none" stroke="black" points="169,-1233 133,-1233 133,-1232 169,-1232 169,-1233"/>
<text text-anchor="middle" x="117" y="-1236.8" font-family="Times,serif" font-size="14.00">xack&#45;</text>
</g>
<!-- PL12&#45;&gt;transition12 -->
<g id="edge41" class="edge"><title>PL12&#45;&gt;transition12</title>
<path fill="none" stroke="black" d="M151,-1268.94C151,-1258.39 151,-1245.53 151,-1238.41"/>
<polygon fill="none" stroke="black" points="152.75,-1238.06 151,-1233.06 149.25,-1238.06 152.75,-1238.06"/>
</g>
<!-- transition25&#45;&gt;PL12 -->
<g id="edge40" class="edge"><title>transition25&#45;&gt;PL12</title>
<path fill="none" stroke="black" d="M103.138,-1340.85C104.724,-1339.1 119.726,-1322.53 132.517,-1308.41"/>
<polygon fill="black" stroke="black" points="135.178,-1310.68 139.296,-1300.92 129.989,-1305.99 135.178,-1310.68"/>
</g>
<!-- PL13 -->
<g id="node37" class="node"><title>PL13</title>
<ellipse fill="none" stroke="black" cx="169" cy="-1178" rx="18" ry="18"/>
<text text-anchor="middle" x="169" y="-1174.3" font-family="Times,serif" font-size="14.00">PL13</text>
</g>
<!-- transition18 -->
<g id="node40" class="node"><title>transition18</title>
<polygon fill="none" stroke="black" points="222,-1106.5 186,-1106.5 186,-1105.5 222,-1105.5 222,-1106.5"/>
<text text-anchor="middle" x="180" y="-1110.3" font-family="Times,serif" font-size="14.00">x&#45;</text>
</g>
<!-- PL13&#45;&gt;transition18 -->
<g id="edge43" class="edge"><title>PL13&#45;&gt;transition18</title>
<path fill="none" stroke="black" d="M176.768,-1161.46C184.728,-1145.54 196.627,-1121.75 201.639,-1111.72"/>
<polygon fill="none" stroke="black" points="203.28,-1112.35 203.951,-1107.1 200.15,-1110.79 203.28,-1112.35"/>
</g>
<!-- transition12&#45;&gt;PL13 -->
<g id="edge42" class="edge"><title>transition12&#45;&gt;PL13</title>
<path fill="none" stroke="black" d="M151.052,-1231.85C151.569,-1230.32 155.89,-1217.6 160.162,-1205.02"/>
<polygon fill="black" stroke="black" points="163.603,-1205.78 163.505,-1195.18 156.975,-1203.52 163.603,-1205.78"/>
</g>
<!-- PL5 -->
<g id="node39" class="node"><title>PL5</title>
<ellipse fill="none" stroke="black" cx="204" cy="-1034" rx="18" ry="18"/>
<text text-anchor="middle" x="204" y="-1030.3" font-family="Times,serif" font-size="14.00">PL5</text>
</g>
<!-- transition13 -->
<g id="node42" class="node"><title>transition13</title>
<polygon fill="none" stroke="black" points="222,-980 186,-980 186,-979 222,-979 222,-980"/>
<text text-anchor="middle" x="175" y="-983.8" font-family="Times,serif" font-size="14.00">do+</text>
</g>
<!-- PL5&#45;&gt;transition13 -->
<g id="edge45" class="edge"><title>PL5&#45;&gt;transition13</title>
<path fill="none" stroke="black" d="M204,-1015.94C204,-1005.39 204,-992.534 204,-985.412"/>
<polygon fill="none" stroke="black" points="205.75,-985.059 204,-980.059 202.25,-985.059 205.75,-985.059"/>
</g>
<!-- transition18&#45;&gt;PL5 -->
<g id="edge44" class="edge"><title>transition18&#45;&gt;PL5</title>
<path fill="none" stroke="black" d="M204,-1104.95C204,-1103.75 204,-1081.43 204,-1062.32"/>
<polygon fill="black" stroke="black" points="207.5,-1062.19 204,-1052.19 200.5,-1062.19 207.5,-1062.19"/>
</g>
<!-- PL6 -->
<g id="node41" class="node"><title>PL6</title>
<ellipse fill="none" stroke="black" cx="204" cy="-925" rx="18" ry="18"/>
<text text-anchor="middle" x="204" y="-921.3" font-family="Times,serif" font-size="14.00">PL6</text>
</g>
<!-- transition14 -->
<g id="node44" class="node"><title>transition14</title>
<polygon fill="none" stroke="black" points="222,-871 186,-871 186,-870 222,-870 222,-871"/>
<text text-anchor="middle" x="176.5" y="-874.8" font-family="Times,serif" font-size="14.00">di+</text>
</g>
<!-- PL6&#45;&gt;transition14 -->
<g id="edge47" class="edge"><title>PL6&#45;&gt;transition14</title>
<path fill="none" stroke="black" d="M204,-906.939C204,-896.385 204,-883.534 204,-876.412"/>
<polygon fill="none" stroke="black" points="205.75,-876.059 204,-871.059 202.25,-876.059 205.75,-876.059"/>
</g>
<!-- transition13&#45;&gt;PL6 -->
<g id="edge46" class="edge"><title>transition13&#45;&gt;PL6</title>
<path fill="none" stroke="black" d="M204,-978.848C204,-977.368 204,-965.319 204,-953.1"/>
<polygon fill="black" stroke="black" points="207.5,-953.025 204,-943.025 200.5,-953.025 207.5,-953.025"/>
</g>
<!-- PL16 -->
<g id="node43" class="node"><title>PL16</title>
<ellipse fill="none" stroke="black" cx="169" cy="-816" rx="18" ry="18"/>
<text text-anchor="middle" x="169" y="-812.3" font-family="Times,serif" font-size="14.00">PL16</text>
</g>
<!-- transition21 -->
<g id="node46" class="node"><title>transition21</title>
<polygon fill="none" stroke="black" points="185,-744.5 149,-744.5 149,-743.5 185,-743.5 185,-744.5"/>
<text text-anchor="middle" x="130.5" y="-748.3" font-family="Times,serif" font-size="14.00">mrdc+</text>
</g>
<!-- PL16&#45;&gt;transition21 -->
<g id="edge49" class="edge"><title>PL16&#45;&gt;transition21</title>
<path fill="none" stroke="black" d="M168.506,-797.697C168.062,-782.165 167.438,-760.324 167.153,-750.348"/>
<polygon fill="none" stroke="black" points="168.895,-750.04 167.003,-745.092 165.396,-750.14 168.895,-750.04"/>
</g>
<!-- transition14&#45;&gt;PL16 -->
<g id="edge48" class="edge"><title>transition14&#45;&gt;PL16</title>
<path fill="none" stroke="black" d="M203.9,-869.848C202.814,-868.204 193.121,-853.526 184.225,-840.055"/>
<polygon fill="black" stroke="black" points="187.024,-837.942 178.593,-831.526 181.183,-841.8 187.024,-837.942"/>
</g>
<!-- PL7 -->
<g id="node66" class="node"><title>PL7</title>
<ellipse fill="none" stroke="black" cx="221" cy="-744" rx="18" ry="18"/>
<text text-anchor="middle" x="221" y="-740.3" font-family="Times,serif" font-size="14.00">PL7</text>
</g>
<!-- transition14&#45;&gt;PL7 -->
<g id="edge76" class="edge"><title>transition14&#45;&gt;PL7</title>
<path fill="none" stroke="black" d="M204.012,-869.909C204.369,-867.283 212.409,-808.167 217.299,-772.216"/>
<polygon fill="black" stroke="black" points="220.823,-772.271 218.703,-761.891 213.887,-771.328 220.823,-772.271"/>
</g>
<!-- PL20 -->
<g id="node45" class="node"><title>PL20</title>
<ellipse fill="none" stroke="black" cx="53" cy="-672" rx="18" ry="18"/>
<text text-anchor="middle" x="53" y="-668.3" font-family="Times,serif" font-size="14.00">PL20</text>
</g>
<!-- transition24 -->
<g id="node48" class="node"><title>transition24</title>
<polygon fill="none" stroke="black" points="71,-618 35,-618 35,-617 71,-617 71,-618"/>
<text text-anchor="middle" x="17.5" y="-621.8" font-family="Times,serif" font-size="14.00">xack+</text>
</g>
<!-- PL20&#45;&gt;transition24 -->
<g id="edge51" class="edge"><title>PL20&#45;&gt;transition24</title>
<path fill="none" stroke="black" d="M53,-653.939C53,-643.385 53,-630.534 53,-623.412"/>
<polygon fill="none" stroke="black" points="54.7501,-623.059 53,-618.059 51.2501,-623.059 54.7501,-623.059"/>
</g>
<!-- transition21&#45;&gt;PL20 -->
<g id="edge50" class="edge"><title>transition21&#45;&gt;PL20</title>
<path fill="none" stroke="black" d="M166.917,-742.949C164.489,-741.458 109.114,-707.456 76.4789,-687.417"/>
<polygon fill="black" stroke="black" points="78.2933,-684.424 67.9401,-682.174 74.6304,-690.389 78.2933,-684.424"/>
</g>
<!-- PL18 -->
<g id="node49" class="node"><title>PL18</title>
<ellipse fill="none" stroke="black" cx="313" cy="-672" rx="18" ry="18"/>
<text text-anchor="middle" x="313" y="-668.3" font-family="Times,serif" font-size="14.00">PL18</text>
</g>
<!-- transition21&#45;&gt;PL18 -->
<g id="edge54" class="edge"><title>transition21&#45;&gt;PL18</title>
<path fill="none" stroke="black" d="M167.166,-742.882C168.804,-741.724 182.273,-732.262 194,-726 225.211,-709.334 262.717,-693.244 287.168,-683.25"/>
<polygon fill="black" stroke="black" points="288.524,-686.478 296.48,-679.481 285.897,-679.989 288.524,-686.478"/>
</g>
<!-- PL17 -->
<g id="node50" class="node"><title>PL17</title>
<ellipse fill="none" stroke="black" cx="167" cy="-672" rx="18" ry="18"/>
<text text-anchor="middle" x="167" y="-668.3" font-family="Times,serif" font-size="14.00">PL17</text>
</g>
<!-- transition21&#45;&gt;PL17 -->
<g id="edge56" class="edge"><title>transition21&#45;&gt;PL17</title>
<path fill="none" stroke="black" d="M167,-742.949C167,-741.748 167,-719.429 167,-700.321"/>
<polygon fill="black" stroke="black" points="170.5,-700.191 167,-690.191 163.5,-700.191 170.5,-700.191"/>
</g>
<!-- PL21 -->
<g id="node47" class="node"><title>PL21</title>
<ellipse fill="none" stroke="black" cx="30" cy="-563" rx="18" ry="18"/>
<text text-anchor="middle" x="30" y="-559.3" font-family="Times,serif" font-size="14.00">PL21</text>
</g>
<!-- PL21&#45;&gt;transition25 -->
<g id="edge53" class="edge"><title>PL21&#45;&gt;transition25</title>
<path fill="none" stroke="black" d="M24.3146,-580.083C17.5036,-600.82 7,-638.129 7,-671 7,-1233 7,-1233 7,-1233 7,-1288.32 78.2211,-1328.47 97.9738,-1338.54"/>
<polygon fill="none" stroke="black" points="97.6707,-1340.34 102.93,-1340.97 99.2121,-1337.19 97.6707,-1340.34"/>
</g>
<!-- transition24&#45;&gt;PL21 -->
<g id="edge52" class="edge"><title>transition24&#45;&gt;PL21</title>
<path fill="none" stroke="black" d="M52.934,-616.848C52.2621,-615.3 46.5707,-602.185 41.0263,-589.409"/>
<polygon fill="black" stroke="black" points="44.0925,-587.682 36.9008,-579.902 37.671,-590.469 44.0925,-587.682"/>
</g>
<!-- PL18&#45;&gt;transition23 -->
<g id="edge55" class="edge"><title>PL18&#45;&gt;transition23</title>
<path fill="none" stroke="black" d="M324.103,-657.626C333.771,-645.981 347.195,-629.811 353.484,-622.235"/>
<polygon fill="none" stroke="black" points="355.095,-623.034 356.943,-618.069 352.402,-620.798 355.095,-623.034"/>
</g>
<!-- transition22 -->
<g id="node52" class="node"><title>transition22</title>
<polygon fill="none" stroke="black" points="185,-618 149,-618 149,-617 185,-617 185,-618"/>
<text text-anchor="middle" x="139.5" y="-621.8" font-family="Times,serif" font-size="14.00">do&#45;</text>
</g>
<!-- PL17&#45;&gt;transition22 -->
<g id="edge57" class="edge"><title>PL17&#45;&gt;transition22</title>
<path fill="none" stroke="black" d="M167,-653.939C167,-643.385 167,-630.534 167,-623.412"/>
<polygon fill="none" stroke="black" points="168.75,-623.059 167,-618.059 165.25,-623.059 168.75,-623.059"/>
</g>
<!-- PL9 -->
<g id="node51" class="node"><title>PL9</title>
<ellipse fill="none" stroke="black" cx="183" cy="-563" rx="18" ry="18"/>
<text text-anchor="middle" x="183" y="-559.3" font-family="Times,serif" font-size="14.00">PL9</text>
</g>
<!-- transition15 -->
<g id="node54" class="node"><title>transition15</title>
<polygon fill="none" stroke="black" points="201,-509 165,-509 165,-508 201,-508 201,-509"/>
<text text-anchor="middle" x="157" y="-512.8" font-family="Times,serif" font-size="14.00">di&#45;</text>
</g>
<!-- PL9&#45;&gt;transition15 -->
<g id="edge59" class="edge"><title>PL9&#45;&gt;transition15</title>
<path fill="none" stroke="black" d="M183,-544.939C183,-534.385 183,-521.534 183,-514.412"/>
<polygon fill="none" stroke="black" points="184.75,-514.059 183,-509.059 181.25,-514.059 184.75,-514.059"/>
</g>
<!-- transition22&#45;&gt;PL9 -->
<g id="edge58" class="edge"><title>transition22&#45;&gt;PL9</title>
<path fill="none" stroke="black" d="M167.046,-616.848C167.503,-615.334 171.299,-602.761 175.073,-590.259"/>
<polygon fill="black" stroke="black" points="178.491,-591.046 178.031,-580.461 171.79,-589.023 178.491,-591.046"/>
</g>
<!-- PL11 -->
<g id="node53" class="node"><title>PL11</title>
<ellipse fill="none" stroke="black" cx="137" cy="-454" rx="18" ry="18"/>
<text text-anchor="middle" x="137" y="-450.3" font-family="Times,serif" font-size="14.00">PL11</text>
</g>
<!-- PL11&#45;&gt;transition25 -->
<g id="edge61" class="edge"><title>PL11&#45;&gt;transition25</title>
<path fill="none" stroke="black" d="M130.554,-471.262C119.712,-500.121 99,-562.401 99,-617 99,-1233 99,-1233 99,-1233 99,-1272.53 101.708,-1320.13 102.668,-1335.76"/>
<polygon fill="none" stroke="black" points="100.935,-1336.08 102.997,-1340.96 104.428,-1335.86 100.935,-1336.08"/>
</g>
<!-- transition15&#45;&gt;PL11 -->
<g id="edge60" class="edge"><title>transition15&#45;&gt;PL11</title>
<path fill="none" stroke="black" d="M182.868,-507.848C181.37,-506.122 167.401,-490.027 155.268,-476.048"/>
<polygon fill="black" stroke="black" points="157.643,-473.444 148.445,-468.186 152.356,-478.033 157.643,-473.444"/>
</g>
<!-- PL10 -->
<g id="node55" class="node"><title>PL10</title>
<ellipse fill="none" stroke="black" cx="191" cy="-454" rx="18" ry="18"/>
<text text-anchor="middle" x="191" y="-450.3" font-family="Times,serif" font-size="14.00">PL10</text>
</g>
<!-- transition15&#45;&gt;PL10 -->
<g id="edge62" class="edge"><title>transition15&#45;&gt;PL10</title>
<path fill="none" stroke="black" d="M183.023,-507.848C183.246,-506.368 185.065,-494.319 186.909,-482.1"/>
<polygon fill="black" stroke="black" points="190.398,-482.435 188.43,-472.025 183.477,-481.39 190.398,-482.435"/>
</g>
<!-- transition20 -->
<g id="node57" class="node"><title>transition20</title>
<polygon fill="none" stroke="black" points="208,-400 172,-400 172,-399 208,-399 208,-400"/>
<text text-anchor="middle" x="157.5" y="-403.8" font-family="Times,serif" font-size="14.00">pdo+</text>
</g>
<!-- PL10&#45;&gt;transition20 -->
<g id="edge63" class="edge"><title>PL10&#45;&gt;transition20</title>
<path fill="none" stroke="black" d="M190.678,-435.939C190.479,-425.385 190.236,-412.534 190.102,-405.412"/>
<polygon fill="none" stroke="black" points="191.845,-405.025 190.001,-400.059 188.346,-405.091 191.845,-405.025"/>
</g>
<!-- PL4 -->
<g id="node56" class="node"><title>PL4</title>
<ellipse fill="none" stroke="black" cx="139" cy="-345" rx="18" ry="18"/>
<text text-anchor="middle" x="139" y="-341.3" font-family="Times,serif" font-size="14.00">PL4</text>
</g>
<!-- transition16 -->
<g id="node59" class="node"><title>transition16</title>
<polygon fill="none" stroke="black" points="156,-291 120,-291 120,-290 156,-290 156,-291"/>
<text text-anchor="middle" x="102.5" y="-294.8" font-family="Times,serif" font-size="14.00">pack+</text>
</g>
<!-- PL4&#45;&gt;transition16 -->
<g id="edge65" class="edge"><title>PL4&#45;&gt;transition16</title>
<path fill="none" stroke="black" d="M138.678,-326.939C138.479,-316.385 138.236,-303.534 138.102,-296.412"/>
<polygon fill="none" stroke="black" points="139.845,-296.025 138.001,-291.059 136.346,-296.091 139.845,-296.025"/>
</g>
<!-- transition20&#45;&gt;PL4 -->
<g id="edge64" class="edge"><title>transition20&#45;&gt;PL4</title>
<path fill="none" stroke="black" d="M189.854,-398.848C188.158,-397.086 172.042,-380.338 158.4,-366.161"/>
<polygon fill="black" stroke="black" points="160.639,-363.44 151.183,-358.661 155.595,-368.294 160.639,-363.44"/>
</g>
<!-- PL36 -->
<g id="node65" class="node"><title>PL36</title>
<ellipse fill="none" stroke="black" cx="235" cy="-345" rx="18" ry="18"/>
<text text-anchor="middle" x="235" y="-341.3" font-family="Times,serif" font-size="14.00">PL36</text>
</g>
<!-- transition20&#45;&gt;PL36 -->
<g id="edge74" class="edge"><title>transition20&#45;&gt;PL36</title>
<path fill="none" stroke="black" d="M190.129,-398.848C191.594,-397.122 205.26,-381.027 217.129,-367.048"/>
<polygon fill="black" stroke="black" points="220,-369.075 223.804,-359.186 214.664,-364.544 220,-369.075"/>
</g>
<!-- PL35 -->
<g id="node58" class="node"><title>PL35</title>
<ellipse fill="none" stroke="black" cx="138" cy="-236" rx="18" ry="18"/>
<text text-anchor="middle" x="138" y="-232.3" font-family="Times,serif" font-size="14.00">PL35</text>
</g>
<!-- transition17 -->
<g id="node61" class="node"><title>transition17</title>
<polygon fill="none" stroke="black" points="175,-182 139,-182 139,-181 175,-181 175,-182"/>
<text text-anchor="middle" x="126" y="-185.8" font-family="Times,serif" font-size="14.00">pdo&#45;</text>
</g>
<!-- PL35&#45;&gt;transition17 -->
<g id="edge67" class="edge"><title>PL35&#45;&gt;transition17</title>
<path fill="none" stroke="black" d="M143.804,-218.81C147.694,-207.958 152.565,-194.372 155.164,-187.121"/>
<polygon fill="none" stroke="black" points="156.938,-187.359 156.978,-182.061 153.643,-186.177 156.938,-187.359"/>
</g>
<!-- transition16&#45;&gt;PL35 -->
<g id="edge66" class="edge"><title>transition16&#45;&gt;PL35</title>
<path fill="none" stroke="black" d="M138,-289.848C138,-288.368 138,-276.319 138,-264.1"/>
<polygon fill="black" stroke="black" points="141.5,-264.025 138,-254.025 134.5,-264.025 141.5,-264.025"/>
</g>
<!-- PL8 -->
<g id="node60" class="node"><title>PL8</title>
<ellipse fill="none" stroke="black" cx="95" cy="-127" rx="18" ry="18"/>
<text text-anchor="middle" x="95" y="-123.3" font-family="Times,serif" font-size="14.00">PL8</text>
</g>
<!-- PL8&#45;&gt;transition22 -->
<g id="edge69" class="edge"><title>PL8&#45;&gt;transition22</title>
<path fill="none" stroke="black" d="M93.9699,-145.042C92.7847,-166.149 91,-203.212 91,-235 91,-455 91,-455 91,-455 91,-524.113 148.395,-595.446 163.43,-612.947"/>
<polygon fill="none" stroke="black" points="162.327,-614.343 166.945,-616.94 164.954,-612.031 162.327,-614.343"/>
</g>
<!-- transition17&#45;&gt;PL8 -->
<g id="edge68" class="edge"><title>transition17&#45;&gt;PL8</title>
<path fill="none" stroke="black" d="M156.955,-180.962C155.823,-179.994 133.531,-160.938 116.009,-145.959"/>
<polygon fill="black" stroke="black" points="118.262,-143.281 108.386,-139.443 113.713,-148.601 118.262,-143.281"/>
</g>
<!-- PL14 -->
<g id="node62" class="node"><title>PL14</title>
<ellipse fill="none" stroke="black" cx="164" cy="-127" rx="18" ry="18"/>
<text text-anchor="middle" x="164" y="-123.3" font-family="Times,serif" font-size="14.00">PL14</text>
</g>
<!-- transition17&#45;&gt;PL14 -->
<g id="edge70" class="edge"><title>transition17&#45;&gt;PL14</title>
<path fill="none" stroke="black" d="M157.02,-180.848C157.216,-179.368 158.807,-167.319 160.421,-155.1"/>
<polygon fill="black" stroke="black" points="163.912,-155.397 161.751,-145.025 156.972,-154.48 163.912,-155.397"/>
</g>
<!-- transition19 -->
<g id="node64" class="node"><title>transition19</title>
<polygon fill="none" stroke="black" points="186,-73 150,-73 150,-72 186,-72 186,-73"/>
<text text-anchor="middle" x="134" y="-76.8" font-family="Times,serif" font-size="14.00">pack&#45;</text>
</g>
<!-- PL14&#45;&gt;transition19 -->
<g id="edge71" class="edge"><title>PL14&#45;&gt;transition19</title>
<path fill="none" stroke="black" d="M165.288,-108.939C166.084,-98.3852 167.054,-85.5344 167.592,-78.4124"/>
<polygon fill="none" stroke="black" points="169.364,-78.1767 167.996,-73.0591 165.874,-77.9132 169.364,-78.1767"/>
</g>
<!-- PL15 -->
<g id="node63" class="node"><title>PL15</title>
<ellipse fill="none" stroke="black" cx="195" cy="-18" rx="18" ry="18"/>
<text text-anchor="middle" x="195" y="-14.3" font-family="Times,serif" font-size="14.00">PL15</text>
</g>
<!-- PL15&#45;&gt;transition20 -->
<g id="edge73" class="edge"><title>PL15&#45;&gt;transition20</title>
<path fill="none" stroke="black" d="M201.674,-34.9972C209.67,-55.6431 222,-92.8555 222,-126 222,-237 222,-237 222,-237 222,-269.312 197.188,-370.33 191.261,-394.001"/>
<polygon fill="none" stroke="black" points="189.549,-393.633 190.023,-398.909 192.943,-394.489 189.549,-393.633"/>
</g>
<!-- transition19&#45;&gt;PL15 -->
<g id="edge72" class="edge"><title>transition19&#45;&gt;PL15</title>
<path fill="none" stroke="black" d="M168.077,-71.848C168.884,-70.265 175.85,-56.5906 182.494,-43.5496"/>
<polygon fill="black" stroke="black" points="185.761,-44.8468 187.181,-34.3476 179.523,-41.6692 185.761,-44.8468"/>
</g>
<!-- PL36&#45;&gt;transition18 -->
<g id="edge75" class="edge"><title>PL36&#45;&gt;transition18</title>
<path fill="none" stroke="black" d="M239.183,-362.68C247.857,-398.776 267,-486.94 267,-562 267,-980 267,-980 267,-980 267,-1033.11 221.092,-1086.63 207.654,-1101.16"/>
<polygon fill="none" stroke="black" points="206.225,-1100.13 204.046,-1104.95 208.761,-1102.54 206.225,-1100.13"/>
</g>
<!-- PL7&#45;&gt;transition17 -->
<g id="edge77" class="edge"><title>PL7&#45;&gt;transition17</title>
<path fill="none" stroke="black" d="M222.775,-726.039C225.132,-702.02 229,-656.708 229,-618 229,-618 229,-618 229,-562 229,-456.531 294.513,-427.333 262,-327 240.685,-261.222 177.121,-200.266 160.835,-185.426"/>
<polygon fill="none" stroke="black" points="161.953,-184.077 157.058,-182.051 159.62,-186.687 161.953,-184.077"/>
</g>
<!-- transition4 -->
<g id="node68" class="node"><title>transition4</title>
<polygon fill="none" stroke="black" points="433,-1778 397,-1778 397,-1777 433,-1777 433,-1778"/>
<text text-anchor="middle" x="384" y="-1781.8" font-family="Times,serif" font-size="14.00">aro+</text>
</g>
<!-- PL26&#45;&gt;transition4 -->
<g id="edge79" class="edge"><title>PL26&#45;&gt;transition4</title>
<path fill="none" stroke="black" d="M415,-1813.94C415,-1803.39 415,-1790.53 415,-1783.41"/>
<polygon fill="none" stroke="black" points="416.75,-1783.06 415,-1778.06 413.25,-1783.06 416.75,-1783.06"/>
</g>
<!-- transition4&#45;&gt;PL1 -->
<g id="edge80" class="edge"><title>transition4&#45;&gt;PL1</title>
<path fill="none" stroke="black" d="M415.061,-1778.03C417.604,-1779.48 499,-1826.14 499,-1886 499,-2448 499,-2448 499,-2448 499,-2476.25 491.243,-2507.77 484.738,-2529.24"/>
<polygon fill="black" stroke="black" points="481.358,-2528.33 481.685,-2538.92 488.033,-2530.43 481.358,-2528.33"/>
</g>
</g>
</svg>
