<?xml version="1.0" encoding="UTF-8" standalone="no"?>
<!DOCTYPE svg PUBLIC "-//W3C//DTD SVG 1.1//EN"
 "http://www.w3.org/Graphics/SVG/1.1/DTD/svg11.dtd">
<!-- Generated by graphviz version 2.38.0 (20140413.2041)
 -->
<!-- Title: %3 Pages: 1 -->
<svg width="748pt" height="2290pt"
 viewBox="0.00 0.00 748.00 2290.00" xmlns="http://www.w3.org/2000/svg" xmlns:xlink="http://www.w3.org/1999/xlink">
<g id="graph0" class="graph" transform="scale(1 1) rotate(0) translate(4 2286)">
<title>%3</title>
<polygon fill="white" stroke="none" points="-4,4 -4,-2286 744,-2286 744,4 -4,4"/>
<!-- PL1 -->
<g id="node1" class="node"><title>PL1</title>
<ellipse fill="none" stroke="black" cx="698" cy="-2264" rx="18" ry="18"/>
<text text-anchor="middle" x="698" y="-2260.3" font-family="Times,serif" font-size="14.00">PL1</text>
</g>
<!-- transition6 -->
<g id="node3" class="node"><title>transition6</title>
<polygon fill="none" stroke="black" points="645,-2210 609,-2210 609,-2209 645,-2209 645,-2210"/>
<text text-anchor="middle" x="597" y="-2213.8" font-family="Times,serif" font-size="14.00">pro&#45;</text>
</g>
<!-- PL1&#45;&gt;transition6 -->
<g id="edge1" class="edge"><title>PL1&#45;&gt;transition6</title>
<path fill="none" stroke="black" d="M683.973,-2252.53C667.53,-2240.25 641.241,-2220.63 631.14,-2213.09"/>
<polygon fill="none" stroke="black" points="632.158,-2211.67 627.105,-2210.08 630.065,-2214.47 632.158,-2211.67"/>
</g>
<!-- PL7 -->
<g id="node2" class="node"><title>PL7</title>
<ellipse fill="none" stroke="black" cx="554" cy="-2155" rx="18" ry="18"/>
<text text-anchor="middle" x="554" y="-2151.3" font-family="Times,serif" font-size="14.00">PL7</text>
</g>
<!-- transition1 -->
<g id="node5" class="node"><title>transition1</title>
<polygon fill="none" stroke="black" points="475,-2083.5 439,-2083.5 439,-2082.5 475,-2082.5 475,-2083.5"/>
<text text-anchor="middle" x="427.5" y="-2087.3" font-family="Times,serif" font-size="14.00">aro&#45;</text>
</g>
<!-- PL7&#45;&gt;transition1 -->
<g id="edge3" class="edge"><title>PL7&#45;&gt;transition1</title>
<path fill="none" stroke="black" d="M539.687,-2143.67C517.224,-2127.46 474.853,-2096.88 461.291,-2087.1"/>
<polygon fill="none" stroke="black" points="462.239,-2085.62 457.161,-2084.12 460.191,-2088.46 462.239,-2085.62"/>
</g>
<!-- transition6&#45;&gt;PL7 -->
<g id="edge2" class="edge"><title>transition6&#45;&gt;PL7</title>
<path fill="none" stroke="black" d="M626.947,-2208.96C625.566,-2207.96 597.43,-2187.53 576.513,-2172.35"/>
<polygon fill="black" stroke="black" points="578.516,-2169.47 568.368,-2166.43 574.404,-2175.14 578.516,-2169.47"/>
</g>
<!-- PL13 -->
<g id="node29" class="node"><title>PL13</title>
<ellipse fill="none" stroke="black" cx="572" cy="-2083" rx="18" ry="18"/>
<text text-anchor="middle" x="572" y="-2079.3" font-family="Times,serif" font-size="14.00">PL13</text>
</g>
<!-- transition6&#45;&gt;PL13 -->
<g id="edge31" class="edge"><title>transition6&#45;&gt;PL13</title>
<path fill="none" stroke="black" d="M626.96,-2208.91C625.783,-2206.23 598.801,-2144.91 583.089,-2109.2"/>
<polygon fill="black" stroke="black" points="586.218,-2107.62 578.987,-2099.88 579.811,-2110.44 586.218,-2107.62"/>
</g>
<!-- PL8 -->
<g id="node4" class="node"><title>PL8</title>
<ellipse fill="none" stroke="black" cx="441" cy="-2011" rx="18" ry="18"/>
<text text-anchor="middle" x="441" y="-2007.3" font-family="Times,serif" font-size="14.00">PL8</text>
</g>
<!-- transition2 -->
<g id="node7" class="node"><title>transition2</title>
<polygon fill="none" stroke="black" points="444,-1939.5 408,-1939.5 408,-1938.5 444,-1938.5 444,-1939.5"/>
<text text-anchor="middle" x="398" y="-1943.3" font-family="Times,serif" font-size="14.00">ari&#45;</text>
</g>
<!-- PL8&#45;&gt;transition2 -->
<g id="edge5" class="edge"><title>PL8&#45;&gt;transition2</title>
<path fill="none" stroke="black" d="M437.369,-1993.05C434.009,-1977.38 429.223,-1955.04 427.094,-1945.1"/>
<polygon fill="none" stroke="black" points="428.779,-1944.62 426.02,-1940.09 425.357,-1945.35 428.779,-1944.62"/>
</g>
<!-- transition1&#45;&gt;PL8 -->
<g id="edge4" class="edge"><title>transition1&#45;&gt;PL8</title>
<path fill="none" stroke="black" d="M456.988,-2081.95C456.711,-2080.74 451.505,-2057.96 447.108,-2038.72"/>
<polygon fill="black" stroke="black" points="450.489,-2037.81 444.849,-2028.84 443.665,-2039.37 450.489,-2037.81"/>
</g>
<!-- PL9 -->
<g id="node6" class="node"><title>PL9</title>
<ellipse fill="none" stroke="black" cx="418" cy="-1867" rx="18" ry="18"/>
<text text-anchor="middle" x="418" y="-1863.3" font-family="Times,serif" font-size="14.00">PL9</text>
</g>
<!-- transition10 -->
<g id="node9" class="node"><title>transition10</title>
<polygon fill="none" stroke="black" points="436,-1813 400,-1813 400,-1812 436,-1812 436,-1813"/>
<text text-anchor="middle" x="386.5" y="-1816.8" font-family="Times,serif" font-size="14.00">pro+</text>
</g>
<!-- PL9&#45;&gt;transition10 -->
<g id="edge7" class="edge"><title>PL9&#45;&gt;transition10</title>
<path fill="none" stroke="black" d="M418,-1848.94C418,-1838.39 418,-1825.53 418,-1818.41"/>
<polygon fill="none" stroke="black" points="419.75,-1818.06 418,-1813.06 416.25,-1818.06 419.75,-1818.06"/>
</g>
<!-- transition2&#45;&gt;PL9 -->
<g id="edge6" class="edge"><title>transition2&#45;&gt;PL9</title>
<path fill="none" stroke="black" d="M425.994,-1937.95C425.857,-1936.75 423.306,-1914.43 421.122,-1895.32"/>
<polygon fill="black" stroke="black" points="424.578,-1894.73 419.965,-1885.19 417.623,-1895.52 424.578,-1894.73"/>
</g>
<!-- PL10 -->
<g id="node8" class="node"><title>PL10</title>
<ellipse fill="none" stroke="black" cx="525" cy="-1758" rx="18" ry="18"/>
<text text-anchor="middle" x="525" y="-1754.3" font-family="Times,serif" font-size="14.00">PL10</text>
</g>
<!-- transition3 -->
<g id="node11" class="node"><title>transition3</title>
<polygon fill="none" stroke="black" points="566,-1704 530,-1704 530,-1703 566,-1703 566,-1704"/>
<text text-anchor="middle" x="519.5" y="-1707.8" font-family="Times,serif" font-size="14.00">pri&#45;</text>
</g>
<!-- PL10&#45;&gt;transition3 -->
<g id="edge9" class="edge"><title>PL10&#45;&gt;transition3</title>
<path fill="none" stroke="black" d="M531.901,-1741.1C536.721,-1729.99 542.831,-1715.91 545.956,-1708.71"/>
<polygon fill="none" stroke="black" points="547.588,-1709.35 547.973,-1704.06 544.377,-1707.95 547.588,-1709.35"/>
</g>
<!-- transition10&#45;&gt;PL10 -->
<g id="edge8" class="edge"><title>transition10&#45;&gt;PL10</title>
<path fill="none" stroke="black" d="M418.078,-1811.96C420.282,-1810.87 468.969,-1786.75 499.876,-1771.44"/>
<polygon fill="black" stroke="black" points="501.797,-1774.4 509.205,-1766.82 498.69,-1768.13 501.797,-1774.4"/>
</g>
<!-- PL11 -->
<g id="node10" class="node"><title>PL11</title>
<ellipse fill="none" stroke="black" cx="602" cy="-1649" rx="18" ry="18"/>
<text text-anchor="middle" x="602" y="-1645.3" font-family="Times,serif" font-size="14.00">PL11</text>
</g>
<!-- transition4 -->
<g id="node13" class="node"><title>transition4</title>
<polygon fill="none" stroke="black" points="620,-1595 584,-1595 584,-1594 620,-1594 620,-1595"/>
<text text-anchor="middle" x="571" y="-1598.8" font-family="Times,serif" font-size="14.00">aro+</text>
</g>
<!-- PL11&#45;&gt;transition4 -->
<g id="edge11" class="edge"><title>PL11&#45;&gt;transition4</title>
<path fill="none" stroke="black" d="M602,-1630.94C602,-1620.39 602,-1607.53 602,-1600.41"/>
<polygon fill="none" stroke="black" points="603.75,-1600.06 602,-1595.06 600.25,-1600.06 603.75,-1600.06"/>
</g>
<!-- transition3&#45;&gt;PL11 -->
<g id="edge10" class="edge"><title>transition3&#45;&gt;PL11</title>
<path fill="none" stroke="black" d="M548.155,-1702.85C549.988,-1701.05 567.738,-1683.63 582.365,-1669.27"/>
<polygon fill="black" stroke="black" points="584.943,-1671.65 589.628,-1662.14 580.04,-1666.65 584.943,-1671.65"/>
</g>
<!-- PL12 -->
<g id="node15" class="node"><title>PL12</title>
<ellipse fill="none" stroke="black" cx="548" cy="-1649" rx="18" ry="18"/>
<text text-anchor="middle" x="548" y="-1645.3" font-family="Times,serif" font-size="14.00">PL12</text>
</g>
<!-- transition3&#45;&gt;PL12 -->
<g id="edge15" class="edge"><title>transition3&#45;&gt;PL12</title>
<path fill="none" stroke="black" d="M548,-1702.85C548,-1701.37 548,-1689.32 548,-1677.1"/>
<polygon fill="black" stroke="black" points="551.5,-1677.02 548,-1667.02 544.5,-1677.02 551.5,-1677.02"/>
</g>
<!-- PL2 -->
<g id="node12" class="node"><title>PL2</title>
<ellipse fill="none" stroke="black" cx="694" cy="-1540" rx="18" ry="18"/>
<text text-anchor="middle" x="694" y="-1536.3" font-family="Times,serif" font-size="14.00">PL2</text>
</g>
<!-- transition5 -->
<g id="node14" class="node"><title>transition5</title>
<polygon fill="none" stroke="black" points="735,-1486 699,-1486 699,-1485 735,-1485 735,-1486"/>
<text text-anchor="middle" x="687.5" y="-1489.8" font-family="Times,serif" font-size="14.00">ari+</text>
</g>
<!-- PL2&#45;&gt;transition5 -->
<g id="edge13" class="edge"><title>PL2&#45;&gt;transition5</title>
<path fill="none" stroke="black" d="M700.901,-1523.1C705.721,-1511.99 711.831,-1497.91 714.956,-1490.71"/>
<polygon fill="none" stroke="black" points="716.588,-1491.35 716.973,-1486.06 713.377,-1489.95 716.588,-1491.35"/>
</g>
<!-- transition4&#45;&gt;PL2 -->
<g id="edge12" class="edge"><title>transition4&#45;&gt;PL2</title>
<path fill="none" stroke="black" d="M602.106,-1593.94C604.278,-1592.8 639.46,-1574.28 667,-1558 668.127,-1557.33 669.275,-1556.65 670.432,-1555.95"/>
<polygon fill="black" stroke="black" points="672.572,-1558.74 679.238,-1550.5 668.891,-1552.78 672.572,-1558.74"/>
</g>
<!-- transition5&#45;&gt;PL1 -->
<g id="edge14" class="edge"><title>transition5&#45;&gt;PL1</title>
<path fill="none" stroke="black" d="M717.017,-1486.04C717.713,-1487.84 740,-1545.69 740,-1594 740,-2156 740,-2156 740,-2156 740,-2186.46 725.071,-2218.63 713.015,-2239.65"/>
<polygon fill="black" stroke="black" points="709.866,-2238.09 707.741,-2248.47 715.875,-2241.68 709.866,-2238.09"/>
</g>
<!-- transition12 -->
<g id="node17" class="node"><title>transition12</title>
<polygon fill="none" stroke="black" points="566,-1595 530,-1595 530,-1594 566,-1594 566,-1595"/>
<text text-anchor="middle" x="515" y="-1598.8" font-family="Times,serif" font-size="14.00">breq&#45;</text>
</g>
<!-- PL12&#45;&gt;transition12 -->
<g id="edge16" class="edge"><title>PL12&#45;&gt;transition12</title>
<path fill="none" stroke="black" d="M548,-1630.94C548,-1620.39 548,-1607.53 548,-1600.41"/>
<polygon fill="none" stroke="black" points="549.75,-1600.06 548,-1595.06 546.25,-1600.06 549.75,-1600.06"/>
</g>
<!-- PL20 -->
<g id="node16" class="node"><title>PL20</title>
<ellipse fill="none" stroke="black" cx="510" cy="-1540" rx="18" ry="18"/>
<text text-anchor="middle" x="510" y="-1536.3" font-family="Times,serif" font-size="14.00">PL20</text>
</g>
<!-- transition7 -->
<g id="node19" class="node"><title>transition7</title>
<polygon fill="none" stroke="black" points="528,-1486 492,-1486 492,-1485 528,-1485 528,-1486"/>
<text text-anchor="middle" x="476.5" y="-1489.8" font-family="Times,serif" font-size="14.00">bprn&#45;</text>
</g>
<!-- PL20&#45;&gt;transition7 -->
<g id="edge18" class="edge"><title>PL20&#45;&gt;transition7</title>
<path fill="none" stroke="black" d="M510,-1521.94C510,-1511.39 510,-1498.53 510,-1491.41"/>
<polygon fill="none" stroke="black" points="511.75,-1491.06 510,-1486.06 508.25,-1491.06 511.75,-1491.06"/>
</g>
<!-- transition12&#45;&gt;PL20 -->
<g id="edge17" class="edge"><title>transition12&#45;&gt;PL20</title>
<path fill="none" stroke="black" d="M547.891,-1593.85C546.687,-1592.17 535.726,-1576.88 525.901,-1563.18"/>
<polygon fill="black" stroke="black" points="528.699,-1561.07 520.028,-1554.99 523.01,-1565.15 528.699,-1561.07"/>
</g>
<!-- PL3 -->
<g id="node28" class="node"><title>PL3</title>
<ellipse fill="none" stroke="black" cx="640" cy="-1540" rx="18" ry="18"/>
<text text-anchor="middle" x="640" y="-1536.3" font-family="Times,serif" font-size="14.00">PL3</text>
</g>
<!-- transition12&#45;&gt;PL3 -->
<g id="edge29" class="edge"><title>transition12&#45;&gt;PL3</title>
<path fill="none" stroke="black" d="M548.067,-1593.96C549.907,-1592.9 589.413,-1570.14 616.032,-1554.81"/>
<polygon fill="black" stroke="black" points="617.91,-1557.77 624.827,-1549.74 614.415,-1551.7 617.91,-1557.77"/>
</g>
<!-- PL21 -->
<g id="node18" class="node"><title>PL21</title>
<ellipse fill="none" stroke="black" cx="510" cy="-1431" rx="18" ry="18"/>
<text text-anchor="middle" x="510" y="-1427.3" font-family="Times,serif" font-size="14.00">PL21</text>
</g>
<!-- transition8 -->
<g id="node21" class="node"><title>transition8</title>
<polygon fill="none" stroke="black" points="528,-1377 492,-1377 492,-1376 528,-1376 528,-1377"/>
<text text-anchor="middle" x="484.5" y="-1380.8" font-family="Times,serif" font-size="14.00">x+</text>
</g>
<!-- PL21&#45;&gt;transition8 -->
<g id="edge20" class="edge"><title>PL21&#45;&gt;transition8</title>
<path fill="none" stroke="black" d="M510,-1412.94C510,-1402.39 510,-1389.53 510,-1382.41"/>
<polygon fill="none" stroke="black" points="511.75,-1382.06 510,-1377.06 508.25,-1382.06 511.75,-1382.06"/>
</g>
<!-- transition7&#45;&gt;PL21 -->
<g id="edge19" class="edge"><title>transition7&#45;&gt;PL21</title>
<path fill="none" stroke="black" d="M510,-1484.85C510,-1483.37 510,-1471.32 510,-1459.1"/>
<polygon fill="black" stroke="black" points="513.5,-1459.02 510,-1449.02 506.5,-1459.02 513.5,-1459.02"/>
</g>
<!-- PL22 -->
<g id="node20" class="node"><title>PL22</title>
<ellipse fill="none" stroke="black" cx="418" cy="-1322" rx="18" ry="18"/>
<text text-anchor="middle" x="418" y="-1318.3" font-family="Times,serif" font-size="14.00">PL22</text>
</g>
<!-- transition9 -->
<g id="node23" class="node"><title>transition9</title>
<polygon fill="none" stroke="black" points="436,-1268 400,-1268 400,-1267 436,-1267 436,-1268"/>
<text text-anchor="middle" x="384" y="-1271.8" font-family="Times,serif" font-size="14.00">busy&#45;</text>
</g>
<!-- PL22&#45;&gt;transition9 -->
<g id="edge22" class="edge"><title>PL22&#45;&gt;transition9</title>
<path fill="none" stroke="black" d="M418,-1303.94C418,-1293.39 418,-1280.53 418,-1273.41"/>
<polygon fill="none" stroke="black" points="419.75,-1273.06 418,-1268.06 416.25,-1273.06 419.75,-1273.06"/>
</g>
<!-- transition8&#45;&gt;PL22 -->
<g id="edge21" class="edge"><title>transition8&#45;&gt;PL22</title>
<path fill="none" stroke="black" d="M509.933,-1375.96C508.093,-1374.9 468.587,-1352.14 441.968,-1336.81"/>
<polygon fill="black" stroke="black" points="443.585,-1333.7 433.173,-1331.74 440.09,-1339.77 443.585,-1333.7"/>
</g>
<!-- PL4 -->
<g id="node22" class="node"><title>PL4</title>
<ellipse fill="none" stroke="black" cx="418" cy="-1213" rx="18" ry="18"/>
<text text-anchor="middle" x="418" y="-1209.3" font-family="Times,serif" font-size="14.00">PL4</text>
</g>
<!-- transition28 -->
<g id="node25" class="node"><title>transition28</title>
<polygon fill="none" stroke="black" points="482,-1159 446,-1159 446,-1158 482,-1158 482,-1159"/>
<text text-anchor="middle" x="429.5" y="-1162.8" font-family="Times,serif" font-size="14.00">breq+</text>
</g>
<!-- PL4&#45;&gt;transition28 -->
<g id="edge24" class="edge"><title>PL4&#45;&gt;transition28</title>
<path fill="none" stroke="black" d="M429.371,-1198.9C439.474,-1187.26 453.64,-1170.94 460.285,-1163.28"/>
<polygon fill="none" stroke="black" points="461.984,-1163.99 463.939,-1159.07 459.34,-1161.7 461.984,-1163.99"/>
</g>
<!-- transition9&#45;&gt;PL4 -->
<g id="edge23" class="edge"><title>transition9&#45;&gt;PL4</title>
<path fill="none" stroke="black" d="M418,-1266.85C418,-1265.37 418,-1253.32 418,-1241.1"/>
<polygon fill="black" stroke="black" points="421.5,-1241.02 418,-1231.02 414.5,-1241.02 421.5,-1241.02"/>
</g>
<!-- PL23 -->
<g id="node36" class="node"><title>PL23</title>
<ellipse fill="none" stroke="black" cx="326" cy="-1213" rx="18" ry="18"/>
<text text-anchor="middle" x="326" y="-1209.3" font-family="Times,serif" font-size="14.00">PL23</text>
</g>
<!-- transition9&#45;&gt;PL23 -->
<g id="edge41" class="edge"><title>transition9&#45;&gt;PL23</title>
<path fill="none" stroke="black" d="M417.933,-1266.96C416.093,-1265.9 376.587,-1243.14 349.968,-1227.81"/>
<polygon fill="black" stroke="black" points="351.585,-1224.7 341.173,-1222.74 348.09,-1230.77 351.585,-1224.7"/>
</g>
<!-- PL18 -->
<g id="node24" class="node"><title>PL18</title>
<ellipse fill="none" stroke="black" cx="510" cy="-1104" rx="18" ry="18"/>
<text text-anchor="middle" x="510" y="-1100.3" font-family="Times,serif" font-size="14.00">PL18</text>
</g>
<!-- transition11 -->
<g id="node27" class="node"><title>transition11</title>
<polygon fill="none" stroke="black" points="528,-1050 492,-1050 492,-1049 528,-1049 528,-1050"/>
<text text-anchor="middle" x="475" y="-1053.8" font-family="Times,serif" font-size="14.00">bprn+</text>
</g>
<!-- PL18&#45;&gt;transition11 -->
<g id="edge26" class="edge"><title>PL18&#45;&gt;transition11</title>
<path fill="none" stroke="black" d="M510,-1085.94C510,-1075.39 510,-1062.53 510,-1055.41"/>
<polygon fill="none" stroke="black" points="511.75,-1055.06 510,-1050.06 508.25,-1055.06 511.75,-1055.06"/>
</g>
<!-- transition28&#45;&gt;PL18 -->
<g id="edge25" class="edge"><title>transition28&#45;&gt;PL18</title>
<path fill="none" stroke="black" d="M464.132,-1157.85C465.63,-1156.12 479.599,-1140.03 491.732,-1126.05"/>
<polygon fill="black" stroke="black" points="494.644,-1128.03 498.555,-1118.19 489.357,-1123.44 494.644,-1128.03"/>
</g>
<!-- PL16 -->
<g id="node32" class="node"><title>PL16</title>
<ellipse fill="none" stroke="black" cx="464" cy="-923" rx="18" ry="18"/>
<text text-anchor="middle" x="464" y="-919.3" font-family="Times,serif" font-size="14.00">PL16</text>
</g>
<!-- transition28&#45;&gt;PL16 -->
<g id="edge35" class="edge"><title>transition28&#45;&gt;PL16</title>
<path fill="none" stroke="black" d="M464,-1157.96C464,-1155.13 464,-1012.61 464,-951.424"/>
<polygon fill="black" stroke="black" points="467.5,-951.331 464,-941.331 460.5,-951.331 467.5,-951.331"/>
</g>
<!-- PL15 -->
<g id="node35" class="node"><title>PL15</title>
<ellipse fill="none" stroke="black" cx="418" cy="-1104" rx="18" ry="18"/>
<text text-anchor="middle" x="418" y="-1100.3" font-family="Times,serif" font-size="14.00">PL15</text>
</g>
<!-- transition28&#45;&gt;PL15 -->
<g id="edge39" class="edge"><title>transition28&#45;&gt;PL15</title>
<path fill="none" stroke="black" d="M463.868,-1157.85C462.37,-1156.12 448.401,-1140.03 436.268,-1126.05"/>
<polygon fill="black" stroke="black" points="438.643,-1123.44 429.445,-1118.19 433.356,-1128.03 438.643,-1123.44"/>
</g>
<!-- PL19 -->
<g id="node26" class="node"><title>PL19</title>
<ellipse fill="none" stroke="black" cx="529" cy="-995" rx="18" ry="18"/>
<text text-anchor="middle" x="529" y="-991.3" font-family="Times,serif" font-size="14.00">PL19</text>
</g>
<!-- PL19&#45;&gt;transition12 -->
<g id="edge28" class="edge"><title>PL19&#45;&gt;transition12</title>
<path fill="none" stroke="black" d="M535.674,-1012C543.67,-1032.64 556,-1069.86 556,-1103 556,-1486 556,-1486 556,-1486 556,-1525.61 550.583,-1573.16 548.664,-1588.76"/>
<polygon fill="none" stroke="black" points="546.898,-1588.78 548.006,-1593.96 550.371,-1589.22 546.898,-1588.78"/>
</g>
<!-- transition11&#45;&gt;PL19 -->
<g id="edge27" class="edge"><title>transition11&#45;&gt;PL19</title>
<path fill="none" stroke="black" d="M510.055,-1048.85C510.606,-1047.31 515.253,-1034.35 519.805,-1021.65"/>
<polygon fill="black" stroke="black" points="523.119,-1022.78 523.199,-1012.18 516.53,-1020.41 523.119,-1022.78"/>
</g>
<!-- PL3&#45;&gt;transition6 -->
<g id="edge30" class="edge"><title>PL3&#45;&gt;transition6</title>
<path fill="none" stroke="black" d="M642.06,-1558.02C644.431,-1579.11 648,-1616.15 648,-1648 648,-2084 648,-2084 648,-2084 648,-2131.22 633.244,-2187.11 628.47,-2203.95"/>
<polygon fill="none" stroke="black" points="626.733,-2203.66 627.015,-2208.95 630.094,-2204.64 626.733,-2203.66"/>
</g>
<!-- transition27 -->
<g id="node31" class="node"><title>transition27</title>
<polygon fill="none" stroke="black" points="559,-2011.5 523,-2011.5 523,-2010.5 559,-2010.5 559,-2011.5"/>
<text text-anchor="middle" x="511" y="-2015.3" font-family="Times,serif" font-size="14.00">pri+</text>
</g>
<!-- PL13&#45;&gt;transition27 -->
<g id="edge32" class="edge"><title>PL13&#45;&gt;transition27</title>
<path fill="none" stroke="black" d="M564.966,-2066.12C557.905,-2050.17 547.463,-2026.59 543.069,-2016.67"/>
<polygon fill="none" stroke="black" points="544.668,-2015.96 541.043,-2012.1 541.467,-2017.38 544.668,-2015.96"/>
</g>
<!-- PL14 -->
<g id="node30" class="node"><title>PL14</title>
<ellipse fill="none" stroke="black" cx="511" cy="-1939" rx="18" ry="18"/>
<text text-anchor="middle" x="511" y="-1935.3" font-family="Times,serif" font-size="14.00">PL14</text>
</g>
<!-- PL14&#45;&gt;transition28 -->
<g id="edge34" class="edge"><title>PL14&#45;&gt;transition28</title>
<path fill="none" stroke="black" d="M501.489,-1923.28C487.755,-1900.57 464,-1855.2 464,-1813 464,-1813 464,-1813 464,-1267 464,-1227.5 464,-1179.88 464,-1164.25"/>
<polygon fill="none" stroke="black" points="465.75,-1164.04 464,-1159.04 462.25,-1164.04 465.75,-1164.04"/>
</g>
<!-- transition27&#45;&gt;PL14 -->
<g id="edge33" class="edge"><title>transition27&#45;&gt;PL14</title>
<path fill="none" stroke="black" d="M540.978,-2009.95C540.444,-2008.7 530.169,-1984.73 521.795,-1965.19"/>
<polygon fill="black" stroke="black" points="524.926,-1963.61 517.77,-1955.8 518.492,-1966.37 524.926,-1963.61"/>
</g>
<!-- transition24 -->
<g id="node34" class="node"><title>transition24</title>
<polygon fill="none" stroke="black" points="482,-452.5 446,-452.5 446,-451.5 482,-451.5 482,-452.5"/>
<text text-anchor="middle" x="428.5" y="-456.3" font-family="Times,serif" font-size="14.00">busy+</text>
</g>
<!-- PL16&#45;&gt;transition24 -->
<g id="edge36" class="edge"><title>PL16&#45;&gt;transition24</title>
<path fill="none" stroke="black" d="M464,-904.609C464,-880.462 464,-835.411 464,-797 464,-797 464,-797 464,-578 464,-531.43 464,-475.101 464,-458.098"/>
<polygon fill="none" stroke="black" points="465.75,-458.051 464,-453.051 462.25,-458.051 465.75,-458.051"/>
</g>
<!-- PL17 -->
<g id="node33" class="node"><title>PL17</title>
<ellipse fill="none" stroke="black" cx="529" cy="-380" rx="18" ry="18"/>
<text text-anchor="middle" x="529" y="-376.3" font-family="Times,serif" font-size="14.00">PL17</text>
</g>
<!-- PL17&#45;&gt;transition12 -->
<g id="edge38" class="edge"><title>PL17&#45;&gt;transition12</title>
<path fill="none" stroke="black" d="M540.026,-394.558C558.571,-418.779 594,-471.757 594,-523 594,-1486 594,-1486 594,-1486 594,-1529.43 562.118,-1575.4 551.439,-1589.58"/>
<polygon fill="none" stroke="black" points="549.817,-1588.82 548.132,-1593.84 552.581,-1590.96 549.817,-1588.82"/>
</g>
<!-- transition24&#45;&gt;PL17 -->
<g id="edge37" class="edge"><title>transition24&#45;&gt;PL17</title>
<path fill="none" stroke="black" d="M464.047,-450.949C465.303,-449.597 491.393,-421.5 510.118,-401.334"/>
<polygon fill="black" stroke="black" points="512.871,-403.513 517.111,-393.803 507.742,-398.75 512.871,-403.513"/>
</g>
<!-- PL15&#45;&gt;transition10 -->
<g id="edge40" class="edge"><title>PL15&#45;&gt;transition10</title>
<path fill="none" stroke="black" d="M407.562,-1119.06C393.99,-1138.76 372,-1176.21 372,-1212 372,-1704 372,-1704 372,-1704 372,-1747.43 403.882,-1793.4 414.561,-1807.58"/>
<polygon fill="none" stroke="black" points="413.419,-1808.96 417.868,-1811.84 416.183,-1806.82 413.419,-1808.96"/>
</g>
<!-- transition26 -->
<g id="node38" class="node"><title>transition26</title>
<polygon fill="none" stroke="black" points="344,-1159 308,-1159 308,-1158 344,-1158 344,-1159"/>
<text text-anchor="middle" x="291" y="-1162.8" font-family="Times,serif" font-size="14.00">mrdc&#45;</text>
</g>
<!-- PL23&#45;&gt;transition26 -->
<g id="edge42" class="edge"><title>PL23&#45;&gt;transition26</title>
<path fill="none" stroke="black" d="M326,-1194.94C326,-1184.39 326,-1171.53 326,-1164.41"/>
<polygon fill="none" stroke="black" points="327.75,-1164.06 326,-1159.06 324.25,-1164.06 327.75,-1164.06"/>
</g>
<!-- PL24 -->
<g id="node37" class="node"><title>PL24</title>
<ellipse fill="none" stroke="black" cx="326" cy="-1104" rx="18" ry="18"/>
<text text-anchor="middle" x="326" y="-1100.3" font-family="Times,serif" font-size="14.00">PL24</text>
</g>
<!-- transition13 -->
<g id="node40" class="node"><title>transition13</title>
<polygon fill="none" stroke="black" points="344,-1050 308,-1050 308,-1049 344,-1049 344,-1050"/>
<text text-anchor="middle" x="292" y="-1053.8" font-family="Times,serif" font-size="14.00">xack&#45;</text>
</g>
<!-- PL24&#45;&gt;transition13 -->
<g id="edge44" class="edge"><title>PL24&#45;&gt;transition13</title>
<path fill="none" stroke="black" d="M326,-1085.94C326,-1075.39 326,-1062.53 326,-1055.41"/>
<polygon fill="none" stroke="black" points="327.75,-1055.06 326,-1050.06 324.25,-1055.06 327.75,-1055.06"/>
</g>
<!-- transition26&#45;&gt;PL24 -->
<g id="edge43" class="edge"><title>transition26&#45;&gt;PL24</title>
<path fill="none" stroke="black" d="M326,-1157.85C326,-1156.37 326,-1144.32 326,-1132.1"/>
<polygon fill="black" stroke="black" points="329.5,-1132.02 326,-1122.02 322.5,-1132.02 329.5,-1132.02"/>
</g>
<!-- PL25 -->
<g id="node39" class="node"><title>PL25</title>
<ellipse fill="none" stroke="black" cx="326" cy="-995" rx="18" ry="18"/>
<text text-anchor="middle" x="326" y="-991.3" font-family="Times,serif" font-size="14.00">PL25</text>
</g>
<!-- transition19 -->
<g id="node42" class="node"><title>transition19</title>
<polygon fill="none" stroke="black" points="344,-923.5 308,-923.5 308,-922.5 344,-922.5 344,-923.5"/>
<text text-anchor="middle" x="302" y="-927.3" font-family="Times,serif" font-size="14.00">x&#45;</text>
</g>
<!-- PL25&#45;&gt;transition19 -->
<g id="edge46" class="edge"><title>PL25&#45;&gt;transition19</title>
<path fill="none" stroke="black" d="M326,-976.697C326,-961.165 326,-939.324 326,-929.348"/>
<polygon fill="none" stroke="black" points="327.75,-929.092 326,-924.092 324.25,-929.092 327.75,-929.092"/>
</g>
<!-- transition13&#45;&gt;PL25 -->
<g id="edge45" class="edge"><title>transition13&#45;&gt;PL25</title>
<path fill="none" stroke="black" d="M326,-1048.85C326,-1047.37 326,-1035.32 326,-1023.1"/>
<polygon fill="black" stroke="black" points="329.5,-1023.02 326,-1013.02 322.5,-1023.02 329.5,-1023.02"/>
</g>
<!-- PL6 -->
<g id="node41" class="node"><title>PL6</title>
<ellipse fill="none" stroke="black" cx="257" cy="-851" rx="18" ry="18"/>
<text text-anchor="middle" x="257" y="-847.3" font-family="Times,serif" font-size="14.00">PL6</text>
</g>
<!-- transition14 -->
<g id="node44" class="node"><title>transition14</title>
<polygon fill="none" stroke="black" points="275,-797 239,-797 239,-796 275,-796 275,-797"/>
<text text-anchor="middle" x="228" y="-800.8" font-family="Times,serif" font-size="14.00">do+</text>
</g>
<!-- PL6&#45;&gt;transition14 -->
<g id="edge48" class="edge"><title>PL6&#45;&gt;transition14</title>
<path fill="none" stroke="black" d="M257,-832.939C257,-822.385 257,-809.534 257,-802.412"/>
<polygon fill="none" stroke="black" points="258.75,-802.059 257,-797.059 255.25,-802.059 258.75,-802.059"/>
</g>
<!-- transition19&#45;&gt;PL6 -->
<g id="edge47" class="edge"><title>transition19&#45;&gt;PL6</title>
<path fill="none" stroke="black" d="M325.95,-921.949C324.604,-920.584 296.373,-891.944 276.458,-871.74"/>
<polygon fill="black" stroke="black" points="278.819,-869.149 269.306,-864.484 273.833,-874.063 278.819,-869.149"/>
</g>
<!-- PL34 -->
<g id="node43" class="node"><title>PL34</title>
<ellipse fill="none" stroke="black" cx="244" cy="-742" rx="18" ry="18"/>
<text text-anchor="middle" x="244" y="-738.3" font-family="Times,serif" font-size="14.00">PL34</text>
</g>
<!-- transition15 -->
<g id="node46" class="node"><title>transition15</title>
<polygon fill="none" stroke="black" points="248,-688 212,-688 212,-687 248,-687 248,-688"/>
<text text-anchor="middle" x="202.5" y="-691.8" font-family="Times,serif" font-size="14.00">di+</text>
</g>
<!-- PL34&#45;&gt;transition15 -->
<g id="edge50" class="edge"><title>PL34&#45;&gt;transition15</title>
<path fill="none" stroke="black" d="M239.647,-724.521C236.785,-713.688 233.232,-700.235 231.337,-693.062"/>
<polygon fill="none" stroke="black" points="232.985,-692.448 230.016,-688.061 229.601,-693.342 232.985,-692.448"/>
</g>
<!-- transition14&#45;&gt;PL34 -->
<g id="edge49" class="edge"><title>transition14&#45;&gt;PL34</title>
<path fill="none" stroke="black" d="M256.963,-795.848C256.594,-794.344 253.546,-781.919 250.499,-769.496"/>
<polygon fill="black" stroke="black" points="253.888,-768.621 248.107,-759.742 247.09,-770.288 253.888,-768.621"/>
</g>
<!-- PL35 -->
<g id="node45" class="node"><title>PL35</title>
<ellipse fill="none" stroke="black" cx="88" cy="-633" rx="18" ry="18"/>
<text text-anchor="middle" x="88" y="-629.3" font-family="Times,serif" font-size="14.00">PL35</text>
</g>
<!-- transition18 -->
<g id="node48" class="node"><title>transition18</title>
<polygon fill="none" stroke="black" points="79,-579 43,-579 43,-578 79,-578 79,-579"/>
<text text-anchor="middle" x="30" y="-582.8" font-family="Times,serif" font-size="14.00">pdo&#45;</text>
</g>
<!-- PL35&#45;&gt;transition18 -->
<g id="edge52" class="edge"><title>PL35&#45;&gt;transition18</title>
<path fill="none" stroke="black" d="M80.1905,-616.67C74.5175,-605.534 67.2035,-591.177 63.4547,-583.818"/>
<polygon fill="none" stroke="black" points="64.8614,-582.724 61.0324,-579.064 61.7428,-584.313 64.8614,-582.724"/>
</g>
<!-- transition15&#45;&gt;PL35 -->
<g id="edge51" class="edge"><title>transition15&#45;&gt;PL35</title>
<path fill="none" stroke="black" d="M229.897,-686.962C226.792,-685.803 154.199,-658.708 114.079,-643.734"/>
<polygon fill="black" stroke="black" points="115.234,-640.429 104.641,-640.211 112.786,-646.987 115.234,-640.429"/>
</g>
<!-- PL36 -->
<g id="node62" class="node"><title>PL36</title>
<ellipse fill="none" stroke="black" cx="230" cy="-633" rx="18" ry="18"/>
<text text-anchor="middle" x="230" y="-629.3" font-family="Times,serif" font-size="14.00">PL36</text>
</g>
<!-- transition15&#45;&gt;PL36 -->
<g id="edge71" class="edge"><title>transition15&#45;&gt;PL36</title>
<path fill="none" stroke="black" d="M230,-686.848C230,-685.368 230,-673.319 230,-661.1"/>
<polygon fill="black" stroke="black" points="233.5,-661.025 230,-651.025 226.5,-661.025 233.5,-661.025"/>
</g>
<!-- PL27 -->
<g id="node47" class="node"><title>PL27</title>
<ellipse fill="none" stroke="black" cx="84" cy="-524" rx="18" ry="18"/>
<text text-anchor="middle" x="84" y="-520.3" font-family="Times,serif" font-size="14.00">PL27</text>
</g>
<!-- transition23 -->
<g id="node50" class="node"><title>transition23</title>
<polygon fill="none" stroke="black" points="147,-452.5 111,-452.5 111,-451.5 147,-451.5 147,-452.5"/>
<text text-anchor="middle" x="101.5" y="-456.3" font-family="Times,serif" font-size="14.00">do&#45;</text>
</g>
<!-- PL27&#45;&gt;transition23 -->
<g id="edge54" class="edge"><title>PL27&#45;&gt;transition23</title>
<path fill="none" stroke="black" d="M93.324,-508.496C103.599,-492.513 119.534,-467.725 126.061,-457.572"/>
<polygon fill="none" stroke="black" points="127.703,-458.253 128.935,-453.101 124.759,-456.361 127.703,-458.253"/>
</g>
<!-- transition18&#45;&gt;PL27 -->
<g id="edge53" class="edge"><title>transition18&#45;&gt;PL27</title>
<path fill="none" stroke="black" d="M61.066,-577.848C61.7379,-576.3 67.4293,-563.185 72.9737,-550.409"/>
<polygon fill="black" stroke="black" points="76.329,-551.469 77.0992,-540.902 69.9075,-548.682 76.329,-551.469"/>
</g>
<!-- PL31 -->
<g id="node58" class="node"><title>PL31</title>
<ellipse fill="none" stroke="black" cx="46" cy="-452" rx="18" ry="18"/>
<text text-anchor="middle" x="46" y="-448.3" font-family="Times,serif" font-size="14.00">PL31</text>
</g>
<!-- transition18&#45;&gt;PL31 -->
<g id="edge65" class="edge"><title>transition18&#45;&gt;PL31</title>
<path fill="none" stroke="black" d="M60.9891,-577.909C60.674,-575.283 53.58,-516.167 49.2659,-480.216"/>
<polygon fill="black" stroke="black" points="52.6935,-479.402 48.0269,-469.891 45.7433,-480.236 52.6935,-479.402"/>
</g>
<!-- PL28 -->
<g id="node49" class="node"><title>PL28</title>
<ellipse fill="none" stroke="black" cx="129" cy="-380" rx="18" ry="18"/>
<text text-anchor="middle" x="129" y="-376.3" font-family="Times,serif" font-size="14.00">PL28</text>
</g>
<!-- transition16 -->
<g id="node52" class="node"><title>transition16</title>
<polygon fill="none" stroke="black" points="147,-308.5 111,-308.5 111,-307.5 147,-307.5 147,-308.5"/>
<text text-anchor="middle" x="103" y="-312.3" font-family="Times,serif" font-size="14.00">di&#45;</text>
</g>
<!-- PL28&#45;&gt;transition16 -->
<g id="edge56" class="edge"><title>PL28&#45;&gt;transition16</title>
<path fill="none" stroke="black" d="M129,-361.697C129,-346.165 129,-324.324 129,-314.348"/>
<polygon fill="none" stroke="black" points="130.75,-314.092 129,-309.092 127.25,-314.092 130.75,-314.092"/>
</g>
<!-- transition23&#45;&gt;PL28 -->
<g id="edge55" class="edge"><title>transition23&#45;&gt;PL28</title>
<path fill="none" stroke="black" d="M129,-450.949C129,-449.748 129,-427.429 129,-408.321"/>
<polygon fill="black" stroke="black" points="132.5,-408.191 129,-398.191 125.5,-408.191 132.5,-408.191"/>
</g>
<!-- PL29 -->
<g id="node51" class="node"><title>PL29</title>
<ellipse fill="none" stroke="black" cx="116" cy="-236" rx="18" ry="18"/>
<text text-anchor="middle" x="116" y="-232.3" font-family="Times,serif" font-size="14.00">PL29</text>
</g>
<!-- transition21 -->
<g id="node54" class="node"><title>transition21</title>
<polygon fill="none" stroke="black" points="117,-182 81,-182 81,-181 117,-181 117,-182"/>
<text text-anchor="middle" x="66.5" y="-185.8" font-family="Times,serif" font-size="14.00">pdo+</text>
</g>
<!-- PL29&#45;&gt;transition21 -->
<g id="edge58" class="edge"><title>PL29&#45;&gt;transition21</title>
<path fill="none" stroke="black" d="M110.714,-218.521C107.24,-207.688 102.924,-194.235 100.624,-187.062"/>
<polygon fill="none" stroke="black" points="102.213,-186.287 99.0194,-182.061 98.8803,-187.356 102.213,-186.287"/>
</g>
<!-- transition16&#45;&gt;PL29 -->
<g id="edge57" class="edge"><title>transition16&#45;&gt;PL29</title>
<path fill="none" stroke="black" d="M128.991,-306.949C128.765,-305.735 124.535,-282.959 120.963,-263.722"/>
<polygon fill="black" stroke="black" points="124.394,-263.032 119.127,-253.839 117.512,-264.31 124.394,-263.032"/>
</g>
<!-- PL30 -->
<g id="node61" class="node"><title>PL30</title>
<ellipse fill="none" stroke="black" cx="175" cy="-236" rx="18" ry="18"/>
<text text-anchor="middle" x="175" y="-232.3" font-family="Times,serif" font-size="14.00">PL30</text>
</g>
<!-- transition16&#45;&gt;PL30 -->
<g id="edge69" class="edge"><title>transition16&#45;&gt;PL30</title>
<path fill="none" stroke="black" d="M129.033,-306.949C129.883,-305.657 146.786,-279.934 159.85,-260.055"/>
<polygon fill="black" stroke="black" points="162.944,-261.72 165.511,-251.44 157.094,-257.875 162.944,-261.72"/>
</g>
<!-- PL33 -->
<g id="node53" class="node"><title>PL33</title>
<ellipse fill="none" stroke="black" cx="225" cy="-127" rx="18" ry="18"/>
<text text-anchor="middle" x="225" y="-123.3" font-family="Times,serif" font-size="14.00">PL33</text>
</g>
<!-- PL33&#45;&gt;transition19 -->
<g id="edge60" class="edge"><title>PL33&#45;&gt;transition19</title>
<path fill="none" stroke="black" d="M236.664,-140.751C252.809,-159.778 280,-197.404 280,-235 280,-381 280,-381 280,-381 280,-438.239 294.639,-451.15 311,-506 320.46,-537.715 330,-544.905 330,-578 330,-797 330,-797 330,-797 330,-843.594 327.189,-899.907 326.28,-916.904"/>
<polygon fill="none" stroke="black" points="324.53,-916.861 326.003,-921.949 328.025,-917.053 324.53,-916.861"/>
</g>
<!-- transition21&#45;&gt;PL33 -->
<g id="edge59" class="edge"><title>transition21&#45;&gt;PL33</title>
<path fill="none" stroke="black" d="M99.0913,-180.962C101.782,-179.83 163.29,-153.957 199.324,-138.8"/>
<polygon fill="black" stroke="black" points="200.881,-141.942 208.741,-134.839 198.167,-135.49 200.881,-141.942"/>
</g>
<!-- PL5 -->
<g id="node55" class="node"><title>PL5</title>
<ellipse fill="none" stroke="black" cx="64" cy="-127" rx="18" ry="18"/>
<text text-anchor="middle" x="64" y="-123.3" font-family="Times,serif" font-size="14.00">PL5</text>
</g>
<!-- transition21&#45;&gt;PL5 -->
<g id="edge61" class="edge"><title>transition21&#45;&gt;PL5</title>
<path fill="none" stroke="black" d="M98.8996,-180.848C97.8142,-179.204 88.1206,-164.526 79.2249,-151.055"/>
<polygon fill="black" stroke="black" points="82.0241,-148.942 73.5928,-142.526 76.1829,-152.8 82.0241,-148.942"/>
</g>
<!-- transition17 -->
<g id="node57" class="node"><title>transition17</title>
<polygon fill="none" stroke="black" points="73,-73 37,-73 37,-72 73,-72 73,-73"/>
<text text-anchor="middle" x="19.5" y="-76.8" font-family="Times,serif" font-size="14.00">pack+</text>
</g>
<!-- PL5&#45;&gt;transition17 -->
<g id="edge62" class="edge"><title>PL5&#45;&gt;transition17</title>
<path fill="none" stroke="black" d="M61.1028,-108.939C59.3107,-98.3852 57.1285,-85.5344 55.9191,-78.4124"/>
<polygon fill="none" stroke="black" points="57.5725,-77.6956 55.01,-73.0591 54.1219,-78.2816 57.5725,-77.6956"/>
</g>
<!-- PL26 -->
<g id="node56" class="node"><title>PL26</title>
<ellipse fill="none" stroke="black" cx="27" cy="-18" rx="18" ry="18"/>
<text text-anchor="middle" x="27" y="-14.3" font-family="Times,serif" font-size="14.00">PL26</text>
</g>
<!-- PL26&#45;&gt;transition18 -->
<g id="edge64" class="edge"><title>PL26&#45;&gt;transition18</title>
<path fill="none" stroke="black" d="M20.3258,-34.9972C12.3304,-55.6431 0,-92.8555 0,-126 0,-453 0,-453 0,-453 0,-505.77 44.4505,-559.534 57.4623,-574.142"/>
<polygon fill="none" stroke="black" points="56.2874,-575.45 60.9558,-577.954 58.8678,-573.085 56.2874,-575.45"/>
</g>
<!-- transition17&#45;&gt;PL26 -->
<g id="edge63" class="edge"><title>transition17&#45;&gt;PL26</title>
<path fill="none" stroke="black" d="M54.9197,-71.848C54.0834,-70.265 46.8592,-56.5906 39.9696,-43.5496"/>
<polygon fill="black" stroke="black" points="42.8741,-41.5546 35.1082,-34.3476 36.6847,-44.8245 42.8741,-41.5546"/>
</g>
<!-- transition20 -->
<g id="node60" class="node"><title>transition20</title>
<polygon fill="none" stroke="black" points="73,-380.5 37,-380.5 37,-379.5 73,-379.5 73,-380.5"/>
<text text-anchor="middle" x="21" y="-384.3" font-family="Times,serif" font-size="14.00">pack&#45;</text>
</g>
<!-- PL31&#45;&gt;transition20 -->
<g id="edge66" class="edge"><title>PL31&#45;&gt;transition20</title>
<path fill="none" stroke="black" d="M48.1786,-434.055C50.1945,-418.376 53.0663,-396.04 54.3437,-386.104"/>
<polygon fill="none" stroke="black" points="56.086,-386.276 54.988,-381.093 52.6146,-385.829 56.086,-386.276"/>
</g>
<!-- PL32 -->
<g id="node59" class="node"><title>PL32</title>
<ellipse fill="none" stroke="black" cx="65" cy="-308" rx="18" ry="18"/>
<text text-anchor="middle" x="65" y="-304.3" font-family="Times,serif" font-size="14.00">PL32</text>
</g>
<!-- PL32&#45;&gt;transition21 -->
<g id="edge68" class="edge"><title>PL32&#45;&gt;transition21</title>
<path fill="none" stroke="black" d="M69.4742,-290.258C74.2665,-272.362 82.1133,-243.16 89,-218 91.9862,-207.09 95.544,-194.34 97.5092,-187.318"/>
<polygon fill="none" stroke="black" points="99.3192,-187.345 98.9838,-182.058 95.9491,-186.4 99.3192,-187.345"/>
</g>
<!-- transition20&#45;&gt;PL32 -->
<g id="edge67" class="edge"><title>transition20&#45;&gt;PL32</title>
<path fill="none" stroke="black" d="M55.0072,-378.949C55.1799,-377.741 58.4045,-355.169 61.1445,-335.989"/>
<polygon fill="black" stroke="black" points="64.6449,-336.234 62.5944,-325.839 57.7153,-335.244 64.6449,-336.234"/>
</g>
<!-- PL30&#45;&gt;transition26 -->
<g id="edge70" class="edge"><title>PL30&#45;&gt;transition26</title>
<path fill="none" stroke="black" d="M176.778,-254.027C179.401,-280.657 184,-333.795 184,-379 184,-1050 184,-1050 184,-1050 184,-1120.12 295.067,-1150.69 320.746,-1156.82"/>
<polygon fill="none" stroke="black" points="320.634,-1158.58 325.897,-1157.98 321.406,-1155.17 320.634,-1158.58"/>
</g>
<!-- transition22 -->
<g id="node64" class="node"><title>transition22</title>
<polygon fill="none" stroke="black" points="248,-579 212,-579 212,-578 248,-578 248,-579"/>
<text text-anchor="middle" x="193.5" y="-582.8" font-family="Times,serif" font-size="14.00">mrdc+</text>
</g>
<!-- PL36&#45;&gt;transition22 -->
<g id="edge72" class="edge"><title>PL36&#45;&gt;transition22</title>
<path fill="none" stroke="black" d="M230,-614.939C230,-604.385 230,-591.534 230,-584.412"/>
<polygon fill="none" stroke="black" points="231.75,-584.059 230,-579.059 228.25,-584.059 231.75,-584.059"/>
</g>
<!-- PL39 -->
<g id="node63" class="node"><title>PL39</title>
<ellipse fill="none" stroke="black" cx="230" cy="-524" rx="18" ry="18"/>
<text text-anchor="middle" x="230" y="-520.3" font-family="Times,serif" font-size="14.00">PL39</text>
</g>
<!-- transition25 -->
<g id="node66" class="node"><title>transition25</title>
<polygon fill="none" stroke="black" points="344,-452.5 308,-452.5 308,-451.5 344,-451.5 344,-452.5"/>
<text text-anchor="middle" x="290.5" y="-456.3" font-family="Times,serif" font-size="14.00">xack+</text>
</g>
<!-- PL39&#45;&gt;transition25 -->
<g id="edge74" class="edge"><title>PL39&#45;&gt;transition25</title>
<path fill="none" stroke="black" d="M244.165,-512.671C266.397,-496.461 308.331,-465.884 321.753,-456.097"/>
<polygon fill="none" stroke="black" points="322.832,-457.476 325.841,-453.116 320.77,-454.648 322.832,-457.476"/>
</g>
<!-- transition22&#45;&gt;PL39 -->
<g id="edge73" class="edge"><title>transition22&#45;&gt;PL39</title>
<path fill="none" stroke="black" d="M230,-577.848C230,-576.368 230,-564.319 230,-552.1"/>
<polygon fill="black" stroke="black" points="233.5,-552.025 230,-542.025 226.5,-552.025 233.5,-552.025"/>
</g>
<!-- PL37 -->
<g id="node67" class="node"><title>PL37</title>
<ellipse fill="none" stroke="black" cx="138" cy="-524" rx="18" ry="18"/>
<text text-anchor="middle" x="138" y="-520.3" font-family="Times,serif" font-size="14.00">PL37</text>
</g>
<!-- transition22&#45;&gt;PL37 -->
<g id="edge77" class="edge"><title>transition22&#45;&gt;PL37</title>
<path fill="none" stroke="black" d="M229.933,-577.962C228.093,-576.902 188.587,-554.143 161.968,-538.808"/>
<polygon fill="black" stroke="black" points="163.585,-535.7 153.173,-533.741 160.09,-541.765 163.585,-535.7"/>
</g>
<!-- PL38 -->
<g id="node68" class="node"><title>PL38</title>
<ellipse fill="none" stroke="black" cx="284" cy="-524" rx="18" ry="18"/>
<text text-anchor="middle" x="284" y="-520.3" font-family="Times,serif" font-size="14.00">PL38</text>
</g>
<!-- transition22&#45;&gt;PL38 -->
<g id="edge79" class="edge"><title>transition22&#45;&gt;PL38</title>
<path fill="none" stroke="black" d="M230.155,-577.848C231.988,-576.049 249.738,-558.628 264.365,-544.272"/>
<polygon fill="black" stroke="black" points="266.943,-546.645 271.628,-537.143 262.04,-541.649 266.943,-546.645"/>
</g>
<!-- PL40 -->
<g id="node65" class="node"><title>PL40</title>
<ellipse fill="none" stroke="black" cx="349" cy="-380" rx="18" ry="18"/>
<text text-anchor="middle" x="349" y="-376.3" font-family="Times,serif" font-size="14.00">PL40</text>
</g>
<!-- PL40&#45;&gt;transition26 -->
<g id="edge76" class="edge"><title>PL40&#45;&gt;transition26</title>
<path fill="none" stroke="black" d="M353.435,-397.474C360.118,-423.794 372,-477.048 372,-523 372,-1050 372,-1050 372,-1050 372,-1083.1 367.418,-1092.21 353,-1122 346.67,-1135.08 335.285,-1148.16 329.532,-1154.33"/>
<polygon fill="none" stroke="black" points="328.258,-1153.13 326.053,-1157.95 330.78,-1155.56 328.258,-1153.13"/>
</g>
<!-- transition25&#45;&gt;PL40 -->
<g id="edge75" class="edge"><title>transition25&#45;&gt;PL40</title>
<path fill="none" stroke="black" d="M326.017,-450.949C326.42,-449.722 334.056,-426.482 340.417,-407.122"/>
<polygon fill="black" stroke="black" points="343.786,-408.082 343.582,-397.489 337.135,-405.897 343.786,-408.082"/>
</g>
<!-- PL37&#45;&gt;transition23 -->
<g id="edge78" class="edge"><title>PL37&#45;&gt;transition23</title>
<path fill="none" stroke="black" d="M135.821,-506.055C133.805,-490.376 130.934,-468.04 129.656,-458.104"/>
<polygon fill="none" stroke="black" points="131.385,-457.829 129.012,-453.093 127.914,-458.276 131.385,-457.829"/>
</g>
<!-- PL38&#45;&gt;transition24 -->
<g id="edge80" class="edge"><title>PL38&#45;&gt;transition24</title>
<path fill="none" stroke="black" d="M300.611,-516.54C339.849,-501.281 436.673,-463.627 459.243,-454.85"/>
<polygon fill="none" stroke="black" points="459.888,-456.477 463.914,-453.034 458.619,-453.215 459.888,-456.477"/>
</g>
</g>
</svg>
