<?xml version="1.0" encoding="UTF-8" standalone="no"?>
<!DOCTYPE svg PUBLIC "-//W3C//DTD SVG 1.1//EN"
 "http://www.w3.org/Graphics/SVG/1.1/DTD/svg11.dtd">
<!-- Generated by graphviz version 2.38.0 (20140413.2041)
 -->
<!-- Title: %3 Pages: 1 -->
<svg width="462pt" height="2512pt"
 viewBox="0.00 0.00 462.00 2512.00" xmlns="http://www.w3.org/2000/svg" xmlns:xlink="http://www.w3.org/1999/xlink">
<g id="graph0" class="graph" transform="scale(1 1) rotate(0) translate(4 2508)">
<title>%3</title>
<polygon fill="white" stroke="none" points="-4,4 -4,-2508 458,-2508 458,4 -4,4"/>
<!-- PL1 -->
<g id="node1" class="node"><title>PL1</title>
<ellipse fill="none" stroke="black" cx="408" cy="-2486" rx="18" ry="18"/>
<text text-anchor="middle" x="408" y="-2482.3" font-family="Times,serif" font-size="14.00">PL1</text>
</g>
<!-- transition0 -->
<g id="node3" class="node"><title>transition0</title>
<polygon fill="none" stroke="black" points="380,-2432 344,-2432 344,-2431 380,-2431 380,-2432"/>
<text text-anchor="middle" x="332.5" y="-2435.8" font-family="Times,serif" font-size="14.00">ari+</text>
</g>
<!-- PL1&#45;&gt;transition0 -->
<g id="edge1" class="edge"><title>PL1&#45;&gt;transition0</title>
<path fill="none" stroke="black" d="M396.629,-2471.9C386.526,-2460.26 372.36,-2443.94 365.715,-2436.28"/>
<polygon fill="none" stroke="black" points="366.66,-2434.7 362.061,-2432.07 364.016,-2436.99 366.66,-2434.7"/>
</g>
<!-- PL37 -->
<g id="node2" class="node"><title>PL37</title>
<ellipse fill="none" stroke="black" cx="350" cy="-2377" rx="18" ry="18"/>
<text text-anchor="middle" x="350" y="-2373.3" font-family="Times,serif" font-size="14.00">PL37</text>
</g>
<!-- transition5 -->
<g id="node5" class="node"><title>transition5</title>
<polygon fill="none" stroke="black" points="345,-2323 309,-2323 309,-2322 345,-2322 345,-2323"/>
<text text-anchor="middle" x="297" y="-2326.8" font-family="Times,serif" font-size="14.00">pro&#45;</text>
</g>
<!-- PL37&#45;&gt;transition5 -->
<g id="edge3" class="edge"><title>PL37&#45;&gt;transition5</title>
<path fill="none" stroke="black" d="M343.099,-2360.1C338.279,-2348.99 332.169,-2334.91 329.044,-2327.71"/>
<polygon fill="none" stroke="black" points="330.623,-2326.95 327.027,-2323.06 327.412,-2328.35 330.623,-2326.95"/>
</g>
<!-- transition0&#45;&gt;PL37 -->
<g id="edge2" class="edge"><title>transition0&#45;&gt;PL37</title>
<path fill="none" stroke="black" d="M361.966,-2430.85C361.625,-2429.34 358.812,-2416.92 355.999,-2404.5"/>
<polygon fill="black" stroke="black" points="359.413,-2403.72 353.791,-2394.74 352.585,-2405.27 359.413,-2403.72"/>
</g>
<!-- PL28 -->
<g id="node4" class="node"><title>PL28</title>
<ellipse fill="none" stroke="black" cx="251" cy="-2268" rx="18" ry="18"/>
<text text-anchor="middle" x="251" y="-2264.3" font-family="Times,serif" font-size="14.00">PL28</text>
</g>
<!-- transition26 -->
<g id="node7" class="node"><title>transition26</title>
<polygon fill="none" stroke="black" points="257,-2214 221,-2214 221,-2213 257,-2213 257,-2214"/>
<text text-anchor="middle" x="209" y="-2217.8" font-family="Times,serif" font-size="14.00">pri+</text>
</g>
<!-- PL28&#45;&gt;transition26 -->
<g id="edge5" class="edge"><title>PL28&#45;&gt;transition26</title>
<path fill="none" stroke="black" d="M247.203,-2250.23C244.755,-2239.42 241.739,-2226.1 240.133,-2219"/>
<polygon fill="none" stroke="black" points="241.825,-2218.55 239.014,-2214.06 238.411,-2219.32 241.825,-2218.55"/>
</g>
<!-- transition5&#45;&gt;PL28 -->
<g id="edge4" class="edge"><title>transition5&#45;&gt;PL28</title>
<path fill="none" stroke="black" d="M326.945,-2321.96C325.499,-2320.95 295.892,-2300.31 274.08,-2285.1"/>
<polygon fill="black" stroke="black" points="275.807,-2282.03 265.603,-2279.18 271.803,-2287.77 275.807,-2282.03"/>
</g>
<!-- PL22 -->
<g id="node14" class="node"><title>PL22</title>
<ellipse fill="none" stroke="black" cx="316" cy="-2268" rx="18" ry="18"/>
<text text-anchor="middle" x="316" y="-2264.3" font-family="Times,serif" font-size="14.00">PL22</text>
</g>
<!-- transition5&#45;&gt;PL22 -->
<g id="edge14" class="edge"><title>transition5&#45;&gt;PL22</title>
<path fill="none" stroke="black" d="M326.968,-2321.85C326.659,-2320.36 324.128,-2308.16 321.576,-2295.87"/>
<polygon fill="black" stroke="black" points="324.934,-2294.82 319.475,-2285.74 318.08,-2296.24 324.934,-2294.82"/>
</g>
<!-- PL29 -->
<g id="node6" class="node"><title>PL29</title>
<ellipse fill="none" stroke="black" cx="227" cy="-2159" rx="18" ry="18"/>
<text text-anchor="middle" x="227" y="-2155.3" font-family="Times,serif" font-size="14.00">PL29</text>
</g>
<!-- transition27 -->
<g id="node9" class="node"><title>transition27</title>
<polygon fill="none" stroke="black" points="234,-2105 198,-2105 198,-2104 234,-2104 234,-2105"/>
<text text-anchor="middle" x="181.5" y="-2108.8" font-family="Times,serif" font-size="14.00">breq+</text>
</g>
<!-- PL29&#45;&gt;transition27 -->
<g id="edge7" class="edge"><title>PL29&#45;&gt;transition27</title>
<path fill="none" stroke="black" d="M223.52,-2141.23C221.276,-2130.42 218.511,-2117.1 217.039,-2110"/>
<polygon fill="none" stroke="black" points="218.742,-2109.6 216.012,-2105.06 215.315,-2110.31 218.742,-2109.6"/>
</g>
<!-- transition26&#45;&gt;PL29 -->
<g id="edge6" class="edge"><title>transition26&#45;&gt;PL29</title>
<path fill="none" stroke="black" d="M238.966,-2212.85C238.625,-2211.34 235.812,-2198.92 232.999,-2186.5"/>
<polygon fill="black" stroke="black" points="236.413,-2185.72 230.791,-2176.74 229.585,-2187.27 236.413,-2185.72"/>
</g>
<!-- PL31 -->
<g id="node8" class="node"><title>PL31</title>
<ellipse fill="none" stroke="black" cx="224" cy="-1978" rx="18" ry="18"/>
<text text-anchor="middle" x="224" y="-1974.3" font-family="Times,serif" font-size="14.00">PL31</text>
</g>
<!-- transition23 -->
<g id="node11" class="node"><title>transition23</title>
<polygon fill="none" stroke="black" points="242,-1852 206,-1852 206,-1851 242,-1851 242,-1852"/>
<text text-anchor="middle" x="188.5" y="-1855.8" font-family="Times,serif" font-size="14.00">busy+</text>
</g>
<!-- PL31&#45;&gt;transition23 -->
<g id="edge9" class="edge"><title>PL31&#45;&gt;transition23</title>
<path fill="none" stroke="black" d="M224,-1959.88C224,-1931.18 224,-1874.79 224,-1857.3"/>
<polygon fill="none" stroke="black" points="225.75,-1857.05 224,-1852.05 222.25,-1857.05 225.75,-1857.05"/>
</g>
<!-- transition27&#45;&gt;PL31 -->
<g id="edge8" class="edge"><title>transition27&#45;&gt;PL31</title>
<path fill="none" stroke="black" d="M216.006,-2103.91C216.173,-2101.29 219.938,-2042.47 222.241,-2006.49"/>
<polygon fill="black" stroke="black" points="225.757,-2006.35 222.903,-1996.15 218.771,-2005.9 225.757,-2006.35"/>
</g>
<!-- PL30 -->
<g id="node30" class="node"><title>PL30</title>
<ellipse fill="none" stroke="black" cx="262" cy="-2050" rx="18" ry="18"/>
<text text-anchor="middle" x="262" y="-2046.3" font-family="Times,serif" font-size="14.00">PL30</text>
</g>
<!-- transition27&#45;&gt;PL30 -->
<g id="edge32" class="edge"><title>transition27&#45;&gt;PL30</title>
<path fill="none" stroke="black" d="M216.132,-2103.85C217.63,-2102.12 231.599,-2086.03 243.732,-2072.05"/>
<polygon fill="black" stroke="black" points="246.644,-2074.03 250.555,-2064.19 241.357,-2069.44 246.644,-2074.03"/>
</g>
<!-- PL32 -->
<g id="node31" class="node"><title>PL32</title>
<ellipse fill="none" stroke="black" cx="170" cy="-2050" rx="18" ry="18"/>
<text text-anchor="middle" x="170" y="-2046.3" font-family="Times,serif" font-size="14.00">PL32</text>
</g>
<!-- transition27&#45;&gt;PL32 -->
<g id="edge34" class="edge"><title>transition27&#45;&gt;PL32</title>
<path fill="none" stroke="black" d="M215.868,-2103.85C214.37,-2102.12 200.401,-2086.03 188.268,-2072.05"/>
<polygon fill="black" stroke="black" points="190.643,-2069.44 181.445,-2064.19 185.356,-2074.03 190.643,-2069.44"/>
</g>
<!-- PL19 -->
<g id="node10" class="node"><title>PL19</title>
<ellipse fill="none" stroke="black" cx="224" cy="-1797" rx="18" ry="18"/>
<text text-anchor="middle" x="224" y="-1793.3" font-family="Times,serif" font-size="14.00">PL19</text>
</g>
<!-- transition11 -->
<g id="node13" class="node"><title>transition11</title>
<polygon fill="none" stroke="black" points="242,-1743 206,-1743 206,-1742 242,-1742 242,-1743"/>
<text text-anchor="middle" x="191" y="-1746.8" font-family="Times,serif" font-size="14.00">breq&#45;</text>
</g>
<!-- PL19&#45;&gt;transition11 -->
<g id="edge11" class="edge"><title>PL19&#45;&gt;transition11</title>
<path fill="none" stroke="black" d="M224,-1778.94C224,-1768.39 224,-1755.53 224,-1748.41"/>
<polygon fill="none" stroke="black" points="225.75,-1748.06 224,-1743.06 222.25,-1748.06 225.75,-1748.06"/>
</g>
<!-- transition23&#45;&gt;PL19 -->
<g id="edge10" class="edge"><title>transition23&#45;&gt;PL19</title>
<path fill="none" stroke="black" d="M224,-1850.85C224,-1849.37 224,-1837.32 224,-1825.1"/>
<polygon fill="black" stroke="black" points="227.5,-1825.02 224,-1815.02 220.5,-1825.02 227.5,-1825.02"/>
</g>
<!-- PL2 -->
<g id="node12" class="node"><title>PL2</title>
<ellipse fill="none" stroke="black" cx="271" cy="-1688" rx="18" ry="18"/>
<text text-anchor="middle" x="271" y="-1684.3" font-family="Times,serif" font-size="14.00">PL2</text>
</g>
<!-- PL2&#45;&gt;transition5 -->
<g id="edge13" class="edge"><title>PL2&#45;&gt;transition5</title>
<path fill="none" stroke="black" d="M283.653,-1701.11C308.657,-1726.4 362,-1787.77 362,-1851 362,-2214 362,-2214 362,-2214 362,-2256.01 337.742,-2302.92 329.616,-2317.46"/>
<polygon fill="none" stroke="black" points="328.078,-2316.63 327.1,-2321.83 331.111,-2318.37 328.078,-2316.63"/>
</g>
<!-- transition11&#45;&gt;PL2 -->
<g id="edge12" class="edge"><title>transition11&#45;&gt;PL2</title>
<path fill="none" stroke="black" d="M224.135,-1741.85C225.689,-1740.1 240.377,-1723.53 252.902,-1709.41"/>
<polygon fill="black" stroke="black" points="255.524,-1711.73 259.54,-1701.92 250.287,-1707.08 255.524,-1711.73"/>
</g>
<!-- PL38 -->
<g id="node23" class="node"><title>PL38</title>
<ellipse fill="none" stroke="black" cx="209" cy="-1688" rx="18" ry="18"/>
<text text-anchor="middle" x="209" y="-1684.3" font-family="Times,serif" font-size="14.00">PL38</text>
</g>
<!-- transition11&#45;&gt;PL38 -->
<g id="edge24" class="edge"><title>transition11&#45;&gt;PL38</title>
<path fill="none" stroke="black" d="M223.957,-1741.85C223.528,-1740.33 219.97,-1727.76 216.432,-1715.26"/>
<polygon fill="black" stroke="black" points="219.75,-1714.13 213.659,-1705.46 213.014,-1716.04 219.75,-1714.13"/>
</g>
<!-- transition1 -->
<g id="node16" class="node"><title>transition1</title>
<polygon fill="none" stroke="black" points="334,-2214 298,-2214 298,-2213 334,-2213 334,-2214"/>
<text text-anchor="middle" x="286.5" y="-2217.8" font-family="Times,serif" font-size="14.00">aro&#45;</text>
</g>
<!-- PL22&#45;&gt;transition1 -->
<g id="edge15" class="edge"><title>PL22&#45;&gt;transition1</title>
<path fill="none" stroke="black" d="M316,-2249.94C316,-2239.39 316,-2226.53 316,-2219.41"/>
<polygon fill="none" stroke="black" points="317.75,-2219.06 316,-2214.06 314.25,-2219.06 317.75,-2219.06"/>
</g>
<!-- PL23 -->
<g id="node15" class="node"><title>PL23</title>
<ellipse fill="none" stroke="black" cx="316" cy="-2159" rx="18" ry="18"/>
<text text-anchor="middle" x="316" y="-2155.3" font-family="Times,serif" font-size="14.00">PL23</text>
</g>
<!-- transition2 -->
<g id="node18" class="node"><title>transition2</title>
<polygon fill="none" stroke="black" points="334,-2105 298,-2105 298,-2104 334,-2104 334,-2105"/>
<text text-anchor="middle" x="288" y="-2108.8" font-family="Times,serif" font-size="14.00">ari&#45;</text>
</g>
<!-- PL23&#45;&gt;transition2 -->
<g id="edge17" class="edge"><title>PL23&#45;&gt;transition2</title>
<path fill="none" stroke="black" d="M316,-2140.94C316,-2130.39 316,-2117.53 316,-2110.41"/>
<polygon fill="none" stroke="black" points="317.75,-2110.06 316,-2105.06 314.25,-2110.06 317.75,-2110.06"/>
</g>
<!-- transition1&#45;&gt;PL23 -->
<g id="edge16" class="edge"><title>transition1&#45;&gt;PL23</title>
<path fill="none" stroke="black" d="M316,-2212.85C316,-2211.37 316,-2199.32 316,-2187.1"/>
<polygon fill="black" stroke="black" points="319.5,-2187.02 316,-2177.02 312.5,-2187.02 319.5,-2187.02"/>
</g>
<!-- PL24 -->
<g id="node17" class="node"><title>PL24</title>
<ellipse fill="none" stroke="black" cx="316" cy="-2050" rx="18" ry="18"/>
<text text-anchor="middle" x="316" y="-2046.3" font-family="Times,serif" font-size="14.00">PL24</text>
</g>
<!-- transition9 -->
<g id="node20" class="node"><title>transition9</title>
<polygon fill="none" stroke="black" points="315,-1978.5 279,-1978.5 279,-1977.5 315,-1977.5 315,-1978.5"/>
<text text-anchor="middle" x="265.5" y="-1982.3" font-family="Times,serif" font-size="14.00">pro+</text>
</g>
<!-- PL24&#45;&gt;transition9 -->
<g id="edge19" class="edge"><title>PL24&#45;&gt;transition9</title>
<path fill="none" stroke="black" d="M311.497,-2032.41C307.245,-2016.74 301.125,-1994.2 298.4,-1984.16"/>
<polygon fill="none" stroke="black" points="300.024,-1983.46 297.026,-1979.09 296.647,-1984.38 300.024,-1983.46"/>
</g>
<!-- transition2&#45;&gt;PL24 -->
<g id="edge18" class="edge"><title>transition2&#45;&gt;PL24</title>
<path fill="none" stroke="black" d="M316,-2103.85C316,-2102.37 316,-2090.32 316,-2078.1"/>
<polygon fill="black" stroke="black" points="319.5,-2078.02 316,-2068.02 312.5,-2078.02 319.5,-2078.02"/>
</g>
<!-- PL25 -->
<g id="node19" class="node"><title>PL25</title>
<ellipse fill="none" stroke="black" cx="297" cy="-1906" rx="18" ry="18"/>
<text text-anchor="middle" x="297" y="-1902.3" font-family="Times,serif" font-size="14.00">PL25</text>
</g>
<!-- transition3 -->
<g id="node22" class="node"><title>transition3</title>
<polygon fill="none" stroke="black" points="315,-1852 279,-1852 279,-1851 315,-1851 315,-1852"/>
<text text-anchor="middle" x="268.5" y="-1855.8" font-family="Times,serif" font-size="14.00">pri&#45;</text>
</g>
<!-- PL25&#45;&gt;transition3 -->
<g id="edge21" class="edge"><title>PL25&#45;&gt;transition3</title>
<path fill="none" stroke="black" d="M297,-1887.94C297,-1877.39 297,-1864.53 297,-1857.41"/>
<polygon fill="none" stroke="black" points="298.75,-1857.06 297,-1852.06 295.25,-1857.06 298.75,-1857.06"/>
</g>
<!-- transition9&#45;&gt;PL25 -->
<g id="edge20" class="edge"><title>transition9&#45;&gt;PL25</title>
<path fill="none" stroke="black" d="M297,-1976.95C297,-1975.75 297,-1953.43 297,-1934.32"/>
<polygon fill="black" stroke="black" points="300.5,-1934.19 297,-1924.19 293.5,-1934.19 300.5,-1934.19"/>
</g>
<!-- PL27 -->
<g id="node21" class="node"><title>PL27</title>
<ellipse fill="none" stroke="black" cx="278" cy="-1797" rx="18" ry="18"/>
<text text-anchor="middle" x="278" y="-1793.3" font-family="Times,serif" font-size="14.00">PL27</text>
</g>
<!-- PL27&#45;&gt;transition11 -->
<g id="edge23" class="edge"><title>PL27&#45;&gt;transition11</title>
<path fill="none" stroke="black" d="M265.476,-1783.71C253.402,-1771.86 235.847,-1754.63 228.023,-1746.95"/>
<polygon fill="none" stroke="black" points="228.868,-1745.33 224.074,-1743.07 226.416,-1747.82 228.868,-1745.33"/>
</g>
<!-- transition3&#45;&gt;PL27 -->
<g id="edge22" class="edge"><title>transition3&#45;&gt;PL27</title>
<path fill="none" stroke="black" d="M296.945,-1850.85C296.394,-1849.31 291.747,-1836.35 287.195,-1823.65"/>
<polygon fill="black" stroke="black" points="290.47,-1822.41 283.801,-1814.18 283.881,-1824.78 290.47,-1822.41"/>
</g>
<!-- PL26 -->
<g id="node67" class="node"><title>PL26</title>
<ellipse fill="none" stroke="black" cx="408" cy="-1797" rx="18" ry="18"/>
<text text-anchor="middle" x="408" y="-1793.3" font-family="Times,serif" font-size="14.00">PL26</text>
</g>
<!-- transition3&#45;&gt;PL26 -->
<g id="edge78" class="edge"><title>transition3&#45;&gt;PL26</title>
<path fill="none" stroke="black" d="M297.08,-1850.96C299.389,-1849.86 350.842,-1825.29 382.849,-1810.01"/>
<polygon fill="black" stroke="black" points="384.566,-1813.07 392.082,-1805.6 381.549,-1806.75 384.566,-1813.07"/>
</g>
<!-- transition6 -->
<g id="node25" class="node"><title>transition6</title>
<polygon fill="none" stroke="black" points="225,-1634 189,-1634 189,-1633 225,-1633 225,-1634"/>
<text text-anchor="middle" x="173.5" y="-1637.8" font-family="Times,serif" font-size="14.00">bprn&#45;</text>
</g>
<!-- PL38&#45;&gt;transition6 -->
<g id="edge25" class="edge"><title>PL38&#45;&gt;transition6</title>
<path fill="none" stroke="black" d="M208.356,-1669.94C207.958,-1659.39 207.473,-1646.53 207.204,-1639.41"/>
<polygon fill="none" stroke="black" points="208.94,-1638.99 207.002,-1634.06 205.442,-1639.12 208.94,-1638.99"/>
</g>
<!-- PL39 -->
<g id="node24" class="node"><title>PL39</title>
<ellipse fill="none" stroke="black" cx="203" cy="-1579" rx="18" ry="18"/>
<text text-anchor="middle" x="203" y="-1575.3" font-family="Times,serif" font-size="14.00">PL39</text>
</g>
<!-- transition7 -->
<g id="node27" class="node"><title>transition7</title>
<polygon fill="none" stroke="black" points="220,-1525 184,-1525 184,-1524 220,-1524 220,-1525"/>
<text text-anchor="middle" x="176.5" y="-1528.8" font-family="Times,serif" font-size="14.00">x+</text>
</g>
<!-- PL39&#45;&gt;transition7 -->
<g id="edge27" class="edge"><title>PL39&#45;&gt;transition7</title>
<path fill="none" stroke="black" d="M202.678,-1560.94C202.479,-1550.39 202.236,-1537.53 202.102,-1530.41"/>
<polygon fill="none" stroke="black" points="203.845,-1530.03 202.001,-1525.06 200.346,-1530.09 203.845,-1530.03"/>
</g>
<!-- transition6&#45;&gt;PL39 -->
<g id="edge26" class="edge"><title>transition6&#45;&gt;PL39</title>
<path fill="none" stroke="black" d="M206.989,-1632.85C206.877,-1631.37 205.967,-1619.32 205.045,-1607.1"/>
<polygon fill="black" stroke="black" points="208.528,-1606.73 204.285,-1597.02 201.547,-1607.26 208.528,-1606.73"/>
</g>
<!-- PL40 -->
<g id="node26" class="node"><title>PL40</title>
<ellipse fill="none" stroke="black" cx="201" cy="-1470" rx="18" ry="18"/>
<text text-anchor="middle" x="201" y="-1466.3" font-family="Times,serif" font-size="14.00">PL40</text>
</g>
<!-- transition8 -->
<g id="node29" class="node"><title>transition8</title>
<polygon fill="none" stroke="black" points="212,-1416 176,-1416 176,-1415 212,-1415 212,-1416"/>
<text text-anchor="middle" x="160" y="-1419.8" font-family="Times,serif" font-size="14.00">busy&#45;</text>
</g>
<!-- PL40&#45;&gt;transition8 -->
<g id="edge29" class="edge"><title>PL40&#45;&gt;transition8</title>
<path fill="none" stroke="black" d="M198.747,-1451.94C197.353,-1441.39 195.655,-1428.53 194.715,-1421.41"/>
<polygon fill="none" stroke="black" points="196.398,-1420.79 194.008,-1416.06 192.928,-1421.25 196.398,-1420.79"/>
</g>
<!-- transition7&#45;&gt;PL40 -->
<g id="edge28" class="edge"><title>transition7&#45;&gt;PL40</title>
<path fill="none" stroke="black" d="M201.997,-1523.85C201.969,-1522.37 201.742,-1510.32 201.511,-1498.1"/>
<polygon fill="black" stroke="black" points="205.009,-1497.96 201.321,-1488.02 198.011,-1498.09 205.009,-1497.96"/>
</g>
<!-- PL3 -->
<g id="node28" class="node"><title>PL3</title>
<ellipse fill="none" stroke="black" cx="132" cy="-1361" rx="18" ry="18"/>
<text text-anchor="middle" x="132" y="-1357.3" font-family="Times,serif" font-size="14.00">PL3</text>
</g>
<!-- PL3&#45;&gt;transition27 -->
<g id="edge31" class="edge"><title>PL3&#45;&gt;transition27</title>
<path fill="none" stroke="black" d="M129.94,-1379.02C127.569,-1400.11 124,-1437.15 124,-1469 124,-1979 124,-1979 124,-1979 124,-2019.45 118.154,-2036.08 143,-2068 160.828,-2090.9 197.034,-2100.23 210.656,-2103.02"/>
<polygon fill="none" stroke="black" points="210.619,-2104.79 215.854,-2103.98 211.254,-2101.35 210.619,-2104.79"/>
</g>
<!-- transition8&#45;&gt;PL3 -->
<g id="edge30" class="edge"><title>transition8&#45;&gt;PL3</title>
<path fill="none" stroke="black" d="M193.955,-1414.96C192.823,-1413.99 170.531,-1394.94 153.009,-1379.96"/>
<polygon fill="black" stroke="black" points="155.262,-1377.28 145.386,-1373.44 150.713,-1382.6 155.262,-1377.28"/>
</g>
<!-- PL34 -->
<g id="node34" class="node"><title>PL34</title>
<ellipse fill="none" stroke="black" cx="194" cy="-1361" rx="18" ry="18"/>
<text text-anchor="middle" x="194" y="-1357.3" font-family="Times,serif" font-size="14.00">PL34</text>
</g>
<!-- transition8&#45;&gt;PL34 -->
<g id="edge38" class="edge"><title>transition8&#45;&gt;PL34</title>
<path fill="none" stroke="black" d="M194,-1414.85C194,-1413.37 194,-1401.32 194,-1389.1"/>
<polygon fill="black" stroke="black" points="197.5,-1389.02 194,-1379.02 190.5,-1389.02 197.5,-1389.02"/>
</g>
<!-- PL30&#45;&gt;transition9 -->
<g id="edge33" class="edge"><title>PL30&#45;&gt;transition9</title>
<path fill="none" stroke="black" d="M269.768,-2033.46C277.728,-2017.54 289.627,-1993.75 294.639,-1983.72"/>
<polygon fill="none" stroke="black" points="296.28,-1984.35 296.951,-1979.1 293.15,-1982.79 296.28,-1984.35"/>
</g>
<!-- transition10 -->
<g id="node33" class="node"><title>transition10</title>
<polygon fill="none" stroke="black" points="188,-1978.5 152,-1978.5 152,-1977.5 188,-1977.5 188,-1978.5"/>
<text text-anchor="middle" x="135" y="-1982.3" font-family="Times,serif" font-size="14.00">bprn+</text>
</g>
<!-- PL32&#45;&gt;transition10 -->
<g id="edge35" class="edge"><title>PL32&#45;&gt;transition10</title>
<path fill="none" stroke="black" d="M170,-2031.7C170,-2016.17 170,-1994.32 170,-1984.35"/>
<polygon fill="none" stroke="black" points="171.75,-1984.09 170,-1979.09 168.25,-1984.09 171.75,-1984.09"/>
</g>
<!-- PL33 -->
<g id="node32" class="node"><title>PL33</title>
<ellipse fill="none" stroke="black" cx="174" cy="-1906" rx="18" ry="18"/>
<text text-anchor="middle" x="174" y="-1902.3" font-family="Times,serif" font-size="14.00">PL33</text>
</g>
<!-- PL33&#45;&gt;transition11 -->
<g id="edge37" class="edge"><title>PL33&#45;&gt;transition11</title>
<path fill="none" stroke="black" d="M174.64,-1887.98C176.112,-1863.07 180.971,-1815.68 197,-1779 202.819,-1765.68 214.436,-1752.71 220.353,-1746.62"/>
<polygon fill="none" stroke="black" points="221.629,-1747.82 223.945,-1743.05 219.164,-1745.33 221.629,-1747.82"/>
</g>
<!-- transition10&#45;&gt;PL33 -->
<g id="edge36" class="edge"><title>transition10&#45;&gt;PL33</title>
<path fill="none" stroke="black" d="M170.003,-1976.95C170.072,-1975.75 171.347,-1953.43 172.439,-1934.32"/>
<polygon fill="black" stroke="black" points="175.941,-1934.37 173.018,-1924.19 168.953,-1933.98 175.941,-1934.37"/>
</g>
<!-- transition25 -->
<g id="node36" class="node"><title>transition25</title>
<polygon fill="none" stroke="black" points="212,-1307 176,-1307 176,-1306 212,-1306 212,-1307"/>
<text text-anchor="middle" x="159" y="-1310.8" font-family="Times,serif" font-size="14.00">mrdc&#45;</text>
</g>
<!-- PL34&#45;&gt;transition25 -->
<g id="edge39" class="edge"><title>PL34&#45;&gt;transition25</title>
<path fill="none" stroke="black" d="M194,-1342.94C194,-1332.39 194,-1319.53 194,-1312.41"/>
<polygon fill="none" stroke="black" points="195.75,-1312.06 194,-1307.06 192.25,-1312.06 195.75,-1312.06"/>
</g>
<!-- PL12 -->
<g id="node35" class="node"><title>PL12</title>
<ellipse fill="none" stroke="black" cx="121" cy="-1252" rx="18" ry="18"/>
<text text-anchor="middle" x="121" y="-1248.3" font-family="Times,serif" font-size="14.00">PL12</text>
</g>
<!-- transition12 -->
<g id="node38" class="node"><title>transition12</title>
<polygon fill="none" stroke="black" points="126,-1198 90,-1198 90,-1197 126,-1197 126,-1198"/>
<text text-anchor="middle" x="74" y="-1201.8" font-family="Times,serif" font-size="14.00">xack&#45;</text>
</g>
<!-- PL12&#45;&gt;transition12 -->
<g id="edge41" class="edge"><title>PL12&#45;&gt;transition12</title>
<path fill="none" stroke="black" d="M116.887,-1234.23C114.235,-1223.42 110.967,-1210.1 109.227,-1203"/>
<polygon fill="none" stroke="black" points="110.905,-1202.5 108.015,-1198.06 107.506,-1203.33 110.905,-1202.5"/>
</g>
<!-- transition25&#45;&gt;PL12 -->
<g id="edge40" class="edge"><title>transition25&#45;&gt;PL12</title>
<path fill="none" stroke="black" d="M193.947,-1305.96C192.566,-1304.96 164.43,-1284.53 143.513,-1269.35"/>
<polygon fill="black" stroke="black" points="145.516,-1266.47 135.368,-1263.43 141.404,-1272.14 145.516,-1266.47"/>
</g>
<!-- PL13 -->
<g id="node37" class="node"><title>PL13</title>
<ellipse fill="none" stroke="black" cx="101" cy="-1143" rx="18" ry="18"/>
<text text-anchor="middle" x="101" y="-1139.3" font-family="Times,serif" font-size="14.00">PL13</text>
</g>
<!-- transition18 -->
<g id="node40" class="node"><title>transition18</title>
<polygon fill="none" stroke="black" points="116,-1089 80,-1089 80,-1088 116,-1088 116,-1089"/>
<text text-anchor="middle" x="74" y="-1092.8" font-family="Times,serif" font-size="14.00">x&#45;</text>
</g>
<!-- PL13&#45;&gt;transition18 -->
<g id="edge43" class="edge"><title>PL13&#45;&gt;transition18</title>
<path fill="none" stroke="black" d="M100.034,-1124.94C99.4369,-1114.39 98.7095,-1101.53 98.3064,-1094.41"/>
<polygon fill="none" stroke="black" points="100.033,-1093.95 98.0033,-1089.06 96.5388,-1094.15 100.033,-1093.95"/>
</g>
<!-- transition12&#45;&gt;PL13 -->
<g id="edge42" class="edge"><title>transition12&#45;&gt;PL13</title>
<path fill="none" stroke="black" d="M107.98,-1196.85C107.784,-1195.37 106.193,-1183.32 104.579,-1171.1"/>
<polygon fill="black" stroke="black" points="108.028,-1170.48 103.249,-1161.02 101.088,-1171.4 108.028,-1170.48"/>
</g>
<!-- PL5 -->
<g id="node39" class="node"><title>PL5</title>
<ellipse fill="none" stroke="black" cx="98" cy="-1034" rx="18" ry="18"/>
<text text-anchor="middle" x="98" y="-1030.3" font-family="Times,serif" font-size="14.00">PL5</text>
</g>
<!-- transition13 -->
<g id="node42" class="node"><title>transition13</title>
<polygon fill="none" stroke="black" points="116,-980 80,-980 80,-979 116,-979 116,-980"/>
<text text-anchor="middle" x="69" y="-983.8" font-family="Times,serif" font-size="14.00">do+</text>
</g>
<!-- PL5&#45;&gt;transition13 -->
<g id="edge45" class="edge"><title>PL5&#45;&gt;transition13</title>
<path fill="none" stroke="black" d="M98,-1015.94C98,-1005.39 98,-992.534 98,-985.412"/>
<polygon fill="none" stroke="black" points="99.7501,-985.059 98,-980.059 96.2501,-985.059 99.7501,-985.059"/>
</g>
<!-- transition18&#45;&gt;PL5 -->
<g id="edge44" class="edge"><title>transition18&#45;&gt;PL5</title>
<path fill="none" stroke="black" d="M98,-1087.85C98,-1086.37 98,-1074.32 98,-1062.1"/>
<polygon fill="black" stroke="black" points="101.5,-1062.02 98,-1052.02 94.5001,-1062.02 101.5,-1062.02"/>
</g>
<!-- PL6 -->
<g id="node41" class="node"><title>PL6</title>
<ellipse fill="none" stroke="black" cx="98" cy="-925" rx="18" ry="18"/>
<text text-anchor="middle" x="98" y="-921.3" font-family="Times,serif" font-size="14.00">PL6</text>
</g>
<!-- transition14 -->
<g id="node44" class="node"><title>transition14</title>
<polygon fill="none" stroke="black" points="116,-871 80,-871 80,-870 116,-870 116,-871"/>
<text text-anchor="middle" x="70.5" y="-874.8" font-family="Times,serif" font-size="14.00">di+</text>
</g>
<!-- PL6&#45;&gt;transition14 -->
<g id="edge47" class="edge"><title>PL6&#45;&gt;transition14</title>
<path fill="none" stroke="black" d="M98,-906.939C98,-896.385 98,-883.534 98,-876.412"/>
<polygon fill="none" stroke="black" points="99.7501,-876.059 98,-871.059 96.2501,-876.059 99.7501,-876.059"/>
</g>
<!-- transition13&#45;&gt;PL6 -->
<g id="edge46" class="edge"><title>transition13&#45;&gt;PL6</title>
<path fill="none" stroke="black" d="M98,-978.848C98,-977.368 98,-965.319 98,-953.1"/>
<polygon fill="black" stroke="black" points="101.5,-953.025 98,-943.025 94.5001,-953.025 101.5,-953.025"/>
</g>
<!-- PL16 -->
<g id="node43" class="node"><title>PL16</title>
<ellipse fill="none" stroke="black" cx="135" cy="-816" rx="18" ry="18"/>
<text text-anchor="middle" x="135" y="-812.3" font-family="Times,serif" font-size="14.00">PL16</text>
</g>
<!-- transition21 -->
<g id="node46" class="node"><title>transition21</title>
<polygon fill="none" stroke="black" points="157,-744.5 121,-744.5 121,-743.5 157,-743.5 157,-744.5"/>
<text text-anchor="middle" x="102.5" y="-748.3" font-family="Times,serif" font-size="14.00">mrdc+</text>
</g>
<!-- PL16&#45;&gt;transition21 -->
<g id="edge49" class="edge"><title>PL16&#45;&gt;transition21</title>
<path fill="none" stroke="black" d="M135.989,-797.697C136.876,-782.165 138.124,-760.324 138.694,-750.348"/>
<polygon fill="none" stroke="black" points="140.457,-750.184 138.995,-745.092 136.962,-749.984 140.457,-750.184"/>
</g>
<!-- transition14&#45;&gt;PL16 -->
<g id="edge48" class="edge"><title>transition14&#45;&gt;PL16</title>
<path fill="none" stroke="black" d="M98.1061,-869.848C99.2605,-868.194 109.626,-853.347 119.076,-839.81"/>
<polygon fill="black" stroke="black" points="122.194,-841.458 125.048,-831.255 116.454,-837.451 122.194,-841.458"/>
</g>
<!-- PL7 -->
<g id="node66" class="node"><title>PL7</title>
<ellipse fill="none" stroke="black" cx="66" cy="-744" rx="18" ry="18"/>
<text text-anchor="middle" x="66" y="-740.3" font-family="Times,serif" font-size="14.00">PL7</text>
</g>
<!-- transition14&#45;&gt;PL7 -->
<g id="edge76" class="edge"><title>transition14&#45;&gt;PL7</title>
<path fill="none" stroke="black" d="M97.9768,-869.909C97.2999,-867.265 81.962,-807.352 72.7784,-771.478"/>
<polygon fill="black" stroke="black" points="76.1294,-770.455 70.2587,-761.635 69.3481,-772.191 76.1294,-770.455"/>
</g>
<!-- PL17 -->
<g id="node45" class="node"><title>PL17</title>
<ellipse fill="none" stroke="black" cx="94" cy="-672" rx="18" ry="18"/>
<text text-anchor="middle" x="94" y="-668.3" font-family="Times,serif" font-size="14.00">PL17</text>
</g>
<!-- transition22 -->
<g id="node48" class="node"><title>transition22</title>
<polygon fill="none" stroke="black" points="112,-618 76,-618 76,-617 112,-617 112,-618"/>
<text text-anchor="middle" x="66.5" y="-621.8" font-family="Times,serif" font-size="14.00">do&#45;</text>
</g>
<!-- PL17&#45;&gt;transition22 -->
<g id="edge51" class="edge"><title>PL17&#45;&gt;transition22</title>
<path fill="none" stroke="black" d="M94,-653.939C94,-643.385 94,-630.534 94,-623.412"/>
<polygon fill="none" stroke="black" points="95.7501,-623.059 94,-618.059 92.2501,-623.059 95.7501,-623.059"/>
</g>
<!-- transition21&#45;&gt;PL17 -->
<g id="edge50" class="edge"><title>transition21&#45;&gt;PL17</title>
<path fill="none" stroke="black" d="M138.967,-742.949C138.137,-741.657 121.601,-715.934 108.821,-696.055"/>
<polygon fill="black" stroke="black" points="111.635,-693.96 103.283,-687.44 105.747,-697.745 111.635,-693.96"/>
</g>
<!-- PL20 -->
<g id="node62" class="node"><title>PL20</title>
<ellipse fill="none" stroke="black" cx="148" cy="-672" rx="18" ry="18"/>
<text text-anchor="middle" x="148" y="-668.3" font-family="Times,serif" font-size="14.00">PL20</text>
</g>
<!-- transition21&#45;&gt;PL20 -->
<g id="edge70" class="edge"><title>transition21&#45;&gt;PL20</title>
<path fill="none" stroke="black" d="M139.007,-742.949C139.161,-741.748 142.031,-719.429 144.487,-700.321"/>
<polygon fill="black" stroke="black" points="147.986,-700.556 145.79,-690.191 141.043,-699.663 147.986,-700.556"/>
</g>
<!-- PL18 -->
<g id="node65" class="node"><title>PL18</title>
<ellipse fill="none" stroke="black" cx="240" cy="-672" rx="18" ry="18"/>
<text text-anchor="middle" x="240" y="-668.3" font-family="Times,serif" font-size="14.00">PL18</text>
</g>
<!-- transition21&#45;&gt;PL18 -->
<g id="edge74" class="edge"><title>transition21&#45;&gt;PL18</title>
<path fill="none" stroke="black" d="M139.073,-742.949C141.174,-741.494 187.991,-709.046 217.115,-688.861"/>
<polygon fill="black" stroke="black" points="219.29,-691.612 225.516,-683.039 215.303,-685.858 219.29,-691.612"/>
</g>
<!-- PL9 -->
<g id="node47" class="node"><title>PL9</title>
<ellipse fill="none" stroke="black" cx="140" cy="-563" rx="18" ry="18"/>
<text text-anchor="middle" x="140" y="-559.3" font-family="Times,serif" font-size="14.00">PL9</text>
</g>
<!-- transition15 -->
<g id="node50" class="node"><title>transition15</title>
<polygon fill="none" stroke="black" points="212,-509 176,-509 176,-508 212,-508 212,-509"/>
<text text-anchor="middle" x="168" y="-512.8" font-family="Times,serif" font-size="14.00">di&#45;</text>
</g>
<!-- PL9&#45;&gt;transition15 -->
<g id="edge53" class="edge"><title>PL9&#45;&gt;transition15</title>
<path fill="none" stroke="black" d="M152.524,-549.708C164.598,-537.858 182.153,-520.627 189.977,-512.948"/>
<polygon fill="none" stroke="black" points="191.584,-513.824 193.926,-509.072 189.132,-511.326 191.584,-513.824"/>
</g>
<!-- transition22&#45;&gt;PL9 -->
<g id="edge52" class="edge"><title>transition22&#45;&gt;PL9</title>
<path fill="none" stroke="black" d="M94.132,-616.848C95.6297,-615.122 109.599,-599.027 121.732,-585.048"/>
<polygon fill="black" stroke="black" points="124.644,-587.033 128.555,-577.186 119.357,-582.444 124.644,-587.033"/>
</g>
<!-- PL11 -->
<g id="node49" class="node"><title>PL11</title>
<ellipse fill="none" stroke="black" cx="267" cy="-454" rx="18" ry="18"/>
<text text-anchor="middle" x="267" y="-450.3" font-family="Times,serif" font-size="14.00">PL11</text>
</g>
<!-- PL11&#45;&gt;transition25 -->
<g id="edge55" class="edge"><title>PL11&#45;&gt;transition25</title>
<path fill="none" stroke="black" d="M271.795,-471.519C277.423,-492.402 286,-529.549 286,-562 286,-1198 286,-1198 286,-1198 286,-1252.31 217.746,-1293.19 198.817,-1303.48"/>
<polygon fill="none" stroke="black" points="197.684,-1302.1 194.067,-1305.97 199.308,-1305.2 197.684,-1302.1"/>
</g>
<!-- transition15&#45;&gt;PL11 -->
<g id="edge54" class="edge"><title>transition15&#45;&gt;PL11</title>
<path fill="none" stroke="black" d="M194.053,-507.962C195.434,-506.959 223.57,-486.531 244.487,-471.345"/>
<polygon fill="black" stroke="black" points="246.596,-474.139 252.632,-465.432 242.484,-468.474 246.596,-474.139"/>
</g>
<!-- PL10 -->
<g id="node51" class="node"><title>PL10</title>
<ellipse fill="none" stroke="black" cx="194" cy="-454" rx="18" ry="18"/>
<text text-anchor="middle" x="194" y="-450.3" font-family="Times,serif" font-size="14.00">PL10</text>
</g>
<!-- transition15&#45;&gt;PL10 -->
<g id="edge56" class="edge"><title>transition15&#45;&gt;PL10</title>
<path fill="none" stroke="black" d="M194,-507.848C194,-506.368 194,-494.319 194,-482.1"/>
<polygon fill="black" stroke="black" points="197.5,-482.025 194,-472.025 190.5,-482.025 197.5,-482.025"/>
</g>
<!-- transition20 -->
<g id="node53" class="node"><title>transition20</title>
<polygon fill="none" stroke="black" points="212,-400 176,-400 176,-399 212,-399 212,-400"/>
<text text-anchor="middle" x="161.5" y="-403.8" font-family="Times,serif" font-size="14.00">pdo+</text>
</g>
<!-- PL10&#45;&gt;transition20 -->
<g id="edge57" class="edge"><title>PL10&#45;&gt;transition20</title>
<path fill="none" stroke="black" d="M194,-435.939C194,-425.385 194,-412.534 194,-405.412"/>
<polygon fill="none" stroke="black" points="195.75,-405.059 194,-400.059 192.25,-405.059 195.75,-405.059"/>
</g>
<!-- PL4 -->
<g id="node52" class="node"><title>PL4</title>
<ellipse fill="none" stroke="black" cx="194" cy="-345" rx="18" ry="18"/>
<text text-anchor="middle" x="194" y="-341.3" font-family="Times,serif" font-size="14.00">PL4</text>
</g>
<!-- transition16 -->
<g id="node55" class="node"><title>transition16</title>
<polygon fill="none" stroke="black" points="185,-291 149,-291 149,-290 185,-290 185,-291"/>
<text text-anchor="middle" x="131.5" y="-294.8" font-family="Times,serif" font-size="14.00">pack+</text>
</g>
<!-- PL4&#45;&gt;transition16 -->
<g id="edge59" class="edge"><title>PL4&#45;&gt;transition16</title>
<path fill="none" stroke="black" d="M186.19,-328.67C180.517,-317.534 173.204,-303.177 169.455,-295.818"/>
<polygon fill="none" stroke="black" points="170.861,-294.724 167.032,-291.064 167.743,-296.313 170.861,-294.724"/>
</g>
<!-- transition20&#45;&gt;PL4 -->
<g id="edge58" class="edge"><title>transition20&#45;&gt;PL4</title>
<path fill="none" stroke="black" d="M194,-398.848C194,-397.368 194,-385.319 194,-373.1"/>
<polygon fill="black" stroke="black" points="197.5,-373.025 194,-363.025 190.5,-373.025 197.5,-373.025"/>
</g>
<!-- PL36 -->
<g id="node60" class="node"><title>PL36</title>
<ellipse fill="none" stroke="black" cx="140" cy="-345" rx="18" ry="18"/>
<text text-anchor="middle" x="140" y="-341.3" font-family="Times,serif" font-size="14.00">PL36</text>
</g>
<!-- transition20&#45;&gt;PL36 -->
<g id="edge66" class="edge"><title>transition20&#45;&gt;PL36</title>
<path fill="none" stroke="black" d="M193.845,-398.848C192.012,-397.049 174.262,-379.628 159.635,-365.272"/>
<polygon fill="black" stroke="black" points="161.96,-362.649 152.372,-358.143 157.057,-367.645 161.96,-362.649"/>
</g>
<!-- PL35 -->
<g id="node54" class="node"><title>PL35</title>
<ellipse fill="none" stroke="black" cx="48" cy="-236" rx="18" ry="18"/>
<text text-anchor="middle" x="48" y="-232.3" font-family="Times,serif" font-size="14.00">PL35</text>
</g>
<!-- transition17 -->
<g id="node57" class="node"><title>transition17</title>
<polygon fill="none" stroke="black" points="62,-182 26,-182 26,-181 62,-181 62,-182"/>
<text text-anchor="middle" x="13" y="-185.8" font-family="Times,serif" font-size="14.00">pdo&#45;</text>
</g>
<!-- PL35&#45;&gt;transition17 -->
<g id="edge61" class="edge"><title>PL35&#45;&gt;transition17</title>
<path fill="none" stroke="black" d="M46.7124,-217.939C45.9159,-207.385 44.946,-194.534 44.4085,-187.412"/>
<polygon fill="none" stroke="black" points="46.1259,-186.913 44.0045,-182.059 42.6358,-187.177 46.1259,-186.913"/>
</g>
<!-- transition16&#45;&gt;PL35 -->
<g id="edge60" class="edge"><title>transition16&#45;&gt;PL35</title>
<path fill="none" stroke="black" d="M166.914,-289.962C164.403,-288.843 107.649,-263.566 73.4682,-248.343"/>
<polygon fill="black" stroke="black" points="74.6387,-245.033 64.0798,-244.162 71.7908,-251.427 74.6387,-245.033"/>
</g>
<!-- PL14 -->
<g id="node56" class="node"><title>PL14</title>
<ellipse fill="none" stroke="black" cx="42" cy="-127" rx="18" ry="18"/>
<text text-anchor="middle" x="42" y="-123.3" font-family="Times,serif" font-size="14.00">PL14</text>
</g>
<!-- transition19 -->
<g id="node59" class="node"><title>transition19</title>
<polygon fill="none" stroke="black" points="136,-73 100,-73 100,-72 136,-72 136,-73"/>
<text text-anchor="middle" x="84" y="-76.8" font-family="Times,serif" font-size="14.00">pack&#45;</text>
</g>
<!-- PL14&#45;&gt;transition19 -->
<g id="edge63" class="edge"><title>PL14&#45;&gt;transition19</title>
<path fill="none" stroke="black" d="M56.295,-116.031C73.7901,-103.831 102.447,-83.8463 113.477,-76.1543"/>
<polygon fill="none" stroke="black" points="114.785,-77.3754 117.885,-73.0799 112.783,-74.5045 114.785,-77.3754"/>
</g>
<!-- transition17&#45;&gt;PL14 -->
<g id="edge62" class="edge"><title>transition17&#45;&gt;PL14</title>
<path fill="none" stroke="black" d="M43.9943,-180.848C43.9384,-179.368 43.4837,-167.319 43.0227,-155.1"/>
<polygon fill="black" stroke="black" points="46.5171,-154.886 42.6424,-145.025 39.5221,-155.15 46.5171,-154.886"/>
</g>
<!-- PL8 -->
<g id="node61" class="node"><title>PL8</title>
<ellipse fill="none" stroke="black" cx="96" cy="-127" rx="18" ry="18"/>
<text text-anchor="middle" x="96" y="-123.3" font-family="Times,serif" font-size="14.00">PL8</text>
</g>
<!-- transition17&#45;&gt;PL8 -->
<g id="edge68" class="edge"><title>transition17&#45;&gt;PL8</title>
<path fill="none" stroke="black" d="M44.1492,-180.848C45.8883,-179.075 62.5017,-162.142 76.4617,-147.914"/>
<polygon fill="black" stroke="black" points="79.3278,-149.99 83.8329,-140.401 74.3312,-145.088 79.3278,-149.99"/>
</g>
<!-- PL15 -->
<g id="node58" class="node"><title>PL15</title>
<ellipse fill="none" stroke="black" cx="179" cy="-18" rx="18" ry="18"/>
<text text-anchor="middle" x="179" y="-14.3" font-family="Times,serif" font-size="14.00">PL15</text>
</g>
<!-- PL15&#45;&gt;transition20 -->
<g id="edge65" class="edge"><title>PL15&#45;&gt;transition20</title>
<path fill="none" stroke="black" d="M191.639,-31.2047C209.507,-49.8337 240,-87.2966 240,-126 240,-291 240,-291 240,-291 240,-324.095 235.418,-333.21 221,-363 214.67,-376.08 203.285,-389.157 197.532,-395.331"/>
<polygon fill="none" stroke="black" points="196.258,-394.131 194.053,-398.948 198.78,-396.558 196.258,-394.131"/>
</g>
<!-- transition19&#45;&gt;PL15 -->
<g id="edge64" class="edge"><title>transition19&#45;&gt;PL15</title>
<path fill="none" stroke="black" d="M118.044,-71.9616C119.148,-71.0026 140.697,-52.2799 157.863,-37.3647"/>
<polygon fill="black" stroke="black" points="160.576,-39.6439 165.83,-30.4431 155.985,-34.3598 160.576,-39.6439"/>
</g>
<!-- PL36&#45;&gt;transition18 -->
<g id="edge67" class="edge"><title>PL36&#45;&gt;transition18</title>
<path fill="none" stroke="black" d="M124.833,-355.021C90.5404,-376.696 10,-435.337 10,-508 10,-980 10,-980 10,-980 10,-1033.33 75.286,-1074.91 93.3926,-1085.42"/>
<polygon fill="none" stroke="black" points="92.7186,-1087.05 97.9362,-1087.97 94.4286,-1084 92.7186,-1087.05"/>
</g>
<!-- PL8&#45;&gt;transition22 -->
<g id="edge69" class="edge"><title>PL8&#45;&gt;transition22</title>
<path fill="none" stroke="black" d="M95.485,-145.047C94.8924,-166.16 94,-203.229 94,-235 94,-509 94,-509 94,-509 94,-548.498 94,-596.122 94,-611.753"/>
<polygon fill="none" stroke="black" points="92.2501,-611.956 94,-616.956 95.7501,-611.956 92.2501,-611.956"/>
</g>
<!-- transition24 -->
<g id="node64" class="node"><title>transition24</title>
<polygon fill="none" stroke="black" points="166,-618 130,-618 130,-617 166,-617 166,-618"/>
<text text-anchor="middle" x="112.5" y="-621.8" font-family="Times,serif" font-size="14.00">xack+</text>
</g>
<!-- PL20&#45;&gt;transition24 -->
<g id="edge71" class="edge"><title>PL20&#45;&gt;transition24</title>
<path fill="none" stroke="black" d="M148,-653.939C148,-643.385 148,-630.534 148,-623.412"/>
<polygon fill="none" stroke="black" points="149.75,-623.059 148,-618.059 146.25,-623.059 149.75,-623.059"/>
</g>
<!-- PL21 -->
<g id="node63" class="node"><title>PL21</title>
<ellipse fill="none" stroke="black" cx="194" cy="-563" rx="18" ry="18"/>
<text text-anchor="middle" x="194" y="-559.3" font-family="Times,serif" font-size="14.00">PL21</text>
</g>
<!-- PL21&#45;&gt;transition25 -->
<g id="edge73" class="edge"><title>PL21&#45;&gt;transition25</title>
<path fill="none" stroke="black" d="M194,-581.049C194,-602.164 194,-639.234 194,-671 194,-1198 194,-1198 194,-1198 194,-1237.5 194,-1285.12 194,-1300.75"/>
<polygon fill="none" stroke="black" points="192.25,-1300.96 194,-1305.96 195.75,-1300.96 192.25,-1300.96"/>
</g>
<!-- transition24&#45;&gt;PL21 -->
<g id="edge72" class="edge"><title>transition24&#45;&gt;PL21</title>
<path fill="none" stroke="black" d="M148.132,-616.848C149.63,-615.122 163.599,-599.027 175.732,-585.048"/>
<polygon fill="black" stroke="black" points="178.644,-587.033 182.555,-577.186 173.357,-582.444 178.644,-587.033"/>
</g>
<!-- PL18&#45;&gt;transition23 -->
<g id="edge75" class="edge"><title>PL18&#45;&gt;transition23</title>
<path fill="none" stroke="black" d="M253.125,-684.876C276.75,-707.628 324,-760.005 324,-815 324,-1743 324,-1743 324,-1743 324,-1776.1 326.454,-1789.8 305,-1815 284.319,-1839.29 244.014,-1847.85 229.431,-1850.22"/>
<polygon fill="none" stroke="black" points="228.86,-1848.54 224.16,-1850.98 229.358,-1852 228.86,-1848.54"/>
</g>
<!-- PL7&#45;&gt;transition17 -->
<g id="edge77" class="edge"><title>PL7&#45;&gt;transition17</title>
<path fill="none" stroke="black" d="M62.0052,-726.128C56.7023,-702.214 48,-657.027 48,-618 48,-618 48,-618 48,-508 48,-433.154 2,-420.846 2,-346 2,-346 2,-346 2,-290 2,-256.905 7.70879,-248.309 21,-218 26.4247,-205.63 35.7718,-192.64 40.7147,-186.173"/>
<polygon fill="none" stroke="black" points="42.2392,-187.066 43.9557,-182.054 39.4885,-184.901 42.2392,-187.066"/>
</g>
<!-- transition4 -->
<g id="node68" class="node"><title>transition4</title>
<polygon fill="none" stroke="black" points="449,-1743 413,-1743 413,-1742 449,-1742 449,-1743"/>
<text text-anchor="middle" x="400" y="-1746.8" font-family="Times,serif" font-size="14.00">aro+</text>
</g>
<!-- PL26&#45;&gt;transition4 -->
<g id="edge79" class="edge"><title>PL26&#45;&gt;transition4</title>
<path fill="none" stroke="black" d="M414.901,-1780.1C419.721,-1768.99 425.831,-1754.91 428.956,-1747.71"/>
<polygon fill="none" stroke="black" points="430.588,-1748.35 430.973,-1743.06 427.377,-1746.95 430.588,-1748.35"/>
</g>
<!-- transition4&#45;&gt;PL1 -->
<g id="edge80" class="edge"><title>transition4&#45;&gt;PL1</title>
<path fill="none" stroke="black" d="M431.017,-1743.04C431.713,-1744.84 454,-1802.69 454,-1851 454,-2378 454,-2378 454,-2378 454,-2409.18 437.314,-2441.61 424.041,-2462.48"/>
<polygon fill="black" stroke="black" points="421.04,-2460.67 418.438,-2470.94 426.877,-2464.54 421.04,-2460.67"/>
</g>
</g>
</svg>
