<?xml version="1.0" encoding="UTF-8" standalone="no"?>
<!DOCTYPE svg PUBLIC "-//W3C//DTD SVG 1.1//EN"
 "http://www.w3.org/Graphics/SVG/1.1/DTD/svg11.dtd">
<!-- Generated by graphviz version 2.38.0 (20140413.2041)
 -->
<!-- Title: %3 Pages: 1 -->
<svg width="118pt" height="916pt"
 viewBox="0.00 0.00 118.00 916.00" xmlns="http://www.w3.org/2000/svg" xmlns:xlink="http://www.w3.org/1999/xlink">
<g id="graph0" class="graph" transform="scale(1 1) rotate(0) translate(4 912)">
<title>%3</title>
<polygon fill="white" stroke="none" points="-4,4 -4,-912 114,-912 114,4 -4,4"/>
<!-- PL1 -->
<g id="node1" class="node"><title>PL1</title>
<ellipse fill="none" stroke="black" cx="87" cy="-890" rx="18" ry="18"/>
<text text-anchor="middle" x="87" y="-886.3" font-family="Times,serif" font-size="14.00">PL1</text>
</g>
<!-- transition4 -->
<g id="node3" class="node"><title>transition4</title>
<polygon fill="none" stroke="black" points="82,-836 46,-836 46,-835 82,-835 82,-836"/>
<text text-anchor="middle" x="33" y="-839.8" font-family="Times,serif" font-size="14.00">Ao+</text>
</g>
<!-- PL1&#45;&gt;transition4 -->
<g id="edge1" class="edge"><title>PL1&#45;&gt;transition4</title>
<path fill="none" stroke="black" d="M80.0992,-873.098C75.2795,-861.992 69.1693,-847.912 66.0441,-840.71"/>
<polygon fill="none" stroke="black" points="67.6228,-839.952 64.027,-836.062 64.4121,-841.346 67.6228,-839.952"/>
</g>
<!-- PL4 -->
<g id="node2" class="node"><title>PL4</title>
<ellipse fill="none" stroke="black" cx="64" cy="-781" rx="18" ry="18"/>
<text text-anchor="middle" x="64" y="-777.3" font-family="Times,serif" font-size="14.00">PL4</text>
</g>
<!-- transition1 -->
<g id="node5" class="node"><title>transition1</title>
<polygon fill="none" stroke="black" points="82,-727 46,-727 46,-726 82,-726 82,-727"/>
<text text-anchor="middle" x="37" y="-730.8" font-family="Times,serif" font-size="14.00">Ri&#45;</text>
</g>
<!-- PL4&#45;&gt;transition1 -->
<g id="edge3" class="edge"><title>PL4&#45;&gt;transition1</title>
<path fill="none" stroke="black" d="M64,-762.939C64,-752.385 64,-739.534 64,-732.412"/>
<polygon fill="none" stroke="black" points="65.7501,-732.059 64,-727.059 62.2501,-732.059 65.7501,-732.059"/>
</g>
<!-- transition4&#45;&gt;PL4 -->
<g id="edge2" class="edge"><title>transition4&#45;&gt;PL4</title>
<path fill="none" stroke="black" d="M64,-834.848C64,-833.368 64,-821.319 64,-809.1"/>
<polygon fill="black" stroke="black" points="67.5001,-809.025 64,-799.025 60.5001,-809.025 67.5001,-809.025"/>
</g>
<!-- PL5 -->
<g id="node4" class="node"><title>PL5</title>
<ellipse fill="none" stroke="black" cx="64" cy="-672" rx="18" ry="18"/>
<text text-anchor="middle" x="64" y="-668.3" font-family="Times,serif" font-size="14.00">PL5</text>
</g>
<!-- transition2 -->
<g id="node7" class="node"><title>transition2</title>
<polygon fill="none" stroke="black" points="82,-618 46,-618 46,-617 82,-617 82,-618"/>
<text text-anchor="middle" x="35" y="-621.8" font-family="Times,serif" font-size="14.00">Ao&#45;</text>
</g>
<!-- PL5&#45;&gt;transition2 -->
<g id="edge5" class="edge"><title>PL5&#45;&gt;transition2</title>
<path fill="none" stroke="black" d="M64,-653.939C64,-643.385 64,-630.534 64,-623.412"/>
<polygon fill="none" stroke="black" points="65.7501,-623.059 64,-618.059 62.2501,-623.059 65.7501,-623.059"/>
</g>
<!-- transition1&#45;&gt;PL5 -->
<g id="edge4" class="edge"><title>transition1&#45;&gt;PL5</title>
<path fill="none" stroke="black" d="M64,-725.848C64,-724.368 64,-712.319 64,-700.1"/>
<polygon fill="black" stroke="black" points="67.5001,-700.025 64,-690.025 60.5001,-700.025 67.5001,-700.025"/>
</g>
<!-- PL6 -->
<g id="node6" class="node"><title>PL6</title>
<ellipse fill="none" stroke="black" cx="64" cy="-563" rx="18" ry="18"/>
<text text-anchor="middle" x="64" y="-559.3" font-family="Times,serif" font-size="14.00">PL6</text>
</g>
<!-- transition3 -->
<g id="node8" class="node"><title>transition3</title>
<polygon fill="none" stroke="black" points="86,-509 50,-509 50,-508 86,-508 86,-509"/>
<text text-anchor="middle" x="39" y="-512.8" font-family="Times,serif" font-size="14.00">Ri+</text>
</g>
<!-- PL6&#45;&gt;transition3 -->
<g id="edge7" class="edge"><title>PL6&#45;&gt;transition3</title>
<path fill="none" stroke="black" d="M65.2876,-544.939C66.0841,-534.385 67.054,-521.534 67.5915,-514.412"/>
<polygon fill="none" stroke="black" points="69.3642,-514.177 67.9955,-509.059 65.8741,-513.913 69.3642,-514.177"/>
</g>
<!-- transition2&#45;&gt;PL6 -->
<g id="edge6" class="edge"><title>transition2&#45;&gt;PL6</title>
<path fill="none" stroke="black" d="M64,-616.848C64,-615.368 64,-603.319 64,-591.1"/>
<polygon fill="black" stroke="black" points="67.5001,-591.025 64,-581.025 60.5001,-591.025 67.5001,-591.025"/>
</g>
<!-- transition3&#45;&gt;PL1 -->
<g id="edge8" class="edge"><title>transition3&#45;&gt;PL1</title>
<path fill="none" stroke="black" d="M68.0443,-509.054C68.9534,-510.162 83.6132,-528.155 91,-545 104.291,-575.309 110,-583.905 110,-617 110,-782 110,-782 110,-782 110,-810.249 102.243,-841.774 95.7384,-863.244"/>
<polygon fill="black" stroke="black" points="92.3576,-862.327 92.6854,-872.917 99.033,-864.434 92.3576,-862.327"/>
</g>
<!-- PL2 -->
<g id="node9" class="node"><title>PL2</title>
<ellipse fill="none" stroke="black" cx="18" cy="-454" rx="18" ry="18"/>
<text text-anchor="middle" x="18" y="-450.3" font-family="Times,serif" font-size="14.00">PL2</text>
</g>
<!-- transition3&#45;&gt;PL2 -->
<g id="edge9" class="edge"><title>transition3&#45;&gt;PL2</title>
<path fill="none" stroke="black" d="M67.8566,-507.848C66.194,-506.086 50.3941,-489.338 37.0198,-475.161"/>
<polygon fill="black" stroke="black" points="39.3526,-472.533 29.9445,-467.661 34.2608,-477.337 39.3526,-472.533"/>
</g>
<!-- PL7 -->
<g id="node10" class="node"><title>PL7</title>
<ellipse fill="none" stroke="black" cx="72" cy="-454" rx="18" ry="18"/>
<text text-anchor="middle" x="72" y="-450.3" font-family="Times,serif" font-size="14.00">PL7</text>
</g>
<!-- transition3&#45;&gt;PL7 -->
<g id="edge11" class="edge"><title>transition3&#45;&gt;PL7</title>
<path fill="none" stroke="black" d="M68.0115,-507.848C68.1232,-506.368 69.0325,-494.319 69.9547,-482.1"/>
<polygon fill="black" stroke="black" points="73.4525,-482.26 70.7151,-472.025 66.4724,-481.733 73.4525,-482.26"/>
</g>
<!-- PL2&#45;&gt;transition4 -->
<g id="edge10" class="edge"><title>PL2&#45;&gt;transition4</title>
<path fill="none" stroke="black" d="M18,-472.049C18,-493.164 18,-530.234 18,-562 18,-727 18,-727 18,-727 18,-760.095 22.5822,-769.21 37,-799 43.3305,-812.08 54.7151,-825.157 60.4677,-831.331"/>
<polygon fill="none" stroke="black" points="59.2196,-832.558 63.9473,-834.948 61.742,-830.131 59.2196,-832.558"/>
</g>
<!-- transition8 -->
<g id="node12" class="node"><title>transition8</title>
<polygon fill="none" stroke="black" points="90,-400 54,-400 54,-399 90,-399 90,-400"/>
<text text-anchor="middle" x="41.5" y="-403.8" font-family="Times,serif" font-size="14.00">Ro+</text>
</g>
<!-- PL7&#45;&gt;transition8 -->
<g id="edge12" class="edge"><title>PL7&#45;&gt;transition8</title>
<path fill="none" stroke="black" d="M72,-435.939C72,-425.385 72,-412.534 72,-405.412"/>
<polygon fill="none" stroke="black" points="73.7501,-405.059 72,-400.059 70.2501,-405.059 73.7501,-405.059"/>
</g>
<!-- PL8 -->
<g id="node11" class="node"><title>PL8</title>
<ellipse fill="none" stroke="black" cx="49" cy="-345" rx="18" ry="18"/>
<text text-anchor="middle" x="49" y="-341.3" font-family="Times,serif" font-size="14.00">PL8</text>
</g>
<!-- transition5 -->
<g id="node14" class="node"><title>transition5</title>
<polygon fill="none" stroke="black" points="67,-291 31,-291 31,-290 67,-290 67,-291"/>
<text text-anchor="middle" x="20" y="-294.8" font-family="Times,serif" font-size="14.00">Ai+</text>
</g>
<!-- PL8&#45;&gt;transition5 -->
<g id="edge14" class="edge"><title>PL8&#45;&gt;transition5</title>
<path fill="none" stroke="black" d="M49,-326.939C49,-316.385 49,-303.534 49,-296.412"/>
<polygon fill="none" stroke="black" points="50.7501,-296.059 49,-291.059 47.2501,-296.059 50.7501,-296.059"/>
</g>
<!-- transition8&#45;&gt;PL8 -->
<g id="edge13" class="edge"><title>transition8&#45;&gt;PL8</title>
<path fill="none" stroke="black" d="M71.934,-398.848C71.2621,-397.3 65.5707,-384.185 60.0263,-371.409"/>
<polygon fill="black" stroke="black" points="63.0925,-369.682 55.9008,-361.902 56.671,-372.469 63.0925,-369.682"/>
</g>
<!-- PL9 -->
<g id="node13" class="node"><title>PL9</title>
<ellipse fill="none" stroke="black" cx="49" cy="-236" rx="18" ry="18"/>
<text text-anchor="middle" x="49" y="-232.3" font-family="Times,serif" font-size="14.00">PL9</text>
</g>
<!-- transition6 -->
<g id="node16" class="node"><title>transition6</title>
<polygon fill="none" stroke="black" points="67,-182 31,-182 31,-181 67,-181 67,-182"/>
<text text-anchor="middle" x="20" y="-185.8" font-family="Times,serif" font-size="14.00">Ro&#45;</text>
</g>
<!-- PL9&#45;&gt;transition6 -->
<g id="edge16" class="edge"><title>PL9&#45;&gt;transition6</title>
<path fill="none" stroke="black" d="M49,-217.939C49,-207.385 49,-194.534 49,-187.412"/>
<polygon fill="none" stroke="black" points="50.7501,-187.059 49,-182.059 47.2501,-187.059 50.7501,-187.059"/>
</g>
<!-- transition5&#45;&gt;PL9 -->
<g id="edge15" class="edge"><title>transition5&#45;&gt;PL9</title>
<path fill="none" stroke="black" d="M49,-289.848C49,-288.368 49,-276.319 49,-264.1"/>
<polygon fill="black" stroke="black" points="52.5001,-264.025 49,-254.025 45.5001,-264.025 52.5001,-264.025"/>
</g>
<!-- PL10 -->
<g id="node15" class="node"><title>PL10</title>
<ellipse fill="none" stroke="black" cx="49" cy="-127" rx="18" ry="18"/>
<text text-anchor="middle" x="49" y="-123.3" font-family="Times,serif" font-size="14.00">PL10</text>
</g>
<!-- transition7 -->
<g id="node18" class="node"><title>transition7</title>
<polygon fill="none" stroke="black" points="67,-73 31,-73 31,-72 67,-72 67,-73"/>
<text text-anchor="middle" x="21.5" y="-76.8" font-family="Times,serif" font-size="14.00">Ai&#45;</text>
</g>
<!-- PL10&#45;&gt;transition7 -->
<g id="edge18" class="edge"><title>PL10&#45;&gt;transition7</title>
<path fill="none" stroke="black" d="M49,-108.939C49,-98.3852 49,-85.5344 49,-78.4124"/>
<polygon fill="none" stroke="black" points="50.7501,-78.0591 49,-73.0591 47.2501,-78.0592 50.7501,-78.0591"/>
</g>
<!-- transition6&#45;&gt;PL10 -->
<g id="edge17" class="edge"><title>transition6&#45;&gt;PL10</title>
<path fill="none" stroke="black" d="M49,-180.848C49,-179.368 49,-167.319 49,-155.1"/>
<polygon fill="black" stroke="black" points="52.5001,-155.025 49,-145.025 45.5001,-155.025 52.5001,-155.025"/>
</g>
<!-- PL3 -->
<g id="node17" class="node"><title>PL3</title>
<ellipse fill="none" stroke="black" cx="72" cy="-18" rx="18" ry="18"/>
<text text-anchor="middle" x="72" y="-14.3" font-family="Times,serif" font-size="14.00">PL3</text>
</g>
<!-- PL3&#45;&gt;transition8 -->
<g id="edge20" class="edge"><title>PL3&#45;&gt;transition8</title>
<path fill="none" stroke="black" d="M77.6854,-35.0834C84.4964,-55.8203 95,-93.1288 95,-126 95,-291 95,-291 95,-291 95,-331.761 79.1337,-379.315 73.7571,-394.26"/>
<polygon fill="none" stroke="black" points="72.1129,-393.661 72.0167,-398.957 75.3949,-394.877 72.1129,-393.661"/>
</g>
<!-- transition7&#45;&gt;PL3 -->
<g id="edge19" class="edge"><title>transition7&#45;&gt;PL3</title>
<path fill="none" stroke="black" d="M49.066,-71.848C49.7379,-70.2997 55.4293,-57.1847 60.9737,-44.4085"/>
<polygon fill="black" stroke="black" points="64.329,-45.4686 65.0992,-34.9017 57.9075,-42.6819 64.329,-45.4686"/>
</g>
</g>
</svg>
