<?xml version="1.0" encoding="UTF-8" standalone="no"?>
<!DOCTYPE svg PUBLIC "-//W3C//DTD SVG 1.1//EN"
 "http://www.w3.org/Graphics/SVG/1.1/DTD/svg11.dtd">
<!-- Generated by graphviz version 2.38.0 (20140413.2041)
 -->
<!-- Title: %3 Pages: 1 -->
<svg width="98pt" height="916pt"
 viewBox="0.00 0.00 98.00 916.00" xmlns="http://www.w3.org/2000/svg" xmlns:xlink="http://www.w3.org/1999/xlink">
<g id="graph0" class="graph" transform="scale(1 1) rotate(0) translate(4 912)">
<title>%3</title>
<polygon fill="white" stroke="none" points="-4,4 -4,-912 94,-912 94,4 -4,4"/>
<!-- PL1 -->
<g id="node1" class="node"><title>PL1</title>
<ellipse fill="none" stroke="black" cx="67" cy="-890" rx="18" ry="18"/>
<text text-anchor="middle" x="67" y="-886.3" font-family="Times,serif" font-size="14.00">PL1</text>
</g>
<!-- transition1 -->
<g id="node3" class="node"><title>transition1</title>
<polygon fill="none" stroke="black" points="62,-836 26,-836 26,-835 62,-835 62,-836"/>
<text text-anchor="middle" x="13" y="-839.8" font-family="Times,serif" font-size="14.00">Ao+</text>
</g>
<!-- PL1&#45;&gt;transition1 -->
<g id="edge1" class="edge"><title>PL1&#45;&gt;transition1</title>
<path fill="none" stroke="black" d="M60.0992,-873.098C55.2795,-861.992 49.1693,-847.912 46.0441,-840.71"/>
<polygon fill="none" stroke="black" points="47.6228,-839.952 44.027,-836.062 44.4121,-841.346 47.6228,-839.952"/>
</g>
<!-- PL3 -->
<g id="node2" class="node"><title>PL3</title>
<ellipse fill="none" stroke="black" cx="44" cy="-781" rx="18" ry="18"/>
<text text-anchor="middle" x="44" y="-777.3" font-family="Times,serif" font-size="14.00">PL3</text>
</g>
<!-- transition2 -->
<g id="node5" class="node"><title>transition2</title>
<polygon fill="none" stroke="black" points="62,-727 26,-727 26,-726 62,-726 62,-727"/>
<text text-anchor="middle" x="17" y="-730.8" font-family="Times,serif" font-size="14.00">Ri&#45;</text>
</g>
<!-- PL3&#45;&gt;transition2 -->
<g id="edge3" class="edge"><title>PL3&#45;&gt;transition2</title>
<path fill="none" stroke="black" d="M44,-762.939C44,-752.385 44,-739.534 44,-732.412"/>
<polygon fill="none" stroke="black" points="45.7501,-732.059 44,-727.059 42.2501,-732.059 45.7501,-732.059"/>
</g>
<!-- transition1&#45;&gt;PL3 -->
<g id="edge2" class="edge"><title>transition1&#45;&gt;PL3</title>
<path fill="none" stroke="black" d="M44,-834.848C44,-833.368 44,-821.319 44,-809.1"/>
<polygon fill="black" stroke="black" points="47.5001,-809.025 44,-799.025 40.5001,-809.025 47.5001,-809.025"/>
</g>
<!-- PL4 -->
<g id="node4" class="node"><title>PL4</title>
<ellipse fill="none" stroke="black" cx="44" cy="-672" rx="18" ry="18"/>
<text text-anchor="middle" x="44" y="-668.3" font-family="Times,serif" font-size="14.00">PL4</text>
</g>
<!-- transition3 -->
<g id="node7" class="node"><title>transition3</title>
<polygon fill="none" stroke="black" points="62,-618 26,-618 26,-617 62,-617 62,-618"/>
<text text-anchor="middle" x="15" y="-621.8" font-family="Times,serif" font-size="14.00">Ao&#45;</text>
</g>
<!-- PL4&#45;&gt;transition3 -->
<g id="edge5" class="edge"><title>PL4&#45;&gt;transition3</title>
<path fill="none" stroke="black" d="M44,-653.939C44,-643.385 44,-630.534 44,-623.412"/>
<polygon fill="none" stroke="black" points="45.7501,-623.059 44,-618.059 42.2501,-623.059 45.7501,-623.059"/>
</g>
<!-- transition2&#45;&gt;PL4 -->
<g id="edge4" class="edge"><title>transition2&#45;&gt;PL4</title>
<path fill="none" stroke="black" d="M44,-725.848C44,-724.368 44,-712.319 44,-700.1"/>
<polygon fill="black" stroke="black" points="47.5001,-700.025 44,-690.025 40.5001,-700.025 47.5001,-700.025"/>
</g>
<!-- PL5 -->
<g id="node6" class="node"><title>PL5</title>
<ellipse fill="none" stroke="black" cx="44" cy="-563" rx="18" ry="18"/>
<text text-anchor="middle" x="44" y="-559.3" font-family="Times,serif" font-size="14.00">PL5</text>
</g>
<!-- transition4 -->
<g id="node8" class="node"><title>transition4</title>
<polygon fill="none" stroke="black" points="85,-509 49,-509 49,-508 85,-508 85,-509"/>
<text text-anchor="middle" x="38" y="-512.8" font-family="Times,serif" font-size="14.00">Ri+</text>
</g>
<!-- PL5&#45;&gt;transition4 -->
<g id="edge7" class="edge"><title>PL5&#45;&gt;transition4</title>
<path fill="none" stroke="black" d="M50.9008,-546.098C55.7205,-534.992 61.8307,-520.912 64.9559,-513.71"/>
<polygon fill="none" stroke="black" points="66.5879,-514.346 66.973,-509.062 63.3772,-512.952 66.5879,-514.346"/>
</g>
<!-- transition3&#45;&gt;PL5 -->
<g id="edge6" class="edge"><title>transition3&#45;&gt;PL5</title>
<path fill="none" stroke="black" d="M44,-616.848C44,-615.368 44,-603.319 44,-591.1"/>
<polygon fill="black" stroke="black" points="47.5001,-591.025 44,-581.025 40.5001,-591.025 47.5001,-591.025"/>
</g>
<!-- transition4&#45;&gt;PL1 -->
<g id="edge8" class="edge"><title>transition4&#45;&gt;PL1</title>
<path fill="none" stroke="black" d="M67.0167,-509.043C67.7131,-510.839 90,-568.69 90,-617 90,-782 90,-782 90,-782 90,-810.249 82.2428,-841.774 75.7384,-863.244"/>
<polygon fill="black" stroke="black" points="72.3576,-862.327 72.6854,-872.917 79.033,-864.434 72.3576,-862.327"/>
</g>
<!-- PL6 -->
<g id="node9" class="node"><title>PL6</title>
<ellipse fill="none" stroke="black" cx="67" cy="-454" rx="18" ry="18"/>
<text text-anchor="middle" x="67" y="-450.3" font-family="Times,serif" font-size="14.00">PL6</text>
</g>
<!-- transition4&#45;&gt;PL6 -->
<g id="edge9" class="edge"><title>transition4&#45;&gt;PL6</title>
<path fill="none" stroke="black" d="M67,-507.848C67,-506.368 67,-494.319 67,-482.1"/>
<polygon fill="black" stroke="black" points="70.5001,-482.025 67,-472.025 63.5001,-482.025 70.5001,-482.025"/>
</g>
<!-- transition8 -->
<g id="node11" class="node"><title>transition8</title>
<polygon fill="none" stroke="black" points="85,-400 49,-400 49,-399 85,-399 85,-400"/>
<text text-anchor="middle" x="36.5" y="-403.8" font-family="Times,serif" font-size="14.00">Ro+</text>
</g>
<!-- PL6&#45;&gt;transition8 -->
<g id="edge10" class="edge"><title>PL6&#45;&gt;transition8</title>
<path fill="none" stroke="black" d="M67,-435.939C67,-425.385 67,-412.534 67,-405.412"/>
<polygon fill="none" stroke="black" points="68.7501,-405.059 67,-400.059 65.2501,-405.059 68.7501,-405.059"/>
</g>
<!-- PL7 -->
<g id="node10" class="node"><title>PL7</title>
<ellipse fill="none" stroke="black" cx="44" cy="-345" rx="18" ry="18"/>
<text text-anchor="middle" x="44" y="-341.3" font-family="Times,serif" font-size="14.00">PL7</text>
</g>
<!-- transition5 -->
<g id="node13" class="node"><title>transition5</title>
<polygon fill="none" stroke="black" points="62,-291 26,-291 26,-290 62,-290 62,-291"/>
<text text-anchor="middle" x="15" y="-294.8" font-family="Times,serif" font-size="14.00">Ai+</text>
</g>
<!-- PL7&#45;&gt;transition5 -->
<g id="edge12" class="edge"><title>PL7&#45;&gt;transition5</title>
<path fill="none" stroke="black" d="M44,-326.939C44,-316.385 44,-303.534 44,-296.412"/>
<polygon fill="none" stroke="black" points="45.7501,-296.059 44,-291.059 42.2501,-296.059 45.7501,-296.059"/>
</g>
<!-- transition8&#45;&gt;PL7 -->
<g id="edge11" class="edge"><title>transition8&#45;&gt;PL7</title>
<path fill="none" stroke="black" d="M66.934,-398.848C66.2621,-397.3 60.5707,-384.185 55.0263,-371.409"/>
<polygon fill="black" stroke="black" points="58.0925,-369.682 50.9008,-361.902 51.671,-372.469 58.0925,-369.682"/>
</g>
<!-- PL8 -->
<g id="node12" class="node"><title>PL8</title>
<ellipse fill="none" stroke="black" cx="44" cy="-236" rx="18" ry="18"/>
<text text-anchor="middle" x="44" y="-232.3" font-family="Times,serif" font-size="14.00">PL8</text>
</g>
<!-- transition6 -->
<g id="node15" class="node"><title>transition6</title>
<polygon fill="none" stroke="black" points="62,-182 26,-182 26,-181 62,-181 62,-182"/>
<text text-anchor="middle" x="15" y="-185.8" font-family="Times,serif" font-size="14.00">Ro&#45;</text>
</g>
<!-- PL8&#45;&gt;transition6 -->
<g id="edge14" class="edge"><title>PL8&#45;&gt;transition6</title>
<path fill="none" stroke="black" d="M44,-217.939C44,-207.385 44,-194.534 44,-187.412"/>
<polygon fill="none" stroke="black" points="45.7501,-187.059 44,-182.059 42.2501,-187.059 45.7501,-187.059"/>
</g>
<!-- transition5&#45;&gt;PL8 -->
<g id="edge13" class="edge"><title>transition5&#45;&gt;PL8</title>
<path fill="none" stroke="black" d="M44,-289.848C44,-288.368 44,-276.319 44,-264.1"/>
<polygon fill="black" stroke="black" points="47.5001,-264.025 44,-254.025 40.5001,-264.025 47.5001,-264.025"/>
</g>
<!-- PL9 -->
<g id="node14" class="node"><title>PL9</title>
<ellipse fill="none" stroke="black" cx="44" cy="-127" rx="18" ry="18"/>
<text text-anchor="middle" x="44" y="-123.3" font-family="Times,serif" font-size="14.00">PL9</text>
</g>
<!-- transition7 -->
<g id="node17" class="node"><title>transition7</title>
<polygon fill="none" stroke="black" points="62,-73 26,-73 26,-72 62,-72 62,-73"/>
<text text-anchor="middle" x="16.5" y="-76.8" font-family="Times,serif" font-size="14.00">Ai&#45;</text>
</g>
<!-- PL9&#45;&gt;transition7 -->
<g id="edge16" class="edge"><title>PL9&#45;&gt;transition7</title>
<path fill="none" stroke="black" d="M44,-108.939C44,-98.3852 44,-85.5344 44,-78.4124"/>
<polygon fill="none" stroke="black" points="45.7501,-78.0591 44,-73.0591 42.2501,-78.0592 45.7501,-78.0591"/>
</g>
<!-- transition6&#45;&gt;PL9 -->
<g id="edge15" class="edge"><title>transition6&#45;&gt;PL9</title>
<path fill="none" stroke="black" d="M44,-180.848C44,-179.368 44,-167.319 44,-155.1"/>
<polygon fill="black" stroke="black" points="47.5001,-155.025 44,-145.025 40.5001,-155.025 47.5001,-155.025"/>
</g>
<!-- PL2 -->
<g id="node16" class="node"><title>PL2</title>
<ellipse fill="none" stroke="black" cx="67" cy="-18" rx="18" ry="18"/>
<text text-anchor="middle" x="67" y="-14.3" font-family="Times,serif" font-size="14.00">PL2</text>
</g>
<!-- PL2&#45;&gt;transition8 -->
<g id="edge18" class="edge"><title>PL2&#45;&gt;transition8</title>
<path fill="none" stroke="black" d="M72.6854,-35.0834C79.4964,-55.8203 90,-93.1288 90,-126 90,-291 90,-291 90,-291 90,-331.761 74.1337,-379.315 68.7571,-394.26"/>
<polygon fill="none" stroke="black" points="67.1129,-393.661 67.0167,-398.957 70.3949,-394.877 67.1129,-393.661"/>
</g>
<!-- transition7&#45;&gt;PL2 -->
<g id="edge17" class="edge"><title>transition7&#45;&gt;PL2</title>
<path fill="none" stroke="black" d="M44.066,-71.848C44.7379,-70.2997 50.4293,-57.1847 55.9737,-44.4085"/>
<polygon fill="black" stroke="black" points="59.329,-45.4686 60.0992,-34.9017 52.9075,-42.6819 59.329,-45.4686"/>
</g>
</g>
</svg>
