<?xml version="1.0" encoding="UTF-8" standalone="no"?>
<!DOCTYPE svg PUBLIC "-//W3C//DTD SVG 1.1//EN"
 "http://www.w3.org/Graphics/SVG/1.1/DTD/svg11.dtd">
<!-- Generated by graphviz version 2.38.0 (20140413.2041)
 -->
<!-- Title: %3 Pages: 1 -->
<svg width="141pt" height="1420pt"
 viewBox="0.00 0.00 141.00 1420.00" xmlns="http://www.w3.org/2000/svg" xmlns:xlink="http://www.w3.org/1999/xlink">
<g id="graph0" class="graph" transform="scale(1 1) rotate(0) translate(4 1416)">
<title>%3</title>
<polygon fill="white" stroke="none" points="-4,4 -4,-1416 137,-1416 137,4 -4,4"/>
<!-- PL1 -->
<g id="node1" class="node"><title>PL1</title>
<ellipse fill="none" stroke="black" cx="110" cy="-1394" rx="18" ry="18"/>
<text text-anchor="middle" x="110" y="-1390.3" font-family="Times,serif" font-size="14.00">PL1</text>
</g>
<!-- transition1 -->
<g id="node3" class="node"><title>transition1</title>
<polygon fill="none" stroke="black" points="105,-1340 69,-1340 69,-1339 105,-1339 105,-1340"/>
<text text-anchor="middle" x="61.5" y="-1343.8" font-family="Times,serif" font-size="14.00">c+</text>
</g>
<!-- PL1&#45;&gt;transition1 -->
<g id="edge1" class="edge"><title>PL1&#45;&gt;transition1</title>
<path fill="none" stroke="black" d="M103.099,-1377.1C98.2795,-1365.99 92.1693,-1351.91 89.0441,-1344.71"/>
<polygon fill="none" stroke="black" points="90.6228,-1343.95 87.027,-1340.06 87.4121,-1345.35 90.6228,-1343.95"/>
</g>
<!-- PL2 -->
<g id="node2" class="node"><title>PL2</title>
<ellipse fill="none" stroke="black" cx="37" cy="-1285" rx="18" ry="18"/>
<text text-anchor="middle" x="37" y="-1281.3" font-family="Times,serif" font-size="14.00">PL2</text>
</g>
<!-- transition2 -->
<g id="node5" class="node"><title>transition2</title>
<polygon fill="none" stroke="black" points="51,-1213.5 15,-1213.5 15,-1212.5 51,-1212.5 51,-1213.5"/>
<text text-anchor="middle" x="7.5" y="-1217.3" font-family="Times,serif" font-size="14.00">b+</text>
</g>
<!-- PL2&#45;&gt;transition2 -->
<g id="edge3" class="edge"><title>PL2&#45;&gt;transition2</title>
<path fill="none" stroke="black" d="M36.0112,-1266.7C35.1237,-1251.17 33.8757,-1229.32 33.3056,-1219.35"/>
<polygon fill="none" stroke="black" points="35.0378,-1218.98 33.0053,-1214.09 31.5435,-1219.18 35.0378,-1218.98"/>
</g>
<!-- transition1&#45;&gt;PL2 -->
<g id="edge2" class="edge"><title>transition1&#45;&gt;PL2</title>
<path fill="none" stroke="black" d="M86.8566,-1338.85C85.194,-1337.09 69.3941,-1320.34 56.0198,-1306.16"/>
<polygon fill="black" stroke="black" points="58.3526,-1303.53 48.9445,-1298.66 53.2608,-1308.34 58.3526,-1303.53"/>
</g>
<!-- PL15 -->
<g id="node28" class="node"><title>PL15</title>
<ellipse fill="none" stroke="black" cx="87" cy="-1213" rx="18" ry="18"/>
<text text-anchor="middle" x="87" y="-1209.3" font-family="Times,serif" font-size="14.00">PL15</text>
</g>
<!-- transition1&#45;&gt;PL15 -->
<g id="edge29" class="edge"><title>transition1&#45;&gt;PL15</title>
<path fill="none" stroke="black" d="M87,-1338.91C87,-1336.29 87,-1277.47 87,-1241.49"/>
<polygon fill="black" stroke="black" points="90.5001,-1241.15 87,-1231.15 83.5001,-1241.15 90.5001,-1241.15"/>
</g>
<!-- PL3 -->
<g id="node4" class="node"><title>PL3</title>
<ellipse fill="none" stroke="black" cx="33" cy="-1141" rx="18" ry="18"/>
<text text-anchor="middle" x="33" y="-1137.3" font-family="Times,serif" font-size="14.00">PL3</text>
</g>
<!-- transition3 -->
<g id="node7" class="node"><title>transition3</title>
<polygon fill="none" stroke="black" points="51,-1069.5 15,-1069.5 15,-1068.5 51,-1068.5 51,-1069.5"/>
<text text-anchor="middle" x="9.5" y="-1073.3" font-family="Times,serif" font-size="14.00">a&#45;</text>
</g>
<!-- PL3&#45;&gt;transition3 -->
<g id="edge5" class="edge"><title>PL3&#45;&gt;transition3</title>
<path fill="none" stroke="black" d="M33,-1122.7C33,-1107.17 33,-1085.32 33,-1075.35"/>
<polygon fill="none" stroke="black" points="34.7501,-1075.09 33,-1070.09 31.2501,-1075.09 34.7501,-1075.09"/>
</g>
<!-- transition2&#45;&gt;PL3 -->
<g id="edge4" class="edge"><title>transition2&#45;&gt;PL3</title>
<path fill="none" stroke="black" d="M33,-1211.95C33,-1210.75 33,-1188.43 33,-1169.32"/>
<polygon fill="black" stroke="black" points="36.5001,-1169.19 33,-1159.19 29.5001,-1169.19 36.5001,-1169.19"/>
</g>
<!-- PL4 -->
<g id="node6" class="node"><title>PL4</title>
<ellipse fill="none" stroke="black" cx="38" cy="-997" rx="18" ry="18"/>
<text text-anchor="middle" x="38" y="-993.3" font-family="Times,serif" font-size="14.00">PL4</text>
</g>
<!-- transition14 -->
<g id="node9" class="node"><title>transition14</title>
<polygon fill="none" stroke="black" points="56,-943 20,-943 20,-942 56,-942 56,-943"/>
<text text-anchor="middle" x="12.5" y="-946.8" font-family="Times,serif" font-size="14.00">x+</text>
</g>
<!-- PL4&#45;&gt;transition14 -->
<g id="edge7" class="edge"><title>PL4&#45;&gt;transition14</title>
<path fill="none" stroke="black" d="M38,-978.939C38,-968.385 38,-955.534 38,-948.412"/>
<polygon fill="none" stroke="black" points="39.7501,-948.059 38,-943.059 36.2501,-948.059 39.7501,-948.059"/>
</g>
<!-- transition3&#45;&gt;PL4 -->
<g id="edge6" class="edge"><title>transition3&#45;&gt;PL4</title>
<path fill="none" stroke="black" d="M33.0036,-1067.95C33.0895,-1066.75 34.6837,-1044.43 36.0485,-1025.32"/>
<polygon fill="black" stroke="black" points="39.5506,-1025.42 36.7721,-1015.19 32.5684,-1024.92 39.5506,-1025.42"/>
</g>
<!-- PL5 -->
<g id="node8" class="node"><title>PL5</title>
<ellipse fill="none" stroke="black" cx="38" cy="-888" rx="18" ry="18"/>
<text text-anchor="middle" x="38" y="-884.3" font-family="Times,serif" font-size="14.00">PL5</text>
</g>
<!-- transition4 -->
<g id="node11" class="node"><title>transition4</title>
<polygon fill="none" stroke="black" points="56,-834 20,-834 20,-833 56,-833 56,-834"/>
<text text-anchor="middle" x="14" y="-837.8" font-family="Times,serif" font-size="14.00">b&#45;</text>
</g>
<!-- PL5&#45;&gt;transition4 -->
<g id="edge9" class="edge"><title>PL5&#45;&gt;transition4</title>
<path fill="none" stroke="black" d="M38,-869.939C38,-859.385 38,-846.534 38,-839.412"/>
<polygon fill="none" stroke="black" points="39.7501,-839.059 38,-834.059 36.2501,-839.059 39.7501,-839.059"/>
</g>
<!-- transition14&#45;&gt;PL5 -->
<g id="edge8" class="edge"><title>transition14&#45;&gt;PL5</title>
<path fill="none" stroke="black" d="M38,-941.848C38,-940.368 38,-928.319 38,-916.1"/>
<polygon fill="black" stroke="black" points="41.5001,-916.025 38,-906.025 34.5001,-916.025 41.5001,-916.025"/>
</g>
<!-- PL6 -->
<g id="node10" class="node"><title>PL6</title>
<ellipse fill="none" stroke="black" cx="38" cy="-779" rx="18" ry="18"/>
<text text-anchor="middle" x="38" y="-775.3" font-family="Times,serif" font-size="14.00">PL6</text>
</g>
<!-- transition5 -->
<g id="node13" class="node"><title>transition5</title>
<polygon fill="none" stroke="black" points="56,-725 20,-725 20,-724 56,-724 56,-725"/>
<text text-anchor="middle" x="12.5" y="-728.8" font-family="Times,serif" font-size="14.00">a+</text>
</g>
<!-- PL6&#45;&gt;transition5 -->
<g id="edge11" class="edge"><title>PL6&#45;&gt;transition5</title>
<path fill="none" stroke="black" d="M38,-760.939C38,-750.385 38,-737.534 38,-730.412"/>
<polygon fill="none" stroke="black" points="39.7501,-730.059 38,-725.059 36.2501,-730.059 39.7501,-730.059"/>
</g>
<!-- transition4&#45;&gt;PL6 -->
<g id="edge10" class="edge"><title>transition4&#45;&gt;PL6</title>
<path fill="none" stroke="black" d="M38,-832.848C38,-831.368 38,-819.319 38,-807.1"/>
<polygon fill="black" stroke="black" points="41.5001,-807.025 38,-797.025 34.5001,-807.025 41.5001,-807.025"/>
</g>
<!-- PL7 -->
<g id="node12" class="node"><title>PL7</title>
<ellipse fill="none" stroke="black" cx="38" cy="-670" rx="18" ry="18"/>
<text text-anchor="middle" x="38" y="-666.3" font-family="Times,serif" font-size="14.00">PL7</text>
</g>
<!-- transition6 -->
<g id="node15" class="node"><title>transition6</title>
<polygon fill="none" stroke="black" points="56,-616 20,-616 20,-615 56,-615 56,-616"/>
<text text-anchor="middle" x="14.5" y="-619.8" font-family="Times,serif" font-size="14.00">c&#45;</text>
</g>
<!-- PL7&#45;&gt;transition6 -->
<g id="edge13" class="edge"><title>PL7&#45;&gt;transition6</title>
<path fill="none" stroke="black" d="M38,-651.939C38,-641.385 38,-628.534 38,-621.412"/>
<polygon fill="none" stroke="black" points="39.7501,-621.059 38,-616.059 36.2501,-621.059 39.7501,-621.059"/>
</g>
<!-- transition5&#45;&gt;PL7 -->
<g id="edge12" class="edge"><title>transition5&#45;&gt;PL7</title>
<path fill="none" stroke="black" d="M38,-723.848C38,-722.368 38,-710.319 38,-698.1"/>
<polygon fill="black" stroke="black" points="41.5001,-698.025 38,-688.025 34.5001,-698.025 41.5001,-698.025"/>
</g>
<!-- PL8 -->
<g id="node14" class="node"><title>PL8</title>
<ellipse fill="none" stroke="black" cx="34" cy="-561" rx="18" ry="18"/>
<text text-anchor="middle" x="34" y="-557.3" font-family="Times,serif" font-size="14.00">PL8</text>
</g>
<!-- transition7 -->
<g id="node17" class="node"><title>transition7</title>
<polygon fill="none" stroke="black" points="51,-489.5 15,-489.5 15,-488.5 51,-488.5 51,-489.5"/>
<text text-anchor="middle" x="7.5" y="-493.3" font-family="Times,serif" font-size="14.00">b+</text>
</g>
<!-- PL8&#45;&gt;transition7 -->
<g id="edge15" class="edge"><title>PL8&#45;&gt;transition7</title>
<path fill="none" stroke="black" d="M33.7528,-542.697C33.5309,-527.165 33.2189,-505.324 33.0764,-495.348"/>
<polygon fill="none" stroke="black" points="34.8227,-495.067 33.0013,-490.092 31.323,-495.117 34.8227,-495.067"/>
</g>
<!-- transition6&#45;&gt;PL8 -->
<g id="edge14" class="edge"><title>transition6&#45;&gt;PL8</title>
<path fill="none" stroke="black" d="M37.9885,-614.848C37.8768,-613.368 36.9675,-601.319 36.0453,-589.1"/>
<polygon fill="black" stroke="black" points="39.5276,-588.733 35.2849,-579.025 32.5475,-589.26 39.5276,-588.733"/>
</g>
<!-- PL13 -->
<g id="node25" class="node"><title>PL13</title>
<ellipse fill="none" stroke="black" cx="87" cy="-489" rx="18" ry="18"/>
<text text-anchor="middle" x="87" y="-485.3" font-family="Times,serif" font-size="14.00">PL13</text>
</g>
<!-- transition6&#45;&gt;PL13 -->
<g id="edge25" class="edge"><title>transition6&#45;&gt;PL13</title>
<path fill="none" stroke="black" d="M38.0437,-614.946C38.9396,-613.832 53.393,-595.747 61,-579 70.1269,-558.907 76.9348,-534.811 81.2901,-516.761"/>
<polygon fill="black" stroke="black" points="84.7254,-517.44 83.57,-506.909 77.9056,-515.862 84.7254,-517.44"/>
</g>
<!-- PL9 -->
<g id="node16" class="node"><title>PL9</title>
<ellipse fill="none" stroke="black" cx="33" cy="-417" rx="18" ry="18"/>
<text text-anchor="middle" x="33" y="-413.3" font-family="Times,serif" font-size="14.00">PL9</text>
</g>
<!-- transition8 -->
<g id="node19" class="node"><title>transition8</title>
<polygon fill="none" stroke="black" points="51,-345.5 15,-345.5 15,-344.5 51,-344.5 51,-345.5"/>
<text text-anchor="middle" x="9.5" y="-349.3" font-family="Times,serif" font-size="14.00">a&#45;</text>
</g>
<!-- PL9&#45;&gt;transition8 -->
<g id="edge17" class="edge"><title>PL9&#45;&gt;transition8</title>
<path fill="none" stroke="black" d="M33,-398.697C33,-383.165 33,-361.324 33,-351.348"/>
<polygon fill="none" stroke="black" points="34.7501,-351.092 33,-346.092 31.2501,-351.092 34.7501,-351.092"/>
</g>
<!-- transition7&#45;&gt;PL9 -->
<g id="edge16" class="edge"><title>transition7&#45;&gt;PL9</title>
<path fill="none" stroke="black" d="M33,-487.949C33,-486.748 33,-464.429 33,-445.321"/>
<polygon fill="black" stroke="black" points="36.5001,-445.191 33,-435.191 29.5001,-445.191 36.5001,-445.191"/>
</g>
<!-- PL10 -->
<g id="node18" class="node"><title>PL10</title>
<ellipse fill="none" stroke="black" cx="37" cy="-273" rx="18" ry="18"/>
<text text-anchor="middle" x="37" y="-269.3" font-family="Times,serif" font-size="14.00">PL10</text>
</g>
<!-- transition12 -->
<g id="node21" class="node"><title>transition12</title>
<polygon fill="none" stroke="black" points="105,-219 69,-219 69,-218 105,-218 105,-219"/>
<text text-anchor="middle" x="63" y="-222.8" font-family="Times,serif" font-size="14.00">x&#45;</text>
</g>
<!-- PL10&#45;&gt;transition12 -->
<g id="edge19" class="edge"><title>PL10&#45;&gt;transition12</title>
<path fill="none" stroke="black" d="M48.8493,-259.44C60.0396,-247.578 76.1442,-230.507 83.3147,-222.906"/>
<polygon fill="none" stroke="black" points="84.7743,-223.909 86.9325,-219.072 82.2284,-221.508 84.7743,-223.909"/>
</g>
<!-- transition8&#45;&gt;PL10 -->
<g id="edge18" class="edge"><title>transition8&#45;&gt;PL10</title>
<path fill="none" stroke="black" d="M33.0029,-343.949C33.0716,-342.748 34.3469,-320.429 35.4388,-301.321"/>
<polygon fill="black" stroke="black" points="38.9414,-301.375 36.0176,-291.191 31.9528,-300.975 38.9414,-301.375"/>
</g>
<!-- PL11 -->
<g id="node20" class="node"><title>PL11</title>
<ellipse fill="none" stroke="black" cx="87" cy="-164" rx="18" ry="18"/>
<text text-anchor="middle" x="87" y="-160.3" font-family="Times,serif" font-size="14.00">PL11</text>
</g>
<!-- transition9 -->
<g id="node23" class="node"><title>transition9</title>
<polygon fill="none" stroke="black" points="105,-110 69,-110 69,-109 105,-109 105,-110"/>
<text text-anchor="middle" x="63" y="-113.8" font-family="Times,serif" font-size="14.00">b&#45;</text>
</g>
<!-- PL11&#45;&gt;transition9 -->
<g id="edge21" class="edge"><title>PL11&#45;&gt;transition9</title>
<path fill="none" stroke="black" d="M87,-145.939C87,-135.385 87,-122.534 87,-115.412"/>
<polygon fill="none" stroke="black" points="88.7501,-115.059 87,-110.059 85.2501,-115.059 88.7501,-115.059"/>
</g>
<!-- transition12&#45;&gt;PL11 -->
<g id="edge20" class="edge"><title>transition12&#45;&gt;PL11</title>
<path fill="none" stroke="black" d="M87,-217.848C87,-216.368 87,-204.319 87,-192.1"/>
<polygon fill="black" stroke="black" points="90.5001,-192.025 87,-182.025 83.5001,-192.025 90.5001,-192.025"/>
</g>
<!-- PL12 -->
<g id="node22" class="node"><title>PL12</title>
<ellipse fill="none" stroke="black" cx="87" cy="-55" rx="18" ry="18"/>
<text text-anchor="middle" x="87" y="-51.3" font-family="Times,serif" font-size="14.00">PL12</text>
</g>
<!-- transition10 -->
<g id="node24" class="node"><title>transition10</title>
<polygon fill="none" stroke="black" points="128,-1 92,-1 92,-0 128,-0 128,-1"/>
<text text-anchor="middle" x="84.5" y="-4.8" font-family="Times,serif" font-size="14.00">a+</text>
</g>
<!-- PL12&#45;&gt;transition10 -->
<g id="edge23" class="edge"><title>PL12&#45;&gt;transition10</title>
<path fill="none" stroke="black" d="M93.9008,-38.0983C98.7205,-26.9918 104.831,-12.9118 107.956,-5.7104"/>
<polygon fill="none" stroke="black" points="109.588,-6.34553 109.973,-1.06211 106.377,-4.95216 109.588,-6.34553"/>
</g>
<!-- transition9&#45;&gt;PL12 -->
<g id="edge22" class="edge"><title>transition9&#45;&gt;PL12</title>
<path fill="none" stroke="black" d="M87,-108.848C87,-107.368 87,-95.3194 87,-83.1004"/>
<polygon fill="black" stroke="black" points="90.5001,-83.0247 87,-73.0247 83.5001,-83.0248 90.5001,-83.0247"/>
</g>
<!-- transition10&#45;&gt;PL1 -->
<g id="edge24" class="edge"><title>transition10&#45;&gt;PL1</title>
<path fill="none" stroke="black" d="M110.017,-1.04289C110.713,-2.83896 133,-60.6904 133,-109 133,-1286 133,-1286 133,-1286 133,-1314.25 125.243,-1345.77 118.738,-1367.24"/>
<polygon fill="black" stroke="black" points="115.358,-1366.33 115.685,-1376.92 122.033,-1368.43 115.358,-1366.33"/>
</g>
<!-- transition11 -->
<g id="node27" class="node"><title>transition11</title>
<polygon fill="none" stroke="black" points="105,-417.5 69,-417.5 69,-416.5 105,-416.5 105,-417.5"/>
<text text-anchor="middle" x="63" y="-421.3" font-family="Times,serif" font-size="14.00">d&#45;</text>
</g>
<!-- PL13&#45;&gt;transition11 -->
<g id="edge26" class="edge"><title>PL13&#45;&gt;transition11</title>
<path fill="none" stroke="black" d="M87,-470.697C87,-455.165 87,-433.324 87,-423.348"/>
<polygon fill="none" stroke="black" points="88.7501,-423.092 87,-418.092 85.2501,-423.092 88.7501,-423.092"/>
</g>
<!-- PL14 -->
<g id="node26" class="node"><title>PL14</title>
<ellipse fill="none" stroke="black" cx="87" cy="-345" rx="18" ry="18"/>
<text text-anchor="middle" x="87" y="-341.3" font-family="Times,serif" font-size="14.00">PL14</text>
</g>
<!-- PL14&#45;&gt;transition12 -->
<g id="edge28" class="edge"><title>PL14&#45;&gt;transition12</title>
<path fill="none" stroke="black" d="M87,-326.881C87,-298.184 87,-241.793 87,-224.302"/>
<polygon fill="none" stroke="black" points="88.7501,-224.053 87,-219.054 85.2501,-224.054 88.7501,-224.053"/>
</g>
<!-- transition11&#45;&gt;PL14 -->
<g id="edge27" class="edge"><title>transition11&#45;&gt;PL14</title>
<path fill="none" stroke="black" d="M87,-415.949C87,-414.748 87,-392.429 87,-373.321"/>
<polygon fill="black" stroke="black" points="90.5001,-373.191 87,-363.191 83.5001,-373.191 90.5001,-373.191"/>
</g>
<!-- transition13 -->
<g id="node30" class="node"><title>transition13</title>
<polygon fill="none" stroke="black" points="105,-1141.5 69,-1141.5 69,-1140.5 105,-1140.5 105,-1141.5"/>
<text text-anchor="middle" x="61.5" y="-1145.3" font-family="Times,serif" font-size="14.00">d+</text>
</g>
<!-- PL15&#45;&gt;transition13 -->
<g id="edge30" class="edge"><title>PL15&#45;&gt;transition13</title>
<path fill="none" stroke="black" d="M87,-1194.7C87,-1179.17 87,-1157.32 87,-1147.35"/>
<polygon fill="none" stroke="black" points="88.7501,-1147.09 87,-1142.09 85.2501,-1147.09 88.7501,-1147.09"/>
</g>
<!-- PL16 -->
<g id="node29" class="node"><title>PL16</title>
<ellipse fill="none" stroke="black" cx="87" cy="-1069" rx="18" ry="18"/>
<text text-anchor="middle" x="87" y="-1065.3" font-family="Times,serif" font-size="14.00">PL16</text>
</g>
<!-- PL16&#45;&gt;transition14 -->
<g id="edge32" class="edge"><title>PL16&#45;&gt;transition14</title>
<path fill="none" stroke="black" d="M84.8527,-1050.92C82.0696,-1032.48 76.1871,-1002.58 65,-979 58.7722,-965.871 47.3411,-952.816 41.5553,-946.658"/>
<polygon fill="none" stroke="black" points="42.792,-945.42 38.0531,-943.052 40.2812,-947.858 42.792,-945.42"/>
</g>
<!-- transition13&#45;&gt;PL16 -->
<g id="edge31" class="edge"><title>transition13&#45;&gt;PL16</title>
<path fill="none" stroke="black" d="M87,-1139.95C87,-1138.75 87,-1116.43 87,-1097.32"/>
<polygon fill="black" stroke="black" points="90.5001,-1097.19 87,-1087.19 83.5001,-1097.19 90.5001,-1097.19"/>
</g>
</g>
</svg>
