<?xml version="1.0" encoding="UTF-8" standalone="no"?>
<!DOCTYPE svg PUBLIC "-//W3C//DTD SVG 1.1//EN"
 "http://www.w3.org/Graphics/SVG/1.1/DTD/svg11.dtd">
<!-- Generated by graphviz version 2.38.0 (20140413.2041)
 -->
<!-- Title: %3 Pages: 1 -->
<svg width="141pt" height="1385pt"
 viewBox="0.00 0.00 141.00 1385.00" xmlns="http://www.w3.org/2000/svg" xmlns:xlink="http://www.w3.org/1999/xlink">
<g id="graph0" class="graph" transform="scale(1 1) rotate(0) translate(4 1381)">
<title>%3</title>
<polygon fill="white" stroke="none" points="-4,4 -4,-1381 137,-1381 137,4 -4,4"/>
<!-- PL1 -->
<g id="node1" class="node"><title>PL1</title>
<ellipse fill="none" stroke="black" cx="110" cy="-1359" rx="18" ry="18"/>
<text text-anchor="middle" x="110" y="-1355.3" font-family="Times,serif" font-size="14.00">PL1</text>
</g>
<!-- transition1 -->
<g id="node3" class="node"><title>transition1</title>
<polygon fill="none" stroke="black" points="105,-1305 69,-1305 69,-1304 105,-1304 105,-1305"/>
<text text-anchor="middle" x="61.5" y="-1308.8" font-family="Times,serif" font-size="14.00">c+</text>
</g>
<!-- PL1&#45;&gt;transition1 -->
<g id="edge1" class="edge"><title>PL1&#45;&gt;transition1</title>
<path fill="none" stroke="black" d="M103.099,-1342.1C98.2795,-1330.99 92.1693,-1316.91 89.0441,-1309.71"/>
<polygon fill="none" stroke="black" points="90.6228,-1308.95 87.027,-1305.06 87.4121,-1310.35 90.6228,-1308.95"/>
</g>
<!-- PL15 -->
<g id="node2" class="node"><title>PL15</title>
<ellipse fill="none" stroke="black" cx="33" cy="-1250" rx="18" ry="18"/>
<text text-anchor="middle" x="33" y="-1246.3" font-family="Times,serif" font-size="14.00">PL15</text>
</g>
<!-- transition13 -->
<g id="node5" class="node"><title>transition13</title>
<polygon fill="none" stroke="black" points="51,-1196 15,-1196 15,-1195 51,-1195 51,-1196"/>
<text text-anchor="middle" x="7.5" y="-1199.8" font-family="Times,serif" font-size="14.00">d+</text>
</g>
<!-- PL15&#45;&gt;transition13 -->
<g id="edge3" class="edge"><title>PL15&#45;&gt;transition13</title>
<path fill="none" stroke="black" d="M33,-1231.94C33,-1221.39 33,-1208.53 33,-1201.41"/>
<polygon fill="none" stroke="black" points="34.7501,-1201.06 33,-1196.06 31.2501,-1201.06 34.7501,-1201.06"/>
</g>
<!-- transition1&#45;&gt;PL15 -->
<g id="edge2" class="edge"><title>transition1&#45;&gt;PL15</title>
<path fill="none" stroke="black" d="M86.8451,-1303.85C85.0118,-1302.05 67.2624,-1284.63 52.6353,-1270.27"/>
<polygon fill="black" stroke="black" points="54.9603,-1267.65 45.3718,-1263.14 50.057,-1272.65 54.9603,-1267.65"/>
</g>
<!-- PL2 -->
<g id="node26" class="node"><title>PL2</title>
<ellipse fill="none" stroke="black" cx="87" cy="-1250" rx="18" ry="18"/>
<text text-anchor="middle" x="87" y="-1246.3" font-family="Times,serif" font-size="14.00">PL2</text>
</g>
<!-- transition1&#45;&gt;PL2 -->
<g id="edge27" class="edge"><title>transition1&#45;&gt;PL2</title>
<path fill="none" stroke="black" d="M87,-1303.85C87,-1302.37 87,-1290.32 87,-1278.1"/>
<polygon fill="black" stroke="black" points="90.5001,-1278.02 87,-1268.02 83.5001,-1278.02 90.5001,-1278.02"/>
</g>
<!-- PL16 -->
<g id="node4" class="node"><title>PL16</title>
<ellipse fill="none" stroke="black" cx="33" cy="-1069" rx="18" ry="18"/>
<text text-anchor="middle" x="33" y="-1065.3" font-family="Times,serif" font-size="14.00">PL16</text>
</g>
<!-- transition14 -->
<g id="node7" class="node"><title>transition14</title>
<polygon fill="none" stroke="black" points="54,-943 18,-943 18,-942 54,-942 54,-943"/>
<text text-anchor="middle" x="10.5" y="-946.8" font-family="Times,serif" font-size="14.00">x+</text>
</g>
<!-- PL16&#45;&gt;transition14 -->
<g id="edge5" class="edge"><title>PL16&#45;&gt;transition14</title>
<path fill="none" stroke="black" d="M33.4108,-1050.88C34.0996,-1022.18 35.453,-965.793 35.8728,-948.302"/>
<polygon fill="none" stroke="black" points="37.6282,-948.094 35.9987,-943.054 34.1292,-948.01 37.6282,-948.094"/>
</g>
<!-- transition13&#45;&gt;PL16 -->
<g id="edge4" class="edge"><title>transition13&#45;&gt;PL16</title>
<path fill="none" stroke="black" d="M33,-1194.91C33,-1192.29 33,-1133.47 33,-1097.49"/>
<polygon fill="black" stroke="black" points="36.5001,-1097.15 33,-1087.15 29.5001,-1097.15 36.5001,-1097.15"/>
</g>
<!-- PL5 -->
<g id="node6" class="node"><title>PL5</title>
<ellipse fill="none" stroke="black" cx="36" cy="-888" rx="18" ry="18"/>
<text text-anchor="middle" x="36" y="-884.3" font-family="Times,serif" font-size="14.00">PL5</text>
</g>
<!-- transition4 -->
<g id="node9" class="node"><title>transition4</title>
<polygon fill="none" stroke="black" points="54,-834 18,-834 18,-833 54,-833 54,-834"/>
<text text-anchor="middle" x="12" y="-837.8" font-family="Times,serif" font-size="14.00">b&#45;</text>
</g>
<!-- PL5&#45;&gt;transition4 -->
<g id="edge7" class="edge"><title>PL5&#45;&gt;transition4</title>
<path fill="none" stroke="black" d="M36,-869.939C36,-859.385 36,-846.534 36,-839.412"/>
<polygon fill="none" stroke="black" points="37.7501,-839.059 36,-834.059 34.2501,-839.059 37.7501,-839.059"/>
</g>
<!-- transition14&#45;&gt;PL5 -->
<g id="edge6" class="edge"><title>transition14&#45;&gt;PL5</title>
<path fill="none" stroke="black" d="M36,-941.848C36,-940.368 36,-928.319 36,-916.1"/>
<polygon fill="black" stroke="black" points="39.5001,-916.025 36,-906.025 32.5001,-916.025 39.5001,-916.025"/>
</g>
<!-- PL6 -->
<g id="node8" class="node"><title>PL6</title>
<ellipse fill="none" stroke="black" cx="36" cy="-779" rx="18" ry="18"/>
<text text-anchor="middle" x="36" y="-775.3" font-family="Times,serif" font-size="14.00">PL6</text>
</g>
<!-- transition5 -->
<g id="node11" class="node"><title>transition5</title>
<polygon fill="none" stroke="black" points="54,-725 18,-725 18,-724 54,-724 54,-725"/>
<text text-anchor="middle" x="10.5" y="-728.8" font-family="Times,serif" font-size="14.00">a+</text>
</g>
<!-- PL6&#45;&gt;transition5 -->
<g id="edge9" class="edge"><title>PL6&#45;&gt;transition5</title>
<path fill="none" stroke="black" d="M36,-760.939C36,-750.385 36,-737.534 36,-730.412"/>
<polygon fill="none" stroke="black" points="37.7501,-730.059 36,-725.059 34.2501,-730.059 37.7501,-730.059"/>
</g>
<!-- transition4&#45;&gt;PL6 -->
<g id="edge8" class="edge"><title>transition4&#45;&gt;PL6</title>
<path fill="none" stroke="black" d="M36,-832.848C36,-831.368 36,-819.319 36,-807.1"/>
<polygon fill="black" stroke="black" points="39.5001,-807.025 36,-797.025 32.5001,-807.025 39.5001,-807.025"/>
</g>
<!-- PL7 -->
<g id="node10" class="node"><title>PL7</title>
<ellipse fill="none" stroke="black" cx="36" cy="-670" rx="18" ry="18"/>
<text text-anchor="middle" x="36" y="-666.3" font-family="Times,serif" font-size="14.00">PL7</text>
</g>
<!-- transition6 -->
<g id="node13" class="node"><title>transition6</title>
<polygon fill="none" stroke="black" points="54,-616 18,-616 18,-615 54,-615 54,-616"/>
<text text-anchor="middle" x="12.5" y="-619.8" font-family="Times,serif" font-size="14.00">c&#45;</text>
</g>
<!-- PL7&#45;&gt;transition6 -->
<g id="edge11" class="edge"><title>PL7&#45;&gt;transition6</title>
<path fill="none" stroke="black" d="M36,-651.939C36,-641.385 36,-628.534 36,-621.412"/>
<polygon fill="none" stroke="black" points="37.7501,-621.059 36,-616.059 34.2501,-621.059 37.7501,-621.059"/>
</g>
<!-- transition5&#45;&gt;PL7 -->
<g id="edge10" class="edge"><title>transition5&#45;&gt;PL7</title>
<path fill="none" stroke="black" d="M36,-723.848C36,-722.368 36,-710.319 36,-698.1"/>
<polygon fill="black" stroke="black" points="39.5001,-698.025 36,-688.025 32.5001,-698.025 39.5001,-698.025"/>
</g>
<!-- PL8 -->
<g id="node12" class="node"><title>PL8</title>
<ellipse fill="none" stroke="black" cx="34" cy="-561" rx="18" ry="18"/>
<text text-anchor="middle" x="34" y="-557.3" font-family="Times,serif" font-size="14.00">PL8</text>
</g>
<!-- transition7 -->
<g id="node15" class="node"><title>transition7</title>
<polygon fill="none" stroke="black" points="51,-489.5 15,-489.5 15,-488.5 51,-488.5 51,-489.5"/>
<text text-anchor="middle" x="7.5" y="-493.3" font-family="Times,serif" font-size="14.00">b+</text>
</g>
<!-- PL8&#45;&gt;transition7 -->
<g id="edge13" class="edge"><title>PL8&#45;&gt;transition7</title>
<path fill="none" stroke="black" d="M33.7528,-542.697C33.5309,-527.165 33.2189,-505.324 33.0764,-495.348"/>
<polygon fill="none" stroke="black" points="34.8227,-495.067 33.0013,-490.092 31.323,-495.117 34.8227,-495.067"/>
</g>
<!-- transition6&#45;&gt;PL8 -->
<g id="edge12" class="edge"><title>transition6&#45;&gt;PL8</title>
<path fill="none" stroke="black" d="M35.9943,-614.848C35.9384,-613.368 35.4837,-601.319 35.0227,-589.1"/>
<polygon fill="black" stroke="black" points="38.5171,-588.886 34.6424,-579.025 31.5221,-589.15 38.5171,-588.886"/>
</g>
<!-- PL13 -->
<g id="node23" class="node"><title>PL13</title>
<ellipse fill="none" stroke="black" cx="87" cy="-489" rx="18" ry="18"/>
<text text-anchor="middle" x="87" y="-485.3" font-family="Times,serif" font-size="14.00">PL13</text>
</g>
<!-- transition6&#45;&gt;PL13 -->
<g id="edge23" class="edge"><title>transition6&#45;&gt;PL13</title>
<path fill="none" stroke="black" d="M36.0479,-614.947C37.0297,-613.849 52.8665,-596.028 61,-579 70.5115,-559.087 77.2922,-534.978 81.5391,-516.877"/>
<polygon fill="black" stroke="black" points="84.983,-517.515 83.7483,-506.992 78.1515,-515.988 84.983,-517.515"/>
</g>
<!-- PL9 -->
<g id="node14" class="node"><title>PL9</title>
<ellipse fill="none" stroke="black" cx="33" cy="-417" rx="18" ry="18"/>
<text text-anchor="middle" x="33" y="-413.3" font-family="Times,serif" font-size="14.00">PL9</text>
</g>
<!-- transition8 -->
<g id="node17" class="node"><title>transition8</title>
<polygon fill="none" stroke="black" points="51,-345.5 15,-345.5 15,-344.5 51,-344.5 51,-345.5"/>
<text text-anchor="middle" x="9.5" y="-349.3" font-family="Times,serif" font-size="14.00">a&#45;</text>
</g>
<!-- PL9&#45;&gt;transition8 -->
<g id="edge15" class="edge"><title>PL9&#45;&gt;transition8</title>
<path fill="none" stroke="black" d="M33,-398.697C33,-383.165 33,-361.324 33,-351.348"/>
<polygon fill="none" stroke="black" points="34.7501,-351.092 33,-346.092 31.2501,-351.092 34.7501,-351.092"/>
</g>
<!-- transition7&#45;&gt;PL9 -->
<g id="edge14" class="edge"><title>transition7&#45;&gt;PL9</title>
<path fill="none" stroke="black" d="M33,-487.949C33,-486.748 33,-464.429 33,-445.321"/>
<polygon fill="black" stroke="black" points="36.5001,-445.191 33,-435.191 29.5001,-445.191 36.5001,-445.191"/>
</g>
<!-- PL10 -->
<g id="node16" class="node"><title>PL10</title>
<ellipse fill="none" stroke="black" cx="37" cy="-273" rx="18" ry="18"/>
<text text-anchor="middle" x="37" y="-269.3" font-family="Times,serif" font-size="14.00">PL10</text>
</g>
<!-- transition12 -->
<g id="node19" class="node"><title>transition12</title>
<polygon fill="none" stroke="black" points="105,-219 69,-219 69,-218 105,-218 105,-219"/>
<text text-anchor="middle" x="63" y="-222.8" font-family="Times,serif" font-size="14.00">x&#45;</text>
</g>
<!-- PL10&#45;&gt;transition12 -->
<g id="edge17" class="edge"><title>PL10&#45;&gt;transition12</title>
<path fill="none" stroke="black" d="M48.8493,-259.44C60.0396,-247.578 76.1442,-230.507 83.3147,-222.906"/>
<polygon fill="none" stroke="black" points="84.7743,-223.909 86.9325,-219.072 82.2284,-221.508 84.7743,-223.909"/>
</g>
<!-- transition8&#45;&gt;PL10 -->
<g id="edge16" class="edge"><title>transition8&#45;&gt;PL10</title>
<path fill="none" stroke="black" d="M33.0029,-343.949C33.0716,-342.748 34.3469,-320.429 35.4388,-301.321"/>
<polygon fill="black" stroke="black" points="38.9414,-301.375 36.0176,-291.191 31.9528,-300.975 38.9414,-301.375"/>
</g>
<!-- PL11 -->
<g id="node18" class="node"><title>PL11</title>
<ellipse fill="none" stroke="black" cx="87" cy="-164" rx="18" ry="18"/>
<text text-anchor="middle" x="87" y="-160.3" font-family="Times,serif" font-size="14.00">PL11</text>
</g>
<!-- transition9 -->
<g id="node21" class="node"><title>transition9</title>
<polygon fill="none" stroke="black" points="105,-110 69,-110 69,-109 105,-109 105,-110"/>
<text text-anchor="middle" x="63" y="-113.8" font-family="Times,serif" font-size="14.00">b&#45;</text>
</g>
<!-- PL11&#45;&gt;transition9 -->
<g id="edge19" class="edge"><title>PL11&#45;&gt;transition9</title>
<path fill="none" stroke="black" d="M87,-145.939C87,-135.385 87,-122.534 87,-115.412"/>
<polygon fill="none" stroke="black" points="88.7501,-115.059 87,-110.059 85.2501,-115.059 88.7501,-115.059"/>
</g>
<!-- transition12&#45;&gt;PL11 -->
<g id="edge18" class="edge"><title>transition12&#45;&gt;PL11</title>
<path fill="none" stroke="black" d="M87,-217.848C87,-216.368 87,-204.319 87,-192.1"/>
<polygon fill="black" stroke="black" points="90.5001,-192.025 87,-182.025 83.5001,-192.025 90.5001,-192.025"/>
</g>
<!-- PL12 -->
<g id="node20" class="node"><title>PL12</title>
<ellipse fill="none" stroke="black" cx="87" cy="-55" rx="18" ry="18"/>
<text text-anchor="middle" x="87" y="-51.3" font-family="Times,serif" font-size="14.00">PL12</text>
</g>
<!-- transition10 -->
<g id="node22" class="node"><title>transition10</title>
<polygon fill="none" stroke="black" points="128,-1 92,-1 92,-0 128,-0 128,-1"/>
<text text-anchor="middle" x="84.5" y="-4.8" font-family="Times,serif" font-size="14.00">a+</text>
</g>
<!-- PL12&#45;&gt;transition10 -->
<g id="edge21" class="edge"><title>PL12&#45;&gt;transition10</title>
<path fill="none" stroke="black" d="M93.9008,-38.0983C98.7205,-26.9918 104.831,-12.9118 107.956,-5.7104"/>
<polygon fill="none" stroke="black" points="109.588,-6.34553 109.973,-1.06211 106.377,-4.95216 109.588,-6.34553"/>
</g>
<!-- transition9&#45;&gt;PL12 -->
<g id="edge20" class="edge"><title>transition9&#45;&gt;PL12</title>
<path fill="none" stroke="black" d="M87,-108.848C87,-107.368 87,-95.3194 87,-83.1004"/>
<polygon fill="black" stroke="black" points="90.5001,-83.0247 87,-73.0247 83.5001,-83.0248 90.5001,-83.0247"/>
</g>
<!-- transition10&#45;&gt;PL1 -->
<g id="edge22" class="edge"><title>transition10&#45;&gt;PL1</title>
<path fill="none" stroke="black" d="M110.017,-1.04289C110.713,-2.83896 133,-60.6904 133,-109 133,-1251 133,-1251 133,-1251 133,-1279.25 125.243,-1310.77 118.738,-1332.24"/>
<polygon fill="black" stroke="black" points="115.358,-1331.33 115.685,-1341.92 122.033,-1333.43 115.358,-1331.33"/>
</g>
<!-- transition11 -->
<g id="node25" class="node"><title>transition11</title>
<polygon fill="none" stroke="black" points="105,-417.5 69,-417.5 69,-416.5 105,-416.5 105,-417.5"/>
<text text-anchor="middle" x="63" y="-421.3" font-family="Times,serif" font-size="14.00">d&#45;</text>
</g>
<!-- PL13&#45;&gt;transition11 -->
<g id="edge24" class="edge"><title>PL13&#45;&gt;transition11</title>
<path fill="none" stroke="black" d="M87,-470.697C87,-455.165 87,-433.324 87,-423.348"/>
<polygon fill="none" stroke="black" points="88.7501,-423.092 87,-418.092 85.2501,-423.092 88.7501,-423.092"/>
</g>
<!-- PL14 -->
<g id="node24" class="node"><title>PL14</title>
<ellipse fill="none" stroke="black" cx="87" cy="-345" rx="18" ry="18"/>
<text text-anchor="middle" x="87" y="-341.3" font-family="Times,serif" font-size="14.00">PL14</text>
</g>
<!-- PL14&#45;&gt;transition12 -->
<g id="edge26" class="edge"><title>PL14&#45;&gt;transition12</title>
<path fill="none" stroke="black" d="M87,-326.881C87,-298.184 87,-241.793 87,-224.302"/>
<polygon fill="none" stroke="black" points="88.7501,-224.053 87,-219.054 85.2501,-224.054 88.7501,-224.053"/>
</g>
<!-- transition11&#45;&gt;PL14 -->
<g id="edge25" class="edge"><title>transition11&#45;&gt;PL14</title>
<path fill="none" stroke="black" d="M87,-415.949C87,-414.748 87,-392.429 87,-373.321"/>
<polygon fill="black" stroke="black" points="90.5001,-373.191 87,-363.191 83.5001,-373.191 90.5001,-373.191"/>
</g>
<!-- transition2 -->
<g id="node28" class="node"><title>transition2</title>
<polygon fill="none" stroke="black" points="105,-1196 69,-1196 69,-1195 105,-1195 105,-1196"/>
<text text-anchor="middle" x="61.5" y="-1199.8" font-family="Times,serif" font-size="14.00">b+</text>
</g>
<!-- PL2&#45;&gt;transition2 -->
<g id="edge28" class="edge"><title>PL2&#45;&gt;transition2</title>
<path fill="none" stroke="black" d="M87,-1231.94C87,-1221.39 87,-1208.53 87,-1201.41"/>
<polygon fill="none" stroke="black" points="88.7501,-1201.06 87,-1196.06 85.2501,-1201.06 88.7501,-1201.06"/>
</g>
<!-- PL3 -->
<g id="node27" class="node"><title>PL3</title>
<ellipse fill="none" stroke="black" cx="87" cy="-1141" rx="18" ry="18"/>
<text text-anchor="middle" x="87" y="-1137.3" font-family="Times,serif" font-size="14.00">PL3</text>
</g>
<!-- transition3 -->
<g id="node30" class="node"><title>transition3</title>
<polygon fill="none" stroke="black" points="105,-1069.5 69,-1069.5 69,-1068.5 105,-1068.5 105,-1069.5"/>
<text text-anchor="middle" x="63.5" y="-1073.3" font-family="Times,serif" font-size="14.00">a&#45;</text>
</g>
<!-- PL3&#45;&gt;transition3 -->
<g id="edge30" class="edge"><title>PL3&#45;&gt;transition3</title>
<path fill="none" stroke="black" d="M87,-1122.7C87,-1107.17 87,-1085.32 87,-1075.35"/>
<polygon fill="none" stroke="black" points="88.7501,-1075.09 87,-1070.09 85.2501,-1075.09 88.7501,-1075.09"/>
</g>
<!-- transition2&#45;&gt;PL3 -->
<g id="edge29" class="edge"><title>transition2&#45;&gt;PL3</title>
<path fill="none" stroke="black" d="M87,-1194.85C87,-1193.37 87,-1181.32 87,-1169.1"/>
<polygon fill="black" stroke="black" points="90.5001,-1169.02 87,-1159.02 83.5001,-1169.02 90.5001,-1169.02"/>
</g>
<!-- PL4 -->
<g id="node29" class="node"><title>PL4</title>
<ellipse fill="none" stroke="black" cx="83" cy="-997" rx="18" ry="18"/>
<text text-anchor="middle" x="83" y="-993.3" font-family="Times,serif" font-size="14.00">PL4</text>
</g>
<!-- PL4&#45;&gt;transition14 -->
<g id="edge32" class="edge"><title>PL4&#45;&gt;transition14</title>
<path fill="none" stroke="black" d="M71.382,-982.899C60.8483,-971.02 45.9924,-954.268 39.3903,-946.823"/>
<polygon fill="none" stroke="black" points="40.6888,-945.65 36.062,-943.07 38.0701,-947.972 40.6888,-945.65"/>
</g>
<!-- transition3&#45;&gt;PL4 -->
<g id="edge31" class="edge"><title>transition3&#45;&gt;PL4</title>
<path fill="none" stroke="black" d="M86.9971,-1067.95C86.9284,-1066.75 85.6531,-1044.43 84.5612,-1025.32"/>
<polygon fill="black" stroke="black" points="88.0472,-1024.98 83.9824,-1015.19 81.0586,-1025.37 88.0472,-1024.98"/>
</g>
</g>
</svg>
