<?xml version="1.0" encoding="UTF-8" standalone="no"?>
<!DOCTYPE svg PUBLIC "-//W3C//DTD SVG 1.1//EN"
 "http://www.w3.org/Graphics/SVG/1.1/DTD/svg11.dtd">
<!-- Generated by graphviz version 2.38.0 (20140413.2041)
 -->
<!-- Title: %3 Pages: 1 -->
<svg width="141pt" height="1350pt"
 viewBox="0.00 0.00 141.00 1350.00" xmlns="http://www.w3.org/2000/svg" xmlns:xlink="http://www.w3.org/1999/xlink">
<g id="graph0" class="graph" transform="scale(1 1) rotate(0) translate(4 1346)">
<title>%3</title>
<polygon fill="white" stroke="none" points="-4,4 -4,-1346 137,-1346 137,4 -4,4"/>
<!-- PL1 -->
<g id="node1" class="node"><title>PL1</title>
<ellipse fill="none" stroke="black" cx="110" cy="-1324" rx="18" ry="18"/>
<text text-anchor="middle" x="110" y="-1320.3" font-family="Times,serif" font-size="14.00">PL1</text>
</g>
<!-- transition1 -->
<g id="node3" class="node"><title>transition1</title>
<polygon fill="none" stroke="black" points="105,-1270 69,-1270 69,-1269 105,-1269 105,-1270"/>
<text text-anchor="middle" x="61.5" y="-1273.8" font-family="Times,serif" font-size="14.00">c+</text>
</g>
<!-- PL1&#45;&gt;transition1 -->
<g id="edge1" class="edge"><title>PL1&#45;&gt;transition1</title>
<path fill="none" stroke="black" d="M103.099,-1307.1C98.2795,-1295.99 92.1693,-1281.91 89.0441,-1274.71"/>
<polygon fill="none" stroke="black" points="90.6228,-1273.95 87.027,-1270.06 87.4121,-1275.35 90.6228,-1273.95"/>
</g>
<!-- PL15 -->
<g id="node2" class="node"><title>PL15</title>
<ellipse fill="none" stroke="black" cx="33" cy="-1215" rx="18" ry="18"/>
<text text-anchor="middle" x="33" y="-1211.3" font-family="Times,serif" font-size="14.00">PL15</text>
</g>
<!-- transition13 -->
<g id="node5" class="node"><title>transition13</title>
<polygon fill="none" stroke="black" points="51,-1161 15,-1161 15,-1160 51,-1160 51,-1161"/>
<text text-anchor="middle" x="7.5" y="-1164.8" font-family="Times,serif" font-size="14.00">d+</text>
</g>
<!-- PL15&#45;&gt;transition13 -->
<g id="edge3" class="edge"><title>PL15&#45;&gt;transition13</title>
<path fill="none" stroke="black" d="M33,-1196.94C33,-1186.39 33,-1173.53 33,-1166.41"/>
<polygon fill="none" stroke="black" points="34.7501,-1166.06 33,-1161.06 31.2501,-1166.06 34.7501,-1166.06"/>
</g>
<!-- transition1&#45;&gt;PL15 -->
<g id="edge2" class="edge"><title>transition1&#45;&gt;PL15</title>
<path fill="none" stroke="black" d="M86.8451,-1268.85C85.0118,-1267.05 67.2624,-1249.63 52.6353,-1235.27"/>
<polygon fill="black" stroke="black" points="54.9603,-1232.65 45.3718,-1228.14 50.057,-1237.65 54.9603,-1232.65"/>
</g>
<!-- PL2 -->
<g id="node26" class="node"><title>PL2</title>
<ellipse fill="none" stroke="black" cx="87" cy="-1215" rx="18" ry="18"/>
<text text-anchor="middle" x="87" y="-1211.3" font-family="Times,serif" font-size="14.00">PL2</text>
</g>
<!-- transition1&#45;&gt;PL2 -->
<g id="edge27" class="edge"><title>transition1&#45;&gt;PL2</title>
<path fill="none" stroke="black" d="M87,-1268.85C87,-1267.37 87,-1255.32 87,-1243.1"/>
<polygon fill="black" stroke="black" points="90.5001,-1243.02 87,-1233.02 83.5001,-1243.02 90.5001,-1243.02"/>
</g>
<!-- PL16 -->
<g id="node4" class="node"><title>PL16</title>
<ellipse fill="none" stroke="black" cx="33" cy="-1034" rx="18" ry="18"/>
<text text-anchor="middle" x="33" y="-1030.3" font-family="Times,serif" font-size="14.00">PL16</text>
</g>
<!-- transition14 -->
<g id="node7" class="node"><title>transition14</title>
<polygon fill="none" stroke="black" points="77,-908 41,-908 41,-907 77,-907 77,-908"/>
<text text-anchor="middle" x="33.5" y="-911.8" font-family="Times,serif" font-size="14.00">x+</text>
</g>
<!-- PL16&#45;&gt;transition14 -->
<g id="edge5" class="edge"><title>PL16&#45;&gt;transition14</title>
<path fill="none" stroke="black" d="M36.5065,-1016.14C42.4555,-987.541 54.2365,-930.901 57.8919,-913.327"/>
<polygon fill="none" stroke="black" points="59.6839,-913.305 58.9888,-908.054 56.2572,-912.593 59.6839,-913.305"/>
</g>
<!-- transition13&#45;&gt;PL16 -->
<g id="edge4" class="edge"><title>transition13&#45;&gt;PL16</title>
<path fill="none" stroke="black" d="M33,-1159.91C33,-1157.29 33,-1098.47 33,-1062.49"/>
<polygon fill="black" stroke="black" points="36.5001,-1062.15 33,-1052.15 29.5001,-1062.15 36.5001,-1062.15"/>
</g>
<!-- PL5 -->
<g id="node6" class="node"><title>PL5</title>
<ellipse fill="none" stroke="black" cx="59" cy="-853" rx="18" ry="18"/>
<text text-anchor="middle" x="59" y="-849.3" font-family="Times,serif" font-size="14.00">PL5</text>
</g>
<!-- transition4 -->
<g id="node9" class="node"><title>transition4</title>
<polygon fill="none" stroke="black" points="77,-799 41,-799 41,-798 77,-798 77,-799"/>
<text text-anchor="middle" x="35" y="-802.8" font-family="Times,serif" font-size="14.00">b&#45;</text>
</g>
<!-- PL5&#45;&gt;transition4 -->
<g id="edge7" class="edge"><title>PL5&#45;&gt;transition4</title>
<path fill="none" stroke="black" d="M59,-834.939C59,-824.385 59,-811.534 59,-804.412"/>
<polygon fill="none" stroke="black" points="60.7501,-804.059 59,-799.059 57.2501,-804.059 60.7501,-804.059"/>
</g>
<!-- transition14&#45;&gt;PL5 -->
<g id="edge6" class="edge"><title>transition14&#45;&gt;PL5</title>
<path fill="none" stroke="black" d="M59,-906.848C59,-905.368 59,-893.319 59,-881.1"/>
<polygon fill="black" stroke="black" points="62.5001,-881.025 59,-871.025 55.5001,-881.025 62.5001,-881.025"/>
</g>
<!-- PL6 -->
<g id="node8" class="node"><title>PL6</title>
<ellipse fill="none" stroke="black" cx="59" cy="-744" rx="18" ry="18"/>
<text text-anchor="middle" x="59" y="-740.3" font-family="Times,serif" font-size="14.00">PL6</text>
</g>
<!-- transition5 -->
<g id="node11" class="node"><title>transition5</title>
<polygon fill="none" stroke="black" points="77,-690 41,-690 41,-689 77,-689 77,-690"/>
<text text-anchor="middle" x="33.5" y="-693.8" font-family="Times,serif" font-size="14.00">a+</text>
</g>
<!-- PL6&#45;&gt;transition5 -->
<g id="edge9" class="edge"><title>PL6&#45;&gt;transition5</title>
<path fill="none" stroke="black" d="M59,-725.939C59,-715.385 59,-702.534 59,-695.412"/>
<polygon fill="none" stroke="black" points="60.7501,-695.059 59,-690.059 57.2501,-695.059 60.7501,-695.059"/>
</g>
<!-- transition4&#45;&gt;PL6 -->
<g id="edge8" class="edge"><title>transition4&#45;&gt;PL6</title>
<path fill="none" stroke="black" d="M59,-797.848C59,-796.368 59,-784.319 59,-772.1"/>
<polygon fill="black" stroke="black" points="62.5001,-772.025 59,-762.025 55.5001,-772.025 62.5001,-772.025"/>
</g>
<!-- PL7 -->
<g id="node10" class="node"><title>PL7</title>
<ellipse fill="none" stroke="black" cx="59" cy="-635" rx="18" ry="18"/>
<text text-anchor="middle" x="59" y="-631.3" font-family="Times,serif" font-size="14.00">PL7</text>
</g>
<!-- transition6 -->
<g id="node13" class="node"><title>transition6</title>
<polygon fill="none" stroke="black" points="77,-581 41,-581 41,-580 77,-580 77,-581"/>
<text text-anchor="middle" x="35.5" y="-584.8" font-family="Times,serif" font-size="14.00">c&#45;</text>
</g>
<!-- PL7&#45;&gt;transition6 -->
<g id="edge11" class="edge"><title>PL7&#45;&gt;transition6</title>
<path fill="none" stroke="black" d="M59,-616.939C59,-606.385 59,-593.534 59,-586.412"/>
<polygon fill="none" stroke="black" points="60.7501,-586.059 59,-581.059 57.2501,-586.059 60.7501,-586.059"/>
</g>
<!-- transition5&#45;&gt;PL7 -->
<g id="edge10" class="edge"><title>transition5&#45;&gt;PL7</title>
<path fill="none" stroke="black" d="M59,-688.848C59,-687.368 59,-675.319 59,-663.1"/>
<polygon fill="black" stroke="black" points="62.5001,-663.025 59,-653.025 55.5001,-663.025 62.5001,-663.025"/>
</g>
<!-- PL13 -->
<g id="node12" class="node"><title>PL13</title>
<ellipse fill="none" stroke="black" cx="33" cy="-526" rx="18" ry="18"/>
<text text-anchor="middle" x="33" y="-522.3" font-family="Times,serif" font-size="14.00">PL13</text>
</g>
<!-- transition11 -->
<g id="node15" class="node"><title>transition11</title>
<polygon fill="none" stroke="black" points="51,-472 15,-472 15,-471 51,-471 51,-472"/>
<text text-anchor="middle" x="9" y="-475.8" font-family="Times,serif" font-size="14.00">d&#45;</text>
</g>
<!-- PL13&#45;&gt;transition11 -->
<g id="edge13" class="edge"><title>PL13&#45;&gt;transition11</title>
<path fill="none" stroke="black" d="M33,-507.939C33,-497.385 33,-484.534 33,-477.412"/>
<polygon fill="none" stroke="black" points="34.7501,-477.059 33,-472.059 31.2501,-477.059 34.7501,-477.059"/>
</g>
<!-- transition6&#45;&gt;PL13 -->
<g id="edge12" class="edge"><title>transition6&#45;&gt;PL13</title>
<path fill="none" stroke="black" d="M58.9254,-579.848C58.1536,-578.275 51.5233,-564.759 45.1617,-551.791"/>
<polygon fill="black" stroke="black" points="48.2112,-550.06 40.6646,-542.624 41.9267,-553.143 48.2112,-550.06"/>
</g>
<!-- PL8 -->
<g id="node21" class="node"><title>PL8</title>
<ellipse fill="none" stroke="black" cx="87" cy="-526" rx="18" ry="18"/>
<text text-anchor="middle" x="87" y="-522.3" font-family="Times,serif" font-size="14.00">PL8</text>
</g>
<!-- transition6&#45;&gt;PL8 -->
<g id="edge21" class="edge"><title>transition6&#45;&gt;PL8</title>
<path fill="none" stroke="black" d="M59.0803,-579.848C59.9166,-578.265 67.1408,-564.591 74.0304,-551.55"/>
<polygon fill="black" stroke="black" points="77.3153,-552.824 78.8918,-542.348 71.1259,-549.555 77.3153,-552.824"/>
</g>
<!-- PL14 -->
<g id="node14" class="node"><title>PL14</title>
<ellipse fill="none" stroke="black" cx="33" cy="-345" rx="18" ry="18"/>
<text text-anchor="middle" x="33" y="-341.3" font-family="Times,serif" font-size="14.00">PL14</text>
</g>
<!-- transition12 -->
<g id="node17" class="node"><title>transition12</title>
<polygon fill="none" stroke="black" points="105,-219 69,-219 69,-218 105,-218 105,-219"/>
<text text-anchor="middle" x="63" y="-222.8" font-family="Times,serif" font-size="14.00">x&#45;</text>
</g>
<!-- PL14&#45;&gt;transition12 -->
<g id="edge15" class="edge"><title>PL14&#45;&gt;transition12</title>
<path fill="none" stroke="black" d="M36.2445,-327.266C40.2221,-308.868 47.9573,-278.765 60,-255 66.5684,-242.038 77.8452,-228.907 83.5211,-222.696"/>
<polygon fill="none" stroke="black" points="84.7968,-223.894 86.9482,-219.053 82.2475,-221.495 84.7968,-223.894"/>
</g>
<!-- transition11&#45;&gt;PL14 -->
<g id="edge14" class="edge"><title>transition11&#45;&gt;PL14</title>
<path fill="none" stroke="black" d="M33,-470.909C33,-468.29 33,-409.468 33,-373.491"/>
<polygon fill="black" stroke="black" points="36.5001,-373.147 33,-363.147 29.5001,-373.147 36.5001,-373.147"/>
</g>
<!-- PL11 -->
<g id="node16" class="node"><title>PL11</title>
<ellipse fill="none" stroke="black" cx="87" cy="-164" rx="18" ry="18"/>
<text text-anchor="middle" x="87" y="-160.3" font-family="Times,serif" font-size="14.00">PL11</text>
</g>
<!-- transition9 -->
<g id="node19" class="node"><title>transition9</title>
<polygon fill="none" stroke="black" points="105,-110 69,-110 69,-109 105,-109 105,-110"/>
<text text-anchor="middle" x="63" y="-113.8" font-family="Times,serif" font-size="14.00">b&#45;</text>
</g>
<!-- PL11&#45;&gt;transition9 -->
<g id="edge17" class="edge"><title>PL11&#45;&gt;transition9</title>
<path fill="none" stroke="black" d="M87,-145.939C87,-135.385 87,-122.534 87,-115.412"/>
<polygon fill="none" stroke="black" points="88.7501,-115.059 87,-110.059 85.2501,-115.059 88.7501,-115.059"/>
</g>
<!-- transition12&#45;&gt;PL11 -->
<g id="edge16" class="edge"><title>transition12&#45;&gt;PL11</title>
<path fill="none" stroke="black" d="M87,-217.848C87,-216.368 87,-204.319 87,-192.1"/>
<polygon fill="black" stroke="black" points="90.5001,-192.025 87,-182.025 83.5001,-192.025 90.5001,-192.025"/>
</g>
<!-- PL12 -->
<g id="node18" class="node"><title>PL12</title>
<ellipse fill="none" stroke="black" cx="87" cy="-55" rx="18" ry="18"/>
<text text-anchor="middle" x="87" y="-51.3" font-family="Times,serif" font-size="14.00">PL12</text>
</g>
<!-- transition10 -->
<g id="node20" class="node"><title>transition10</title>
<polygon fill="none" stroke="black" points="128,-1 92,-1 92,-0 128,-0 128,-1"/>
<text text-anchor="middle" x="84.5" y="-4.8" font-family="Times,serif" font-size="14.00">a+</text>
</g>
<!-- PL12&#45;&gt;transition10 -->
<g id="edge19" class="edge"><title>PL12&#45;&gt;transition10</title>
<path fill="none" stroke="black" d="M93.9008,-38.0983C98.7205,-26.9918 104.831,-12.9118 107.956,-5.7104"/>
<polygon fill="none" stroke="black" points="109.588,-6.34553 109.973,-1.06211 106.377,-4.95216 109.588,-6.34553"/>
</g>
<!-- transition9&#45;&gt;PL12 -->
<g id="edge18" class="edge"><title>transition9&#45;&gt;PL12</title>
<path fill="none" stroke="black" d="M87,-108.848C87,-107.368 87,-95.3194 87,-83.1004"/>
<polygon fill="black" stroke="black" points="90.5001,-83.0247 87,-73.0247 83.5001,-83.0248 90.5001,-83.0247"/>
</g>
<!-- transition10&#45;&gt;PL1 -->
<g id="edge20" class="edge"><title>transition10&#45;&gt;PL1</title>
<path fill="none" stroke="black" d="M110.017,-1.04289C110.713,-2.83896 133,-60.6904 133,-109 133,-1216 133,-1216 133,-1216 133,-1244.25 125.243,-1275.77 118.738,-1297.24"/>
<polygon fill="black" stroke="black" points="115.358,-1296.33 115.685,-1306.92 122.033,-1298.43 115.358,-1296.33"/>
</g>
<!-- transition7 -->
<g id="node23" class="node"><title>transition7</title>
<polygon fill="none" stroke="black" points="105,-472 69,-472 69,-471 105,-471 105,-472"/>
<text text-anchor="middle" x="61.5" y="-475.8" font-family="Times,serif" font-size="14.00">b+</text>
</g>
<!-- PL8&#45;&gt;transition7 -->
<g id="edge22" class="edge"><title>PL8&#45;&gt;transition7</title>
<path fill="none" stroke="black" d="M87,-507.939C87,-497.385 87,-484.534 87,-477.412"/>
<polygon fill="none" stroke="black" points="88.7501,-477.059 87,-472.059 85.2501,-477.059 88.7501,-477.059"/>
</g>
<!-- PL9 -->
<g id="node22" class="node"><title>PL9</title>
<ellipse fill="none" stroke="black" cx="87" cy="-417" rx="18" ry="18"/>
<text text-anchor="middle" x="87" y="-413.3" font-family="Times,serif" font-size="14.00">PL9</text>
</g>
<!-- transition8 -->
<g id="node25" class="node"><title>transition8</title>
<polygon fill="none" stroke="black" points="105,-345.5 69,-345.5 69,-344.5 105,-344.5 105,-345.5"/>
<text text-anchor="middle" x="63.5" y="-349.3" font-family="Times,serif" font-size="14.00">a&#45;</text>
</g>
<!-- PL9&#45;&gt;transition8 -->
<g id="edge24" class="edge"><title>PL9&#45;&gt;transition8</title>
<path fill="none" stroke="black" d="M87,-398.697C87,-383.165 87,-361.324 87,-351.348"/>
<polygon fill="none" stroke="black" points="88.7501,-351.092 87,-346.092 85.2501,-351.092 88.7501,-351.092"/>
</g>
<!-- transition7&#45;&gt;PL9 -->
<g id="edge23" class="edge"><title>transition7&#45;&gt;PL9</title>
<path fill="none" stroke="black" d="M87,-470.848C87,-469.368 87,-457.319 87,-445.1"/>
<polygon fill="black" stroke="black" points="90.5001,-445.025 87,-435.025 83.5001,-445.025 90.5001,-445.025"/>
</g>
<!-- PL10 -->
<g id="node24" class="node"><title>PL10</title>
<ellipse fill="none" stroke="black" cx="87" cy="-273" rx="18" ry="18"/>
<text text-anchor="middle" x="87" y="-269.3" font-family="Times,serif" font-size="14.00">PL10</text>
</g>
<!-- PL10&#45;&gt;transition12 -->
<g id="edge26" class="edge"><title>PL10&#45;&gt;transition12</title>
<path fill="none" stroke="black" d="M87,-254.939C87,-244.385 87,-231.534 87,-224.412"/>
<polygon fill="none" stroke="black" points="88.7501,-224.059 87,-219.059 85.2501,-224.059 88.7501,-224.059"/>
</g>
<!-- transition8&#45;&gt;PL10 -->
<g id="edge25" class="edge"><title>transition8&#45;&gt;PL10</title>
<path fill="none" stroke="black" d="M87,-343.949C87,-342.748 87,-320.429 87,-301.321"/>
<polygon fill="black" stroke="black" points="90.5001,-301.191 87,-291.191 83.5001,-301.191 90.5001,-301.191"/>
</g>
<!-- transition2 -->
<g id="node28" class="node"><title>transition2</title>
<polygon fill="none" stroke="black" points="105,-1161 69,-1161 69,-1160 105,-1160 105,-1161"/>
<text text-anchor="middle" x="61.5" y="-1164.8" font-family="Times,serif" font-size="14.00">b+</text>
</g>
<!-- PL2&#45;&gt;transition2 -->
<g id="edge28" class="edge"><title>PL2&#45;&gt;transition2</title>
<path fill="none" stroke="black" d="M87,-1196.94C87,-1186.39 87,-1173.53 87,-1166.41"/>
<polygon fill="none" stroke="black" points="88.7501,-1166.06 87,-1161.06 85.2501,-1166.06 88.7501,-1166.06"/>
</g>
<!-- PL3 -->
<g id="node27" class="node"><title>PL3</title>
<ellipse fill="none" stroke="black" cx="87" cy="-1106" rx="18" ry="18"/>
<text text-anchor="middle" x="87" y="-1102.3" font-family="Times,serif" font-size="14.00">PL3</text>
</g>
<!-- transition3 -->
<g id="node30" class="node"><title>transition3</title>
<polygon fill="none" stroke="black" points="105,-1034.5 69,-1034.5 69,-1033.5 105,-1033.5 105,-1034.5"/>
<text text-anchor="middle" x="63.5" y="-1038.3" font-family="Times,serif" font-size="14.00">a&#45;</text>
</g>
<!-- PL3&#45;&gt;transition3 -->
<g id="edge30" class="edge"><title>PL3&#45;&gt;transition3</title>
<path fill="none" stroke="black" d="M87,-1087.7C87,-1072.17 87,-1050.32 87,-1040.35"/>
<polygon fill="none" stroke="black" points="88.7501,-1040.09 87,-1035.09 85.2501,-1040.09 88.7501,-1040.09"/>
</g>
<!-- transition2&#45;&gt;PL3 -->
<g id="edge29" class="edge"><title>transition2&#45;&gt;PL3</title>
<path fill="none" stroke="black" d="M87,-1159.85C87,-1158.37 87,-1146.32 87,-1134.1"/>
<polygon fill="black" stroke="black" points="90.5001,-1134.02 87,-1124.02 83.5001,-1134.02 90.5001,-1134.02"/>
</g>
<!-- PL4 -->
<g id="node29" class="node"><title>PL4</title>
<ellipse fill="none" stroke="black" cx="83" cy="-962" rx="18" ry="18"/>
<text text-anchor="middle" x="83" y="-958.3" font-family="Times,serif" font-size="14.00">PL4</text>
</g>
<!-- PL4&#45;&gt;transition14 -->
<g id="edge32" class="edge"><title>PL4&#45;&gt;transition14</title>
<path fill="none" stroke="black" d="M75.929,-945.385C70.8925,-934.263 64.454,-920.044 61.1574,-912.764"/>
<polygon fill="none" stroke="black" points="62.6852,-911.896 59.0285,-908.063 59.4969,-913.34 62.6852,-911.896"/>
</g>
<!-- transition3&#45;&gt;PL4 -->
<g id="edge31" class="edge"><title>transition3&#45;&gt;PL4</title>
<path fill="none" stroke="black" d="M86.9971,-1032.95C86.9284,-1031.75 85.6531,-1009.43 84.5612,-990.321"/>
<polygon fill="black" stroke="black" points="88.0472,-989.975 83.9824,-980.191 81.0586,-990.375 88.0472,-989.975"/>
</g>
</g>
</svg>
