<?xml version="1.0" encoding="UTF-8" standalone="no"?>
<!DOCTYPE svg PUBLIC "-//W3C//DTD SVG 1.1//EN"
 "http://www.w3.org/Graphics/SVG/1.1/DTD/svg11.dtd">
<!-- Generated by graphviz version 2.38.0 (20140413.2041)
 -->
<!-- Title: %3 Pages: 1 -->
<svg width="141pt" height="1420pt"
 viewBox="0.00 0.00 141.00 1420.00" xmlns="http://www.w3.org/2000/svg" xmlns:xlink="http://www.w3.org/1999/xlink">
<g id="graph0" class="graph" transform="scale(1 1) rotate(0) translate(4 1416)">
<title>%3</title>
<polygon fill="white" stroke="none" points="-4,4 -4,-1416 137,-1416 137,4 -4,4"/>
<!-- pl1 -->
<g id="node1" class="node"><title>pl1</title>
<ellipse fill="none" stroke="black" cx="110" cy="-1394" rx="18" ry="18"/>
<text text-anchor="middle" x="110" y="-1390.3" font-family="Times,serif" font-size="14.00">pl1</text>
</g>
<!-- transition1 -->
<g id="node3" class="node"><title>transition1</title>
<polygon fill="none" stroke="black" points="105,-1340 69,-1340 69,-1339 105,-1339 105,-1340"/>
<text text-anchor="middle" x="61.5" y="-1343.8" font-family="Times,serif" font-size="14.00">c+</text>
</g>
<!-- pl1&#45;&gt;transition1 -->
<g id="edge1" class="edge"><title>pl1&#45;&gt;transition1</title>
<path fill="none" stroke="black" d="M103.099,-1377.1C96.5362,-1361.97 87.5803,-1341.34 87.027,-1340.06"/>
</g>
<!-- pl2 -->
<g id="node2" class="node"><title>pl2</title>
<ellipse fill="none" stroke="black" cx="37" cy="-1285" rx="18" ry="18"/>
<text text-anchor="middle" x="37" y="-1281.3" font-family="Times,serif" font-size="14.00">pl2</text>
</g>
<!-- transition2 -->
<g id="node5" class="node"><title>transition2</title>
<polygon fill="none" stroke="black" points="51,-1213.5 15,-1213.5 15,-1212.5 51,-1212.5 51,-1213.5"/>
<text text-anchor="middle" x="7.5" y="-1217.3" font-family="Times,serif" font-size="14.00">b+</text>
</g>
<!-- pl2&#45;&gt;transition2 -->
<g id="edge3" class="edge"><title>pl2&#45;&gt;transition2</title>
<path fill="none" stroke="black" d="M36.0112,-1266.7C34.8637,-1246.62 33.1135,-1215.99 33.0053,-1214.09"/>
</g>
<!-- transition1&#45;&gt;pl2 -->
<g id="edge2" class="edge"><title>transition1&#45;&gt;pl2</title>
<path fill="none" stroke="black" d="M86.8566,-1338.85C85.194,-1337.09 69.3941,-1320.34 56.0198,-1306.16"/>
<polygon fill="black" stroke="black" points="58.3526,-1303.53 48.9445,-1298.66 53.2608,-1308.34 58.3526,-1303.53"/>
</g>
<!-- pl15 -->
<g id="node28" class="node"><title>pl15</title>
<ellipse fill="none" stroke="black" cx="87" cy="-1213" rx="18" ry="18"/>
<text text-anchor="middle" x="87" y="-1209.3" font-family="Times,serif" font-size="14.00">pl15</text>
</g>
<!-- transition1&#45;&gt;pl15 -->
<g id="edge29" class="edge"><title>transition1&#45;&gt;pl15</title>
<path fill="none" stroke="black" d="M87,-1338.91C87,-1336.29 87,-1277.47 87,-1241.49"/>
<polygon fill="black" stroke="black" points="90.5001,-1241.15 87,-1231.15 83.5001,-1241.15 90.5001,-1241.15"/>
</g>
<!-- pl3 -->
<g id="node4" class="node"><title>pl3</title>
<ellipse fill="none" stroke="black" cx="33" cy="-1141" rx="18" ry="18"/>
<text text-anchor="middle" x="33" y="-1137.3" font-family="Times,serif" font-size="14.00">pl3</text>
</g>
<!-- transition3 -->
<g id="node7" class="node"><title>transition3</title>
<polygon fill="none" stroke="black" points="51,-1069.5 15,-1069.5 15,-1068.5 51,-1068.5 51,-1069.5"/>
<text text-anchor="middle" x="9.5" y="-1073.3" font-family="Times,serif" font-size="14.00">a&#45;</text>
</g>
<!-- pl3&#45;&gt;transition3 -->
<g id="edge5" class="edge"><title>pl3&#45;&gt;transition3</title>
<path fill="none" stroke="black" d="M33,-1122.7C33,-1102.62 33,-1071.99 33,-1070.09"/>
</g>
<!-- transition2&#45;&gt;pl3 -->
<g id="edge4" class="edge"><title>transition2&#45;&gt;pl3</title>
<path fill="none" stroke="black" d="M33,-1211.95C33,-1210.75 33,-1188.43 33,-1169.32"/>
<polygon fill="black" stroke="black" points="36.5001,-1169.19 33,-1159.19 29.5001,-1169.19 36.5001,-1169.19"/>
</g>
<!-- pl4 -->
<g id="node6" class="node"><title>pl4</title>
<ellipse fill="none" stroke="black" cx="38" cy="-997" rx="18" ry="18"/>
<text text-anchor="middle" x="38" y="-993.3" font-family="Times,serif" font-size="14.00">pl4</text>
</g>
<!-- transition5 -->
<g id="node9" class="node"><title>transition5</title>
<polygon fill="none" stroke="black" points="56,-943 20,-943 20,-942 56,-942 56,-943"/>
<text text-anchor="middle" x="12.5" y="-946.8" font-family="Times,serif" font-size="14.00">x+</text>
</g>
<!-- pl4&#45;&gt;transition5 -->
<g id="edge7" class="edge"><title>pl4&#45;&gt;transition5</title>
<path fill="none" stroke="black" d="M38,-978.939C38,-963.929 38,-944.273 38,-943.059"/>
</g>
<!-- transition3&#45;&gt;pl4 -->
<g id="edge6" class="edge"><title>transition3&#45;&gt;pl4</title>
<path fill="none" stroke="black" d="M33.0036,-1067.95C33.0895,-1066.75 34.6837,-1044.43 36.0485,-1025.32"/>
<polygon fill="black" stroke="black" points="39.5506,-1025.42 36.7721,-1015.19 32.5684,-1024.92 39.5506,-1025.42"/>
</g>
<!-- pl5 -->
<g id="node8" class="node"><title>pl5</title>
<ellipse fill="none" stroke="black" cx="38" cy="-888" rx="18" ry="18"/>
<text text-anchor="middle" x="38" y="-884.3" font-family="Times,serif" font-size="14.00">pl5</text>
</g>
<!-- transition6 -->
<g id="node11" class="node"><title>transition6</title>
<polygon fill="none" stroke="black" points="56,-834 20,-834 20,-833 56,-833 56,-834"/>
<text text-anchor="middle" x="14" y="-837.8" font-family="Times,serif" font-size="14.00">b&#45;</text>
</g>
<!-- pl5&#45;&gt;transition6 -->
<g id="edge9" class="edge"><title>pl5&#45;&gt;transition6</title>
<path fill="none" stroke="black" d="M38,-869.939C38,-854.929 38,-835.273 38,-834.059"/>
</g>
<!-- transition5&#45;&gt;pl5 -->
<g id="edge8" class="edge"><title>transition5&#45;&gt;pl5</title>
<path fill="none" stroke="black" d="M38,-941.848C38,-940.368 38,-928.319 38,-916.1"/>
<polygon fill="black" stroke="black" points="41.5001,-916.025 38,-906.025 34.5001,-916.025 41.5001,-916.025"/>
</g>
<!-- pl6 -->
<g id="node10" class="node"><title>pl6</title>
<ellipse fill="none" stroke="black" cx="38" cy="-779" rx="18" ry="18"/>
<text text-anchor="middle" x="38" y="-775.3" font-family="Times,serif" font-size="14.00">pl6</text>
</g>
<!-- transition7 -->
<g id="node13" class="node"><title>transition7</title>
<polygon fill="none" stroke="black" points="56,-725 20,-725 20,-724 56,-724 56,-725"/>
<text text-anchor="middle" x="12.5" y="-728.8" font-family="Times,serif" font-size="14.00">a+</text>
</g>
<!-- pl6&#45;&gt;transition7 -->
<g id="edge11" class="edge"><title>pl6&#45;&gt;transition7</title>
<path fill="none" stroke="black" d="M38,-760.939C38,-745.929 38,-726.273 38,-725.059"/>
</g>
<!-- transition6&#45;&gt;pl6 -->
<g id="edge10" class="edge"><title>transition6&#45;&gt;pl6</title>
<path fill="none" stroke="black" d="M38,-832.848C38,-831.368 38,-819.319 38,-807.1"/>
<polygon fill="black" stroke="black" points="41.5001,-807.025 38,-797.025 34.5001,-807.025 41.5001,-807.025"/>
</g>
<!-- pl7 -->
<g id="node12" class="node"><title>pl7</title>
<ellipse fill="none" stroke="black" cx="38" cy="-670" rx="18" ry="18"/>
<text text-anchor="middle" x="38" y="-666.3" font-family="Times,serif" font-size="14.00">pl7</text>
</g>
<!-- transition8 -->
<g id="node15" class="node"><title>transition8</title>
<polygon fill="none" stroke="black" points="56,-616 20,-616 20,-615 56,-615 56,-616"/>
<text text-anchor="middle" x="14.5" y="-619.8" font-family="Times,serif" font-size="14.00">c&#45;</text>
</g>
<!-- pl7&#45;&gt;transition8 -->
<g id="edge13" class="edge"><title>pl7&#45;&gt;transition8</title>
<path fill="none" stroke="black" d="M38,-651.939C38,-636.929 38,-617.273 38,-616.059"/>
</g>
<!-- transition7&#45;&gt;pl7 -->
<g id="edge12" class="edge"><title>transition7&#45;&gt;pl7</title>
<path fill="none" stroke="black" d="M38,-723.848C38,-722.368 38,-710.319 38,-698.1"/>
<polygon fill="black" stroke="black" points="41.5001,-698.025 38,-688.025 34.5001,-698.025 41.5001,-698.025"/>
</g>
<!-- pl8 -->
<g id="node14" class="node"><title>pl8</title>
<ellipse fill="none" stroke="black" cx="34" cy="-561" rx="18" ry="18"/>
<text text-anchor="middle" x="34" y="-557.3" font-family="Times,serif" font-size="14.00">pl8</text>
</g>
<!-- transition9 -->
<g id="node17" class="node"><title>transition9</title>
<polygon fill="none" stroke="black" points="51,-489.5 15,-489.5 15,-488.5 51,-488.5 51,-489.5"/>
<text text-anchor="middle" x="7.5" y="-493.3" font-family="Times,serif" font-size="14.00">b+</text>
</g>
<!-- pl8&#45;&gt;transition9 -->
<g id="edge15" class="edge"><title>pl8&#45;&gt;transition9</title>
<path fill="none" stroke="black" d="M33.7528,-542.697C33.4659,-522.615 33.0284,-491.987 33.0013,-490.092"/>
</g>
<!-- transition8&#45;&gt;pl8 -->
<g id="edge14" class="edge"><title>transition8&#45;&gt;pl8</title>
<path fill="none" stroke="black" d="M37.9885,-614.848C37.8768,-613.368 36.9675,-601.319 36.0453,-589.1"/>
<polygon fill="black" stroke="black" points="39.5276,-588.733 35.2849,-579.025 32.5475,-589.26 39.5276,-588.733"/>
</g>
<!-- pl13 -->
<g id="node25" class="node"><title>pl13</title>
<ellipse fill="none" stroke="black" cx="87" cy="-489" rx="18" ry="18"/>
<text text-anchor="middle" x="87" y="-485.3" font-family="Times,serif" font-size="14.00">pl13</text>
</g>
<!-- transition8&#45;&gt;pl13 -->
<g id="edge25" class="edge"><title>transition8&#45;&gt;pl13</title>
<path fill="none" stroke="black" d="M38.0437,-614.946C38.9396,-613.832 53.393,-595.747 61,-579 70.1269,-558.907 76.9348,-534.811 81.2901,-516.761"/>
<polygon fill="black" stroke="black" points="84.7254,-517.44 83.57,-506.909 77.9056,-515.862 84.7254,-517.44"/>
</g>
<!-- pl9 -->
<g id="node16" class="node"><title>pl9</title>
<ellipse fill="none" stroke="black" cx="33" cy="-417" rx="18" ry="18"/>
<text text-anchor="middle" x="33" y="-413.3" font-family="Times,serif" font-size="14.00">pl9</text>
</g>
<!-- transition10 -->
<g id="node19" class="node"><title>transition10</title>
<polygon fill="none" stroke="black" points="51,-345.5 15,-345.5 15,-344.5 51,-344.5 51,-345.5"/>
<text text-anchor="middle" x="9.5" y="-349.3" font-family="Times,serif" font-size="14.00">a&#45;</text>
</g>
<!-- pl9&#45;&gt;transition10 -->
<g id="edge17" class="edge"><title>pl9&#45;&gt;transition10</title>
<path fill="none" stroke="black" d="M33,-398.697C33,-378.615 33,-347.987 33,-346.092"/>
</g>
<!-- transition9&#45;&gt;pl9 -->
<g id="edge16" class="edge"><title>transition9&#45;&gt;pl9</title>
<path fill="none" stroke="black" d="M33,-487.949C33,-486.748 33,-464.429 33,-445.321"/>
<polygon fill="black" stroke="black" points="36.5001,-445.191 33,-435.191 29.5001,-445.191 36.5001,-445.191"/>
</g>
<!-- pl10 -->
<g id="node18" class="node"><title>pl10</title>
<ellipse fill="none" stroke="black" cx="37" cy="-273" rx="18" ry="18"/>
<text text-anchor="middle" x="37" y="-269.3" font-family="Times,serif" font-size="14.00">pl10</text>
</g>
<!-- transition12 -->
<g id="node21" class="node"><title>transition12</title>
<polygon fill="none" stroke="black" points="105,-219 69,-219 69,-218 105,-218 105,-219"/>
<text text-anchor="middle" x="63" y="-222.8" font-family="Times,serif" font-size="14.00">x&#45;</text>
</g>
<!-- pl10&#45;&gt;transition12 -->
<g id="edge19" class="edge"><title>pl10&#45;&gt;transition12</title>
<path fill="none" stroke="black" d="M48.8493,-259.44C63.1729,-244.257 85.5481,-220.539 86.9325,-219.072"/>
</g>
<!-- transition10&#45;&gt;pl10 -->
<g id="edge18" class="edge"><title>transition10&#45;&gt;pl10</title>
<path fill="none" stroke="black" d="M33.0029,-343.949C33.0716,-342.748 34.3469,-320.429 35.4388,-301.321"/>
<polygon fill="black" stroke="black" points="38.9414,-301.375 36.0176,-291.191 31.9528,-300.975 38.9414,-301.375"/>
</g>
<!-- pl11 -->
<g id="node20" class="node"><title>pl11</title>
<ellipse fill="none" stroke="black" cx="87" cy="-164" rx="18" ry="18"/>
<text text-anchor="middle" x="87" y="-160.3" font-family="Times,serif" font-size="14.00">pl11</text>
</g>
<!-- transition13 -->
<g id="node23" class="node"><title>transition13</title>
<polygon fill="none" stroke="black" points="105,-110 69,-110 69,-109 105,-109 105,-110"/>
<text text-anchor="middle" x="63" y="-113.8" font-family="Times,serif" font-size="14.00">b&#45;</text>
</g>
<!-- pl11&#45;&gt;transition13 -->
<g id="edge21" class="edge"><title>pl11&#45;&gt;transition13</title>
<path fill="none" stroke="black" d="M87,-145.939C87,-130.929 87,-111.273 87,-110.059"/>
</g>
<!-- transition12&#45;&gt;pl11 -->
<g id="edge20" class="edge"><title>transition12&#45;&gt;pl11</title>
<path fill="none" stroke="black" d="M87,-217.848C87,-216.368 87,-204.319 87,-192.1"/>
<polygon fill="black" stroke="black" points="90.5001,-192.025 87,-182.025 83.5001,-192.025 90.5001,-192.025"/>
</g>
<!-- pl12 -->
<g id="node22" class="node"><title>pl12</title>
<ellipse fill="none" stroke="black" cx="87" cy="-55" rx="18" ry="18"/>
<text text-anchor="middle" x="87" y="-51.3" font-family="Times,serif" font-size="14.00">pl12</text>
</g>
<!-- transition14 -->
<g id="node24" class="node"><title>transition14</title>
<polygon fill="none" stroke="black" points="128,-1 92,-1 92,-0 128,-0 128,-1"/>
<text text-anchor="middle" x="84.5" y="-4.8" font-family="Times,serif" font-size="14.00">a+</text>
</g>
<!-- pl12&#45;&gt;transition14 -->
<g id="edge23" class="edge"><title>pl12&#45;&gt;transition14</title>
<path fill="none" stroke="black" d="M93.9008,-38.0983C100.464,-22.9746 109.42,-2.33719 109.973,-1.06211"/>
</g>
<!-- transition13&#45;&gt;pl12 -->
<g id="edge22" class="edge"><title>transition13&#45;&gt;pl12</title>
<path fill="none" stroke="black" d="M87,-108.848C87,-107.368 87,-95.3194 87,-83.1004"/>
<polygon fill="black" stroke="black" points="90.5001,-83.0247 87,-73.0247 83.5001,-83.0248 90.5001,-83.0247"/>
</g>
<!-- transition14&#45;&gt;pl1 -->
<g id="edge24" class="edge"><title>transition14&#45;&gt;pl1</title>
<path fill="none" stroke="black" d="M110.017,-1.04289C110.713,-2.83896 133,-60.6904 133,-109 133,-1286 133,-1286 133,-1286 133,-1314.25 125.243,-1345.77 118.738,-1367.24"/>
<polygon fill="black" stroke="black" points="115.358,-1366.33 115.685,-1376.92 122.033,-1368.43 115.358,-1366.33"/>
</g>
<!-- transition11 -->
<g id="node27" class="node"><title>transition11</title>
<polygon fill="none" stroke="black" points="105,-417.5 69,-417.5 69,-416.5 105,-416.5 105,-417.5"/>
<text text-anchor="middle" x="63" y="-421.3" font-family="Times,serif" font-size="14.00">d&#45;</text>
</g>
<!-- pl13&#45;&gt;transition11 -->
<g id="edge26" class="edge"><title>pl13&#45;&gt;transition11</title>
<path fill="none" stroke="black" d="M87,-470.697C87,-450.615 87,-419.987 87,-418.092"/>
</g>
<!-- pl14 -->
<g id="node26" class="node"><title>pl14</title>
<ellipse fill="none" stroke="black" cx="87" cy="-345" rx="18" ry="18"/>
<text text-anchor="middle" x="87" y="-341.3" font-family="Times,serif" font-size="14.00">pl14</text>
</g>
<!-- pl14&#45;&gt;transition12 -->
<g id="edge28" class="edge"><title>pl14&#45;&gt;transition12</title>
<path fill="none" stroke="black" d="M87,-326.881C87,-293.182 87,-221.292 87,-219.054"/>
</g>
<!-- transition11&#45;&gt;pl14 -->
<g id="edge27" class="edge"><title>transition11&#45;&gt;pl14</title>
<path fill="none" stroke="black" d="M87,-415.949C87,-414.748 87,-392.429 87,-373.321"/>
<polygon fill="black" stroke="black" points="90.5001,-373.191 87,-363.191 83.5001,-373.191 90.5001,-373.191"/>
</g>
<!-- transition4 -->
<g id="node30" class="node"><title>transition4</title>
<polygon fill="none" stroke="black" points="105,-1141.5 69,-1141.5 69,-1140.5 105,-1140.5 105,-1141.5"/>
<text text-anchor="middle" x="61.5" y="-1145.3" font-family="Times,serif" font-size="14.00">d+</text>
</g>
<!-- pl15&#45;&gt;transition4 -->
<g id="edge30" class="edge"><title>pl15&#45;&gt;transition4</title>
<path fill="none" stroke="black" d="M87,-1194.7C87,-1174.62 87,-1143.99 87,-1142.09"/>
</g>
<!-- pl16 -->
<g id="node29" class="node"><title>pl16</title>
<ellipse fill="none" stroke="black" cx="87" cy="-1069" rx="18" ry="18"/>
<text text-anchor="middle" x="87" y="-1065.3" font-family="Times,serif" font-size="14.00">pl16</text>
</g>
<!-- pl16&#45;&gt;transition5 -->
<g id="edge32" class="edge"><title>pl16&#45;&gt;transition5</title>
<path fill="none" stroke="black" d="M84.8527,-1050.92C82.0696,-1032.48 76.1871,-1002.58 65,-979 56.6963,-961.495 39.1422,-944.121 38.0531,-943.052"/>
</g>
<!-- transition4&#45;&gt;pl16 -->
<g id="edge31" class="edge"><title>transition4&#45;&gt;pl16</title>
<path fill="none" stroke="black" d="M87,-1139.95C87,-1138.75 87,-1116.43 87,-1097.32"/>
<polygon fill="black" stroke="black" points="90.5001,-1097.19 87,-1087.19 83.5001,-1097.19 90.5001,-1097.19"/>
</g>
</g>
</svg>
