<?xml version="1.0" encoding="UTF-8" standalone="no"?>
<!DOCTYPE svg PUBLIC "-//W3C//DTD SVG 1.1//EN"
 "http://www.w3.org/Graphics/SVG/1.1/DTD/svg11.dtd">
<!-- Generated by graphviz version 2.38.0 (20140413.2041)
 -->
<!-- Title: %3 Pages: 1 -->
<svg width="317pt" height="1788pt"
 viewBox="0.00 0.00 317.00 1788.00" xmlns="http://www.w3.org/2000/svg" xmlns:xlink="http://www.w3.org/1999/xlink">
<g id="graph0" class="graph" transform="scale(1 1) rotate(0) translate(4 1784)">
<title>%3</title>
<polygon fill="white" stroke="none" points="-4,4 -4,-1784 313,-1784 313,4 -4,4"/>
<!-- pl1 -->
<g id="node1" class="node"><title>pl1</title>
<ellipse fill="none" stroke="black" cx="267" cy="-1762" rx="18" ry="18"/>
<text text-anchor="middle" x="267" y="-1758.3" font-family="Times,serif" font-size="14.00">pl1</text>
</g>
<!-- transition11 -->
<g id="node3" class="node"><title>transition11</title>
<polygon fill="none" stroke="black" points="243,-1708 207,-1708 207,-1707 243,-1707 243,-1708"/>
<text text-anchor="middle" x="188" y="-1711.8" font-family="Times,serif" font-size="14.00">prnot+</text>
</g>
<!-- pl1&#45;&gt;transition11 -->
<g id="edge1" class="edge"><title>pl1&#45;&gt;transition11</title>
<path fill="none" stroke="black" d="M256.184,-1747.35C244.129,-1732.14 226.165,-1709.47 225.054,-1708.07"/>
</g>
<!-- pl2 -->
<g id="node2" class="node"><title>pl2</title>
<ellipse fill="none" stroke="black" cx="225" cy="-1653" rx="18" ry="18"/>
<text text-anchor="middle" x="225" y="-1649.3" font-family="Times,serif" font-size="14.00">pl2</text>
</g>
<!-- transition22 -->
<g id="node5" class="node"><title>transition22</title>
<polygon fill="none" stroke="black" points="216,-1599 180,-1599 180,-1598 216,-1598 216,-1599"/>
<text text-anchor="middle" x="155.5" y="-1602.8" font-family="Times,serif" font-size="14.00">prnotin+</text>
</g>
<!-- pl2&#45;&gt;transition22 -->
<g id="edge3" class="edge"><title>pl2&#45;&gt;transition22</title>
<path fill="none" stroke="black" d="M217.19,-1636.67C209.466,-1621.51 198.698,-1600.37 198.032,-1599.06"/>
</g>
<!-- transition11&#45;&gt;pl2 -->
<g id="edge2" class="edge"><title>transition11&#45;&gt;pl2</title>
<path fill="none" stroke="black" d="M225,-1706.85C225,-1705.37 225,-1693.32 225,-1681.1"/>
<polygon fill="black" stroke="black" points="228.5,-1681.02 225,-1671.02 221.5,-1681.02 228.5,-1681.02"/>
</g>
<!-- pl30 -->
<g id="node34" class="node"><title>pl30</title>
<ellipse fill="none" stroke="black" cx="171" cy="-1653" rx="18" ry="18"/>
<text text-anchor="middle" x="171" y="-1649.3" font-family="Times,serif" font-size="14.00">pl30</text>
</g>
<!-- transition11&#45;&gt;pl30 -->
<g id="edge34" class="edge"><title>transition11&#45;&gt;pl30</title>
<path fill="none" stroke="black" d="M224.845,-1706.85C223.012,-1705.05 205.262,-1687.63 190.635,-1673.27"/>
<polygon fill="black" stroke="black" points="192.96,-1670.65 183.372,-1666.14 188.057,-1675.65 192.96,-1670.65"/>
</g>
<!-- pl3 -->
<g id="node4" class="node"><title>pl3</title>
<ellipse fill="none" stroke="black" cx="198" cy="-1544" rx="18" ry="18"/>
<text text-anchor="middle" x="198" y="-1540.3" font-family="Times,serif" font-size="14.00">pl3</text>
</g>
<!-- transition1 -->
<g id="node7" class="node"><title>transition1</title>
<polygon fill="none" stroke="black" points="216,-1490 180,-1490 180,-1489 216,-1489 216,-1490"/>
<text text-anchor="middle" x="164" y="-1493.8" font-family="Times,serif" font-size="14.00">wen+</text>
</g>
<!-- pl3&#45;&gt;transition1 -->
<g id="edge5" class="edge"><title>pl3&#45;&gt;transition1</title>
<path fill="none" stroke="black" d="M198,-1525.94C198,-1510.93 198,-1491.27 198,-1490.06"/>
</g>
<!-- transition22&#45;&gt;pl3 -->
<g id="edge4" class="edge"><title>transition22&#45;&gt;pl3</title>
<path fill="none" stroke="black" d="M198,-1597.85C198,-1596.37 198,-1584.32 198,-1572.1"/>
<polygon fill="black" stroke="black" points="201.5,-1572.02 198,-1562.02 194.5,-1572.02 201.5,-1572.02"/>
</g>
<!-- pl4 -->
<g id="node6" class="node"><title>pl4</title>
<ellipse fill="none" stroke="black" cx="225" cy="-1435" rx="18" ry="18"/>
<text text-anchor="middle" x="225" y="-1431.3" font-family="Times,serif" font-size="14.00">pl4</text>
</g>
<!-- transition2 -->
<g id="node9" class="node"><title>transition2</title>
<polygon fill="none" stroke="black" points="243,-1381 207,-1381 207,-1380 243,-1380 243,-1381"/>
<text text-anchor="middle" x="173.5" y="-1384.8" font-family="Times,serif" font-size="14.00">precharged&#45;</text>
</g>
<!-- pl4&#45;&gt;transition2 -->
<g id="edge7" class="edge"><title>pl4&#45;&gt;transition2</title>
<path fill="none" stroke="black" d="M225,-1416.94C225,-1401.93 225,-1382.27 225,-1381.06"/>
</g>
<!-- transition1&#45;&gt;pl4 -->
<g id="edge6" class="edge"><title>transition1&#45;&gt;pl4</title>
<path fill="none" stroke="black" d="M198.077,-1488.85C198.884,-1487.26 205.85,-1473.59 212.494,-1460.55"/>
<polygon fill="black" stroke="black" points="215.761,-1461.85 217.181,-1451.35 209.523,-1458.67 215.761,-1461.85"/>
</g>
<!-- pl27 -->
<g id="node50" class="node"><title>pl27</title>
<ellipse fill="none" stroke="black" cx="171" cy="-1435" rx="18" ry="18"/>
<text text-anchor="middle" x="171" y="-1431.3" font-family="Times,serif" font-size="14.00">pl27</text>
</g>
<!-- transition1&#45;&gt;pl27 -->
<g id="edge57" class="edge"><title>transition1&#45;&gt;pl27</title>
<path fill="none" stroke="black" d="M197.923,-1488.85C197.116,-1487.26 190.15,-1473.59 183.506,-1460.55"/>
<polygon fill="black" stroke="black" points="186.477,-1458.67 178.819,-1451.35 180.239,-1461.85 186.477,-1458.67"/>
</g>
<!-- pl5 -->
<g id="node8" class="node"><title>pl5</title>
<ellipse fill="none" stroke="black" cx="225" cy="-1326" rx="18" ry="18"/>
<text text-anchor="middle" x="225" y="-1322.3" font-family="Times,serif" font-size="14.00">pl5</text>
</g>
<!-- transition21 -->
<g id="node11" class="node"><title>transition21</title>
<polygon fill="none" stroke="black" points="189,-1272 153,-1272 153,-1271 189,-1271 189,-1272"/>
<text text-anchor="middle" x="139" y="-1275.8" font-family="Times,serif" font-size="14.00">ack+</text>
</g>
<!-- pl5&#45;&gt;transition21 -->
<g id="edge9" class="edge"><title>pl5&#45;&gt;transition21</title>
<path fill="none" stroke="black" d="M212.476,-1312.71C197.022,-1297.54 172.586,-1273.56 171.074,-1272.07"/>
</g>
<!-- transition2&#45;&gt;pl5 -->
<g id="edge8" class="edge"><title>transition2&#45;&gt;pl5</title>
<path fill="none" stroke="black" d="M225,-1379.85C225,-1378.37 225,-1366.32 225,-1354.1"/>
<polygon fill="black" stroke="black" points="228.5,-1354.02 225,-1344.02 221.5,-1354.02 228.5,-1354.02"/>
</g>
<!-- pl6 -->
<g id="node10" class="node"><title>pl6</title>
<ellipse fill="none" stroke="black" cx="171" cy="-1217" rx="18" ry="18"/>
<text text-anchor="middle" x="171" y="-1213.3" font-family="Times,serif" font-size="14.00">pl6</text>
</g>
<!-- transition3 -->
<g id="node13" class="node"><title>transition3</title>
<polygon fill="none" stroke="black" points="189,-1163 153,-1163 153,-1162 189,-1162 189,-1163"/>
<text text-anchor="middle" x="141.5" y="-1166.8" font-family="Times,serif" font-size="14.00">req&#45;</text>
</g>
<!-- pl6&#45;&gt;transition3 -->
<g id="edge11" class="edge"><title>pl6&#45;&gt;transition3</title>
<path fill="none" stroke="black" d="M171,-1198.94C171,-1183.93 171,-1164.27 171,-1163.06"/>
</g>
<!-- transition21&#45;&gt;pl6 -->
<g id="edge10" class="edge"><title>transition21&#45;&gt;pl6</title>
<path fill="none" stroke="black" d="M171,-1270.85C171,-1269.37 171,-1257.32 171,-1245.1"/>
<polygon fill="black" stroke="black" points="174.5,-1245.02 171,-1235.02 167.5,-1245.02 174.5,-1245.02"/>
</g>
<!-- pl7 -->
<g id="node12" class="node"><title>pl7</title>
<ellipse fill="none" stroke="black" cx="171" cy="-1108" rx="18" ry="18"/>
<text text-anchor="middle" x="171" y="-1104.3" font-family="Times,serif" font-size="14.00">pl7</text>
</g>
<!-- transition4 -->
<g id="node15" class="node"><title>transition4</title>
<polygon fill="none" stroke="black" points="189,-1054 153,-1054 153,-1053 189,-1053 189,-1054"/>
<text text-anchor="middle" x="139" y="-1057.8" font-family="Times,serif" font-size="14.00">wen&#45;</text>
</g>
<!-- pl7&#45;&gt;transition4 -->
<g id="edge13" class="edge"><title>pl7&#45;&gt;transition4</title>
<path fill="none" stroke="black" d="M171,-1089.94C171,-1074.93 171,-1055.27 171,-1054.06"/>
</g>
<!-- transition3&#45;&gt;pl7 -->
<g id="edge12" class="edge"><title>transition3&#45;&gt;pl7</title>
<path fill="none" stroke="black" d="M171,-1161.85C171,-1160.37 171,-1148.32 171,-1136.1"/>
<polygon fill="black" stroke="black" points="174.5,-1136.02 171,-1126.02 167.5,-1136.02 174.5,-1136.02"/>
</g>
<!-- pl25 -->
<g id="node47" class="node"><title>pl25</title>
<ellipse fill="none" stroke="black" cx="117" cy="-1108" rx="18" ry="18"/>
<text text-anchor="middle" x="117" y="-1104.3" font-family="Times,serif" font-size="14.00">pl25</text>
</g>
<!-- transition3&#45;&gt;pl25 -->
<g id="edge53" class="edge"><title>transition3&#45;&gt;pl25</title>
<path fill="none" stroke="black" d="M170.845,-1161.85C169.012,-1160.05 151.262,-1142.63 136.635,-1128.27"/>
<polygon fill="black" stroke="black" points="138.96,-1125.65 129.372,-1121.14 134.057,-1130.65 138.96,-1125.65"/>
</g>
<!-- pl8 -->
<g id="node14" class="node"><title>pl8</title>
<ellipse fill="none" stroke="black" cx="171" cy="-999" rx="18" ry="18"/>
<text text-anchor="middle" x="171" y="-995.3" font-family="Times,serif" font-size="14.00">pl8</text>
</g>
<!-- transition19 -->
<g id="node17" class="node"><title>transition19</title>
<polygon fill="none" stroke="black" points="135,-945 99,-945 99,-944 135,-944 135,-945"/>
<text text-anchor="middle" x="79.5" y="-948.8" font-family="Times,serif" font-size="14.00">wenin&#45;</text>
</g>
<!-- pl8&#45;&gt;transition19 -->
<g id="edge15" class="edge"><title>pl8&#45;&gt;transition19</title>
<path fill="none" stroke="black" d="M158.476,-985.708C143.022,-970.54 118.586,-946.556 117.074,-945.072"/>
</g>
<!-- transition4&#45;&gt;pl8 -->
<g id="edge14" class="edge"><title>transition4&#45;&gt;pl8</title>
<path fill="none" stroke="black" d="M171,-1052.85C171,-1051.37 171,-1039.32 171,-1027.1"/>
<polygon fill="black" stroke="black" points="174.5,-1027.02 171,-1017.02 167.5,-1027.02 174.5,-1027.02"/>
</g>
<!-- pl9 -->
<g id="node16" class="node"><title>pl9</title>
<ellipse fill="none" stroke="black" cx="117" cy="-890" rx="18" ry="18"/>
<text text-anchor="middle" x="117" y="-886.3" font-family="Times,serif" font-size="14.00">pl9</text>
</g>
<!-- transition5 -->
<g id="node19" class="node"><title>transition5</title>
<polygon fill="none" stroke="black" points="135,-836 99,-836 99,-835 135,-835 135,-836"/>
<text text-anchor="middle" x="49.5" y="-839.8" font-family="Times,serif" font-size="14.00">y0_ramreadsbuf+</text>
</g>
<!-- pl9&#45;&gt;transition5 -->
<g id="edge17" class="edge"><title>pl9&#45;&gt;transition5</title>
<path fill="none" stroke="black" d="M117,-871.939C117,-856.929 117,-837.273 117,-836.059"/>
</g>
<!-- transition19&#45;&gt;pl9 -->
<g id="edge16" class="edge"><title>transition19&#45;&gt;pl9</title>
<path fill="none" stroke="black" d="M117,-943.848C117,-942.368 117,-930.319 117,-918.1"/>
<polygon fill="black" stroke="black" points="120.5,-918.025 117,-908.025 113.5,-918.025 120.5,-918.025"/>
</g>
<!-- pl10 -->
<g id="node18" class="node"><title>pl10</title>
<ellipse fill="none" stroke="black" cx="117" cy="-781" rx="18" ry="18"/>
<text text-anchor="middle" x="117" y="-777.3" font-family="Times,serif" font-size="14.00">pl10</text>
</g>
<!-- transition6 -->
<g id="node21" class="node"><title>transition6</title>
<polygon fill="none" stroke="black" points="135,-727 99,-727 99,-726 135,-726 135,-727"/>
<text text-anchor="middle" x="81.5" y="-730.8" font-family="Times,serif" font-size="14.00">wsld+</text>
</g>
<!-- pl10&#45;&gt;transition6 -->
<g id="edge19" class="edge"><title>pl10&#45;&gt;transition6</title>
<path fill="none" stroke="black" d="M117,-762.939C117,-747.929 117,-728.273 117,-727.059"/>
</g>
<!-- transition5&#45;&gt;pl10 -->
<g id="edge18" class="edge"><title>transition5&#45;&gt;pl10</title>
<path fill="none" stroke="black" d="M117,-834.848C117,-833.368 117,-821.319 117,-809.1"/>
<polygon fill="black" stroke="black" points="120.5,-809.025 117,-799.025 113.5,-809.025 120.5,-809.025"/>
</g>
<!-- pl21 -->
<g id="node41" class="node"><title>pl21</title>
<ellipse fill="none" stroke="black" cx="171" cy="-781" rx="18" ry="18"/>
<text text-anchor="middle" x="171" y="-777.3" font-family="Times,serif" font-size="14.00">pl21</text>
</g>
<!-- transition5&#45;&gt;pl21 -->
<g id="edge45" class="edge"><title>transition5&#45;&gt;pl21</title>
<path fill="none" stroke="black" d="M117.155,-834.848C118.988,-833.049 136.738,-815.628 151.365,-801.272"/>
<polygon fill="black" stroke="black" points="153.943,-803.645 158.628,-794.143 149.04,-798.649 153.943,-803.645"/>
</g>
<!-- pl11 -->
<g id="node20" class="node"><title>pl11</title>
<ellipse fill="none" stroke="black" cx="63" cy="-672" rx="18" ry="18"/>
<text text-anchor="middle" x="63" y="-668.3" font-family="Times,serif" font-size="14.00">pl11</text>
</g>
<!-- transition7 -->
<g id="node23" class="node"><title>transition7</title>
<polygon fill="none" stroke="black" points="108,-618 72,-618 72,-617 108,-617 108,-618"/>
<text text-anchor="middle" x="49" y="-621.8" font-family="Times,serif" font-size="14.00">wsldin+</text>
</g>
<!-- pl11&#45;&gt;transition7 -->
<g id="edge21" class="edge"><title>pl11&#45;&gt;transition7</title>
<path fill="none" stroke="black" d="M70.8095,-655.67C78.5345,-640.506 89.3021,-619.37 89.9676,-618.064"/>
</g>
<!-- transition6&#45;&gt;pl11 -->
<g id="edge20" class="edge"><title>transition6&#45;&gt;pl11</title>
<path fill="none" stroke="black" d="M116.845,-725.848C115.012,-724.049 97.2624,-706.628 82.6353,-692.272"/>
<polygon fill="black" stroke="black" points="84.9603,-689.649 75.3718,-685.143 80.057,-694.645 84.9603,-689.649"/>
</g>
<!-- pl20 -->
<g id="node39" class="node"><title>pl20</title>
<ellipse fill="none" stroke="black" cx="117" cy="-672" rx="18" ry="18"/>
<text text-anchor="middle" x="117" y="-668.3" font-family="Times,serif" font-size="14.00">pl20</text>
</g>
<!-- transition6&#45;&gt;pl20 -->
<g id="edge42" class="edge"><title>transition6&#45;&gt;pl20</title>
<path fill="none" stroke="black" d="M117,-725.848C117,-724.368 117,-712.319 117,-700.1"/>
<polygon fill="black" stroke="black" points="120.5,-700.025 117,-690.025 113.5,-700.025 120.5,-700.025"/>
</g>
<!-- pl12 -->
<g id="node22" class="node"><title>pl12</title>
<ellipse fill="none" stroke="black" cx="111" cy="-563" rx="18" ry="18"/>
<text text-anchor="middle" x="111" y="-559.3" font-family="Times,serif" font-size="14.00">pl12</text>
</g>
<!-- transition16 -->
<g id="node25" class="node"><title>transition16</title>
<polygon fill="none" stroke="black" points="206,-509 170,-509 170,-508 206,-508 206,-509"/>
<text text-anchor="middle" x="122" y="-512.8" font-family="Times,serif" font-size="14.00">y0_ramreadsbuf&#45;</text>
</g>
<!-- pl12&#45;&gt;transition16 -->
<g id="edge23" class="edge"><title>pl12&#45;&gt;transition16</title>
<path fill="none" stroke="black" d="M125.483,-552.031C147.091,-537.158 185.504,-510.718 187.884,-509.08"/>
</g>
<!-- transition7&#45;&gt;pl12 -->
<g id="edge22" class="edge"><title>transition7&#45;&gt;pl12</title>
<path fill="none" stroke="black" d="M90.0602,-616.848C90.6737,-615.3 95.8702,-602.185 100.932,-589.409"/>
<polygon fill="black" stroke="black" points="104.269,-590.488 104.699,-579.902 97.7617,-587.909 104.269,-590.488"/>
</g>
<!-- pl13 -->
<g id="node24" class="node"><title>pl13</title>
<ellipse fill="none" stroke="black" cx="188" cy="-454" rx="18" ry="18"/>
<text text-anchor="middle" x="188" y="-450.3" font-family="Times,serif" font-size="14.00">pl13</text>
</g>
<!-- transition8 -->
<g id="node27" class="node"><title>transition8</title>
<polygon fill="none" stroke="black" points="206,-400 170,-400 170,-399 206,-399 206,-400"/>
<text text-anchor="middle" x="154" y="-403.8" font-family="Times,serif" font-size="14.00">wsld&#45;</text>
</g>
<!-- pl13&#45;&gt;transition8 -->
<g id="edge25" class="edge"><title>pl13&#45;&gt;transition8</title>
<path fill="none" stroke="black" d="M188,-435.939C188,-420.929 188,-401.273 188,-400.059"/>
</g>
<!-- transition16&#45;&gt;pl13 -->
<g id="edge24" class="edge"><title>transition16&#45;&gt;pl13</title>
<path fill="none" stroke="black" d="M188,-507.848C188,-506.368 188,-494.319 188,-482.1"/>
<polygon fill="black" stroke="black" points="191.5,-482.025 188,-472.025 184.5,-482.025 191.5,-482.025"/>
</g>
<!-- pl14 -->
<g id="node26" class="node"><title>pl14</title>
<ellipse fill="none" stroke="black" cx="188" cy="-345" rx="18" ry="18"/>
<text text-anchor="middle" x="188" y="-341.3" font-family="Times,serif" font-size="14.00">pl14</text>
</g>
<!-- transition9 -->
<g id="node29" class="node"><title>transition9</title>
<polygon fill="none" stroke="black" points="206,-291 170,-291 170,-290 206,-290 206,-291"/>
<text text-anchor="middle" x="148.5" y="-294.8" font-family="Times,serif" font-size="14.00">wsldin&#45;</text>
</g>
<!-- pl14&#45;&gt;transition9 -->
<g id="edge27" class="edge"><title>pl14&#45;&gt;transition9</title>
<path fill="none" stroke="black" d="M188,-326.939C188,-311.929 188,-292.273 188,-291.059"/>
</g>
<!-- transition8&#45;&gt;pl14 -->
<g id="edge26" class="edge"><title>transition8&#45;&gt;pl14</title>
<path fill="none" stroke="black" d="M188,-398.848C188,-397.368 188,-385.319 188,-373.1"/>
<polygon fill="black" stroke="black" points="191.5,-373.025 188,-363.025 184.5,-373.025 191.5,-373.025"/>
</g>
<!-- pl15 -->
<g id="node28" class="node"><title>pl15</title>
<ellipse fill="none" stroke="black" cx="153" cy="-236" rx="18" ry="18"/>
<text text-anchor="middle" x="153" y="-232.3" font-family="Times,serif" font-size="14.00">pl15</text>
</g>
<!-- transition10 -->
<g id="node31" class="node"><title>transition10</title>
<polygon fill="none" stroke="black" points="171,-182 135,-182 135,-181 171,-181 171,-182"/>
<text text-anchor="middle" x="122.5" y="-185.8" font-family="Times,serif" font-size="14.00">ack&#45;</text>
</g>
<!-- pl15&#45;&gt;transition10 -->
<g id="edge29" class="edge"><title>pl15&#45;&gt;transition10</title>
<path fill="none" stroke="black" d="M153,-217.939C153,-202.929 153,-183.273 153,-182.059"/>
</g>
<!-- transition9&#45;&gt;pl15 -->
<g id="edge28" class="edge"><title>transition9&#45;&gt;pl15</title>
<path fill="none" stroke="black" d="M187.9,-289.848C186.814,-288.204 177.121,-273.526 168.225,-260.055"/>
<polygon fill="black" stroke="black" points="171.024,-257.942 162.593,-251.526 165.183,-261.8 171.024,-257.942"/>
</g>
<!-- pl18 -->
<g id="node36" class="node"><title>pl18</title>
<ellipse fill="none" stroke="black" cx="207" cy="-236" rx="18" ry="18"/>
<text text-anchor="middle" x="207" y="-232.3" font-family="Times,serif" font-size="14.00">pl18</text>
</g>
<!-- transition9&#45;&gt;pl18 -->
<g id="edge38" class="edge"><title>transition9&#45;&gt;pl18</title>
<path fill="none" stroke="black" d="M188.055,-289.848C188.606,-288.309 193.253,-275.348 197.805,-262.648"/>
<polygon fill="black" stroke="black" points="201.119,-263.775 201.199,-253.181 194.53,-261.413 201.119,-263.775"/>
</g>
<!-- pl16 -->
<g id="node30" class="node"><title>pl16</title>
<ellipse fill="none" stroke="black" cx="153" cy="-127" rx="18" ry="18"/>
<text text-anchor="middle" x="153" y="-123.3" font-family="Times,serif" font-size="14.00">pl16</text>
</g>
<!-- transition13 -->
<g id="node33" class="node"><title>transition13</title>
<polygon fill="none" stroke="black" points="198,-73 162,-73 162,-72 198,-72 198,-73"/>
<text text-anchor="middle" x="149" y="-76.8" font-family="Times,serif" font-size="14.00">req+</text>
</g>
<!-- pl16&#45;&gt;transition13 -->
<g id="edge31" class="edge"><title>pl16&#45;&gt;transition13</title>
<path fill="none" stroke="black" d="M160.81,-110.67C168.534,-95.5064 179.302,-74.3699 179.968,-73.0636"/>
</g>
<!-- transition10&#45;&gt;pl16 -->
<g id="edge30" class="edge"><title>transition10&#45;&gt;pl16</title>
<path fill="none" stroke="black" d="M153,-180.848C153,-179.368 153,-167.319 153,-155.1"/>
<polygon fill="black" stroke="black" points="156.5,-155.025 153,-145.025 149.5,-155.025 156.5,-155.025"/>
</g>
<!-- pl17 -->
<g id="node32" class="node"><title>pl17</title>
<ellipse fill="none" stroke="black" cx="85" cy="-18" rx="18" ry="18"/>
<text text-anchor="middle" x="85" y="-14.3" font-family="Times,serif" font-size="14.00">pl17</text>
</g>
<!-- pl17&#45;&gt;transition11 -->
<g id="edge33" class="edge"><title>pl17&#45;&gt;transition11</title>
<path fill="none" stroke="black" d="M71.5654,-30.314C51.7481,-48.3513 17,-85.7211 17,-126 17,-1599 17,-1599 17,-1599 17,-1701.54 218.551,-1706.86 224.849,-1707"/>
</g>
<!-- transition13&#45;&gt;pl17 -->
<g id="edge32" class="edge"><title>transition13&#45;&gt;pl17</title>
<path fill="none" stroke="black" d="M179.931,-71.9616C178.031,-70.9017 137.237,-48.1426 109.749,-32.8076"/>
<polygon fill="black" stroke="black" points="111.105,-29.5563 100.667,-27.7407 107.695,-35.6693 111.105,-29.5563"/>
</g>
<!-- pl29 -->
<g id="node35" class="node"><title>pl29</title>
<ellipse fill="none" stroke="black" cx="207" cy="-18" rx="18" ry="18"/>
<text text-anchor="middle" x="207" y="-14.3" font-family="Times,serif" font-size="14.00">pl29</text>
</g>
<!-- transition13&#45;&gt;pl29 -->
<g id="edge36" class="edge"><title>transition13&#45;&gt;pl29</title>
<path fill="none" stroke="black" d="M180.077,-71.848C180.884,-70.265 187.85,-56.5906 194.494,-43.5496"/>
<polygon fill="black" stroke="black" points="197.761,-44.8468 199.181,-34.3476 191.523,-41.6692 197.761,-44.8468"/>
</g>
<!-- pl30&#45;&gt;transition22 -->
<g id="edge35" class="edge"><title>pl30&#45;&gt;transition22</title>
<path fill="none" stroke="black" d="M178.81,-1636.67C186.534,-1621.51 197.302,-1600.37 197.968,-1599.06"/>
</g>
<!-- pl29&#45;&gt;transition11 -->
<g id="edge37" class="edge"><title>pl29&#45;&gt;transition11</title>
<path fill="none" stroke="black" d="M219.951,-30.7778C238.652,-49.1434 271,-86.6047 271,-126 271,-1599 271,-1599 271,-1599 271,-1632.1 266.418,-1641.21 252,-1671 243.559,-1688.44 226.134,-1705.88 225.053,-1706.95"/>
</g>
<!-- transition12 -->
<g id="node38" class="node"><title>transition12</title>
<polygon fill="none" stroke="black" points="225,-182 189,-182 189,-181 225,-181 225,-182"/>
<text text-anchor="middle" x="170.5" y="-185.8" font-family="Times,serif" font-size="14.00">wsen+</text>
</g>
<!-- pl18&#45;&gt;transition12 -->
<g id="edge39" class="edge"><title>pl18&#45;&gt;transition12</title>
<path fill="none" stroke="black" d="M207,-217.939C207,-202.929 207,-183.273 207,-182.059"/>
</g>
<!-- pl19 -->
<g id="node37" class="node"><title>pl19</title>
<ellipse fill="none" stroke="black" cx="207" cy="-127" rx="18" ry="18"/>
<text text-anchor="middle" x="207" y="-123.3" font-family="Times,serif" font-size="14.00">pl19</text>
</g>
<!-- pl19&#45;&gt;transition13 -->
<g id="edge41" class="edge"><title>pl19&#45;&gt;transition13</title>
<path fill="none" stroke="black" d="M199.19,-110.67C191.466,-95.5064 180.698,-74.3699 180.032,-73.0636"/>
</g>
<!-- transition12&#45;&gt;pl19 -->
<g id="edge40" class="edge"><title>transition12&#45;&gt;pl19</title>
<path fill="none" stroke="black" d="M207,-180.848C207,-179.368 207,-167.319 207,-155.1"/>
<polygon fill="black" stroke="black" points="210.5,-155.025 207,-145.025 203.5,-155.025 210.5,-155.025"/>
</g>
<!-- transition17 -->
<g id="node40" class="node"><title>transition17</title>
<polygon fill="none" stroke="black" points="189,-618 153,-618 153,-617 189,-617 189,-618"/>
<text text-anchor="middle" x="117.5" y="-621.8" font-family="Times,serif" font-size="14.00">precharged+</text>
</g>
<!-- pl20&#45;&gt;transition17 -->
<g id="edge43" class="edge"><title>pl20&#45;&gt;transition17</title>
<path fill="none" stroke="black" d="M129.524,-658.708C144.978,-643.54 169.414,-619.556 170.926,-618.072"/>
</g>
<!-- transition17&#45;&gt;pl1 -->
<g id="edge44" class="edge"><title>transition17&#45;&gt;pl1</title>
<path fill="none" stroke="black" d="M171.1,-618.022C175.279,-618.953 309,-649.334 309,-726 309,-1654 309,-1654 309,-1654 309,-1684.46 294.071,-1716.63 282.015,-1737.65"/>
<polygon fill="black" stroke="black" points="278.866,-1736.09 276.741,-1746.47 284.875,-1739.68 278.866,-1736.09"/>
</g>
<!-- transition14 -->
<g id="node43" class="node"><title>transition14</title>
<polygon fill="none" stroke="black" points="189,-727 153,-727 153,-726 189,-726 189,-727"/>
<text text-anchor="middle" x="135.5" y="-730.8" font-family="Times,serif" font-size="14.00">prnot&#45;</text>
</g>
<!-- pl21&#45;&gt;transition14 -->
<g id="edge46" class="edge"><title>pl21&#45;&gt;transition14</title>
<path fill="none" stroke="black" d="M171,-762.939C171,-747.929 171,-728.273 171,-727.059"/>
</g>
<!-- pl22 -->
<g id="node42" class="node"><title>pl22</title>
<ellipse fill="none" stroke="black" cx="225" cy="-672" rx="18" ry="18"/>
<text text-anchor="middle" x="225" y="-668.3" font-family="Times,serif" font-size="14.00">pl22</text>
</g>
<!-- transition15 -->
<g id="node45" class="node"><title>transition15</title>
<polygon fill="none" stroke="black" points="243,-618 207,-618 207,-617 243,-617 243,-618"/>
<text text-anchor="middle" x="184" y="-621.8" font-family="Times,serif" font-size="14.00">prnotin&#45;</text>
</g>
<!-- pl22&#45;&gt;transition15 -->
<g id="edge48" class="edge"><title>pl22&#45;&gt;transition15</title>
<path fill="none" stroke="black" d="M225,-653.939C225,-638.929 225,-619.273 225,-618.059"/>
</g>
<!-- transition14&#45;&gt;pl22 -->
<g id="edge47" class="edge"><title>transition14&#45;&gt;pl22</title>
<path fill="none" stroke="black" d="M171.155,-725.848C172.988,-724.049 190.738,-706.628 205.365,-692.272"/>
<polygon fill="black" stroke="black" points="207.943,-694.645 212.628,-685.143 203.04,-689.649 207.943,-694.645"/>
</g>
<!-- pl24 -->
<g id="node46" class="node"><title>pl24</title>
<ellipse fill="none" stroke="black" cx="171" cy="-672" rx="18" ry="18"/>
<text text-anchor="middle" x="171" y="-668.3" font-family="Times,serif" font-size="14.00">pl24</text>
</g>
<!-- transition14&#45;&gt;pl24 -->
<g id="edge51" class="edge"><title>transition14&#45;&gt;pl24</title>
<path fill="none" stroke="black" d="M171,-725.848C171,-724.368 171,-712.319 171,-700.1"/>
<polygon fill="black" stroke="black" points="174.5,-700.025 171,-690.025 167.5,-700.025 174.5,-700.025"/>
</g>
<!-- pl23 -->
<g id="node44" class="node"><title>pl23</title>
<ellipse fill="none" stroke="black" cx="205" cy="-563" rx="18" ry="18"/>
<text text-anchor="middle" x="205" y="-559.3" font-family="Times,serif" font-size="14.00">pl23</text>
</g>
<!-- pl23&#45;&gt;transition16 -->
<g id="edge50" class="edge"><title>pl23&#45;&gt;transition16</title>
<path fill="none" stroke="black" d="M199.714,-545.521C194.88,-530.449 188.419,-510.305 188.019,-509.061"/>
</g>
<!-- transition15&#45;&gt;pl23 -->
<g id="edge49" class="edge"><title>transition15&#45;&gt;pl23</title>
<path fill="none" stroke="black" d="M224.943,-616.848C224.362,-615.309 219.471,-602.348 214.679,-589.648"/>
<polygon fill="black" stroke="black" points="217.911,-588.301 211.106,-580.181 211.362,-590.772 217.911,-588.301"/>
</g>
<!-- pl24&#45;&gt;transition17 -->
<g id="edge52" class="edge"><title>pl24&#45;&gt;transition17</title>
<path fill="none" stroke="black" d="M171,-653.939C171,-638.929 171,-619.273 171,-618.059"/>
</g>
<!-- transition18 -->
<g id="node49" class="node"><title>transition18</title>
<polygon fill="none" stroke="black" points="135,-1054 99,-1054 99,-1053 135,-1053 135,-1054"/>
<text text-anchor="middle" x="82" y="-1057.8" font-family="Times,serif" font-size="14.00">wsen&#45;</text>
</g>
<!-- pl25&#45;&gt;transition18 -->
<g id="edge54" class="edge"><title>pl25&#45;&gt;transition18</title>
<path fill="none" stroke="black" d="M117,-1089.94C117,-1074.93 117,-1055.27 117,-1054.06"/>
</g>
<!-- pl26 -->
<g id="node48" class="node"><title>pl26</title>
<ellipse fill="none" stroke="black" cx="117" cy="-999" rx="18" ry="18"/>
<text text-anchor="middle" x="117" y="-995.3" font-family="Times,serif" font-size="14.00">pl26</text>
</g>
<!-- pl26&#45;&gt;transition19 -->
<g id="edge56" class="edge"><title>pl26&#45;&gt;transition19</title>
<path fill="none" stroke="black" d="M117,-980.939C117,-965.929 117,-946.273 117,-945.059"/>
</g>
<!-- transition18&#45;&gt;pl26 -->
<g id="edge55" class="edge"><title>transition18&#45;&gt;pl26</title>
<path fill="none" stroke="black" d="M117,-1052.85C117,-1051.37 117,-1039.32 117,-1027.1"/>
<polygon fill="black" stroke="black" points="120.5,-1027.02 117,-1017.02 113.5,-1027.02 120.5,-1027.02"/>
</g>
<!-- transition20 -->
<g id="node52" class="node"><title>transition20</title>
<polygon fill="none" stroke="black" points="189,-1381 153,-1381 153,-1380 189,-1380 189,-1381"/>
<text text-anchor="middle" x="131.5" y="-1368.8" font-family="Times,serif" font-size="14.00">wenin+</text>
</g>
<!-- pl27&#45;&gt;transition20 -->
<g id="edge58" class="edge"><title>pl27&#45;&gt;transition20</title>
<path fill="none" stroke="black" d="M171,-1416.94C171,-1401.93 171,-1382.27 171,-1381.06"/>
</g>
<!-- pl28 -->
<g id="node51" class="node"><title>pl28</title>
<ellipse fill="none" stroke="black" cx="171" cy="-1326" rx="18" ry="18"/>
<text text-anchor="middle" x="171" y="-1322.3" font-family="Times,serif" font-size="14.00">pl28</text>
</g>
<!-- pl28&#45;&gt;transition21 -->
<g id="edge60" class="edge"><title>pl28&#45;&gt;transition21</title>
<path fill="none" stroke="black" d="M171,-1307.94C171,-1292.93 171,-1273.27 171,-1272.06"/>
</g>
<!-- transition20&#45;&gt;pl28 -->
<g id="edge59" class="edge"><title>transition20&#45;&gt;pl28</title>
<path fill="none" stroke="black" d="M171,-1379.85C171,-1378.37 171,-1366.32 171,-1354.1"/>
<polygon fill="black" stroke="black" points="174.5,-1354.02 171,-1344.02 167.5,-1354.02 174.5,-1354.02"/>
</g>
</g>
</svg>
