<?xml version="1.0" encoding="UTF-8" standalone="no"?>
<!DOCTYPE svg PUBLIC "-//W3C//DTD SVG 1.1//EN"
 "http://www.w3.org/Graphics/SVG/1.1/DTD/svg11.dtd">
<!-- Generated by graphviz version 2.38.0 (20140413.2041)
 -->
<!-- Title: %3 Pages: 1 -->
<svg width="295pt" height="1716pt"
 viewBox="0.00 0.00 295.00 1716.00" xmlns="http://www.w3.org/2000/svg" xmlns:xlink="http://www.w3.org/1999/xlink">
<g id="graph0" class="graph" transform="scale(1 1) rotate(0) translate(4 1712)">
<title>%3</title>
<polygon fill="white" stroke="none" points="-4,4 -4,-1712 291,-1712 291,4 -4,4"/>
<!-- PL1 -->
<g id="node1" class="node"><title>PL1</title>
<ellipse fill="none" stroke="black" cx="264" cy="-1690" rx="18" ry="18"/>
<text text-anchor="middle" x="264" y="-1686.3" font-family="Times,serif" font-size="14.00">PL1</text>
</g>
<!-- transition14 -->
<g id="node3" class="node"><title>transition14</title>
<polygon fill="none" stroke="black" points="259,-1636 223,-1636 223,-1635 259,-1635 259,-1636"/>
<text text-anchor="middle" x="204" y="-1639.8" font-family="Times,serif" font-size="14.00">prnot+</text>
</g>
<!-- PL1&#45;&gt;transition14 -->
<g id="edge1" class="edge"><title>PL1&#45;&gt;transition14</title>
<path fill="none" stroke="black" d="M257.099,-1673.1C252.279,-1661.99 246.169,-1647.91 243.044,-1640.71"/>
<polygon fill="none" stroke="black" points="244.623,-1639.95 241.027,-1636.06 241.412,-1641.35 244.623,-1639.95"/>
</g>
<!-- PL3 -->
<g id="node2" class="node"><title>PL3</title>
<ellipse fill="none" stroke="black" cx="199" cy="-1581" rx="18" ry="18"/>
<text text-anchor="middle" x="199" y="-1577.3" font-family="Times,serif" font-size="14.00">PL3</text>
</g>
<!-- transition1 -->
<g id="node5" class="node"><title>transition1</title>
<polygon fill="none" stroke="black" points="217,-1527 181,-1527 181,-1526 217,-1526 217,-1527"/>
<text text-anchor="middle" x="156.5" y="-1530.8" font-family="Times,serif" font-size="14.00">prnotin+</text>
</g>
<!-- PL3&#45;&gt;transition1 -->
<g id="edge3" class="edge"><title>PL3&#45;&gt;transition1</title>
<path fill="none" stroke="black" d="M199,-1562.94C199,-1552.39 199,-1539.53 199,-1532.41"/>
<polygon fill="none" stroke="black" points="200.75,-1532.06 199,-1527.06 197.25,-1532.06 200.75,-1532.06"/>
</g>
<!-- transition14&#45;&gt;PL3 -->
<g id="edge2" class="edge"><title>transition14&#45;&gt;PL3</title>
<path fill="none" stroke="black" d="M240.88,-1634.85C239.541,-1633.16 227.288,-1617.7 216.38,-1603.93"/>
<polygon fill="black" stroke="black" points="218.825,-1601.38 209.871,-1595.72 213.338,-1605.73 218.825,-1601.38"/>
</g>
<!-- PL4 -->
<g id="node4" class="node"><title>PL4</title>
<ellipse fill="none" stroke="black" cx="199" cy="-1472" rx="18" ry="18"/>
<text text-anchor="middle" x="199" y="-1468.3" font-family="Times,serif" font-size="14.00">PL4</text>
</g>
<!-- transition2 -->
<g id="node7" class="node"><title>transition2</title>
<polygon fill="none" stroke="black" points="217,-1418 181,-1418 181,-1417 217,-1417 217,-1418"/>
<text text-anchor="middle" x="165" y="-1421.8" font-family="Times,serif" font-size="14.00">wen+</text>
</g>
<!-- PL4&#45;&gt;transition2 -->
<g id="edge5" class="edge"><title>PL4&#45;&gt;transition2</title>
<path fill="none" stroke="black" d="M199,-1453.94C199,-1443.39 199,-1430.53 199,-1423.41"/>
<polygon fill="none" stroke="black" points="200.75,-1423.06 199,-1418.06 197.25,-1423.06 200.75,-1423.06"/>
</g>
<!-- transition1&#45;&gt;PL4 -->
<g id="edge4" class="edge"><title>transition1&#45;&gt;PL4</title>
<path fill="none" stroke="black" d="M199,-1525.85C199,-1524.37 199,-1512.32 199,-1500.1"/>
<polygon fill="black" stroke="black" points="202.5,-1500.02 199,-1490.02 195.5,-1500.02 202.5,-1500.02"/>
</g>
<!-- PL5 -->
<g id="node6" class="node"><title>PL5</title>
<ellipse fill="none" stroke="black" cx="199" cy="-1363" rx="18" ry="18"/>
<text text-anchor="middle" x="199" y="-1359.3" font-family="Times,serif" font-size="14.00">PL5</text>
</g>
<!-- transition3 -->
<g id="node9" class="node"><title>transition3</title>
<polygon fill="none" stroke="black" points="217,-1309 181,-1309 181,-1308 217,-1308 217,-1309"/>
<text text-anchor="middle" x="147.5" y="-1312.8" font-family="Times,serif" font-size="14.00">precharged&#45;</text>
</g>
<!-- PL5&#45;&gt;transition3 -->
<g id="edge7" class="edge"><title>PL5&#45;&gt;transition3</title>
<path fill="none" stroke="black" d="M199,-1344.94C199,-1334.39 199,-1321.53 199,-1314.41"/>
<polygon fill="none" stroke="black" points="200.75,-1314.06 199,-1309.06 197.25,-1314.06 200.75,-1314.06"/>
</g>
<!-- transition2&#45;&gt;PL5 -->
<g id="edge6" class="edge"><title>transition2&#45;&gt;PL5</title>
<path fill="none" stroke="black" d="M199,-1416.85C199,-1415.37 199,-1403.32 199,-1391.1"/>
<polygon fill="black" stroke="black" points="202.5,-1391.02 199,-1381.02 195.5,-1391.02 202.5,-1391.02"/>
</g>
<!-- PL27 -->
<g id="node48" class="node"><title>PL27</title>
<ellipse fill="none" stroke="black" cx="145" cy="-1363" rx="18" ry="18"/>
<text text-anchor="middle" x="145" y="-1359.3" font-family="Times,serif" font-size="14.00">PL27</text>
</g>
<!-- transition2&#45;&gt;PL27 -->
<g id="edge53" class="edge"><title>transition2&#45;&gt;PL27</title>
<path fill="none" stroke="black" d="M198.845,-1416.85C197.012,-1415.05 179.262,-1397.63 164.635,-1383.27"/>
<polygon fill="black" stroke="black" points="166.96,-1380.65 157.372,-1376.14 162.057,-1385.65 166.96,-1380.65"/>
</g>
<!-- PL6 -->
<g id="node8" class="node"><title>PL6</title>
<ellipse fill="none" stroke="black" cx="199" cy="-1254" rx="18" ry="18"/>
<text text-anchor="middle" x="199" y="-1250.3" font-family="Times,serif" font-size="14.00">PL6</text>
</g>
<!-- transition22 -->
<g id="node11" class="node"><title>transition22</title>
<polygon fill="none" stroke="black" points="163,-1200 127,-1200 127,-1199 163,-1199 163,-1200"/>
<text text-anchor="middle" x="113" y="-1203.8" font-family="Times,serif" font-size="14.00">ack+</text>
</g>
<!-- PL6&#45;&gt;transition22 -->
<g id="edge9" class="edge"><title>PL6&#45;&gt;transition22</title>
<path fill="none" stroke="black" d="M186.476,-1240.71C174.402,-1228.86 156.847,-1211.63 149.023,-1203.95"/>
<polygon fill="none" stroke="black" points="149.868,-1202.33 145.074,-1200.07 147.416,-1204.82 149.868,-1202.33"/>
</g>
<!-- transition3&#45;&gt;PL6 -->
<g id="edge8" class="edge"><title>transition3&#45;&gt;PL6</title>
<path fill="none" stroke="black" d="M199,-1307.85C199,-1306.37 199,-1294.32 199,-1282.1"/>
<polygon fill="black" stroke="black" points="202.5,-1282.02 199,-1272.02 195.5,-1282.02 202.5,-1282.02"/>
</g>
<!-- PL7 -->
<g id="node10" class="node"><title>PL7</title>
<ellipse fill="none" stroke="black" cx="145" cy="-1145" rx="18" ry="18"/>
<text text-anchor="middle" x="145" y="-1141.3" font-family="Times,serif" font-size="14.00">PL7</text>
</g>
<!-- transition4 -->
<g id="node13" class="node"><title>transition4</title>
<polygon fill="none" stroke="black" points="163,-1091 127,-1091 127,-1090 163,-1090 163,-1091"/>
<text text-anchor="middle" x="115.5" y="-1094.8" font-family="Times,serif" font-size="14.00">req&#45;</text>
</g>
<!-- PL7&#45;&gt;transition4 -->
<g id="edge11" class="edge"><title>PL7&#45;&gt;transition4</title>
<path fill="none" stroke="black" d="M145,-1126.94C145,-1116.39 145,-1103.53 145,-1096.41"/>
<polygon fill="none" stroke="black" points="146.75,-1096.06 145,-1091.06 143.25,-1096.06 146.75,-1096.06"/>
</g>
<!-- transition22&#45;&gt;PL7 -->
<g id="edge10" class="edge"><title>transition22&#45;&gt;PL7</title>
<path fill="none" stroke="black" d="M145,-1198.85C145,-1197.37 145,-1185.32 145,-1173.1"/>
<polygon fill="black" stroke="black" points="148.5,-1173.02 145,-1163.02 141.5,-1173.02 148.5,-1173.02"/>
</g>
<!-- PL8 -->
<g id="node12" class="node"><title>PL8</title>
<ellipse fill="none" stroke="black" cx="172" cy="-1036" rx="18" ry="18"/>
<text text-anchor="middle" x="172" y="-1032.3" font-family="Times,serif" font-size="14.00">PL8</text>
</g>
<!-- transition5 -->
<g id="node15" class="node"><title>transition5</title>
<polygon fill="none" stroke="black" points="190,-982 154,-982 154,-981 190,-981 190,-982"/>
<text text-anchor="middle" x="140" y="-985.8" font-family="Times,serif" font-size="14.00">wen&#45;</text>
</g>
<!-- PL8&#45;&gt;transition5 -->
<g id="edge13" class="edge"><title>PL8&#45;&gt;transition5</title>
<path fill="none" stroke="black" d="M172,-1017.94C172,-1007.39 172,-994.534 172,-987.412"/>
<polygon fill="none" stroke="black" points="173.75,-987.059 172,-982.059 170.25,-987.059 173.75,-987.059"/>
</g>
<!-- transition4&#45;&gt;PL8 -->
<g id="edge12" class="edge"><title>transition4&#45;&gt;PL8</title>
<path fill="none" stroke="black" d="M145.077,-1089.85C145.884,-1088.26 152.85,-1074.59 159.494,-1061.55"/>
<polygon fill="black" stroke="black" points="162.761,-1062.85 164.181,-1052.35 156.523,-1059.67 162.761,-1062.85"/>
</g>
<!-- PL25 -->
<g id="node45" class="node"><title>PL25</title>
<ellipse fill="none" stroke="black" cx="118" cy="-1036" rx="18" ry="18"/>
<text text-anchor="middle" x="118" y="-1032.3" font-family="Times,serif" font-size="14.00">PL25</text>
</g>
<!-- transition4&#45;&gt;PL25 -->
<g id="edge49" class="edge"><title>transition4&#45;&gt;PL25</title>
<path fill="none" stroke="black" d="M144.923,-1089.85C144.116,-1088.26 137.15,-1074.59 130.506,-1061.55"/>
<polygon fill="black" stroke="black" points="133.477,-1059.67 125.819,-1052.35 127.239,-1062.85 133.477,-1059.67"/>
</g>
<!-- PL9 -->
<g id="node14" class="node"><title>PL9</title>
<ellipse fill="none" stroke="black" cx="172" cy="-927" rx="18" ry="18"/>
<text text-anchor="middle" x="172" y="-923.3" font-family="Times,serif" font-size="14.00">PL9</text>
</g>
<!-- transition20 -->
<g id="node17" class="node"><title>transition20</title>
<polygon fill="none" stroke="black" points="150,-873 114,-873 114,-872 150,-872 150,-873"/>
<text text-anchor="middle" x="94.5" y="-876.8" font-family="Times,serif" font-size="14.00">wenin&#45;</text>
</g>
<!-- PL9&#45;&gt;transition20 -->
<g id="edge15" class="edge"><title>PL9&#45;&gt;transition20</title>
<path fill="none" stroke="black" d="M161.49,-912.075C152.7,-900.428 140.726,-884.562 135.127,-877.143"/>
<polygon fill="none" stroke="black" points="136.46,-876.004 132.051,-873.068 133.666,-878.113 136.46,-876.004"/>
</g>
<!-- transition5&#45;&gt;PL9 -->
<g id="edge14" class="edge"><title>transition5&#45;&gt;PL9</title>
<path fill="none" stroke="black" d="M172,-980.848C172,-979.368 172,-967.319 172,-955.1"/>
<polygon fill="black" stroke="black" points="175.5,-955.025 172,-945.025 168.5,-955.025 175.5,-955.025"/>
</g>
<!-- PL10 -->
<g id="node16" class="node"><title>PL10</title>
<ellipse fill="none" stroke="black" cx="132" cy="-818" rx="18" ry="18"/>
<text text-anchor="middle" x="132" y="-814.3" font-family="Times,serif" font-size="14.00">PL10</text>
</g>
<!-- transition6 -->
<g id="node19" class="node"><title>transition6</title>
<polygon fill="none" stroke="black" points="150,-764 114,-764 114,-763 150,-763 150,-764"/>
<text text-anchor="middle" x="64.5" y="-767.8" font-family="Times,serif" font-size="14.00">y0_ramreadsbuf+</text>
</g>
<!-- PL10&#45;&gt;transition6 -->
<g id="edge17" class="edge"><title>PL10&#45;&gt;transition6</title>
<path fill="none" stroke="black" d="M132,-799.939C132,-789.385 132,-776.534 132,-769.412"/>
<polygon fill="none" stroke="black" points="133.75,-769.059 132,-764.059 130.25,-769.059 133.75,-769.059"/>
</g>
<!-- transition20&#45;&gt;PL10 -->
<g id="edge16" class="edge"><title>transition20&#45;&gt;PL10</title>
<path fill="none" stroke="black" d="M132,-871.848C132,-870.368 132,-858.319 132,-846.1"/>
<polygon fill="black" stroke="black" points="135.5,-846.025 132,-836.025 128.5,-846.025 135.5,-846.025"/>
</g>
<!-- PL11 -->
<g id="node18" class="node"><title>PL11</title>
<ellipse fill="none" stroke="black" cx="145" cy="-709" rx="18" ry="18"/>
<text text-anchor="middle" x="145" y="-705.3" font-family="Times,serif" font-size="14.00">PL11</text>
</g>
<!-- transition7 -->
<g id="node21" class="node"><title>transition7</title>
<polygon fill="none" stroke="black" points="163,-655 127,-655 127,-654 163,-654 163,-655"/>
<text text-anchor="middle" x="109.5" y="-658.8" font-family="Times,serif" font-size="14.00">wsld+</text>
</g>
<!-- PL11&#45;&gt;transition7 -->
<g id="edge19" class="edge"><title>PL11&#45;&gt;transition7</title>
<path fill="none" stroke="black" d="M145,-690.939C145,-680.385 145,-667.534 145,-660.412"/>
<polygon fill="none" stroke="black" points="146.75,-660.059 145,-655.059 143.25,-660.059 146.75,-660.059"/>
</g>
<!-- transition6&#45;&gt;PL11 -->
<g id="edge18" class="edge"><title>transition6&#45;&gt;PL11</title>
<path fill="none" stroke="black" d="M132.037,-762.848C132.406,-761.344 135.454,-748.919 138.501,-736.496"/>
<polygon fill="black" stroke="black" points="141.91,-737.288 140.893,-726.742 135.112,-735.621 141.91,-737.288"/>
</g>
<!-- PL21 -->
<g id="node39" class="node"><title>PL21</title>
<ellipse fill="none" stroke="black" cx="91" cy="-709" rx="18" ry="18"/>
<text text-anchor="middle" x="91" y="-705.3" font-family="Times,serif" font-size="14.00">PL21</text>
</g>
<!-- transition6&#45;&gt;PL21 -->
<g id="edge41" class="edge"><title>transition6&#45;&gt;PL21</title>
<path fill="none" stroke="black" d="M131.882,-762.848C130.575,-761.159 118.615,-745.697 107.966,-731.931"/>
<polygon fill="black" stroke="black" points="110.499,-729.486 101.612,-723.718 104.962,-733.769 110.499,-729.486"/>
</g>
<!-- PL12 -->
<g id="node20" class="node"><title>PL12</title>
<ellipse fill="none" stroke="black" cx="199" cy="-600" rx="18" ry="18"/>
<text text-anchor="middle" x="199" y="-596.3" font-family="Times,serif" font-size="14.00">PL12</text>
</g>
<!-- transition8 -->
<g id="node23" class="node"><title>transition8</title>
<polygon fill="none" stroke="black" points="217,-546 181,-546 181,-545 217,-545 217,-546"/>
<text text-anchor="middle" x="158" y="-549.8" font-family="Times,serif" font-size="14.00">wsldin+</text>
</g>
<!-- PL12&#45;&gt;transition8 -->
<g id="edge21" class="edge"><title>PL12&#45;&gt;transition8</title>
<path fill="none" stroke="black" d="M199,-581.939C199,-571.385 199,-558.534 199,-551.412"/>
<polygon fill="none" stroke="black" points="200.75,-551.059 199,-546.059 197.25,-551.059 200.75,-551.059"/>
</g>
<!-- transition7&#45;&gt;PL12 -->
<g id="edge20" class="edge"><title>transition7&#45;&gt;PL12</title>
<path fill="none" stroke="black" d="M145.155,-653.848C146.988,-652.049 164.738,-634.628 179.365,-620.272"/>
<polygon fill="black" stroke="black" points="181.943,-622.645 186.628,-613.143 177.04,-617.649 181.943,-622.645"/>
</g>
<!-- PL20 -->
<g id="node36" class="node"><title>PL20</title>
<ellipse fill="none" stroke="black" cx="145" cy="-600" rx="18" ry="18"/>
<text text-anchor="middle" x="145" y="-596.3" font-family="Times,serif" font-size="14.00">PL20</text>
</g>
<!-- transition7&#45;&gt;PL20 -->
<g id="edge37" class="edge"><title>transition7&#45;&gt;PL20</title>
<path fill="none" stroke="black" d="M145,-653.848C145,-652.368 145,-640.319 145,-628.1"/>
<polygon fill="black" stroke="black" points="148.5,-628.025 145,-618.025 141.5,-628.025 148.5,-628.025"/>
</g>
<!-- PL13 -->
<g id="node22" class="node"><title>PL13</title>
<ellipse fill="none" stroke="black" cx="187" cy="-491" rx="18" ry="18"/>
<text text-anchor="middle" x="187" y="-487.3" font-family="Times,serif" font-size="14.00">PL13</text>
</g>
<!-- transition17 -->
<g id="node25" class="node"><title>transition17</title>
<polygon fill="none" stroke="black" points="205,-437 169,-437 169,-436 205,-436 205,-437"/>
<text text-anchor="middle" x="121" y="-440.8" font-family="Times,serif" font-size="14.00">y0_ramreadsbuf&#45;</text>
</g>
<!-- PL13&#45;&gt;transition17 -->
<g id="edge23" class="edge"><title>PL13&#45;&gt;transition17</title>
<path fill="none" stroke="black" d="M187,-472.939C187,-462.385 187,-449.534 187,-442.412"/>
<polygon fill="none" stroke="black" points="188.75,-442.059 187,-437.059 185.25,-442.059 188.75,-442.059"/>
</g>
<!-- transition8&#45;&gt;PL13 -->
<g id="edge22" class="edge"><title>transition8&#45;&gt;PL13</title>
<path fill="none" stroke="black" d="M198.966,-544.848C198.625,-543.344 195.812,-530.919 192.999,-518.496"/>
<polygon fill="black" stroke="black" points="196.413,-517.722 190.791,-508.742 189.585,-519.268 196.413,-517.722"/>
</g>
<!-- PL14 -->
<g id="node24" class="node"><title>PL14</title>
<ellipse fill="none" stroke="black" cx="187" cy="-382" rx="18" ry="18"/>
<text text-anchor="middle" x="187" y="-378.3" font-family="Times,serif" font-size="14.00">PL14</text>
</g>
<!-- transition9 -->
<g id="node27" class="node"><title>transition9</title>
<polygon fill="none" stroke="black" points="205,-328 169,-328 169,-327 205,-327 205,-328"/>
<text text-anchor="middle" x="153" y="-331.8" font-family="Times,serif" font-size="14.00">wsld&#45;</text>
</g>
<!-- PL14&#45;&gt;transition9 -->
<g id="edge25" class="edge"><title>PL14&#45;&gt;transition9</title>
<path fill="none" stroke="black" d="M187,-363.939C187,-353.385 187,-340.534 187,-333.412"/>
<polygon fill="none" stroke="black" points="188.75,-333.059 187,-328.059 185.25,-333.059 188.75,-333.059"/>
</g>
<!-- transition17&#45;&gt;PL14 -->
<g id="edge24" class="edge"><title>transition17&#45;&gt;PL14</title>
<path fill="none" stroke="black" d="M187,-435.848C187,-434.368 187,-422.319 187,-410.1"/>
<polygon fill="black" stroke="black" points="190.5,-410.025 187,-400.025 183.5,-410.025 190.5,-410.025"/>
</g>
<!-- PL15 -->
<g id="node26" class="node"><title>PL15</title>
<ellipse fill="none" stroke="black" cx="187" cy="-273" rx="18" ry="18"/>
<text text-anchor="middle" x="187" y="-269.3" font-family="Times,serif" font-size="14.00">PL15</text>
</g>
<!-- transition10 -->
<g id="node29" class="node"><title>transition10</title>
<polygon fill="none" stroke="black" points="205,-219 169,-219 169,-218 205,-218 205,-219"/>
<text text-anchor="middle" x="147.5" y="-222.8" font-family="Times,serif" font-size="14.00">wsldin&#45;</text>
</g>
<!-- PL15&#45;&gt;transition10 -->
<g id="edge27" class="edge"><title>PL15&#45;&gt;transition10</title>
<path fill="none" stroke="black" d="M187,-254.939C187,-244.385 187,-231.534 187,-224.412"/>
<polygon fill="none" stroke="black" points="188.75,-224.059 187,-219.059 185.25,-224.059 188.75,-224.059"/>
</g>
<!-- transition9&#45;&gt;PL15 -->
<g id="edge26" class="edge"><title>transition9&#45;&gt;PL15</title>
<path fill="none" stroke="black" d="M187,-326.848C187,-325.368 187,-313.319 187,-301.1"/>
<polygon fill="black" stroke="black" points="190.5,-301.025 187,-291.025 183.5,-301.025 190.5,-301.025"/>
</g>
<!-- PL16 -->
<g id="node28" class="node"><title>PL16</title>
<ellipse fill="none" stroke="black" cx="187" cy="-164" rx="18" ry="18"/>
<text text-anchor="middle" x="187" y="-160.3" font-family="Times,serif" font-size="14.00">PL16</text>
</g>
<!-- transition11 -->
<g id="node31" class="node"><title>transition11</title>
<polygon fill="none" stroke="black" points="205,-110 169,-110 169,-109 205,-109 205,-110"/>
<text text-anchor="middle" x="156.5" y="-113.8" font-family="Times,serif" font-size="14.00">ack&#45;</text>
</g>
<!-- PL16&#45;&gt;transition11 -->
<g id="edge29" class="edge"><title>PL16&#45;&gt;transition11</title>
<path fill="none" stroke="black" d="M187,-145.939C187,-135.385 187,-122.534 187,-115.412"/>
<polygon fill="none" stroke="black" points="188.75,-115.059 187,-110.059 185.25,-115.059 188.75,-115.059"/>
</g>
<!-- transition10&#45;&gt;PL16 -->
<g id="edge28" class="edge"><title>transition10&#45;&gt;PL16</title>
<path fill="none" stroke="black" d="M187,-217.848C187,-216.368 187,-204.319 187,-192.1"/>
<polygon fill="black" stroke="black" points="190.5,-192.025 187,-182.025 183.5,-192.025 190.5,-192.025"/>
</g>
<!-- PL18 -->
<g id="node33" class="node"><title>PL18</title>
<ellipse fill="none" stroke="black" cx="241" cy="-164" rx="18" ry="18"/>
<text text-anchor="middle" x="241" y="-160.3" font-family="Times,serif" font-size="14.00">PL18</text>
</g>
<!-- transition10&#45;&gt;PL18 -->
<g id="edge33" class="edge"><title>transition10&#45;&gt;PL18</title>
<path fill="none" stroke="black" d="M187.155,-217.848C188.988,-216.049 206.738,-198.628 221.365,-184.272"/>
<polygon fill="black" stroke="black" points="223.943,-186.645 228.628,-177.143 219.04,-181.649 223.943,-186.645"/>
</g>
<!-- PL17 -->
<g id="node30" class="node"><title>PL17</title>
<ellipse fill="none" stroke="black" cx="187" cy="-55" rx="18" ry="18"/>
<text text-anchor="middle" x="187" y="-51.3" font-family="Times,serif" font-size="14.00">PL17</text>
</g>
<!-- transition13 -->
<g id="node32" class="node"><title>transition13</title>
<polygon fill="none" stroke="black" points="259,-1 223,-1 223,-0 259,-0 259,-1"/>
<text text-anchor="middle" x="210" y="-4.8" font-family="Times,serif" font-size="14.00">req+</text>
</g>
<!-- PL17&#45;&gt;transition13 -->
<g id="edge31" class="edge"><title>PL17&#45;&gt;transition13</title>
<path fill="none" stroke="black" d="M199.524,-41.7075C211.598,-29.8579 229.153,-12.6274 236.977,-4.94842"/>
<polygon fill="none" stroke="black" points="238.584,-5.82366 240.926,-1.07234 236.132,-3.32575 238.584,-5.82366"/>
</g>
<!-- transition11&#45;&gt;PL17 -->
<g id="edge30" class="edge"><title>transition11&#45;&gt;PL17</title>
<path fill="none" stroke="black" d="M187,-108.848C187,-107.368 187,-95.3194 187,-83.1004"/>
<polygon fill="black" stroke="black" points="190.5,-83.0247 187,-73.0247 183.5,-83.0248 190.5,-83.0247"/>
</g>
<!-- transition13&#45;&gt;PL1 -->
<g id="edge32" class="edge"><title>transition13&#45;&gt;PL1</title>
<path fill="none" stroke="black" d="M241.053,-1.05218C242.134,-2.12486 259.559,-19.5602 268,-37 282.418,-66.7898 287,-75.9046 287,-109 287,-1582 287,-1582 287,-1582 287,-1610.25 279.243,-1641.77 272.738,-1663.24"/>
<polygon fill="black" stroke="black" points="269.358,-1662.33 269.685,-1672.92 276.033,-1664.43 269.358,-1662.33"/>
</g>
<!-- transition12 -->
<g id="node35" class="node"><title>transition12</title>
<polygon fill="none" stroke="black" points="259,-110 223,-110 223,-109 259,-109 259,-110"/>
<text text-anchor="middle" x="204.5" y="-113.8" font-family="Times,serif" font-size="14.00">wsen+</text>
</g>
<!-- PL18&#45;&gt;transition12 -->
<g id="edge34" class="edge"><title>PL18&#45;&gt;transition12</title>
<path fill="none" stroke="black" d="M241,-145.939C241,-135.385 241,-122.534 241,-115.412"/>
<polygon fill="none" stroke="black" points="242.75,-115.059 241,-110.059 239.25,-115.059 242.75,-115.059"/>
</g>
<!-- PL19 -->
<g id="node34" class="node"><title>PL19</title>
<ellipse fill="none" stroke="black" cx="241" cy="-55" rx="18" ry="18"/>
<text text-anchor="middle" x="241" y="-51.3" font-family="Times,serif" font-size="14.00">PL19</text>
</g>
<!-- PL19&#45;&gt;transition13 -->
<g id="edge36" class="edge"><title>PL19&#45;&gt;transition13</title>
<path fill="none" stroke="black" d="M241,-36.9387C241,-26.3852 241,-13.5344 241,-6.41235"/>
<polygon fill="none" stroke="black" points="242.75,-6.05909 241,-1.05912 239.25,-6.05916 242.75,-6.05909"/>
</g>
<!-- transition12&#45;&gt;PL19 -->
<g id="edge35" class="edge"><title>transition12&#45;&gt;PL19</title>
<path fill="none" stroke="black" d="M241,-108.848C241,-107.368 241,-95.3194 241,-83.1004"/>
<polygon fill="black" stroke="black" points="244.5,-83.0247 241,-73.0247 237.5,-83.0248 244.5,-83.0247"/>
</g>
<!-- transition18 -->
<g id="node38" class="node"><title>transition18</title>
<polygon fill="none" stroke="black" points="163,-546 127,-546 127,-545 163,-545 163,-546"/>
<text text-anchor="middle" x="91.5" y="-549.8" font-family="Times,serif" font-size="14.00">precharged+</text>
</g>
<!-- PL20&#45;&gt;transition18 -->
<g id="edge38" class="edge"><title>PL20&#45;&gt;transition18</title>
<path fill="none" stroke="black" d="M145,-581.939C145,-571.385 145,-558.534 145,-551.412"/>
<polygon fill="none" stroke="black" points="146.75,-551.059 145,-546.059 143.25,-551.059 146.75,-551.059"/>
</g>
<!-- PL2 -->
<g id="node37" class="node"><title>PL2</title>
<ellipse fill="none" stroke="black" cx="241" cy="-491" rx="18" ry="18"/>
<text text-anchor="middle" x="241" y="-487.3" font-family="Times,serif" font-size="14.00">PL2</text>
</g>
<!-- PL2&#45;&gt;transition14 -->
<g id="edge40" class="edge"><title>PL2&#45;&gt;transition14</title>
<path fill="none" stroke="black" d="M242.03,-509.042C243.215,-530.149 245,-567.212 245,-599 245,-1527 245,-1527 245,-1527 245,-1566.53 242.292,-1614.13 241.332,-1629.76"/>
<polygon fill="none" stroke="black" points="239.572,-1629.86 241.003,-1634.96 243.065,-1630.08 239.572,-1629.86"/>
</g>
<!-- transition18&#45;&gt;PL2 -->
<g id="edge39" class="edge"><title>transition18&#45;&gt;PL2</title>
<path fill="none" stroke="black" d="M145.113,-544.946C147.429,-543.828 184.944,-525.691 214,-509 215.135,-508.348 216.29,-507.672 217.452,-506.981"/>
<polygon fill="black" stroke="black" points="219.581,-509.782 226.277,-501.572 215.922,-503.814 219.581,-509.782"/>
</g>
<!-- transition15 -->
<g id="node41" class="node"><title>transition15</title>
<polygon fill="none" stroke="black" points="109,-655 73,-655 73,-654 109,-654 109,-655"/>
<text text-anchor="middle" x="55.5" y="-658.8" font-family="Times,serif" font-size="14.00">prnot&#45;</text>
</g>
<!-- PL21&#45;&gt;transition15 -->
<g id="edge42" class="edge"><title>PL21&#45;&gt;transition15</title>
<path fill="none" stroke="black" d="M91,-690.939C91,-680.385 91,-667.534 91,-660.412"/>
<polygon fill="none" stroke="black" points="92.7501,-660.059 91,-655.059 89.2501,-660.059 92.7501,-660.059"/>
</g>
<!-- PL22 -->
<g id="node40" class="node"><title>PL22</title>
<ellipse fill="none" stroke="black" cx="37" cy="-600" rx="18" ry="18"/>
<text text-anchor="middle" x="37" y="-596.3" font-family="Times,serif" font-size="14.00">PL22</text>
</g>
<!-- transition16 -->
<g id="node43" class="node"><title>transition16</title>
<polygon fill="none" stroke="black" points="82,-546 46,-546 46,-545 82,-545 82,-546"/>
<text text-anchor="middle" x="23" y="-549.8" font-family="Times,serif" font-size="14.00">prnotin&#45;</text>
</g>
<!-- PL22&#45;&gt;transition16 -->
<g id="edge44" class="edge"><title>PL22&#45;&gt;transition16</title>
<path fill="none" stroke="black" d="M44.8095,-583.67C50.4825,-572.534 57.7965,-558.177 61.5453,-550.818"/>
<polygon fill="none" stroke="black" points="63.2572,-551.313 63.9676,-546.064 60.1386,-549.724 63.2572,-551.313"/>
</g>
<!-- transition15&#45;&gt;PL22 -->
<g id="edge43" class="edge"><title>transition15&#45;&gt;PL22</title>
<path fill="none" stroke="black" d="M90.8451,-653.848C89.0118,-652.049 71.2624,-634.628 56.6353,-620.272"/>
<polygon fill="black" stroke="black" points="58.9603,-617.649 49.3718,-613.143 54.057,-622.645 58.9603,-617.649"/>
</g>
<!-- PL24 -->
<g id="node44" class="node"><title>PL24</title>
<ellipse fill="none" stroke="black" cx="91" cy="-600" rx="18" ry="18"/>
<text text-anchor="middle" x="91" y="-596.3" font-family="Times,serif" font-size="14.00">PL24</text>
</g>
<!-- transition15&#45;&gt;PL24 -->
<g id="edge47" class="edge"><title>transition15&#45;&gt;PL24</title>
<path fill="none" stroke="black" d="M91,-653.848C91,-652.368 91,-640.319 91,-628.1"/>
<polygon fill="black" stroke="black" points="94.5001,-628.025 91,-618.025 87.5001,-628.025 94.5001,-628.025"/>
</g>
<!-- PL23 -->
<g id="node42" class="node"><title>PL23</title>
<ellipse fill="none" stroke="black" cx="99" cy="-491" rx="18" ry="18"/>
<text text-anchor="middle" x="99" y="-487.3" font-family="Times,serif" font-size="14.00">PL23</text>
</g>
<!-- PL23&#45;&gt;transition17 -->
<g id="edge46" class="edge"><title>PL23&#45;&gt;transition17</title>
<path fill="none" stroke="black" d="M114.328,-480.768C134.746,-468.471 169.753,-447.388 182.33,-439.813"/>
<polygon fill="none" stroke="black" points="183.483,-441.161 186.863,-437.082 181.677,-438.163 183.483,-441.161"/>
</g>
<!-- transition16&#45;&gt;PL23 -->
<g id="edge45" class="edge"><title>transition16&#45;&gt;PL23</title>
<path fill="none" stroke="black" d="M64.1004,-544.848C65.1858,-543.204 74.8794,-528.526 83.7751,-515.055"/>
<polygon fill="black" stroke="black" points="86.8171,-516.8 89.4072,-506.526 80.9759,-512.942 86.8171,-516.8"/>
</g>
<!-- PL24&#45;&gt;transition18 -->
<g id="edge48" class="edge"><title>PL24&#45;&gt;transition18</title>
<path fill="none" stroke="black" d="M103.524,-586.708C115.598,-574.858 133.153,-557.627 140.977,-549.948"/>
<polygon fill="none" stroke="black" points="142.584,-550.824 144.926,-546.072 140.132,-548.326 142.584,-550.824"/>
</g>
<!-- transition19 -->
<g id="node47" class="node"><title>transition19</title>
<polygon fill="none" stroke="black" points="136,-982 100,-982 100,-981 136,-981 136,-982"/>
<text text-anchor="middle" x="83" y="-985.8" font-family="Times,serif" font-size="14.00">wsen&#45;</text>
</g>
<!-- PL25&#45;&gt;transition19 -->
<g id="edge50" class="edge"><title>PL25&#45;&gt;transition19</title>
<path fill="none" stroke="black" d="M118,-1017.94C118,-1007.39 118,-994.534 118,-987.412"/>
<polygon fill="none" stroke="black" points="119.75,-987.059 118,-982.059 116.25,-987.059 119.75,-987.059"/>
</g>
<!-- PL26 -->
<g id="node46" class="node"><title>PL26</title>
<ellipse fill="none" stroke="black" cx="118" cy="-927" rx="18" ry="18"/>
<text text-anchor="middle" x="118" y="-923.3" font-family="Times,serif" font-size="14.00">PL26</text>
</g>
<!-- PL26&#45;&gt;transition20 -->
<g id="edge52" class="edge"><title>PL26&#45;&gt;transition20</title>
<path fill="none" stroke="black" d="M122.353,-909.521C125.215,-898.688 128.768,-885.235 130.663,-878.062"/>
<polygon fill="none" stroke="black" points="132.399,-878.342 131.984,-873.061 129.015,-877.448 132.399,-878.342"/>
</g>
<!-- transition19&#45;&gt;PL26 -->
<g id="edge51" class="edge"><title>transition19&#45;&gt;PL26</title>
<path fill="none" stroke="black" d="M118,-980.848C118,-979.368 118,-967.319 118,-955.1"/>
<polygon fill="black" stroke="black" points="121.5,-955.025 118,-945.025 114.5,-955.025 121.5,-955.025"/>
</g>
<!-- transition21 -->
<g id="node50" class="node"><title>transition21</title>
<polygon fill="none" stroke="black" points="163,-1309 127,-1309 127,-1308 163,-1308 163,-1309"/>
<text text-anchor="middle" x="105.5" y="-1296.8" font-family="Times,serif" font-size="14.00">wenin+</text>
</g>
<!-- PL27&#45;&gt;transition21 -->
<g id="edge54" class="edge"><title>PL27&#45;&gt;transition21</title>
<path fill="none" stroke="black" d="M145,-1344.94C145,-1334.39 145,-1321.53 145,-1314.41"/>
<polygon fill="none" stroke="black" points="146.75,-1314.06 145,-1309.06 143.25,-1314.06 146.75,-1314.06"/>
</g>
<!-- PL28 -->
<g id="node49" class="node"><title>PL28</title>
<ellipse fill="none" stroke="black" cx="145" cy="-1254" rx="18" ry="18"/>
<text text-anchor="middle" x="145" y="-1250.3" font-family="Times,serif" font-size="14.00">PL28</text>
</g>
<!-- PL28&#45;&gt;transition22 -->
<g id="edge56" class="edge"><title>PL28&#45;&gt;transition22</title>
<path fill="none" stroke="black" d="M145,-1235.94C145,-1225.39 145,-1212.53 145,-1205.41"/>
<polygon fill="none" stroke="black" points="146.75,-1205.06 145,-1200.06 143.25,-1205.06 146.75,-1205.06"/>
</g>
<!-- transition21&#45;&gt;PL28 -->
<g id="edge55" class="edge"><title>transition21&#45;&gt;PL28</title>
<path fill="none" stroke="black" d="M145,-1307.85C145,-1306.37 145,-1294.32 145,-1282.1"/>
<polygon fill="black" stroke="black" points="148.5,-1282.02 145,-1272.02 141.5,-1282.02 148.5,-1282.02"/>
</g>
</g>
</svg>
