<?xml version="1.0" encoding="UTF-8" standalone="no"?>
<!DOCTYPE svg PUBLIC "-//W3C//DTD SVG 1.1//EN"
 "http://www.w3.org/Graphics/SVG/1.1/DTD/svg11.dtd">
<!-- Generated by graphviz version 2.38.0 (20140413.2041)
 -->
<!-- Title: %3 Pages: 1 -->
<svg width="304pt" height="1788pt"
 viewBox="0.00 0.00 303.61 1788.00" xmlns="http://www.w3.org/2000/svg" xmlns:xlink="http://www.w3.org/1999/xlink">
<g id="graph0" class="graph" transform="scale(1 1) rotate(0) translate(4 1784)">
<title>%3</title>
<polygon fill="white" stroke="none" points="-4,4 -4,-1784 299.614,-1784 299.614,4 -4,4"/>
<!-- PL1 -->
<g id="node1" class="node"><title>PL1</title>
<ellipse fill="none" stroke="black" cx="258" cy="-1762" rx="18" ry="18"/>
<text text-anchor="middle" x="258" y="-1758.3" font-family="Times,serif" font-size="14.00">PL1</text>
</g>
<!-- transition12 -->
<g id="node3" class="node"><title>transition12</title>
<polygon fill="none" stroke="black" points="240,-1708 204,-1708 204,-1707 240,-1707 240,-1708"/>
<text text-anchor="middle" x="185" y="-1711.8" font-family="Times,serif" font-size="14.00">prnot+</text>
</g>
<!-- PL1&#45;&gt;transition12 -->
<g id="edge1" class="edge"><title>PL1&#45;&gt;transition12</title>
<path fill="none" stroke="black" d="M248.353,-1746.8C240.605,-1735.39 230.204,-1720.08 225.096,-1712.56"/>
<polygon fill="none" stroke="black" points="226.302,-1711.22 222.045,-1708.07 223.407,-1713.19 226.302,-1711.22"/>
</g>
<!-- PL2 -->
<g id="node2" class="node"><title>PL2</title>
<ellipse fill="none" stroke="black" cx="222" cy="-1653" rx="18" ry="18"/>
<text text-anchor="middle" x="222" y="-1649.3" font-family="Times,serif" font-size="14.00">PL2</text>
</g>
<!-- transition1 -->
<g id="node5" class="node"><title>transition1</title>
<polygon fill="none" stroke="black" points="240,-1599 204,-1599 204,-1598 240,-1598 240,-1599"/>
<text text-anchor="middle" x="179.5" y="-1602.8" font-family="Times,serif" font-size="14.00">prnotin+</text>
</g>
<!-- PL2&#45;&gt;transition1 -->
<g id="edge3" class="edge"><title>PL2&#45;&gt;transition1</title>
<path fill="none" stroke="black" d="M222,-1634.94C222,-1624.39 222,-1611.53 222,-1604.41"/>
<polygon fill="none" stroke="black" points="223.75,-1604.06 222,-1599.06 220.25,-1604.06 223.75,-1604.06"/>
</g>
<!-- transition12&#45;&gt;PL2 -->
<g id="edge2" class="edge"><title>transition12&#45;&gt;PL2</title>
<path fill="none" stroke="black" d="M222,-1706.85C222,-1705.37 222,-1693.32 222,-1681.1"/>
<polygon fill="black" stroke="black" points="225.5,-1681.02 222,-1671.02 218.5,-1681.02 225.5,-1681.02"/>
</g>
<!-- PL3 -->
<g id="node4" class="node"><title>PL3</title>
<ellipse fill="none" stroke="black" cx="222" cy="-1544" rx="18" ry="18"/>
<text text-anchor="middle" x="222" y="-1540.3" font-family="Times,serif" font-size="14.00">PL3</text>
</g>
<!-- transition2 -->
<g id="node7" class="node"><title>transition2</title>
<polygon fill="none" stroke="black" points="240,-1490 204,-1490 204,-1489 240,-1489 240,-1490"/>
<text text-anchor="middle" x="188" y="-1493.8" font-family="Times,serif" font-size="14.00">wen+</text>
</g>
<!-- PL3&#45;&gt;transition2 -->
<g id="edge5" class="edge"><title>PL3&#45;&gt;transition2</title>
<path fill="none" stroke="black" d="M222,-1525.94C222,-1515.39 222,-1502.53 222,-1495.41"/>
<polygon fill="none" stroke="black" points="223.75,-1495.06 222,-1490.06 220.25,-1495.06 223.75,-1495.06"/>
</g>
<!-- transition1&#45;&gt;PL3 -->
<g id="edge4" class="edge"><title>transition1&#45;&gt;PL3</title>
<path fill="none" stroke="black" d="M222,-1597.85C222,-1596.37 222,-1584.32 222,-1572.1"/>
<polygon fill="black" stroke="black" points="225.5,-1572.02 222,-1562.02 218.5,-1572.02 225.5,-1572.02"/>
</g>
<!-- PL4 -->
<g id="node6" class="node"><title>PL4</title>
<ellipse fill="none" stroke="black" cx="195" cy="-1435" rx="18" ry="18"/>
<text text-anchor="middle" x="195" y="-1431.3" font-family="Times,serif" font-size="14.00">PL4</text>
</g>
<!-- transition3 -->
<g id="node9" class="node"><title>transition3</title>
<polygon fill="none" stroke="black" points="213,-1381 177,-1381 177,-1380 213,-1380 213,-1381"/>
<text text-anchor="middle" x="143.5" y="-1384.8" font-family="Times,serif" font-size="14.00">precharged&#45;</text>
</g>
<!-- PL4&#45;&gt;transition3 -->
<g id="edge7" class="edge"><title>PL4&#45;&gt;transition3</title>
<path fill="none" stroke="black" d="M195,-1416.94C195,-1406.39 195,-1393.53 195,-1386.41"/>
<polygon fill="none" stroke="black" points="196.75,-1386.06 195,-1381.06 193.25,-1386.06 196.75,-1386.06"/>
</g>
<!-- transition2&#45;&gt;PL4 -->
<g id="edge6" class="edge"><title>transition2&#45;&gt;PL4</title>
<path fill="none" stroke="black" d="M221.923,-1488.85C221.116,-1487.26 214.15,-1473.59 207.506,-1460.55"/>
<polygon fill="black" stroke="black" points="210.477,-1458.67 202.819,-1451.35 204.239,-1461.85 210.477,-1458.67"/>
</g>
<!-- PL27 -->
<g id="node48" class="node"><title>PL27</title>
<ellipse fill="none" stroke="black" cx="249" cy="-1435" rx="18" ry="18"/>
<text text-anchor="middle" x="249" y="-1431.3" font-family="Times,serif" font-size="14.00">PL27</text>
</g>
<!-- transition2&#45;&gt;PL27 -->
<g id="edge53" class="edge"><title>transition2&#45;&gt;PL27</title>
<path fill="none" stroke="black" d="M222.077,-1488.85C222.884,-1487.26 229.85,-1473.59 236.494,-1460.55"/>
<polygon fill="black" stroke="black" points="239.761,-1461.85 241.181,-1451.35 233.523,-1458.67 239.761,-1461.85"/>
</g>
<!-- PL5 -->
<g id="node8" class="node"><title>PL5</title>
<ellipse fill="none" stroke="black" cx="195" cy="-1326" rx="18" ry="18"/>
<text text-anchor="middle" x="195" y="-1322.3" font-family="Times,serif" font-size="14.00">PL5</text>
</g>
<!-- transition22 -->
<g id="node11" class="node"><title>transition22</title>
<polygon fill="none" stroke="black" points="240,-1272 204,-1272 204,-1271 240,-1271 240,-1272"/>
<text text-anchor="middle" x="190" y="-1275.8" font-family="Times,serif" font-size="14.00">ack+</text>
</g>
<!-- PL5&#45;&gt;transition22 -->
<g id="edge9" class="edge"><title>PL5&#45;&gt;transition22</title>
<path fill="none" stroke="black" d="M202.81,-1309.67C208.483,-1298.53 215.796,-1284.18 219.545,-1276.82"/>
<polygon fill="none" stroke="black" points="221.257,-1277.31 221.968,-1272.06 218.139,-1275.72 221.257,-1277.31"/>
</g>
<!-- transition3&#45;&gt;PL5 -->
<g id="edge8" class="edge"><title>transition3&#45;&gt;PL5</title>
<path fill="none" stroke="black" d="M195,-1379.85C195,-1378.37 195,-1366.32 195,-1354.1"/>
<polygon fill="black" stroke="black" points="198.5,-1354.02 195,-1344.02 191.5,-1354.02 198.5,-1354.02"/>
</g>
<!-- PL6 -->
<g id="node10" class="node"><title>PL6</title>
<ellipse fill="none" stroke="black" cx="222" cy="-1217" rx="18" ry="18"/>
<text text-anchor="middle" x="222" y="-1213.3" font-family="Times,serif" font-size="14.00">PL6</text>
</g>
<!-- transition4 -->
<g id="node13" class="node"><title>transition4</title>
<polygon fill="none" stroke="black" points="240,-1163 204,-1163 204,-1162 240,-1162 240,-1163"/>
<text text-anchor="middle" x="192.5" y="-1166.8" font-family="Times,serif" font-size="14.00">req&#45;</text>
</g>
<!-- PL6&#45;&gt;transition4 -->
<g id="edge11" class="edge"><title>PL6&#45;&gt;transition4</title>
<path fill="none" stroke="black" d="M222,-1198.94C222,-1188.39 222,-1175.53 222,-1168.41"/>
<polygon fill="none" stroke="black" points="223.75,-1168.06 222,-1163.06 220.25,-1168.06 223.75,-1168.06"/>
</g>
<!-- transition22&#45;&gt;PL6 -->
<g id="edge10" class="edge"><title>transition22&#45;&gt;PL6</title>
<path fill="none" stroke="black" d="M222,-1270.85C222,-1269.37 222,-1257.32 222,-1245.1"/>
<polygon fill="black" stroke="black" points="225.5,-1245.02 222,-1235.02 218.5,-1245.02 225.5,-1245.02"/>
</g>
<!-- PL7 -->
<g id="node12" class="node"><title>PL7</title>
<ellipse fill="none" stroke="black" cx="182" cy="-1108" rx="18" ry="18"/>
<text text-anchor="middle" x="182" y="-1104.3" font-family="Times,serif" font-size="14.00">PL7</text>
</g>
<!-- transition5 -->
<g id="node15" class="node"><title>transition5</title>
<polygon fill="none" stroke="black" points="200,-1054 164,-1054 164,-1053 200,-1053 200,-1054"/>
<text text-anchor="middle" x="150" y="-1057.8" font-family="Times,serif" font-size="14.00">wen&#45;</text>
</g>
<!-- PL7&#45;&gt;transition5 -->
<g id="edge13" class="edge"><title>PL7&#45;&gt;transition5</title>
<path fill="none" stroke="black" d="M182,-1089.94C182,-1079.39 182,-1066.53 182,-1059.41"/>
<polygon fill="none" stroke="black" points="183.75,-1059.06 182,-1054.06 180.25,-1059.06 183.75,-1059.06"/>
</g>
<!-- transition4&#45;&gt;PL7 -->
<g id="edge12" class="edge"><title>transition4&#45;&gt;PL7</title>
<path fill="none" stroke="black" d="M221.885,-1161.85C220.618,-1160.17 209.08,-1144.88 198.738,-1131.18"/>
<polygon fill="black" stroke="black" points="201.373,-1128.86 192.555,-1122.99 195.786,-1133.08 201.373,-1128.86"/>
</g>
<!-- PL25 -->
<g id="node45" class="node"><title>PL25</title>
<ellipse fill="none" stroke="black" cx="236" cy="-1108" rx="18" ry="18"/>
<text text-anchor="middle" x="236" y="-1104.3" font-family="Times,serif" font-size="14.00">PL25</text>
</g>
<!-- transition4&#45;&gt;PL25 -->
<g id="edge49" class="edge"><title>transition4&#45;&gt;PL25</title>
<path fill="none" stroke="black" d="M222.04,-1161.85C222.438,-1160.34 225.719,-1147.92 229.001,-1135.5"/>
<polygon fill="black" stroke="black" points="232.407,-1136.3 231.578,-1125.74 225.64,-1134.52 232.407,-1136.3"/>
</g>
<!-- PL8 -->
<g id="node14" class="node"><title>PL8</title>
<ellipse fill="none" stroke="black" cx="182" cy="-999" rx="18" ry="18"/>
<text text-anchor="middle" x="182" y="-995.3" font-family="Times,serif" font-size="14.00">PL8</text>
</g>
<!-- transition20 -->
<g id="node17" class="node"><title>transition20</title>
<polygon fill="none" stroke="black" points="206,-945 170,-945 170,-944 206,-944 206,-945"/>
<text text-anchor="middle" x="150.5" y="-948.8" font-family="Times,serif" font-size="14.00">wenin&#45;</text>
</g>
<!-- PL8&#45;&gt;transition20 -->
<g id="edge15" class="edge"><title>PL8&#45;&gt;transition20</title>
<path fill="none" stroke="black" d="M183.931,-980.939C185.126,-970.385 186.581,-957.534 187.387,-950.412"/>
<polygon fill="none" stroke="black" points="189.17,-950.224 187.993,-945.059 185.692,-949.831 189.17,-950.224"/>
</g>
<!-- transition5&#45;&gt;PL8 -->
<g id="edge14" class="edge"><title>transition5&#45;&gt;PL8</title>
<path fill="none" stroke="black" d="M182,-1052.85C182,-1051.37 182,-1039.32 182,-1027.1"/>
<polygon fill="black" stroke="black" points="185.5,-1027.02 182,-1017.02 178.5,-1027.02 185.5,-1027.02"/>
</g>
<!-- PL9 -->
<g id="node16" class="node"><title>PL9</title>
<ellipse fill="none" stroke="black" cx="188" cy="-890" rx="18" ry="18"/>
<text text-anchor="middle" x="188" y="-886.3" font-family="Times,serif" font-size="14.00">PL9</text>
</g>
<!-- transition6 -->
<g id="node19" class="node"><title>transition6</title>
<polygon fill="none" stroke="black" points="206,-836 170,-836 170,-835 206,-835 206,-836"/>
<text text-anchor="middle" x="120.5" y="-839.8" font-family="Times,serif" font-size="14.00">y0_ramreadsbuf+</text>
</g>
<!-- PL9&#45;&gt;transition6 -->
<g id="edge17" class="edge"><title>PL9&#45;&gt;transition6</title>
<path fill="none" stroke="black" d="M188,-871.939C188,-861.385 188,-848.534 188,-841.412"/>
<polygon fill="none" stroke="black" points="189.75,-841.059 188,-836.059 186.25,-841.059 189.75,-841.059"/>
</g>
<!-- transition20&#45;&gt;PL9 -->
<g id="edge16" class="edge"><title>transition20&#45;&gt;PL9</title>
<path fill="none" stroke="black" d="M188,-943.848C188,-942.368 188,-930.319 188,-918.1"/>
<polygon fill="black" stroke="black" points="191.5,-918.025 188,-908.025 184.5,-918.025 191.5,-918.025"/>
</g>
<!-- PL10 -->
<g id="node18" class="node"><title>PL10</title>
<ellipse fill="none" stroke="black" cx="195" cy="-781" rx="18" ry="18"/>
<text text-anchor="middle" x="195" y="-777.3" font-family="Times,serif" font-size="14.00">PL10</text>
</g>
<!-- transition7 -->
<g id="node21" class="node"><title>transition7</title>
<polygon fill="none" stroke="black" points="213,-727 177,-727 177,-726 213,-726 213,-727"/>
<text text-anchor="middle" x="159.5" y="-730.8" font-family="Times,serif" font-size="14.00">wsld+</text>
</g>
<!-- PL10&#45;&gt;transition7 -->
<g id="edge19" class="edge"><title>PL10&#45;&gt;transition7</title>
<path fill="none" stroke="black" d="M195,-762.939C195,-752.385 195,-739.534 195,-732.412"/>
<polygon fill="none" stroke="black" points="196.75,-732.059 195,-727.059 193.25,-732.059 196.75,-732.059"/>
</g>
<!-- transition6&#45;&gt;PL10 -->
<g id="edge18" class="edge"><title>transition6&#45;&gt;PL10</title>
<path fill="none" stroke="black" d="M188.02,-834.848C188.216,-833.368 189.807,-821.319 191.421,-809.1"/>
<polygon fill="black" stroke="black" points="194.912,-809.397 192.751,-799.025 187.972,-808.48 194.912,-809.397"/>
</g>
<!-- PL21 -->
<g id="node39" class="node"><title>PL21</title>
<ellipse fill="none" stroke="black" cx="141" cy="-781" rx="18" ry="18"/>
<text text-anchor="middle" x="141" y="-777.3" font-family="Times,serif" font-size="14.00">PL21</text>
</g>
<!-- transition6&#45;&gt;PL21 -->
<g id="edge41" class="edge"><title>transition6&#45;&gt;PL21</title>
<path fill="none" stroke="black" d="M187.865,-834.848C186.311,-833.096 171.623,-816.532 159.098,-802.409"/>
<polygon fill="black" stroke="black" points="161.713,-800.083 152.46,-794.923 156.476,-804.727 161.713,-800.083"/>
</g>
<!-- PL11 -->
<g id="node20" class="node"><title>PL11</title>
<ellipse fill="none" stroke="black" cx="249" cy="-672" rx="18" ry="18"/>
<text text-anchor="middle" x="249" y="-668.3" font-family="Times,serif" font-size="14.00">PL11</text>
</g>
<!-- transition8 -->
<g id="node23" class="node"><title>transition8</title>
<polygon fill="none" stroke="black" points="267,-618 231,-618 231,-617 267,-617 267,-618"/>
<text text-anchor="middle" x="208" y="-621.8" font-family="Times,serif" font-size="14.00">wsldin+</text>
</g>
<!-- PL11&#45;&gt;transition8 -->
<g id="edge21" class="edge"><title>PL11&#45;&gt;transition8</title>
<path fill="none" stroke="black" d="M249,-653.939C249,-643.385 249,-630.534 249,-623.412"/>
<polygon fill="none" stroke="black" points="250.75,-623.059 249,-618.059 247.25,-623.059 250.75,-623.059"/>
</g>
<!-- transition7&#45;&gt;PL11 -->
<g id="edge20" class="edge"><title>transition7&#45;&gt;PL11</title>
<path fill="none" stroke="black" d="M195.155,-725.848C196.988,-724.049 214.738,-706.628 229.365,-692.272"/>
<polygon fill="black" stroke="black" points="231.943,-694.645 236.628,-685.143 227.04,-689.649 231.943,-694.645"/>
</g>
<!-- PL20 -->
<g id="node37" class="node"><title>PL20</title>
<ellipse fill="none" stroke="black" cx="195" cy="-672" rx="18" ry="18"/>
<text text-anchor="middle" x="195" y="-668.3" font-family="Times,serif" font-size="14.00">PL20</text>
</g>
<!-- transition7&#45;&gt;PL20 -->
<g id="edge38" class="edge"><title>transition7&#45;&gt;PL20</title>
<path fill="none" stroke="black" d="M195,-725.848C195,-724.368 195,-712.319 195,-700.1"/>
<polygon fill="black" stroke="black" points="198.5,-700.025 195,-690.025 191.5,-700.025 198.5,-700.025"/>
</g>
<!-- PL12 -->
<g id="node22" class="node"><title>PL12</title>
<ellipse fill="none" stroke="black" cx="222" cy="-563" rx="18" ry="18"/>
<text text-anchor="middle" x="222" y="-559.3" font-family="Times,serif" font-size="14.00">PL12</text>
</g>
<!-- transition17 -->
<g id="node25" class="node"><title>transition17</title>
<polygon fill="none" stroke="black" points="132,-509 96,-509 96,-508 132,-508 132,-509"/>
<text text-anchor="middle" x="48" y="-512.8" font-family="Times,serif" font-size="14.00">y0_ramreadsbuf&#45;</text>
</g>
<!-- PL12&#45;&gt;transition17 -->
<g id="edge23" class="edge"><title>PL12&#45;&gt;transition17</title>
<path fill="none" stroke="black" d="M206.064,-554.18C181.112,-541.935 134.099,-518.864 118.884,-511.397"/>
<polygon fill="none" stroke="black" points="119.305,-509.654 114.045,-509.022 117.763,-512.796 119.305,-509.654"/>
</g>
<!-- transition8&#45;&gt;PL12 -->
<g id="edge22" class="edge"><title>transition8&#45;&gt;PL12</title>
<path fill="none" stroke="black" d="M248.923,-616.848C248.116,-615.265 241.15,-601.591 234.506,-588.55"/>
<polygon fill="black" stroke="black" points="237.477,-586.669 229.819,-579.348 231.239,-589.847 237.477,-586.669"/>
</g>
<!-- PL13 -->
<g id="node24" class="node"><title>PL13</title>
<ellipse fill="none" stroke="black" cx="114" cy="-454" rx="18" ry="18"/>
<text text-anchor="middle" x="114" y="-450.3" font-family="Times,serif" font-size="14.00">PL13</text>
</g>
<!-- transition9 -->
<g id="node27" class="node"><title>transition9</title>
<polygon fill="none" stroke="black" points="132,-400 96,-400 96,-399 132,-399 132,-400"/>
<text text-anchor="middle" x="80" y="-403.8" font-family="Times,serif" font-size="14.00">wsld&#45;</text>
</g>
<!-- PL13&#45;&gt;transition9 -->
<g id="edge25" class="edge"><title>PL13&#45;&gt;transition9</title>
<path fill="none" stroke="black" d="M114,-435.939C114,-425.385 114,-412.534 114,-405.412"/>
<polygon fill="none" stroke="black" points="115.75,-405.059 114,-400.059 112.25,-405.059 115.75,-405.059"/>
</g>
<!-- transition17&#45;&gt;PL13 -->
<g id="edge24" class="edge"><title>transition17&#45;&gt;PL13</title>
<path fill="none" stroke="black" d="M114,-507.848C114,-506.368 114,-494.319 114,-482.1"/>
<polygon fill="black" stroke="black" points="117.5,-482.025 114,-472.025 110.5,-482.025 117.5,-482.025"/>
</g>
<!-- PL14 -->
<g id="node26" class="node"><title>PL14</title>
<ellipse fill="none" stroke="black" cx="114" cy="-345" rx="18" ry="18"/>
<text text-anchor="middle" x="114" y="-341.3" font-family="Times,serif" font-size="14.00">PL14</text>
</g>
<!-- transition10 -->
<g id="node29" class="node"><title>transition10</title>
<polygon fill="none" stroke="black" points="132,-291 96,-291 96,-290 132,-290 132,-291"/>
<text text-anchor="middle" x="74.5" y="-294.8" font-family="Times,serif" font-size="14.00">wsldin&#45;</text>
</g>
<!-- PL14&#45;&gt;transition10 -->
<g id="edge27" class="edge"><title>PL14&#45;&gt;transition10</title>
<path fill="none" stroke="black" d="M114,-326.939C114,-316.385 114,-303.534 114,-296.412"/>
<polygon fill="none" stroke="black" points="115.75,-296.059 114,-291.059 112.25,-296.059 115.75,-296.059"/>
</g>
<!-- transition9&#45;&gt;PL14 -->
<g id="edge26" class="edge"><title>transition9&#45;&gt;PL14</title>
<path fill="none" stroke="black" d="M114,-398.848C114,-397.368 114,-385.319 114,-373.1"/>
<polygon fill="black" stroke="black" points="117.5,-373.025 114,-363.025 110.5,-373.025 117.5,-373.025"/>
</g>
<!-- PL15 -->
<g id="node28" class="node"><title>PL15</title>
<ellipse fill="none" stroke="black" cx="141" cy="-236" rx="18" ry="18"/>
<text text-anchor="middle" x="141" y="-232.3" font-family="Times,serif" font-size="14.00">PL15</text>
</g>
<!-- transition11 -->
<g id="node31" class="node"><title>transition11</title>
<polygon fill="none" stroke="black" points="159,-182 123,-182 123,-181 159,-181 159,-182"/>
<text text-anchor="middle" x="110.5" y="-185.8" font-family="Times,serif" font-size="14.00">ack&#45;</text>
</g>
<!-- PL15&#45;&gt;transition11 -->
<g id="edge29" class="edge"><title>PL15&#45;&gt;transition11</title>
<path fill="none" stroke="black" d="M141,-217.939C141,-207.385 141,-194.534 141,-187.412"/>
<polygon fill="none" stroke="black" points="142.75,-187.059 141,-182.059 139.25,-187.059 142.75,-187.059"/>
</g>
<!-- transition10&#45;&gt;PL15 -->
<g id="edge28" class="edge"><title>transition10&#45;&gt;PL15</title>
<path fill="none" stroke="black" d="M114.077,-289.848C114.884,-288.265 121.85,-274.591 128.494,-261.55"/>
<polygon fill="black" stroke="black" points="131.761,-262.847 133.181,-252.348 125.523,-259.669 131.761,-262.847"/>
</g>
<!-- PL18 -->
<g id="node34" class="node"><title>PL18</title>
<ellipse fill="none" stroke="black" cx="87" cy="-236" rx="18" ry="18"/>
<text text-anchor="middle" x="87" y="-232.3" font-family="Times,serif" font-size="14.00">PL18</text>
</g>
<!-- transition10&#45;&gt;PL18 -->
<g id="edge34" class="edge"><title>transition10&#45;&gt;PL18</title>
<path fill="none" stroke="black" d="M113.923,-289.848C113.116,-288.265 106.15,-274.591 99.5064,-261.55"/>
<polygon fill="black" stroke="black" points="102.477,-259.669 94.8186,-252.348 96.2393,-262.847 102.477,-259.669"/>
</g>
<!-- PL16 -->
<g id="node30" class="node"><title>PL16</title>
<ellipse fill="none" stroke="black" cx="141" cy="-127" rx="18" ry="18"/>
<text text-anchor="middle" x="141" y="-123.3" font-family="Times,serif" font-size="14.00">PL16</text>
</g>
<!-- transition14 -->
<g id="node33" class="node"><title>transition14</title>
<polygon fill="none" stroke="black" points="105,-73 69,-73 69,-72 105,-72 105,-73"/>
<text text-anchor="middle" x="56" y="-76.8" font-family="Times,serif" font-size="14.00">req+</text>
</g>
<!-- PL16&#45;&gt;transition14 -->
<g id="edge31" class="edge"><title>PL16&#45;&gt;transition14</title>
<path fill="none" stroke="black" d="M128.476,-113.708C116.402,-101.858 98.8468,-84.6274 91.0229,-76.9484"/>
<polygon fill="none" stroke="black" points="91.868,-75.3257 87.0737,-73.0723 89.4163,-77.8237 91.868,-75.3257"/>
</g>
<!-- transition11&#45;&gt;PL16 -->
<g id="edge30" class="edge"><title>transition11&#45;&gt;PL16</title>
<path fill="none" stroke="black" d="M141,-180.848C141,-179.368 141,-167.319 141,-155.1"/>
<polygon fill="black" stroke="black" points="144.5,-155.025 141,-145.025 137.5,-155.025 144.5,-155.025"/>
</g>
<!-- PL17 -->
<g id="node32" class="node"><title>PL17</title>
<ellipse fill="none" stroke="black" cx="64" cy="-18" rx="18" ry="18"/>
<text text-anchor="middle" x="64" y="-14.3" font-family="Times,serif" font-size="14.00">PL17</text>
</g>
<!-- PL17&#45;&gt;transition12 -->
<g id="edge33" class="edge"><title>PL17&#45;&gt;transition12</title>
<path fill="none" stroke="black" d="M58.3146,-35.0834C51.5036,-55.8203 41,-93.1288 41,-126 41,-1599 41,-1599 41,-1599 41,-1682.93 186.289,-1703.16 216.528,-1706.46"/>
<polygon fill="none" stroke="black" points="216.721,-1708.24 221.869,-1706.99 217.065,-1704.76 216.721,-1708.24"/>
</g>
<!-- transition14&#45;&gt;PL17 -->
<g id="edge32" class="edge"><title>transition14&#45;&gt;PL17</title>
<path fill="none" stroke="black" d="M86.934,-71.848C86.2621,-70.2997 80.5707,-57.1847 75.0263,-44.4085"/>
<polygon fill="black" stroke="black" points="78.0925,-42.6819 70.9008,-34.9017 71.671,-45.4686 78.0925,-42.6819"/>
</g>
<!-- transition13 -->
<g id="node36" class="node"><title>transition13</title>
<polygon fill="none" stroke="black" points="105,-182 69,-182 69,-181 105,-181 105,-182"/>
<text text-anchor="middle" x="50.5" y="-185.8" font-family="Times,serif" font-size="14.00">wsen+</text>
</g>
<!-- PL18&#45;&gt;transition13 -->
<g id="edge35" class="edge"><title>PL18&#45;&gt;transition13</title>
<path fill="none" stroke="black" d="M87,-217.939C87,-207.385 87,-194.534 87,-187.412"/>
<polygon fill="none" stroke="black" points="88.7501,-187.059 87,-182.059 85.2501,-187.059 88.7501,-187.059"/>
</g>
<!-- PL19 -->
<g id="node35" class="node"><title>PL19</title>
<ellipse fill="none" stroke="black" cx="87" cy="-127" rx="18" ry="18"/>
<text text-anchor="middle" x="87" y="-123.3" font-family="Times,serif" font-size="14.00">PL19</text>
</g>
<!-- PL19&#45;&gt;transition14 -->
<g id="edge37" class="edge"><title>PL19&#45;&gt;transition14</title>
<path fill="none" stroke="black" d="M87,-108.939C87,-98.3852 87,-85.5344 87,-78.4124"/>
<polygon fill="none" stroke="black" points="88.7501,-78.0591 87,-73.0591 85.2501,-78.0592 88.7501,-78.0591"/>
</g>
<!-- transition13&#45;&gt;PL19 -->
<g id="edge36" class="edge"><title>transition13&#45;&gt;PL19</title>
<path fill="none" stroke="black" d="M87,-180.848C87,-179.368 87,-167.319 87,-155.1"/>
<polygon fill="black" stroke="black" points="90.5001,-155.025 87,-145.025 83.5001,-155.025 90.5001,-155.025"/>
</g>
<!-- transition18 -->
<g id="node38" class="node"><title>transition18</title>
<polygon fill="none" stroke="black" points="213,-618 177,-618 177,-617 213,-617 213,-618"/>
<text text-anchor="middle" x="141.5" y="-621.8" font-family="Times,serif" font-size="14.00">precharged+</text>
</g>
<!-- PL20&#45;&gt;transition18 -->
<g id="edge39" class="edge"><title>PL20&#45;&gt;transition18</title>
<path fill="none" stroke="black" d="M195,-653.939C195,-643.385 195,-630.534 195,-623.412"/>
<polygon fill="none" stroke="black" points="196.75,-623.059 195,-618.059 193.25,-623.059 196.75,-623.059"/>
</g>
<!-- transition18&#45;&gt;PL1 -->
<g id="edge40" class="edge"><title>transition18&#45;&gt;PL1</title>
<path fill="none" stroke="black" d="M195.16,-618.018C198.437,-618.399 251.26,-624.941 276,-654 297.454,-679.2 295,-692.905 295,-726 295,-1654 295,-1654 295,-1654 295,-1683.83 281.998,-1715.89 271.409,-1737.06"/>
<polygon fill="black" stroke="black" points="268.282,-1735.49 266.768,-1745.97 274.491,-1738.72 268.282,-1735.49"/>
</g>
<!-- transition15 -->
<g id="node41" class="node"><title>transition15</title>
<polygon fill="none" stroke="black" points="159,-727 123,-727 123,-726 159,-726 159,-727"/>
<text text-anchor="middle" x="105.5" y="-730.8" font-family="Times,serif" font-size="14.00">prnot&#45;</text>
</g>
<!-- PL21&#45;&gt;transition15 -->
<g id="edge42" class="edge"><title>PL21&#45;&gt;transition15</title>
<path fill="none" stroke="black" d="M141,-762.939C141,-752.385 141,-739.534 141,-732.412"/>
<polygon fill="none" stroke="black" points="142.75,-732.059 141,-727.059 139.25,-732.059 142.75,-732.059"/>
</g>
<!-- PL22 -->
<g id="node40" class="node"><title>PL22</title>
<ellipse fill="none" stroke="black" cx="87" cy="-672" rx="18" ry="18"/>
<text text-anchor="middle" x="87" y="-668.3" font-family="Times,serif" font-size="14.00">PL22</text>
</g>
<!-- transition16 -->
<g id="node43" class="node"><title>transition16</title>
<polygon fill="none" stroke="black" points="119,-618 83,-618 83,-617 119,-617 119,-618"/>
<text text-anchor="middle" x="60" y="-621.8" font-family="Times,serif" font-size="14.00">prnotin&#45;</text>
</g>
<!-- PL22&#45;&gt;transition16 -->
<g id="edge44" class="edge"><title>PL22&#45;&gt;transition16</title>
<path fill="none" stroke="black" d="M91.3529,-654.521C94.2145,-643.688 97.7682,-630.235 99.6628,-623.062"/>
<polygon fill="none" stroke="black" points="101.399,-623.342 100.984,-618.061 98.015,-622.448 101.399,-623.342"/>
</g>
<!-- transition15&#45;&gt;PL22 -->
<g id="edge43" class="edge"><title>transition15&#45;&gt;PL22</title>
<path fill="none" stroke="black" d="M140.845,-725.848C139.012,-724.049 121.262,-706.628 106.635,-692.272"/>
<polygon fill="black" stroke="black" points="108.96,-689.649 99.3718,-685.143 104.057,-694.645 108.96,-689.649"/>
</g>
<!-- PL24 -->
<g id="node44" class="node"><title>PL24</title>
<ellipse fill="none" stroke="black" cx="141" cy="-672" rx="18" ry="18"/>
<text text-anchor="middle" x="141" y="-668.3" font-family="Times,serif" font-size="14.00">PL24</text>
</g>
<!-- transition15&#45;&gt;PL24 -->
<g id="edge47" class="edge"><title>transition15&#45;&gt;PL24</title>
<path fill="none" stroke="black" d="M141,-725.848C141,-724.368 141,-712.319 141,-700.1"/>
<polygon fill="black" stroke="black" points="144.5,-700.025 141,-690.025 137.5,-700.025 144.5,-700.025"/>
</g>
<!-- PL23 -->
<g id="node42" class="node"><title>PL23</title>
<ellipse fill="none" stroke="black" cx="114" cy="-563" rx="18" ry="18"/>
<text text-anchor="middle" x="114" y="-559.3" font-family="Times,serif" font-size="14.00">PL23</text>
</g>
<!-- PL23&#45;&gt;transition17 -->
<g id="edge46" class="edge"><title>PL23&#45;&gt;transition17</title>
<path fill="none" stroke="black" d="M114,-544.939C114,-534.385 114,-521.534 114,-514.412"/>
<polygon fill="none" stroke="black" points="115.75,-514.059 114,-509.059 112.25,-514.059 115.75,-514.059"/>
</g>
<!-- transition16&#45;&gt;PL23 -->
<g id="edge45" class="edge"><title>transition16&#45;&gt;PL23</title>
<path fill="none" stroke="black" d="M101.037,-616.848C101.406,-615.344 104.454,-602.919 107.501,-590.496"/>
<polygon fill="black" stroke="black" points="110.91,-591.288 109.893,-580.742 104.112,-589.621 110.91,-591.288"/>
</g>
<!-- PL24&#45;&gt;transition18 -->
<g id="edge48" class="edge"><title>PL24&#45;&gt;transition18</title>
<path fill="none" stroke="black" d="M153.524,-658.708C165.598,-646.858 183.153,-629.627 190.977,-621.948"/>
<polygon fill="none" stroke="black" points="192.584,-622.824 194.926,-618.072 190.132,-620.326 192.584,-622.824"/>
</g>
<!-- transition19 -->
<g id="node47" class="node"><title>transition19</title>
<polygon fill="none" stroke="black" points="254,-1054 218,-1054 218,-1053 254,-1053 254,-1054"/>
<text text-anchor="middle" x="201" y="-1057.8" font-family="Times,serif" font-size="14.00">wsen&#45;</text>
</g>
<!-- PL25&#45;&gt;transition19 -->
<g id="edge50" class="edge"><title>PL25&#45;&gt;transition19</title>
<path fill="none" stroke="black" d="M236,-1089.94C236,-1079.39 236,-1066.53 236,-1059.41"/>
<polygon fill="none" stroke="black" points="237.75,-1059.06 236,-1054.06 234.25,-1059.06 237.75,-1059.06"/>
</g>
<!-- PL26 -->
<g id="node46" class="node"><title>PL26</title>
<ellipse fill="none" stroke="black" cx="236" cy="-999" rx="18" ry="18"/>
<text text-anchor="middle" x="236" y="-995.3" font-family="Times,serif" font-size="14.00">PL26</text>
</g>
<!-- PL26&#45;&gt;transition20 -->
<g id="edge52" class="edge"><title>PL26&#45;&gt;transition20</title>
<path fill="none" stroke="black" d="M224.381,-985.17C213.629,-973.299 198.313,-956.387 191.5,-948.865"/>
<polygon fill="none" stroke="black" points="192.718,-947.602 188.064,-945.071 190.123,-949.952 192.718,-947.602"/>
</g>
<!-- transition19&#45;&gt;PL26 -->
<g id="edge51" class="edge"><title>transition19&#45;&gt;PL26</title>
<path fill="none" stroke="black" d="M236,-1052.85C236,-1051.37 236,-1039.32 236,-1027.1"/>
<polygon fill="black" stroke="black" points="239.5,-1027.02 236,-1017.02 232.5,-1027.02 239.5,-1027.02"/>
</g>
<!-- transition21 -->
<g id="node50" class="node"><title>transition21</title>
<polygon fill="none" stroke="black" points="267,-1381 231,-1381 231,-1380 267,-1380 267,-1381"/>
<text text-anchor="middle" x="209.5" y="-1384.8" font-family="Times,serif" font-size="14.00">wenin+</text>
</g>
<!-- PL27&#45;&gt;transition21 -->
<g id="edge54" class="edge"><title>PL27&#45;&gt;transition21</title>
<path fill="none" stroke="black" d="M249,-1416.94C249,-1406.39 249,-1393.53 249,-1386.41"/>
<polygon fill="none" stroke="black" points="250.75,-1386.06 249,-1381.06 247.25,-1386.06 250.75,-1386.06"/>
</g>
<!-- PL28 -->
<g id="node49" class="node"><title>PL28</title>
<ellipse fill="none" stroke="black" cx="249" cy="-1326" rx="18" ry="18"/>
<text text-anchor="middle" x="249" y="-1322.3" font-family="Times,serif" font-size="14.00">PL28</text>
</g>
<!-- PL28&#45;&gt;transition22 -->
<g id="edge56" class="edge"><title>PL28&#45;&gt;transition22</title>
<path fill="none" stroke="black" d="M241.19,-1309.67C235.517,-1298.53 228.204,-1284.18 224.455,-1276.82"/>
<polygon fill="none" stroke="black" points="225.861,-1275.72 222.032,-1272.06 222.743,-1277.31 225.861,-1275.72"/>
</g>
<!-- transition21&#45;&gt;PL28 -->
<g id="edge55" class="edge"><title>transition21&#45;&gt;PL28</title>
<path fill="none" stroke="black" d="M249,-1379.85C249,-1378.37 249,-1366.32 249,-1354.1"/>
<polygon fill="black" stroke="black" points="252.5,-1354.02 249,-1344.02 245.5,-1354.02 252.5,-1354.02"/>
</g>
</g>
</svg>
