<?xml version="1.0" encoding="UTF-8" standalone="no"?>
<!DOCTYPE svg PUBLIC "-//W3C//DTD SVG 1.1//EN"
 "http://www.w3.org/Graphics/SVG/1.1/DTD/svg11.dtd">
<!-- Generated by graphviz version 2.38.0 (20140413.2041)
 -->
<!-- Title: %3 Pages: 1 -->
<svg width="87pt" height="2370pt"
 viewBox="0.00 0.00 87.00 2370.00" xmlns="http://www.w3.org/2000/svg" xmlns:xlink="http://www.w3.org/1999/xlink">
<g id="graph0" class="graph" transform="scale(1 1) rotate(0) translate(4 2366)">
<title>%3</title>
<polygon fill="white" stroke="none" points="-4,4 -4,-2366 83,-2366 83,4 -4,4"/>
<!-- PL1 -->
<g id="node1" class="node"><title>PL1</title>
<ellipse fill="none" stroke="black" cx="56" cy="-2344" rx="18" ry="18"/>
<text text-anchor="middle" x="56" y="-2340.3" font-family="Times,serif" font-size="14.00">PL1</text>
</g>
<!-- transition1 -->
<g id="node3" class="node"><title>transition1</title>
<polygon fill="none" stroke="black" points="51,-2290 15,-2290 15,-2289 51,-2289 51,-2290"/>
<text text-anchor="middle" x="7.5" y="-2293.8" font-family="Times,serif" font-size="14.00">d+</text>
</g>
<!-- PL1&#45;&gt;transition1 -->
<g id="edge1" class="edge"><title>PL1&#45;&gt;transition1</title>
<path fill="none" stroke="black" d="M49.0992,-2327.1C44.2795,-2315.99 38.1693,-2301.91 35.0441,-2294.71"/>
<polygon fill="none" stroke="black" points="36.6228,-2293.95 33.027,-2290.06 33.4121,-2295.35 36.6228,-2293.95"/>
</g>
<!-- PL2 -->
<g id="node2" class="node"><title>PL2</title>
<ellipse fill="none" stroke="black" cx="33" cy="-2235" rx="18" ry="18"/>
<text text-anchor="middle" x="33" y="-2231.3" font-family="Times,serif" font-size="14.00">PL2</text>
</g>
<!-- transition2 -->
<g id="node5" class="node"><title>transition2</title>
<polygon fill="none" stroke="black" points="51,-2181 15,-2181 15,-2180 51,-2180 51,-2181"/>
<text text-anchor="middle" x="7.5" y="-2184.8" font-family="Times,serif" font-size="14.00">b+</text>
</g>
<!-- PL2&#45;&gt;transition2 -->
<g id="edge3" class="edge"><title>PL2&#45;&gt;transition2</title>
<path fill="none" stroke="black" d="M33,-2216.94C33,-2206.39 33,-2193.53 33,-2186.41"/>
<polygon fill="none" stroke="black" points="34.7501,-2186.06 33,-2181.06 31.2501,-2186.06 34.7501,-2186.06"/>
</g>
<!-- transition1&#45;&gt;PL2 -->
<g id="edge2" class="edge"><title>transition1&#45;&gt;PL2</title>
<path fill="none" stroke="black" d="M33,-2288.85C33,-2287.37 33,-2275.32 33,-2263.1"/>
<polygon fill="black" stroke="black" points="36.5001,-2263.02 33,-2253.02 29.5001,-2263.02 36.5001,-2263.02"/>
</g>
<!-- PL3 -->
<g id="node4" class="node"><title>PL3</title>
<ellipse fill="none" stroke="black" cx="33" cy="-2126" rx="18" ry="18"/>
<text text-anchor="middle" x="33" y="-2122.3" font-family="Times,serif" font-size="14.00">PL3</text>
</g>
<!-- transition3 -->
<g id="node7" class="node"><title>transition3</title>
<polygon fill="none" stroke="black" points="51,-2072 15,-2072 15,-2071 51,-2071 51,-2072"/>
<text text-anchor="middle" x="7.5" y="-2075.8" font-family="Times,serif" font-size="14.00">c+</text>
</g>
<!-- PL3&#45;&gt;transition3 -->
<g id="edge5" class="edge"><title>PL3&#45;&gt;transition3</title>
<path fill="none" stroke="black" d="M33,-2107.94C33,-2097.39 33,-2084.53 33,-2077.41"/>
<polygon fill="none" stroke="black" points="34.7501,-2077.06 33,-2072.06 31.2501,-2077.06 34.7501,-2077.06"/>
</g>
<!-- transition2&#45;&gt;PL3 -->
<g id="edge4" class="edge"><title>transition2&#45;&gt;PL3</title>
<path fill="none" stroke="black" d="M33,-2179.85C33,-2178.37 33,-2166.32 33,-2154.1"/>
<polygon fill="black" stroke="black" points="36.5001,-2154.02 33,-2144.02 29.5001,-2154.02 36.5001,-2154.02"/>
</g>
<!-- PL4 -->
<g id="node6" class="node"><title>PL4</title>
<ellipse fill="none" stroke="black" cx="33" cy="-2017" rx="18" ry="18"/>
<text text-anchor="middle" x="33" y="-2013.3" font-family="Times,serif" font-size="14.00">PL4</text>
</g>
<!-- transition4 -->
<g id="node9" class="node"><title>transition4</title>
<polygon fill="none" stroke="black" points="51,-1963 15,-1963 15,-1962 51,-1962 51,-1963"/>
<text text-anchor="middle" x="9" y="-1966.8" font-family="Times,serif" font-size="14.00">b&#45;</text>
</g>
<!-- PL4&#45;&gt;transition4 -->
<g id="edge7" class="edge"><title>PL4&#45;&gt;transition4</title>
<path fill="none" stroke="black" d="M33,-1998.94C33,-1988.39 33,-1975.53 33,-1968.41"/>
<polygon fill="none" stroke="black" points="34.7501,-1968.06 33,-1963.06 31.2501,-1968.06 34.7501,-1968.06"/>
</g>
<!-- transition3&#45;&gt;PL4 -->
<g id="edge6" class="edge"><title>transition3&#45;&gt;PL4</title>
<path fill="none" stroke="black" d="M33,-2070.85C33,-2069.37 33,-2057.32 33,-2045.1"/>
<polygon fill="black" stroke="black" points="36.5001,-2045.02 33,-2035.02 29.5001,-2045.02 36.5001,-2045.02"/>
</g>
<!-- PL5 -->
<g id="node8" class="node"><title>PL5</title>
<ellipse fill="none" stroke="black" cx="33" cy="-1908" rx="18" ry="18"/>
<text text-anchor="middle" x="33" y="-1904.3" font-family="Times,serif" font-size="14.00">PL5</text>
</g>
<!-- transition5 -->
<g id="node11" class="node"><title>transition5</title>
<polygon fill="none" stroke="black" points="51,-1854 15,-1854 15,-1853 51,-1853 51,-1854"/>
<text text-anchor="middle" x="10.5" y="-1857.8" font-family="Times,serif" font-size="14.00">t&#45;</text>
</g>
<!-- PL5&#45;&gt;transition5 -->
<g id="edge9" class="edge"><title>PL5&#45;&gt;transition5</title>
<path fill="none" stroke="black" d="M33,-1889.94C33,-1879.39 33,-1866.53 33,-1859.41"/>
<polygon fill="none" stroke="black" points="34.7501,-1859.06 33,-1854.06 31.2501,-1859.06 34.7501,-1859.06"/>
</g>
<!-- transition4&#45;&gt;PL5 -->
<g id="edge8" class="edge"><title>transition4&#45;&gt;PL5</title>
<path fill="none" stroke="black" d="M33,-1961.85C33,-1960.37 33,-1948.32 33,-1936.1"/>
<polygon fill="black" stroke="black" points="36.5001,-1936.02 33,-1926.02 29.5001,-1936.02 36.5001,-1936.02"/>
</g>
<!-- PL6 -->
<g id="node10" class="node"><title>PL6</title>
<ellipse fill="none" stroke="black" cx="33" cy="-1799" rx="18" ry="18"/>
<text text-anchor="middle" x="33" y="-1795.3" font-family="Times,serif" font-size="14.00">PL6</text>
</g>
<!-- transition6 -->
<g id="node13" class="node"><title>transition6</title>
<polygon fill="none" stroke="black" points="51,-1745 15,-1745 15,-1744 51,-1744 51,-1745"/>
<text text-anchor="middle" x="9" y="-1748.8" font-family="Times,serif" font-size="14.00">d&#45;</text>
</g>
<!-- PL6&#45;&gt;transition6 -->
<g id="edge11" class="edge"><title>PL6&#45;&gt;transition6</title>
<path fill="none" stroke="black" d="M33,-1780.94C33,-1770.39 33,-1757.53 33,-1750.41"/>
<polygon fill="none" stroke="black" points="34.7501,-1750.06 33,-1745.06 31.2501,-1750.06 34.7501,-1750.06"/>
</g>
<!-- transition5&#45;&gt;PL6 -->
<g id="edge10" class="edge"><title>transition5&#45;&gt;PL6</title>
<path fill="none" stroke="black" d="M33,-1852.85C33,-1851.37 33,-1839.32 33,-1827.1"/>
<polygon fill="black" stroke="black" points="36.5001,-1827.02 33,-1817.02 29.5001,-1827.02 36.5001,-1827.02"/>
</g>
<!-- PL7 -->
<g id="node12" class="node"><title>PL7</title>
<ellipse fill="none" stroke="black" cx="33" cy="-1690" rx="18" ry="18"/>
<text text-anchor="middle" x="33" y="-1686.3" font-family="Times,serif" font-size="14.00">PL7</text>
</g>
<!-- transition7 -->
<g id="node15" class="node"><title>transition7</title>
<polygon fill="none" stroke="black" points="51,-1636 15,-1636 15,-1635 51,-1635 51,-1636"/>
<text text-anchor="middle" x="9" y="-1639.8" font-family="Times,serif" font-size="14.00">t+</text>
</g>
<!-- PL7&#45;&gt;transition7 -->
<g id="edge13" class="edge"><title>PL7&#45;&gt;transition7</title>
<path fill="none" stroke="black" d="M33,-1671.94C33,-1661.39 33,-1648.53 33,-1641.41"/>
<polygon fill="none" stroke="black" points="34.7501,-1641.06 33,-1636.06 31.2501,-1641.06 34.7501,-1641.06"/>
</g>
<!-- transition6&#45;&gt;PL7 -->
<g id="edge12" class="edge"><title>transition6&#45;&gt;PL7</title>
<path fill="none" stroke="black" d="M33,-1743.85C33,-1742.37 33,-1730.32 33,-1718.1"/>
<polygon fill="black" stroke="black" points="36.5001,-1718.02 33,-1708.02 29.5001,-1718.02 36.5001,-1718.02"/>
</g>
<!-- PL8 -->
<g id="node14" class="node"><title>PL8</title>
<ellipse fill="none" stroke="black" cx="33" cy="-1581" rx="18" ry="18"/>
<text text-anchor="middle" x="33" y="-1577.3" font-family="Times,serif" font-size="14.00">PL8</text>
</g>
<!-- transition8 -->
<g id="node17" class="node"><title>transition8</title>
<polygon fill="none" stroke="black" points="51,-1527 15,-1527 15,-1526 51,-1526 51,-1527"/>
<text text-anchor="middle" x="7.5" y="-1530.8" font-family="Times,serif" font-size="14.00">b+</text>
</g>
<!-- PL8&#45;&gt;transition8 -->
<g id="edge15" class="edge"><title>PL8&#45;&gt;transition8</title>
<path fill="none" stroke="black" d="M33,-1562.94C33,-1552.39 33,-1539.53 33,-1532.41"/>
<polygon fill="none" stroke="black" points="34.7501,-1532.06 33,-1527.06 31.2501,-1532.06 34.7501,-1532.06"/>
</g>
<!-- transition7&#45;&gt;PL8 -->
<g id="edge14" class="edge"><title>transition7&#45;&gt;PL8</title>
<path fill="none" stroke="black" d="M33,-1634.85C33,-1633.37 33,-1621.32 33,-1609.1"/>
<polygon fill="black" stroke="black" points="36.5001,-1609.02 33,-1599.02 29.5001,-1609.02 36.5001,-1609.02"/>
</g>
<!-- PL9 -->
<g id="node16" class="node"><title>PL9</title>
<ellipse fill="none" stroke="black" cx="33" cy="-1472" rx="18" ry="18"/>
<text text-anchor="middle" x="33" y="-1468.3" font-family="Times,serif" font-size="14.00">PL9</text>
</g>
<!-- transition9 -->
<g id="node19" class="node"><title>transition9</title>
<polygon fill="none" stroke="black" points="51,-1418 15,-1418 15,-1417 51,-1417 51,-1418"/>
<text text-anchor="middle" x="7.5" y="-1421.8" font-family="Times,serif" font-size="14.00">a+</text>
</g>
<!-- PL9&#45;&gt;transition9 -->
<g id="edge17" class="edge"><title>PL9&#45;&gt;transition9</title>
<path fill="none" stroke="black" d="M33,-1453.94C33,-1443.39 33,-1430.53 33,-1423.41"/>
<polygon fill="none" stroke="black" points="34.7501,-1423.06 33,-1418.06 31.2501,-1423.06 34.7501,-1423.06"/>
</g>
<!-- transition8&#45;&gt;PL9 -->
<g id="edge16" class="edge"><title>transition8&#45;&gt;PL9</title>
<path fill="none" stroke="black" d="M33,-1525.85C33,-1524.37 33,-1512.32 33,-1500.1"/>
<polygon fill="black" stroke="black" points="36.5001,-1500.02 33,-1490.02 29.5001,-1500.02 36.5001,-1500.02"/>
</g>
<!-- PL10 -->
<g id="node18" class="node"><title>PL10</title>
<ellipse fill="none" stroke="black" cx="33" cy="-1363" rx="18" ry="18"/>
<text text-anchor="middle" x="33" y="-1359.3" font-family="Times,serif" font-size="14.00">PL10</text>
</g>
<!-- transition10 -->
<g id="node21" class="node"><title>transition10</title>
<polygon fill="none" stroke="black" points="51,-1309 15,-1309 15,-1308 51,-1308 51,-1309"/>
<text text-anchor="middle" x="9" y="-1312.8" font-family="Times,serif" font-size="14.00">b&#45;</text>
</g>
<!-- PL10&#45;&gt;transition10 -->
<g id="edge19" class="edge"><title>PL10&#45;&gt;transition10</title>
<path fill="none" stroke="black" d="M33,-1344.94C33,-1334.39 33,-1321.53 33,-1314.41"/>
<polygon fill="none" stroke="black" points="34.7501,-1314.06 33,-1309.06 31.2501,-1314.06 34.7501,-1314.06"/>
</g>
<!-- transition9&#45;&gt;PL10 -->
<g id="edge18" class="edge"><title>transition9&#45;&gt;PL10</title>
<path fill="none" stroke="black" d="M33,-1416.85C33,-1415.37 33,-1403.32 33,-1391.1"/>
<polygon fill="black" stroke="black" points="36.5001,-1391.02 33,-1381.02 29.5001,-1391.02 36.5001,-1391.02"/>
</g>
<!-- PL11 -->
<g id="node20" class="node"><title>PL11</title>
<ellipse fill="none" stroke="black" cx="33" cy="-1254" rx="18" ry="18"/>
<text text-anchor="middle" x="33" y="-1250.3" font-family="Times,serif" font-size="14.00">PL11</text>
</g>
<!-- transition11 -->
<g id="node23" class="node"><title>transition11</title>
<polygon fill="none" stroke="black" points="51,-1200 15,-1200 15,-1199 51,-1199 51,-1200"/>
<text text-anchor="middle" x="7.5" y="-1203.8" font-family="Times,serif" font-size="14.00">d+</text>
</g>
<!-- PL11&#45;&gt;transition11 -->
<g id="edge21" class="edge"><title>PL11&#45;&gt;transition11</title>
<path fill="none" stroke="black" d="M33,-1235.94C33,-1225.39 33,-1212.53 33,-1205.41"/>
<polygon fill="none" stroke="black" points="34.7501,-1205.06 33,-1200.06 31.2501,-1205.06 34.7501,-1205.06"/>
</g>
<!-- transition10&#45;&gt;PL11 -->
<g id="edge20" class="edge"><title>transition10&#45;&gt;PL11</title>
<path fill="none" stroke="black" d="M33,-1307.85C33,-1306.37 33,-1294.32 33,-1282.1"/>
<polygon fill="black" stroke="black" points="36.5001,-1282.02 33,-1272.02 29.5001,-1282.02 36.5001,-1282.02"/>
</g>
<!-- PL12 -->
<g id="node22" class="node"><title>PL12</title>
<ellipse fill="none" stroke="black" cx="33" cy="-1145" rx="18" ry="18"/>
<text text-anchor="middle" x="33" y="-1141.3" font-family="Times,serif" font-size="14.00">PL12</text>
</g>
<!-- transition12 -->
<g id="node25" class="node"><title>transition12</title>
<polygon fill="none" stroke="black" points="51,-1091 15,-1091 15,-1090 51,-1090 51,-1091"/>
<text text-anchor="middle" x="7.5" y="-1094.8" font-family="Times,serif" font-size="14.00">b+</text>
</g>
<!-- PL12&#45;&gt;transition12 -->
<g id="edge23" class="edge"><title>PL12&#45;&gt;transition12</title>
<path fill="none" stroke="black" d="M33,-1126.94C33,-1116.39 33,-1103.53 33,-1096.41"/>
<polygon fill="none" stroke="black" points="34.7501,-1096.06 33,-1091.06 31.2501,-1096.06 34.7501,-1096.06"/>
</g>
<!-- transition11&#45;&gt;PL12 -->
<g id="edge22" class="edge"><title>transition11&#45;&gt;PL12</title>
<path fill="none" stroke="black" d="M33,-1198.85C33,-1197.37 33,-1185.32 33,-1173.1"/>
<polygon fill="black" stroke="black" points="36.5001,-1173.02 33,-1163.02 29.5001,-1173.02 36.5001,-1173.02"/>
</g>
<!-- PL13 -->
<g id="node24" class="node"><title>PL13</title>
<ellipse fill="none" stroke="black" cx="33" cy="-1036" rx="18" ry="18"/>
<text text-anchor="middle" x="33" y="-1032.3" font-family="Times,serif" font-size="14.00">PL13</text>
</g>
<!-- transition13 -->
<g id="node27" class="node"><title>transition13</title>
<polygon fill="none" stroke="black" points="51,-982 15,-982 15,-981 51,-981 51,-982"/>
<text text-anchor="middle" x="10.5" y="-985.8" font-family="Times,serif" font-size="14.00">t&#45;</text>
</g>
<!-- PL13&#45;&gt;transition13 -->
<g id="edge25" class="edge"><title>PL13&#45;&gt;transition13</title>
<path fill="none" stroke="black" d="M33,-1017.94C33,-1007.39 33,-994.534 33,-987.412"/>
<polygon fill="none" stroke="black" points="34.7501,-987.059 33,-982.059 31.2501,-987.059 34.7501,-987.059"/>
</g>
<!-- transition12&#45;&gt;PL13 -->
<g id="edge24" class="edge"><title>transition12&#45;&gt;PL13</title>
<path fill="none" stroke="black" d="M33,-1089.85C33,-1088.37 33,-1076.32 33,-1064.1"/>
<polygon fill="black" stroke="black" points="36.5001,-1064.02 33,-1054.02 29.5001,-1064.02 36.5001,-1064.02"/>
</g>
<!-- PL14 -->
<g id="node26" class="node"><title>PL14</title>
<ellipse fill="none" stroke="black" cx="33" cy="-927" rx="18" ry="18"/>
<text text-anchor="middle" x="33" y="-923.3" font-family="Times,serif" font-size="14.00">PL14</text>
</g>
<!-- transition14 -->
<g id="node29" class="node"><title>transition14</title>
<polygon fill="none" stroke="black" points="51,-873 15,-873 15,-872 51,-872 51,-873"/>
<text text-anchor="middle" x="9.5" y="-876.8" font-family="Times,serif" font-size="14.00">c&#45;</text>
</g>
<!-- PL14&#45;&gt;transition14 -->
<g id="edge27" class="edge"><title>PL14&#45;&gt;transition14</title>
<path fill="none" stroke="black" d="M33,-908.939C33,-898.385 33,-885.534 33,-878.412"/>
<polygon fill="none" stroke="black" points="34.7501,-878.059 33,-873.059 31.2501,-878.059 34.7501,-878.059"/>
</g>
<!-- transition13&#45;&gt;PL14 -->
<g id="edge26" class="edge"><title>transition13&#45;&gt;PL14</title>
<path fill="none" stroke="black" d="M33,-980.848C33,-979.368 33,-967.319 33,-955.1"/>
<polygon fill="black" stroke="black" points="36.5001,-955.025 33,-945.025 29.5001,-955.025 36.5001,-955.025"/>
</g>
<!-- PL15 -->
<g id="node28" class="node"><title>PL15</title>
<ellipse fill="none" stroke="black" cx="33" cy="-818" rx="18" ry="18"/>
<text text-anchor="middle" x="33" y="-814.3" font-family="Times,serif" font-size="14.00">PL15</text>
</g>
<!-- transition15 -->
<g id="node31" class="node"><title>transition15</title>
<polygon fill="none" stroke="black" points="51,-764 15,-764 15,-763 51,-763 51,-764"/>
<text text-anchor="middle" x="9" y="-767.8" font-family="Times,serif" font-size="14.00">t+</text>
</g>
<!-- PL15&#45;&gt;transition15 -->
<g id="edge29" class="edge"><title>PL15&#45;&gt;transition15</title>
<path fill="none" stroke="black" d="M33,-799.939C33,-789.385 33,-776.534 33,-769.412"/>
<polygon fill="none" stroke="black" points="34.7501,-769.059 33,-764.059 31.2501,-769.059 34.7501,-769.059"/>
</g>
<!-- transition14&#45;&gt;PL15 -->
<g id="edge28" class="edge"><title>transition14&#45;&gt;PL15</title>
<path fill="none" stroke="black" d="M33,-871.848C33,-870.368 33,-858.319 33,-846.1"/>
<polygon fill="black" stroke="black" points="36.5001,-846.025 33,-836.025 29.5001,-846.025 36.5001,-846.025"/>
</g>
<!-- PL16 -->
<g id="node30" class="node"><title>PL16</title>
<ellipse fill="none" stroke="black" cx="33" cy="-709" rx="18" ry="18"/>
<text text-anchor="middle" x="33" y="-705.3" font-family="Times,serif" font-size="14.00">PL16</text>
</g>
<!-- transition16 -->
<g id="node33" class="node"><title>transition16</title>
<polygon fill="none" stroke="black" points="51,-655 15,-655 15,-654 51,-654 51,-655"/>
<text text-anchor="middle" x="9" y="-658.8" font-family="Times,serif" font-size="14.00">b&#45;</text>
</g>
<!-- PL16&#45;&gt;transition16 -->
<g id="edge31" class="edge"><title>PL16&#45;&gt;transition16</title>
<path fill="none" stroke="black" d="M33,-690.939C33,-680.385 33,-667.534 33,-660.412"/>
<polygon fill="none" stroke="black" points="34.7501,-660.059 33,-655.059 31.2501,-660.059 34.7501,-660.059"/>
</g>
<!-- transition15&#45;&gt;PL16 -->
<g id="edge30" class="edge"><title>transition15&#45;&gt;PL16</title>
<path fill="none" stroke="black" d="M33,-762.848C33,-761.368 33,-749.319 33,-737.1"/>
<polygon fill="black" stroke="black" points="36.5001,-737.025 33,-727.025 29.5001,-737.025 36.5001,-737.025"/>
</g>
<!-- PL17 -->
<g id="node32" class="node"><title>PL17</title>
<ellipse fill="none" stroke="black" cx="33" cy="-600" rx="18" ry="18"/>
<text text-anchor="middle" x="33" y="-596.3" font-family="Times,serif" font-size="14.00">PL17</text>
</g>
<!-- transition17 -->
<g id="node35" class="node"><title>transition17</title>
<polygon fill="none" stroke="black" points="51,-546 15,-546 15,-545 51,-545 51,-546"/>
<text text-anchor="middle" x="9" y="-549.8" font-family="Times,serif" font-size="14.00">d&#45;</text>
</g>
<!-- PL17&#45;&gt;transition17 -->
<g id="edge33" class="edge"><title>PL17&#45;&gt;transition17</title>
<path fill="none" stroke="black" d="M33,-581.939C33,-571.385 33,-558.534 33,-551.412"/>
<polygon fill="none" stroke="black" points="34.7501,-551.059 33,-546.059 31.2501,-551.059 34.7501,-551.059"/>
</g>
<!-- transition16&#45;&gt;PL17 -->
<g id="edge32" class="edge"><title>transition16&#45;&gt;PL17</title>
<path fill="none" stroke="black" d="M33,-653.848C33,-652.368 33,-640.319 33,-628.1"/>
<polygon fill="black" stroke="black" points="36.5001,-628.025 33,-618.025 29.5001,-628.025 36.5001,-628.025"/>
</g>
<!-- PL18 -->
<g id="node34" class="node"><title>PL18</title>
<ellipse fill="none" stroke="black" cx="33" cy="-491" rx="18" ry="18"/>
<text text-anchor="middle" x="33" y="-487.3" font-family="Times,serif" font-size="14.00">PL18</text>
</g>
<!-- transition18 -->
<g id="node37" class="node"><title>transition18</title>
<polygon fill="none" stroke="black" points="51,-437 15,-437 15,-436 51,-436 51,-437"/>
<text text-anchor="middle" x="7.5" y="-440.8" font-family="Times,serif" font-size="14.00">b+</text>
</g>
<!-- PL18&#45;&gt;transition18 -->
<g id="edge35" class="edge"><title>PL18&#45;&gt;transition18</title>
<path fill="none" stroke="black" d="M33,-472.939C33,-462.385 33,-449.534 33,-442.412"/>
<polygon fill="none" stroke="black" points="34.7501,-442.059 33,-437.059 31.2501,-442.059 34.7501,-442.059"/>
</g>
<!-- transition17&#45;&gt;PL18 -->
<g id="edge34" class="edge"><title>transition17&#45;&gt;PL18</title>
<path fill="none" stroke="black" d="M33,-544.848C33,-543.368 33,-531.319 33,-519.1"/>
<polygon fill="black" stroke="black" points="36.5001,-519.025 33,-509.025 29.5001,-519.025 36.5001,-519.025"/>
</g>
<!-- PL19 -->
<g id="node36" class="node"><title>PL19</title>
<ellipse fill="none" stroke="black" cx="33" cy="-382" rx="18" ry="18"/>
<text text-anchor="middle" x="33" y="-378.3" font-family="Times,serif" font-size="14.00">PL19</text>
</g>
<!-- transition19 -->
<g id="node39" class="node"><title>transition19</title>
<polygon fill="none" stroke="black" points="51,-328 15,-328 15,-327 51,-327 51,-328"/>
<text text-anchor="middle" x="10.5" y="-331.8" font-family="Times,serif" font-size="14.00">t&#45;</text>
</g>
<!-- PL19&#45;&gt;transition19 -->
<g id="edge37" class="edge"><title>PL19&#45;&gt;transition19</title>
<path fill="none" stroke="black" d="M33,-363.939C33,-353.385 33,-340.534 33,-333.412"/>
<polygon fill="none" stroke="black" points="34.7501,-333.059 33,-328.059 31.2501,-333.059 34.7501,-333.059"/>
</g>
<!-- transition18&#45;&gt;PL19 -->
<g id="edge36" class="edge"><title>transition18&#45;&gt;PL19</title>
<path fill="none" stroke="black" d="M33,-435.848C33,-434.368 33,-422.319 33,-410.1"/>
<polygon fill="black" stroke="black" points="36.5001,-410.025 33,-400.025 29.5001,-410.025 36.5001,-410.025"/>
</g>
<!-- PL20 -->
<g id="node38" class="node"><title>PL20</title>
<ellipse fill="none" stroke="black" cx="33" cy="-273" rx="18" ry="18"/>
<text text-anchor="middle" x="33" y="-269.3" font-family="Times,serif" font-size="14.00">PL20</text>
</g>
<!-- transition20 -->
<g id="node41" class="node"><title>transition20</title>
<polygon fill="none" stroke="black" points="51,-219 15,-219 15,-218 51,-218 51,-219"/>
<text text-anchor="middle" x="9.5" y="-222.8" font-family="Times,serif" font-size="14.00">a&#45;</text>
</g>
<!-- PL20&#45;&gt;transition20 -->
<g id="edge39" class="edge"><title>PL20&#45;&gt;transition20</title>
<path fill="none" stroke="black" d="M33,-254.939C33,-244.385 33,-231.534 33,-224.412"/>
<polygon fill="none" stroke="black" points="34.7501,-224.059 33,-219.059 31.2501,-224.059 34.7501,-224.059"/>
</g>
<!-- transition19&#45;&gt;PL20 -->
<g id="edge38" class="edge"><title>transition19&#45;&gt;PL20</title>
<path fill="none" stroke="black" d="M33,-326.848C33,-325.368 33,-313.319 33,-301.1"/>
<polygon fill="black" stroke="black" points="36.5001,-301.025 33,-291.025 29.5001,-301.025 36.5001,-301.025"/>
</g>
<!-- PL21 -->
<g id="node40" class="node"><title>PL21</title>
<ellipse fill="none" stroke="black" cx="33" cy="-164" rx="18" ry="18"/>
<text text-anchor="middle" x="33" y="-160.3" font-family="Times,serif" font-size="14.00">PL21</text>
</g>
<!-- transition21 -->
<g id="node43" class="node"><title>transition21</title>
<polygon fill="none" stroke="black" points="51,-110 15,-110 15,-109 51,-109 51,-110"/>
<text text-anchor="middle" x="9" y="-113.8" font-family="Times,serif" font-size="14.00">t+</text>
</g>
<!-- PL21&#45;&gt;transition21 -->
<g id="edge41" class="edge"><title>PL21&#45;&gt;transition21</title>
<path fill="none" stroke="black" d="M33,-145.939C33,-135.385 33,-122.534 33,-115.412"/>
<polygon fill="none" stroke="black" points="34.7501,-115.059 33,-110.059 31.2501,-115.059 34.7501,-115.059"/>
</g>
<!-- transition20&#45;&gt;PL21 -->
<g id="edge40" class="edge"><title>transition20&#45;&gt;PL21</title>
<path fill="none" stroke="black" d="M33,-217.848C33,-216.368 33,-204.319 33,-192.1"/>
<polygon fill="black" stroke="black" points="36.5001,-192.025 33,-182.025 29.5001,-192.025 36.5001,-192.025"/>
</g>
<!-- PL22 -->
<g id="node42" class="node"><title>PL22</title>
<ellipse fill="none" stroke="black" cx="33" cy="-55" rx="18" ry="18"/>
<text text-anchor="middle" x="33" y="-51.3" font-family="Times,serif" font-size="14.00">PL22</text>
</g>
<!-- transition22 -->
<g id="node44" class="node"><title>transition22</title>
<polygon fill="none" stroke="black" points="74,-1 38,-1 38,-0 74,-0 74,-1"/>
<text text-anchor="middle" x="32" y="-4.8" font-family="Times,serif" font-size="14.00">b&#45;</text>
</g>
<!-- PL22&#45;&gt;transition22 -->
<g id="edge43" class="edge"><title>PL22&#45;&gt;transition22</title>
<path fill="none" stroke="black" d="M39.9008,-38.0983C44.7205,-26.9918 50.8307,-12.9118 53.9559,-5.7104"/>
<polygon fill="none" stroke="black" points="55.5879,-6.34553 55.973,-1.06211 52.3772,-4.95216 55.5879,-6.34553"/>
</g>
<!-- transition21&#45;&gt;PL22 -->
<g id="edge42" class="edge"><title>transition21&#45;&gt;PL22</title>
<path fill="none" stroke="black" d="M33,-108.848C33,-107.368 33,-95.3194 33,-83.1004"/>
<polygon fill="black" stroke="black" points="36.5001,-83.0247 33,-73.0247 29.5001,-83.0248 36.5001,-83.0247"/>
</g>
<!-- transition22&#45;&gt;PL1 -->
<g id="edge44" class="edge"><title>transition22&#45;&gt;PL1</title>
<path fill="none" stroke="black" d="M56.0167,-1.04289C56.7131,-2.83896 79,-60.6904 79,-109 79,-2236 79,-2236 79,-2236 79,-2264.25 71.2428,-2295.77 64.7384,-2317.24"/>
<polygon fill="black" stroke="black" points="61.3576,-2316.33 61.6854,-2326.92 68.033,-2318.43 61.3576,-2316.33"/>
</g>
</g>
</svg>
