<?xml version="1.0" encoding="UTF-8" standalone="no"?>
<!DOCTYPE svg PUBLIC "-//W3C//DTD SVG 1.1//EN"
 "http://www.w3.org/Graphics/SVG/1.1/DTD/svg11.dtd">
<!-- Generated by graphviz version 2.38.0 (20140413.2041)
 -->
<!-- Title: %3 Pages: 1 -->
<svg width="87pt" height="2370pt"
 viewBox="0.00 0.00 87.00 2370.00" xmlns="http://www.w3.org/2000/svg" xmlns:xlink="http://www.w3.org/1999/xlink">
<g id="graph0" class="graph" transform="scale(1 1) rotate(0) translate(4 2366)">
<title>%3</title>
<polygon fill="white" stroke="none" points="-4,4 -4,-2366 83,-2366 83,4 -4,4"/>
<!-- pl1 -->
<g id="node1" class="node"><title>pl1</title>
<ellipse fill="none" stroke="black" cx="56" cy="-2344" rx="18" ry="18"/>
<text text-anchor="middle" x="56" y="-2340.3" font-family="Times,serif" font-size="14.00">pl1</text>
</g>
<!-- transition1 -->
<g id="node3" class="node"><title>transition1</title>
<polygon fill="none" stroke="black" points="51,-2290 15,-2290 15,-2289 51,-2289 51,-2290"/>
<text text-anchor="middle" x="7.5" y="-2293.8" font-family="Times,serif" font-size="14.00">d+</text>
</g>
<!-- pl1&#45;&gt;transition1 -->
<g id="edge1" class="edge"><title>pl1&#45;&gt;transition1</title>
<path fill="none" stroke="black" d="M49.0992,-2327.1C42.5362,-2311.97 33.5803,-2291.34 33.027,-2290.06"/>
</g>
<!-- pl2 -->
<g id="node2" class="node"><title>pl2</title>
<ellipse fill="none" stroke="black" cx="33" cy="-2235" rx="18" ry="18"/>
<text text-anchor="middle" x="33" y="-2231.3" font-family="Times,serif" font-size="14.00">pl2</text>
</g>
<!-- transition2 -->
<g id="node5" class="node"><title>transition2</title>
<polygon fill="none" stroke="black" points="51,-2181 15,-2181 15,-2180 51,-2180 51,-2181"/>
<text text-anchor="middle" x="7.5" y="-2184.8" font-family="Times,serif" font-size="14.00">b+</text>
</g>
<!-- pl2&#45;&gt;transition2 -->
<g id="edge3" class="edge"><title>pl2&#45;&gt;transition2</title>
<path fill="none" stroke="black" d="M33,-2216.94C33,-2201.93 33,-2182.27 33,-2181.06"/>
</g>
<!-- transition1&#45;&gt;pl2 -->
<g id="edge2" class="edge"><title>transition1&#45;&gt;pl2</title>
<path fill="none" stroke="black" d="M33,-2288.85C33,-2287.37 33,-2275.32 33,-2263.1"/>
<polygon fill="black" stroke="black" points="36.5001,-2263.02 33,-2253.02 29.5001,-2263.02 36.5001,-2263.02"/>
</g>
<!-- pl3 -->
<g id="node4" class="node"><title>pl3</title>
<ellipse fill="none" stroke="black" cx="33" cy="-2126" rx="18" ry="18"/>
<text text-anchor="middle" x="33" y="-2122.3" font-family="Times,serif" font-size="14.00">pl3</text>
</g>
<!-- transition3 -->
<g id="node7" class="node"><title>transition3</title>
<polygon fill="none" stroke="black" points="51,-2072 15,-2072 15,-2071 51,-2071 51,-2072"/>
<text text-anchor="middle" x="7.5" y="-2075.8" font-family="Times,serif" font-size="14.00">c+</text>
</g>
<!-- pl3&#45;&gt;transition3 -->
<g id="edge5" class="edge"><title>pl3&#45;&gt;transition3</title>
<path fill="none" stroke="black" d="M33,-2107.94C33,-2092.93 33,-2073.27 33,-2072.06"/>
</g>
<!-- transition2&#45;&gt;pl3 -->
<g id="edge4" class="edge"><title>transition2&#45;&gt;pl3</title>
<path fill="none" stroke="black" d="M33,-2179.85C33,-2178.37 33,-2166.32 33,-2154.1"/>
<polygon fill="black" stroke="black" points="36.5001,-2154.02 33,-2144.02 29.5001,-2154.02 36.5001,-2154.02"/>
</g>
<!-- pl4 -->
<g id="node6" class="node"><title>pl4</title>
<ellipse fill="none" stroke="black" cx="33" cy="-2017" rx="18" ry="18"/>
<text text-anchor="middle" x="33" y="-2013.3" font-family="Times,serif" font-size="14.00">pl4</text>
</g>
<!-- transition4 -->
<g id="node9" class="node"><title>transition4</title>
<polygon fill="none" stroke="black" points="51,-1963 15,-1963 15,-1962 51,-1962 51,-1963"/>
<text text-anchor="middle" x="9" y="-1966.8" font-family="Times,serif" font-size="14.00">b&#45;</text>
</g>
<!-- pl4&#45;&gt;transition4 -->
<g id="edge7" class="edge"><title>pl4&#45;&gt;transition4</title>
<path fill="none" stroke="black" d="M33,-1998.94C33,-1983.93 33,-1964.27 33,-1963.06"/>
</g>
<!-- transition3&#45;&gt;pl4 -->
<g id="edge6" class="edge"><title>transition3&#45;&gt;pl4</title>
<path fill="none" stroke="black" d="M33,-2070.85C33,-2069.37 33,-2057.32 33,-2045.1"/>
<polygon fill="black" stroke="black" points="36.5001,-2045.02 33,-2035.02 29.5001,-2045.02 36.5001,-2045.02"/>
</g>
<!-- pl5 -->
<g id="node8" class="node"><title>pl5</title>
<ellipse fill="none" stroke="black" cx="33" cy="-1908" rx="18" ry="18"/>
<text text-anchor="middle" x="33" y="-1904.3" font-family="Times,serif" font-size="14.00">pl5</text>
</g>
<!-- transition5 -->
<g id="node11" class="node"><title>transition5</title>
<polygon fill="none" stroke="black" points="51,-1854 15,-1854 15,-1853 51,-1853 51,-1854"/>
<text text-anchor="middle" x="10.5" y="-1857.8" font-family="Times,serif" font-size="14.00">t&#45;</text>
</g>
<!-- pl5&#45;&gt;transition5 -->
<g id="edge9" class="edge"><title>pl5&#45;&gt;transition5</title>
<path fill="none" stroke="black" d="M33,-1889.94C33,-1874.93 33,-1855.27 33,-1854.06"/>
</g>
<!-- transition4&#45;&gt;pl5 -->
<g id="edge8" class="edge"><title>transition4&#45;&gt;pl5</title>
<path fill="none" stroke="black" d="M33,-1961.85C33,-1960.37 33,-1948.32 33,-1936.1"/>
<polygon fill="black" stroke="black" points="36.5001,-1936.02 33,-1926.02 29.5001,-1936.02 36.5001,-1936.02"/>
</g>
<!-- pl6 -->
<g id="node10" class="node"><title>pl6</title>
<ellipse fill="none" stroke="black" cx="33" cy="-1799" rx="18" ry="18"/>
<text text-anchor="middle" x="33" y="-1795.3" font-family="Times,serif" font-size="14.00">pl6</text>
</g>
<!-- transition6 -->
<g id="node13" class="node"><title>transition6</title>
<polygon fill="none" stroke="black" points="51,-1745 15,-1745 15,-1744 51,-1744 51,-1745"/>
<text text-anchor="middle" x="9" y="-1748.8" font-family="Times,serif" font-size="14.00">d&#45;</text>
</g>
<!-- pl6&#45;&gt;transition6 -->
<g id="edge11" class="edge"><title>pl6&#45;&gt;transition6</title>
<path fill="none" stroke="black" d="M33,-1780.94C33,-1765.93 33,-1746.27 33,-1745.06"/>
</g>
<!-- transition5&#45;&gt;pl6 -->
<g id="edge10" class="edge"><title>transition5&#45;&gt;pl6</title>
<path fill="none" stroke="black" d="M33,-1852.85C33,-1851.37 33,-1839.32 33,-1827.1"/>
<polygon fill="black" stroke="black" points="36.5001,-1827.02 33,-1817.02 29.5001,-1827.02 36.5001,-1827.02"/>
</g>
<!-- pl7 -->
<g id="node12" class="node"><title>pl7</title>
<ellipse fill="none" stroke="black" cx="33" cy="-1690" rx="18" ry="18"/>
<text text-anchor="middle" x="33" y="-1686.3" font-family="Times,serif" font-size="14.00">pl7</text>
</g>
<!-- transition7 -->
<g id="node15" class="node"><title>transition7</title>
<polygon fill="none" stroke="black" points="51,-1636 15,-1636 15,-1635 51,-1635 51,-1636"/>
<text text-anchor="middle" x="9" y="-1639.8" font-family="Times,serif" font-size="14.00">t+</text>
</g>
<!-- pl7&#45;&gt;transition7 -->
<g id="edge13" class="edge"><title>pl7&#45;&gt;transition7</title>
<path fill="none" stroke="black" d="M33,-1671.94C33,-1656.93 33,-1637.27 33,-1636.06"/>
</g>
<!-- transition6&#45;&gt;pl7 -->
<g id="edge12" class="edge"><title>transition6&#45;&gt;pl7</title>
<path fill="none" stroke="black" d="M33,-1743.85C33,-1742.37 33,-1730.32 33,-1718.1"/>
<polygon fill="black" stroke="black" points="36.5001,-1718.02 33,-1708.02 29.5001,-1718.02 36.5001,-1718.02"/>
</g>
<!-- pl8 -->
<g id="node14" class="node"><title>pl8</title>
<ellipse fill="none" stroke="black" cx="33" cy="-1581" rx="18" ry="18"/>
<text text-anchor="middle" x="33" y="-1577.3" font-family="Times,serif" font-size="14.00">pl8</text>
</g>
<!-- transition8 -->
<g id="node17" class="node"><title>transition8</title>
<polygon fill="none" stroke="black" points="51,-1527 15,-1527 15,-1526 51,-1526 51,-1527"/>
<text text-anchor="middle" x="7.5" y="-1530.8" font-family="Times,serif" font-size="14.00">b+</text>
</g>
<!-- pl8&#45;&gt;transition8 -->
<g id="edge15" class="edge"><title>pl8&#45;&gt;transition8</title>
<path fill="none" stroke="black" d="M33,-1562.94C33,-1547.93 33,-1528.27 33,-1527.06"/>
</g>
<!-- transition7&#45;&gt;pl8 -->
<g id="edge14" class="edge"><title>transition7&#45;&gt;pl8</title>
<path fill="none" stroke="black" d="M33,-1634.85C33,-1633.37 33,-1621.32 33,-1609.1"/>
<polygon fill="black" stroke="black" points="36.5001,-1609.02 33,-1599.02 29.5001,-1609.02 36.5001,-1609.02"/>
</g>
<!-- pl9 -->
<g id="node16" class="node"><title>pl9</title>
<ellipse fill="none" stroke="black" cx="33" cy="-1472" rx="18" ry="18"/>
<text text-anchor="middle" x="33" y="-1468.3" font-family="Times,serif" font-size="14.00">pl9</text>
</g>
<!-- transition9 -->
<g id="node19" class="node"><title>transition9</title>
<polygon fill="none" stroke="black" points="51,-1418 15,-1418 15,-1417 51,-1417 51,-1418"/>
<text text-anchor="middle" x="7.5" y="-1421.8" font-family="Times,serif" font-size="14.00">a+</text>
</g>
<!-- pl9&#45;&gt;transition9 -->
<g id="edge17" class="edge"><title>pl9&#45;&gt;transition9</title>
<path fill="none" stroke="black" d="M33,-1453.94C33,-1438.93 33,-1419.27 33,-1418.06"/>
</g>
<!-- transition8&#45;&gt;pl9 -->
<g id="edge16" class="edge"><title>transition8&#45;&gt;pl9</title>
<path fill="none" stroke="black" d="M33,-1525.85C33,-1524.37 33,-1512.32 33,-1500.1"/>
<polygon fill="black" stroke="black" points="36.5001,-1500.02 33,-1490.02 29.5001,-1500.02 36.5001,-1500.02"/>
</g>
<!-- pl10 -->
<g id="node18" class="node"><title>pl10</title>
<ellipse fill="none" stroke="black" cx="33" cy="-1363" rx="18" ry="18"/>
<text text-anchor="middle" x="33" y="-1359.3" font-family="Times,serif" font-size="14.00">pl10</text>
</g>
<!-- transition10 -->
<g id="node21" class="node"><title>transition10</title>
<polygon fill="none" stroke="black" points="51,-1309 15,-1309 15,-1308 51,-1308 51,-1309"/>
<text text-anchor="middle" x="9" y="-1312.8" font-family="Times,serif" font-size="14.00">b&#45;</text>
</g>
<!-- pl10&#45;&gt;transition10 -->
<g id="edge19" class="edge"><title>pl10&#45;&gt;transition10</title>
<path fill="none" stroke="black" d="M33,-1344.94C33,-1329.93 33,-1310.27 33,-1309.06"/>
</g>
<!-- transition9&#45;&gt;pl10 -->
<g id="edge18" class="edge"><title>transition9&#45;&gt;pl10</title>
<path fill="none" stroke="black" d="M33,-1416.85C33,-1415.37 33,-1403.32 33,-1391.1"/>
<polygon fill="black" stroke="black" points="36.5001,-1391.02 33,-1381.02 29.5001,-1391.02 36.5001,-1391.02"/>
</g>
<!-- pl11 -->
<g id="node20" class="node"><title>pl11</title>
<ellipse fill="none" stroke="black" cx="33" cy="-1254" rx="18" ry="18"/>
<text text-anchor="middle" x="33" y="-1250.3" font-family="Times,serif" font-size="14.00">pl11</text>
</g>
<!-- transition11 -->
<g id="node23" class="node"><title>transition11</title>
<polygon fill="none" stroke="black" points="51,-1200 15,-1200 15,-1199 51,-1199 51,-1200"/>
<text text-anchor="middle" x="7.5" y="-1203.8" font-family="Times,serif" font-size="14.00">d+</text>
</g>
<!-- pl11&#45;&gt;transition11 -->
<g id="edge21" class="edge"><title>pl11&#45;&gt;transition11</title>
<path fill="none" stroke="black" d="M33,-1235.94C33,-1220.93 33,-1201.27 33,-1200.06"/>
</g>
<!-- transition10&#45;&gt;pl11 -->
<g id="edge20" class="edge"><title>transition10&#45;&gt;pl11</title>
<path fill="none" stroke="black" d="M33,-1307.85C33,-1306.37 33,-1294.32 33,-1282.1"/>
<polygon fill="black" stroke="black" points="36.5001,-1282.02 33,-1272.02 29.5001,-1282.02 36.5001,-1282.02"/>
</g>
<!-- pl12 -->
<g id="node22" class="node"><title>pl12</title>
<ellipse fill="none" stroke="black" cx="33" cy="-1145" rx="18" ry="18"/>
<text text-anchor="middle" x="33" y="-1141.3" font-family="Times,serif" font-size="14.00">pl12</text>
</g>
<!-- transition12 -->
<g id="node25" class="node"><title>transition12</title>
<polygon fill="none" stroke="black" points="51,-1091 15,-1091 15,-1090 51,-1090 51,-1091"/>
<text text-anchor="middle" x="7.5" y="-1094.8" font-family="Times,serif" font-size="14.00">b+</text>
</g>
<!-- pl12&#45;&gt;transition12 -->
<g id="edge23" class="edge"><title>pl12&#45;&gt;transition12</title>
<path fill="none" stroke="black" d="M33,-1126.94C33,-1111.93 33,-1092.27 33,-1091.06"/>
</g>
<!-- transition11&#45;&gt;pl12 -->
<g id="edge22" class="edge"><title>transition11&#45;&gt;pl12</title>
<path fill="none" stroke="black" d="M33,-1198.85C33,-1197.37 33,-1185.32 33,-1173.1"/>
<polygon fill="black" stroke="black" points="36.5001,-1173.02 33,-1163.02 29.5001,-1173.02 36.5001,-1173.02"/>
</g>
<!-- pl13 -->
<g id="node24" class="node"><title>pl13</title>
<ellipse fill="none" stroke="black" cx="33" cy="-1036" rx="18" ry="18"/>
<text text-anchor="middle" x="33" y="-1032.3" font-family="Times,serif" font-size="14.00">pl13</text>
</g>
<!-- transition13 -->
<g id="node27" class="node"><title>transition13</title>
<polygon fill="none" stroke="black" points="51,-982 15,-982 15,-981 51,-981 51,-982"/>
<text text-anchor="middle" x="10.5" y="-985.8" font-family="Times,serif" font-size="14.00">t&#45;</text>
</g>
<!-- pl13&#45;&gt;transition13 -->
<g id="edge25" class="edge"><title>pl13&#45;&gt;transition13</title>
<path fill="none" stroke="black" d="M33,-1017.94C33,-1002.93 33,-983.273 33,-982.059"/>
</g>
<!-- transition12&#45;&gt;pl13 -->
<g id="edge24" class="edge"><title>transition12&#45;&gt;pl13</title>
<path fill="none" stroke="black" d="M33,-1089.85C33,-1088.37 33,-1076.32 33,-1064.1"/>
<polygon fill="black" stroke="black" points="36.5001,-1064.02 33,-1054.02 29.5001,-1064.02 36.5001,-1064.02"/>
</g>
<!-- pl14 -->
<g id="node26" class="node"><title>pl14</title>
<ellipse fill="none" stroke="black" cx="33" cy="-927" rx="18" ry="18"/>
<text text-anchor="middle" x="33" y="-923.3" font-family="Times,serif" font-size="14.00">pl14</text>
</g>
<!-- transition14 -->
<g id="node29" class="node"><title>transition14</title>
<polygon fill="none" stroke="black" points="51,-873 15,-873 15,-872 51,-872 51,-873"/>
<text text-anchor="middle" x="9.5" y="-876.8" font-family="Times,serif" font-size="14.00">c&#45;</text>
</g>
<!-- pl14&#45;&gt;transition14 -->
<g id="edge27" class="edge"><title>pl14&#45;&gt;transition14</title>
<path fill="none" stroke="black" d="M33,-908.939C33,-893.929 33,-874.273 33,-873.059"/>
</g>
<!-- transition13&#45;&gt;pl14 -->
<g id="edge26" class="edge"><title>transition13&#45;&gt;pl14</title>
<path fill="none" stroke="black" d="M33,-980.848C33,-979.368 33,-967.319 33,-955.1"/>
<polygon fill="black" stroke="black" points="36.5001,-955.025 33,-945.025 29.5001,-955.025 36.5001,-955.025"/>
</g>
<!-- pl15 -->
<g id="node28" class="node"><title>pl15</title>
<ellipse fill="none" stroke="black" cx="33" cy="-818" rx="18" ry="18"/>
<text text-anchor="middle" x="33" y="-814.3" font-family="Times,serif" font-size="14.00">pl15</text>
</g>
<!-- transition15 -->
<g id="node31" class="node"><title>transition15</title>
<polygon fill="none" stroke="black" points="51,-764 15,-764 15,-763 51,-763 51,-764"/>
<text text-anchor="middle" x="9" y="-767.8" font-family="Times,serif" font-size="14.00">t+</text>
</g>
<!-- pl15&#45;&gt;transition15 -->
<g id="edge29" class="edge"><title>pl15&#45;&gt;transition15</title>
<path fill="none" stroke="black" d="M33,-799.939C33,-784.929 33,-765.273 33,-764.059"/>
</g>
<!-- transition14&#45;&gt;pl15 -->
<g id="edge28" class="edge"><title>transition14&#45;&gt;pl15</title>
<path fill="none" stroke="black" d="M33,-871.848C33,-870.368 33,-858.319 33,-846.1"/>
<polygon fill="black" stroke="black" points="36.5001,-846.025 33,-836.025 29.5001,-846.025 36.5001,-846.025"/>
</g>
<!-- pl16 -->
<g id="node30" class="node"><title>pl16</title>
<ellipse fill="none" stroke="black" cx="33" cy="-709" rx="18" ry="18"/>
<text text-anchor="middle" x="33" y="-705.3" font-family="Times,serif" font-size="14.00">pl16</text>
</g>
<!-- transition16 -->
<g id="node33" class="node"><title>transition16</title>
<polygon fill="none" stroke="black" points="51,-655 15,-655 15,-654 51,-654 51,-655"/>
<text text-anchor="middle" x="9" y="-658.8" font-family="Times,serif" font-size="14.00">b&#45;</text>
</g>
<!-- pl16&#45;&gt;transition16 -->
<g id="edge31" class="edge"><title>pl16&#45;&gt;transition16</title>
<path fill="none" stroke="black" d="M33,-690.939C33,-675.929 33,-656.273 33,-655.059"/>
</g>
<!-- transition15&#45;&gt;pl16 -->
<g id="edge30" class="edge"><title>transition15&#45;&gt;pl16</title>
<path fill="none" stroke="black" d="M33,-762.848C33,-761.368 33,-749.319 33,-737.1"/>
<polygon fill="black" stroke="black" points="36.5001,-737.025 33,-727.025 29.5001,-737.025 36.5001,-737.025"/>
</g>
<!-- pl17 -->
<g id="node32" class="node"><title>pl17</title>
<ellipse fill="none" stroke="black" cx="33" cy="-600" rx="18" ry="18"/>
<text text-anchor="middle" x="33" y="-596.3" font-family="Times,serif" font-size="14.00">pl17</text>
</g>
<!-- transition17 -->
<g id="node35" class="node"><title>transition17</title>
<polygon fill="none" stroke="black" points="51,-546 15,-546 15,-545 51,-545 51,-546"/>
<text text-anchor="middle" x="9" y="-549.8" font-family="Times,serif" font-size="14.00">d&#45;</text>
</g>
<!-- pl17&#45;&gt;transition17 -->
<g id="edge33" class="edge"><title>pl17&#45;&gt;transition17</title>
<path fill="none" stroke="black" d="M33,-581.939C33,-566.929 33,-547.273 33,-546.059"/>
</g>
<!-- transition16&#45;&gt;pl17 -->
<g id="edge32" class="edge"><title>transition16&#45;&gt;pl17</title>
<path fill="none" stroke="black" d="M33,-653.848C33,-652.368 33,-640.319 33,-628.1"/>
<polygon fill="black" stroke="black" points="36.5001,-628.025 33,-618.025 29.5001,-628.025 36.5001,-628.025"/>
</g>
<!-- pl18 -->
<g id="node34" class="node"><title>pl18</title>
<ellipse fill="none" stroke="black" cx="33" cy="-491" rx="18" ry="18"/>
<text text-anchor="middle" x="33" y="-487.3" font-family="Times,serif" font-size="14.00">pl18</text>
</g>
<!-- transition18 -->
<g id="node37" class="node"><title>transition18</title>
<polygon fill="none" stroke="black" points="51,-437 15,-437 15,-436 51,-436 51,-437"/>
<text text-anchor="middle" x="7.5" y="-440.8" font-family="Times,serif" font-size="14.00">b+</text>
</g>
<!-- pl18&#45;&gt;transition18 -->
<g id="edge35" class="edge"><title>pl18&#45;&gt;transition18</title>
<path fill="none" stroke="black" d="M33,-472.939C33,-457.929 33,-438.273 33,-437.059"/>
</g>
<!-- transition17&#45;&gt;pl18 -->
<g id="edge34" class="edge"><title>transition17&#45;&gt;pl18</title>
<path fill="none" stroke="black" d="M33,-544.848C33,-543.368 33,-531.319 33,-519.1"/>
<polygon fill="black" stroke="black" points="36.5001,-519.025 33,-509.025 29.5001,-519.025 36.5001,-519.025"/>
</g>
<!-- pl19 -->
<g id="node36" class="node"><title>pl19</title>
<ellipse fill="none" stroke="black" cx="33" cy="-382" rx="18" ry="18"/>
<text text-anchor="middle" x="33" y="-378.3" font-family="Times,serif" font-size="14.00">pl19</text>
</g>
<!-- transition19 -->
<g id="node39" class="node"><title>transition19</title>
<polygon fill="none" stroke="black" points="51,-328 15,-328 15,-327 51,-327 51,-328"/>
<text text-anchor="middle" x="10.5" y="-331.8" font-family="Times,serif" font-size="14.00">t&#45;</text>
</g>
<!-- pl19&#45;&gt;transition19 -->
<g id="edge37" class="edge"><title>pl19&#45;&gt;transition19</title>
<path fill="none" stroke="black" d="M33,-363.939C33,-348.929 33,-329.273 33,-328.059"/>
</g>
<!-- transition18&#45;&gt;pl19 -->
<g id="edge36" class="edge"><title>transition18&#45;&gt;pl19</title>
<path fill="none" stroke="black" d="M33,-435.848C33,-434.368 33,-422.319 33,-410.1"/>
<polygon fill="black" stroke="black" points="36.5001,-410.025 33,-400.025 29.5001,-410.025 36.5001,-410.025"/>
</g>
<!-- pl20 -->
<g id="node38" class="node"><title>pl20</title>
<ellipse fill="none" stroke="black" cx="33" cy="-273" rx="18" ry="18"/>
<text text-anchor="middle" x="33" y="-269.3" font-family="Times,serif" font-size="14.00">pl20</text>
</g>
<!-- transition20 -->
<g id="node41" class="node"><title>transition20</title>
<polygon fill="none" stroke="black" points="51,-219 15,-219 15,-218 51,-218 51,-219"/>
<text text-anchor="middle" x="9.5" y="-222.8" font-family="Times,serif" font-size="14.00">a&#45;</text>
</g>
<!-- pl20&#45;&gt;transition20 -->
<g id="edge39" class="edge"><title>pl20&#45;&gt;transition20</title>
<path fill="none" stroke="black" d="M33,-254.939C33,-239.929 33,-220.273 33,-219.059"/>
</g>
<!-- transition19&#45;&gt;pl20 -->
<g id="edge38" class="edge"><title>transition19&#45;&gt;pl20</title>
<path fill="none" stroke="black" d="M33,-326.848C33,-325.368 33,-313.319 33,-301.1"/>
<polygon fill="black" stroke="black" points="36.5001,-301.025 33,-291.025 29.5001,-301.025 36.5001,-301.025"/>
</g>
<!-- pl21 -->
<g id="node40" class="node"><title>pl21</title>
<ellipse fill="none" stroke="black" cx="33" cy="-164" rx="18" ry="18"/>
<text text-anchor="middle" x="33" y="-160.3" font-family="Times,serif" font-size="14.00">pl21</text>
</g>
<!-- transition21 -->
<g id="node43" class="node"><title>transition21</title>
<polygon fill="none" stroke="black" points="51,-110 15,-110 15,-109 51,-109 51,-110"/>
<text text-anchor="middle" x="9" y="-113.8" font-family="Times,serif" font-size="14.00">t+</text>
</g>
<!-- pl21&#45;&gt;transition21 -->
<g id="edge41" class="edge"><title>pl21&#45;&gt;transition21</title>
<path fill="none" stroke="black" d="M33,-145.939C33,-130.929 33,-111.273 33,-110.059"/>
</g>
<!-- transition20&#45;&gt;pl21 -->
<g id="edge40" class="edge"><title>transition20&#45;&gt;pl21</title>
<path fill="none" stroke="black" d="M33,-217.848C33,-216.368 33,-204.319 33,-192.1"/>
<polygon fill="black" stroke="black" points="36.5001,-192.025 33,-182.025 29.5001,-192.025 36.5001,-192.025"/>
</g>
<!-- pl22 -->
<g id="node42" class="node"><title>pl22</title>
<ellipse fill="none" stroke="black" cx="33" cy="-55" rx="18" ry="18"/>
<text text-anchor="middle" x="33" y="-51.3" font-family="Times,serif" font-size="14.00">pl22</text>
</g>
<!-- transition22 -->
<g id="node44" class="node"><title>transition22</title>
<polygon fill="none" stroke="black" points="74,-1 38,-1 38,-0 74,-0 74,-1"/>
<text text-anchor="middle" x="32" y="-4.8" font-family="Times,serif" font-size="14.00">b&#45;</text>
</g>
<!-- pl22&#45;&gt;transition22 -->
<g id="edge43" class="edge"><title>pl22&#45;&gt;transition22</title>
<path fill="none" stroke="black" d="M39.9008,-38.0983C46.4638,-22.9746 55.4197,-2.33719 55.973,-1.06211"/>
</g>
<!-- transition21&#45;&gt;pl22 -->
<g id="edge42" class="edge"><title>transition21&#45;&gt;pl22</title>
<path fill="none" stroke="black" d="M33,-108.848C33,-107.368 33,-95.3194 33,-83.1004"/>
<polygon fill="black" stroke="black" points="36.5001,-83.0247 33,-73.0247 29.5001,-83.0248 36.5001,-83.0247"/>
</g>
<!-- transition22&#45;&gt;pl1 -->
<g id="edge44" class="edge"><title>transition22&#45;&gt;pl1</title>
<path fill="none" stroke="black" d="M56.0167,-1.04289C56.7131,-2.83896 79,-60.6904 79,-109 79,-2236 79,-2236 79,-2236 79,-2264.25 71.2428,-2295.77 64.7384,-2317.24"/>
<polygon fill="black" stroke="black" points="61.3576,-2316.33 61.6854,-2326.92 68.033,-2318.43 61.3576,-2316.33"/>
</g>
</g>
</svg>
