<?xml version="1.0" encoding="UTF-8" standalone="no"?>
<!DOCTYPE svg PUBLIC "-//W3C//DTD SVG 1.1//EN"
 "http://www.w3.org/Graphics/SVG/1.1/DTD/svg11.dtd">
<!-- Generated by graphviz version 2.38.0 (20140413.2041)
 -->
<!-- Title: %3 Pages: 1 -->
<svg width="294pt" height="1932pt"
 viewBox="0.00 0.00 294.00 1932.00" xmlns="http://www.w3.org/2000/svg" xmlns:xlink="http://www.w3.org/1999/xlink">
<g id="graph0" class="graph" transform="scale(1 1) rotate(0) translate(4 1928)">
<title>%3</title>
<polygon fill="white" stroke="none" points="-4,4 -4,-1928 290,-1928 290,4 -4,4"/>
<!-- PL1 -->
<g id="node1" class="node"><title>PL1</title>
<ellipse fill="none" stroke="black" cx="230" cy="-1906" rx="18" ry="18"/>
<text text-anchor="middle" x="230" y="-1902.3" font-family="Times,serif" font-size="14.00">PL1</text>
</g>
<!-- transition1 -->
<g id="node3" class="node"><title>transition1</title>
<polygon fill="none" stroke="black" points="215,-1852 179,-1852 179,-1851 215,-1851 215,-1852"/>
<text text-anchor="middle" x="163" y="-1855.8" font-family="Times,serif" font-size="14.00">done&#45;</text>
</g>
<!-- PL1&#45;&gt;transition1 -->
<g id="edge1" class="edge"><title>PL1&#45;&gt;transition1</title>
<path fill="none" stroke="black" d="M220.808,-1890.24C213.713,-1878.84 204.36,-1863.82 199.775,-1856.46"/>
<polygon fill="none" stroke="black" points="201.169,-1855.38 197.041,-1852.07 198.198,-1857.23 201.169,-1855.38"/>
</g>
<!-- PL28 -->
<g id="node2" class="node"><title>PL28</title>
<ellipse fill="none" stroke="black" cx="191" cy="-1797" rx="18" ry="18"/>
<text text-anchor="middle" x="191" y="-1793.3" font-family="Times,serif" font-size="14.00">PL28</text>
</g>
<!-- transition17 -->
<g id="node5" class="node"><title>transition17</title>
<polygon fill="none" stroke="black" points="199,-1743 163,-1743 163,-1742 199,-1742 199,-1743"/>
<text text-anchor="middle" x="112.5" y="-1746.8" font-family="Times,serif" font-size="14.00">y0_sbuframwrite&#45;</text>
</g>
<!-- PL28&#45;&gt;transition17 -->
<g id="edge3" class="edge"><title>PL28&#45;&gt;transition17</title>
<path fill="none" stroke="black" d="M187.836,-1779.23C185.796,-1768.42 183.283,-1755.1 181.944,-1748"/>
<polygon fill="none" stroke="black" points="183.658,-1747.65 181.011,-1743.06 180.219,-1748.3 183.658,-1747.65"/>
</g>
<!-- transition1&#45;&gt;PL28 -->
<g id="edge2" class="edge"><title>transition1&#45;&gt;PL28</title>
<path fill="none" stroke="black" d="M196.983,-1850.85C196.815,-1849.37 195.451,-1837.32 194.068,-1825.1"/>
<polygon fill="black" stroke="black" points="197.53,-1824.57 192.927,-1815.02 190.575,-1825.36 197.53,-1824.57"/>
</g>
<!-- PL5 -->
<g id="node4" class="node"><title>PL5</title>
<ellipse fill="none" stroke="black" cx="176" cy="-1688" rx="18" ry="18"/>
<text text-anchor="middle" x="176" y="-1684.3" font-family="Times,serif" font-size="14.00">PL5</text>
</g>
<!-- transition2 -->
<g id="node7" class="node"><title>transition2</title>
<polygon fill="none" stroke="black" points="194,-1634 158,-1634 158,-1633 194,-1633 194,-1634"/>
<text text-anchor="middle" x="139" y="-1637.8" font-family="Times,serif" font-size="14.00">prbar+</text>
</g>
<!-- PL5&#45;&gt;transition2 -->
<g id="edge5" class="edge"><title>PL5&#45;&gt;transition2</title>
<path fill="none" stroke="black" d="M176,-1669.94C176,-1659.39 176,-1646.53 176,-1639.41"/>
<polygon fill="none" stroke="black" points="177.75,-1639.06 176,-1634.06 174.25,-1639.06 177.75,-1639.06"/>
</g>
<!-- transition17&#45;&gt;PL5 -->
<g id="edge4" class="edge"><title>transition17&#45;&gt;PL5</title>
<path fill="none" stroke="black" d="M180.986,-1741.85C180.846,-1740.37 179.709,-1728.32 178.557,-1716.1"/>
<polygon fill="black" stroke="black" points="182.03,-1715.65 177.606,-1706.02 175.061,-1716.31 182.03,-1715.65"/>
</g>
<!-- PL6 -->
<g id="node6" class="node"><title>PL6</title>
<ellipse fill="none" stroke="black" cx="176" cy="-1579" rx="18" ry="18"/>
<text text-anchor="middle" x="176" y="-1575.3" font-family="Times,serif" font-size="14.00">PL6</text>
</g>
<!-- transition3 -->
<g id="node9" class="node"><title>transition3</title>
<polygon fill="none" stroke="black" points="194,-1525 158,-1525 158,-1524 194,-1524 194,-1525"/>
<text text-anchor="middle" x="124.5" y="-1528.8" font-family="Times,serif" font-size="14.00">precharged&#45;</text>
</g>
<!-- PL6&#45;&gt;transition3 -->
<g id="edge7" class="edge"><title>PL6&#45;&gt;transition3</title>
<path fill="none" stroke="black" d="M176,-1560.94C176,-1550.39 176,-1537.53 176,-1530.41"/>
<polygon fill="none" stroke="black" points="177.75,-1530.06 176,-1525.06 174.25,-1530.06 177.75,-1530.06"/>
</g>
<!-- transition2&#45;&gt;PL6 -->
<g id="edge6" class="edge"><title>transition2&#45;&gt;PL6</title>
<path fill="none" stroke="black" d="M176,-1632.85C176,-1631.37 176,-1619.32 176,-1607.1"/>
<polygon fill="black" stroke="black" points="179.5,-1607.02 176,-1597.02 172.5,-1607.02 179.5,-1607.02"/>
</g>
<!-- PL7 -->
<g id="node8" class="node"><title>PL7</title>
<ellipse fill="none" stroke="black" cx="176" cy="-1470" rx="18" ry="18"/>
<text text-anchor="middle" x="176" y="-1466.3" font-family="Times,serif" font-size="14.00">PL7</text>
</g>
<!-- transition4 -->
<g id="node11" class="node"><title>transition4</title>
<polygon fill="none" stroke="black" points="194,-1416 158,-1416 158,-1415 194,-1415 194,-1416"/>
<text text-anchor="middle" x="142" y="-1419.8" font-family="Times,serif" font-size="14.00">wen+</text>
</g>
<!-- PL7&#45;&gt;transition4 -->
<g id="edge9" class="edge"><title>PL7&#45;&gt;transition4</title>
<path fill="none" stroke="black" d="M176,-1451.94C176,-1441.39 176,-1428.53 176,-1421.41"/>
<polygon fill="none" stroke="black" points="177.75,-1421.06 176,-1416.06 174.25,-1421.06 177.75,-1421.06"/>
</g>
<!-- transition3&#45;&gt;PL7 -->
<g id="edge8" class="edge"><title>transition3&#45;&gt;PL7</title>
<path fill="none" stroke="black" d="M176,-1523.85C176,-1522.37 176,-1510.32 176,-1498.1"/>
<polygon fill="black" stroke="black" points="179.5,-1498.02 176,-1488.02 172.5,-1498.02 179.5,-1498.02"/>
</g>
<!-- PL8 -->
<g id="node10" class="node"><title>PL8</title>
<ellipse fill="none" stroke="black" cx="176" cy="-1361" rx="18" ry="18"/>
<text text-anchor="middle" x="176" y="-1357.3" font-family="Times,serif" font-size="14.00">PL8</text>
</g>
<!-- transition5 -->
<g id="node13" class="node"><title>transition5</title>
<polygon fill="none" stroke="black" points="194,-1307 158,-1307 158,-1306 194,-1306 194,-1307"/>
<text text-anchor="middle" x="140" y="-1310.8" font-family="Times,serif" font-size="14.00">done+</text>
</g>
<!-- PL8&#45;&gt;transition5 -->
<g id="edge11" class="edge"><title>PL8&#45;&gt;transition5</title>
<path fill="none" stroke="black" d="M176,-1342.94C176,-1332.39 176,-1319.53 176,-1312.41"/>
<polygon fill="none" stroke="black" points="177.75,-1312.06 176,-1307.06 174.25,-1312.06 177.75,-1312.06"/>
</g>
<!-- transition4&#45;&gt;PL8 -->
<g id="edge10" class="edge"><title>transition4&#45;&gt;PL8</title>
<path fill="none" stroke="black" d="M176,-1414.85C176,-1413.37 176,-1401.32 176,-1389.1"/>
<polygon fill="black" stroke="black" points="179.5,-1389.02 176,-1379.02 172.5,-1389.02 179.5,-1389.02"/>
</g>
<!-- PL26 -->
<g id="node51" class="node"><title>PL26</title>
<ellipse fill="none" stroke="black" cx="122" cy="-1361" rx="18" ry="18"/>
<text text-anchor="middle" x="122" y="-1357.3" font-family="Times,serif" font-size="14.00">PL26</text>
</g>
<!-- transition4&#45;&gt;PL26 -->
<g id="edge55" class="edge"><title>transition4&#45;&gt;PL26</title>
<path fill="none" stroke="black" d="M175.845,-1414.85C174.012,-1413.05 156.262,-1395.63 141.635,-1381.27"/>
<polygon fill="black" stroke="black" points="143.96,-1378.65 134.372,-1374.14 139.057,-1383.65 143.96,-1378.65"/>
</g>
<!-- PL9 -->
<g id="node12" class="node"><title>PL9</title>
<ellipse fill="none" stroke="black" cx="176" cy="-1252" rx="18" ry="18"/>
<text text-anchor="middle" x="176" y="-1248.3" font-family="Times,serif" font-size="14.00">PL9</text>
</g>
<!-- transition24 -->
<g id="node15" class="node"><title>transition24</title>
<polygon fill="none" stroke="black" points="140,-1198 104,-1198 104,-1197 140,-1197 140,-1198"/>
<text text-anchor="middle" x="53.5" y="-1201.8" font-family="Times,serif" font-size="14.00">y1_sbuframwrite&#45;</text>
</g>
<!-- PL9&#45;&gt;transition24 -->
<g id="edge13" class="edge"><title>PL9&#45;&gt;transition24</title>
<path fill="none" stroke="black" d="M163.476,-1238.71C151.402,-1226.86 133.847,-1209.63 126.023,-1201.95"/>
<polygon fill="none" stroke="black" points="126.868,-1200.33 122.074,-1198.07 124.416,-1202.82 126.868,-1200.33"/>
</g>
<!-- transition5&#45;&gt;PL9 -->
<g id="edge12" class="edge"><title>transition5&#45;&gt;PL9</title>
<path fill="none" stroke="black" d="M176,-1305.85C176,-1304.37 176,-1292.32 176,-1280.1"/>
<polygon fill="black" stroke="black" points="179.5,-1280.02 176,-1270.02 172.5,-1280.02 179.5,-1280.02"/>
</g>
<!-- PL23 -->
<g id="node14" class="node"><title>PL23</title>
<ellipse fill="none" stroke="black" cx="176" cy="-1143" rx="18" ry="18"/>
<text text-anchor="middle" x="176" y="-1139.3" font-family="Times,serif" font-size="14.00">PL23</text>
</g>
<!-- transition20 -->
<g id="node17" class="node"><title>transition20</title>
<polygon fill="none" stroke="black" points="194,-1089 158,-1089 158,-1088 194,-1088 194,-1089"/>
<text text-anchor="middle" x="144" y="-1092.8" font-family="Times,serif" font-size="14.00">ack+</text>
</g>
<!-- PL23&#45;&gt;transition20 -->
<g id="edge15" class="edge"><title>PL23&#45;&gt;transition20</title>
<path fill="none" stroke="black" d="M176,-1124.94C176,-1114.39 176,-1101.53 176,-1094.41"/>
<polygon fill="none" stroke="black" points="177.75,-1094.06 176,-1089.06 174.25,-1094.06 177.75,-1094.06"/>
</g>
<!-- transition24&#45;&gt;PL23 -->
<g id="edge14" class="edge"><title>transition24&#45;&gt;PL23</title>
<path fill="none" stroke="black" d="M122.155,-1196.85C123.988,-1195.05 141.738,-1177.63 156.365,-1163.27"/>
<polygon fill="black" stroke="black" points="158.943,-1165.65 163.628,-1156.14 154.04,-1160.65 158.943,-1165.65"/>
</g>
<!-- PL10 -->
<g id="node33" class="node"><title>PL10</title>
<ellipse fill="none" stroke="black" cx="68" cy="-1143" rx="18" ry="18"/>
<text text-anchor="middle" x="68" y="-1139.3" font-family="Times,serif" font-size="14.00">PL10</text>
</g>
<!-- transition24&#45;&gt;PL10 -->
<g id="edge35" class="edge"><title>transition24&#45;&gt;PL10</title>
<path fill="none" stroke="black" d="M121.845,-1196.85C120.012,-1195.05 102.262,-1177.63 87.6353,-1163.27"/>
<polygon fill="black" stroke="black" points="89.9603,-1160.65 80.3718,-1156.14 85.057,-1165.65 89.9603,-1160.65"/>
</g>
<!-- PL21 -->
<g id="node48" class="node"><title>PL21</title>
<ellipse fill="none" stroke="black" cx="122" cy="-1143" rx="18" ry="18"/>
<text text-anchor="middle" x="122" y="-1139.3" font-family="Times,serif" font-size="14.00">PL21</text>
</g>
<!-- transition24&#45;&gt;PL21 -->
<g id="edge51" class="edge"><title>transition24&#45;&gt;PL21</title>
<path fill="none" stroke="black" d="M122,-1196.85C122,-1195.37 122,-1183.32 122,-1171.1"/>
<polygon fill="black" stroke="black" points="125.5,-1171.02 122,-1161.02 118.5,-1171.02 125.5,-1171.02"/>
</g>
<!-- PL24 -->
<g id="node16" class="node"><title>PL24</title>
<ellipse fill="none" stroke="black" cx="176" cy="-1034" rx="18" ry="18"/>
<text text-anchor="middle" x="176" y="-1030.3" font-family="Times,serif" font-size="14.00">PL24</text>
</g>
<!-- transition21 -->
<g id="node19" class="node"><title>transition21</title>
<polygon fill="none" stroke="black" points="194,-980 158,-980 158,-979 194,-979 194,-980"/>
<text text-anchor="middle" x="146.5" y="-983.8" font-family="Times,serif" font-size="14.00">req&#45;</text>
</g>
<!-- PL24&#45;&gt;transition21 -->
<g id="edge17" class="edge"><title>PL24&#45;&gt;transition21</title>
<path fill="none" stroke="black" d="M176,-1015.94C176,-1005.39 176,-992.534 176,-985.412"/>
<polygon fill="none" stroke="black" points="177.75,-985.059 176,-980.059 174.25,-985.059 177.75,-985.059"/>
</g>
<!-- transition20&#45;&gt;PL24 -->
<g id="edge16" class="edge"><title>transition20&#45;&gt;PL24</title>
<path fill="none" stroke="black" d="M176,-1087.85C176,-1086.37 176,-1074.32 176,-1062.1"/>
<polygon fill="black" stroke="black" points="179.5,-1062.02 176,-1052.02 172.5,-1062.02 179.5,-1062.02"/>
</g>
<!-- PL25 -->
<g id="node18" class="node"><title>PL25</title>
<ellipse fill="none" stroke="black" cx="176" cy="-853" rx="18" ry="18"/>
<text text-anchor="middle" x="176" y="-849.3" font-family="Times,serif" font-size="14.00">PL25</text>
</g>
<!-- transition22 -->
<g id="node21" class="node"><title>transition22</title>
<polygon fill="none" stroke="black" points="140,-291 104,-291 104,-290 140,-290 140,-291"/>
<text text-anchor="middle" x="52" y="-294.8" font-family="Times,serif" font-size="14.00">y1_sbuframwrite+</text>
</g>
<!-- PL25&#45;&gt;transition22 -->
<g id="edge19" class="edge"><title>PL25&#45;&gt;transition22</title>
<path fill="none" stroke="black" d="M174.225,-835.039C171.868,-811.02 168,-765.708 168,-727 168,-727 168,-727 168,-399 168,-365.905 163.418,-356.79 149,-327 142.67,-313.92 131.285,-300.843 125.532,-294.669"/>
<polygon fill="none" stroke="black" points="126.78,-293.442 122.053,-291.052 124.258,-295.869 126.78,-293.442"/>
</g>
<!-- transition21&#45;&gt;PL25 -->
<g id="edge18" class="edge"><title>transition21&#45;&gt;PL25</title>
<path fill="none" stroke="black" d="M176,-978.909C176,-976.29 176,-917.468 176,-881.491"/>
<polygon fill="black" stroke="black" points="179.5,-881.147 176,-871.147 172.5,-881.147 179.5,-881.147"/>
</g>
<!-- PL19 -->
<g id="node20" class="node"><title>PL19</title>
<ellipse fill="none" stroke="black" cx="122" cy="-236" rx="18" ry="18"/>
<text text-anchor="middle" x="122" y="-232.3" font-family="Times,serif" font-size="14.00">PL19</text>
</g>
<!-- transition13 -->
<g id="node23" class="node"><title>transition13</title>
<polygon fill="none" stroke="black" points="140,-182 104,-182 104,-181 140,-181 140,-182"/>
<text text-anchor="middle" x="86.5" y="-185.8" font-family="Times,serif" font-size="14.00">prbar&#45;</text>
</g>
<!-- PL19&#45;&gt;transition13 -->
<g id="edge21" class="edge"><title>PL19&#45;&gt;transition13</title>
<path fill="none" stroke="black" d="M122,-217.939C122,-207.385 122,-194.534 122,-187.412"/>
<polygon fill="none" stroke="black" points="123.75,-187.059 122,-182.059 120.25,-187.059 123.75,-187.059"/>
</g>
<!-- transition22&#45;&gt;PL19 -->
<g id="edge20" class="edge"><title>transition22&#45;&gt;PL19</title>
<path fill="none" stroke="black" d="M122,-289.848C122,-288.368 122,-276.319 122,-264.1"/>
<polygon fill="black" stroke="black" points="125.5,-264.025 122,-254.025 118.5,-264.025 125.5,-264.025"/>
</g>
<!-- PL20 -->
<g id="node26" class="node"><title>PL20</title>
<ellipse fill="none" stroke="black" cx="68" cy="-236" rx="18" ry="18"/>
<text text-anchor="middle" x="68" y="-232.3" font-family="Times,serif" font-size="14.00">PL20</text>
</g>
<!-- transition22&#45;&gt;PL20 -->
<g id="edge26" class="edge"><title>transition22&#45;&gt;PL20</title>
<path fill="none" stroke="black" d="M121.845,-289.848C120.012,-288.049 102.262,-270.628 87.6353,-256.272"/>
<polygon fill="black" stroke="black" points="89.9603,-253.649 80.3718,-249.143 85.057,-258.645 89.9603,-253.649"/>
</g>
<!-- PL18 -->
<g id="node31" class="node"><title>PL18</title>
<ellipse fill="none" stroke="black" cx="176" cy="-236" rx="18" ry="18"/>
<text text-anchor="middle" x="176" y="-232.3" font-family="Times,serif" font-size="14.00">PL18</text>
</g>
<!-- transition22&#45;&gt;PL18 -->
<g id="edge32" class="edge"><title>transition22&#45;&gt;PL18</title>
<path fill="none" stroke="black" d="M122.155,-289.848C123.988,-288.049 141.738,-270.628 156.365,-256.272"/>
<polygon fill="black" stroke="black" points="158.943,-258.645 163.628,-249.143 154.04,-253.649 158.943,-258.645"/>
</g>
<!-- PL2 -->
<g id="node22" class="node"><title>PL2</title>
<ellipse fill="none" stroke="black" cx="128" cy="-127" rx="18" ry="18"/>
<text text-anchor="middle" x="128" y="-123.3" font-family="Times,serif" font-size="14.00">PL2</text>
</g>
<!-- transition14 -->
<g id="node25" class="node"><title>transition14</title>
<polygon fill="none" stroke="black" points="146,-73 110,-73 110,-72 146,-72 146,-73"/>
<text text-anchor="middle" x="74.5" y="-76.8" font-family="Times,serif" font-size="14.00">precharged+</text>
</g>
<!-- PL2&#45;&gt;transition14 -->
<g id="edge23" class="edge"><title>PL2&#45;&gt;transition14</title>
<path fill="none" stroke="black" d="M128,-108.939C128,-98.3852 128,-85.5344 128,-78.4124"/>
<polygon fill="none" stroke="black" points="129.75,-78.0591 128,-73.0591 126.25,-78.0592 129.75,-78.0591"/>
</g>
<!-- transition13&#45;&gt;PL2 -->
<g id="edge22" class="edge"><title>transition13&#45;&gt;PL2</title>
<path fill="none" stroke="black" d="M122.017,-180.848C122.185,-179.368 123.549,-167.319 124.932,-155.1"/>
<polygon fill="black" stroke="black" points="128.425,-155.355 126.073,-145.025 121.47,-154.568 128.425,-155.355"/>
</g>
<!-- PL4 -->
<g id="node24" class="node"><title>PL4</title>
<ellipse fill="none" stroke="black" cx="139" cy="-18" rx="18" ry="18"/>
<text text-anchor="middle" x="139" y="-14.3" font-family="Times,serif" font-size="14.00">PL4</text>
</g>
<!-- PL4&#45;&gt;transition17 -->
<g id="edge25" class="edge"><title>PL4&#45;&gt;transition17</title>
<path fill="none" stroke="black" d="M153.839,-28.5479C177.712,-45.2072 222,-82.0362 222,-126 222,-1634 222,-1634 222,-1634 222,-1667.1 215.988,-1675.56 203,-1706 197.765,-1718.27 188.844,-1731.3 184.131,-1737.8"/>
<polygon fill="none" stroke="black" points="182.627,-1736.89 181.042,-1741.95 185.434,-1738.98 182.627,-1736.89"/>
</g>
<!-- transition14&#45;&gt;PL4 -->
<g id="edge24" class="edge"><title>transition14&#45;&gt;PL4</title>
<path fill="none" stroke="black" d="M128.032,-71.848C128.341,-70.3585 130.872,-58.1645 133.424,-45.8654"/>
<polygon fill="black" stroke="black" points="136.92,-46.2449 135.525,-35.7422 130.066,-44.8223 136.92,-46.2449"/>
</g>
<!-- transition15 -->
<g id="node28" class="node"><title>transition15</title>
<polygon fill="none" stroke="black" points="86,-182 50,-182 50,-181 86,-181 86,-182"/>
<text text-anchor="middle" x="37.5" y="-185.8" font-family="Times,serif" font-size="14.00">ack&#45;</text>
</g>
<!-- PL20&#45;&gt;transition15 -->
<g id="edge27" class="edge"><title>PL20&#45;&gt;transition15</title>
<path fill="none" stroke="black" d="M68,-217.939C68,-207.385 68,-194.534 68,-187.412"/>
<polygon fill="none" stroke="black" points="69.7501,-187.059 68,-182.059 66.2501,-187.059 69.7501,-187.059"/>
</g>
<!-- PL3 -->
<g id="node27" class="node"><title>PL3</title>
<ellipse fill="none" stroke="black" cx="68" cy="-127" rx="18" ry="18"/>
<text text-anchor="middle" x="68" y="-123.3" font-family="Times,serif" font-size="14.00">PL3</text>
</g>
<!-- transition16 -->
<g id="node30" class="node"><title>transition16</title>
<polygon fill="none" stroke="black" points="86,-73 50,-73 50,-72 86,-72 86,-73"/>
<text text-anchor="middle" x="37" y="-60.8" font-family="Times,serif" font-size="14.00">req+</text>
</g>
<!-- PL3&#45;&gt;transition16 -->
<g id="edge29" class="edge"><title>PL3&#45;&gt;transition16</title>
<path fill="none" stroke="black" d="M68,-108.939C68,-98.3852 68,-85.5344 68,-78.4124"/>
<polygon fill="none" stroke="black" points="69.7501,-78.0591 68,-73.0591 66.2501,-78.0592 69.7501,-78.0591"/>
</g>
<!-- transition15&#45;&gt;PL3 -->
<g id="edge28" class="edge"><title>transition15&#45;&gt;PL3</title>
<path fill="none" stroke="black" d="M68,-180.848C68,-179.368 68,-167.319 68,-155.1"/>
<polygon fill="black" stroke="black" points="71.5001,-155.025 68,-145.025 64.5001,-155.025 71.5001,-155.025"/>
</g>
<!-- PL29 -->
<g id="node29" class="node"><title>PL29</title>
<ellipse fill="none" stroke="black" cx="62" cy="-18" rx="18" ry="18"/>
<text text-anchor="middle" x="62" y="-14.3" font-family="Times,serif" font-size="14.00">PL29</text>
</g>
<!-- PL29&#45;&gt;transition17 -->
<g id="edge31" class="edge"><title>PL29&#45;&gt;transition17</title>
<path fill="none" stroke="black" d="M52.7227,-33.591C40.9062,-53.6106 22,-91.0957 22,-126 22,-1634 22,-1634 22,-1634 22,-1710.21 148.536,-1736.4 175.845,-1741.16"/>
<polygon fill="none" stroke="black" points="175.668,-1742.91 180.885,-1741.98 176.232,-1739.45 175.668,-1742.91"/>
</g>
<!-- transition16&#45;&gt;PL29 -->
<g id="edge30" class="edge"><title>transition16&#45;&gt;PL29</title>
<path fill="none" stroke="black" d="M67.9828,-71.848C67.8152,-70.368 66.4512,-58.3194 65.068,-46.1004"/>
<polygon fill="black" stroke="black" points="68.5301,-45.5675 63.9273,-36.0247 61.5745,-46.355 68.5301,-45.5675"/>
</g>
<!-- transition12 -->
<g id="node32" class="node"><title>transition12</title>
<polygon fill="none" stroke="black" points="286,-182 250,-182 250,-181 286,-181 286,-182"/>
<text text-anchor="middle" x="231.5" y="-185.8" font-family="Times,serif" font-size="14.00">wsen+</text>
</g>
<!-- PL18&#45;&gt;transition12 -->
<g id="edge33" class="edge"><title>PL18&#45;&gt;transition12</title>
<path fill="none" stroke="black" d="M191.192,-226.248C212.551,-213.944 250.309,-192.191 263.388,-184.657"/>
<polygon fill="none" stroke="black" points="264.395,-186.097 267.854,-182.084 262.648,-183.064 264.395,-186.097"/>
</g>
<!-- transition12&#45;&gt;PL1 -->
<g id="edge34" class="edge"><title>transition12&#45;&gt;PL1</title>
<path fill="none" stroke="black" d="M267.997,-182.044C267.876,-183.871 264,-242.718 264,-290 264,-1798 264,-1798 264,-1798 264,-1827.45 252.159,-1859.4 242.453,-1880.65"/>
<polygon fill="black" stroke="black" points="239.194,-1879.35 238.058,-1889.89 245.515,-1882.36 239.194,-1879.35"/>
</g>
<!-- transition6 -->
<g id="node35" class="node"><title>transition6</title>
<polygon fill="none" stroke="black" points="86,-1089 50,-1089 50,-1088 86,-1088 86,-1089"/>
<text text-anchor="middle" x="33" y="-1092.8" font-family="Times,serif" font-size="14.00">wsen&#45;</text>
</g>
<!-- PL10&#45;&gt;transition6 -->
<g id="edge36" class="edge"><title>PL10&#45;&gt;transition6</title>
<path fill="none" stroke="black" d="M68,-1124.94C68,-1114.39 68,-1101.53 68,-1094.41"/>
<polygon fill="none" stroke="black" points="69.7501,-1094.06 68,-1089.06 66.2501,-1094.06 69.7501,-1094.06"/>
</g>
<!-- PL11 -->
<g id="node34" class="node"><title>PL11</title>
<ellipse fill="none" stroke="black" cx="68" cy="-1034" rx="18" ry="18"/>
<text text-anchor="middle" x="68" y="-1030.3" font-family="Times,serif" font-size="14.00">PL11</text>
</g>
<!-- transition19 -->
<g id="node37" class="node"><title>transition19</title>
<polygon fill="none" stroke="black" points="140,-980 104,-980 104,-979 140,-979 140,-980"/>
<text text-anchor="middle" x="84.5" y="-983.8" font-family="Times,serif" font-size="14.00">wenin&#45;</text>
</g>
<!-- PL11&#45;&gt;transition19 -->
<g id="edge38" class="edge"><title>PL11&#45;&gt;transition19</title>
<path fill="none" stroke="black" d="M80.5244,-1020.71C92.5976,-1008.86 110.153,-991.627 117.977,-983.948"/>
<polygon fill="none" stroke="black" points="119.584,-984.824 121.926,-980.072 117.132,-982.326 119.584,-984.824"/>
</g>
<!-- transition6&#45;&gt;PL11 -->
<g id="edge37" class="edge"><title>transition6&#45;&gt;PL11</title>
<path fill="none" stroke="black" d="M68,-1087.85C68,-1086.37 68,-1074.32 68,-1062.1"/>
<polygon fill="black" stroke="black" points="71.5001,-1062.02 68,-1052.02 64.5001,-1062.02 71.5001,-1062.02"/>
</g>
<!-- PL12 -->
<g id="node36" class="node"><title>PL12</title>
<ellipse fill="none" stroke="black" cx="122" cy="-925" rx="18" ry="18"/>
<text text-anchor="middle" x="122" y="-921.3" font-family="Times,serif" font-size="14.00">PL12</text>
</g>
<!-- transition7 -->
<g id="node39" class="node"><title>transition7</title>
<polygon fill="none" stroke="black" points="140,-853.5 104,-853.5 104,-852.5 140,-852.5 140,-853.5"/>
<text text-anchor="middle" x="86.5" y="-857.3" font-family="Times,serif" font-size="14.00">wsld+</text>
</g>
<!-- PL12&#45;&gt;transition7 -->
<g id="edge40" class="edge"><title>PL12&#45;&gt;transition7</title>
<path fill="none" stroke="black" d="M122,-906.697C122,-891.165 122,-869.324 122,-859.348"/>
<polygon fill="none" stroke="black" points="123.75,-859.092 122,-854.092 120.25,-859.092 123.75,-859.092"/>
</g>
<!-- transition19&#45;&gt;PL12 -->
<g id="edge39" class="edge"><title>transition19&#45;&gt;PL12</title>
<path fill="none" stroke="black" d="M122,-978.848C122,-977.368 122,-965.319 122,-953.1"/>
<polygon fill="black" stroke="black" points="125.5,-953.025 122,-943.025 118.5,-953.025 125.5,-953.025"/>
</g>
<!-- PL13 -->
<g id="node38" class="node"><title>PL13</title>
<ellipse fill="none" stroke="black" cx="122" cy="-781" rx="18" ry="18"/>
<text text-anchor="middle" x="122" y="-777.3" font-family="Times,serif" font-size="14.00">PL13</text>
</g>
<!-- transition8 -->
<g id="node41" class="node"><title>transition8</title>
<polygon fill="none" stroke="black" points="140,-727 104,-727 104,-726 140,-726 140,-727"/>
<text text-anchor="middle" x="81" y="-730.8" font-family="Times,serif" font-size="14.00">wsldin+</text>
</g>
<!-- PL13&#45;&gt;transition8 -->
<g id="edge42" class="edge"><title>PL13&#45;&gt;transition8</title>
<path fill="none" stroke="black" d="M122,-762.939C122,-752.385 122,-739.534 122,-732.412"/>
<polygon fill="none" stroke="black" points="123.75,-732.059 122,-727.059 120.25,-732.059 123.75,-732.059"/>
</g>
<!-- transition7&#45;&gt;PL13 -->
<g id="edge41" class="edge"><title>transition7&#45;&gt;PL13</title>
<path fill="none" stroke="black" d="M122,-851.949C122,-850.748 122,-828.429 122,-809.321"/>
<polygon fill="black" stroke="black" points="125.5,-809.191 122,-799.191 118.5,-809.191 125.5,-809.191"/>
</g>
<!-- PL14 -->
<g id="node40" class="node"><title>PL14</title>
<ellipse fill="none" stroke="black" cx="122" cy="-672" rx="18" ry="18"/>
<text text-anchor="middle" x="122" y="-668.3" font-family="Times,serif" font-size="14.00">PL14</text>
</g>
<!-- transition9 -->
<g id="node43" class="node"><title>transition9</title>
<polygon fill="none" stroke="black" points="140,-618 104,-618 104,-617 140,-617 140,-618"/>
<text text-anchor="middle" x="52" y="-621.8" font-family="Times,serif" font-size="14.00">y0_sbuframwrite+</text>
</g>
<!-- PL14&#45;&gt;transition9 -->
<g id="edge44" class="edge"><title>PL14&#45;&gt;transition9</title>
<path fill="none" stroke="black" d="M122,-653.939C122,-643.385 122,-630.534 122,-623.412"/>
<polygon fill="none" stroke="black" points="123.75,-623.059 122,-618.059 120.25,-623.059 123.75,-623.059"/>
</g>
<!-- transition8&#45;&gt;PL14 -->
<g id="edge43" class="edge"><title>transition8&#45;&gt;PL14</title>
<path fill="none" stroke="black" d="M122,-725.848C122,-724.368 122,-712.319 122,-700.1"/>
<polygon fill="black" stroke="black" points="125.5,-700.025 122,-690.025 118.5,-700.025 125.5,-700.025"/>
</g>
<!-- PL15 -->
<g id="node42" class="node"><title>PL15</title>
<ellipse fill="none" stroke="black" cx="122" cy="-563" rx="18" ry="18"/>
<text text-anchor="middle" x="122" y="-559.3" font-family="Times,serif" font-size="14.00">PL15</text>
</g>
<!-- transition10 -->
<g id="node45" class="node"><title>transition10</title>
<polygon fill="none" stroke="black" points="140,-509 104,-509 104,-508 140,-508 140,-509"/>
<text text-anchor="middle" x="88" y="-512.8" font-family="Times,serif" font-size="14.00">wsld&#45;</text>
</g>
<!-- PL15&#45;&gt;transition10 -->
<g id="edge46" class="edge"><title>PL15&#45;&gt;transition10</title>
<path fill="none" stroke="black" d="M122,-544.939C122,-534.385 122,-521.534 122,-514.412"/>
<polygon fill="none" stroke="black" points="123.75,-514.059 122,-509.059 120.25,-514.059 123.75,-514.059"/>
</g>
<!-- transition9&#45;&gt;PL15 -->
<g id="edge45" class="edge"><title>transition9&#45;&gt;PL15</title>
<path fill="none" stroke="black" d="M122,-616.848C122,-615.368 122,-603.319 122,-591.1"/>
<polygon fill="black" stroke="black" points="125.5,-591.025 122,-581.025 118.5,-591.025 125.5,-591.025"/>
</g>
<!-- PL16 -->
<g id="node44" class="node"><title>PL16</title>
<ellipse fill="none" stroke="black" cx="122" cy="-454" rx="18" ry="18"/>
<text text-anchor="middle" x="122" y="-450.3" font-family="Times,serif" font-size="14.00">PL16</text>
</g>
<!-- transition11 -->
<g id="node47" class="node"><title>transition11</title>
<polygon fill="none" stroke="black" points="140,-400 104,-400 104,-399 140,-399 140,-400"/>
<text text-anchor="middle" x="82.5" y="-403.8" font-family="Times,serif" font-size="14.00">wsldin&#45;</text>
</g>
<!-- PL16&#45;&gt;transition11 -->
<g id="edge48" class="edge"><title>PL16&#45;&gt;transition11</title>
<path fill="none" stroke="black" d="M122,-435.939C122,-425.385 122,-412.534 122,-405.412"/>
<polygon fill="none" stroke="black" points="123.75,-405.059 122,-400.059 120.25,-405.059 123.75,-405.059"/>
</g>
<!-- transition10&#45;&gt;PL16 -->
<g id="edge47" class="edge"><title>transition10&#45;&gt;PL16</title>
<path fill="none" stroke="black" d="M122,-507.848C122,-506.368 122,-494.319 122,-482.1"/>
<polygon fill="black" stroke="black" points="125.5,-482.025 122,-472.025 118.5,-482.025 125.5,-482.025"/>
</g>
<!-- PL17 -->
<g id="node46" class="node"><title>PL17</title>
<ellipse fill="none" stroke="black" cx="122" cy="-345" rx="18" ry="18"/>
<text text-anchor="middle" x="122" y="-341.3" font-family="Times,serif" font-size="14.00">PL17</text>
</g>
<!-- PL17&#45;&gt;transition22 -->
<g id="edge50" class="edge"><title>PL17&#45;&gt;transition22</title>
<path fill="none" stroke="black" d="M122,-326.939C122,-316.385 122,-303.534 122,-296.412"/>
<polygon fill="none" stroke="black" points="123.75,-296.059 122,-291.059 120.25,-296.059 123.75,-296.059"/>
</g>
<!-- transition11&#45;&gt;PL17 -->
<g id="edge49" class="edge"><title>transition11&#45;&gt;PL17</title>
<path fill="none" stroke="black" d="M122,-398.848C122,-397.368 122,-385.319 122,-373.1"/>
<polygon fill="black" stroke="black" points="125.5,-373.025 122,-363.025 118.5,-373.025 125.5,-373.025"/>
</g>
<!-- transition18 -->
<g id="node50" class="node"><title>transition18</title>
<polygon fill="none" stroke="black" points="140,-1089 104,-1089 104,-1088 140,-1088 140,-1089"/>
<text text-anchor="middle" x="90" y="-1092.8" font-family="Times,serif" font-size="14.00">wen&#45;</text>
</g>
<!-- PL21&#45;&gt;transition18 -->
<g id="edge52" class="edge"><title>PL21&#45;&gt;transition18</title>
<path fill="none" stroke="black" d="M122,-1124.94C122,-1114.39 122,-1101.53 122,-1094.41"/>
<polygon fill="none" stroke="black" points="123.75,-1094.06 122,-1089.06 120.25,-1094.06 123.75,-1094.06"/>
</g>
<!-- PL22 -->
<g id="node49" class="node"><title>PL22</title>
<ellipse fill="none" stroke="black" cx="122" cy="-1034" rx="18" ry="18"/>
<text text-anchor="middle" x="122" y="-1030.3" font-family="Times,serif" font-size="14.00">PL22</text>
</g>
<!-- PL22&#45;&gt;transition19 -->
<g id="edge54" class="edge"><title>PL22&#45;&gt;transition19</title>
<path fill="none" stroke="black" d="M122,-1015.94C122,-1005.39 122,-992.534 122,-985.412"/>
<polygon fill="none" stroke="black" points="123.75,-985.059 122,-980.059 120.25,-985.059 123.75,-985.059"/>
</g>
<!-- transition18&#45;&gt;PL22 -->
<g id="edge53" class="edge"><title>transition18&#45;&gt;PL22</title>
<path fill="none" stroke="black" d="M122,-1087.85C122,-1086.37 122,-1074.32 122,-1062.1"/>
<polygon fill="black" stroke="black" points="125.5,-1062.02 122,-1052.02 118.5,-1062.02 125.5,-1062.02"/>
</g>
<!-- transition23 -->
<g id="node53" class="node"><title>transition23</title>
<polygon fill="none" stroke="black" points="140,-1307 104,-1307 104,-1306 140,-1306 140,-1307"/>
<text text-anchor="middle" x="82.5" y="-1310.8" font-family="Times,serif" font-size="14.00">wenin+</text>
</g>
<!-- PL26&#45;&gt;transition23 -->
<g id="edge56" class="edge"><title>PL26&#45;&gt;transition23</title>
<path fill="none" stroke="black" d="M122,-1342.94C122,-1332.39 122,-1319.53 122,-1312.41"/>
<polygon fill="none" stroke="black" points="123.75,-1312.06 122,-1307.06 120.25,-1312.06 123.75,-1312.06"/>
</g>
<!-- PL27 -->
<g id="node52" class="node"><title>PL27</title>
<ellipse fill="none" stroke="black" cx="122" cy="-1252" rx="18" ry="18"/>
<text text-anchor="middle" x="122" y="-1248.3" font-family="Times,serif" font-size="14.00">PL27</text>
</g>
<!-- PL27&#45;&gt;transition24 -->
<g id="edge58" class="edge"><title>PL27&#45;&gt;transition24</title>
<path fill="none" stroke="black" d="M122,-1233.94C122,-1223.39 122,-1210.53 122,-1203.41"/>
<polygon fill="none" stroke="black" points="123.75,-1203.06 122,-1198.06 120.25,-1203.06 123.75,-1203.06"/>
</g>
<!-- transition23&#45;&gt;PL27 -->
<g id="edge57" class="edge"><title>transition23&#45;&gt;PL27</title>
<path fill="none" stroke="black" d="M122,-1305.85C122,-1304.37 122,-1292.32 122,-1280.1"/>
<polygon fill="black" stroke="black" points="125.5,-1280.02 122,-1270.02 118.5,-1280.02 125.5,-1280.02"/>
</g>
</g>
</svg>
