<?xml version="1.0" encoding="UTF-8" standalone="no"?>
<!DOCTYPE svg PUBLIC "-//W3C//DTD SVG 1.1//EN"
 "http://www.w3.org/Graphics/SVG/1.1/DTD/svg11.dtd">
<!-- Generated by graphviz version 2.38.0 (20140413.2041)
 -->
<!-- Title: %3 Pages: 1 -->
<svg width="315pt" height="1893pt"
 viewBox="0.00 0.00 315.00 1893.00" xmlns="http://www.w3.org/2000/svg" xmlns:xlink="http://www.w3.org/1999/xlink">
<g id="graph0" class="graph" transform="scale(1 1) rotate(0) translate(4 1889)">
<title>%3</title>
<polygon fill="white" stroke="none" points="-4,4 -4,-1889 311,-1889 311,4 -4,4"/>
<!-- PL1 -->
<g id="node1" class="node"><title>PL1</title>
<ellipse fill="none" stroke="black" cx="262" cy="-1867" rx="18" ry="18"/>
<text text-anchor="middle" x="262" y="-1863.3" font-family="Times,serif" font-size="14.00">PL1</text>
</g>
<!-- transition15 -->
<g id="node3" class="node"><title>transition15</title>
<polygon fill="none" stroke="black" points="236,-1813 200,-1813 200,-1812 236,-1812 236,-1813"/>
<text text-anchor="middle" x="149.5" y="-1816.8" font-family="Times,serif" font-size="14.00">y0_sbuframwrite&#45;</text>
</g>
<!-- PL1&#45;&gt;transition15 -->
<g id="edge1" class="edge"><title>PL1&#45;&gt;transition15</title>
<path fill="none" stroke="black" d="M250.897,-1852.63C241.229,-1840.98 227.805,-1824.81 221.516,-1817.23"/>
<polygon fill="none" stroke="black" points="222.598,-1815.8 218.057,-1813.07 219.905,-1818.03 222.598,-1815.8"/>
</g>
<!-- PL5 -->
<g id="node2" class="node"><title>PL5</title>
<ellipse fill="none" stroke="black" cx="197" cy="-1758" rx="18" ry="18"/>
<text text-anchor="middle" x="197" y="-1754.3" font-family="Times,serif" font-size="14.00">PL5</text>
</g>
<!-- transition1 -->
<g id="node5" class="node"><title>transition1</title>
<polygon fill="none" stroke="black" points="215,-1704 179,-1704 179,-1703 215,-1703 215,-1704"/>
<text text-anchor="middle" x="160" y="-1707.8" font-family="Times,serif" font-size="14.00">prbar+</text>
</g>
<!-- PL5&#45;&gt;transition1 -->
<g id="edge3" class="edge"><title>PL5&#45;&gt;transition1</title>
<path fill="none" stroke="black" d="M197,-1739.94C197,-1729.39 197,-1716.53 197,-1709.41"/>
<polygon fill="none" stroke="black" points="198.75,-1709.06 197,-1704.06 195.25,-1709.06 198.75,-1709.06"/>
</g>
<!-- transition15&#45;&gt;PL5 -->
<g id="edge2" class="edge"><title>transition15&#45;&gt;PL5</title>
<path fill="none" stroke="black" d="M217.94,-1811.85C217.326,-1810.3 212.13,-1797.18 207.068,-1784.41"/>
<polygon fill="black" stroke="black" points="210.238,-1782.91 203.301,-1774.9 203.731,-1785.49 210.238,-1782.91"/>
</g>
<!-- PL6 -->
<g id="node4" class="node"><title>PL6</title>
<ellipse fill="none" stroke="black" cx="197" cy="-1649" rx="18" ry="18"/>
<text text-anchor="middle" x="197" y="-1645.3" font-family="Times,serif" font-size="14.00">PL6</text>
</g>
<!-- transition2 -->
<g id="node7" class="node"><title>transition2</title>
<polygon fill="none" stroke="black" points="215,-1595 179,-1595 179,-1594 215,-1594 215,-1595"/>
<text text-anchor="middle" x="145.5" y="-1598.8" font-family="Times,serif" font-size="14.00">precharged&#45;</text>
</g>
<!-- PL6&#45;&gt;transition2 -->
<g id="edge5" class="edge"><title>PL6&#45;&gt;transition2</title>
<path fill="none" stroke="black" d="M197,-1630.94C197,-1620.39 197,-1607.53 197,-1600.41"/>
<polygon fill="none" stroke="black" points="198.75,-1600.06 197,-1595.06 195.25,-1600.06 198.75,-1600.06"/>
</g>
<!-- transition1&#45;&gt;PL6 -->
<g id="edge4" class="edge"><title>transition1&#45;&gt;PL6</title>
<path fill="none" stroke="black" d="M197,-1702.85C197,-1701.37 197,-1689.32 197,-1677.1"/>
<polygon fill="black" stroke="black" points="200.5,-1677.02 197,-1667.02 193.5,-1677.02 200.5,-1677.02"/>
</g>
<!-- PL7 -->
<g id="node6" class="node"><title>PL7</title>
<ellipse fill="none" stroke="black" cx="197" cy="-1540" rx="18" ry="18"/>
<text text-anchor="middle" x="197" y="-1536.3" font-family="Times,serif" font-size="14.00">PL7</text>
</g>
<!-- transition3 -->
<g id="node9" class="node"><title>transition3</title>
<polygon fill="none" stroke="black" points="215,-1486 179,-1486 179,-1485 215,-1485 215,-1486"/>
<text text-anchor="middle" x="163" y="-1489.8" font-family="Times,serif" font-size="14.00">wen+</text>
</g>
<!-- PL7&#45;&gt;transition3 -->
<g id="edge7" class="edge"><title>PL7&#45;&gt;transition3</title>
<path fill="none" stroke="black" d="M197,-1521.94C197,-1511.39 197,-1498.53 197,-1491.41"/>
<polygon fill="none" stroke="black" points="198.75,-1491.06 197,-1486.06 195.25,-1491.06 198.75,-1491.06"/>
</g>
<!-- transition2&#45;&gt;PL7 -->
<g id="edge6" class="edge"><title>transition2&#45;&gt;PL7</title>
<path fill="none" stroke="black" d="M197,-1593.85C197,-1592.37 197,-1580.32 197,-1568.1"/>
<polygon fill="black" stroke="black" points="200.5,-1568.02 197,-1558.02 193.5,-1568.02 200.5,-1568.02"/>
</g>
<!-- PL26 -->
<g id="node8" class="node"><title>PL26</title>
<ellipse fill="none" stroke="black" cx="143" cy="-1431" rx="18" ry="18"/>
<text text-anchor="middle" x="143" y="-1427.3" font-family="Times,serif" font-size="14.00">PL26</text>
</g>
<!-- transition23 -->
<g id="node11" class="node"><title>transition23</title>
<polygon fill="none" stroke="black" points="161,-1377 125,-1377 125,-1376 161,-1376 161,-1377"/>
<text text-anchor="middle" x="103.5" y="-1380.8" font-family="Times,serif" font-size="14.00">wenin+</text>
</g>
<!-- PL26&#45;&gt;transition23 -->
<g id="edge9" class="edge"><title>PL26&#45;&gt;transition23</title>
<path fill="none" stroke="black" d="M143,-1412.94C143,-1402.39 143,-1389.53 143,-1382.41"/>
<polygon fill="none" stroke="black" points="144.75,-1382.06 143,-1377.06 141.25,-1382.06 144.75,-1382.06"/>
</g>
<!-- transition3&#45;&gt;PL26 -->
<g id="edge8" class="edge"><title>transition3&#45;&gt;PL26</title>
<path fill="none" stroke="black" d="M196.845,-1484.85C195.012,-1483.05 177.262,-1465.63 162.635,-1451.27"/>
<polygon fill="black" stroke="black" points="164.96,-1448.65 155.372,-1444.14 160.057,-1453.65 164.96,-1448.65"/>
</g>
<!-- PL8 -->
<g id="node51" class="node"><title>PL8</title>
<ellipse fill="none" stroke="black" cx="197" cy="-1431" rx="18" ry="18"/>
<text text-anchor="middle" x="197" y="-1427.3" font-family="Times,serif" font-size="14.00">PL8</text>
</g>
<!-- transition3&#45;&gt;PL8 -->
<g id="edge55" class="edge"><title>transition3&#45;&gt;PL8</title>
<path fill="none" stroke="black" d="M197,-1484.85C197,-1483.37 197,-1471.32 197,-1459.1"/>
<polygon fill="black" stroke="black" points="200.5,-1459.02 197,-1449.02 193.5,-1459.02 200.5,-1459.02"/>
</g>
<!-- PL27 -->
<g id="node10" class="node"><title>PL27</title>
<ellipse fill="none" stroke="black" cx="143" cy="-1322" rx="18" ry="18"/>
<text text-anchor="middle" x="143" y="-1318.3" font-family="Times,serif" font-size="14.00">PL27</text>
</g>
<!-- transition24 -->
<g id="node13" class="node"><title>transition24</title>
<polygon fill="none" stroke="black" points="161,-1268 125,-1268 125,-1267 161,-1267 161,-1268"/>
<text text-anchor="middle" x="74.5" y="-1271.8" font-family="Times,serif" font-size="14.00">y1_sbuframwrite&#45;</text>
</g>
<!-- PL27&#45;&gt;transition24 -->
<g id="edge11" class="edge"><title>PL27&#45;&gt;transition24</title>
<path fill="none" stroke="black" d="M143,-1303.94C143,-1293.39 143,-1280.53 143,-1273.41"/>
<polygon fill="none" stroke="black" points="144.75,-1273.06 143,-1268.06 141.25,-1273.06 144.75,-1273.06"/>
</g>
<!-- transition23&#45;&gt;PL27 -->
<g id="edge10" class="edge"><title>transition23&#45;&gt;PL27</title>
<path fill="none" stroke="black" d="M143,-1375.85C143,-1374.37 143,-1362.32 143,-1350.1"/>
<polygon fill="black" stroke="black" points="146.5,-1350.02 143,-1340.02 139.5,-1350.02 146.5,-1350.02"/>
</g>
<!-- PL21 -->
<g id="node12" class="node"><title>PL21</title>
<ellipse fill="none" stroke="black" cx="143" cy="-1213" rx="18" ry="18"/>
<text text-anchor="middle" x="143" y="-1209.3" font-family="Times,serif" font-size="14.00">PL21</text>
</g>
<!-- transition18 -->
<g id="node15" class="node"><title>transition18</title>
<polygon fill="none" stroke="black" points="161,-1141.5 125,-1141.5 125,-1140.5 161,-1140.5 161,-1141.5"/>
<text text-anchor="middle" x="139" y="-1145.3" font-family="Times,serif" font-size="14.00">wen&#45;</text>
</g>
<!-- PL21&#45;&gt;transition18 -->
<g id="edge13" class="edge"><title>PL21&#45;&gt;transition18</title>
<path fill="none" stroke="black" d="M143,-1194.7C143,-1179.17 143,-1157.32 143,-1147.35"/>
<polygon fill="none" stroke="black" points="144.75,-1147.09 143,-1142.09 141.25,-1147.09 144.75,-1147.09"/>
</g>
<!-- transition24&#45;&gt;PL21 -->
<g id="edge12" class="edge"><title>transition24&#45;&gt;PL21</title>
<path fill="none" stroke="black" d="M143,-1266.85C143,-1265.37 143,-1253.32 143,-1241.1"/>
<polygon fill="black" stroke="black" points="146.5,-1241.02 143,-1231.02 139.5,-1241.02 146.5,-1241.02"/>
</g>
<!-- PL10 -->
<g id="node43" class="node"><title>PL10</title>
<ellipse fill="none" stroke="black" cx="197" cy="-1213" rx="18" ry="18"/>
<text text-anchor="middle" x="197" y="-1209.3" font-family="Times,serif" font-size="14.00">PL10</text>
</g>
<!-- transition24&#45;&gt;PL10 -->
<g id="edge45" class="edge"><title>transition24&#45;&gt;PL10</title>
<path fill="none" stroke="black" d="M143.155,-1266.85C144.988,-1265.05 162.738,-1247.63 177.365,-1233.27"/>
<polygon fill="black" stroke="black" points="179.943,-1235.65 184.628,-1226.14 175.04,-1230.65 179.943,-1235.65"/>
</g>
<!-- PL23 -->
<g id="node46" class="node"><title>PL23</title>
<ellipse fill="none" stroke="black" cx="89" cy="-1141" rx="18" ry="18"/>
<text text-anchor="middle" x="89" y="-1137.3" font-family="Times,serif" font-size="14.00">PL23</text>
</g>
<!-- transition24&#45;&gt;PL23 -->
<g id="edge49" class="edge"><title>transition24&#45;&gt;PL23</title>
<path fill="none" stroke="black" d="M142.948,-1266.95C141.886,-1265.87 124.758,-1248.28 116,-1231 105.933,-1211.13 98.8761,-1186.84 94.508,-1168.65"/>
<polygon fill="black" stroke="black" points="97.8813,-1167.7 92.2445,-1158.73 91.0567,-1169.26 97.8813,-1167.7"/>
</g>
<!-- PL22 -->
<g id="node14" class="node"><title>PL22</title>
<ellipse fill="none" stroke="black" cx="143" cy="-1069" rx="18" ry="18"/>
<text text-anchor="middle" x="143" y="-1065.3" font-family="Times,serif" font-size="14.00">PL22</text>
</g>
<!-- transition19 -->
<g id="node17" class="node"><title>transition19</title>
<polygon fill="none" stroke="black" points="161,-997.5 125,-997.5 125,-996.5 161,-996.5 161,-997.5"/>
<text text-anchor="middle" x="144.5" y="-1001.3" font-family="Times,serif" font-size="14.00">wenin&#45;</text>
</g>
<!-- PL22&#45;&gt;transition19 -->
<g id="edge15" class="edge"><title>PL22&#45;&gt;transition19</title>
<path fill="none" stroke="black" d="M143,-1050.7C143,-1035.17 143,-1013.32 143,-1003.35"/>
<polygon fill="none" stroke="black" points="144.75,-1003.09 143,-998.092 141.25,-1003.09 144.75,-1003.09"/>
</g>
<!-- transition18&#45;&gt;PL22 -->
<g id="edge14" class="edge"><title>transition18&#45;&gt;PL22</title>
<path fill="none" stroke="black" d="M143,-1139.95C143,-1138.75 143,-1116.43 143,-1097.32"/>
<polygon fill="black" stroke="black" points="146.5,-1097.19 143,-1087.19 139.5,-1097.19 146.5,-1097.19"/>
</g>
<!-- PL12 -->
<g id="node16" class="node"><title>PL12</title>
<ellipse fill="none" stroke="black" cx="143" cy="-925" rx="18" ry="18"/>
<text text-anchor="middle" x="143" y="-921.3" font-family="Times,serif" font-size="14.00">PL12</text>
</g>
<!-- transition6 -->
<g id="node19" class="node"><title>transition6</title>
<polygon fill="none" stroke="black" points="161,-853.5 125,-853.5 125,-852.5 161,-852.5 161,-853.5"/>
<text text-anchor="middle" x="142.5" y="-857.3" font-family="Times,serif" font-size="14.00">wsld+</text>
</g>
<!-- PL12&#45;&gt;transition6 -->
<g id="edge17" class="edge"><title>PL12&#45;&gt;transition6</title>
<path fill="none" stroke="black" d="M143,-906.697C143,-891.165 143,-869.324 143,-859.348"/>
<polygon fill="none" stroke="black" points="144.75,-859.092 143,-854.092 141.25,-859.092 144.75,-859.092"/>
</g>
<!-- transition19&#45;&gt;PL12 -->
<g id="edge16" class="edge"><title>transition19&#45;&gt;PL12</title>
<path fill="none" stroke="black" d="M143,-995.949C143,-994.748 143,-972.429 143,-953.321"/>
<polygon fill="black" stroke="black" points="146.5,-953.191 143,-943.191 139.5,-953.191 146.5,-953.191"/>
</g>
<!-- PL13 -->
<g id="node18" class="node"><title>PL13</title>
<ellipse fill="none" stroke="black" cx="143" cy="-781" rx="18" ry="18"/>
<text text-anchor="middle" x="143" y="-777.3" font-family="Times,serif" font-size="14.00">PL13</text>
</g>
<!-- transition7 -->
<g id="node21" class="node"><title>transition7</title>
<polygon fill="none" stroke="black" points="161,-727 125,-727 125,-726 161,-726 161,-727"/>
<text text-anchor="middle" x="102" y="-730.8" font-family="Times,serif" font-size="14.00">wsldin+</text>
</g>
<!-- PL13&#45;&gt;transition7 -->
<g id="edge19" class="edge"><title>PL13&#45;&gt;transition7</title>
<path fill="none" stroke="black" d="M143,-762.939C143,-752.385 143,-739.534 143,-732.412"/>
<polygon fill="none" stroke="black" points="144.75,-732.059 143,-727.059 141.25,-732.059 144.75,-732.059"/>
</g>
<!-- transition6&#45;&gt;PL13 -->
<g id="edge18" class="edge"><title>transition6&#45;&gt;PL13</title>
<path fill="none" stroke="black" d="M143,-851.949C143,-850.748 143,-828.429 143,-809.321"/>
<polygon fill="black" stroke="black" points="146.5,-809.191 143,-799.191 139.5,-809.191 146.5,-809.191"/>
</g>
<!-- PL14 -->
<g id="node20" class="node"><title>PL14</title>
<ellipse fill="none" stroke="black" cx="143" cy="-672" rx="18" ry="18"/>
<text text-anchor="middle" x="143" y="-668.3" font-family="Times,serif" font-size="14.00">PL14</text>
</g>
<!-- transition8 -->
<g id="node23" class="node"><title>transition8</title>
<polygon fill="none" stroke="black" points="161,-618 125,-618 125,-617 161,-617 161,-618"/>
<text text-anchor="middle" x="73" y="-621.8" font-family="Times,serif" font-size="14.00">y0_sbuframwrite+</text>
</g>
<!-- PL14&#45;&gt;transition8 -->
<g id="edge21" class="edge"><title>PL14&#45;&gt;transition8</title>
<path fill="none" stroke="black" d="M143,-653.939C143,-643.385 143,-630.534 143,-623.412"/>
<polygon fill="none" stroke="black" points="144.75,-623.059 143,-618.059 141.25,-623.059 144.75,-623.059"/>
</g>
<!-- transition7&#45;&gt;PL14 -->
<g id="edge20" class="edge"><title>transition7&#45;&gt;PL14</title>
<path fill="none" stroke="black" d="M143,-725.848C143,-724.368 143,-712.319 143,-700.1"/>
<polygon fill="black" stroke="black" points="146.5,-700.025 143,-690.025 139.5,-700.025 146.5,-700.025"/>
</g>
<!-- PL15 -->
<g id="node22" class="node"><title>PL15</title>
<ellipse fill="none" stroke="black" cx="143" cy="-563" rx="18" ry="18"/>
<text text-anchor="middle" x="143" y="-559.3" font-family="Times,serif" font-size="14.00">PL15</text>
</g>
<!-- transition9 -->
<g id="node25" class="node"><title>transition9</title>
<polygon fill="none" stroke="black" points="161,-509 125,-509 125,-508 161,-508 161,-509"/>
<text text-anchor="middle" x="109" y="-512.8" font-family="Times,serif" font-size="14.00">wsld&#45;</text>
</g>
<!-- PL15&#45;&gt;transition9 -->
<g id="edge23" class="edge"><title>PL15&#45;&gt;transition9</title>
<path fill="none" stroke="black" d="M143,-544.939C143,-534.385 143,-521.534 143,-514.412"/>
<polygon fill="none" stroke="black" points="144.75,-514.059 143,-509.059 141.25,-514.059 144.75,-514.059"/>
</g>
<!-- transition8&#45;&gt;PL15 -->
<g id="edge22" class="edge"><title>transition8&#45;&gt;PL15</title>
<path fill="none" stroke="black" d="M143,-616.848C143,-615.368 143,-603.319 143,-591.1"/>
<polygon fill="black" stroke="black" points="146.5,-591.025 143,-581.025 139.5,-591.025 146.5,-591.025"/>
</g>
<!-- PL16 -->
<g id="node24" class="node"><title>PL16</title>
<ellipse fill="none" stroke="black" cx="143" cy="-454" rx="18" ry="18"/>
<text text-anchor="middle" x="143" y="-450.3" font-family="Times,serif" font-size="14.00">PL16</text>
</g>
<!-- transition10 -->
<g id="node27" class="node"><title>transition10</title>
<polygon fill="none" stroke="black" points="161,-400 125,-400 125,-399 161,-399 161,-400"/>
<text text-anchor="middle" x="103.5" y="-403.8" font-family="Times,serif" font-size="14.00">wsldin&#45;</text>
</g>
<!-- PL16&#45;&gt;transition10 -->
<g id="edge25" class="edge"><title>PL16&#45;&gt;transition10</title>
<path fill="none" stroke="black" d="M143,-435.939C143,-425.385 143,-412.534 143,-405.412"/>
<polygon fill="none" stroke="black" points="144.75,-405.059 143,-400.059 141.25,-405.059 144.75,-405.059"/>
</g>
<!-- transition9&#45;&gt;PL16 -->
<g id="edge24" class="edge"><title>transition9&#45;&gt;PL16</title>
<path fill="none" stroke="black" d="M143,-507.848C143,-506.368 143,-494.319 143,-482.1"/>
<polygon fill="black" stroke="black" points="146.5,-482.025 143,-472.025 139.5,-482.025 146.5,-482.025"/>
</g>
<!-- PL17 -->
<g id="node26" class="node"><title>PL17</title>
<ellipse fill="none" stroke="black" cx="143" cy="-345" rx="18" ry="18"/>
<text text-anchor="middle" x="143" y="-341.3" font-family="Times,serif" font-size="14.00">PL17</text>
</g>
<!-- transition22 -->
<g id="node29" class="node"><title>transition22</title>
<polygon fill="none" stroke="black" points="161,-291 125,-291 125,-290 161,-290 161,-291"/>
<text text-anchor="middle" x="73" y="-294.8" font-family="Times,serif" font-size="14.00">y1_sbuframwrite+</text>
</g>
<!-- PL17&#45;&gt;transition22 -->
<g id="edge27" class="edge"><title>PL17&#45;&gt;transition22</title>
<path fill="none" stroke="black" d="M143,-326.939C143,-316.385 143,-303.534 143,-296.412"/>
<polygon fill="none" stroke="black" points="144.75,-296.059 143,-291.059 141.25,-296.059 144.75,-296.059"/>
</g>
<!-- transition10&#45;&gt;PL17 -->
<g id="edge26" class="edge"><title>transition10&#45;&gt;PL17</title>
<path fill="none" stroke="black" d="M143,-398.848C143,-397.368 143,-385.319 143,-373.1"/>
<polygon fill="black" stroke="black" points="146.5,-373.025 143,-363.025 139.5,-373.025 146.5,-373.025"/>
</g>
<!-- PL20 -->
<g id="node28" class="node"><title>PL20</title>
<ellipse fill="none" stroke="black" cx="197" cy="-236" rx="18" ry="18"/>
<text text-anchor="middle" x="197" y="-232.3" font-family="Times,serif" font-size="14.00">PL20</text>
</g>
<!-- transition16 -->
<g id="node31" class="node"><title>transition16</title>
<polygon fill="none" stroke="black" points="215,-182 179,-182 179,-181 215,-181 215,-182"/>
<text text-anchor="middle" x="166.5" y="-185.8" font-family="Times,serif" font-size="14.00">ack&#45;</text>
</g>
<!-- PL20&#45;&gt;transition16 -->
<g id="edge29" class="edge"><title>PL20&#45;&gt;transition16</title>
<path fill="none" stroke="black" d="M197,-217.939C197,-207.385 197,-194.534 197,-187.412"/>
<polygon fill="none" stroke="black" points="198.75,-187.059 197,-182.059 195.25,-187.059 198.75,-187.059"/>
</g>
<!-- transition22&#45;&gt;PL20 -->
<g id="edge28" class="edge"><title>transition22&#45;&gt;PL20</title>
<path fill="none" stroke="black" d="M143.155,-289.848C144.988,-288.049 162.738,-270.628 177.365,-256.272"/>
<polygon fill="black" stroke="black" points="179.943,-258.645 184.628,-249.143 175.04,-253.649 179.943,-258.645"/>
</g>
<!-- PL18 -->
<g id="node33" class="node"><title>PL18</title>
<ellipse fill="none" stroke="black" cx="143" cy="-236" rx="18" ry="18"/>
<text text-anchor="middle" x="143" y="-232.3" font-family="Times,serif" font-size="14.00">PL18</text>
</g>
<!-- transition22&#45;&gt;PL18 -->
<g id="edge33" class="edge"><title>transition22&#45;&gt;PL18</title>
<path fill="none" stroke="black" d="M143,-289.848C143,-288.368 143,-276.319 143,-264.1"/>
<polygon fill="black" stroke="black" points="146.5,-264.025 143,-254.025 139.5,-264.025 146.5,-264.025"/>
</g>
<!-- PL19 -->
<g id="node38" class="node"><title>PL19</title>
<ellipse fill="none" stroke="black" cx="89" cy="-236" rx="18" ry="18"/>
<text text-anchor="middle" x="89" y="-232.3" font-family="Times,serif" font-size="14.00">PL19</text>
</g>
<!-- transition22&#45;&gt;PL19 -->
<g id="edge39" class="edge"><title>transition22&#45;&gt;PL19</title>
<path fill="none" stroke="black" d="M142.845,-289.848C141.012,-288.049 123.262,-270.628 108.635,-256.272"/>
<polygon fill="black" stroke="black" points="110.96,-253.649 101.372,-249.143 106.057,-258.645 110.96,-253.649"/>
</g>
<!-- PL4 -->
<g id="node30" class="node"><title>PL4</title>
<ellipse fill="none" stroke="black" cx="197" cy="-127" rx="18" ry="18"/>
<text text-anchor="middle" x="197" y="-123.3" font-family="Times,serif" font-size="14.00">PL4</text>
</g>
<!-- transition17 -->
<g id="node32" class="node"><title>transition17</title>
<polygon fill="none" stroke="black" points="307,-73 271,-73 271,-72 307,-72 307,-73"/>
<text text-anchor="middle" x="258" y="-76.8" font-family="Times,serif" font-size="14.00">req+</text>
</g>
<!-- PL4&#45;&gt;transition17 -->
<g id="edge31" class="edge"><title>PL4&#45;&gt;transition17</title>
<path fill="none" stroke="black" d="M212.192,-117.248C233.551,-104.944 271.309,-83.1913 284.388,-75.6569"/>
<polygon fill="none" stroke="black" points="285.395,-77.0965 288.854,-73.0842 283.648,-74.0638 285.395,-77.0965"/>
</g>
<!-- transition16&#45;&gt;PL4 -->
<g id="edge30" class="edge"><title>transition16&#45;&gt;PL4</title>
<path fill="none" stroke="black" d="M197,-180.848C197,-179.368 197,-167.319 197,-155.1"/>
<polygon fill="black" stroke="black" points="200.5,-155.025 197,-145.025 193.5,-155.025 200.5,-155.025"/>
</g>
<!-- transition17&#45;&gt;PL1 -->
<g id="edge32" class="edge"><title>transition17&#45;&gt;PL1</title>
<path fill="none" stroke="black" d="M288.997,-73.0436C288.876,-74.8711 285,-133.718 285,-181 285,-1759 285,-1759 285,-1759 285,-1787.25 277.243,-1818.77 270.738,-1840.24"/>
<polygon fill="black" stroke="black" points="267.358,-1839.33 267.685,-1849.92 274.033,-1841.43 267.358,-1839.33"/>
</g>
<!-- transition11 -->
<g id="node35" class="node"><title>transition11</title>
<polygon fill="none" stroke="black" points="161,-182 125,-182 125,-181 161,-181 161,-182"/>
<text text-anchor="middle" x="106.5" y="-185.8" font-family="Times,serif" font-size="14.00">wsen+</text>
</g>
<!-- PL18&#45;&gt;transition11 -->
<g id="edge34" class="edge"><title>PL18&#45;&gt;transition11</title>
<path fill="none" stroke="black" d="M143,-217.939C143,-207.385 143,-194.534 143,-187.412"/>
<polygon fill="none" stroke="black" points="144.75,-187.059 143,-182.059 141.25,-187.059 144.75,-187.059"/>
</g>
<!-- PL2 -->
<g id="node34" class="node"><title>PL2</title>
<ellipse fill="none" stroke="black" cx="143" cy="-127" rx="18" ry="18"/>
<text text-anchor="middle" x="143" y="-123.3" font-family="Times,serif" font-size="14.00">PL2</text>
</g>
<!-- transition12 -->
<g id="node37" class="node"><title>transition12</title>
<polygon fill="none" stroke="black" points="161,-73 125,-73 125,-72 161,-72 161,-73"/>
<text text-anchor="middle" x="109" y="-76.8" font-family="Times,serif" font-size="14.00">done&#45;</text>
</g>
<!-- PL2&#45;&gt;transition12 -->
<g id="edge36" class="edge"><title>PL2&#45;&gt;transition12</title>
<path fill="none" stroke="black" d="M143,-108.939C143,-98.3852 143,-85.5344 143,-78.4124"/>
<polygon fill="none" stroke="black" points="144.75,-78.0591 143,-73.0591 141.25,-78.0592 144.75,-78.0591"/>
</g>
<!-- transition11&#45;&gt;PL2 -->
<g id="edge35" class="edge"><title>transition11&#45;&gt;PL2</title>
<path fill="none" stroke="black" d="M143,-180.848C143,-179.368 143,-167.319 143,-155.1"/>
<polygon fill="black" stroke="black" points="146.5,-155.025 143,-145.025 139.5,-155.025 146.5,-155.025"/>
</g>
<!-- PL28 -->
<g id="node36" class="node"><title>PL28</title>
<ellipse fill="none" stroke="black" cx="154" cy="-18" rx="18" ry="18"/>
<text text-anchor="middle" x="154" y="-14.3" font-family="Times,serif" font-size="14.00">PL28</text>
</g>
<!-- PL28&#45;&gt;transition15 -->
<g id="edge38" class="edge"><title>PL28&#45;&gt;transition15</title>
<path fill="none" stroke="black" d="M169.503,-28.0228C195.002,-44.1619 243,-80.5745 243,-126 243,-1704 243,-1704 243,-1704 243,-1744.92 225.754,-1792.37 219.91,-1807.27"/>
<polygon fill="none" stroke="black" points="218.268,-1806.67 218.018,-1811.96 221.513,-1807.98 218.268,-1806.67"/>
</g>
<!-- transition12&#45;&gt;PL28 -->
<g id="edge37" class="edge"><title>transition12&#45;&gt;PL28</title>
<path fill="none" stroke="black" d="M143.032,-71.848C143.341,-70.3585 145.872,-58.1645 148.424,-45.8654"/>
<polygon fill="black" stroke="black" points="151.92,-46.2449 150.525,-35.7422 145.066,-44.8223 151.92,-46.2449"/>
</g>
<!-- transition13 -->
<g id="node40" class="node"><title>transition13</title>
<polygon fill="none" stroke="black" points="107,-182 71,-182 71,-181 107,-181 107,-182"/>
<text text-anchor="middle" x="53.5" y="-185.8" font-family="Times,serif" font-size="14.00">prbar&#45;</text>
</g>
<!-- PL19&#45;&gt;transition13 -->
<g id="edge40" class="edge"><title>PL19&#45;&gt;transition13</title>
<path fill="none" stroke="black" d="M89,-217.939C89,-207.385 89,-194.534 89,-187.412"/>
<polygon fill="none" stroke="black" points="90.7501,-187.059 89,-182.059 87.2501,-187.059 90.7501,-187.059"/>
</g>
<!-- PL3 -->
<g id="node39" class="node"><title>PL3</title>
<ellipse fill="none" stroke="black" cx="89" cy="-127" rx="18" ry="18"/>
<text text-anchor="middle" x="89" y="-123.3" font-family="Times,serif" font-size="14.00">PL3</text>
</g>
<!-- transition14 -->
<g id="node42" class="node"><title>transition14</title>
<polygon fill="none" stroke="black" points="107,-73 71,-73 71,-72 107,-72 107,-73"/>
<text text-anchor="middle" x="35.5" y="-76.8" font-family="Times,serif" font-size="14.00">precharged+</text>
</g>
<!-- PL3&#45;&gt;transition14 -->
<g id="edge42" class="edge"><title>PL3&#45;&gt;transition14</title>
<path fill="none" stroke="black" d="M89,-108.939C89,-98.3852 89,-85.5344 89,-78.4124"/>
<polygon fill="none" stroke="black" points="90.7501,-78.0591 89,-73.0591 87.2501,-78.0592 90.7501,-78.0591"/>
</g>
<!-- transition13&#45;&gt;PL3 -->
<g id="edge41" class="edge"><title>transition13&#45;&gt;PL3</title>
<path fill="none" stroke="black" d="M89,-180.848C89,-179.368 89,-167.319 89,-155.1"/>
<polygon fill="black" stroke="black" points="92.5001,-155.025 89,-145.025 85.5001,-155.025 92.5001,-155.025"/>
</g>
<!-- PL29 -->
<g id="node41" class="node"><title>PL29</title>
<ellipse fill="none" stroke="black" cx="77" cy="-18" rx="18" ry="18"/>
<text text-anchor="middle" x="77" y="-14.3" font-family="Times,serif" font-size="14.00">PL29</text>
</g>
<!-- PL29&#45;&gt;transition15 -->
<g id="edge44" class="edge"><title>PL29&#45;&gt;transition15</title>
<path fill="none" stroke="black" d="M68.9425,-34.1128C58.8882,-54.4134 43,-91.8896 43,-126 43,-1704 43,-1704 43,-1704 43,-1785.89 183.472,-1807.73 212.709,-1811.4"/>
<polygon fill="none" stroke="black" points="212.706,-1813.16 217.873,-1811.99 213.105,-1809.68 212.706,-1813.16"/>
</g>
<!-- transition14&#45;&gt;PL29 -->
<g id="edge43" class="edge"><title>transition14&#45;&gt;PL29</title>
<path fill="none" stroke="black" d="M88.9656,-71.848C88.625,-70.3436 85.812,-57.9195 82.9992,-45.4964"/>
<polygon fill="black" stroke="black" points="86.4126,-44.7225 80.7907,-35.7422 79.5854,-46.2683 86.4126,-44.7225"/>
</g>
<!-- transition5 -->
<g id="node45" class="node"><title>transition5</title>
<polygon fill="none" stroke="black" points="215,-1141.5 179,-1141.5 179,-1140.5 215,-1140.5 215,-1141.5"/>
<text text-anchor="middle" x="162" y="-1129.3" font-family="Times,serif" font-size="14.00">wsen&#45;</text>
</g>
<!-- PL10&#45;&gt;transition5 -->
<g id="edge46" class="edge"><title>PL10&#45;&gt;transition5</title>
<path fill="none" stroke="black" d="M197,-1194.7C197,-1179.17 197,-1157.32 197,-1147.35"/>
<polygon fill="none" stroke="black" points="198.75,-1147.09 197,-1142.09 195.25,-1147.09 198.75,-1147.09"/>
</g>
<!-- PL11 -->
<g id="node44" class="node"><title>PL11</title>
<ellipse fill="none" stroke="black" cx="197" cy="-1069" rx="18" ry="18"/>
<text text-anchor="middle" x="197" y="-1065.3" font-family="Times,serif" font-size="14.00">PL11</text>
</g>
<!-- PL11&#45;&gt;transition19 -->
<g id="edge48" class="edge"><title>PL11&#45;&gt;transition19</title>
<path fill="none" stroke="black" d="M186.331,-1054.17C173.825,-1037.96 153.832,-1012.04 146.148,-1002.08"/>
<polygon fill="none" stroke="black" points="147.519,-1000.99 143.08,-998.103 144.748,-1003.13 147.519,-1000.99"/>
</g>
<!-- transition5&#45;&gt;PL11 -->
<g id="edge47" class="edge"><title>transition5&#45;&gt;PL11</title>
<path fill="none" stroke="black" d="M197,-1139.95C197,-1138.75 197,-1116.43 197,-1097.32"/>
<polygon fill="black" stroke="black" points="200.5,-1097.19 197,-1087.19 193.5,-1097.19 200.5,-1097.19"/>
</g>
<!-- transition20 -->
<g id="node48" class="node"><title>transition20</title>
<polygon fill="none" stroke="black" points="107,-1069.5 71,-1069.5 71,-1068.5 107,-1068.5 107,-1069.5"/>
<text text-anchor="middle" x="57" y="-1073.3" font-family="Times,serif" font-size="14.00">ack+</text>
</g>
<!-- PL23&#45;&gt;transition20 -->
<g id="edge50" class="edge"><title>PL23&#45;&gt;transition20</title>
<path fill="none" stroke="black" d="M89,-1122.7C89,-1107.17 89,-1085.32 89,-1075.35"/>
<polygon fill="none" stroke="black" points="90.7501,-1075.09 89,-1070.09 87.2501,-1075.09 90.7501,-1075.09"/>
</g>
<!-- PL24 -->
<g id="node47" class="node"><title>PL24</title>
<ellipse fill="none" stroke="black" cx="89" cy="-997" rx="18" ry="18"/>
<text text-anchor="middle" x="89" y="-993.3" font-family="Times,serif" font-size="14.00">PL24</text>
</g>
<!-- transition21 -->
<g id="node50" class="node"><title>transition21</title>
<polygon fill="none" stroke="black" points="107,-925.5 71,-925.5 71,-924.5 107,-924.5 107,-925.5"/>
<text text-anchor="middle" x="59.5" y="-929.3" font-family="Times,serif" font-size="14.00">req&#45;</text>
</g>
<!-- PL24&#45;&gt;transition21 -->
<g id="edge52" class="edge"><title>PL24&#45;&gt;transition21</title>
<path fill="none" stroke="black" d="M89,-978.697C89,-963.165 89,-941.324 89,-931.348"/>
<polygon fill="none" stroke="black" points="90.7501,-931.092 89,-926.092 87.2501,-931.092 90.7501,-931.092"/>
</g>
<!-- transition20&#45;&gt;PL24 -->
<g id="edge51" class="edge"><title>transition20&#45;&gt;PL24</title>
<path fill="none" stroke="black" d="M89,-1067.95C89,-1066.75 89,-1044.43 89,-1025.32"/>
<polygon fill="black" stroke="black" points="92.5001,-1025.19 89,-1015.19 85.5001,-1025.19 92.5001,-1025.19"/>
</g>
<!-- PL25 -->
<g id="node49" class="node"><title>PL25</title>
<ellipse fill="none" stroke="black" cx="89" cy="-853" rx="18" ry="18"/>
<text text-anchor="middle" x="89" y="-849.3" font-family="Times,serif" font-size="14.00">PL25</text>
</g>
<!-- PL25&#45;&gt;transition22 -->
<g id="edge54" class="edge"><title>PL25&#45;&gt;transition22</title>
<path fill="none" stroke="black" d="M89.9077,-834.615C91.0878,-810.475 93,-765.431 93,-727 93,-727 93,-727 93,-399 93,-365.407 100.596,-356.853 116,-327 122.524,-314.355 133.431,-301.482 139.182,-295.105"/>
<polygon fill="none" stroke="black" points="140.826,-295.907 142.949,-291.053 138.263,-293.524 140.826,-295.907"/>
</g>
<!-- transition21&#45;&gt;PL25 -->
<g id="edge53" class="edge"><title>transition21&#45;&gt;PL25</title>
<path fill="none" stroke="black" d="M89,-923.949C89,-922.748 89,-900.429 89,-881.321"/>
<polygon fill="black" stroke="black" points="92.5001,-881.191 89,-871.191 85.5001,-881.191 92.5001,-881.191"/>
</g>
<!-- transition4 -->
<g id="node53" class="node"><title>transition4</title>
<polygon fill="none" stroke="black" points="215,-1377 179,-1377 179,-1376 215,-1376 215,-1377"/>
<text text-anchor="middle" x="161" y="-1380.8" font-family="Times,serif" font-size="14.00">done+</text>
</g>
<!-- PL8&#45;&gt;transition4 -->
<g id="edge56" class="edge"><title>PL8&#45;&gt;transition4</title>
<path fill="none" stroke="black" d="M197,-1412.94C197,-1402.39 197,-1389.53 197,-1382.41"/>
<polygon fill="none" stroke="black" points="198.75,-1382.06 197,-1377.06 195.25,-1382.06 198.75,-1382.06"/>
</g>
<!-- PL9 -->
<g id="node52" class="node"><title>PL9</title>
<ellipse fill="none" stroke="black" cx="197" cy="-1322" rx="18" ry="18"/>
<text text-anchor="middle" x="197" y="-1318.3" font-family="Times,serif" font-size="14.00">PL9</text>
</g>
<!-- PL9&#45;&gt;transition24 -->
<g id="edge58" class="edge"><title>PL9&#45;&gt;transition24</title>
<path fill="none" stroke="black" d="M184.476,-1308.71C172.402,-1296.86 154.847,-1279.63 147.023,-1271.95"/>
<polygon fill="none" stroke="black" points="147.868,-1270.33 143.074,-1268.07 145.416,-1272.82 147.868,-1270.33"/>
</g>
<!-- transition4&#45;&gt;PL9 -->
<g id="edge57" class="edge"><title>transition4&#45;&gt;PL9</title>
<path fill="none" stroke="black" d="M197,-1375.85C197,-1374.37 197,-1362.32 197,-1350.1"/>
<polygon fill="black" stroke="black" points="200.5,-1350.02 197,-1340.02 193.5,-1350.02 200.5,-1350.02"/>
</g>
</g>
</svg>
