<?xml version="1.0" encoding="UTF-8" standalone="no"?>
<!DOCTYPE svg PUBLIC "-//W3C//DTD SVG 1.1//EN"
 "http://www.w3.org/Graphics/SVG/1.1/DTD/svg11.dtd">
<!-- Generated by graphviz version 2.38.0 (20140413.2041)
 -->
<!-- Title: %3 Pages: 1 -->
<svg width="294pt" height="1893pt"
 viewBox="0.00 0.00 294.00 1893.00" xmlns="http://www.w3.org/2000/svg" xmlns:xlink="http://www.w3.org/1999/xlink">
<g id="graph0" class="graph" transform="scale(1 1) rotate(0) translate(4 1889)">
<title>%3</title>
<polygon fill="white" stroke="none" points="-4,4 -4,-1889 290,-1889 290,4 -4,4"/>
<!-- PL1 -->
<g id="node1" class="node"><title>PL1</title>
<ellipse fill="none" stroke="black" cx="241" cy="-1867" rx="18" ry="18"/>
<text text-anchor="middle" x="241" y="-1863.3" font-family="Times,serif" font-size="14.00">PL1</text>
</g>
<!-- transition15 -->
<g id="node3" class="node"><title>transition15</title>
<polygon fill="none" stroke="black" points="215,-1813 179,-1813 179,-1812 215,-1812 215,-1813"/>
<text text-anchor="middle" x="128.5" y="-1816.8" font-family="Times,serif" font-size="14.00">y0_sbuframwrite&#45;</text>
</g>
<!-- PL1&#45;&gt;transition15 -->
<g id="edge1" class="edge"><title>PL1&#45;&gt;transition15</title>
<path fill="none" stroke="black" d="M229.897,-1852.63C220.229,-1840.98 206.805,-1824.81 200.516,-1817.23"/>
<polygon fill="none" stroke="black" points="201.598,-1815.8 197.057,-1813.07 198.905,-1818.03 201.598,-1815.8"/>
</g>
<!-- PL5 -->
<g id="node2" class="node"><title>PL5</title>
<ellipse fill="none" stroke="black" cx="176" cy="-1758" rx="18" ry="18"/>
<text text-anchor="middle" x="176" y="-1754.3" font-family="Times,serif" font-size="14.00">PL5</text>
</g>
<!-- transition1 -->
<g id="node5" class="node"><title>transition1</title>
<polygon fill="none" stroke="black" points="194,-1704 158,-1704 158,-1703 194,-1703 194,-1704"/>
<text text-anchor="middle" x="139" y="-1707.8" font-family="Times,serif" font-size="14.00">prbar+</text>
</g>
<!-- PL5&#45;&gt;transition1 -->
<g id="edge3" class="edge"><title>PL5&#45;&gt;transition1</title>
<path fill="none" stroke="black" d="M176,-1739.94C176,-1729.39 176,-1716.53 176,-1709.41"/>
<polygon fill="none" stroke="black" points="177.75,-1709.06 176,-1704.06 174.25,-1709.06 177.75,-1709.06"/>
</g>
<!-- transition15&#45;&gt;PL5 -->
<g id="edge2" class="edge"><title>transition15&#45;&gt;PL5</title>
<path fill="none" stroke="black" d="M196.94,-1811.85C196.326,-1810.3 191.13,-1797.18 186.068,-1784.41"/>
<polygon fill="black" stroke="black" points="189.238,-1782.91 182.301,-1774.9 182.731,-1785.49 189.238,-1782.91"/>
</g>
<!-- PL6 -->
<g id="node4" class="node"><title>PL6</title>
<ellipse fill="none" stroke="black" cx="176" cy="-1649" rx="18" ry="18"/>
<text text-anchor="middle" x="176" y="-1645.3" font-family="Times,serif" font-size="14.00">PL6</text>
</g>
<!-- transition2 -->
<g id="node7" class="node"><title>transition2</title>
<polygon fill="none" stroke="black" points="194,-1595 158,-1595 158,-1594 194,-1594 194,-1595"/>
<text text-anchor="middle" x="124.5" y="-1598.8" font-family="Times,serif" font-size="14.00">precharged&#45;</text>
</g>
<!-- PL6&#45;&gt;transition2 -->
<g id="edge5" class="edge"><title>PL6&#45;&gt;transition2</title>
<path fill="none" stroke="black" d="M176,-1630.94C176,-1620.39 176,-1607.53 176,-1600.41"/>
<polygon fill="none" stroke="black" points="177.75,-1600.06 176,-1595.06 174.25,-1600.06 177.75,-1600.06"/>
</g>
<!-- transition1&#45;&gt;PL6 -->
<g id="edge4" class="edge"><title>transition1&#45;&gt;PL6</title>
<path fill="none" stroke="black" d="M176,-1702.85C176,-1701.37 176,-1689.32 176,-1677.1"/>
<polygon fill="black" stroke="black" points="179.5,-1677.02 176,-1667.02 172.5,-1677.02 179.5,-1677.02"/>
</g>
<!-- PL7 -->
<g id="node6" class="node"><title>PL7</title>
<ellipse fill="none" stroke="black" cx="176" cy="-1540" rx="18" ry="18"/>
<text text-anchor="middle" x="176" y="-1536.3" font-family="Times,serif" font-size="14.00">PL7</text>
</g>
<!-- transition3 -->
<g id="node9" class="node"><title>transition3</title>
<polygon fill="none" stroke="black" points="194,-1486 158,-1486 158,-1485 194,-1485 194,-1486"/>
<text text-anchor="middle" x="142" y="-1489.8" font-family="Times,serif" font-size="14.00">wen+</text>
</g>
<!-- PL7&#45;&gt;transition3 -->
<g id="edge7" class="edge"><title>PL7&#45;&gt;transition3</title>
<path fill="none" stroke="black" d="M176,-1521.94C176,-1511.39 176,-1498.53 176,-1491.41"/>
<polygon fill="none" stroke="black" points="177.75,-1491.06 176,-1486.06 174.25,-1491.06 177.75,-1491.06"/>
</g>
<!-- transition2&#45;&gt;PL7 -->
<g id="edge6" class="edge"><title>transition2&#45;&gt;PL7</title>
<path fill="none" stroke="black" d="M176,-1593.85C176,-1592.37 176,-1580.32 176,-1568.1"/>
<polygon fill="black" stroke="black" points="179.5,-1568.02 176,-1558.02 172.5,-1568.02 179.5,-1568.02"/>
</g>
<!-- PL26 -->
<g id="node8" class="node"><title>PL26</title>
<ellipse fill="none" stroke="black" cx="176" cy="-1431" rx="18" ry="18"/>
<text text-anchor="middle" x="176" y="-1427.3" font-family="Times,serif" font-size="14.00">PL26</text>
</g>
<!-- transition23 -->
<g id="node11" class="node"><title>transition23</title>
<polygon fill="none" stroke="black" points="194,-1377 158,-1377 158,-1376 194,-1376 194,-1377"/>
<text text-anchor="middle" x="136.5" y="-1380.8" font-family="Times,serif" font-size="14.00">wenin+</text>
</g>
<!-- PL26&#45;&gt;transition23 -->
<g id="edge9" class="edge"><title>PL26&#45;&gt;transition23</title>
<path fill="none" stroke="black" d="M176,-1412.94C176,-1402.39 176,-1389.53 176,-1382.41"/>
<polygon fill="none" stroke="black" points="177.75,-1382.06 176,-1377.06 174.25,-1382.06 177.75,-1382.06"/>
</g>
<!-- transition3&#45;&gt;PL26 -->
<g id="edge8" class="edge"><title>transition3&#45;&gt;PL26</title>
<path fill="none" stroke="black" d="M176,-1484.85C176,-1483.37 176,-1471.32 176,-1459.1"/>
<polygon fill="black" stroke="black" points="179.5,-1459.02 176,-1449.02 172.5,-1459.02 179.5,-1459.02"/>
</g>
<!-- PL8 -->
<g id="node51" class="node"><title>PL8</title>
<ellipse fill="none" stroke="black" cx="122" cy="-1431" rx="18" ry="18"/>
<text text-anchor="middle" x="122" y="-1427.3" font-family="Times,serif" font-size="14.00">PL8</text>
</g>
<!-- transition3&#45;&gt;PL8 -->
<g id="edge55" class="edge"><title>transition3&#45;&gt;PL8</title>
<path fill="none" stroke="black" d="M175.845,-1484.85C174.012,-1483.05 156.262,-1465.63 141.635,-1451.27"/>
<polygon fill="black" stroke="black" points="143.96,-1448.65 134.372,-1444.14 139.057,-1453.65 143.96,-1448.65"/>
</g>
<!-- PL27 -->
<g id="node10" class="node"><title>PL27</title>
<ellipse fill="none" stroke="black" cx="176" cy="-1322" rx="18" ry="18"/>
<text text-anchor="middle" x="176" y="-1318.3" font-family="Times,serif" font-size="14.00">PL27</text>
</g>
<!-- transition24 -->
<g id="node13" class="node"><title>transition24</title>
<polygon fill="none" stroke="black" points="140,-1268 104,-1268 104,-1267 140,-1267 140,-1268"/>
<text text-anchor="middle" x="53.5" y="-1271.8" font-family="Times,serif" font-size="14.00">y1_sbuframwrite&#45;</text>
</g>
<!-- PL27&#45;&gt;transition24 -->
<g id="edge11" class="edge"><title>PL27&#45;&gt;transition24</title>
<path fill="none" stroke="black" d="M163.476,-1308.71C151.402,-1296.86 133.847,-1279.63 126.023,-1271.95"/>
<polygon fill="none" stroke="black" points="126.868,-1270.33 122.074,-1268.07 124.416,-1272.82 126.868,-1270.33"/>
</g>
<!-- transition23&#45;&gt;PL27 -->
<g id="edge10" class="edge"><title>transition23&#45;&gt;PL27</title>
<path fill="none" stroke="black" d="M176,-1375.85C176,-1374.37 176,-1362.32 176,-1350.1"/>
<polygon fill="black" stroke="black" points="179.5,-1350.02 176,-1340.02 172.5,-1350.02 179.5,-1350.02"/>
</g>
<!-- PL21 -->
<g id="node12" class="node"><title>PL21</title>
<ellipse fill="none" stroke="black" cx="122" cy="-1213" rx="18" ry="18"/>
<text text-anchor="middle" x="122" y="-1209.3" font-family="Times,serif" font-size="14.00">PL21</text>
</g>
<!-- transition18 -->
<g id="node15" class="node"><title>transition18</title>
<polygon fill="none" stroke="black" points="140,-1141.5 104,-1141.5 104,-1140.5 140,-1140.5 140,-1141.5"/>
<text text-anchor="middle" x="90" y="-1145.3" font-family="Times,serif" font-size="14.00">wen&#45;</text>
</g>
<!-- PL21&#45;&gt;transition18 -->
<g id="edge13" class="edge"><title>PL21&#45;&gt;transition18</title>
<path fill="none" stroke="black" d="M122,-1194.7C122,-1179.17 122,-1157.32 122,-1147.35"/>
<polygon fill="none" stroke="black" points="123.75,-1147.09 122,-1142.09 120.25,-1147.09 123.75,-1147.09"/>
</g>
<!-- transition24&#45;&gt;PL21 -->
<g id="edge12" class="edge"><title>transition24&#45;&gt;PL21</title>
<path fill="none" stroke="black" d="M122,-1266.85C122,-1265.37 122,-1253.32 122,-1241.1"/>
<polygon fill="black" stroke="black" points="125.5,-1241.02 122,-1231.02 118.5,-1241.02 125.5,-1241.02"/>
</g>
<!-- PL10 -->
<g id="node43" class="node"><title>PL10</title>
<ellipse fill="none" stroke="black" cx="68" cy="-1213" rx="18" ry="18"/>
<text text-anchor="middle" x="68" y="-1209.3" font-family="Times,serif" font-size="14.00">PL10</text>
</g>
<!-- transition24&#45;&gt;PL10 -->
<g id="edge45" class="edge"><title>transition24&#45;&gt;PL10</title>
<path fill="none" stroke="black" d="M121.845,-1266.85C120.012,-1265.05 102.262,-1247.63 87.6353,-1233.27"/>
<polygon fill="black" stroke="black" points="89.9603,-1230.65 80.3718,-1226.14 85.057,-1235.65 89.9603,-1230.65"/>
</g>
<!-- PL23 -->
<g id="node46" class="node"><title>PL23</title>
<ellipse fill="none" stroke="black" cx="176" cy="-1141" rx="18" ry="18"/>
<text text-anchor="middle" x="176" y="-1137.3" font-family="Times,serif" font-size="14.00">PL23</text>
</g>
<!-- transition24&#45;&gt;PL23 -->
<g id="edge49" class="edge"><title>transition24&#45;&gt;PL23</title>
<path fill="none" stroke="black" d="M122.052,-1266.95C123.114,-1265.87 140.242,-1248.28 149,-1231 159.067,-1211.13 166.124,-1186.84 170.492,-1168.65"/>
<polygon fill="black" stroke="black" points="173.943,-1169.26 172.756,-1158.73 167.119,-1167.7 173.943,-1169.26"/>
</g>
<!-- PL22 -->
<g id="node14" class="node"><title>PL22</title>
<ellipse fill="none" stroke="black" cx="122" cy="-1069" rx="18" ry="18"/>
<text text-anchor="middle" x="122" y="-1065.3" font-family="Times,serif" font-size="14.00">PL22</text>
</g>
<!-- transition19 -->
<g id="node17" class="node"><title>transition19</title>
<polygon fill="none" stroke="black" points="140,-997.5 104,-997.5 104,-996.5 140,-996.5 140,-997.5"/>
<text text-anchor="middle" x="84.5" y="-1001.3" font-family="Times,serif" font-size="14.00">wenin&#45;</text>
</g>
<!-- PL22&#45;&gt;transition19 -->
<g id="edge15" class="edge"><title>PL22&#45;&gt;transition19</title>
<path fill="none" stroke="black" d="M122,-1050.7C122,-1035.17 122,-1013.32 122,-1003.35"/>
<polygon fill="none" stroke="black" points="123.75,-1003.09 122,-998.092 120.25,-1003.09 123.75,-1003.09"/>
</g>
<!-- transition18&#45;&gt;PL22 -->
<g id="edge14" class="edge"><title>transition18&#45;&gt;PL22</title>
<path fill="none" stroke="black" d="M122,-1139.95C122,-1138.75 122,-1116.43 122,-1097.32"/>
<polygon fill="black" stroke="black" points="125.5,-1097.19 122,-1087.19 118.5,-1097.19 125.5,-1097.19"/>
</g>
<!-- PL12 -->
<g id="node16" class="node"><title>PL12</title>
<ellipse fill="none" stroke="black" cx="122" cy="-925" rx="18" ry="18"/>
<text text-anchor="middle" x="122" y="-921.3" font-family="Times,serif" font-size="14.00">PL12</text>
</g>
<!-- transition6 -->
<g id="node19" class="node"><title>transition6</title>
<polygon fill="none" stroke="black" points="140,-853.5 104,-853.5 104,-852.5 140,-852.5 140,-853.5"/>
<text text-anchor="middle" x="86.5" y="-857.3" font-family="Times,serif" font-size="14.00">wsld+</text>
</g>
<!-- PL12&#45;&gt;transition6 -->
<g id="edge17" class="edge"><title>PL12&#45;&gt;transition6</title>
<path fill="none" stroke="black" d="M122,-906.697C122,-891.165 122,-869.324 122,-859.348"/>
<polygon fill="none" stroke="black" points="123.75,-859.092 122,-854.092 120.25,-859.092 123.75,-859.092"/>
</g>
<!-- transition19&#45;&gt;PL12 -->
<g id="edge16" class="edge"><title>transition19&#45;&gt;PL12</title>
<path fill="none" stroke="black" d="M122,-995.949C122,-994.748 122,-972.429 122,-953.321"/>
<polygon fill="black" stroke="black" points="125.5,-953.191 122,-943.191 118.5,-953.191 125.5,-953.191"/>
</g>
<!-- PL13 -->
<g id="node18" class="node"><title>PL13</title>
<ellipse fill="none" stroke="black" cx="122" cy="-781" rx="18" ry="18"/>
<text text-anchor="middle" x="122" y="-777.3" font-family="Times,serif" font-size="14.00">PL13</text>
</g>
<!-- transition7 -->
<g id="node21" class="node"><title>transition7</title>
<polygon fill="none" stroke="black" points="140,-727 104,-727 104,-726 140,-726 140,-727"/>
<text text-anchor="middle" x="81" y="-730.8" font-family="Times,serif" font-size="14.00">wsldin+</text>
</g>
<!-- PL13&#45;&gt;transition7 -->
<g id="edge19" class="edge"><title>PL13&#45;&gt;transition7</title>
<path fill="none" stroke="black" d="M122,-762.939C122,-752.385 122,-739.534 122,-732.412"/>
<polygon fill="none" stroke="black" points="123.75,-732.059 122,-727.059 120.25,-732.059 123.75,-732.059"/>
</g>
<!-- transition6&#45;&gt;PL13 -->
<g id="edge18" class="edge"><title>transition6&#45;&gt;PL13</title>
<path fill="none" stroke="black" d="M122,-851.949C122,-850.748 122,-828.429 122,-809.321"/>
<polygon fill="black" stroke="black" points="125.5,-809.191 122,-799.191 118.5,-809.191 125.5,-809.191"/>
</g>
<!-- PL14 -->
<g id="node20" class="node"><title>PL14</title>
<ellipse fill="none" stroke="black" cx="122" cy="-672" rx="18" ry="18"/>
<text text-anchor="middle" x="122" y="-668.3" font-family="Times,serif" font-size="14.00">PL14</text>
</g>
<!-- transition8 -->
<g id="node23" class="node"><title>transition8</title>
<polygon fill="none" stroke="black" points="140,-618 104,-618 104,-617 140,-617 140,-618"/>
<text text-anchor="middle" x="52" y="-621.8" font-family="Times,serif" font-size="14.00">y0_sbuframwrite+</text>
</g>
<!-- PL14&#45;&gt;transition8 -->
<g id="edge21" class="edge"><title>PL14&#45;&gt;transition8</title>
<path fill="none" stroke="black" d="M122,-653.939C122,-643.385 122,-630.534 122,-623.412"/>
<polygon fill="none" stroke="black" points="123.75,-623.059 122,-618.059 120.25,-623.059 123.75,-623.059"/>
</g>
<!-- transition7&#45;&gt;PL14 -->
<g id="edge20" class="edge"><title>transition7&#45;&gt;PL14</title>
<path fill="none" stroke="black" d="M122,-725.848C122,-724.368 122,-712.319 122,-700.1"/>
<polygon fill="black" stroke="black" points="125.5,-700.025 122,-690.025 118.5,-700.025 125.5,-700.025"/>
</g>
<!-- PL15 -->
<g id="node22" class="node"><title>PL15</title>
<ellipse fill="none" stroke="black" cx="122" cy="-563" rx="18" ry="18"/>
<text text-anchor="middle" x="122" y="-559.3" font-family="Times,serif" font-size="14.00">PL15</text>
</g>
<!-- transition9 -->
<g id="node25" class="node"><title>transition9</title>
<polygon fill="none" stroke="black" points="140,-509 104,-509 104,-508 140,-508 140,-509"/>
<text text-anchor="middle" x="88" y="-512.8" font-family="Times,serif" font-size="14.00">wsld&#45;</text>
</g>
<!-- PL15&#45;&gt;transition9 -->
<g id="edge23" class="edge"><title>PL15&#45;&gt;transition9</title>
<path fill="none" stroke="black" d="M122,-544.939C122,-534.385 122,-521.534 122,-514.412"/>
<polygon fill="none" stroke="black" points="123.75,-514.059 122,-509.059 120.25,-514.059 123.75,-514.059"/>
</g>
<!-- transition8&#45;&gt;PL15 -->
<g id="edge22" class="edge"><title>transition8&#45;&gt;PL15</title>
<path fill="none" stroke="black" d="M122,-616.848C122,-615.368 122,-603.319 122,-591.1"/>
<polygon fill="black" stroke="black" points="125.5,-591.025 122,-581.025 118.5,-591.025 125.5,-591.025"/>
</g>
<!-- PL16 -->
<g id="node24" class="node"><title>PL16</title>
<ellipse fill="none" stroke="black" cx="122" cy="-454" rx="18" ry="18"/>
<text text-anchor="middle" x="122" y="-450.3" font-family="Times,serif" font-size="14.00">PL16</text>
</g>
<!-- transition10 -->
<g id="node27" class="node"><title>transition10</title>
<polygon fill="none" stroke="black" points="140,-400 104,-400 104,-399 140,-399 140,-400"/>
<text text-anchor="middle" x="82.5" y="-403.8" font-family="Times,serif" font-size="14.00">wsldin&#45;</text>
</g>
<!-- PL16&#45;&gt;transition10 -->
<g id="edge25" class="edge"><title>PL16&#45;&gt;transition10</title>
<path fill="none" stroke="black" d="M122,-435.939C122,-425.385 122,-412.534 122,-405.412"/>
<polygon fill="none" stroke="black" points="123.75,-405.059 122,-400.059 120.25,-405.059 123.75,-405.059"/>
</g>
<!-- transition9&#45;&gt;PL16 -->
<g id="edge24" class="edge"><title>transition9&#45;&gt;PL16</title>
<path fill="none" stroke="black" d="M122,-507.848C122,-506.368 122,-494.319 122,-482.1"/>
<polygon fill="black" stroke="black" points="125.5,-482.025 122,-472.025 118.5,-482.025 125.5,-482.025"/>
</g>
<!-- PL17 -->
<g id="node26" class="node"><title>PL17</title>
<ellipse fill="none" stroke="black" cx="122" cy="-345" rx="18" ry="18"/>
<text text-anchor="middle" x="122" y="-341.3" font-family="Times,serif" font-size="14.00">PL17</text>
</g>
<!-- transition22 -->
<g id="node29" class="node"><title>transition22</title>
<polygon fill="none" stroke="black" points="140,-291 104,-291 104,-290 140,-290 140,-291"/>
<text text-anchor="middle" x="52" y="-294.8" font-family="Times,serif" font-size="14.00">y1_sbuframwrite+</text>
</g>
<!-- PL17&#45;&gt;transition22 -->
<g id="edge27" class="edge"><title>PL17&#45;&gt;transition22</title>
<path fill="none" stroke="black" d="M122,-326.939C122,-316.385 122,-303.534 122,-296.412"/>
<polygon fill="none" stroke="black" points="123.75,-296.059 122,-291.059 120.25,-296.059 123.75,-296.059"/>
</g>
<!-- transition10&#45;&gt;PL17 -->
<g id="edge26" class="edge"><title>transition10&#45;&gt;PL17</title>
<path fill="none" stroke="black" d="M122,-398.848C122,-397.368 122,-385.319 122,-373.1"/>
<polygon fill="black" stroke="black" points="125.5,-373.025 122,-363.025 118.5,-373.025 125.5,-373.025"/>
</g>
<!-- PL18 -->
<g id="node28" class="node"><title>PL18</title>
<ellipse fill="none" stroke="black" cx="68" cy="-236" rx="18" ry="18"/>
<text text-anchor="middle" x="68" y="-232.3" font-family="Times,serif" font-size="14.00">PL18</text>
</g>
<!-- transition11 -->
<g id="node31" class="node"><title>transition11</title>
<polygon fill="none" stroke="black" points="86,-182 50,-182 50,-181 86,-181 86,-182"/>
<text text-anchor="middle" x="31.5" y="-185.8" font-family="Times,serif" font-size="14.00">wsen+</text>
</g>
<!-- PL18&#45;&gt;transition11 -->
<g id="edge29" class="edge"><title>PL18&#45;&gt;transition11</title>
<path fill="none" stroke="black" d="M68,-217.939C68,-207.385 68,-194.534 68,-187.412"/>
<polygon fill="none" stroke="black" points="69.7501,-187.059 68,-182.059 66.2501,-187.059 69.7501,-187.059"/>
</g>
<!-- transition22&#45;&gt;PL18 -->
<g id="edge28" class="edge"><title>transition22&#45;&gt;PL18</title>
<path fill="none" stroke="black" d="M121.845,-289.848C120.012,-288.049 102.262,-270.628 87.6353,-256.272"/>
<polygon fill="black" stroke="black" points="89.9603,-253.649 80.3718,-249.143 85.057,-258.645 89.9603,-253.649"/>
</g>
<!-- PL20 -->
<g id="node34" class="node"><title>PL20</title>
<ellipse fill="none" stroke="black" cx="176" cy="-236" rx="18" ry="18"/>
<text text-anchor="middle" x="176" y="-232.3" font-family="Times,serif" font-size="14.00">PL20</text>
</g>
<!-- transition22&#45;&gt;PL20 -->
<g id="edge34" class="edge"><title>transition22&#45;&gt;PL20</title>
<path fill="none" stroke="black" d="M122.155,-289.848C123.988,-288.049 141.738,-270.628 156.365,-256.272"/>
<polygon fill="black" stroke="black" points="158.943,-258.645 163.628,-249.143 154.04,-253.649 158.943,-258.645"/>
</g>
<!-- PL19 -->
<g id="node38" class="node"><title>PL19</title>
<ellipse fill="none" stroke="black" cx="122" cy="-236" rx="18" ry="18"/>
<text text-anchor="middle" x="122" y="-232.3" font-family="Times,serif" font-size="14.00">PL19</text>
</g>
<!-- transition22&#45;&gt;PL19 -->
<g id="edge39" class="edge"><title>transition22&#45;&gt;PL19</title>
<path fill="none" stroke="black" d="M122,-289.848C122,-288.368 122,-276.319 122,-264.1"/>
<polygon fill="black" stroke="black" points="125.5,-264.025 122,-254.025 118.5,-264.025 125.5,-264.025"/>
</g>
<!-- PL2 -->
<g id="node30" class="node"><title>PL2</title>
<ellipse fill="none" stroke="black" cx="68" cy="-127" rx="18" ry="18"/>
<text text-anchor="middle" x="68" y="-123.3" font-family="Times,serif" font-size="14.00">PL2</text>
</g>
<!-- transition12 -->
<g id="node33" class="node"><title>transition12</title>
<polygon fill="none" stroke="black" points="86,-73 50,-73 50,-72 86,-72 86,-73"/>
<text text-anchor="middle" x="34" y="-76.8" font-family="Times,serif" font-size="14.00">done&#45;</text>
</g>
<!-- PL2&#45;&gt;transition12 -->
<g id="edge31" class="edge"><title>PL2&#45;&gt;transition12</title>
<path fill="none" stroke="black" d="M68,-108.939C68,-98.3852 68,-85.5344 68,-78.4124"/>
<polygon fill="none" stroke="black" points="69.7501,-78.0591 68,-73.0591 66.2501,-78.0592 69.7501,-78.0591"/>
</g>
<!-- transition11&#45;&gt;PL2 -->
<g id="edge30" class="edge"><title>transition11&#45;&gt;PL2</title>
<path fill="none" stroke="black" d="M68,-180.848C68,-179.368 68,-167.319 68,-155.1"/>
<polygon fill="black" stroke="black" points="71.5001,-155.025 68,-145.025 64.5001,-155.025 71.5001,-155.025"/>
</g>
<!-- PL28 -->
<g id="node32" class="node"><title>PL28</title>
<ellipse fill="none" stroke="black" cx="45" cy="-18" rx="18" ry="18"/>
<text text-anchor="middle" x="45" y="-14.3" font-family="Times,serif" font-size="14.00">PL28</text>
</g>
<!-- PL28&#45;&gt;transition15 -->
<g id="edge33" class="edge"><title>PL28&#45;&gt;transition15</title>
<path fill="none" stroke="black" d="M39.3146,-35.0834C32.5036,-55.8203 22,-93.1288 22,-126 22,-1704 22,-1704 22,-1704 22,-1785.89 162.472,-1807.73 191.709,-1811.4"/>
<polygon fill="none" stroke="black" points="191.706,-1813.16 196.873,-1811.99 192.105,-1809.68 191.706,-1813.16"/>
</g>
<!-- transition12&#45;&gt;PL28 -->
<g id="edge32" class="edge"><title>transition12&#45;&gt;PL28</title>
<path fill="none" stroke="black" d="M67.934,-71.848C67.2621,-70.2997 61.5707,-57.1847 56.0263,-44.4085"/>
<polygon fill="black" stroke="black" points="59.0925,-42.6819 51.9008,-34.9017 52.671,-45.4686 59.0925,-42.6819"/>
</g>
<!-- transition16 -->
<g id="node36" class="node"><title>transition16</title>
<polygon fill="none" stroke="black" points="194,-182 158,-182 158,-181 194,-181 194,-182"/>
<text text-anchor="middle" x="145.5" y="-185.8" font-family="Times,serif" font-size="14.00">ack&#45;</text>
</g>
<!-- PL20&#45;&gt;transition16 -->
<g id="edge35" class="edge"><title>PL20&#45;&gt;transition16</title>
<path fill="none" stroke="black" d="M176,-217.939C176,-207.385 176,-194.534 176,-187.412"/>
<polygon fill="none" stroke="black" points="177.75,-187.059 176,-182.059 174.25,-187.059 177.75,-187.059"/>
</g>
<!-- PL4 -->
<g id="node35" class="node"><title>PL4</title>
<ellipse fill="none" stroke="black" cx="176" cy="-127" rx="18" ry="18"/>
<text text-anchor="middle" x="176" y="-123.3" font-family="Times,serif" font-size="14.00">PL4</text>
</g>
<!-- transition17 -->
<g id="node37" class="node"><title>transition17</title>
<polygon fill="none" stroke="black" points="286,-73 250,-73 250,-72 286,-72 286,-73"/>
<text text-anchor="middle" x="237" y="-76.8" font-family="Times,serif" font-size="14.00">req+</text>
</g>
<!-- PL4&#45;&gt;transition17 -->
<g id="edge37" class="edge"><title>PL4&#45;&gt;transition17</title>
<path fill="none" stroke="black" d="M191.192,-117.248C212.551,-104.944 250.309,-83.1913 263.388,-75.6569"/>
<polygon fill="none" stroke="black" points="264.395,-77.0965 267.854,-73.0842 262.648,-74.0638 264.395,-77.0965"/>
</g>
<!-- transition16&#45;&gt;PL4 -->
<g id="edge36" class="edge"><title>transition16&#45;&gt;PL4</title>
<path fill="none" stroke="black" d="M176,-180.848C176,-179.368 176,-167.319 176,-155.1"/>
<polygon fill="black" stroke="black" points="179.5,-155.025 176,-145.025 172.5,-155.025 179.5,-155.025"/>
</g>
<!-- transition17&#45;&gt;PL1 -->
<g id="edge38" class="edge"><title>transition17&#45;&gt;PL1</title>
<path fill="none" stroke="black" d="M267.997,-73.0436C267.876,-74.8711 264,-133.718 264,-181 264,-1759 264,-1759 264,-1759 264,-1787.25 256.243,-1818.77 249.738,-1840.24"/>
<polygon fill="black" stroke="black" points="246.358,-1839.33 246.685,-1849.92 253.033,-1841.43 246.358,-1839.33"/>
</g>
<!-- transition13 -->
<g id="node40" class="node"><title>transition13</title>
<polygon fill="none" stroke="black" points="140,-182 104,-182 104,-181 140,-181 140,-182"/>
<text text-anchor="middle" x="86.5" y="-185.8" font-family="Times,serif" font-size="14.00">prbar&#45;</text>
</g>
<!-- PL19&#45;&gt;transition13 -->
<g id="edge40" class="edge"><title>PL19&#45;&gt;transition13</title>
<path fill="none" stroke="black" d="M122,-217.939C122,-207.385 122,-194.534 122,-187.412"/>
<polygon fill="none" stroke="black" points="123.75,-187.059 122,-182.059 120.25,-187.059 123.75,-187.059"/>
</g>
<!-- PL3 -->
<g id="node39" class="node"><title>PL3</title>
<ellipse fill="none" stroke="black" cx="122" cy="-127" rx="18" ry="18"/>
<text text-anchor="middle" x="122" y="-123.3" font-family="Times,serif" font-size="14.00">PL3</text>
</g>
<!-- transition14 -->
<g id="node42" class="node"><title>transition14</title>
<polygon fill="none" stroke="black" points="167,-73 131,-73 131,-72 167,-72 167,-73"/>
<text text-anchor="middle" x="95.5" y="-76.8" font-family="Times,serif" font-size="14.00">precharged+</text>
</g>
<!-- PL3&#45;&gt;transition14 -->
<g id="edge42" class="edge"><title>PL3&#45;&gt;transition14</title>
<path fill="none" stroke="black" d="M129.81,-110.67C135.483,-99.5343 142.796,-85.1772 146.545,-77.8184"/>
<polygon fill="none" stroke="black" points="148.257,-78.3132 148.968,-73.0636 145.139,-76.7245 148.257,-78.3132"/>
</g>
<!-- transition13&#45;&gt;PL3 -->
<g id="edge41" class="edge"><title>transition13&#45;&gt;PL3</title>
<path fill="none" stroke="black" d="M122,-180.848C122,-179.368 122,-167.319 122,-155.1"/>
<polygon fill="black" stroke="black" points="125.5,-155.025 122,-145.025 118.5,-155.025 125.5,-155.025"/>
</g>
<!-- PL29 -->
<g id="node41" class="node"><title>PL29</title>
<ellipse fill="none" stroke="black" cx="185" cy="-18" rx="18" ry="18"/>
<text text-anchor="middle" x="185" y="-14.3" font-family="Times,serif" font-size="14.00">PL29</text>
</g>
<!-- PL29&#45;&gt;transition15 -->
<g id="edge44" class="edge"><title>PL29&#45;&gt;transition15</title>
<path fill="none" stroke="black" d="M193.768,-34.0266C204.71,-54.2317 222,-91.6026 222,-126 222,-1704 222,-1704 222,-1704 222,-1744.92 204.754,-1792.37 198.91,-1807.27"/>
<polygon fill="none" stroke="black" points="197.268,-1806.67 197.018,-1811.96 200.513,-1807.98 197.268,-1806.67"/>
</g>
<!-- transition14&#45;&gt;PL29 -->
<g id="edge43" class="edge"><title>transition14&#45;&gt;PL29</title>
<path fill="none" stroke="black" d="M149.103,-71.848C150.226,-70.1944 160.311,-55.3471 169.506,-41.8101"/>
<polygon fill="black" stroke="black" points="172.594,-43.4941 175.317,-33.2553 166.803,-39.5609 172.594,-43.4941"/>
</g>
<!-- transition5 -->
<g id="node45" class="node"><title>transition5</title>
<polygon fill="none" stroke="black" points="86,-1141.5 50,-1141.5 50,-1140.5 86,-1140.5 86,-1141.5"/>
<text text-anchor="middle" x="33" y="-1145.3" font-family="Times,serif" font-size="14.00">wsen&#45;</text>
</g>
<!-- PL10&#45;&gt;transition5 -->
<g id="edge46" class="edge"><title>PL10&#45;&gt;transition5</title>
<path fill="none" stroke="black" d="M68,-1194.7C68,-1179.17 68,-1157.32 68,-1147.35"/>
<polygon fill="none" stroke="black" points="69.7501,-1147.09 68,-1142.09 66.2501,-1147.09 69.7501,-1147.09"/>
</g>
<!-- PL11 -->
<g id="node44" class="node"><title>PL11</title>
<ellipse fill="none" stroke="black" cx="68" cy="-1069" rx="18" ry="18"/>
<text text-anchor="middle" x="68" y="-1065.3" font-family="Times,serif" font-size="14.00">PL11</text>
</g>
<!-- PL11&#45;&gt;transition19 -->
<g id="edge48" class="edge"><title>PL11&#45;&gt;transition19</title>
<path fill="none" stroke="black" d="M78.6687,-1054.17C91.1747,-1037.96 111.168,-1012.04 118.852,-1002.08"/>
<polygon fill="none" stroke="black" points="120.252,-1003.13 121.92,-998.103 117.481,-1000.99 120.252,-1003.13"/>
</g>
<!-- transition5&#45;&gt;PL11 -->
<g id="edge47" class="edge"><title>transition5&#45;&gt;PL11</title>
<path fill="none" stroke="black" d="M68,-1139.95C68,-1138.75 68,-1116.43 68,-1097.32"/>
<polygon fill="black" stroke="black" points="71.5001,-1097.19 68,-1087.19 64.5001,-1097.19 71.5001,-1097.19"/>
</g>
<!-- transition20 -->
<g id="node48" class="node"><title>transition20</title>
<polygon fill="none" stroke="black" points="194,-1069.5 158,-1069.5 158,-1068.5 194,-1068.5 194,-1069.5"/>
<text text-anchor="middle" x="172" y="-1073.3" font-family="Times,serif" font-size="14.00">ack+</text>
</g>
<!-- PL23&#45;&gt;transition20 -->
<g id="edge50" class="edge"><title>PL23&#45;&gt;transition20</title>
<path fill="none" stroke="black" d="M176,-1122.7C176,-1107.17 176,-1085.32 176,-1075.35"/>
<polygon fill="none" stroke="black" points="177.75,-1075.09 176,-1070.09 174.25,-1075.09 177.75,-1075.09"/>
</g>
<!-- PL24 -->
<g id="node47" class="node"><title>PL24</title>
<ellipse fill="none" stroke="black" cx="176" cy="-997" rx="18" ry="18"/>
<text text-anchor="middle" x="176" y="-993.3" font-family="Times,serif" font-size="14.00">PL24</text>
</g>
<!-- transition21 -->
<g id="node50" class="node"><title>transition21</title>
<polygon fill="none" stroke="black" points="194,-925.5 158,-925.5 158,-924.5 194,-924.5 194,-925.5"/>
<text text-anchor="middle" x="169.5" y="-929.3" font-family="Times,serif" font-size="14.00">req&#45;</text>
</g>
<!-- PL24&#45;&gt;transition21 -->
<g id="edge52" class="edge"><title>PL24&#45;&gt;transition21</title>
<path fill="none" stroke="black" d="M176,-978.697C176,-963.165 176,-941.324 176,-931.348"/>
<polygon fill="none" stroke="black" points="177.75,-931.092 176,-926.092 174.25,-931.092 177.75,-931.092"/>
</g>
<!-- transition20&#45;&gt;PL24 -->
<g id="edge51" class="edge"><title>transition20&#45;&gt;PL24</title>
<path fill="none" stroke="black" d="M176,-1067.95C176,-1066.75 176,-1044.43 176,-1025.32"/>
<polygon fill="black" stroke="black" points="179.5,-1025.19 176,-1015.19 172.5,-1025.19 179.5,-1025.19"/>
</g>
<!-- PL25 -->
<g id="node49" class="node"><title>PL25</title>
<ellipse fill="none" stroke="black" cx="176" cy="-853" rx="18" ry="18"/>
<text text-anchor="middle" x="176" y="-849.3" font-family="Times,serif" font-size="14.00">PL25</text>
</g>
<!-- PL25&#45;&gt;transition22 -->
<g id="edge54" class="edge"><title>PL25&#45;&gt;transition22</title>
<path fill="none" stroke="black" d="M175.092,-834.615C173.912,-810.475 172,-765.431 172,-727 172,-727 172,-727 172,-399 172,-365.407 164.404,-356.853 149,-327 142.476,-314.355 131.569,-301.482 125.818,-295.105"/>
<polygon fill="none" stroke="black" points="126.737,-293.524 122.051,-291.053 124.174,-295.907 126.737,-293.524"/>
</g>
<!-- transition21&#45;&gt;PL25 -->
<g id="edge53" class="edge"><title>transition21&#45;&gt;PL25</title>
<path fill="none" stroke="black" d="M176,-923.949C176,-922.748 176,-900.429 176,-881.321"/>
<polygon fill="black" stroke="black" points="179.5,-881.191 176,-871.191 172.5,-881.191 179.5,-881.191"/>
</g>
<!-- transition4 -->
<g id="node53" class="node"><title>transition4</title>
<polygon fill="none" stroke="black" points="140,-1377 104,-1377 104,-1376 140,-1376 140,-1377"/>
<text text-anchor="middle" x="86" y="-1380.8" font-family="Times,serif" font-size="14.00">done+</text>
</g>
<!-- PL8&#45;&gt;transition4 -->
<g id="edge56" class="edge"><title>PL8&#45;&gt;transition4</title>
<path fill="none" stroke="black" d="M122,-1412.94C122,-1402.39 122,-1389.53 122,-1382.41"/>
<polygon fill="none" stroke="black" points="123.75,-1382.06 122,-1377.06 120.25,-1382.06 123.75,-1382.06"/>
</g>
<!-- PL9 -->
<g id="node52" class="node"><title>PL9</title>
<ellipse fill="none" stroke="black" cx="122" cy="-1322" rx="18" ry="18"/>
<text text-anchor="middle" x="122" y="-1318.3" font-family="Times,serif" font-size="14.00">PL9</text>
</g>
<!-- PL9&#45;&gt;transition24 -->
<g id="edge58" class="edge"><title>PL9&#45;&gt;transition24</title>
<path fill="none" stroke="black" d="M122,-1303.94C122,-1293.39 122,-1280.53 122,-1273.41"/>
<polygon fill="none" stroke="black" points="123.75,-1273.06 122,-1268.06 120.25,-1273.06 123.75,-1273.06"/>
</g>
<!-- transition4&#45;&gt;PL9 -->
<g id="edge57" class="edge"><title>transition4&#45;&gt;PL9</title>
<path fill="none" stroke="black" d="M122,-1375.85C122,-1374.37 122,-1362.32 122,-1350.1"/>
<polygon fill="black" stroke="black" points="125.5,-1350.02 122,-1340.02 118.5,-1350.02 125.5,-1350.02"/>
</g>
</g>
</svg>
