<?xml version="1.0" encoding="UTF-8" standalone="no"?>
<!DOCTYPE svg PUBLIC "-//W3C//DTD SVG 1.1//EN"
 "http://www.w3.org/Graphics/SVG/1.1/DTD/svg11.dtd">
<!-- Generated by graphviz version 2.38.0 (20140413.2041)
 -->
<!-- Title: %3 Pages: 1 -->
<svg width="475pt" height="2002pt"
 viewBox="0.00 0.00 475.00 2002.00" xmlns="http://www.w3.org/2000/svg" xmlns:xlink="http://www.w3.org/1999/xlink">
<g id="graph0" class="graph" transform="scale(1 1) rotate(0) translate(4 1998)">
<title>%3</title>
<polygon fill="white" stroke="none" points="-4,4 -4,-1998 471,-1998 471,4 -4,4"/>
<!-- pl1 -->
<g id="node1" class="node"><title>pl1</title>
<ellipse fill="none" stroke="black" cx="373" cy="-1976" rx="18" ry="18"/>
<text text-anchor="middle" x="373" y="-1972.3" font-family="Times,serif" font-size="14.00">pl1</text>
</g>
<!-- transition1 -->
<g id="node3" class="node"><title>transition1</title>
<polygon fill="none" stroke="black" points="319,-1922 283,-1922 283,-1921 319,-1921 319,-1922"/>
<text text-anchor="middle" x="267" y="-1925.8" font-family="Times,serif" font-size="14.00">done&#45;</text>
</g>
<!-- pl1&#45;&gt;transition1 -->
<g id="edge1" class="edge"><title>pl1&#45;&gt;transition1</title>
<path fill="none" stroke="black" d="M358.775,-1964.53C338.448,-1949.57 303.284,-1923.68 301.106,-1922.08"/>
</g>
<!-- pl2 -->
<g id="node2" class="node"><title>pl2</title>
<ellipse fill="none" stroke="black" cx="275" cy="-1867" rx="18" ry="18"/>
<text text-anchor="middle" x="275" y="-1863.3" font-family="Times,serif" font-size="14.00">pl2</text>
</g>
<!-- transition16 -->
<g id="node5" class="node"><title>transition16</title>
<polygon fill="none" stroke="black" points="244,-1813 208,-1813 208,-1812 244,-1812 244,-1813"/>
<text text-anchor="middle" x="157.5" y="-1816.8" font-family="Times,serif" font-size="14.00">y0_sbuframwrite&#45;</text>
</g>
<!-- pl2&#45;&gt;transition16 -->
<g id="edge3" class="edge"><title>pl2&#45;&gt;transition16</title>
<path fill="none" stroke="black" d="M263.138,-1853.17C249.09,-1837.97 227.407,-1814.52 226.065,-1813.07"/>
</g>
<!-- transition1&#45;&gt;pl2 -->
<g id="edge2" class="edge"><title>transition1&#45;&gt;pl2</title>
<path fill="none" stroke="black" d="M300.925,-1920.85C300.154,-1919.27 293.523,-1905.76 287.162,-1892.79"/>
<polygon fill="black" stroke="black" points="290.211,-1891.06 282.665,-1883.62 283.927,-1894.14 290.211,-1891.06"/>
</g>
<!-- pl3 -->
<g id="node4" class="node"><title>pl3</title>
<ellipse fill="none" stroke="black" cx="249" cy="-1758" rx="18" ry="18"/>
<text text-anchor="middle" x="249" y="-1754.3" font-family="Times,serif" font-size="14.00">pl3</text>
</g>
<!-- transition2 -->
<g id="node7" class="node"><title>transition2</title>
<polygon fill="none" stroke="black" points="267,-1704 231,-1704 231,-1703 267,-1703 267,-1704"/>
<text text-anchor="middle" x="212" y="-1707.8" font-family="Times,serif" font-size="14.00">prbar+</text>
</g>
<!-- pl3&#45;&gt;transition2 -->
<g id="edge5" class="edge"><title>pl3&#45;&gt;transition2</title>
<path fill="none" stroke="black" d="M249,-1739.94C249,-1724.93 249,-1705.27 249,-1704.06"/>
</g>
<!-- transition16&#45;&gt;pl3 -->
<g id="edge4" class="edge"><title>transition16&#45;&gt;pl3</title>
<path fill="none" stroke="black" d="M226.066,-1811.85C226.738,-1810.3 232.429,-1797.18 237.974,-1784.41"/>
<polygon fill="black" stroke="black" points="241.329,-1785.47 242.099,-1774.9 234.908,-1782.68 241.329,-1785.47"/>
</g>
<!-- pl4 -->
<g id="node6" class="node"><title>pl4</title>
<ellipse fill="none" stroke="black" cx="249" cy="-1649" rx="18" ry="18"/>
<text text-anchor="middle" x="249" y="-1645.3" font-family="Times,serif" font-size="14.00">pl4</text>
</g>
<!-- transition3 -->
<g id="node9" class="node"><title>transition3</title>
<polygon fill="none" stroke="black" points="267,-1595 231,-1595 231,-1594 267,-1594 267,-1595"/>
<text text-anchor="middle" x="197.5" y="-1598.8" font-family="Times,serif" font-size="14.00">precharged&#45;</text>
</g>
<!-- pl4&#45;&gt;transition3 -->
<g id="edge7" class="edge"><title>pl4&#45;&gt;transition3</title>
<path fill="none" stroke="black" d="M249,-1630.94C249,-1615.93 249,-1596.27 249,-1595.06"/>
</g>
<!-- transition2&#45;&gt;pl4 -->
<g id="edge6" class="edge"><title>transition2&#45;&gt;pl4</title>
<path fill="none" stroke="black" d="M249,-1702.85C249,-1701.37 249,-1689.32 249,-1677.1"/>
<polygon fill="black" stroke="black" points="252.5,-1677.02 249,-1667.02 245.5,-1677.02 252.5,-1677.02"/>
</g>
<!-- pl5 -->
<g id="node8" class="node"><title>pl5</title>
<ellipse fill="none" stroke="black" cx="249" cy="-1540" rx="18" ry="18"/>
<text text-anchor="middle" x="249" y="-1536.3" font-family="Times,serif" font-size="14.00">pl5</text>
</g>
<!-- transition4 -->
<g id="node11" class="node"><title>transition4</title>
<polygon fill="none" stroke="black" points="267,-1486 231,-1486 231,-1485 267,-1485 267,-1486"/>
<text text-anchor="middle" x="215" y="-1489.8" font-family="Times,serif" font-size="14.00">wen+</text>
</g>
<!-- pl5&#45;&gt;transition4 -->
<g id="edge9" class="edge"><title>pl5&#45;&gt;transition4</title>
<path fill="none" stroke="black" d="M249,-1521.94C249,-1506.93 249,-1487.27 249,-1486.06"/>
</g>
<!-- transition3&#45;&gt;pl5 -->
<g id="edge8" class="edge"><title>transition3&#45;&gt;pl5</title>
<path fill="none" stroke="black" d="M249,-1593.85C249,-1592.37 249,-1580.32 249,-1568.1"/>
<polygon fill="black" stroke="black" points="252.5,-1568.02 249,-1558.02 245.5,-1568.02 252.5,-1568.02"/>
</g>
<!-- pl6 -->
<g id="node10" class="node"><title>pl6</title>
<ellipse fill="none" stroke="black" cx="249" cy="-1431" rx="18" ry="18"/>
<text text-anchor="middle" x="249" y="-1427.3" font-family="Times,serif" font-size="14.00">pl6</text>
</g>
<!-- transition5 -->
<g id="node13" class="node"><title>transition5</title>
<polygon fill="none" stroke="black" points="267,-1377 231,-1377 231,-1376 267,-1376 267,-1377"/>
<text text-anchor="middle" x="213" y="-1380.8" font-family="Times,serif" font-size="14.00">done+</text>
</g>
<!-- pl6&#45;&gt;transition5 -->
<g id="edge11" class="edge"><title>pl6&#45;&gt;transition5</title>
<path fill="none" stroke="black" d="M249,-1412.94C249,-1397.93 249,-1378.27 249,-1377.06"/>
</g>
<!-- transition4&#45;&gt;pl6 -->
<g id="edge10" class="edge"><title>transition4&#45;&gt;pl6</title>
<path fill="none" stroke="black" d="M249,-1484.85C249,-1483.37 249,-1471.32 249,-1459.1"/>
<polygon fill="black" stroke="black" points="252.5,-1459.02 249,-1449.02 245.5,-1459.02 252.5,-1459.02"/>
</g>
<!-- pl28 -->
<g id="node55" class="node"><title>pl28</title>
<ellipse fill="none" stroke="black" cx="303" cy="-1431" rx="18" ry="18"/>
<text text-anchor="middle" x="303" y="-1427.3" font-family="Times,serif" font-size="14.00">pl28</text>
</g>
<!-- transition4&#45;&gt;pl28 -->
<g id="edge63" class="edge"><title>transition4&#45;&gt;pl28</title>
<path fill="none" stroke="black" d="M249.155,-1484.85C250.988,-1483.05 268.738,-1465.63 283.365,-1451.27"/>
<polygon fill="black" stroke="black" points="285.943,-1453.65 290.628,-1444.14 281.04,-1448.65 285.943,-1453.65"/>
</g>
<!-- pl7 -->
<g id="node12" class="node"><title>pl7</title>
<ellipse fill="none" stroke="black" cx="249" cy="-1322" rx="18" ry="18"/>
<text text-anchor="middle" x="249" y="-1318.3" font-family="Times,serif" font-size="14.00">pl7</text>
</g>
<!-- transition24 -->
<g id="node15" class="node"><title>transition24</title>
<polygon fill="none" stroke="black" points="321,-1268 285,-1268 285,-1267 321,-1267 321,-1268"/>
<text text-anchor="middle" x="234.5" y="-1271.8" font-family="Times,serif" font-size="14.00">y1_sbuframwrite&#45;</text>
</g>
<!-- pl7&#45;&gt;transition24 -->
<g id="edge13" class="edge"><title>pl7&#45;&gt;transition24</title>
<path fill="none" stroke="black" d="M261.524,-1308.71C276.978,-1293.54 301.414,-1269.56 302.926,-1268.07"/>
</g>
<!-- transition5&#45;&gt;pl7 -->
<g id="edge12" class="edge"><title>transition5&#45;&gt;pl7</title>
<path fill="none" stroke="black" d="M249,-1375.85C249,-1374.37 249,-1362.32 249,-1350.1"/>
<polygon fill="black" stroke="black" points="252.5,-1350.02 249,-1340.02 245.5,-1350.02 252.5,-1350.02"/>
</g>
<!-- pl8 -->
<g id="node14" class="node"><title>pl8</title>
<ellipse fill="none" stroke="black" cx="303" cy="-1213" rx="18" ry="18"/>
<text text-anchor="middle" x="303" y="-1209.3" font-family="Times,serif" font-size="14.00">pl8</text>
</g>
<!-- transition6 -->
<g id="node17" class="node"><title>transition6</title>
<polygon fill="none" stroke="black" points="321,-1141.5 285,-1141.5 285,-1140.5 321,-1140.5 321,-1141.5"/>
<text text-anchor="middle" x="302" y="-1145.3" font-family="Times,serif" font-size="14.00">wsen&#45;</text>
</g>
<!-- pl8&#45;&gt;transition6 -->
<g id="edge15" class="edge"><title>pl8&#45;&gt;transition6</title>
<path fill="none" stroke="black" d="M303,-1194.7C303,-1174.62 303,-1143.99 303,-1142.09"/>
</g>
<!-- transition24&#45;&gt;pl8 -->
<g id="edge14" class="edge"><title>transition24&#45;&gt;pl8</title>
<path fill="none" stroke="black" d="M303,-1266.85C303,-1265.37 303,-1253.32 303,-1241.1"/>
<polygon fill="black" stroke="black" points="306.5,-1241.02 303,-1231.02 299.5,-1241.02 306.5,-1241.02"/>
</g>
<!-- pl23 -->
<g id="node47" class="node"><title>pl23</title>
<ellipse fill="none" stroke="black" cx="357" cy="-1213" rx="18" ry="18"/>
<text text-anchor="middle" x="357" y="-1209.3" font-family="Times,serif" font-size="14.00">pl23</text>
</g>
<!-- transition24&#45;&gt;pl23 -->
<g id="edge53" class="edge"><title>transition24&#45;&gt;pl23</title>
<path fill="none" stroke="black" d="M303.155,-1266.85C304.988,-1265.05 322.738,-1247.63 337.365,-1233.27"/>
<polygon fill="black" stroke="black" points="339.943,-1235.65 344.628,-1226.14 335.04,-1230.65 339.943,-1235.65"/>
</g>
<!-- pl25 -->
<g id="node50" class="node"><title>pl25</title>
<ellipse fill="none" stroke="black" cx="249" cy="-1141" rx="18" ry="18"/>
<text text-anchor="middle" x="249" y="-1137.3" font-family="Times,serif" font-size="14.00">pl25</text>
</g>
<!-- transition24&#45;&gt;pl25 -->
<g id="edge57" class="edge"><title>transition24&#45;&gt;pl25</title>
<path fill="none" stroke="black" d="M302.948,-1266.95C301.886,-1265.87 284.758,-1248.28 276,-1231 265.933,-1211.13 258.876,-1186.84 254.508,-1168.65"/>
<polygon fill="black" stroke="black" points="257.881,-1167.7 252.244,-1158.73 251.057,-1169.26 257.881,-1167.7"/>
</g>
<!-- pl9 -->
<g id="node16" class="node"><title>pl9</title>
<ellipse fill="none" stroke="black" cx="303" cy="-1069" rx="18" ry="18"/>
<text text-anchor="middle" x="303" y="-1065.3" font-family="Times,serif" font-size="14.00">pl9</text>
</g>
<!-- transition19 -->
<g id="node19" class="node"><title>transition19</title>
<polygon fill="none" stroke="black" points="321,-997.5 285,-997.5 285,-996.5 321,-996.5 321,-997.5"/>
<text text-anchor="middle" x="304.5" y="-1001.3" font-family="Times,serif" font-size="14.00">wenin&#45;</text>
</g>
<!-- pl9&#45;&gt;transition19 -->
<g id="edge17" class="edge"><title>pl9&#45;&gt;transition19</title>
<path fill="none" stroke="black" d="M303,-1050.7C303,-1030.62 303,-999.987 303,-998.092"/>
</g>
<!-- transition6&#45;&gt;pl9 -->
<g id="edge16" class="edge"><title>transition6&#45;&gt;pl9</title>
<path fill="none" stroke="black" d="M303,-1139.95C303,-1138.75 303,-1116.43 303,-1097.32"/>
<polygon fill="black" stroke="black" points="306.5,-1097.19 303,-1087.19 299.5,-1097.19 306.5,-1097.19"/>
</g>
<!-- pl10 -->
<g id="node18" class="node"><title>pl10</title>
<ellipse fill="none" stroke="black" cx="303" cy="-925" rx="18" ry="18"/>
<text text-anchor="middle" x="303" y="-921.3" font-family="Times,serif" font-size="14.00">pl10</text>
</g>
<!-- transition7 -->
<g id="node21" class="node"><title>transition7</title>
<polygon fill="none" stroke="black" points="321,-853.5 285,-853.5 285,-852.5 321,-852.5 321,-853.5"/>
<text text-anchor="middle" x="302.5" y="-857.3" font-family="Times,serif" font-size="14.00">wsld+</text>
</g>
<!-- pl10&#45;&gt;transition7 -->
<g id="edge19" class="edge"><title>pl10&#45;&gt;transition7</title>
<path fill="none" stroke="black" d="M303,-906.697C303,-886.615 303,-855.987 303,-854.092"/>
</g>
<!-- transition19&#45;&gt;pl10 -->
<g id="edge18" class="edge"><title>transition19&#45;&gt;pl10</title>
<path fill="none" stroke="black" d="M303,-995.949C303,-994.748 303,-972.429 303,-953.321"/>
<polygon fill="black" stroke="black" points="306.5,-953.191 303,-943.191 299.5,-953.191 306.5,-953.191"/>
</g>
<!-- pl11 -->
<g id="node20" class="node"><title>pl11</title>
<ellipse fill="none" stroke="black" cx="303" cy="-781" rx="18" ry="18"/>
<text text-anchor="middle" x="303" y="-777.3" font-family="Times,serif" font-size="14.00">pl11</text>
</g>
<!-- transition8 -->
<g id="node23" class="node"><title>transition8</title>
<polygon fill="none" stroke="black" points="321,-727 285,-727 285,-726 321,-726 321,-727"/>
<text text-anchor="middle" x="262" y="-730.8" font-family="Times,serif" font-size="14.00">wsldin+</text>
</g>
<!-- pl11&#45;&gt;transition8 -->
<g id="edge21" class="edge"><title>pl11&#45;&gt;transition8</title>
<path fill="none" stroke="black" d="M303,-762.939C303,-747.929 303,-728.273 303,-727.059"/>
</g>
<!-- transition7&#45;&gt;pl11 -->
<g id="edge20" class="edge"><title>transition7&#45;&gt;pl11</title>
<path fill="none" stroke="black" d="M303,-851.949C303,-850.748 303,-828.429 303,-809.321"/>
<polygon fill="black" stroke="black" points="306.5,-809.191 303,-799.191 299.5,-809.191 306.5,-809.191"/>
</g>
<!-- pl12 -->
<g id="node22" class="node"><title>pl12</title>
<ellipse fill="none" stroke="black" cx="303" cy="-672" rx="18" ry="18"/>
<text text-anchor="middle" x="303" y="-668.3" font-family="Times,serif" font-size="14.00">pl12</text>
</g>
<!-- transition9 -->
<g id="node25" class="node"><title>transition9</title>
<polygon fill="none" stroke="black" points="321,-618 285,-618 285,-617 321,-617 321,-618"/>
<text text-anchor="middle" x="233" y="-621.8" font-family="Times,serif" font-size="14.00">y0_sbuframwrite+</text>
</g>
<!-- pl12&#45;&gt;transition9 -->
<g id="edge23" class="edge"><title>pl12&#45;&gt;transition9</title>
<path fill="none" stroke="black" d="M303,-653.939C303,-638.929 303,-619.273 303,-618.059"/>
</g>
<!-- transition8&#45;&gt;pl12 -->
<g id="edge22" class="edge"><title>transition8&#45;&gt;pl12</title>
<path fill="none" stroke="black" d="M303,-725.848C303,-724.368 303,-712.319 303,-700.1"/>
<polygon fill="black" stroke="black" points="306.5,-700.025 303,-690.025 299.5,-700.025 306.5,-700.025"/>
</g>
<!-- pl13 -->
<g id="node24" class="node"><title>pl13</title>
<ellipse fill="none" stroke="black" cx="303" cy="-563" rx="18" ry="18"/>
<text text-anchor="middle" x="303" y="-559.3" font-family="Times,serif" font-size="14.00">pl13</text>
</g>
<!-- transition10 -->
<g id="node27" class="node"><title>transition10</title>
<polygon fill="none" stroke="black" points="321,-509 285,-509 285,-508 321,-508 321,-509"/>
<text text-anchor="middle" x="269" y="-512.8" font-family="Times,serif" font-size="14.00">wsld&#45;</text>
</g>
<!-- pl13&#45;&gt;transition10 -->
<g id="edge25" class="edge"><title>pl13&#45;&gt;transition10</title>
<path fill="none" stroke="black" d="M303,-544.939C303,-529.929 303,-510.273 303,-509.059"/>
</g>
<!-- transition9&#45;&gt;pl13 -->
<g id="edge24" class="edge"><title>transition9&#45;&gt;pl13</title>
<path fill="none" stroke="black" d="M303,-616.848C303,-615.368 303,-603.319 303,-591.1"/>
<polygon fill="black" stroke="black" points="306.5,-591.025 303,-581.025 299.5,-591.025 306.5,-591.025"/>
</g>
<!-- pl14 -->
<g id="node26" class="node"><title>pl14</title>
<ellipse fill="none" stroke="black" cx="303" cy="-454" rx="18" ry="18"/>
<text text-anchor="middle" x="303" y="-450.3" font-family="Times,serif" font-size="14.00">pl14</text>
</g>
<!-- transition11 -->
<g id="node29" class="node"><title>transition11</title>
<polygon fill="none" stroke="black" points="321,-400 285,-400 285,-399 321,-399 321,-400"/>
<text text-anchor="middle" x="263.5" y="-403.8" font-family="Times,serif" font-size="14.00">wsldin&#45;</text>
</g>
<!-- pl14&#45;&gt;transition11 -->
<g id="edge27" class="edge"><title>pl14&#45;&gt;transition11</title>
<path fill="none" stroke="black" d="M303,-435.939C303,-420.929 303,-401.273 303,-400.059"/>
</g>
<!-- transition10&#45;&gt;pl14 -->
<g id="edge26" class="edge"><title>transition10&#45;&gt;pl14</title>
<path fill="none" stroke="black" d="M303,-507.848C303,-506.368 303,-494.319 303,-482.1"/>
<polygon fill="black" stroke="black" points="306.5,-482.025 303,-472.025 299.5,-482.025 306.5,-482.025"/>
</g>
<!-- pl15 -->
<g id="node28" class="node"><title>pl15</title>
<ellipse fill="none" stroke="black" cx="303" cy="-345" rx="18" ry="18"/>
<text text-anchor="middle" x="303" y="-341.3" font-family="Times,serif" font-size="14.00">pl15</text>
</g>
<!-- transition22 -->
<g id="node31" class="node"><title>transition22</title>
<polygon fill="none" stroke="black" points="321,-291 285,-291 285,-290 321,-290 321,-291"/>
<text text-anchor="middle" x="233" y="-294.8" font-family="Times,serif" font-size="14.00">y1_sbuframwrite+</text>
</g>
<!-- pl15&#45;&gt;transition22 -->
<g id="edge29" class="edge"><title>pl15&#45;&gt;transition22</title>
<path fill="none" stroke="black" d="M303,-326.939C303,-311.929 303,-292.273 303,-291.059"/>
</g>
<!-- transition11&#45;&gt;pl15 -->
<g id="edge28" class="edge"><title>transition11&#45;&gt;pl15</title>
<path fill="none" stroke="black" d="M303,-398.848C303,-397.368 303,-385.319 303,-373.1"/>
<polygon fill="black" stroke="black" points="306.5,-373.025 303,-363.025 299.5,-373.025 306.5,-373.025"/>
</g>
<!-- pl16 -->
<g id="node30" class="node"><title>pl16</title>
<ellipse fill="none" stroke="black" cx="357" cy="-236" rx="18" ry="18"/>
<text text-anchor="middle" x="357" y="-232.3" font-family="Times,serif" font-size="14.00">pl16</text>
</g>
<!-- transition12 -->
<g id="node32" class="node"><title>transition12</title>
<polygon fill="none" stroke="black" points="467,-182 431,-182 431,-181 467,-181 467,-182"/>
<text text-anchor="middle" x="412.5" y="-185.8" font-family="Times,serif" font-size="14.00">wsen+</text>
</g>
<!-- pl16&#45;&gt;transition12 -->
<g id="edge31" class="edge"><title>pl16&#45;&gt;transition12</title>
<path fill="none" stroke="black" d="M372.192,-226.248C397.506,-211.665 445.857,-183.811 448.854,-182.084"/>
</g>
<!-- transition22&#45;&gt;pl16 -->
<g id="edge30" class="edge"><title>transition22&#45;&gt;pl16</title>
<path fill="none" stroke="black" d="M303.155,-289.848C304.988,-288.049 322.738,-270.628 337.365,-256.272"/>
<polygon fill="black" stroke="black" points="339.943,-258.645 344.628,-249.143 335.04,-253.649 339.943,-258.645"/>
</g>
<!-- pl17 -->
<g id="node33" class="node"><title>pl17</title>
<ellipse fill="none" stroke="black" cx="249" cy="-236" rx="18" ry="18"/>
<text text-anchor="middle" x="249" y="-232.3" font-family="Times,serif" font-size="14.00">pl17</text>
</g>
<!-- transition22&#45;&gt;pl17 -->
<g id="edge33" class="edge"><title>transition22&#45;&gt;pl17</title>
<path fill="none" stroke="black" d="M302.845,-289.848C301.012,-288.049 283.262,-270.628 268.635,-256.272"/>
<polygon fill="black" stroke="black" points="270.96,-253.649 261.372,-249.143 266.057,-258.645 270.96,-253.649"/>
</g>
<!-- pl20 -->
<g id="node40" class="node"><title>pl20</title>
<ellipse fill="none" stroke="black" cx="303" cy="-236" rx="18" ry="18"/>
<text text-anchor="middle" x="303" y="-232.3" font-family="Times,serif" font-size="14.00">pl20</text>
</g>
<!-- transition22&#45;&gt;pl20 -->
<g id="edge43" class="edge"><title>transition22&#45;&gt;pl20</title>
<path fill="none" stroke="black" d="M303,-289.848C303,-288.368 303,-276.319 303,-264.1"/>
<polygon fill="black" stroke="black" points="306.5,-264.025 303,-254.025 299.5,-264.025 306.5,-264.025"/>
</g>
<!-- transition12&#45;&gt;pl1 -->
<g id="edge32" class="edge"><title>transition12&#45;&gt;pl1</title>
<path fill="none" stroke="black" d="M448.997,-182.044C448.876,-183.871 445,-242.718 445,-290 445,-1868 445,-1868 445,-1868 445,-1904.53 415.754,-1937.96 394.541,-1957.4"/>
<polygon fill="black" stroke="black" points="392.075,-1954.91 386.882,-1964.15 396.701,-1960.16 392.075,-1954.91"/>
</g>
<!-- transition13 -->
<g id="node35" class="node"><title>transition13</title>
<polygon fill="none" stroke="black" points="137,-182 101,-182 101,-181 137,-181 137,-182"/>
<text text-anchor="middle" x="83.5" y="-185.8" font-family="Times,serif" font-size="14.00">prbar&#45;</text>
</g>
<!-- pl17&#45;&gt;transition13 -->
<g id="edge34" class="edge"><title>pl17&#45;&gt;transition13</title>
<path fill="none" stroke="black" d="M232.535,-228.288C198.101,-214.249 121.444,-182.996 119.057,-182.023"/>
</g>
<!-- pl18 -->
<g id="node34" class="node"><title>pl18</title>
<ellipse fill="none" stroke="black" cx="119" cy="-127" rx="18" ry="18"/>
<text text-anchor="middle" x="119" y="-123.3" font-family="Times,serif" font-size="14.00">pl18</text>
</g>
<!-- transition14 -->
<g id="node37" class="node"><title>transition14</title>
<polygon fill="none" stroke="black" points="107,-73 71,-73 71,-72 107,-72 107,-73"/>
<text text-anchor="middle" x="35.5" y="-76.8" font-family="Times,serif" font-size="14.00">precharged+</text>
</g>
<!-- pl18&#45;&gt;transition14 -->
<g id="edge36" class="edge"><title>pl18&#45;&gt;transition14</title>
<path fill="none" stroke="black" d="M110.483,-110.954C101.891,-95.7746 89.7847,-74.3864 89.0365,-73.0644"/>
</g>
<!-- transition13&#45;&gt;pl18 -->
<g id="edge35" class="edge"><title>transition13&#45;&gt;pl18</title>
<path fill="none" stroke="black" d="M119,-180.848C119,-179.368 119,-167.319 119,-155.1"/>
<polygon fill="black" stroke="black" points="122.5,-155.025 119,-145.025 115.5,-155.025 122.5,-155.025"/>
</g>
<!-- pl30 -->
<g id="node39" class="node"><title>pl30</title>
<ellipse fill="none" stroke="black" cx="65" cy="-127" rx="18" ry="18"/>
<text text-anchor="middle" x="65" y="-123.3" font-family="Times,serif" font-size="14.00">pl30</text>
</g>
<!-- transition13&#45;&gt;pl30 -->
<g id="edge41" class="edge"><title>transition13&#45;&gt;pl30</title>
<path fill="none" stroke="black" d="M118.845,-180.848C117.012,-179.049 99.2624,-161.628 84.6353,-147.272"/>
<polygon fill="black" stroke="black" points="86.9603,-144.649 77.3718,-140.143 82.057,-149.645 86.9603,-144.649"/>
</g>
<!-- pl19 -->
<g id="node36" class="node"><title>pl19</title>
<ellipse fill="none" stroke="black" cx="152" cy="-18" rx="18" ry="18"/>
<text text-anchor="middle" x="152" y="-14.3" font-family="Times,serif" font-size="14.00">pl19</text>
</g>
<!-- pl19&#45;&gt;transition16 -->
<g id="edge38" class="edge"><title>pl19&#45;&gt;transition16</title>
<path fill="none" stroke="black" d="M155.348,-35.9719C159.2,-57.009 165,-94.0008 165,-126 165,-1704 165,-1704 165,-1704 165,-1758.27 224.109,-1810.35 225.956,-1811.96"/>
</g>
<!-- transition14&#45;&gt;pl19 -->
<g id="edge37" class="edge"><title>transition14&#45;&gt;pl19</title>
<path fill="none" stroke="black" d="M89.0457,-71.9616C90.2024,-70.9885 113.102,-51.7233 130.952,-36.7068"/>
<polygon fill="black" stroke="black" points="133.303,-39.3033 138.702,-30.1873 128.796,-33.9467 133.303,-39.3033"/>
</g>
<!-- pl31 -->
<g id="node38" class="node"><title>pl31</title>
<ellipse fill="none" stroke="black" cx="77" cy="-18" rx="18" ry="18"/>
<text text-anchor="middle" x="77" y="-14.3" font-family="Times,serif" font-size="14.00">pl31</text>
</g>
<!-- transition14&#45;&gt;pl31 -->
<g id="edge39" class="edge"><title>transition14&#45;&gt;pl31</title>
<path fill="none" stroke="black" d="M88.9656,-71.848C88.625,-70.3436 85.812,-57.9195 82.9992,-45.4964"/>
<polygon fill="black" stroke="black" points="86.4126,-44.7225 80.7907,-35.7422 79.5854,-46.2683 86.4126,-44.7225"/>
</g>
<!-- pl31&#45;&gt;transition16 -->
<g id="edge40" class="edge"><title>pl31&#45;&gt;transition16</title>
<path fill="none" stroke="black" d="M64.6997,-31.6356C47.6743,-50.5182 19,-87.966 19,-126 19,-1704 19,-1704 19,-1704 19,-1806.15 219.582,-1811.84 225.85,-1812"/>
</g>
<!-- pl30&#45;&gt;transition14 -->
<g id="edge42" class="edge"><title>pl30&#45;&gt;transition14</title>
<path fill="none" stroke="black" d="M72.071,-110.385C78.9292,-95.2398 88.3871,-74.3535 88.9715,-73.0629"/>
</g>
<!-- transition15 -->
<g id="node42" class="node"><title>transition15</title>
<polygon fill="none" stroke="black" points="321,-182 285,-182 285,-181 321,-181 321,-182"/>
<text text-anchor="middle" x="272.5" y="-185.8" font-family="Times,serif" font-size="14.00">ack&#45;</text>
</g>
<!-- pl20&#45;&gt;transition15 -->
<g id="edge44" class="edge"><title>pl20&#45;&gt;transition15</title>
<path fill="none" stroke="black" d="M303,-217.939C303,-202.929 303,-183.273 303,-182.059"/>
</g>
<!-- pl21 -->
<g id="node41" class="node"><title>pl21</title>
<ellipse fill="none" stroke="black" cx="357" cy="-127" rx="18" ry="18"/>
<text text-anchor="middle" x="357" y="-123.3" font-family="Times,serif" font-size="14.00">pl21</text>
</g>
<!-- transition17 -->
<g id="node44" class="node"><title>transition17</title>
<polygon fill="none" stroke="black" points="348,-73 312,-73 312,-72 348,-72 348,-73"/>
<text text-anchor="middle" x="299" y="-76.8" font-family="Times,serif" font-size="14.00">req+</text>
</g>
<!-- pl21&#45;&gt;transition17 -->
<g id="edge46" class="edge"><title>pl21&#45;&gt;transition17</title>
<path fill="none" stroke="black" d="M349.19,-110.67C341.466,-95.5064 330.698,-74.3699 330.032,-73.0636"/>
</g>
<!-- transition15&#45;&gt;pl21 -->
<g id="edge45" class="edge"><title>transition15&#45;&gt;pl21</title>
<path fill="none" stroke="black" d="M303.155,-180.848C304.988,-179.049 322.738,-161.628 337.365,-147.272"/>
<polygon fill="black" stroke="black" points="339.943,-149.645 344.628,-140.143 335.04,-144.649 339.943,-149.645"/>
</g>
<!-- pl32 -->
<g id="node46" class="node"><title>pl32</title>
<ellipse fill="none" stroke="black" cx="303" cy="-127" rx="18" ry="18"/>
<text text-anchor="middle" x="303" y="-123.3" font-family="Times,serif" font-size="14.00">pl32</text>
</g>
<!-- transition15&#45;&gt;pl32 -->
<g id="edge51" class="edge"><title>transition15&#45;&gt;pl32</title>
<path fill="none" stroke="black" d="M303,-180.848C303,-179.368 303,-167.319 303,-155.1"/>
<polygon fill="black" stroke="black" points="306.5,-155.025 303,-145.025 299.5,-155.025 306.5,-155.025"/>
</g>
<!-- pl22 -->
<g id="node43" class="node"><title>pl22</title>
<ellipse fill="none" stroke="black" cx="366" cy="-18" rx="18" ry="18"/>
<text text-anchor="middle" x="366" y="-14.3" font-family="Times,serif" font-size="14.00">pl22</text>
</g>
<!-- pl22&#45;&gt;transition16 -->
<g id="edge48" class="edge"><title>pl22&#45;&gt;transition16</title>
<path fill="none" stroke="black" d="M374.768,-34.0266C385.71,-54.2317 403,-91.6026 403,-126 403,-1704 403,-1704 403,-1704 403,-1794.71 231.488,-1811.49 226.128,-1811.99"/>
</g>
<!-- transition17&#45;&gt;pl22 -->
<g id="edge47" class="edge"><title>transition17&#45;&gt;pl22</title>
<path fill="none" stroke="black" d="M330.103,-71.848C331.226,-70.1944 341.311,-55.3471 350.506,-41.8101"/>
<polygon fill="black" stroke="black" points="353.594,-43.4941 356.317,-33.2553 347.803,-39.5609 353.594,-43.4941"/>
</g>
<!-- pl33 -->
<g id="node45" class="node"><title>pl33</title>
<ellipse fill="none" stroke="black" cx="216" cy="-18" rx="18" ry="18"/>
<text text-anchor="middle" x="216" y="-14.3" font-family="Times,serif" font-size="14.00">pl33</text>
</g>
<!-- transition17&#45;&gt;pl33 -->
<g id="edge49" class="edge"><title>transition17&#45;&gt;pl33</title>
<path fill="none" stroke="black" d="M329.917,-71.9616C327.547,-70.8594 274.703,-46.2918 241.831,-31.0092"/>
<polygon fill="black" stroke="black" points="242.892,-27.6427 232.349,-26.6007 239.941,-33.9903 242.892,-27.6427"/>
</g>
<!-- pl33&#45;&gt;transition16 -->
<g id="edge50" class="edge"><title>pl33&#45;&gt;transition16</title>
<path fill="none" stroke="black" d="M212.652,-35.9719C208.8,-57.009 203,-94.0008 203,-126 203,-1704 203,-1704 203,-1704 203,-1752.31 225.287,-1810.16 225.983,-1811.96"/>
</g>
<!-- pl32&#45;&gt;transition17 -->
<g id="edge52" class="edge"><title>pl32&#45;&gt;transition17</title>
<path fill="none" stroke="black" d="M310.81,-110.67C318.534,-95.5064 329.302,-74.3699 329.968,-73.0636"/>
</g>
<!-- transition18 -->
<g id="node49" class="node"><title>transition18</title>
<polygon fill="none" stroke="black" points="375,-1141.5 339,-1141.5 339,-1140.5 375,-1140.5 375,-1141.5"/>
<text text-anchor="middle" x="325" y="-1129.3" font-family="Times,serif" font-size="14.00">wen&#45;</text>
</g>
<!-- pl23&#45;&gt;transition18 -->
<g id="edge54" class="edge"><title>pl23&#45;&gt;transition18</title>
<path fill="none" stroke="black" d="M357,-1194.7C357,-1174.62 357,-1143.99 357,-1142.09"/>
</g>
<!-- pl24 -->
<g id="node48" class="node"><title>pl24</title>
<ellipse fill="none" stroke="black" cx="357" cy="-1069" rx="18" ry="18"/>
<text text-anchor="middle" x="357" y="-1065.3" font-family="Times,serif" font-size="14.00">pl24</text>
</g>
<!-- pl24&#45;&gt;transition19 -->
<g id="edge56" class="edge"><title>pl24&#45;&gt;transition19</title>
<path fill="none" stroke="black" d="M346.331,-1054.17C331.086,-1034.41 304.713,-1000.22 303.08,-998.103"/>
</g>
<!-- transition18&#45;&gt;pl24 -->
<g id="edge55" class="edge"><title>transition18&#45;&gt;pl24</title>
<path fill="none" stroke="black" d="M357,-1139.95C357,-1138.75 357,-1116.43 357,-1097.32"/>
<polygon fill="black" stroke="black" points="360.5,-1097.19 357,-1087.19 353.5,-1097.19 360.5,-1097.19"/>
</g>
<!-- transition20 -->
<g id="node52" class="node"><title>transition20</title>
<polygon fill="none" stroke="black" points="267,-1069.5 231,-1069.5 231,-1068.5 267,-1068.5 267,-1069.5"/>
<text text-anchor="middle" x="217" y="-1073.3" font-family="Times,serif" font-size="14.00">ack+</text>
</g>
<!-- pl25&#45;&gt;transition20 -->
<g id="edge58" class="edge"><title>pl25&#45;&gt;transition20</title>
<path fill="none" stroke="black" d="M249,-1122.7C249,-1102.62 249,-1071.99 249,-1070.09"/>
</g>
<!-- pl26 -->
<g id="node51" class="node"><title>pl26</title>
<ellipse fill="none" stroke="black" cx="249" cy="-997" rx="18" ry="18"/>
<text text-anchor="middle" x="249" y="-993.3" font-family="Times,serif" font-size="14.00">pl26</text>
</g>
<!-- transition21 -->
<g id="node54" class="node"><title>transition21</title>
<polygon fill="none" stroke="black" points="267,-925.5 231,-925.5 231,-924.5 267,-924.5 267,-925.5"/>
<text text-anchor="middle" x="219.5" y="-929.3" font-family="Times,serif" font-size="14.00">req&#45;</text>
</g>
<!-- pl26&#45;&gt;transition21 -->
<g id="edge60" class="edge"><title>pl26&#45;&gt;transition21</title>
<path fill="none" stroke="black" d="M249,-978.697C249,-958.615 249,-927.987 249,-926.092"/>
</g>
<!-- transition20&#45;&gt;pl26 -->
<g id="edge59" class="edge"><title>transition20&#45;&gt;pl26</title>
<path fill="none" stroke="black" d="M249,-1067.95C249,-1066.75 249,-1044.43 249,-1025.32"/>
<polygon fill="black" stroke="black" points="252.5,-1025.19 249,-1015.19 245.5,-1025.19 252.5,-1025.19"/>
</g>
<!-- pl27 -->
<g id="node53" class="node"><title>pl27</title>
<ellipse fill="none" stroke="black" cx="249" cy="-853" rx="18" ry="18"/>
<text text-anchor="middle" x="249" y="-849.3" font-family="Times,serif" font-size="14.00">pl27</text>
</g>
<!-- pl27&#45;&gt;transition22 -->
<g id="edge62" class="edge"><title>pl27&#45;&gt;transition22</title>
<path fill="none" stroke="black" d="M249.908,-834.615C251.088,-810.475 253,-765.431 253,-727 253,-727 253,-727 253,-399 253,-365.407 260.596,-356.853 276,-327 284.884,-309.782 301.894,-292.139 302.949,-291.053"/>
</g>
<!-- transition21&#45;&gt;pl27 -->
<g id="edge61" class="edge"><title>transition21&#45;&gt;pl27</title>
<path fill="none" stroke="black" d="M249,-923.949C249,-922.748 249,-900.429 249,-881.321"/>
<polygon fill="black" stroke="black" points="252.5,-881.191 249,-871.191 245.5,-881.191 252.5,-881.191"/>
</g>
<!-- transition23 -->
<g id="node57" class="node"><title>transition23</title>
<polygon fill="none" stroke="black" points="321,-1377 285,-1377 285,-1376 321,-1376 321,-1377"/>
<text text-anchor="middle" x="263.5" y="-1380.8" font-family="Times,serif" font-size="14.00">wenin+</text>
</g>
<!-- pl28&#45;&gt;transition23 -->
<g id="edge64" class="edge"><title>pl28&#45;&gt;transition23</title>
<path fill="none" stroke="black" d="M303,-1412.94C303,-1397.93 303,-1378.27 303,-1377.06"/>
</g>
<!-- pl29 -->
<g id="node56" class="node"><title>pl29</title>
<ellipse fill="none" stroke="black" cx="303" cy="-1322" rx="18" ry="18"/>
<text text-anchor="middle" x="303" y="-1318.3" font-family="Times,serif" font-size="14.00">pl29</text>
</g>
<!-- pl29&#45;&gt;transition24 -->
<g id="edge66" class="edge"><title>pl29&#45;&gt;transition24</title>
<path fill="none" stroke="black" d="M303,-1303.94C303,-1288.93 303,-1269.27 303,-1268.06"/>
</g>
<!-- transition23&#45;&gt;pl29 -->
<g id="edge65" class="edge"><title>transition23&#45;&gt;pl29</title>
<path fill="none" stroke="black" d="M303,-1375.85C303,-1374.37 303,-1362.32 303,-1350.1"/>
<polygon fill="black" stroke="black" points="306.5,-1350.02 303,-1340.02 299.5,-1350.02 306.5,-1350.02"/>
</g>
</g>
</svg>
