<?xml version="1.0" encoding="utf-8"?>
<svg width="254pt" height="626pt" viewBox="0.00 -2 282 638" xmlns="http://www.w3.org/2000/svg">
  <title>%3</title>
  <polygon fill="white" stroke="none" points="0 626 0 0 254 0 254 626 0 626"/>
  <g id="node1" class="node" transform="matrix(1, 0, 0, 1, 4, 622)">
    <title>p1</title>
    <ellipse fill="none" stroke="black" cx="200" cy="-600" rx="18" ry="18"/>
    <text text-anchor="middle" x="200" y="-596.3" font-family="Times,serif" font-size="14.00" style="white-space: pre;">p1</text>
  </g>
  <title>transition0</title>
  <polygon fill="none" stroke="black" points="199 76 163 76 163 77 199 77 199 76"/>
  <text text-anchor="middle" x="163.295" y="69.499" font-family="Times,serif" font-size="14.00" style="white-space: pre; font-size: 14px;">req+</text>
  <title>p1-&gt;transition0</title>
  <path fill="none" stroke="black" d="M 197.099 38.902 C 192.279 50.008 186.169 64.088 183.044 71.29"/>
  <polygon fill="none" stroke="black" points="184.623 72.048 181.027 75.938 181.412 70.654 184.623 72.048"/>
  <title>p2</title>
  <ellipse fill="none" stroke="black" cx="181" cy="131" rx="18" ry="18"/>
  <text text-anchor="middle" x="181" y="134.7" font-family="Times,serif" font-size="14.00" style="white-space: pre; font-size: 14px;">p2</text>
  <title>transition1</title>
  <polygon fill="none" stroke="black" points="193 185 157 185 157 186 193 186 193 185"/>
  <text text-anchor="middle" x="141.003" y="178.915" font-family="Times,serif" font-size="14.00" style="white-space: pre; font-size: 14px;">sendiline+</text>
  <title>p2-&gt;transition1</title>
  <path fill="none" stroke="black" d="M 179.069 149.061 C 177.874 159.615 176.419 172.466 175.613 179.588"/>
  <polygon fill="none" stroke="black" points="177.308 180.169 175.007 184.941 173.83 179.776 177.308 180.169"/>
  <title>transition0-&gt;p2</title>
  <path fill="none" stroke="black" d="M 181 77.152 C 181 78.632 181 90.681 181 102.9"/>
  <polygon fill="black" stroke="black" points="184.5 102.975 181 112.975 177.5 102.975 184.5 102.975"/>
  <title>p3</title>
  <ellipse fill="none" stroke="black" cx="164" cy="240" rx="18" ry="18"/>
  <text text-anchor="middle" x="164" y="243.7" font-family="Times,serif" font-size="14.00" style="white-space: pre; font-size: 14px;">p3</text>
  <title>transition6</title>
  <polygon fill="none" stroke="black" points="130 294 94 294 94 295 130 295 130 294"/>
  <text text-anchor="middle" x="62.087" y="287.915" font-family="Times,serif" font-size="14.00" style="white-space: pre; font-size: 14px;" transform="matrix(0, 1, -1, 0, 365.826416, 237.723252)">[done-]ackline+</text>
  <title>p3-&gt;transition6</title>
  <path fill="none" stroke="black" d="M 151.677 253.56 C 140.039 265.422 123.29 282.493 115.833 290.094"/>
  <polygon fill="none" stroke="black" points="116.821 291.585 112.07 293.928 114.323 289.134 116.821 291.585"/>
  <title>transition2</title>
  <polygon fill="none" stroke="black" points="222 294 186 294 186 295 222 295 222 294"/>
  <title>p3-&gt;transition2</title>
  <text text-anchor="middle" x="196.21" y="308.069" font-family="Times,serif" font-size="14.00" style="white-space: pre; font-size: 14px;" transform="matrix(0, 1, -1, 0, 536.51062, 101.32744)">[done+]ackline+</text>
  <path fill="none" stroke="black" d="M 174.51 254.925 C 183.3 266.572 195.274 282.438 200.873 289.857"/>
  <polygon fill="none" stroke="black" points="202.334 288.887 203.949 293.932 199.54 290.996 202.334 288.887"/>
  <title>transition1-&gt;p3</title>
  <path fill="none" stroke="black" d="M 174.968 186.152 C 174.659 187.641 172.128 199.836 169.576 212.135"/>
  <polygon fill="black" stroke="black" points="172.934 213.178 167.475 222.258 166.08 211.755 172.934 213.178"/>
  <title>p9</title>
  <ellipse fill="none" stroke="black" cx="112" cy="349" rx="18" ry="18"/>
  <text text-anchor="middle" x="112" y="352.7" font-family="Times,serif" font-size="14.00" style="white-space: pre; font-size: 14px;">p9</text>
  <title>transition7</title>
  <polygon fill="none" stroke="black" points="130 403 94 403 94 404 130 404 130 403"/>
  <text text-anchor="middle" x="66" y="399.2" font-family="Times,serif" font-size="14.00" style="white-space: pre; font-size: 14px;" transform="matrix(0, 1, -1, 0, 475.11319, 338.533203)">sendiline-</text>
  <title>p9-&gt;transition7</title>
  <path fill="none" stroke="black" d="M 112 367.061 C 112 377.615 112 390.466 112 397.588"/>
  <polygon fill="none" stroke="black" points="113.75 397.941 112 402.941 110.25 397.941 113.75 397.941"/>
  <title>transition6-&gt;p9</title>
  <path fill="none" stroke="black" d="M 112 295.152 C 112 296.632 112 308.681 112 320.9"/>
  <polygon fill="black" stroke="black" points="115.5 320.975 112 330.975 108.5 320.975 115.5 320.975"/>
  <title>p7</title>
  <ellipse fill="none" stroke="black" cx="112" cy="458" rx="18" ry="18"/>
  <text text-anchor="middle" x="112" y="461.7" font-family="Times,serif" font-size="14.00" style="white-space: pre; font-size: 14px;">p7</text>
  <title>transition8</title>
  <polygon fill="none" stroke="black" points="130 512 94 512 94 513 130 513 130 512"/>
  <text text-anchor="middle" x="71" y="508.2" font-family="Times,serif" font-size="14.00" style="white-space: pre; font-size: 14px;" transform="matrix(0, 1.000001, -1, 0, 587.383972, 439.651167)">ackline-</text>
  <title>p7-&gt;transition8</title>
  <path fill="none" stroke="black" d="M 112 476.061 C 112 486.615 112 499.466 112 506.588"/>
  <polygon fill="none" stroke="black" points="113.75 506.941 112 511.941 110.25 506.941 113.75 506.941"/>
  <title>transition7-&gt;p7</title>
  <path fill="none" stroke="black" d="M 112 404.152 C 112 405.632 112 417.681 112 429.9"/>
  <polygon fill="black" stroke="black" points="115.5 429.975 112 439.975 108.5 429.975 115.5 429.975"/>
  <title>p8</title>
  <ellipse fill="none" stroke="black" cx="112" cy="567" rx="18" ry="18"/>
  <text text-anchor="middle" x="112" y="570.7" font-family="Times,serif" font-size="14.00" style="white-space: pre; font-size: 14px;">p8</text>
  <title>transition9</title>
  <polygon fill="none" stroke="black" points="162 621 126 621 126 622 162 622 162 621"/>
  <text text-anchor="middle" x="105.146" y="616.624" font-family="Times,serif" font-size="14.00" style="white-space: pre; font-size: 14px;">sendiline+</text>
  <title>p8-&gt;transition9</title>
  <path fill="none" stroke="black" d="M 120.914 582.763 C 127.793 594.158 136.863 609.179 141.309 616.543"/>
  <polygon fill="none" stroke="black" points="142.874 615.75 143.961 620.935 139.878 617.559 142.874 615.75"/>
  <title>transition8-&gt;p8</title>
  <path fill="none" stroke="black" d="M 112 513.152 C 112 514.632 112 526.681 112 538.9"/>
  <polygon fill="black" stroke="black" points="115.5 538.975 112 548.975 108.5 538.975 115.5 538.975"/>
  <title>transition9-&gt;p3</title>
  <path fill="none" stroke="black" d="M 144.01 620.957 C 144.434 619.14 158 560.645 158 513 C 158 348 158 348 158 348 C 158 320.783 159.959 289.732 161.638 268.117"/>
  <polygon fill="black" stroke="black" points="158.159 267.718 162.455 258.033 165.136 268.283 158.159 267.718"/>
  <title>p4</title>
  <ellipse fill="none" stroke="black" cx="204" cy="349" rx="18" ry="18"/>
  <text text-anchor="middle" x="204" y="352.7" font-family="Times,serif" font-size="14.00" style="white-space: pre; font-size: 14px;">p4</text>
  <title>transition3</title>
  <polygon fill="none" stroke="black" points="222 403 186 403 186 404 222 404 222 403"/>
  <text text-anchor="middle" x="168.709" y="396.894" font-family="Times,serif" font-size="14.00" style="white-space: pre; font-size: 14px;" transform="matrix(0, 1, -1, 0, 624.521423, 235.254593)">sendiline-ack+</text>
  <title>p4-&gt;transition3</title>
  <path fill="none" stroke="black" d="M 204 367.061 C 204 377.615 204 390.466 204 397.588"/>
  <polygon fill="none" stroke="black" points="205.75 397.941 204 402.941 202.25 397.941 205.75 397.941"/>
  <title>transition2-&gt;p4</title>
  <path fill="none" stroke="black" d="M 204 295.152 C 204 296.632 204 308.681 204 320.9"/>
  <polygon fill="black" stroke="black" points="207.5 320.975 204 330.975 200.5 320.975 207.5 320.975"/>
  <title>p5</title>
  <ellipse fill="none" stroke="black" cx="204" cy="458" rx="18" ry="18"/>
  <text text-anchor="middle" x="204" y="461.7" font-family="Times,serif" font-size="14.00" style="white-space: pre; font-size: 14px;">p5</text>
  <title>transition4</title>
  <polygon fill="none" stroke="black" points="222 512 186 512 186 513 222 513 222 512"/>
  <text text-anchor="middle" x="152" y="508.2" font-family="Times,serif" font-size="14.00" style="white-space: pre; font-size: 14px;" transform="matrix(0, 1, -1, 0, 734.101624, 356.914185)">req-ackline-</text>
  <title>p5-&gt;transition4</title>
  <path fill="none" stroke="black" d="M 204 476.061 C 204 486.615 204 499.466 204 506.588"/>
  <polygon fill="none" stroke="black" points="205.75 506.941 204 511.941 202.25 506.941 205.75 506.941"/>
  <title>transition3-&gt;p5</title>
  <path fill="none" stroke="black" d="M 204 404.152 C 204 405.632 204 417.681 204 429.9"/>
  <polygon fill="black" stroke="black" points="207.5 429.975 204 439.975 200.5 429.975 207.5 429.975"/>
  <title>p6</title>
  <ellipse fill="none" stroke="black" cx="204" cy="567" rx="18" ry="18"/>
  <text text-anchor="middle" x="204" y="570.7" font-family="Times,serif" font-size="14.00" style="white-space: pre; font-size: 14px;">p6</text>
  <title>transition5</title>
  <polygon fill="none" stroke="black" points="235 621 199 621 199 622 235 622 235 621"/>
  <text text-anchor="middle" x="196.299" y="618.353" font-family="Times,serif" font-size="14.00" style="white-space: pre; font-size: 14px;">ack-</text>
  <title>p6-&gt;transition5</title>
  <path fill="none" stroke="black" d="M 208.113 584.77 C 210.765 595.581 214.033 608.902 215.773 615.996"/>
  <polygon fill="none" stroke="black" points="217.494 615.667 216.985 620.94 214.095 616.501 217.494 615.667"/>
  <title>transition4-&gt;p6</title>
  <path fill="none" stroke="black" d="M 204 513.152 C 204 514.632 204 526.681 204 538.9"/>
  <polygon fill="black" stroke="black" points="207.5 538.975 204 548.975 200.5 538.975 207.5 538.975"/>
  <title>transition5-&gt;p1</title>
  <path fill="none" stroke="black" d="M 217.095 620.833 C 219.03 617.394 250 561.622 250 513 C 250 130 250 130 250 130 C 250 98.824 233.314 66.388 220.041 45.519"/>
  <polygon fill="black" stroke="black" points="217.04 47.326 214.438 37.055 222.877 43.461 217.04 47.326"/>
</svg>