<?xml version="1.0" encoding="UTF-8" standalone="no"?>
<!DOCTYPE svg PUBLIC "-//W3C//DTD SVG 1.1//EN"
 "http://www.w3.org/Graphics/SVG/1.1/DTD/svg11.dtd">
<!-- Generated by graphviz version 2.38.0 (20140413.2041)
 -->
<!-- Title: %3 Pages: 1 -->
<svg width="253pt" height="1716pt"
 viewBox="0.00 0.00 253.00 1716.00" xmlns="http://www.w3.org/2000/svg" xmlns:xlink="http://www.w3.org/1999/xlink">
<g id="graph0" class="graph" transform="scale(1 1) rotate(0) translate(4 1712)">
<title>%3</title>
<polygon fill="white" stroke="none" points="-4,4 -4,-1712 249,-1712 249,4 -4,4"/>
<!-- p1 -->
<g id="node1" class="node"><title>p1</title>
<ellipse fill="none" stroke="black" cx="221" cy="-1690" rx="18" ry="18"/>
<text text-anchor="middle" x="221" y="-1686.3" font-family="Times,serif" font-size="14.00">p1</text>
</g>
<!-- transition0 -->
<g id="node3" class="node"><title>transition0</title>
<polygon fill="none" stroke="black" points="215,-1636 179,-1636 179,-1635 215,-1635 215,-1636"/>
<text text-anchor="middle" x="141.5" y="-1639.8" font-family="Times,serif" font-size="14.00">ok+rin*dsel*</text>
</g>
<!-- p1&#45;&gt;transition0 -->
<g id="edge1" class="edge"><title>p1&#45;&gt;transition0</title>
<path fill="none" stroke="black" d="M213.929,-1673.38C208.893,-1662.26 202.454,-1648.04 199.157,-1640.76"/>
<polygon fill="none" stroke="black" points="200.685,-1639.9 197.028,-1636.06 197.497,-1641.34 200.685,-1639.9"/>
</g>
<!-- p2 -->
<g id="node2" class="node"><title>p2</title>
<ellipse fill="none" stroke="black" cx="196" cy="-1581" rx="18" ry="18"/>
<text text-anchor="middle" x="196" y="-1577.3" font-family="Times,serif" font-size="14.00">p2</text>
</g>
<!-- transition1 -->
<g id="node5" class="node"><title>transition1</title>
<polygon fill="none" stroke="black" points="211,-1527 175,-1527 175,-1526 211,-1526 211,-1527"/>
<text text-anchor="middle" x="157" y="-1530.8" font-family="Times,serif" font-size="14.00">frout+</text>
</g>
<!-- p2&#45;&gt;transition1 -->
<g id="edge3" class="edge"><title>p2&#45;&gt;transition1</title>
<path fill="none" stroke="black" d="M195.034,-1562.94C194.437,-1552.39 193.709,-1539.53 193.306,-1532.41"/>
<polygon fill="none" stroke="black" points="195.033,-1531.95 193.003,-1527.06 191.539,-1532.15 195.033,-1531.95"/>
</g>
<!-- transition0&#45;&gt;p2 -->
<g id="edge2" class="edge"><title>transition0&#45;&gt;p2</title>
<path fill="none" stroke="black" d="M196.997,-1634.85C196.969,-1633.37 196.742,-1621.32 196.511,-1609.1"/>
<polygon fill="black" stroke="black" points="200.009,-1608.96 196.321,-1599.02 193.011,-1609.09 200.009,-1608.96"/>
</g>
<!-- p3 -->
<g id="node4" class="node"><title>p3</title>
<ellipse fill="none" stroke="black" cx="193" cy="-1472" rx="18" ry="18"/>
<text text-anchor="middle" x="193" y="-1468.3" font-family="Times,serif" font-size="14.00">p3</text>
</g>
<!-- transition2 -->
<g id="node7" class="node"><title>transition2</title>
<polygon fill="none" stroke="black" points="204,-1418 168,-1418 168,-1417 204,-1417 204,-1418"/>
<text text-anchor="middle" x="127" y="-1421.8" font-family="Times,serif" font-size="14.00">rin*fain+dsel*</text>
</g>
<!-- p3&#45;&gt;transition2 -->
<g id="edge5" class="edge"><title>p3&#45;&gt;transition2</title>
<path fill="none" stroke="black" d="M190.747,-1453.94C189.353,-1443.39 187.655,-1430.53 186.715,-1423.41"/>
<polygon fill="none" stroke="black" points="188.398,-1422.79 186.008,-1418.06 184.928,-1423.25 188.398,-1422.79"/>
</g>
<!-- transition1&#45;&gt;p3 -->
<g id="edge4" class="edge"><title>transition1&#45;&gt;p3</title>
<path fill="none" stroke="black" d="M193,-1525.85C193,-1524.37 193,-1512.32 193,-1500.1"/>
<polygon fill="black" stroke="black" points="196.5,-1500.02 193,-1490.02 189.5,-1500.02 196.5,-1500.02"/>
</g>
<!-- p4 -->
<g id="node6" class="node"><title>p4</title>
<ellipse fill="none" stroke="black" cx="186" cy="-1363" rx="18" ry="18"/>
<text text-anchor="middle" x="186" y="-1359.3" font-family="Times,serif" font-size="14.00">p4</text>
</g>
<!-- transition3 -->
<g id="node9" class="node"><title>transition3</title>
<polygon fill="none" stroke="black" points="191,-1309 155,-1309 155,-1308 191,-1308 191,-1309"/>
<text text-anchor="middle" x="139" y="-1312.8" font-family="Times,serif" font-size="14.00">frout&#45;</text>
</g>
<!-- p4&#45;&gt;transition3 -->
<g id="edge7" class="edge"><title>p4&#45;&gt;transition3</title>
<path fill="none" stroke="black" d="M181.887,-1345.23C179.235,-1334.42 175.967,-1321.1 174.227,-1314"/>
<polygon fill="none" stroke="black" points="175.905,-1313.5 173.015,-1309.06 172.506,-1314.33 175.905,-1313.5"/>
</g>
<!-- transition2&#45;&gt;p4 -->
<g id="edge6" class="edge"><title>transition2&#45;&gt;p4</title>
<path fill="none" stroke="black" d="M186,-1416.85C186,-1415.37 186,-1403.32 186,-1391.1"/>
<polygon fill="black" stroke="black" points="189.5,-1391.02 186,-1381.02 182.5,-1391.02 189.5,-1391.02"/>
</g>
<!-- p5 -->
<g id="node8" class="node"><title>p5</title>
<ellipse fill="none" stroke="black" cx="173" cy="-1254" rx="18" ry="18"/>
<text text-anchor="middle" x="173" y="-1250.3" font-family="Times,serif" font-size="14.00">p5</text>
</g>
<!-- transition4 -->
<g id="node11" class="node"><title>transition4</title>
<polygon fill="none" stroke="black" points="164,-1200 128,-1200 128,-1199 164,-1199 164,-1200"/>
<text text-anchor="middle" x="88" y="-1203.8" font-family="Times,serif" font-size="14.00">rin+fain&#45;dsel*</text>
</g>
<!-- p5&#45;&gt;transition4 -->
<g id="edge9" class="edge"><title>p5&#45;&gt;transition4</title>
<path fill="none" stroke="black" d="M165.19,-1237.67C159.517,-1226.53 152.204,-1212.18 148.455,-1204.82"/>
<polygon fill="none" stroke="black" points="149.861,-1203.72 146.032,-1200.06 146.743,-1205.31 149.861,-1203.72"/>
</g>
<!-- transition3&#45;&gt;p5 -->
<g id="edge8" class="edge"><title>transition3&#45;&gt;p5</title>
<path fill="none" stroke="black" d="M173,-1307.85C173,-1306.37 173,-1294.32 173,-1282.1"/>
<polygon fill="black" stroke="black" points="176.5,-1282.02 173,-1272.02 169.5,-1282.02 176.5,-1282.02"/>
</g>
<!-- p6 -->
<g id="node10" class="node"><title>p6</title>
<ellipse fill="none" stroke="black" cx="146" cy="-1145" rx="18" ry="18"/>
<text text-anchor="middle" x="146" y="-1141.3" font-family="Times,serif" font-size="14.00">p6</text>
</g>
<!-- transition5 -->
<g id="node13" class="node"><title>transition5</title>
<polygon fill="none" stroke="black" points="163,-1091 127,-1091 127,-1090 163,-1090 163,-1091"/>
<text text-anchor="middle" x="110.5" y="-1094.8" font-family="Times,serif" font-size="14.00">aout+</text>
</g>
<!-- p6&#45;&gt;transition5 -->
<g id="edge11" class="edge"><title>p6&#45;&gt;transition5</title>
<path fill="none" stroke="black" d="M145.678,-1126.94C145.479,-1116.39 145.236,-1103.53 145.102,-1096.41"/>
<polygon fill="none" stroke="black" points="146.845,-1096.03 145.001,-1091.06 143.346,-1096.09 146.845,-1096.03"/>
</g>
<!-- transition4&#45;&gt;p6 -->
<g id="edge10" class="edge"><title>transition4&#45;&gt;p6</title>
<path fill="none" stroke="black" d="M146,-1198.85C146,-1197.37 146,-1185.32 146,-1173.1"/>
<polygon fill="black" stroke="black" points="149.5,-1173.02 146,-1163.02 142.5,-1173.02 149.5,-1173.02"/>
</g>
<!-- p7 -->
<g id="node12" class="node"><title>p7</title>
<ellipse fill="none" stroke="black" cx="145" cy="-1036" rx="18" ry="18"/>
<text text-anchor="middle" x="145" y="-1032.3" font-family="Times,serif" font-size="14.00">p7</text>
</g>
<!-- transition8 -->
<g id="node15" class="node"><title>transition8</title>
<polygon fill="none" stroke="black" points="217,-982 181,-982 181,-981 217,-981 217,-982"/>
<text text-anchor="middle" x="131.5" y="-985.8" font-family="Times,serif" font-size="14.00">[cntgt1&#45;]rin&#45;dsel*</text>
</g>
<!-- p7&#45;&gt;transition8 -->
<g id="edge13" class="edge"><title>p7&#45;&gt;transition8</title>
<path fill="none" stroke="black" d="M157.524,-1022.71C169.598,-1010.86 187.153,-993.627 194.977,-985.948"/>
<polygon fill="none" stroke="black" points="196.584,-986.824 198.926,-982.072 194.132,-984.326 196.584,-986.824"/>
</g>
<!-- transition6 -->
<g id="node20" class="node"><title>transition6</title>
<polygon fill="none" stroke="black" points="163,-982 127,-982 127,-981 163,-981 163,-982"/>
<text text-anchor="middle" x="77" y="-969.8" font-family="Times,serif" font-size="14.00">[cntgt1+]rin&#45;dsel&#45;</text>
</g>
<!-- p7&#45;&gt;transition6 -->
<g id="edge19" class="edge"><title>p7&#45;&gt;transition6</title>
<path fill="none" stroke="black" d="M145,-1017.94C145,-1007.39 145,-994.534 145,-987.412"/>
<polygon fill="none" stroke="black" points="146.75,-987.059 145,-982.059 143.25,-987.059 146.75,-987.059"/>
</g>
<!-- transition5&#45;&gt;p7 -->
<g id="edge12" class="edge"><title>transition5&#45;&gt;p7</title>
<path fill="none" stroke="black" d="M145,-1089.85C145,-1088.37 145,-1076.32 145,-1064.1"/>
<polygon fill="black" stroke="black" points="148.5,-1064.02 145,-1054.02 141.5,-1064.02 148.5,-1064.02"/>
</g>
<!-- p20 -->
<g id="node14" class="node"><title>p20</title>
<ellipse fill="none" stroke="black" cx="199" cy="-927" rx="18" ry="18"/>
<text text-anchor="middle" x="199" y="-923.3" font-family="Times,serif" font-size="14.00">p20</text>
</g>
<!-- transition9 -->
<g id="node17" class="node"><title>transition9</title>
<polygon fill="none" stroke="black" points="217,-818.5 181,-818.5 181,-817.5 217,-817.5 217,-818.5"/>
<text text-anchor="middle" x="195.5" y="-822.3" font-family="Times,serif" font-size="14.00">aout&#45;</text>
</g>
<!-- p20&#45;&gt;transition9 -->
<g id="edge15" class="edge"><title>p20&#45;&gt;transition9</title>
<path fill="none" stroke="black" d="M199,-908.809C199,-883.92 199,-839.18 199,-824.112"/>
<polygon fill="none" stroke="black" points="200.75,-824.043 199,-819.043 197.25,-824.043 200.75,-824.043"/>
</g>
<!-- transition8&#45;&gt;p20 -->
<g id="edge14" class="edge"><title>transition8&#45;&gt;p20</title>
<path fill="none" stroke="black" d="M199,-980.848C199,-979.368 199,-967.319 199,-955.1"/>
<polygon fill="black" stroke="black" points="202.5,-955.025 199,-945.025 195.5,-955.025 202.5,-955.025"/>
</g>
<!-- p17 -->
<g id="node16" class="node"><title>p17</title>
<ellipse fill="none" stroke="black" cx="199" cy="-382" rx="18" ry="18"/>
<text text-anchor="middle" x="199" y="-378.3" font-family="Times,serif" font-size="14.00">p17</text>
</g>
<!-- transition20 -->
<g id="node18" class="node"><title>transition20</title>
<polygon fill="none" stroke="black" points="240,-328 204,-328 204,-327 240,-327 240,-328"/>
<text text-anchor="middle" x="168.5" y="-331.8" font-family="Times,serif" font-size="14.00">ok&#45;rin*dsel*</text>
</g>
<!-- p17&#45;&gt;transition20 -->
<g id="edge17" class="edge"><title>p17&#45;&gt;transition20</title>
<path fill="none" stroke="black" d="M205.901,-365.098C210.721,-353.992 216.831,-339.912 219.956,-332.71"/>
<polygon fill="none" stroke="black" points="221.588,-333.346 221.973,-328.062 218.377,-331.952 221.588,-333.346"/>
</g>
<!-- transition9&#45;&gt;p17 -->
<g id="edge16" class="edge"><title>transition9&#45;&gt;p17</title>
<path fill="none" stroke="black" d="M199.003,-816.957C199.124,-815.146 203,-756.845 203,-710 203,-710 203,-710 203,-490 203,-462.807 201.694,-431.753 200.574,-410.13"/>
<polygon fill="black" stroke="black" points="204.064,-409.839 200.03,-400.042 197.074,-410.216 204.064,-409.839"/>
</g>
<!-- transition20&#45;&gt;p1 -->
<g id="edge18" class="edge"><title>transition20&#45;&gt;p1</title>
<path fill="none" stroke="black" d="M222.017,-328.043C222.713,-329.839 245,-387.69 245,-436 245,-1582 245,-1582 245,-1582 245,-1610.3 236.906,-1641.82 230.118,-1663.27"/>
<polygon fill="black" stroke="black" points="226.739,-1662.34 226.933,-1672.94 233.387,-1664.54 226.739,-1662.34"/>
</g>
<!-- p8 -->
<g id="node19" class="node"><title>p8</title>
<ellipse fill="none" stroke="black" cx="145" cy="-927" rx="18" ry="18"/>
<text text-anchor="middle" x="145" y="-923.3" font-family="Times,serif" font-size="14.00">p8</text>
</g>
<!-- transition7 -->
<g id="node22" class="node"><title>transition7</title>
<polygon fill="none" stroke="black" points="163,-873 127,-873 127,-872 163,-872 163,-873"/>
<text text-anchor="middle" x="100.5" y="-876.8" font-family="Times,serif" font-size="14.00">aout&#45;sel+</text>
</g>
<!-- p8&#45;&gt;transition7 -->
<g id="edge21" class="edge"><title>p8&#45;&gt;transition7</title>
<path fill="none" stroke="black" d="M145,-908.939C145,-898.385 145,-885.534 145,-878.412"/>
<polygon fill="none" stroke="black" points="146.75,-878.059 145,-873.059 143.25,-878.059 146.75,-878.059"/>
</g>
<!-- transition6&#45;&gt;p8 -->
<g id="edge20" class="edge"><title>transition6&#45;&gt;p8</title>
<path fill="none" stroke="black" d="M145,-980.848C145,-979.368 145,-967.319 145,-955.1"/>
<polygon fill="black" stroke="black" points="148.5,-955.025 145,-945.025 141.5,-955.025 148.5,-955.025"/>
</g>
<!-- p9 -->
<g id="node21" class="node"><title>p9</title>
<ellipse fill="none" stroke="black" cx="145" cy="-818" rx="18" ry="18"/>
<text text-anchor="middle" x="145" y="-814.3" font-family="Times,serif" font-size="14.00">p9</text>
</g>
<!-- transition10 -->
<g id="node24" class="node"><title>transition10</title>
<polygon fill="none" stroke="black" points="163,-764 127,-764 127,-763 163,-763 163,-764"/>
<text text-anchor="middle" x="100" y="-767.8" font-family="Times,serif" font-size="14.00">rin+dsel+</text>
</g>
<!-- p9&#45;&gt;transition10 -->
<g id="edge23" class="edge"><title>p9&#45;&gt;transition10</title>
<path fill="none" stroke="black" d="M145,-799.939C145,-789.385 145,-776.534 145,-769.412"/>
<polygon fill="none" stroke="black" points="146.75,-769.059 145,-764.059 143.25,-769.059 146.75,-769.059"/>
</g>
<!-- transition7&#45;&gt;p9 -->
<g id="edge22" class="edge"><title>transition7&#45;&gt;p9</title>
<path fill="none" stroke="black" d="M145,-871.848C145,-870.368 145,-858.319 145,-846.1"/>
<polygon fill="black" stroke="black" points="148.5,-846.025 145,-836.025 141.5,-846.025 148.5,-846.025"/>
</g>
<!-- p10 -->
<g id="node23" class="node"><title>p10</title>
<ellipse fill="none" stroke="black" cx="145" cy="-709" rx="18" ry="18"/>
<text text-anchor="middle" x="145" y="-705.3" font-family="Times,serif" font-size="14.00">p10</text>
</g>
<!-- transition11 -->
<g id="node26" class="node"><title>transition11</title>
<polygon fill="none" stroke="black" points="163,-655 127,-655 127,-654 163,-654 163,-655"/>
<text text-anchor="middle" x="110.5" y="-658.8" font-family="Times,serif" font-size="14.00">aout+</text>
</g>
<!-- p10&#45;&gt;transition11 -->
<g id="edge25" class="edge"><title>p10&#45;&gt;transition11</title>
<path fill="none" stroke="black" d="M145,-690.939C145,-680.385 145,-667.534 145,-660.412"/>
<polygon fill="none" stroke="black" points="146.75,-660.059 145,-655.059 143.25,-660.059 146.75,-660.059"/>
</g>
<!-- transition10&#45;&gt;p10 -->
<g id="edge24" class="edge"><title>transition10&#45;&gt;p10</title>
<path fill="none" stroke="black" d="M145,-762.848C145,-761.368 145,-749.319 145,-737.1"/>
<polygon fill="black" stroke="black" points="148.5,-737.025 145,-727.025 141.5,-737.025 148.5,-737.025"/>
</g>
<!-- p11 -->
<g id="node25" class="node"><title>p11</title>
<ellipse fill="none" stroke="black" cx="145" cy="-600" rx="18" ry="18"/>
<text text-anchor="middle" x="145" y="-596.3" font-family="Times,serif" font-size="14.00">p11</text>
</g>
<!-- transition12 -->
<g id="node28" class="node"><title>transition12</title>
<polygon fill="none" stroke="black" points="121,-546 85,-546 85,-545 121,-545 121,-546"/>
<text text-anchor="middle" x="48.5" y="-549.8" font-family="Times,serif" font-size="14.00">[cntgt1+]rin&#45;</text>
</g>
<!-- p11&#45;&gt;transition12 -->
<g id="edge27" class="edge"><title>p11&#45;&gt;transition12</title>
<path fill="none" stroke="black" d="M134.184,-585.351C124.954,-573.704 112.261,-557.686 106.319,-550.189"/>
<polygon fill="none" stroke="black" points="107.531,-548.9 103.054,-546.068 104.788,-551.074 107.531,-548.9"/>
</g>
<!-- transition18 -->
<g id="node39" class="node"><title>transition18</title>
<polygon fill="none" stroke="black" points="175,-546 139,-546 139,-545 175,-545 175,-546"/>
<text text-anchor="middle" x="89.5" y="-533.8" font-family="Times,serif" font-size="14.00">[cntgt1&#45;]rin&#45;dsel*</text>
</g>
<!-- p11&#45;&gt;transition18 -->
<g id="edge39" class="edge"><title>p11&#45;&gt;transition18</title>
<path fill="none" stroke="black" d="M148.797,-582.23C151.245,-571.419 154.261,-558.098 155.867,-551.004"/>
<polygon fill="none" stroke="black" points="157.589,-551.323 156.986,-546.06 154.175,-550.55 157.589,-551.323"/>
</g>
<!-- transition11&#45;&gt;p11 -->
<g id="edge26" class="edge"><title>transition11&#45;&gt;p11</title>
<path fill="none" stroke="black" d="M145,-653.848C145,-652.368 145,-640.319 145,-628.1"/>
<polygon fill="black" stroke="black" points="148.5,-628.025 145,-618.025 141.5,-628.025 148.5,-628.025"/>
</g>
<!-- p12 -->
<g id="node27" class="node"><title>p12</title>
<ellipse fill="none" stroke="black" cx="103" cy="-491" rx="18" ry="18"/>
<text text-anchor="middle" x="103" y="-487.3" font-family="Times,serif" font-size="14.00">p12</text>
</g>
<!-- transition13 -->
<g id="node30" class="node"><title>transition13</title>
<polygon fill="none" stroke="black" points="121,-437 85,-437 85,-436 121,-436 121,-437"/>
<text text-anchor="middle" x="42.5" y="-440.8" font-family="Times,serif" font-size="14.00">aout&#45;frout+sel&#45;</text>
</g>
<!-- p12&#45;&gt;transition13 -->
<g id="edge29" class="edge"><title>p12&#45;&gt;transition13</title>
<path fill="none" stroke="black" d="M103,-472.939C103,-462.385 103,-449.534 103,-442.412"/>
<polygon fill="none" stroke="black" points="104.75,-442.059 103,-437.059 101.25,-442.059 104.75,-442.059"/>
</g>
<!-- transition12&#45;&gt;p12 -->
<g id="edge28" class="edge"><title>transition12&#45;&gt;p12</title>
<path fill="none" stroke="black" d="M103,-544.848C103,-543.368 103,-531.319 103,-519.1"/>
<polygon fill="black" stroke="black" points="106.5,-519.025 103,-509.025 99.5001,-519.025 106.5,-519.025"/>
</g>
<!-- p13 -->
<g id="node29" class="node"><title>p13</title>
<ellipse fill="none" stroke="black" cx="103" cy="-382" rx="18" ry="18"/>
<text text-anchor="middle" x="103" y="-378.3" font-family="Times,serif" font-size="14.00">p13</text>
</g>
<!-- transition14 -->
<g id="node32" class="node"><title>transition14</title>
<polygon fill="none" stroke="black" points="121,-328 85,-328 85,-327 121,-327 121,-328"/>
<text text-anchor="middle" x="44" y="-331.8" font-family="Times,serif" font-size="14.00">rin*fain+dsel*</text>
</g>
<!-- p13&#45;&gt;transition14 -->
<g id="edge31" class="edge"><title>p13&#45;&gt;transition14</title>
<path fill="none" stroke="black" d="M103,-363.939C103,-353.385 103,-340.534 103,-333.412"/>
<polygon fill="none" stroke="black" points="104.75,-333.059 103,-328.059 101.25,-333.059 104.75,-333.059"/>
</g>
<!-- transition13&#45;&gt;p13 -->
<g id="edge30" class="edge"><title>transition13&#45;&gt;p13</title>
<path fill="none" stroke="black" d="M103,-435.848C103,-434.368 103,-422.319 103,-410.1"/>
<polygon fill="black" stroke="black" points="106.5,-410.025 103,-400.025 99.5001,-410.025 106.5,-410.025"/>
</g>
<!-- p14 -->
<g id="node31" class="node"><title>p14</title>
<ellipse fill="none" stroke="black" cx="103" cy="-273" rx="18" ry="18"/>
<text text-anchor="middle" x="103" y="-269.3" font-family="Times,serif" font-size="14.00">p14</text>
</g>
<!-- transition15 -->
<g id="node34" class="node"><title>transition15</title>
<polygon fill="none" stroke="black" points="121,-219 85,-219 85,-218 121,-218 121,-219"/>
<text text-anchor="middle" x="69" y="-222.8" font-family="Times,serif" font-size="14.00">frout&#45;</text>
</g>
<!-- p14&#45;&gt;transition15 -->
<g id="edge33" class="edge"><title>p14&#45;&gt;transition15</title>
<path fill="none" stroke="black" d="M103,-254.939C103,-244.385 103,-231.534 103,-224.412"/>
<polygon fill="none" stroke="black" points="104.75,-224.059 103,-219.059 101.25,-224.059 104.75,-224.059"/>
</g>
<!-- transition14&#45;&gt;p14 -->
<g id="edge32" class="edge"><title>transition14&#45;&gt;p14</title>
<path fill="none" stroke="black" d="M103,-326.848C103,-325.368 103,-313.319 103,-301.1"/>
<polygon fill="black" stroke="black" points="106.5,-301.025 103,-291.025 99.5001,-301.025 106.5,-301.025"/>
</g>
<!-- p15 -->
<g id="node33" class="node"><title>p15</title>
<ellipse fill="none" stroke="black" cx="103" cy="-164" rx="18" ry="18"/>
<text text-anchor="middle" x="103" y="-160.3" font-family="Times,serif" font-size="14.00">p15</text>
</g>
<!-- transition16 -->
<g id="node36" class="node"><title>transition16</title>
<polygon fill="none" stroke="black" points="121,-110 85,-110 85,-109 121,-109 121,-110"/>
<text text-anchor="middle" x="45" y="-113.8" font-family="Times,serif" font-size="14.00">rin+fain&#45;dsel*</text>
</g>
<!-- p15&#45;&gt;transition16 -->
<g id="edge35" class="edge"><title>p15&#45;&gt;transition16</title>
<path fill="none" stroke="black" d="M103,-145.939C103,-135.385 103,-122.534 103,-115.412"/>
<polygon fill="none" stroke="black" points="104.75,-115.059 103,-110.059 101.25,-115.059 104.75,-115.059"/>
</g>
<!-- transition15&#45;&gt;p15 -->
<g id="edge34" class="edge"><title>transition15&#45;&gt;p15</title>
<path fill="none" stroke="black" d="M103,-217.848C103,-216.368 103,-204.319 103,-192.1"/>
<polygon fill="black" stroke="black" points="106.5,-192.025 103,-182.025 99.5001,-192.025 106.5,-192.025"/>
</g>
<!-- p16 -->
<g id="node35" class="node"><title>p16</title>
<ellipse fill="none" stroke="black" cx="103" cy="-55" rx="18" ry="18"/>
<text text-anchor="middle" x="103" y="-51.3" font-family="Times,serif" font-size="14.00">p16</text>
</g>
<!-- transition17 -->
<g id="node37" class="node"><title>transition17</title>
<polygon fill="none" stroke="black" points="98,-1 62,-1 62,-0 98,-0 98,-1"/>
<text text-anchor="middle" x="45.5" y="-4.8" font-family="Times,serif" font-size="14.00">aout+</text>
</g>
<!-- p16&#45;&gt;transition17 -->
<g id="edge37" class="edge"><title>p16&#45;&gt;transition17</title>
<path fill="none" stroke="black" d="M96.0992,-38.0983C91.2795,-26.9918 85.1693,-12.9118 82.0441,-5.7104"/>
<polygon fill="none" stroke="black" points="83.6228,-4.95216 80.027,-1.06211 80.4121,-6.34553 83.6228,-4.95216"/>
</g>
<!-- transition16&#45;&gt;p16 -->
<g id="edge36" class="edge"><title>transition16&#45;&gt;p16</title>
<path fill="none" stroke="black" d="M103,-108.848C103,-107.368 103,-95.3194 103,-83.1004"/>
<polygon fill="black" stroke="black" points="106.5,-83.0247 103,-73.0247 99.5001,-83.0248 106.5,-83.0247"/>
</g>
<!-- transition17&#45;&gt;p7 -->
<g id="edge38" class="edge"><title>transition17&#45;&gt;p7</title>
<path fill="none" stroke="black" d="M79.9833,-1.04289C79.2869,-2.83896 57,-60.6904 57,-109 57,-928 57,-928 57,-928 57,-968.448 94.976,-1001.93 121.034,-1020.14"/>
<polygon fill="black" stroke="black" points="119.417,-1023.27 129.672,-1025.93 123.315,-1017.46 119.417,-1023.27"/>
</g>
<!-- p19 -->
<g id="node38" class="node"><title>p19</title>
<ellipse fill="none" stroke="black" cx="157" cy="-491" rx="18" ry="18"/>
<text text-anchor="middle" x="157" y="-487.3" font-family="Times,serif" font-size="14.00">p19</text>
</g>
<!-- transition19 -->
<g id="node40" class="node"><title>transition19</title>
<polygon fill="none" stroke="black" points="175,-437 139,-437 139,-436 175,-436 175,-437"/>
<text text-anchor="middle" x="114.5" y="-440.8" font-family="Times,serif" font-size="14.00">aout&#45;sel&#45;</text>
</g>
<!-- p19&#45;&gt;transition19 -->
<g id="edge41" class="edge"><title>p19&#45;&gt;transition19</title>
<path fill="none" stroke="black" d="M157,-472.939C157,-462.385 157,-449.534 157,-442.412"/>
<polygon fill="none" stroke="black" points="158.75,-442.059 157,-437.059 155.25,-442.059 158.75,-442.059"/>
</g>
<!-- transition18&#45;&gt;p19 -->
<g id="edge40" class="edge"><title>transition18&#45;&gt;p19</title>
<path fill="none" stroke="black" d="M157,-544.848C157,-543.368 157,-531.319 157,-519.1"/>
<polygon fill="black" stroke="black" points="160.5,-519.025 157,-509.025 153.5,-519.025 160.5,-519.025"/>
</g>
<!-- transition19&#45;&gt;p17 -->
<g id="edge42" class="edge"><title>transition19&#45;&gt;p17</title>
<path fill="none" stroke="black" d="M157.12,-435.848C158.459,-434.159 170.712,-418.697 181.62,-404.931"/>
<polygon fill="black" stroke="black" points="184.662,-406.729 188.129,-396.718 179.175,-402.381 184.662,-406.729"/>
</g>
</g>
</svg>
