<?xml version="1.0" encoding="UTF-8" standalone="no"?>
<!DOCTYPE svg PUBLIC "-//W3C//DTD SVG 1.1//EN"
 "http://www.w3.org/Graphics/SVG/1.1/DTD/svg11.dtd">
<!-- Generated by graphviz version 2.38.0 (20140413.2041)
 -->
<!-- Title: %3 Pages: 1 -->
<svg width="396pt" height="1716pt"
 viewBox="0.00 0.00 396.00 1716.00" xmlns="http://www.w3.org/2000/svg" xmlns:xlink="http://www.w3.org/1999/xlink">
<g id="graph0" class="graph" transform="scale(1 1) rotate(0) translate(4 1712)">
<title>%3</title>
<polygon fill="white" stroke="none" points="-4,4 -4,-1712 392,-1712 392,4 -4,4"/>
<!-- p1 -->
<g id="node1" class="node"><title>p1</title>
<ellipse fill="none" stroke="black" cx="105" cy="-1690" rx="18" ry="18"/>
<text text-anchor="middle" x="105" y="-1686.3" font-family="Times,serif" font-size="14.00">p1</text>
</g>
<!-- transition0 -->
<g id="node3" class="node"><title>transition0</title>
<polygon fill="none" stroke="black" points="146,-1636 110,-1636 110,-1635 146,-1635 146,-1636"/>
<text text-anchor="middle" x="69" y="-1639.8" font-family="Times,serif" font-size="14.00">startdmasend+</text>
</g>
<!-- p1&#45;&gt;transition0 -->
<g id="edge1" class="edge"><title>p1&#45;&gt;transition0</title>
<path fill="none" stroke="black" d="M111.901,-1673.1C116.721,-1661.99 122.831,-1647.91 125.956,-1640.71"/>
<polygon fill="none" stroke="black" points="127.588,-1641.35 127.973,-1636.06 124.377,-1639.95 127.588,-1641.35"/>
</g>
<!-- p2 -->
<g id="node2" class="node"><title>p2</title>
<ellipse fill="none" stroke="black" cx="128" cy="-1581" rx="18" ry="18"/>
<text text-anchor="middle" x="128" y="-1577.3" font-family="Times,serif" font-size="14.00">p2</text>
</g>
<!-- transition1 -->
<g id="node5" class="node"><title>transition1</title>
<polygon fill="none" stroke="black" points="146,-1527 110,-1527 110,-1526 146,-1526 146,-1527"/>
<text text-anchor="middle" x="78" y="-1530.8" font-family="Times,serif" font-size="14.00">enddmaint&#45;</text>
</g>
<!-- p2&#45;&gt;transition1 -->
<g id="edge3" class="edge"><title>p2&#45;&gt;transition1</title>
<path fill="none" stroke="black" d="M128,-1562.94C128,-1552.39 128,-1539.53 128,-1532.41"/>
<polygon fill="none" stroke="black" points="129.75,-1532.06 128,-1527.06 126.25,-1532.06 129.75,-1532.06"/>
</g>
<!-- transition0&#45;&gt;p2 -->
<g id="edge2" class="edge"><title>transition0&#45;&gt;p2</title>
<path fill="none" stroke="black" d="M128,-1634.85C128,-1633.37 128,-1621.32 128,-1609.1"/>
<polygon fill="black" stroke="black" points="131.5,-1609.02 128,-1599.02 124.5,-1609.02 131.5,-1609.02"/>
</g>
<!-- p9 -->
<g id="node4" class="node"><title>p9</title>
<ellipse fill="none" stroke="black" cx="128" cy="-1472" rx="18" ry="18"/>
<text text-anchor="middle" x="128" y="-1468.3" font-family="Times,serif" font-size="14.00">p9</text>
</g>
<!-- transition2 -->
<g id="node7" class="node"><title>transition2</title>
<polygon fill="none" stroke="black" points="146,-1418 110,-1418 110,-1417 146,-1417 146,-1418"/>
<text text-anchor="middle" x="70.5" y="-1421.8" font-family="Times,serif" font-size="14.00">startdmasend&#45;</text>
</g>
<!-- p9&#45;&gt;transition2 -->
<g id="edge5" class="edge"><title>p9&#45;&gt;transition2</title>
<path fill="none" stroke="black" d="M128,-1453.94C128,-1443.39 128,-1430.53 128,-1423.41"/>
<polygon fill="none" stroke="black" points="129.75,-1423.06 128,-1418.06 126.25,-1423.06 129.75,-1423.06"/>
</g>
<!-- transition1&#45;&gt;p9 -->
<g id="edge4" class="edge"><title>transition1&#45;&gt;p9</title>
<path fill="none" stroke="black" d="M128,-1525.85C128,-1524.37 128,-1512.32 128,-1500.1"/>
<polygon fill="black" stroke="black" points="131.5,-1500.02 128,-1490.02 124.5,-1500.02 131.5,-1500.02"/>
</g>
<!-- p10 -->
<g id="node6" class="node"><title>p10</title>
<ellipse fill="none" stroke="black" cx="128" cy="-1363" rx="18" ry="18"/>
<text text-anchor="middle" x="128" y="-1359.3" font-family="Times,serif" font-size="14.00">p10</text>
</g>
<!-- transition3 -->
<g id="node9" class="node"><title>transition3</title>
<polygon fill="none" stroke="black" points="147,-1309 111,-1309 111,-1308 147,-1308 147,-1309"/>
<text text-anchor="middle" x="94.5" y="-1312.8" font-family="Times,serif" font-size="14.00">dreq+</text>
</g>
<!-- p10&#45;&gt;transition3 -->
<g id="edge7" class="edge"><title>p10&#45;&gt;transition3</title>
<path fill="none" stroke="black" d="M128.322,-1344.94C128.521,-1334.39 128.764,-1321.53 128.898,-1314.41"/>
<polygon fill="none" stroke="black" points="130.654,-1314.09 128.999,-1309.06 127.155,-1314.03 130.654,-1314.09"/>
</g>
<!-- transition2&#45;&gt;p10 -->
<g id="edge6" class="edge"><title>transition2&#45;&gt;p10</title>
<path fill="none" stroke="black" d="M128,-1416.85C128,-1415.37 128,-1403.32 128,-1391.1"/>
<polygon fill="black" stroke="black" points="131.5,-1391.02 128,-1381.02 124.5,-1391.02 131.5,-1391.02"/>
</g>
<!-- p11 -->
<g id="node8" class="node"><title>p11</title>
<ellipse fill="none" stroke="black" cx="132" cy="-1254" rx="18" ry="18"/>
<text text-anchor="middle" x="132" y="-1250.3" font-family="Times,serif" font-size="14.00">p11</text>
</g>
<!-- transition4 -->
<g id="node11" class="node"><title>transition4</title>
<polygon fill="none" stroke="black" points="152,-1200 116,-1200 116,-1199 152,-1199 152,-1200"/>
<text text-anchor="middle" x="98.5" y="-1203.8" font-family="Times,serif" font-size="14.00">dack+</text>
</g>
<!-- p11&#45;&gt;transition4 -->
<g id="edge9" class="edge"><title>p11&#45;&gt;transition4</title>
<path fill="none" stroke="black" d="M132.644,-1235.94C133.042,-1225.39 133.527,-1212.53 133.796,-1205.41"/>
<polygon fill="none" stroke="black" points="135.558,-1205.12 133.998,-1200.06 132.06,-1204.99 135.558,-1205.12"/>
</g>
<!-- transition3&#45;&gt;p11 -->
<g id="edge8" class="edge"><title>transition3&#45;&gt;p11</title>
<path fill="none" stroke="black" d="M129.009,-1307.85C129.092,-1306.37 129.774,-1294.32 130.466,-1282.1"/>
<polygon fill="black" stroke="black" points="133.966,-1282.21 131.036,-1272.02 126.977,-1281.81 133.966,-1282.21"/>
</g>
<!-- p12 -->
<g id="node10" class="node"><title>p12</title>
<ellipse fill="none" stroke="black" cx="145" cy="-1145" rx="18" ry="18"/>
<text text-anchor="middle" x="145" y="-1141.3" font-family="Times,serif" font-size="14.00">p12</text>
</g>
<!-- transition5 -->
<g id="node13" class="node"><title>transition5</title>
<polygon fill="none" stroke="black" points="169,-1091 133,-1091 133,-1090 169,-1090 169,-1091"/>
<text text-anchor="middle" x="113.5" y="-1094.8" font-family="Times,serif" font-size="14.00">ready+</text>
</g>
<!-- p12&#45;&gt;transition5 -->
<g id="edge11" class="edge"><title>p12&#45;&gt;transition5</title>
<path fill="none" stroke="black" d="M146.931,-1126.94C148.126,-1116.39 149.581,-1103.53 150.387,-1096.41"/>
<polygon fill="none" stroke="black" points="152.17,-1096.22 150.993,-1091.06 148.692,-1095.83 152.17,-1096.22"/>
</g>
<!-- transition4&#45;&gt;p12 -->
<g id="edge10" class="edge"><title>transition4&#45;&gt;p12</title>
<path fill="none" stroke="black" d="M134.032,-1198.85C134.341,-1197.36 136.872,-1185.16 139.424,-1172.87"/>
<polygon fill="black" stroke="black" points="142.92,-1173.24 141.525,-1162.74 136.066,-1171.82 142.92,-1173.24"/>
</g>
<!-- p13 -->
<g id="node12" class="node"><title>p13</title>
<ellipse fill="none" stroke="black" cx="208" cy="-1036" rx="18" ry="18"/>
<text text-anchor="middle" x="208" y="-1032.3" font-family="Times,serif" font-size="14.00">p13</text>
</g>
<!-- transition16 -->
<g id="node15" class="node"><title>transition16</title>
<polygon fill="none" stroke="black" points="292,-982 256,-982 256,-981 292,-981 292,-982"/>
<text text-anchor="middle" x="222.5" y="-985.8" font-family="Times,serif" font-size="14.00">[done&#45;]dtc+</text>
</g>
<!-- p13&#45;&gt;transition16 -->
<g id="edge13" class="edge"><title>p13&#45;&gt;transition16</title>
<path fill="none" stroke="black" d="M221.675,-1024.02C236.891,-1011.8 260.571,-992.784 269.964,-985.241"/>
<polygon fill="none" stroke="black" points="271.102,-986.572 273.905,-982.076 268.91,-983.843 271.102,-986.572"/>
</g>
<!-- transition6 -->
<g id="node37" class="node"><title>transition6</title>
<polygon fill="none" stroke="black" points="199,-982 163,-982 163,-981 199,-981 199,-982"/>
<text text-anchor="middle" x="128" y="-985.8" font-family="Times,serif" font-size="14.00">[done+]dtc+</text>
</g>
<!-- p13&#45;&gt;transition6 -->
<g id="edge37" class="edge"><title>p13&#45;&gt;transition6</title>
<path fill="none" stroke="black" d="M200.19,-1019.67C194.517,-1008.53 187.204,-994.177 183.455,-986.818"/>
<polygon fill="none" stroke="black" points="184.861,-985.724 181.032,-982.064 181.743,-987.313 184.861,-985.724"/>
</g>
<!-- transition5&#45;&gt;p13 -->
<g id="edge12" class="edge"><title>transition5&#45;&gt;p13</title>
<path fill="none" stroke="black" d="M151.164,-1089.85C153.11,-1088.04 172.05,-1070.43 187.54,-1056.02"/>
<polygon fill="black" stroke="black" points="190.277,-1058.26 195.217,-1048.89 185.51,-1053.13 190.277,-1058.26"/>
</g>
<!-- p31 -->
<g id="node14" class="node"><title>p31</title>
<ellipse fill="none" stroke="black" cx="274" cy="-927" rx="18" ry="18"/>
<text text-anchor="middle" x="274" y="-923.3" font-family="Times,serif" font-size="14.00">p31</text>
</g>
<!-- transition17 -->
<g id="node17" class="node"><title>transition17</title>
<polygon fill="none" stroke="black" points="292,-873 256,-873 256,-872 292,-872 292,-873"/>
<text text-anchor="middle" x="238" y="-876.8" font-family="Times,serif" font-size="14.00">ready&#45;</text>
</g>
<!-- p31&#45;&gt;transition17 -->
<g id="edge15" class="edge"><title>p31&#45;&gt;transition17</title>
<path fill="none" stroke="black" d="M274,-908.939C274,-898.385 274,-885.534 274,-878.412"/>
<polygon fill="none" stroke="black" points="275.75,-878.059 274,-873.059 272.25,-878.059 275.75,-878.059"/>
</g>
<!-- transition16&#45;&gt;p31 -->
<g id="edge14" class="edge"><title>transition16&#45;&gt;p31</title>
<path fill="none" stroke="black" d="M274,-980.848C274,-979.368 274,-967.319 274,-955.1"/>
<polygon fill="black" stroke="black" points="277.5,-955.025 274,-945.025 270.5,-955.025 277.5,-955.025"/>
</g>
<!-- p15 -->
<g id="node16" class="node"><title>p15</title>
<ellipse fill="none" stroke="black" cx="274" cy="-818" rx="18" ry="18"/>
<text text-anchor="middle" x="274" y="-814.3" font-family="Times,serif" font-size="14.00">p15</text>
</g>
<!-- transition18 -->
<g id="node19" class="node"><title>transition18</title>
<polygon fill="none" stroke="black" points="292,-764 256,-764 256,-763 292,-763 292,-764"/>
<text text-anchor="middle" x="229.5" y="-767.8" font-family="Times,serif" font-size="14.00">dack&#45;dtc&#45;</text>
</g>
<!-- p15&#45;&gt;transition18 -->
<g id="edge17" class="edge"><title>p15&#45;&gt;transition18</title>
<path fill="none" stroke="black" d="M274,-799.939C274,-789.385 274,-776.534 274,-769.412"/>
<polygon fill="none" stroke="black" points="275.75,-769.059 274,-764.059 272.25,-769.059 275.75,-769.059"/>
</g>
<!-- transition17&#45;&gt;p15 -->
<g id="edge16" class="edge"><title>transition17&#45;&gt;p15</title>
<path fill="none" stroke="black" d="M274,-871.848C274,-870.368 274,-858.319 274,-846.1"/>
<polygon fill="black" stroke="black" points="277.5,-846.025 274,-836.025 270.5,-846.025 277.5,-846.025"/>
</g>
<!-- p16 -->
<g id="node18" class="node"><title>p16</title>
<ellipse fill="none" stroke="black" cx="274" cy="-709" rx="18" ry="18"/>
<text text-anchor="middle" x="274" y="-705.3" font-family="Times,serif" font-size="14.00">p16</text>
</g>
<!-- transition19 -->
<g id="node21" class="node"><title>transition19</title>
<polygon fill="none" stroke="black" points="292,-655 256,-655 256,-654 292,-654 292,-655"/>
<text text-anchor="middle" x="234" y="-658.8" font-family="Times,serif" font-size="14.00">reqout+</text>
</g>
<!-- p16&#45;&gt;transition19 -->
<g id="edge19" class="edge"><title>p16&#45;&gt;transition19</title>
<path fill="none" stroke="black" d="M274,-690.939C274,-680.385 274,-667.534 274,-660.412"/>
<polygon fill="none" stroke="black" points="275.75,-660.059 274,-655.059 272.25,-660.059 275.75,-660.059"/>
</g>
<!-- transition18&#45;&gt;p16 -->
<g id="edge18" class="edge"><title>transition18&#45;&gt;p16</title>
<path fill="none" stroke="black" d="M274,-762.848C274,-761.368 274,-749.319 274,-737.1"/>
<polygon fill="black" stroke="black" points="277.5,-737.025 274,-727.025 270.5,-737.025 277.5,-737.025"/>
</g>
<!-- p17 -->
<g id="node20" class="node"><title>p17</title>
<ellipse fill="none" stroke="black" cx="274" cy="-600" rx="18" ry="18"/>
<text text-anchor="middle" x="274" y="-596.3" font-family="Times,serif" font-size="14.00">p17</text>
</g>
<!-- transition20 -->
<g id="node23" class="node"><title>transition20</title>
<polygon fill="none" stroke="black" points="292,-546 256,-546 256,-545 292,-545 292,-546"/>
<text text-anchor="middle" x="220" y="-549.8" font-family="Times,serif" font-size="14.00">dack*ackin+</text>
</g>
<!-- p17&#45;&gt;transition20 -->
<g id="edge21" class="edge"><title>p17&#45;&gt;transition20</title>
<path fill="none" stroke="black" d="M274,-581.939C274,-571.385 274,-558.534 274,-551.412"/>
<polygon fill="none" stroke="black" points="275.75,-551.059 274,-546.059 272.25,-551.059 275.75,-551.059"/>
</g>
<!-- transition19&#45;&gt;p17 -->
<g id="edge20" class="edge"><title>transition19&#45;&gt;p17</title>
<path fill="none" stroke="black" d="M274,-653.848C274,-652.368 274,-640.319 274,-628.1"/>
<polygon fill="black" stroke="black" points="277.5,-628.025 274,-618.025 270.5,-628.025 277.5,-628.025"/>
</g>
<!-- p18 -->
<g id="node22" class="node"><title>p18</title>
<ellipse fill="none" stroke="black" cx="274" cy="-491" rx="18" ry="18"/>
<text text-anchor="middle" x="274" y="-487.3" font-family="Times,serif" font-size="14.00">p18</text>
</g>
<!-- transition21 -->
<g id="node25" class="node"><title>transition21</title>
<polygon fill="none" stroke="black" points="315,-437 279,-437 279,-436 315,-436 315,-437"/>
<text text-anchor="middle" x="258.5" y="-440.8" font-family="Times,serif" font-size="14.00">reqout&#45;</text>
</g>
<!-- p18&#45;&gt;transition21 -->
<g id="edge23" class="edge"><title>p18&#45;&gt;transition21</title>
<path fill="none" stroke="black" d="M280.901,-474.098C285.721,-462.992 291.831,-448.912 294.956,-441.71"/>
<polygon fill="none" stroke="black" points="296.588,-442.346 296.973,-437.062 293.377,-440.952 296.588,-442.346"/>
</g>
<!-- transition20&#45;&gt;p18 -->
<g id="edge22" class="edge"><title>transition20&#45;&gt;p18</title>
<path fill="none" stroke="black" d="M274,-544.848C274,-543.368 274,-531.319 274,-519.1"/>
<polygon fill="black" stroke="black" points="277.5,-519.025 274,-509.025 270.5,-519.025 277.5,-519.025"/>
</g>
<!-- p19 -->
<g id="node24" class="node"><title>p19</title>
<ellipse fill="none" stroke="black" cx="297" cy="-382" rx="18" ry="18"/>
<text text-anchor="middle" x="297" y="-378.3" font-family="Times,serif" font-size="14.00">p19</text>
</g>
<!-- transition22 -->
<g id="node27" class="node"><title>transition22</title>
<polygon fill="none" stroke="black" points="334,-328 298,-328 298,-327 334,-327 334,-328"/>
<text text-anchor="middle" x="237" y="-331.8" font-family="Times,serif" font-size="14.00">[empty+]dack+ackin&#45;</text>
</g>
<!-- p19&#45;&gt;transition22 -->
<g id="edge25" class="edge"><title>p19&#45;&gt;transition22</title>
<path fill="none" stroke="black" d="M302.804,-364.81C306.694,-353.958 311.565,-340.372 314.164,-333.121"/>
<polygon fill="none" stroke="black" points="315.938,-333.359 315.978,-328.061 312.643,-332.177 315.938,-333.359"/>
</g>
<!-- transition24 -->
<g id="node30" class="node"><title>transition24</title>
<polygon fill="none" stroke="black" points="388,-328 352,-328 352,-327 388,-327 388,-328"/>
<text text-anchor="middle" x="293" y="-315.8" font-family="Times,serif" font-size="14.00">[empty&#45;]dack*ackin&#45;</text>
</g>
<!-- p19&#45;&gt;transition24 -->
<g id="edge29" class="edge"><title>p19&#45;&gt;transition24</title>
<path fill="none" stroke="black" d="M311.422,-370.529C328.329,-358.254 355.357,-338.631 365.744,-331.09"/>
<polygon fill="none" stroke="black" points="366.874,-332.432 369.892,-328.078 364.818,-329.6 366.874,-332.432"/>
</g>
<!-- transition21&#45;&gt;p19 -->
<g id="edge24" class="edge"><title>transition21&#45;&gt;p19</title>
<path fill="none" stroke="black" d="M297,-435.848C297,-434.368 297,-422.319 297,-410.1"/>
<polygon fill="black" stroke="black" points="300.5,-410.025 297,-400.025 293.5,-410.025 300.5,-410.025"/>
</g>
<!-- p20 -->
<g id="node26" class="node"><title>p20</title>
<ellipse fill="none" stroke="black" cx="316" cy="-273" rx="18" ry="18"/>
<text text-anchor="middle" x="316" y="-269.3" font-family="Times,serif" font-size="14.00">p20</text>
</g>
<!-- transition23 -->
<g id="node28" class="node"><title>transition23</title>
<polygon fill="none" stroke="black" points="242,-219 206,-219 206,-218 242,-218 242,-219"/>
<text text-anchor="middle" x="186.5" y="-222.8" font-family="Times,serif" font-size="14.00">ready+</text>
</g>
<!-- p20&#45;&gt;transition23 -->
<g id="edge27" class="edge"><title>p20&#45;&gt;transition23</title>
<path fill="none" stroke="black" d="M300.808,-263.248C279.449,-250.944 241.691,-229.191 228.612,-221.657"/>
<polygon fill="none" stroke="black" points="229.352,-220.064 224.146,-219.084 227.605,-223.097 229.352,-220.064"/>
</g>
<!-- transition22&#45;&gt;p20 -->
<g id="edge26" class="edge"><title>transition22&#45;&gt;p20</title>
<path fill="none" stroke="black" d="M316,-326.848C316,-325.368 316,-313.319 316,-301.1"/>
<polygon fill="black" stroke="black" points="319.5,-301.025 316,-291.025 312.5,-301.025 319.5,-301.025"/>
</g>
<!-- transition23&#45;&gt;p13 -->
<g id="edge28" class="edge"><title>transition23&#45;&gt;p13</title>
<path fill="none" stroke="black" d="M224.003,-219.044C224.124,-220.871 228,-279.718 228,-327 228,-928 228,-928 228,-928 228,-955.934 221.332,-987.282 215.697,-1008.79"/>
<polygon fill="black" stroke="black" points="212.303,-1007.93 213.047,-1018.5 219.056,-1009.77 212.303,-1007.93"/>
</g>
<!-- p29 -->
<g id="node29" class="node"><title>p29</title>
<ellipse fill="none" stroke="black" cx="370" cy="-273" rx="18" ry="18"/>
<text text-anchor="middle" x="370" y="-269.3" font-family="Times,serif" font-size="14.00">p29</text>
</g>
<!-- transition25 -->
<g id="node32" class="node"><title>transition25</title>
<polygon fill="none" stroke="black" points="384,-219 348,-219 348,-218 384,-218 384,-219"/>
<text text-anchor="middle" x="326" y="-222.8" font-family="Times,serif" font-size="14.00">reqout+</text>
</g>
<!-- p29&#45;&gt;transition25 -->
<g id="edge31" class="edge"><title>p29&#45;&gt;transition25</title>
<path fill="none" stroke="black" d="M368.712,-254.939C367.916,-244.385 366.946,-231.534 366.408,-224.412"/>
<polygon fill="none" stroke="black" points="368.126,-223.913 366.004,-219.059 364.636,-224.177 368.126,-223.913"/>
</g>
<!-- transition24&#45;&gt;p29 -->
<g id="edge30" class="edge"><title>transition24&#45;&gt;p29</title>
<path fill="none" stroke="black" d="M370,-326.848C370,-325.368 370,-313.319 370,-301.1"/>
<polygon fill="black" stroke="black" points="373.5,-301.025 370,-291.025 366.5,-301.025 373.5,-301.025"/>
</g>
<!-- p21 -->
<g id="node31" class="node"><title>p21</title>
<ellipse fill="none" stroke="black" cx="339" cy="-164" rx="18" ry="18"/>
<text text-anchor="middle" x="339" y="-160.3" font-family="Times,serif" font-size="14.00">p21</text>
</g>
<!-- transition26 -->
<g id="node34" class="node"><title>transition26</title>
<polygon fill="none" stroke="black" points="344,-110 308,-110 308,-109 344,-109 344,-110"/>
<text text-anchor="middle" x="272" y="-113.8" font-family="Times,serif" font-size="14.00">dack*ackin+</text>
</g>
<!-- p21&#45;&gt;transition26 -->
<g id="edge33" class="edge"><title>p21&#45;&gt;transition26</title>
<path fill="none" stroke="black" d="M334.887,-146.23C332.235,-135.419 328.967,-122.098 327.227,-115.004"/>
<polygon fill="none" stroke="black" points="328.905,-114.499 326.015,-110.06 325.506,-115.333 328.905,-114.499"/>
</g>
<!-- transition25&#45;&gt;p21 -->
<g id="edge32" class="edge"><title>transition25&#45;&gt;p21</title>
<path fill="none" stroke="black" d="M365.923,-217.848C365.116,-216.265 358.15,-202.591 351.506,-189.55"/>
<polygon fill="black" stroke="black" points="354.477,-187.669 346.819,-180.348 348.239,-190.847 354.477,-187.669"/>
</g>
<!-- p22 -->
<g id="node33" class="node"><title>p22</title>
<ellipse fill="none" stroke="black" cx="319" cy="-55" rx="18" ry="18"/>
<text text-anchor="middle" x="319" y="-51.3" font-family="Times,serif" font-size="14.00">p22</text>
</g>
<!-- transition27 -->
<g id="node35" class="node"><title>transition27</title>
<polygon fill="none" stroke="black" points="312,-1 276,-1 276,-0 312,-0 312,-1"/>
<text text-anchor="middle" x="255.5" y="-4.8" font-family="Times,serif" font-size="14.00">reqout&#45;</text>
</g>
<!-- p22&#45;&gt;transition27 -->
<g id="edge35" class="edge"><title>p22&#45;&gt;transition27</title>
<path fill="none" stroke="black" d="M311.634,-38.3849C306.388,-27.2627 299.681,-13.0442 296.247,-5.76429"/>
<polygon fill="none" stroke="black" points="297.746,-4.83844 294.03,-1.06287 294.58,-6.33164 297.746,-4.83844"/>
</g>
<!-- transition26&#45;&gt;p22 -->
<g id="edge34" class="edge"><title>transition26&#45;&gt;p22</title>
<path fill="none" stroke="black" d="M325.98,-108.848C325.784,-107.368 324.193,-95.3194 322.579,-83.1004"/>
<polygon fill="black" stroke="black" points="326.028,-82.4803 321.249,-73.0247 319.088,-83.397 326.028,-82.4803"/>
</g>
<!-- transition27&#45;&gt;p19 -->
<g id="edge36" class="edge"><title>transition27&#45;&gt;p19</title>
<path fill="none" stroke="black" d="M293.983,-1.04283C293.256,-2.83605 270,-60.5974 270,-109 270,-274 270,-274 270,-274 270,-302.484 279.106,-333.971 286.742,-355.367"/>
<polygon fill="black" stroke="black" points="283.559,-356.85 290.326,-365.003 290.12,-354.41 283.559,-356.85"/>
</g>
<!-- p14 -->
<g id="node36" class="node"><title>p14</title>
<ellipse fill="none" stroke="black" cx="177" cy="-927" rx="18" ry="18"/>
<text text-anchor="middle" x="177" y="-923.3" font-family="Times,serif" font-size="14.00">p14</text>
</g>
<!-- transition7 -->
<g id="node39" class="node"><title>transition7</title>
<polygon fill="none" stroke="black" points="193,-873 157,-873 157,-872 193,-872 193,-873"/>
<text text-anchor="middle" x="124" y="-876.8" font-family="Times,serif" font-size="14.00">ready&#45;dreq&#45;</text>
</g>
<!-- p14&#45;&gt;transition7 -->
<g id="edge39" class="edge"><title>p14&#45;&gt;transition7</title>
<path fill="none" stroke="black" d="M176.356,-908.939C175.958,-898.385 175.473,-885.534 175.204,-878.412"/>
<polygon fill="none" stroke="black" points="176.94,-877.99 175.002,-873.059 173.442,-878.122 176.94,-877.99"/>
</g>
<!-- transition6&#45;&gt;p14 -->
<g id="edge38" class="edge"><title>transition6&#45;&gt;p14</title>
<path fill="none" stroke="black" d="M180.989,-980.848C180.877,-979.368 179.967,-967.319 179.045,-955.1"/>
<polygon fill="black" stroke="black" points="182.528,-954.733 178.285,-945.025 175.547,-955.26 182.528,-954.733"/>
</g>
<!-- p23 -->
<g id="node38" class="node"><title>p23</title>
<ellipse fill="none" stroke="black" cx="174" cy="-818" rx="18" ry="18"/>
<text text-anchor="middle" x="174" y="-814.3" font-family="Times,serif" font-size="14.00">p23</text>
</g>
<!-- transition8 -->
<g id="node41" class="node"><title>transition8</title>
<polygon fill="none" stroke="black" points="192,-764 156,-764 156,-763 192,-763 192,-764"/>
<text text-anchor="middle" x="129.5" y="-767.8" font-family="Times,serif" font-size="14.00">dack&#45;dtc&#45;</text>
</g>
<!-- p23&#45;&gt;transition8 -->
<g id="edge41" class="edge"><title>p23&#45;&gt;transition8</title>
<path fill="none" stroke="black" d="M174,-799.939C174,-789.385 174,-776.534 174,-769.412"/>
<polygon fill="none" stroke="black" points="175.75,-769.059 174,-764.059 172.25,-769.059 175.75,-769.059"/>
</g>
<!-- transition7&#45;&gt;p23 -->
<g id="edge40" class="edge"><title>transition7&#45;&gt;p23</title>
<path fill="none" stroke="black" d="M174.997,-871.848C174.969,-870.368 174.742,-858.319 174.511,-846.1"/>
<polygon fill="black" stroke="black" points="178.009,-845.957 174.321,-836.025 171.011,-846.089 178.009,-845.957"/>
</g>
<!-- p24 -->
<g id="node40" class="node"><title>p24</title>
<ellipse fill="none" stroke="black" cx="174" cy="-709" rx="18" ry="18"/>
<text text-anchor="middle" x="174" y="-705.3" font-family="Times,serif" font-size="14.00">p24</text>
</g>
<!-- transition9 -->
<g id="node43" class="node"><title>transition9</title>
<polygon fill="none" stroke="black" points="192,-655 156,-655 156,-654 192,-654 192,-655"/>
<text text-anchor="middle" x="134" y="-658.8" font-family="Times,serif" font-size="14.00">reqout+</text>
</g>
<!-- p24&#45;&gt;transition9 -->
<g id="edge43" class="edge"><title>p24&#45;&gt;transition9</title>
<path fill="none" stroke="black" d="M174,-690.939C174,-680.385 174,-667.534 174,-660.412"/>
<polygon fill="none" stroke="black" points="175.75,-660.059 174,-655.059 172.25,-660.059 175.75,-660.059"/>
</g>
<!-- transition8&#45;&gt;p24 -->
<g id="edge42" class="edge"><title>transition8&#45;&gt;p24</title>
<path fill="none" stroke="black" d="M174,-762.848C174,-761.368 174,-749.319 174,-737.1"/>
<polygon fill="black" stroke="black" points="177.5,-737.025 174,-727.025 170.5,-737.025 177.5,-737.025"/>
</g>
<!-- p25 -->
<g id="node42" class="node"><title>p25</title>
<ellipse fill="none" stroke="black" cx="174" cy="-600" rx="18" ry="18"/>
<text text-anchor="middle" x="174" y="-596.3" font-family="Times,serif" font-size="14.00">p25</text>
</g>
<!-- transition10 -->
<g id="node45" class="node"><title>transition10</title>
<polygon fill="none" stroke="black" points="192,-546 156,-546 156,-545 192,-545 192,-546"/>
<text text-anchor="middle" x="136.5" y="-549.8" font-family="Times,serif" font-size="14.00">ackin+</text>
</g>
<!-- p25&#45;&gt;transition10 -->
<g id="edge45" class="edge"><title>p25&#45;&gt;transition10</title>
<path fill="none" stroke="black" d="M174,-581.939C174,-571.385 174,-558.534 174,-551.412"/>
<polygon fill="none" stroke="black" points="175.75,-551.059 174,-546.059 172.25,-551.059 175.75,-551.059"/>
</g>
<!-- transition9&#45;&gt;p25 -->
<g id="edge44" class="edge"><title>transition9&#45;&gt;p25</title>
<path fill="none" stroke="black" d="M174,-653.848C174,-652.368 174,-640.319 174,-628.1"/>
<polygon fill="black" stroke="black" points="177.5,-628.025 174,-618.025 170.5,-628.025 177.5,-628.025"/>
</g>
<!-- p26 -->
<g id="node44" class="node"><title>p26</title>
<ellipse fill="none" stroke="black" cx="174" cy="-491" rx="18" ry="18"/>
<text text-anchor="middle" x="174" y="-487.3" font-family="Times,serif" font-size="14.00">p26</text>
</g>
<!-- transition11 -->
<g id="node47" class="node"><title>transition11</title>
<polygon fill="none" stroke="black" points="192,-437 156,-437 156,-436 192,-436 192,-437"/>
<text text-anchor="middle" x="135.5" y="-440.8" font-family="Times,serif" font-size="14.00">reqout&#45;</text>
</g>
<!-- p26&#45;&gt;transition11 -->
<g id="edge47" class="edge"><title>p26&#45;&gt;transition11</title>
<path fill="none" stroke="black" d="M174,-472.939C174,-462.385 174,-449.534 174,-442.412"/>
<polygon fill="none" stroke="black" points="175.75,-442.059 174,-437.059 172.25,-442.059 175.75,-442.059"/>
</g>
<!-- transition10&#45;&gt;p26 -->
<g id="edge46" class="edge"><title>transition10&#45;&gt;p26</title>
<path fill="none" stroke="black" d="M174,-544.848C174,-543.368 174,-531.319 174,-519.1"/>
<polygon fill="black" stroke="black" points="177.5,-519.025 174,-509.025 170.5,-519.025 177.5,-519.025"/>
</g>
<!-- p27 -->
<g id="node46" class="node"><title>p27</title>
<ellipse fill="none" stroke="black" cx="174" cy="-382" rx="18" ry="18"/>
<text text-anchor="middle" x="174" y="-378.3" font-family="Times,serif" font-size="14.00">p27</text>
</g>
<!-- transition14 -->
<g id="node49" class="node"><title>transition14</title>
<polygon fill="none" stroke="black" points="200,-328 164,-328 164,-327 200,-327 200,-328"/>
<text text-anchor="middle" x="120" y="-331.8" font-family="Times,serif" font-size="14.00">[empty+]ackin&#45;</text>
</g>
<!-- p27&#45;&gt;transition14 -->
<g id="edge49" class="edge"><title>p27&#45;&gt;transition14</title>
<path fill="none" stroke="black" d="M176.575,-363.939C178.168,-353.385 180.108,-340.534 181.183,-333.412"/>
<polygon fill="none" stroke="black" points="182.975,-333.264 181.991,-328.059 179.514,-332.742 182.975,-333.264"/>
</g>
<!-- transition12 -->
<g id="node52" class="node"><title>transition12</title>
<polygon fill="none" stroke="black" points="146,-328 110,-328 110,-327 146,-327 146,-328"/>
<text text-anchor="middle" x="68" y="-315.8" font-family="Times,serif" font-size="14.00">[empty&#45;]ackin&#45;</text>
</g>
<!-- p27&#45;&gt;transition12 -->
<g id="edge53" class="edge"><title>p27&#45;&gt;transition12</title>
<path fill="none" stroke="black" d="M162.629,-367.899C152.526,-356.258 138.36,-339.936 131.715,-332.281"/>
<polygon fill="none" stroke="black" points="132.66,-330.699 128.061,-328.07 130.016,-332.993 132.66,-330.699"/>
</g>
<!-- transition11&#45;&gt;p27 -->
<g id="edge48" class="edge"><title>transition11&#45;&gt;p27</title>
<path fill="none" stroke="black" d="M174,-435.848C174,-434.368 174,-422.319 174,-410.1"/>
<polygon fill="black" stroke="black" points="177.5,-410.025 174,-400.025 170.5,-410.025 177.5,-410.025"/>
</g>
<!-- p30 -->
<g id="node48" class="node"><title>p30</title>
<ellipse fill="none" stroke="black" cx="182" cy="-273" rx="18" ry="18"/>
<text text-anchor="middle" x="182" y="-269.3" font-family="Times,serif" font-size="14.00">p30</text>
</g>
<!-- transition15 -->
<g id="node50" class="node"><title>transition15</title>
<polygon fill="none" stroke="black" points="170,-219 134,-219 134,-218 170,-218 170,-219"/>
<text text-anchor="middle" x="100.5" y="-222.8" font-family="Times,serif" font-size="14.00">enddmaint+</text>
</g>
<!-- p30&#45;&gt;transition15 -->
<g id="edge51" class="edge"><title>p30&#45;&gt;transition15</title>
<path fill="none" stroke="black" d="M173.483,-256.954C167.174,-245.807 158.968,-231.311 154.758,-223.873"/>
<polygon fill="none" stroke="black" points="156.022,-222.554 152.036,-219.064 152.977,-224.278 156.022,-222.554"/>
</g>
<!-- transition14&#45;&gt;p30 -->
<g id="edge50" class="edge"><title>transition14&#45;&gt;p30</title>
<path fill="none" stroke="black" d="M182,-326.848C182,-325.368 182,-313.319 182,-301.1"/>
<polygon fill="black" stroke="black" points="185.5,-301.025 182,-291.025 178.5,-301.025 185.5,-301.025"/>
</g>
<!-- transition15&#45;&gt;p1 -->
<g id="edge52" class="edge"><title>transition15&#45;&gt;p1</title>
<path fill="none" stroke="black" d="M151.899,-219.039C149.821,-219.835 116.333,-232.925 101,-255 82.1202,-282.182 82,-293.905 82,-327 82,-1582 82,-1582 82,-1582 82,-1610.25 89.7572,-1641.77 96.2616,-1663.24"/>
<polygon fill="black" stroke="black" points="92.967,-1664.43 99.3146,-1672.92 99.6424,-1662.33 92.967,-1664.43"/>
</g>
<!-- p28 -->
<g id="node51" class="node"><title>p28</title>
<ellipse fill="none" stroke="black" cx="128" cy="-273" rx="18" ry="18"/>
<text text-anchor="middle" x="128" y="-269.3" font-family="Times,serif" font-size="14.00">p28</text>
</g>
<!-- transition13 -->
<g id="node53" class="node"><title>transition13</title>
<polygon fill="none" stroke="black" points="80,-219 44,-219 44,-218 80,-218 80,-219"/>
<text text-anchor="middle" x="22" y="-222.8" font-family="Times,serif" font-size="14.00">reqout+</text>
</g>
<!-- p28&#45;&gt;transition13 -->
<g id="edge55" class="edge"><title>p28&#45;&gt;transition13</title>
<path fill="none" stroke="black" d="M114.325,-261.018C99.1085,-248.799 75.4286,-229.784 66.0358,-222.241"/>
<polygon fill="none" stroke="black" points="67.0896,-220.843 62.0952,-219.076 64.8981,-223.572 67.0896,-220.843"/>
</g>
<!-- transition12&#45;&gt;p28 -->
<g id="edge54" class="edge"><title>transition12&#45;&gt;p28</title>
<path fill="none" stroke="black" d="M128,-326.848C128,-325.368 128,-313.319 128,-301.1"/>
<polygon fill="black" stroke="black" points="131.5,-301.025 128,-291.025 124.5,-301.025 131.5,-301.025"/>
</g>
<!-- transition13&#45;&gt;p25 -->
<g id="edge56" class="edge"><title>transition13&#45;&gt;p25</title>
<path fill="none" stroke="black" d="M62.042,-219.121C63.7983,-224.193 120,-386.865 120,-436 120,-492 120,-492 120,-492 120,-524.591 140.213,-557.354 155.906,-577.88"/>
<polygon fill="black" stroke="black" points="153.317,-580.247 162.283,-585.892 158.794,-575.888 153.317,-580.247"/>
</g>
</g>
</svg>
