<?xml version="1.0" encoding="UTF-8" standalone="no"?>
<!DOCTYPE svg PUBLIC "-//W3C//DTD SVG 1.1//EN"
 "http://www.w3.org/Graphics/SVG/1.1/DTD/svg11.dtd">
<!-- Generated by graphviz version 2.38.0 (20140413.2041)
 -->
<!-- Title: %3 Pages: 1 -->
<svg width="267pt" height="1751pt"
 viewBox="0.00 0.00 267.00 1751.00" xmlns="http://www.w3.org/2000/svg" xmlns:xlink="http://www.w3.org/1999/xlink">
<g id="graph0" class="graph" transform="scale(1 1) rotate(0) translate(4 1747)">
<title>%3</title>
<polygon fill="white" stroke="none" points="-4,4 -4,-1747 263,-1747 263,4 -4,4"/>
<!-- p1 -->
<g id="node1" class="node"><title>p1</title>
<ellipse fill="none" stroke="black" cx="94" cy="-1725" rx="18" ry="18"/>
<text text-anchor="middle" x="94" y="-1721.3" font-family="Times,serif" font-size="14.00">p1</text>
</g>
<!-- transition0 -->
<g id="node3" class="node"><title>transition0</title>
<polygon fill="none" stroke="black" points="135,-1671 99,-1671 99,-1670 135,-1670 135,-1671"/>
<text text-anchor="middle" x="61.5" y="-1674.8" font-family="Times,serif" font-size="14.00">ok+rin*dsel*</text>
</g>
<!-- p1&#45;&gt;transition0 -->
<g id="edge1" class="edge"><title>p1&#45;&gt;transition0</title>
<path fill="none" stroke="black" d="M100.901,-1708.1C105.721,-1696.99 111.831,-1682.91 114.956,-1675.71"/>
<polygon fill="none" stroke="black" points="116.588,-1676.35 116.973,-1671.06 113.377,-1674.95 116.588,-1676.35"/>
</g>
<!-- p2 -->
<g id="node2" class="node"><title>p2</title>
<ellipse fill="none" stroke="black" cx="117" cy="-1616" rx="18" ry="18"/>
<text text-anchor="middle" x="117" y="-1612.3" font-family="Times,serif" font-size="14.00">p2</text>
</g>
<!-- transition1 -->
<g id="node5" class="node"><title>transition1</title>
<polygon fill="none" stroke="black" points="135,-1562 99,-1562 99,-1561 135,-1561 135,-1562"/>
<text text-anchor="middle" x="81" y="-1565.8" font-family="Times,serif" font-size="14.00">frout+</text>
</g>
<!-- p2&#45;&gt;transition1 -->
<g id="edge3" class="edge"><title>p2&#45;&gt;transition1</title>
<path fill="none" stroke="black" d="M117,-1597.94C117,-1587.39 117,-1574.53 117,-1567.41"/>
<polygon fill="none" stroke="black" points="118.75,-1567.06 117,-1562.06 115.25,-1567.06 118.75,-1567.06"/>
</g>
<!-- transition0&#45;&gt;p2 -->
<g id="edge2" class="edge"><title>transition0&#45;&gt;p2</title>
<path fill="none" stroke="black" d="M117,-1669.85C117,-1668.37 117,-1656.32 117,-1644.1"/>
<polygon fill="black" stroke="black" points="120.5,-1644.02 117,-1634.02 113.5,-1644.02 120.5,-1644.02"/>
</g>
<!-- p3 -->
<g id="node4" class="node"><title>p3</title>
<ellipse fill="none" stroke="black" cx="117" cy="-1507" rx="18" ry="18"/>
<text text-anchor="middle" x="117" y="-1503.3" font-family="Times,serif" font-size="14.00">p3</text>
</g>
<!-- transition2 -->
<g id="node7" class="node"><title>transition2</title>
<polygon fill="none" stroke="black" points="135,-1453 99,-1453 99,-1452 135,-1452 135,-1453"/>
<text text-anchor="middle" x="58" y="-1456.8" font-family="Times,serif" font-size="14.00">rin*fain+dsel*</text>
</g>
<!-- p3&#45;&gt;transition2 -->
<g id="edge5" class="edge"><title>p3&#45;&gt;transition2</title>
<path fill="none" stroke="black" d="M117,-1488.94C117,-1478.39 117,-1465.53 117,-1458.41"/>
<polygon fill="none" stroke="black" points="118.75,-1458.06 117,-1453.06 115.25,-1458.06 118.75,-1458.06"/>
</g>
<!-- transition1&#45;&gt;p3 -->
<g id="edge4" class="edge"><title>transition1&#45;&gt;p3</title>
<path fill="none" stroke="black" d="M117,-1560.85C117,-1559.37 117,-1547.32 117,-1535.1"/>
<polygon fill="black" stroke="black" points="120.5,-1535.02 117,-1525.02 113.5,-1535.02 120.5,-1535.02"/>
</g>
<!-- p4 -->
<g id="node6" class="node"><title>p4</title>
<ellipse fill="none" stroke="black" cx="117" cy="-1398" rx="18" ry="18"/>
<text text-anchor="middle" x="117" y="-1394.3" font-family="Times,serif" font-size="14.00">p4</text>
</g>
<!-- transition3 -->
<g id="node9" class="node"><title>transition3</title>
<polygon fill="none" stroke="black" points="136,-1344 100,-1344 100,-1343 136,-1343 136,-1344"/>
<text text-anchor="middle" x="84" y="-1347.8" font-family="Times,serif" font-size="14.00">frout&#45;</text>
</g>
<!-- p4&#45;&gt;transition3 -->
<g id="edge7" class="edge"><title>p4&#45;&gt;transition3</title>
<path fill="none" stroke="black" d="M117.322,-1379.94C117.521,-1369.39 117.764,-1356.53 117.898,-1349.41"/>
<polygon fill="none" stroke="black" points="119.654,-1349.09 117.999,-1344.06 116.155,-1349.03 119.654,-1349.09"/>
</g>
<!-- transition2&#45;&gt;p4 -->
<g id="edge6" class="edge"><title>transition2&#45;&gt;p4</title>
<path fill="none" stroke="black" d="M117,-1451.85C117,-1450.37 117,-1438.32 117,-1426.1"/>
<polygon fill="black" stroke="black" points="120.5,-1426.02 117,-1416.02 113.5,-1426.02 120.5,-1426.02"/>
</g>
<!-- p5 -->
<g id="node8" class="node"><title>p5</title>
<ellipse fill="none" stroke="black" cx="119" cy="-1289" rx="18" ry="18"/>
<text text-anchor="middle" x="119" y="-1285.3" font-family="Times,serif" font-size="14.00">p5</text>
</g>
<!-- transition4 -->
<g id="node11" class="node"><title>transition4</title>
<polygon fill="none" stroke="black" points="138,-1235 102,-1235 102,-1234 138,-1234 138,-1235"/>
<text text-anchor="middle" x="62" y="-1238.8" font-family="Times,serif" font-size="14.00">rin+fain&#45;dsel*</text>
</g>
<!-- p5&#45;&gt;transition4 -->
<g id="edge9" class="edge"><title>p5&#45;&gt;transition4</title>
<path fill="none" stroke="black" d="M119.322,-1270.94C119.521,-1260.39 119.764,-1247.53 119.898,-1240.41"/>
<polygon fill="none" stroke="black" points="121.654,-1240.09 119.999,-1235.06 118.155,-1240.03 121.654,-1240.09"/>
</g>
<!-- transition3&#45;&gt;p5 -->
<g id="edge8" class="edge"><title>transition3&#45;&gt;p5</title>
<path fill="none" stroke="black" d="M118.003,-1342.85C118.031,-1341.37 118.258,-1329.32 118.489,-1317.1"/>
<polygon fill="black" stroke="black" points="121.989,-1317.09 118.679,-1307.02 114.991,-1316.96 121.989,-1317.09"/>
</g>
<!-- p6 -->
<g id="node10" class="node"><title>p6</title>
<ellipse fill="none" stroke="black" cx="126" cy="-1180" rx="18" ry="18"/>
<text text-anchor="middle" x="126" y="-1176.3" font-family="Times,serif" font-size="14.00">p6</text>
</g>
<!-- transition5 -->
<g id="node13" class="node"><title>transition5</title>
<polygon fill="none" stroke="black" points="147,-1126 111,-1126 111,-1125 147,-1125 147,-1126"/>
<text text-anchor="middle" x="94.5" y="-1129.8" font-family="Times,serif" font-size="14.00">aout+</text>
</g>
<!-- p6&#45;&gt;transition5 -->
<g id="edge11" class="edge"><title>p6&#45;&gt;transition5</title>
<path fill="none" stroke="black" d="M126.966,-1161.94C127.563,-1151.39 128.291,-1138.53 128.694,-1131.41"/>
<polygon fill="none" stroke="black" points="130.461,-1131.15 128.997,-1126.06 126.967,-1130.95 130.461,-1131.15"/>
</g>
<!-- transition4&#45;&gt;p6 -->
<g id="edge10" class="edge"><title>transition4&#45;&gt;p6</title>
<path fill="none" stroke="black" d="M120.017,-1233.85C120.185,-1232.37 121.549,-1220.32 122.932,-1208.1"/>
<polygon fill="black" stroke="black" points="126.425,-1208.36 124.073,-1198.02 119.47,-1207.57 126.425,-1208.36"/>
</g>
<!-- p7 -->
<g id="node12" class="node"><title>p7</title>
<ellipse fill="none" stroke="black" cx="154" cy="-1071" rx="18" ry="18"/>
<text text-anchor="middle" x="154" y="-1067.3" font-family="Times,serif" font-size="14.00">p7</text>
</g>
<!-- transition6 -->
<g id="node15" class="node"><title>transition6</title>
<polygon fill="none" stroke="black" points="185,-1017 149,-1017 149,-1016 185,-1016 185,-1017"/>
<text text-anchor="middle" x="99" y="-1020.8" font-family="Times,serif" font-size="14.00">[cntgt1+]rin&#45;dsel&#45;</text>
</g>
<!-- p7&#45;&gt;transition6 -->
<g id="edge13" class="edge"><title>p7&#45;&gt;transition6</title>
<path fill="none" stroke="black" d="M158.113,-1053.23C160.765,-1042.42 164.033,-1029.1 165.773,-1022"/>
<polygon fill="none" stroke="black" points="167.494,-1022.33 166.985,-1017.06 164.095,-1021.5 167.494,-1022.33"/>
</g>
<!-- transition8 -->
<g id="node39" class="node"><title>transition8</title>
<polygon fill="none" stroke="black" points="135,-962.5 99,-962.5 99,-961.5 135,-961.5 135,-962.5"/>
<text text-anchor="middle" x="49.5" y="-966.3" font-family="Times,serif" font-size="14.00">[cntgt1&#45;]rin&#45;dsel*</text>
</g>
<!-- p7&#45;&gt;transition8 -->
<g id="edge39" class="edge"><title>p7&#45;&gt;transition8</title>
<path fill="none" stroke="black" d="M148.38,-1053.75C139.784,-1028.89 123.82,-982.722 118.657,-967.792"/>
<polygon fill="none" stroke="black" points="120.303,-967.198 117.015,-963.044 116.995,-968.342 120.303,-967.198"/>
</g>
<!-- transition5&#45;&gt;p7 -->
<g id="edge12" class="edge"><title>transition5&#45;&gt;p7</title>
<path fill="none" stroke="black" d="M129.072,-1124.85C129.814,-1123.27 136.189,-1109.76 142.306,-1096.79"/>
<polygon fill="black" stroke="black" points="145.529,-1098.16 146.63,-1087.62 139.198,-1095.18 145.529,-1098.16"/>
</g>
<!-- p8 -->
<g id="node14" class="node"><title>p8</title>
<ellipse fill="none" stroke="black" cx="171" cy="-962" rx="18" ry="18"/>
<text text-anchor="middle" x="171" y="-958.3" font-family="Times,serif" font-size="14.00">p8</text>
</g>
<!-- transition7 -->
<g id="node17" class="node"><title>transition7</title>
<polygon fill="none" stroke="black" points="189,-890.5 153,-890.5 153,-889.5 189,-889.5 189,-890.5"/>
<text text-anchor="middle" x="179.5" y="-894.3" font-family="Times,serif" font-size="14.00">aout&#45;sel+</text>
</g>
<!-- p8&#45;&gt;transition7 -->
<g id="edge15" class="edge"><title>p8&#45;&gt;transition7</title>
<path fill="none" stroke="black" d="M171,-943.697C171,-928.165 171,-906.324 171,-896.348"/>
<polygon fill="none" stroke="black" points="172.75,-896.092 171,-891.092 169.25,-896.092 172.75,-896.092"/>
</g>
<!-- transition6&#45;&gt;p8 -->
<g id="edge14" class="edge"><title>transition6&#45;&gt;p8</title>
<path fill="none" stroke="black" d="M167.011,-1015.85C167.123,-1014.37 168.033,-1002.32 168.955,-990.1"/>
<polygon fill="black" stroke="black" points="172.453,-990.26 169.715,-980.025 165.472,-989.733 172.453,-990.26"/>
</g>
<!-- p9 -->
<g id="node16" class="node"><title>p9</title>
<ellipse fill="none" stroke="black" cx="171" cy="-818" rx="18" ry="18"/>
<text text-anchor="middle" x="171" y="-814.3" font-family="Times,serif" font-size="14.00">p9</text>
</g>
<!-- transition10 -->
<g id="node19" class="node"><title>transition10</title>
<polygon fill="none" stroke="black" points="189,-764 153,-764 153,-763 189,-763 189,-764"/>
<text text-anchor="middle" x="126" y="-767.8" font-family="Times,serif" font-size="14.00">rin+dsel+</text>
</g>
<!-- p9&#45;&gt;transition10 -->
<g id="edge17" class="edge"><title>p9&#45;&gt;transition10</title>
<path fill="none" stroke="black" d="M171,-799.939C171,-789.385 171,-776.534 171,-769.412"/>
<polygon fill="none" stroke="black" points="172.75,-769.059 171,-764.059 169.25,-769.059 172.75,-769.059"/>
</g>
<!-- transition7&#45;&gt;p9 -->
<g id="edge16" class="edge"><title>transition7&#45;&gt;p9</title>
<path fill="none" stroke="black" d="M171,-888.949C171,-887.748 171,-865.429 171,-846.321"/>
<polygon fill="black" stroke="black" points="174.5,-846.191 171,-836.191 167.5,-846.191 174.5,-846.191"/>
</g>
<!-- p10 -->
<g id="node18" class="node"><title>p10</title>
<ellipse fill="none" stroke="black" cx="171" cy="-709" rx="18" ry="18"/>
<text text-anchor="middle" x="171" y="-705.3" font-family="Times,serif" font-size="14.00">p10</text>
</g>
<!-- transition11 -->
<g id="node21" class="node"><title>transition11</title>
<polygon fill="none" stroke="black" points="189,-655 153,-655 153,-654 189,-654 189,-655"/>
<text text-anchor="middle" x="136.5" y="-658.8" font-family="Times,serif" font-size="14.00">aout+</text>
</g>
<!-- p10&#45;&gt;transition11 -->
<g id="edge19" class="edge"><title>p10&#45;&gt;transition11</title>
<path fill="none" stroke="black" d="M171,-690.939C171,-680.385 171,-667.534 171,-660.412"/>
<polygon fill="none" stroke="black" points="172.75,-660.059 171,-655.059 169.25,-660.059 172.75,-660.059"/>
</g>
<!-- transition10&#45;&gt;p10 -->
<g id="edge18" class="edge"><title>transition10&#45;&gt;p10</title>
<path fill="none" stroke="black" d="M171,-762.848C171,-761.368 171,-749.319 171,-737.1"/>
<polygon fill="black" stroke="black" points="174.5,-737.025 171,-727.025 167.5,-737.025 174.5,-737.025"/>
</g>
<!-- p11 -->
<g id="node20" class="node"><title>p11</title>
<ellipse fill="none" stroke="black" cx="171" cy="-600" rx="18" ry="18"/>
<text text-anchor="middle" x="171" y="-596.3" font-family="Times,serif" font-size="14.00">p11</text>
</g>
<!-- transition12 -->
<g id="node23" class="node"><title>transition12</title>
<polygon fill="none" stroke="black" points="231,-546 195,-546 195,-545 231,-545 231,-546"/>
<text text-anchor="middle" x="158.5" y="-549.8" font-family="Times,serif" font-size="14.00">[cntgt1+]rin&#45;</text>
</g>
<!-- p11&#45;&gt;transition12 -->
<g id="edge21" class="edge"><title>p11&#45;&gt;transition12</title>
<path fill="none" stroke="black" d="M181.816,-585.351C191.046,-573.704 203.739,-557.686 209.681,-550.189"/>
<polygon fill="none" stroke="black" points="211.212,-551.074 212.946,-546.068 208.469,-548.9 211.212,-551.074"/>
</g>
<!-- transition18 -->
<g id="node34" class="node"><title>transition18</title>
<polygon fill="none" stroke="black" points="177,-546 141,-546 141,-545 177,-545 177,-546"/>
<text text-anchor="middle" x="91.5" y="-533.8" font-family="Times,serif" font-size="14.00">[cntgt1&#45;]rin&#45;dsel*</text>
</g>
<!-- p11&#45;&gt;transition18 -->
<g id="edge33" class="edge"><title>p11&#45;&gt;transition18</title>
<path fill="none" stroke="black" d="M167.203,-582.23C164.755,-571.419 161.739,-558.098 160.133,-551.004"/>
<polygon fill="none" stroke="black" points="161.825,-550.55 159.014,-546.06 158.411,-551.323 161.825,-550.55"/>
</g>
<!-- transition11&#45;&gt;p11 -->
<g id="edge20" class="edge"><title>transition11&#45;&gt;p11</title>
<path fill="none" stroke="black" d="M171,-653.848C171,-652.368 171,-640.319 171,-628.1"/>
<polygon fill="black" stroke="black" points="174.5,-628.025 171,-618.025 167.5,-628.025 174.5,-628.025"/>
</g>
<!-- p12 -->
<g id="node22" class="node"><title>p12</title>
<ellipse fill="none" stroke="black" cx="213" cy="-491" rx="18" ry="18"/>
<text text-anchor="middle" x="213" y="-487.3" font-family="Times,serif" font-size="14.00">p12</text>
</g>
<!-- transition13 -->
<g id="node25" class="node"><title>transition13</title>
<polygon fill="none" stroke="black" points="231,-437 195,-437 195,-436 231,-436 231,-437"/>
<text text-anchor="middle" x="152.5" y="-440.8" font-family="Times,serif" font-size="14.00">aout&#45;frout+sel&#45;</text>
</g>
<!-- p12&#45;&gt;transition13 -->
<g id="edge23" class="edge"><title>p12&#45;&gt;transition13</title>
<path fill="none" stroke="black" d="M213,-472.939C213,-462.385 213,-449.534 213,-442.412"/>
<polygon fill="none" stroke="black" points="214.75,-442.059 213,-437.059 211.25,-442.059 214.75,-442.059"/>
</g>
<!-- transition12&#45;&gt;p12 -->
<g id="edge22" class="edge"><title>transition12&#45;&gt;p12</title>
<path fill="none" stroke="black" d="M213,-544.848C213,-543.368 213,-531.319 213,-519.1"/>
<polygon fill="black" stroke="black" points="216.5,-519.025 213,-509.025 209.5,-519.025 216.5,-519.025"/>
</g>
<!-- p13 -->
<g id="node24" class="node"><title>p13</title>
<ellipse fill="none" stroke="black" cx="213" cy="-382" rx="18" ry="18"/>
<text text-anchor="middle" x="213" y="-378.3" font-family="Times,serif" font-size="14.00">p13</text>
</g>
<!-- transition14 -->
<g id="node27" class="node"><title>transition14</title>
<polygon fill="none" stroke="black" points="231,-328 195,-328 195,-327 231,-327 231,-328"/>
<text text-anchor="middle" x="154" y="-331.8" font-family="Times,serif" font-size="14.00">rin*fain+dsel*</text>
</g>
<!-- p13&#45;&gt;transition14 -->
<g id="edge25" class="edge"><title>p13&#45;&gt;transition14</title>
<path fill="none" stroke="black" d="M213,-363.939C213,-353.385 213,-340.534 213,-333.412"/>
<polygon fill="none" stroke="black" points="214.75,-333.059 213,-328.059 211.25,-333.059 214.75,-333.059"/>
</g>
<!-- transition13&#45;&gt;p13 -->
<g id="edge24" class="edge"><title>transition13&#45;&gt;p13</title>
<path fill="none" stroke="black" d="M213,-435.848C213,-434.368 213,-422.319 213,-410.1"/>
<polygon fill="black" stroke="black" points="216.5,-410.025 213,-400.025 209.5,-410.025 216.5,-410.025"/>
</g>
<!-- p14 -->
<g id="node26" class="node"><title>p14</title>
<ellipse fill="none" stroke="black" cx="213" cy="-273" rx="18" ry="18"/>
<text text-anchor="middle" x="213" y="-269.3" font-family="Times,serif" font-size="14.00">p14</text>
</g>
<!-- transition15 -->
<g id="node29" class="node"><title>transition15</title>
<polygon fill="none" stroke="black" points="231,-219 195,-219 195,-218 231,-218 231,-219"/>
<text text-anchor="middle" x="179" y="-222.8" font-family="Times,serif" font-size="14.00">frout&#45;</text>
</g>
<!-- p14&#45;&gt;transition15 -->
<g id="edge27" class="edge"><title>p14&#45;&gt;transition15</title>
<path fill="none" stroke="black" d="M213,-254.939C213,-244.385 213,-231.534 213,-224.412"/>
<polygon fill="none" stroke="black" points="214.75,-224.059 213,-219.059 211.25,-224.059 214.75,-224.059"/>
</g>
<!-- transition14&#45;&gt;p14 -->
<g id="edge26" class="edge"><title>transition14&#45;&gt;p14</title>
<path fill="none" stroke="black" d="M213,-326.848C213,-325.368 213,-313.319 213,-301.1"/>
<polygon fill="black" stroke="black" points="216.5,-301.025 213,-291.025 209.5,-301.025 216.5,-301.025"/>
</g>
<!-- p15 -->
<g id="node28" class="node"><title>p15</title>
<ellipse fill="none" stroke="black" cx="213" cy="-164" rx="18" ry="18"/>
<text text-anchor="middle" x="213" y="-160.3" font-family="Times,serif" font-size="14.00">p15</text>
</g>
<!-- transition16 -->
<g id="node31" class="node"><title>transition16</title>
<polygon fill="none" stroke="black" points="231,-110 195,-110 195,-109 231,-109 231,-110"/>
<text text-anchor="middle" x="155" y="-113.8" font-family="Times,serif" font-size="14.00">rin+fain&#45;dsel*</text>
</g>
<!-- p15&#45;&gt;transition16 -->
<g id="edge29" class="edge"><title>p15&#45;&gt;transition16</title>
<path fill="none" stroke="black" d="M213,-145.939C213,-135.385 213,-122.534 213,-115.412"/>
<polygon fill="none" stroke="black" points="214.75,-115.059 213,-110.059 211.25,-115.059 214.75,-115.059"/>
</g>
<!-- transition15&#45;&gt;p15 -->
<g id="edge28" class="edge"><title>transition15&#45;&gt;p15</title>
<path fill="none" stroke="black" d="M213,-217.848C213,-216.368 213,-204.319 213,-192.1"/>
<polygon fill="black" stroke="black" points="216.5,-192.025 213,-182.025 209.5,-192.025 216.5,-192.025"/>
</g>
<!-- p16 -->
<g id="node30" class="node"><title>p16</title>
<ellipse fill="none" stroke="black" cx="213" cy="-55" rx="18" ry="18"/>
<text text-anchor="middle" x="213" y="-51.3" font-family="Times,serif" font-size="14.00">p16</text>
</g>
<!-- transition17 -->
<g id="node32" class="node"><title>transition17</title>
<polygon fill="none" stroke="black" points="254,-1 218,-1 218,-0 254,-0 254,-1"/>
<text text-anchor="middle" x="201.5" y="-4.8" font-family="Times,serif" font-size="14.00">aout+</text>
</g>
<!-- p16&#45;&gt;transition17 -->
<g id="edge31" class="edge"><title>p16&#45;&gt;transition17</title>
<path fill="none" stroke="black" d="M219.901,-38.0983C224.721,-26.9918 230.831,-12.9118 233.956,-5.7104"/>
<polygon fill="none" stroke="black" points="235.588,-6.34553 235.973,-1.06211 232.377,-4.95216 235.588,-6.34553"/>
</g>
<!-- transition16&#45;&gt;p16 -->
<g id="edge30" class="edge"><title>transition16&#45;&gt;p16</title>
<path fill="none" stroke="black" d="M213,-108.848C213,-107.368 213,-95.3194 213,-83.1004"/>
<polygon fill="black" stroke="black" points="216.5,-83.0247 213,-73.0247 209.5,-83.0248 216.5,-83.0247"/>
</g>
<!-- transition17&#45;&gt;p7 -->
<g id="edge32" class="edge"><title>transition17&#45;&gt;p7</title>
<path fill="none" stroke="black" d="M236.017,-1.04289C236.713,-2.83896 259,-60.6904 259,-109 259,-963 259,-963 259,-963 259,-1008.29 210.493,-1041.44 179.418,-1058.04"/>
<polygon fill="black" stroke="black" points="177.713,-1054.98 170.406,-1062.65 180.903,-1061.21 177.713,-1054.98"/>
</g>
<!-- p20 -->
<g id="node33" class="node"><title>p20</title>
<ellipse fill="none" stroke="black" cx="159" cy="-491" rx="18" ry="18"/>
<text text-anchor="middle" x="159" y="-487.3" font-family="Times,serif" font-size="14.00">p20</text>
</g>
<!-- transition19 -->
<g id="node36" class="node"><title>transition19</title>
<polygon fill="none" stroke="black" points="177,-437 141,-437 141,-436 177,-436 177,-437"/>
<text text-anchor="middle" x="116.5" y="-424.8" font-family="Times,serif" font-size="14.00">aout&#45;sel&#45;</text>
</g>
<!-- p20&#45;&gt;transition19 -->
<g id="edge35" class="edge"><title>p20&#45;&gt;transition19</title>
<path fill="none" stroke="black" d="M159,-472.939C159,-462.385 159,-449.534 159,-442.412"/>
<polygon fill="none" stroke="black" points="160.75,-442.059 159,-437.059 157.25,-442.059 160.75,-442.059"/>
</g>
<!-- transition18&#45;&gt;p20 -->
<g id="edge34" class="edge"><title>transition18&#45;&gt;p20</title>
<path fill="none" stroke="black" d="M159,-544.848C159,-543.368 159,-531.319 159,-519.1"/>
<polygon fill="black" stroke="black" points="162.5,-519.025 159,-509.025 155.5,-519.025 162.5,-519.025"/>
</g>
<!-- p17 -->
<g id="node35" class="node"><title>p17</title>
<ellipse fill="none" stroke="black" cx="117" cy="-382" rx="18" ry="18"/>
<text text-anchor="middle" x="117" y="-378.3" font-family="Times,serif" font-size="14.00">p17</text>
</g>
<!-- transition20 -->
<g id="node37" class="node"><title>transition20</title>
<polygon fill="none" stroke="black" points="112,-328 76,-328 76,-327 112,-327 112,-328"/>
<text text-anchor="middle" x="40.5" y="-331.8" font-family="Times,serif" font-size="14.00">ok&#45;rin*dsel*</text>
</g>
<!-- p17&#45;&gt;transition20 -->
<g id="edge37" class="edge"><title>p17&#45;&gt;transition20</title>
<path fill="none" stroke="black" d="M110.099,-365.098C105.279,-353.992 99.1693,-339.912 96.0441,-332.71"/>
<polygon fill="none" stroke="black" points="97.6228,-331.952 94.027,-328.062 94.4121,-333.346 97.6228,-331.952"/>
</g>
<!-- transition19&#45;&gt;p17 -->
<g id="edge36" class="edge"><title>transition19&#45;&gt;p17</title>
<path fill="none" stroke="black" d="M158.88,-435.848C157.541,-434.159 145.288,-418.697 134.38,-404.931"/>
<polygon fill="black" stroke="black" points="136.825,-402.381 127.871,-396.718 131.338,-406.729 136.825,-402.381"/>
</g>
<!-- transition20&#45;&gt;p1 -->
<g id="edge38" class="edge"><title>transition20&#45;&gt;p1</title>
<path fill="none" stroke="black" d="M93.9833,-328.043C93.2869,-329.839 71,-387.69 71,-436 71,-1617 71,-1617 71,-1617 71,-1645.25 78.7572,-1676.77 85.2616,-1698.24"/>
<polygon fill="black" stroke="black" points="81.967,-1699.43 88.3146,-1707.92 88.6424,-1697.33 81.967,-1699.43"/>
</g>
<!-- p19 -->
<g id="node38" class="node"><title>p19</title>
<ellipse fill="none" stroke="black" cx="117" cy="-890" rx="18" ry="18"/>
<text text-anchor="middle" x="117" y="-886.3" font-family="Times,serif" font-size="14.00">p19</text>
</g>
<!-- transition9 -->
<g id="node40" class="node"><title>transition9</title>
<polygon fill="none" stroke="black" points="135,-818.5 99,-818.5 99,-817.5 135,-817.5 135,-818.5"/>
<text text-anchor="middle" x="84.5" y="-822.3" font-family="Times,serif" font-size="14.00">aout&#45;</text>
</g>
<!-- p19&#45;&gt;transition9 -->
<g id="edge41" class="edge"><title>p19&#45;&gt;transition9</title>
<path fill="none" stroke="black" d="M117,-871.697C117,-856.165 117,-834.324 117,-824.348"/>
<polygon fill="none" stroke="black" points="118.75,-824.092 117,-819.092 115.25,-824.092 118.75,-824.092"/>
</g>
<!-- transition8&#45;&gt;p19 -->
<g id="edge40" class="edge"><title>transition8&#45;&gt;p19</title>
<path fill="none" stroke="black" d="M117,-960.949C117,-959.748 117,-937.429 117,-918.321"/>
<polygon fill="black" stroke="black" points="120.5,-918.191 117,-908.191 113.5,-918.191 120.5,-918.191"/>
</g>
<!-- transition9&#45;&gt;p17 -->
<g id="edge42" class="edge"><title>transition9&#45;&gt;p17</title>
<path fill="none" stroke="black" d="M116.997,-816.957C116.876,-815.146 113,-756.845 113,-710 113,-710 113,-710 113,-490 113,-462.807 114.306,-431.753 115.426,-410.13"/>
<polygon fill="black" stroke="black" points="118.926,-410.216 115.97,-400.042 111.936,-409.839 118.926,-410.216"/>
</g>
</g>
</svg>
