<?xml version="1.0" encoding="UTF-8" standalone="no"?>
<!DOCTYPE svg PUBLIC "-//W3C//DTD SVG 1.1//EN"
 "http://www.w3.org/Graphics/SVG/1.1/DTD/svg11.dtd">
<!-- Generated by graphviz version 2.38.0 (20140413.2041)
 -->
<!-- Title: %3 Pages: 1 -->
<svg width="428pt" height="1716pt"
 viewBox="0.00 0.00 428.00 1716.00" xmlns="http://www.w3.org/2000/svg" xmlns:xlink="http://www.w3.org/1999/xlink">
<g id="graph0" class="graph" transform="scale(1 1) rotate(0) translate(4 1712)">
<title>%3</title>
<polygon fill="white" stroke="none" points="-4,4 -4,-1712 424,-1712 424,4 -4,4"/>
<!-- p1 -->
<g id="node1" class="node"><title>p1</title>
<ellipse fill="none" stroke="black" cx="395" cy="-1690" rx="18" ry="18"/>
<text text-anchor="middle" x="395" y="-1686.3" font-family="Times,serif" font-size="14.00">p1</text>
</g>
<!-- transition0 -->
<g id="node3" class="node"><title>transition0</title>
<polygon fill="none" stroke="black" points="388,-1636 352,-1636 352,-1635 388,-1635 388,-1636"/>
<text text-anchor="middle" x="311" y="-1639.8" font-family="Times,serif" font-size="14.00">startdmasend+</text>
</g>
<!-- p1&#45;&gt;transition0 -->
<g id="edge1" class="edge"><title>p1&#45;&gt;transition0</title>
<path fill="none" stroke="black" d="M387.634,-1673.38C382.388,-1662.26 375.681,-1648.04 372.247,-1640.76"/>
<polygon fill="none" stroke="black" points="373.746,-1639.84 370.03,-1636.06 370.58,-1641.33 373.746,-1639.84"/>
</g>
<!-- p2 -->
<g id="node2" class="node"><title>p2</title>
<ellipse fill="none" stroke="black" cx="368" cy="-1581" rx="18" ry="18"/>
<text text-anchor="middle" x="368" y="-1577.3" font-family="Times,serif" font-size="14.00">p2</text>
</g>
<!-- transition1 -->
<g id="node5" class="node"><title>transition1</title>
<polygon fill="none" stroke="black" points="377,-1527 341,-1527 341,-1526 377,-1526 377,-1527"/>
<text text-anchor="middle" x="309" y="-1530.8" font-family="Times,serif" font-size="14.00">enddmaint&#45;</text>
</g>
<!-- p2&#45;&gt;transition1 -->
<g id="edge3" class="edge"><title>p2&#45;&gt;transition1</title>
<path fill="none" stroke="black" d="M365.103,-1562.94C363.311,-1552.39 361.128,-1539.53 359.919,-1532.41"/>
<polygon fill="none" stroke="black" points="361.572,-1531.7 359.01,-1527.06 358.122,-1532.28 361.572,-1531.7"/>
</g>
<!-- transition0&#45;&gt;p2 -->
<g id="edge2" class="edge"><title>transition0&#45;&gt;p2</title>
<path fill="none" stroke="black" d="M369.994,-1634.85C369.938,-1633.37 369.484,-1621.32 369.023,-1609.1"/>
<polygon fill="black" stroke="black" points="372.517,-1608.89 368.642,-1599.02 365.522,-1609.15 372.517,-1608.89"/>
</g>
<!-- p9 -->
<g id="node4" class="node"><title>p9</title>
<ellipse fill="none" stroke="black" cx="358" cy="-1472" rx="18" ry="18"/>
<text text-anchor="middle" x="358" y="-1468.3" font-family="Times,serif" font-size="14.00">p9</text>
</g>
<!-- transition2 -->
<g id="node7" class="node"><title>transition2</title>
<polygon fill="none" stroke="black" points="359,-1418 323,-1418 323,-1417 359,-1417 359,-1418"/>
<text text-anchor="middle" x="283.5" y="-1421.8" font-family="Times,serif" font-size="14.00">startdmasend&#45;</text>
</g>
<!-- p9&#45;&gt;transition2 -->
<g id="edge5" class="edge"><title>p9&#45;&gt;transition2</title>
<path fill="none" stroke="black" d="M352.714,-1454.52C349.24,-1443.69 344.924,-1430.23 342.624,-1423.06"/>
<polygon fill="none" stroke="black" points="344.213,-1422.29 341.019,-1418.06 340.88,-1423.36 344.213,-1422.29"/>
</g>
<!-- transition1&#45;&gt;p9 -->
<g id="edge4" class="edge"><title>transition1&#45;&gt;p9</title>
<path fill="none" stroke="black" d="M358.997,-1525.85C358.969,-1524.37 358.742,-1512.32 358.511,-1500.1"/>
<polygon fill="black" stroke="black" points="362.009,-1499.96 358.321,-1490.02 355.011,-1500.09 362.009,-1499.96"/>
</g>
<!-- p10 -->
<g id="node6" class="node"><title>p10</title>
<ellipse fill="none" stroke="black" cx="340" cy="-1363" rx="18" ry="18"/>
<text text-anchor="middle" x="340" y="-1359.3" font-family="Times,serif" font-size="14.00">p10</text>
</g>
<!-- transition3 -->
<g id="node9" class="node"><title>transition3</title>
<polygon fill="none" stroke="black" points="324,-1309 288,-1309 288,-1308 324,-1308 324,-1309"/>
<text text-anchor="middle" x="271.5" y="-1312.8" font-family="Times,serif" font-size="14.00">dreq+</text>
</g>
<!-- p10&#45;&gt;transition3 -->
<g id="edge7" class="edge"><title>p10&#45;&gt;transition3</title>
<path fill="none" stroke="black" d="M330.709,-1347.52C323.395,-1336.12 313.666,-1320.95 308.891,-1313.51"/>
<polygon fill="none" stroke="black" points="310.215,-1312.33 306.042,-1309.07 307.269,-1314.22 310.215,-1312.33"/>
</g>
<!-- transition2&#45;&gt;p10 -->
<g id="edge6" class="edge"><title>transition2&#45;&gt;p10</title>
<path fill="none" stroke="black" d="M340.997,-1416.85C340.969,-1415.37 340.742,-1403.32 340.511,-1391.1"/>
<polygon fill="black" stroke="black" points="344.009,-1390.96 340.321,-1381.02 337.011,-1391.09 344.009,-1390.96"/>
</g>
<!-- p11 -->
<g id="node8" class="node"><title>p11</title>
<ellipse fill="none" stroke="black" cx="306" cy="-1254" rx="18" ry="18"/>
<text text-anchor="middle" x="306" y="-1250.3" font-family="Times,serif" font-size="14.00">p11</text>
</g>
<!-- transition4 -->
<g id="node11" class="node"><title>transition4</title>
<polygon fill="none" stroke="black" points="255,-1200 219,-1200 219,-1199 255,-1199 255,-1200"/>
<text text-anchor="middle" x="201.5" y="-1203.8" font-family="Times,serif" font-size="14.00">dack+</text>
</g>
<!-- p11&#45;&gt;transition4 -->
<g id="edge9" class="edge"><title>p11&#45;&gt;transition4</title>
<path fill="none" stroke="black" d="M292.037,-1242.27C276.167,-1230.08 251.182,-1210.89 241.263,-1203.27"/>
<polygon fill="none" stroke="black" points="242.132,-1201.74 237.101,-1200.08 240,-1204.51 242.132,-1201.74"/>
</g>
<!-- transition3&#45;&gt;p11 -->
<g id="edge8" class="edge"><title>transition3&#45;&gt;p11</title>
<path fill="none" stroke="black" d="M306,-1307.85C306,-1306.37 306,-1294.32 306,-1282.1"/>
<polygon fill="black" stroke="black" points="309.5,-1282.02 306,-1272.02 302.5,-1282.02 309.5,-1282.02"/>
</g>
<!-- p12 -->
<g id="node10" class="node"><title>p12</title>
<ellipse fill="none" stroke="black" cx="237" cy="-1145" rx="18" ry="18"/>
<text text-anchor="middle" x="237" y="-1141.3" font-family="Times,serif" font-size="14.00">p12</text>
</g>
<!-- transition5 -->
<g id="node13" class="node"><title>transition5</title>
<polygon fill="none" stroke="black" points="254,-1091 218,-1091 218,-1090 254,-1090 254,-1091"/>
<text text-anchor="middle" x="198.5" y="-1094.8" font-family="Times,serif" font-size="14.00">ready+</text>
</g>
<!-- p12&#45;&gt;transition5 -->
<g id="edge11" class="edge"><title>p12&#45;&gt;transition5</title>
<path fill="none" stroke="black" d="M236.678,-1126.94C236.479,-1116.39 236.236,-1103.53 236.102,-1096.41"/>
<polygon fill="none" stroke="black" points="237.845,-1096.03 236.001,-1091.06 234.346,-1096.09 237.845,-1096.03"/>
</g>
<!-- transition4&#45;&gt;p12 -->
<g id="edge10" class="edge"><title>transition4&#45;&gt;p12</title>
<path fill="none" stroke="black" d="M237,-1198.85C237,-1197.37 237,-1185.32 237,-1173.1"/>
<polygon fill="black" stroke="black" points="240.5,-1173.02 237,-1163.02 233.5,-1173.02 240.5,-1173.02"/>
</g>
<!-- p13 -->
<g id="node12" class="node"><title>p13</title>
<ellipse fill="none" stroke="black" cx="236" cy="-1036" rx="18" ry="18"/>
<text text-anchor="middle" x="236" y="-1032.3" font-family="Times,serif" font-size="14.00">p13</text>
</g>
<!-- transition6 -->
<g id="node15" class="node"><title>transition6</title>
<polygon fill="none" stroke="black" points="300,-982 264,-982 264,-981 300,-981 300,-982"/>
<text text-anchor="middle" x="229" y="-985.8" font-family="Times,serif" font-size="14.00">[done+]dtc+</text>
</g>
<!-- p13&#45;&gt;transition6 -->
<g id="edge13" class="edge"><title>p13&#45;&gt;transition6</title>
<path fill="none" stroke="black" d="M247.371,-1021.9C257.474,-1010.26 271.64,-993.936 278.285,-986.281"/>
<polygon fill="none" stroke="black" points="279.984,-986.993 281.939,-982.07 277.34,-984.699 279.984,-986.993"/>
</g>
<!-- transition16 -->
<g id="node33" class="node"><title>transition16</title>
<polygon fill="none" stroke="black" points="195,-982 159,-982 159,-981 195,-981 195,-982"/>
<text text-anchor="middle" x="125.5" y="-985.8" font-family="Times,serif" font-size="14.00">[done&#45;]dtc+</text>
</g>
<!-- p13&#45;&gt;transition16 -->
<g id="edge33" class="edge"><title>p13&#45;&gt;transition16</title>
<path fill="none" stroke="black" d="M222.906,-1023.24C209.488,-1011.18 189.429,-993.165 180.979,-985.574"/>
<polygon fill="none" stroke="black" points="181.971,-984.113 177.082,-982.074 179.633,-986.717 181.971,-984.113"/>
</g>
<!-- transition5&#45;&gt;p13 -->
<g id="edge12" class="edge"><title>transition5&#45;&gt;p13</title>
<path fill="none" stroke="black" d="M236,-1089.85C236,-1088.37 236,-1076.32 236,-1064.1"/>
<polygon fill="black" stroke="black" points="239.5,-1064.02 236,-1054.02 232.5,-1064.02 239.5,-1064.02"/>
</g>
<!-- p14 -->
<g id="node14" class="node"><title>p14</title>
<ellipse fill="none" stroke="black" cx="282" cy="-927" rx="18" ry="18"/>
<text text-anchor="middle" x="282" y="-923.3" font-family="Times,serif" font-size="14.00">p14</text>
</g>
<!-- transition7 -->
<g id="node17" class="node"><title>transition7</title>
<polygon fill="none" stroke="black" points="300,-873 264,-873 264,-872 300,-872 300,-873"/>
<text text-anchor="middle" x="231" y="-876.8" font-family="Times,serif" font-size="14.00">ready&#45;dreq&#45;</text>
</g>
<!-- p14&#45;&gt;transition7 -->
<g id="edge15" class="edge"><title>p14&#45;&gt;transition7</title>
<path fill="none" stroke="black" d="M282,-908.939C282,-898.385 282,-885.534 282,-878.412"/>
<polygon fill="none" stroke="black" points="283.75,-878.059 282,-873.059 280.25,-878.059 283.75,-878.059"/>
</g>
<!-- transition6&#45;&gt;p14 -->
<g id="edge14" class="edge"><title>transition6&#45;&gt;p14</title>
<path fill="none" stroke="black" d="M282,-980.848C282,-979.368 282,-967.319 282,-955.1"/>
<polygon fill="black" stroke="black" points="285.5,-955.025 282,-945.025 278.5,-955.025 285.5,-955.025"/>
</g>
<!-- p23 -->
<g id="node16" class="node"><title>p23</title>
<ellipse fill="none" stroke="black" cx="282" cy="-818" rx="18" ry="18"/>
<text text-anchor="middle" x="282" y="-814.3" font-family="Times,serif" font-size="14.00">p23</text>
</g>
<!-- transition8 -->
<g id="node19" class="node"><title>transition8</title>
<polygon fill="none" stroke="black" points="300,-764 264,-764 264,-763 300,-763 300,-764"/>
<text text-anchor="middle" x="237.5" y="-767.8" font-family="Times,serif" font-size="14.00">dack&#45;dtc&#45;</text>
</g>
<!-- p23&#45;&gt;transition8 -->
<g id="edge17" class="edge"><title>p23&#45;&gt;transition8</title>
<path fill="none" stroke="black" d="M282,-799.939C282,-789.385 282,-776.534 282,-769.412"/>
<polygon fill="none" stroke="black" points="283.75,-769.059 282,-764.059 280.25,-769.059 283.75,-769.059"/>
</g>
<!-- transition7&#45;&gt;p23 -->
<g id="edge16" class="edge"><title>transition7&#45;&gt;p23</title>
<path fill="none" stroke="black" d="M282,-871.848C282,-870.368 282,-858.319 282,-846.1"/>
<polygon fill="black" stroke="black" points="285.5,-846.025 282,-836.025 278.5,-846.025 285.5,-846.025"/>
</g>
<!-- p24 -->
<g id="node18" class="node"><title>p24</title>
<ellipse fill="none" stroke="black" cx="282" cy="-709" rx="18" ry="18"/>
<text text-anchor="middle" x="282" y="-705.3" font-family="Times,serif" font-size="14.00">p24</text>
</g>
<!-- transition9 -->
<g id="node21" class="node"><title>transition9</title>
<polygon fill="none" stroke="black" points="300,-655 264,-655 264,-654 300,-654 300,-655"/>
<text text-anchor="middle" x="242" y="-658.8" font-family="Times,serif" font-size="14.00">reqout+</text>
</g>
<!-- p24&#45;&gt;transition9 -->
<g id="edge19" class="edge"><title>p24&#45;&gt;transition9</title>
<path fill="none" stroke="black" d="M282,-690.939C282,-680.385 282,-667.534 282,-660.412"/>
<polygon fill="none" stroke="black" points="283.75,-660.059 282,-655.059 280.25,-660.059 283.75,-660.059"/>
</g>
<!-- transition8&#45;&gt;p24 -->
<g id="edge18" class="edge"><title>transition8&#45;&gt;p24</title>
<path fill="none" stroke="black" d="M282,-762.848C282,-761.368 282,-749.319 282,-737.1"/>
<polygon fill="black" stroke="black" points="285.5,-737.025 282,-727.025 278.5,-737.025 285.5,-737.025"/>
</g>
<!-- p25 -->
<g id="node20" class="node"><title>p25</title>
<ellipse fill="none" stroke="black" cx="282" cy="-600" rx="18" ry="18"/>
<text text-anchor="middle" x="282" y="-596.3" font-family="Times,serif" font-size="14.00">p25</text>
</g>
<!-- transition10 -->
<g id="node23" class="node"><title>transition10</title>
<polygon fill="none" stroke="black" points="338,-546 302,-546 302,-545 338,-545 338,-546"/>
<text text-anchor="middle" x="282.5" y="-549.8" font-family="Times,serif" font-size="14.00">ackin+</text>
</g>
<!-- p25&#45;&gt;transition10 -->
<g id="edge21" class="edge"><title>p25&#45;&gt;transition10</title>
<path fill="none" stroke="black" d="M292.183,-584.797C300.362,-573.39 311.34,-558.078 316.732,-550.557"/>
<polygon fill="none" stroke="black" points="318.461,-551.15 319.952,-546.067 315.616,-549.111 318.461,-551.15"/>
</g>
<!-- transition9&#45;&gt;p25 -->
<g id="edge20" class="edge"><title>transition9&#45;&gt;p25</title>
<path fill="none" stroke="black" d="M282,-653.848C282,-652.368 282,-640.319 282,-628.1"/>
<polygon fill="black" stroke="black" points="285.5,-628.025 282,-618.025 278.5,-628.025 285.5,-628.025"/>
</g>
<!-- p26 -->
<g id="node22" class="node"><title>p26</title>
<ellipse fill="none" stroke="black" cx="320" cy="-491" rx="18" ry="18"/>
<text text-anchor="middle" x="320" y="-487.3" font-family="Times,serif" font-size="14.00">p26</text>
</g>
<!-- transition11 -->
<g id="node25" class="node"><title>transition11</title>
<polygon fill="none" stroke="black" points="338,-437 302,-437 302,-436 338,-436 338,-437"/>
<text text-anchor="middle" x="281.5" y="-440.8" font-family="Times,serif" font-size="14.00">reqout&#45;</text>
</g>
<!-- p26&#45;&gt;transition11 -->
<g id="edge23" class="edge"><title>p26&#45;&gt;transition11</title>
<path fill="none" stroke="black" d="M320,-472.939C320,-462.385 320,-449.534 320,-442.412"/>
<polygon fill="none" stroke="black" points="321.75,-442.059 320,-437.059 318.25,-442.059 321.75,-442.059"/>
</g>
<!-- transition10&#45;&gt;p26 -->
<g id="edge22" class="edge"><title>transition10&#45;&gt;p26</title>
<path fill="none" stroke="black" d="M320,-544.848C320,-543.368 320,-531.319 320,-519.1"/>
<polygon fill="black" stroke="black" points="323.5,-519.025 320,-509.025 316.5,-519.025 323.5,-519.025"/>
</g>
<!-- p27 -->
<g id="node24" class="node"><title>p27</title>
<ellipse fill="none" stroke="black" cx="320" cy="-382" rx="18" ry="18"/>
<text text-anchor="middle" x="320" y="-378.3" font-family="Times,serif" font-size="14.00">p27</text>
</g>
<!-- transition12 -->
<g id="node27" class="node"><title>transition12</title>
<polygon fill="none" stroke="black" points="338,-328 302,-328 302,-327 338,-327 338,-328"/>
<text text-anchor="middle" x="260" y="-331.8" font-family="Times,serif" font-size="14.00">[empty&#45;]ackin&#45;</text>
</g>
<!-- p27&#45;&gt;transition12 -->
<g id="edge25" class="edge"><title>p27&#45;&gt;transition12</title>
<path fill="none" stroke="black" d="M320,-363.939C320,-353.385 320,-340.534 320,-333.412"/>
<polygon fill="none" stroke="black" points="321.75,-333.059 320,-328.059 318.25,-333.059 321.75,-333.059"/>
</g>
<!-- transition14 -->
<g id="node30" class="node"><title>transition14</title>
<polygon fill="none" stroke="black" points="392,-328 356,-328 356,-327 392,-327 392,-328"/>
<text text-anchor="middle" x="312" y="-315.8" font-family="Times,serif" font-size="14.00">[empty+]ackin&#45;</text>
</g>
<!-- p27&#45;&gt;transition14 -->
<g id="edge29" class="edge"><title>p27&#45;&gt;transition14</title>
<path fill="none" stroke="black" d="M332.524,-368.708C344.598,-356.858 362.153,-339.627 369.977,-331.948"/>
<polygon fill="none" stroke="black" points="371.584,-332.824 373.926,-328.072 369.132,-330.326 371.584,-332.824"/>
</g>
<!-- transition11&#45;&gt;p27 -->
<g id="edge24" class="edge"><title>transition11&#45;&gt;p27</title>
<path fill="none" stroke="black" d="M320,-435.848C320,-434.368 320,-422.319 320,-410.1"/>
<polygon fill="black" stroke="black" points="323.5,-410.025 320,-400.025 316.5,-410.025 323.5,-410.025"/>
</g>
<!-- p28 -->
<g id="node26" class="node"><title>p28</title>
<ellipse fill="none" stroke="black" cx="320" cy="-273" rx="18" ry="18"/>
<text text-anchor="middle" x="320" y="-269.3" font-family="Times,serif" font-size="14.00">p28</text>
</g>
<!-- transition13 -->
<g id="node28" class="node"><title>transition13</title>
<polygon fill="none" stroke="black" points="315,-219 279,-219 279,-218 315,-218 315,-219"/>
<text text-anchor="middle" x="257" y="-222.8" font-family="Times,serif" font-size="14.00">reqout+</text>
</g>
<!-- p28&#45;&gt;transition13 -->
<g id="edge27" class="edge"><title>p28&#45;&gt;transition13</title>
<path fill="none" stroke="black" d="M313.099,-256.098C308.279,-244.992 302.169,-230.912 299.044,-223.71"/>
<polygon fill="none" stroke="black" points="300.623,-222.952 297.027,-219.062 297.412,-224.346 300.623,-222.952"/>
</g>
<!-- transition12&#45;&gt;p28 -->
<g id="edge26" class="edge"><title>transition12&#45;&gt;p28</title>
<path fill="none" stroke="black" d="M320,-326.848C320,-325.368 320,-313.319 320,-301.1"/>
<polygon fill="black" stroke="black" points="323.5,-301.025 320,-291.025 316.5,-301.025 323.5,-301.025"/>
</g>
<!-- transition13&#45;&gt;p25 -->
<g id="edge28" class="edge"><title>transition13&#45;&gt;p25</title>
<path fill="none" stroke="black" d="M296.983,-219.043C296.287,-220.839 274,-278.69 274,-327 274,-492 274,-492 274,-492 274,-519.25 276.612,-550.296 278.851,-571.902"/>
<polygon fill="black" stroke="black" points="275.386,-572.414 279.94,-581.98 282.346,-571.662 275.386,-572.414"/>
</g>
<!-- p29 -->
<g id="node29" class="node"><title>p29</title>
<ellipse fill="none" stroke="black" cx="374" cy="-273" rx="18" ry="18"/>
<text text-anchor="middle" x="374" y="-269.3" font-family="Times,serif" font-size="14.00">p29</text>
</g>
<!-- transition15 -->
<g id="node31" class="node"><title>transition15</title>
<polygon fill="none" stroke="black" points="415,-219 379,-219 379,-218 415,-218 415,-219"/>
<text text-anchor="middle" x="345.5" y="-222.8" font-family="Times,serif" font-size="14.00">enddmaint+</text>
</g>
<!-- p29&#45;&gt;transition15 -->
<g id="edge31" class="edge"><title>p29&#45;&gt;transition15</title>
<path fill="none" stroke="black" d="M380.901,-256.098C385.721,-244.992 391.831,-230.912 394.956,-223.71"/>
<polygon fill="none" stroke="black" points="396.588,-224.346 396.973,-219.062 393.377,-222.952 396.588,-224.346"/>
</g>
<!-- transition14&#45;&gt;p29 -->
<g id="edge30" class="edge"><title>transition14&#45;&gt;p29</title>
<path fill="none" stroke="black" d="M374,-326.848C374,-325.368 374,-313.319 374,-301.1"/>
<polygon fill="black" stroke="black" points="377.5,-301.025 374,-291.025 370.5,-301.025 377.5,-301.025"/>
</g>
<!-- transition15&#45;&gt;p1 -->
<g id="edge32" class="edge"><title>transition15&#45;&gt;p1</title>
<path fill="none" stroke="black" d="M397.017,-219.043C397.713,-220.839 420,-278.69 420,-327 420,-1582 420,-1582 420,-1582 420,-1610.36 411.568,-1641.87 404.498,-1663.3"/>
<polygon fill="black" stroke="black" points="401.12,-1662.36 401.18,-1672.96 407.74,-1664.64 401.12,-1662.36"/>
</g>
<!-- p30 -->
<g id="node32" class="node"><title>p30</title>
<ellipse fill="none" stroke="black" cx="163" cy="-927" rx="18" ry="18"/>
<text text-anchor="middle" x="163" y="-923.3" font-family="Times,serif" font-size="14.00">p30</text>
</g>
<!-- transition17 -->
<g id="node35" class="node"><title>transition17</title>
<polygon fill="none" stroke="black" points="168,-873 132,-873 132,-872 168,-872 168,-873"/>
<text text-anchor="middle" x="114" y="-876.8" font-family="Times,serif" font-size="14.00">ready&#45;</text>
</g>
<!-- p30&#45;&gt;transition17 -->
<g id="edge35" class="edge"><title>p30&#45;&gt;transition17</title>
<path fill="none" stroke="black" d="M158.887,-909.23C156.235,-898.419 152.967,-885.098 151.227,-878.004"/>
<polygon fill="none" stroke="black" points="152.905,-877.499 150.015,-873.06 149.506,-878.333 152.905,-877.499"/>
</g>
<!-- transition16&#45;&gt;p30 -->
<g id="edge34" class="edge"><title>transition16&#45;&gt;p30</title>
<path fill="none" stroke="black" d="M176.96,-980.848C176.562,-979.344 173.281,-966.919 169.999,-954.496"/>
<polygon fill="black" stroke="black" points="173.36,-953.517 167.422,-944.742 166.593,-955.305 173.36,-953.517"/>
</g>
<!-- p15 -->
<g id="node34" class="node"><title>p15</title>
<ellipse fill="none" stroke="black" cx="143" cy="-818" rx="18" ry="18"/>
<text text-anchor="middle" x="143" y="-814.3" font-family="Times,serif" font-size="14.00">p15</text>
</g>
<!-- transition18 -->
<g id="node37" class="node"><title>transition18</title>
<polygon fill="none" stroke="black" points="158,-764 122,-764 122,-763 158,-763 158,-764"/>
<text text-anchor="middle" x="95.5" y="-767.8" font-family="Times,serif" font-size="14.00">dack&#45;dtc&#45;</text>
</g>
<!-- p15&#45;&gt;transition18 -->
<g id="edge37" class="edge"><title>p15&#45;&gt;transition18</title>
<path fill="none" stroke="black" d="M142.034,-799.939C141.437,-789.385 140.709,-776.534 140.306,-769.412"/>
<polygon fill="none" stroke="black" points="142.033,-768.952 140.003,-764.059 138.539,-769.15 142.033,-768.952"/>
</g>
<!-- transition17&#45;&gt;p15 -->
<g id="edge36" class="edge"><title>transition17&#45;&gt;p15</title>
<path fill="none" stroke="black" d="M149.98,-871.848C149.784,-870.368 148.193,-858.319 146.579,-846.1"/>
<polygon fill="black" stroke="black" points="150.028,-845.48 145.249,-836.025 143.088,-846.397 150.028,-845.48"/>
</g>
<!-- p16 -->
<g id="node36" class="node"><title>p16</title>
<ellipse fill="none" stroke="black" cx="138" cy="-709" rx="18" ry="18"/>
<text text-anchor="middle" x="138" y="-705.3" font-family="Times,serif" font-size="14.00">p16</text>
</g>
<!-- transition19 -->
<g id="node39" class="node"><title>transition19</title>
<polygon fill="none" stroke="black" points="155,-655 119,-655 119,-654 155,-654 155,-655"/>
<text text-anchor="middle" x="97" y="-658.8" font-family="Times,serif" font-size="14.00">reqout+</text>
</g>
<!-- p16&#45;&gt;transition19 -->
<g id="edge39" class="edge"><title>p16&#45;&gt;transition19</title>
<path fill="none" stroke="black" d="M137.678,-690.939C137.479,-680.385 137.236,-667.534 137.102,-660.412"/>
<polygon fill="none" stroke="black" points="138.845,-660.025 137.001,-655.059 135.346,-660.091 138.845,-660.025"/>
</g>
<!-- transition18&#45;&gt;p16 -->
<g id="edge38" class="edge"><title>transition18&#45;&gt;p16</title>
<path fill="none" stroke="black" d="M139.994,-762.848C139.938,-761.368 139.484,-749.319 139.023,-737.1"/>
<polygon fill="black" stroke="black" points="142.517,-736.886 138.642,-727.025 135.522,-737.15 142.517,-736.886"/>
</g>
<!-- p17 -->
<g id="node38" class="node"><title>p17</title>
<ellipse fill="none" stroke="black" cx="137" cy="-600" rx="18" ry="18"/>
<text text-anchor="middle" x="137" y="-596.3" font-family="Times,serif" font-size="14.00">p17</text>
</g>
<!-- transition20 -->
<g id="node41" class="node"><title>transition20</title>
<polygon fill="none" stroke="black" points="155,-546 119,-546 119,-545 155,-545 155,-546"/>
<text text-anchor="middle" x="83" y="-549.8" font-family="Times,serif" font-size="14.00">dack*ackin+</text>
</g>
<!-- p17&#45;&gt;transition20 -->
<g id="edge41" class="edge"><title>p17&#45;&gt;transition20</title>
<path fill="none" stroke="black" d="M137,-581.939C137,-571.385 137,-558.534 137,-551.412"/>
<polygon fill="none" stroke="black" points="138.75,-551.059 137,-546.059 135.25,-551.059 138.75,-551.059"/>
</g>
<!-- transition19&#45;&gt;p17 -->
<g id="edge40" class="edge"><title>transition19&#45;&gt;p17</title>
<path fill="none" stroke="black" d="M137,-653.848C137,-652.368 137,-640.319 137,-628.1"/>
<polygon fill="black" stroke="black" points="140.5,-628.025 137,-618.025 133.5,-628.025 140.5,-628.025"/>
</g>
<!-- p18 -->
<g id="node40" class="node"><title>p18</title>
<ellipse fill="none" stroke="black" cx="136" cy="-491" rx="18" ry="18"/>
<text text-anchor="middle" x="136" y="-487.3" font-family="Times,serif" font-size="14.00">p18</text>
</g>
<!-- transition21 -->
<g id="node43" class="node"><title>transition21</title>
<polygon fill="none" stroke="black" points="154,-437 118,-437 118,-436 154,-436 154,-437"/>
<text text-anchor="middle" x="97.5" y="-440.8" font-family="Times,serif" font-size="14.00">reqout&#45;</text>
</g>
<!-- p18&#45;&gt;transition21 -->
<g id="edge43" class="edge"><title>p18&#45;&gt;transition21</title>
<path fill="none" stroke="black" d="M136,-472.939C136,-462.385 136,-449.534 136,-442.412"/>
<polygon fill="none" stroke="black" points="137.75,-442.059 136,-437.059 134.25,-442.059 137.75,-442.059"/>
</g>
<!-- transition20&#45;&gt;p18 -->
<g id="edge42" class="edge"><title>transition20&#45;&gt;p18</title>
<path fill="none" stroke="black" d="M136.997,-544.848C136.969,-543.368 136.742,-531.319 136.511,-519.1"/>
<polygon fill="black" stroke="black" points="140.009,-518.957 136.321,-509.025 133.011,-519.089 140.009,-518.957"/>
</g>
<!-- p19 -->
<g id="node42" class="node"><title>p19</title>
<ellipse fill="none" stroke="black" cx="136" cy="-382" rx="18" ry="18"/>
<text text-anchor="middle" x="136" y="-378.3" font-family="Times,serif" font-size="14.00">p19</text>
</g>
<!-- transition24 -->
<g id="node45" class="node"><title>transition24</title>
<polygon fill="none" stroke="black" points="154,-328 118,-328 118,-327 154,-327 154,-328"/>
<text text-anchor="middle" x="59" y="-331.8" font-family="Times,serif" font-size="14.00">[empty&#45;]dack*ackin&#45;</text>
</g>
<!-- p19&#45;&gt;transition24 -->
<g id="edge45" class="edge"><title>p19&#45;&gt;transition24</title>
<path fill="none" stroke="black" d="M136,-363.939C136,-353.385 136,-340.534 136,-333.412"/>
<polygon fill="none" stroke="black" points="137.75,-333.059 136,-328.059 134.25,-333.059 137.75,-333.059"/>
</g>
<!-- transition22 -->
<g id="node52" class="node"><title>transition22</title>
<polygon fill="none" stroke="black" points="208,-328 172,-328 172,-327 208,-327 208,-328"/>
<text text-anchor="middle" x="111" y="-315.8" font-family="Times,serif" font-size="14.00">[empty+]dack+ackin&#45;</text>
</g>
<!-- p19&#45;&gt;transition22 -->
<g id="edge53" class="edge"><title>p19&#45;&gt;transition22</title>
<path fill="none" stroke="black" d="M148.524,-368.708C160.598,-356.858 178.153,-339.627 185.977,-331.948"/>
<polygon fill="none" stroke="black" points="187.584,-332.824 189.926,-328.072 185.132,-330.326 187.584,-332.824"/>
</g>
<!-- transition21&#45;&gt;p19 -->
<g id="edge44" class="edge"><title>transition21&#45;&gt;p19</title>
<path fill="none" stroke="black" d="M136,-435.848C136,-434.368 136,-422.319 136,-410.1"/>
<polygon fill="black" stroke="black" points="139.5,-410.025 136,-400.025 132.5,-410.025 139.5,-410.025"/>
</g>
<!-- p31 -->
<g id="node44" class="node"><title>p31</title>
<ellipse fill="none" stroke="black" cx="136" cy="-273" rx="18" ry="18"/>
<text text-anchor="middle" x="136" y="-269.3" font-family="Times,serif" font-size="14.00">p31</text>
</g>
<!-- transition25 -->
<g id="node47" class="node"><title>transition25</title>
<polygon fill="none" stroke="black" points="154,-219 118,-219 118,-218 154,-218 154,-219"/>
<text text-anchor="middle" x="96" y="-222.8" font-family="Times,serif" font-size="14.00">reqout+</text>
</g>
<!-- p31&#45;&gt;transition25 -->
<g id="edge47" class="edge"><title>p31&#45;&gt;transition25</title>
<path fill="none" stroke="black" d="M136,-254.939C136,-244.385 136,-231.534 136,-224.412"/>
<polygon fill="none" stroke="black" points="137.75,-224.059 136,-219.059 134.25,-224.059 137.75,-224.059"/>
</g>
<!-- transition24&#45;&gt;p31 -->
<g id="edge46" class="edge"><title>transition24&#45;&gt;p31</title>
<path fill="none" stroke="black" d="M136,-326.848C136,-325.368 136,-313.319 136,-301.1"/>
<polygon fill="black" stroke="black" points="139.5,-301.025 136,-291.025 132.5,-301.025 139.5,-301.025"/>
</g>
<!-- p21 -->
<g id="node46" class="node"><title>p21</title>
<ellipse fill="none" stroke="black" cx="136" cy="-164" rx="18" ry="18"/>
<text text-anchor="middle" x="136" y="-160.3" font-family="Times,serif" font-size="14.00">p21</text>
</g>
<!-- transition26 -->
<g id="node49" class="node"><title>transition26</title>
<polygon fill="none" stroke="black" points="154,-110 118,-110 118,-109 154,-109 154,-110"/>
<text text-anchor="middle" x="82" y="-113.8" font-family="Times,serif" font-size="14.00">dack*ackin+</text>
</g>
<!-- p21&#45;&gt;transition26 -->
<g id="edge49" class="edge"><title>p21&#45;&gt;transition26</title>
<path fill="none" stroke="black" d="M136,-145.939C136,-135.385 136,-122.534 136,-115.412"/>
<polygon fill="none" stroke="black" points="137.75,-115.059 136,-110.059 134.25,-115.059 137.75,-115.059"/>
</g>
<!-- transition25&#45;&gt;p21 -->
<g id="edge48" class="edge"><title>transition25&#45;&gt;p21</title>
<path fill="none" stroke="black" d="M136,-217.848C136,-216.368 136,-204.319 136,-192.1"/>
<polygon fill="black" stroke="black" points="139.5,-192.025 136,-182.025 132.5,-192.025 139.5,-192.025"/>
</g>
<!-- p22 -->
<g id="node48" class="node"><title>p22</title>
<ellipse fill="none" stroke="black" cx="136" cy="-55" rx="18" ry="18"/>
<text text-anchor="middle" x="136" y="-51.3" font-family="Times,serif" font-size="14.00">p22</text>
</g>
<!-- transition27 -->
<g id="node50" class="node"><title>transition27</title>
<polygon fill="none" stroke="black" points="131,-1 95,-1 95,-0 131,-0 131,-1"/>
<text text-anchor="middle" x="74.5" y="-4.8" font-family="Times,serif" font-size="14.00">reqout&#45;</text>
</g>
<!-- p22&#45;&gt;transition27 -->
<g id="edge51" class="edge"><title>p22&#45;&gt;transition27</title>
<path fill="none" stroke="black" d="M129.099,-38.0983C124.279,-26.9918 118.169,-12.9118 115.044,-5.7104"/>
<polygon fill="none" stroke="black" points="116.623,-4.95216 113.027,-1.06211 113.412,-6.34553 116.623,-4.95216"/>
</g>
<!-- transition26&#45;&gt;p22 -->
<g id="edge50" class="edge"><title>transition26&#45;&gt;p22</title>
<path fill="none" stroke="black" d="M136,-108.848C136,-107.368 136,-95.3194 136,-83.1004"/>
<polygon fill="black" stroke="black" points="139.5,-83.0247 136,-73.0247 132.5,-83.0248 139.5,-83.0247"/>
</g>
<!-- transition27&#45;&gt;p19 -->
<g id="edge52" class="edge"><title>transition27&#45;&gt;p19</title>
<path fill="none" stroke="black" d="M112.983,-1.04289C112.287,-2.83896 90,-60.6904 90,-109 90,-274 90,-274 90,-274 90,-305.176 106.686,-337.612 119.959,-358.481"/>
<polygon fill="black" stroke="black" points="117.123,-360.539 125.562,-366.945 122.96,-356.674 117.123,-360.539"/>
</g>
<!-- p20 -->
<g id="node51" class="node"><title>p20</title>
<ellipse fill="none" stroke="black" cx="190" cy="-273" rx="18" ry="18"/>
<text text-anchor="middle" x="190" y="-269.3" font-family="Times,serif" font-size="14.00">p20</text>
</g>
<!-- transition23 -->
<g id="node53" class="node"><title>transition23</title>
<polygon fill="none" stroke="black" points="231,-219 195,-219 195,-218 231,-218 231,-219"/>
<text text-anchor="middle" x="175.5" y="-222.8" font-family="Times,serif" font-size="14.00">ready+</text>
</g>
<!-- p20&#45;&gt;transition23 -->
<g id="edge55" class="edge"><title>p20&#45;&gt;transition23</title>
<path fill="none" stroke="black" d="M196.901,-256.098C201.721,-244.992 207.831,-230.912 210.956,-223.71"/>
<polygon fill="none" stroke="black" points="212.588,-224.346 212.973,-219.062 209.377,-222.952 212.588,-224.346"/>
</g>
<!-- transition22&#45;&gt;p20 -->
<g id="edge54" class="edge"><title>transition22&#45;&gt;p20</title>
<path fill="none" stroke="black" d="M190,-326.848C190,-325.368 190,-313.319 190,-301.1"/>
<polygon fill="black" stroke="black" points="193.5,-301.025 190,-291.025 186.5,-301.025 193.5,-301.025"/>
</g>
<!-- transition23&#45;&gt;p13 -->
<g id="edge56" class="edge"><title>transition23&#45;&gt;p13</title>
<path fill="none" stroke="black" d="M213.017,-219.043C213.713,-220.839 236,-278.69 236,-327 236,-928 236,-928 236,-928 236,-955.174 236,-986.231 236,-1007.86"/>
<polygon fill="black" stroke="black" points="232.5,-1007.95 236,-1017.95 239.5,-1007.95 232.5,-1007.95"/>
</g>
</g>
</svg>
