<?xml version="1.0" encoding="UTF-8" standalone="no"?>
<!DOCTYPE svg PUBLIC "-//W3C//DTD SVG 1.1//EN"
 "http://www.w3.org/Graphics/SVG/1.1/DTD/svg11.dtd">
<!-- Generated by graphviz version 2.38.0 (20140413.2041)
 -->
<!-- Title: %3 Pages: 1 -->
<svg width="283pt" height="844pt"
 viewBox="0.00 0.00 283.00 844.00" xmlns="http://www.w3.org/2000/svg" xmlns:xlink="http://www.w3.org/1999/xlink">
<g id="graph0" class="graph" transform="scale(1 1) rotate(0) translate(4 840)">
<title>%3</title>
<polygon fill="white" stroke="none" points="-4,4 -4,-840 279,-840 279,4 -4,4"/>
<!-- p1 -->
<g id="node1" class="node"><title>p1</title>
<ellipse fill="none" stroke="black" cx="216" cy="-818" rx="18" ry="18"/>
<text text-anchor="middle" x="216" y="-814.3" font-family="Times,serif" font-size="14.00">p1</text>
</g>
<!-- transition0 -->
<g id="node3" class="node"><title>transition0</title>
<polygon fill="none" stroke="black" points="161,-764 125,-764 125,-763 161,-763 161,-764"/>
<text text-anchor="middle" x="102" y="-767.8" font-family="Times,serif" font-size="14.00">[sel+]r+</text>
</g>
<!-- p1&#45;&gt;transition0 -->
<g id="edge1" class="edge"><title>p1&#45;&gt;transition0</title>
<path fill="none" stroke="black" d="M201.578,-806.529C184.671,-794.254 157.643,-774.631 147.256,-767.09"/>
<polygon fill="none" stroke="black" points="148.182,-765.6 143.108,-764.078 146.126,-768.432 148.182,-765.6"/>
</g>
<!-- transition2 -->
<g id="node26" class="node"><title>transition2</title>
<polygon fill="none" stroke="black" points="209,-709.5 173,-709.5 173,-708.5 209,-708.5 209,-709.5"/>
<text text-anchor="middle" x="194.5" y="-713.3" font-family="Times,serif" font-size="14.00">[sel&#45;]r+</text>
</g>
<!-- p1&#45;&gt;transition2 -->
<g id="edge31" class="edge"><title>p1&#45;&gt;transition2</title>
<path fill="none" stroke="black" d="M212.094,-800.281C206.308,-775.518 195.761,-730.377 192.206,-715.163"/>
<polygon fill="none" stroke="black" points="193.852,-714.514 191.01,-710.044 190.444,-715.311 193.852,-714.514"/>
</g>
<!-- p2 -->
<g id="node2" class="node"><title>p2</title>
<ellipse fill="none" stroke="black" cx="118" cy="-709" rx="18" ry="18"/>
<text text-anchor="middle" x="118" y="-705.3" font-family="Times,serif" font-size="14.00">p2</text>
</g>
<!-- transition1 -->
<g id="node5" class="node"><title>transition1</title>
<polygon fill="none" stroke="black" points="126,-655 90,-655 90,-654 126,-654 126,-655"/>
<text text-anchor="middle" x="82.5" y="-658.8" font-family="Times,serif" font-size="14.00">a+</text>
</g>
<!-- p2&#45;&gt;transition1 -->
<g id="edge3" class="edge"><title>p2&#45;&gt;transition1</title>
<path fill="none" stroke="black" d="M114.836,-691.23C112.796,-680.419 110.283,-667.098 108.944,-660.004"/>
<polygon fill="none" stroke="black" points="110.658,-659.649 108.011,-655.06 107.219,-660.298 110.658,-659.649"/>
</g>
<!-- transition0&#45;&gt;p2 -->
<g id="edge2" class="edge"><title>transition0&#45;&gt;p2</title>
<path fill="none" stroke="black" d="M142.928,-762.848C142.186,-761.275 135.811,-747.759 129.694,-734.791"/>
<polygon fill="black" stroke="black" points="132.802,-733.175 125.37,-725.624 126.471,-736.162 132.802,-733.175"/>
</g>
<!-- p9 -->
<g id="node4" class="node"><title>p9</title>
<ellipse fill="none" stroke="black" cx="99" cy="-600" rx="18" ry="18"/>
<text text-anchor="middle" x="99" y="-596.3" font-family="Times,serif" font-size="14.00">p9</text>
</g>
<!-- transition6 -->
<g id="node6" class="node"><title>transition6</title>
<polygon fill="none" stroke="black" points="117,-546 81,-546 81,-545 117,-545 117,-546"/>
<text text-anchor="middle" x="61.5" y="-549.8" font-family="Times,serif" font-size="14.00">[sel&#45;]r&#45;</text>
</g>
<!-- p9&#45;&gt;transition6 -->
<g id="edge5" class="edge"><title>p9&#45;&gt;transition6</title>
<path fill="none" stroke="black" d="M92.7547,-583.098C91.5979,-571.573 92.4298,-556.845 95.2505,-549.925"/>
<polygon fill="none" stroke="black" points="96.714,-550.913 98.7341,-546.016 94.101,-548.584 96.714,-550.913"/>
</g>
<!-- transition4 -->
<g id="node8" class="node"><title>transition4</title>
<polygon fill="none" stroke="black" points="171,-546 135,-546 135,-545 171,-545 171,-546"/>
<text text-anchor="middle" x="113.5" y="-549.8" font-family="Times,serif" font-size="14.00">[sel+]r&#45;</text>
</g>
<!-- p9&#45;&gt;transition4 -->
<g id="edge7" class="edge"><title>p9&#45;&gt;transition4</title>
<path fill="none" stroke="black" d="M111.524,-586.708C123.598,-574.858 141.153,-557.627 148.977,-549.948"/>
<polygon fill="none" stroke="black" points="150.584,-550.824 152.926,-546.072 148.132,-548.326 150.584,-550.824"/>
</g>
<!-- transition7 -->
<g id="node25" class="node"><title>transition7</title>
<polygon fill="none" stroke="black" points="83,-491.5 47,-491.5 47,-490.5 83,-490.5 83,-491.5"/>
<text text-anchor="middle" x="36.5" y="-495.3" font-family="Times,serif" font-size="14.00">s2+</text>
</g>
<!-- p9&#45;&gt;transition7 -->
<g id="edge29" class="edge"><title>p9&#45;&gt;transition7</title>
<path fill="none" stroke="black" d="M89.7634,-584.277C83.7287,-573.952 76.2119,-559.614 72,-546 66.6407,-528.677 65.3827,-506.998 65.0888,-497.215"/>
<polygon fill="none" stroke="black" points="66.8364,-497.058 64.9998,-492.089 63.3369,-497.119 66.8364,-497.058"/>
</g>
<!-- transition1&#45;&gt;p9 -->
<g id="edge4" class="edge"><title>transition1&#45;&gt;p9</title>
<path fill="none" stroke="black" d="M107.974,-653.848C107.723,-652.368 105.677,-640.319 103.602,-628.1"/>
<polygon fill="black" stroke="black" points="107.016,-627.298 101.891,-618.025 100.115,-628.47 107.016,-627.298"/>
</g>
<!-- transition6&#45;&gt;p9 -->
<g id="edge6" class="edge"><title>transition6&#45;&gt;p9</title>
<path fill="none" stroke="black" d="M99.2659,-546.016C103.628,-546.532 105.79,-559.754 105.749,-572.858"/>
<polygon fill="black" stroke="black" points="102.241,-572.938 105.245,-583.098 109.233,-573.282 102.241,-572.938"/>
</g>
<!-- p10 -->
<g id="node7" class="node"><title>p10</title>
<ellipse fill="none" stroke="black" cx="183" cy="-491" rx="18" ry="18"/>
<text text-anchor="middle" x="183" y="-487.3" font-family="Times,serif" font-size="14.00">p10</text>
</g>
<!-- transition3 -->
<g id="node10" class="node"><title>transition3</title>
<polygon fill="none" stroke="black" points="183,-437 147,-437 147,-436 183,-436 183,-437"/>
<text text-anchor="middle" x="136.5" y="-440.8" font-family="Times,serif" font-size="14.00">s2+</text>
</g>
<!-- p10&#45;&gt;transition3 -->
<g id="edge9" class="edge"><title>p10&#45;&gt;transition3</title>
<path fill="none" stroke="black" d="M177.502,-473.81C173.816,-462.958 169.202,-449.372 166.739,-442.121"/>
<polygon fill="none" stroke="black" points="168.286,-441.233 165.021,-437.061 164.972,-442.359 168.286,-441.233"/>
</g>
<!-- transition5 -->
<g id="node24" class="node"><title>transition5</title>
<polygon fill="none" stroke="black" points="240,-437 204,-437 204,-436 240,-436 240,-437"/>
<text text-anchor="middle" x="198.5" y="-440.8" font-family="Times,serif" font-size="14.00">a&#45;</text>
</g>
<!-- p10&#45;&gt;transition5 -->
<g id="edge27" class="edge"><title>p10&#45;&gt;transition5</title>
<path fill="none" stroke="black" d="M193.247,-476.075C201.817,-464.428 213.492,-448.562 218.951,-441.143"/>
<polygon fill="none" stroke="black" points="220.396,-442.132 221.95,-437.068 217.577,-440.058 220.396,-442.132"/>
</g>
<!-- transition4&#45;&gt;p10 -->
<g id="edge8" class="edge"><title>transition4&#45;&gt;p10</title>
<path fill="none" stroke="black" d="M153.086,-544.848C153.996,-543.24 161.971,-529.152 169.457,-515.926"/>
<polygon fill="black" stroke="black" points="172.588,-517.499 174.468,-507.072 166.496,-514.051 172.588,-517.499"/>
</g>
<!-- p5 -->
<g id="node9" class="node"><title>p5</title>
<ellipse fill="none" stroke="black" cx="163" cy="-382" rx="18" ry="18"/>
<text text-anchor="middle" x="163" y="-378.3" font-family="Times,serif" font-size="14.00">p5</text>
</g>
<!-- transition10 -->
<g id="node12" class="node"><title>transition10</title>
<polygon fill="none" stroke="black" points="132,-328 96,-328 96,-327 132,-327 132,-328"/>
<text text-anchor="middle" x="74.5" y="-331.8" font-family="Times,serif" font-size="14.00">[sel+]r&#45;</text>
</g>
<!-- p5&#45;&gt;transition10 -->
<g id="edge11" class="edge"><title>p5&#45;&gt;transition10</title>
<path fill="none" stroke="black" d="M151.138,-368.17C140.163,-356.299 124.528,-339.387 117.573,-331.865"/>
<polygon fill="none" stroke="black" points="118.745,-330.554 114.065,-328.071 116.175,-332.93 118.745,-330.554"/>
</g>
<!-- transition14 -->
<g id="node22" class="node"><title>transition14</title>
<polygon fill="none" stroke="black" points="237,-328 201,-328 201,-327 237,-327 237,-328"/>
<text text-anchor="middle" x="181.5" y="-331.8" font-family="Times,serif" font-size="14.00">[sel&#45;]r&#45;</text>
</g>
<!-- p5&#45;&gt;transition14 -->
<g id="edge23" class="edge"><title>p5&#45;&gt;transition14</title>
<path fill="none" stroke="black" d="M175.707,-368.973C188.462,-356.902 207.324,-339.05 215.263,-331.537"/>
<polygon fill="none" stroke="black" points="216.494,-332.781 218.923,-328.073 214.088,-330.239 216.494,-332.781"/>
</g>
<!-- transition3&#45;&gt;p5 -->
<g id="edge10" class="edge"><title>transition3&#45;&gt;p5</title>
<path fill="none" stroke="black" d="M164.994,-435.848C164.938,-434.368 164.484,-422.319 164.023,-410.1"/>
<polygon fill="black" stroke="black" points="167.517,-409.886 163.642,-400.025 160.522,-410.15 167.517,-409.886"/>
</g>
<!-- p6 -->
<g id="node11" class="node"><title>p6</title>
<ellipse fill="none" stroke="black" cx="113" cy="-273" rx="18" ry="18"/>
<text text-anchor="middle" x="113" y="-269.3" font-family="Times,serif" font-size="14.00">p6</text>
</g>
<!-- transition11 -->
<g id="node14" class="node"><title>transition11</title>
<polygon fill="none" stroke="black" points="130,-219 94,-219 94,-218 130,-218 130,-219"/>
<text text-anchor="middle" x="86.5" y="-222.8" font-family="Times,serif" font-size="14.00">a+</text>
</g>
<!-- p6&#45;&gt;transition11 -->
<g id="edge13" class="edge"><title>p6&#45;&gt;transition11</title>
<path fill="none" stroke="black" d="M112.678,-254.939C112.479,-244.385 112.236,-231.534 112.102,-224.412"/>
<polygon fill="none" stroke="black" points="113.845,-224.025 112.001,-219.059 110.346,-224.091 113.845,-224.025"/>
</g>
<!-- transition10&#45;&gt;p6 -->
<g id="edge12" class="edge"><title>transition10&#45;&gt;p6</title>
<path fill="none" stroke="black" d="M113.997,-326.848C113.969,-325.368 113.742,-313.319 113.511,-301.1"/>
<polygon fill="black" stroke="black" points="117.009,-300.957 113.321,-291.025 110.011,-301.089 117.009,-300.957"/>
</g>
<!-- p13 -->
<g id="node13" class="node"><title>p13</title>
<ellipse fill="none" stroke="black" cx="89" cy="-164" rx="18" ry="18"/>
<text text-anchor="middle" x="89" y="-160.3" font-family="Times,serif" font-size="14.00">p13</text>
</g>
<!-- transition8 -->
<g id="node16" class="node"><title>transition8</title>
<polygon fill="none" stroke="black" points="133,-110 97,-110 97,-109 133,-109 133,-110"/>
<text text-anchor="middle" x="74" y="-113.8" font-family="Times,serif" font-size="14.00">[sel+]r+</text>
</g>
<!-- p13&#45;&gt;transition8 -->
<g id="edge15" class="edge"><title>p13&#45;&gt;transition8</title>
<path fill="none" stroke="black" d="M96.6602,-147.385C102.116,-136.263 109.092,-122.044 112.663,-114.764"/>
<polygon fill="none" stroke="black" points="114.338,-115.323 114.969,-110.063 111.196,-113.781 114.338,-115.323"/>
</g>
<!-- transition12 -->
<g id="node19" class="node"><title>transition12</title>
<polygon fill="none" stroke="black" points="79,-110 43,-110 43,-109 79,-109 79,-110"/>
<text text-anchor="middle" x="21.5" y="-113.8" font-family="Times,serif" font-size="14.00">[sel&#45;]r+</text>
</g>
<!-- p13&#45;&gt;transition12 -->
<g id="edge19" class="edge"><title>p13&#45;&gt;transition12</title>
<path fill="none" stroke="black" d="M80.9012,-147.67C75.0181,-136.534 67.4333,-122.177 63.5456,-114.818"/>
<polygon fill="none" stroke="black" points="64.9166,-113.667 61.0336,-110.064 61.8219,-115.302 64.9166,-113.667"/>
</g>
<!-- transition11&#45;&gt;p13 -->
<g id="edge14" class="edge"><title>transition11&#45;&gt;p13</title>
<path fill="none" stroke="black" d="M111.934,-217.848C111.262,-216.3 105.571,-203.185 100.026,-190.409"/>
<polygon fill="black" stroke="black" points="103.092,-188.682 95.9008,-180.902 96.671,-191.469 103.092,-188.682"/>
</g>
<!-- p14 -->
<g id="node15" class="node"><title>p14</title>
<ellipse fill="none" stroke="black" cx="115" cy="-55" rx="18" ry="18"/>
<text text-anchor="middle" x="115" y="-51.3" font-family="Times,serif" font-size="14.00">p14</text>
</g>
<!-- transition9 -->
<g id="node17" class="node"><title>transition9</title>
<polygon fill="none" stroke="black" points="144,-1 108,-1 108,-0 144,-0 144,-1"/>
<text text-anchor="middle" x="102.5" y="-4.8" font-family="Times,serif" font-size="14.00">a&#45;</text>
</g>
<!-- p14&#45;&gt;transition9 -->
<g id="edge17" class="edge"><title>p14&#45;&gt;transition9</title>
<path fill="none" stroke="black" d="M118.48,-37.2305C120.724,-26.4189 123.489,-13.0981 124.961,-6.00401"/>
<polygon fill="none" stroke="black" points="126.685,-6.31119 125.988,-1.05986 123.258,-5.59988 126.685,-6.31119"/>
</g>
<!-- transition8&#45;&gt;p14 -->
<g id="edge16" class="edge"><title>transition8&#45;&gt;p14</title>
<path fill="none" stroke="black" d="M115,-108.848C115,-107.368 115,-95.3194 115,-83.1004"/>
<polygon fill="black" stroke="black" points="118.5,-83.0247 115,-73.0247 111.5,-83.0248 118.5,-83.0247"/>
</g>
<!-- transition9&#45;&gt;p5 -->
<g id="edge18" class="edge"><title>transition9&#45;&gt;p5</title>
<path fill="none" stroke="black" d="M126.103,-1.16621C128.215,-4.58107 162,-59.9847 162,-109 162,-274 162,-274 162,-274 162,-301.176 162.327,-332.232 162.606,-353.86"/>
<polygon fill="black" stroke="black" points="159.108,-353.999 162.742,-363.951 166.107,-353.905 159.108,-353.999"/>
</g>
<!-- p11 -->
<g id="node18" class="node"><title>p11</title>
<ellipse fill="none" stroke="black" cx="61" cy="-55" rx="18" ry="18"/>
<text text-anchor="middle" x="61" y="-51.3" font-family="Times,serif" font-size="14.00">p11</text>
</g>
<!-- transition13 -->
<g id="node20" class="node"><title>transition13</title>
<polygon fill="none" stroke="black" points="67,-1 31,-1 31,-0 67,-0 67,-1"/>
<text text-anchor="middle" x="22" y="-4.8" font-family="Times,serif" font-size="14.00">s2&#45;</text>
</g>
<!-- p11&#45;&gt;transition13 -->
<g id="edge21" class="edge"><title>p11&#45;&gt;transition13</title>
<path fill="none" stroke="black" d="M57.2031,-37.2305C54.7552,-26.4189 51.7392,-13.0981 50.133,-6.00401"/>
<polygon fill="none" stroke="black" points="51.8246,-5.54996 49.0136,-1.05986 48.411,-6.3229 51.8246,-5.54996"/>
</g>
<!-- transition12&#45;&gt;p11 -->
<g id="edge20" class="edge"><title>transition12&#45;&gt;p11</title>
<path fill="none" stroke="black" d="M61,-108.848C61,-107.368 61,-95.3194 61,-83.1004"/>
<polygon fill="black" stroke="black" points="64.5001,-83.0247 61,-73.0247 57.5001,-83.0248 64.5001,-83.0247"/>
</g>
<!-- transition13&#45;&gt;p9 -->
<g id="edge22" class="edge"><title>transition13&#45;&gt;p9</title>
<path fill="none" stroke="black" d="M48.9025,-1.16699C46.9082,-4.59767 15,-60.2502 15,-109 15,-492 15,-492 15,-492 15,-531.506 50.8652,-565.069 75.7251,-583.588"/>
<polygon fill="black" stroke="black" points="73.8131,-586.523 83.9825,-589.496 77.8863,-580.83 73.8131,-586.523"/>
</g>
<!-- p12 -->
<g id="node21" class="node"><title>p12</title>
<ellipse fill="none" stroke="black" cx="224" cy="-273" rx="18" ry="18"/>
<text text-anchor="middle" x="224" y="-269.3" font-family="Times,serif" font-size="14.00">p12</text>
</g>
<!-- transition15 -->
<g id="node23" class="node"><title>transition15</title>
<polygon fill="none" stroke="black" points="267,-219 231,-219 231,-218 267,-218 267,-219"/>
<text text-anchor="middle" x="222" y="-222.8" font-family="Times,serif" font-size="14.00">s2&#45;</text>
</g>
<!-- p12&#45;&gt;transition15 -->
<g id="edge25" class="edge"><title>p12&#45;&gt;transition15</title>
<path fill="none" stroke="black" d="M231.366,-256.385C236.612,-245.263 243.319,-231.044 246.753,-223.764"/>
<polygon fill="none" stroke="black" points="248.42,-224.332 248.97,-219.063 245.254,-222.838 248.42,-224.332"/>
</g>
<!-- transition14&#45;&gt;p12 -->
<g id="edge24" class="edge"><title>transition14&#45;&gt;p12</title>
<path fill="none" stroke="black" d="M219.014,-326.848C219.154,-325.368 220.291,-313.319 221.443,-301.1"/>
<polygon fill="black" stroke="black" points="224.939,-301.309 222.394,-291.025 217.97,-300.652 224.939,-301.309"/>
</g>
<!-- transition15&#45;&gt;p1 -->
<g id="edge26" class="edge"><title>transition15&#45;&gt;p1</title>
<path fill="none" stroke="black" d="M249.019,-219.043C249.806,-220.83 275,-278.4 275,-327 275,-710 275,-710 275,-710 275,-743.746 252.217,-776.871 234.966,-797.114"/>
<polygon fill="black" stroke="black" points="232.241,-794.912 228.225,-804.716 237.478,-799.556 232.241,-794.912"/>
</g>
<!-- transition5&#45;&gt;p1 -->
<g id="edge28" class="edge"><title>transition5&#45;&gt;p1</title>
<path fill="none" stroke="black" d="M222.011,-437.043C222.465,-438.858 237,-497.296 237,-545 237,-710 237,-710 237,-710 237,-737.982 229.999,-769.323 224.082,-790.815"/>
<polygon fill="black" stroke="black" points="220.692,-789.939 221.299,-800.517 227.42,-791.869 220.692,-789.939"/>
</g>
<!-- transition7&#45;&gt;p13 -->
<g id="edge30" class="edge"><title>transition7&#45;&gt;p13</title>
<path fill="none" stroke="black" d="M65.0007,-489.957C65.031,-488.145 66,-429.815 66,-383 66,-383 66,-383 66,-272 66,-243.751 73.7572,-212.226 80.2616,-190.756"/>
<polygon fill="black" stroke="black" points="83.6424,-191.673 83.3146,-181.083 76.967,-189.566 83.6424,-191.673"/>
</g>
<!-- transition2&#45;&gt;p10 -->
<g id="edge32" class="edge"><title>transition2&#45;&gt;p10</title>
<path fill="none" stroke="black" d="M190.994,-707.843C190.807,-702.779 186.117,-576.146 184.009,-519.245"/>
<polygon fill="black" stroke="black" points="187.504,-519.027 183.636,-509.164 180.508,-519.286 187.504,-519.027"/>
</g>
</g>
</svg>
