<?xml version="1.0" encoding="UTF-8" standalone="no"?>
<!DOCTYPE svg PUBLIC "-//W3C//DTD SVG 1.1//EN"
 "http://www.w3.org/Graphics/SVG/1.1/DTD/svg11.dtd">
<!-- Generated by graphviz version 2.38.0 (20140413.2041)
 -->
<!-- Title: %3 Pages: 1 -->
<svg width="305pt" height="879pt"
 viewBox="0.00 0.00 305.00 879.00" xmlns="http://www.w3.org/2000/svg" xmlns:xlink="http://www.w3.org/1999/xlink">
<g id="graph0" class="graph" transform="scale(1 1) rotate(0) translate(4 875)">
<title>%3</title>
<polygon fill="white" stroke="none" points="-4,4 -4,-875 301,-875 301,4 -4,4"/>
<!-- p1 -->
<g id="node1" class="node"><title>p1</title>
<ellipse fill="none" stroke="black" cx="238" cy="-853" rx="18" ry="18"/>
<text text-anchor="middle" x="238" y="-849.3" font-family="Times,serif" font-size="14.00">p1</text>
</g>
<!-- transition2 -->
<g id="node3" class="node"><title>transition2</title>
<polygon fill="none" stroke="black" points="183,-799 147,-799 147,-798 183,-798 183,-799"/>
<text text-anchor="middle" x="125.5" y="-802.8" font-family="Times,serif" font-size="14.00">[sel&#45;]r+</text>
</g>
<!-- p1&#45;&gt;transition2 -->
<g id="edge1" class="edge"><title>p1&#45;&gt;transition2</title>
<path fill="none" stroke="black" d="M223.578,-841.529C206.671,-829.254 179.643,-809.631 169.256,-802.09"/>
<polygon fill="none" stroke="black" points="170.182,-800.6 165.108,-799.078 168.126,-803.432 170.182,-800.6"/>
</g>
<!-- transition0 -->
<g id="node27" class="node"><title>transition0</title>
<polygon fill="none" stroke="black" points="231,-744.5 195,-744.5 195,-743.5 231,-743.5 231,-744.5"/>
<text text-anchor="middle" x="218" y="-748.3" font-family="Times,serif" font-size="14.00">[sel+]r+</text>
</g>
<!-- p1&#45;&gt;transition0 -->
<g id="edge29" class="edge"><title>p1&#45;&gt;transition0</title>
<path fill="none" stroke="black" d="M234.094,-835.281C228.308,-810.518 217.761,-765.377 214.206,-750.163"/>
<polygon fill="none" stroke="black" points="215.852,-749.514 213.01,-745.044 212.444,-750.311 215.852,-749.514"/>
</g>
<!-- p16 -->
<g id="node2" class="node"><title>p16</title>
<ellipse fill="none" stroke="black" cx="140" cy="-744" rx="18" ry="18"/>
<text text-anchor="middle" x="140" y="-740.3" font-family="Times,serif" font-size="14.00">p16</text>
</g>
<!-- transition3 -->
<g id="node5" class="node"><title>transition3</title>
<polygon fill="none" stroke="black" points="153,-672.5 117,-672.5 117,-671.5 153,-671.5 153,-672.5"/>
<text text-anchor="middle" x="106.5" y="-676.3" font-family="Times,serif" font-size="14.00">s2+</text>
</g>
<!-- p16&#45;&gt;transition3 -->
<g id="edge3" class="edge"><title>p16&#45;&gt;transition3</title>
<path fill="none" stroke="black" d="M138.764,-725.697C137.655,-710.165 136.095,-688.324 135.382,-678.348"/>
<polygon fill="none" stroke="black" points="137.108,-677.955 135.007,-673.092 133.617,-678.204 137.108,-677.955"/>
</g>
<!-- transition2&#45;&gt;p16 -->
<g id="edge2" class="edge"><title>transition2&#45;&gt;p16</title>
<path fill="none" stroke="black" d="M164.928,-797.848C164.186,-796.275 157.811,-782.759 151.694,-769.791"/>
<polygon fill="black" stroke="black" points="154.802,-768.175 147.37,-760.624 148.471,-771.162 154.802,-768.175"/>
</g>
<!-- p5 -->
<g id="node4" class="node"><title>p5</title>
<ellipse fill="none" stroke="black" cx="126" cy="-600" rx="18" ry="18"/>
<text text-anchor="middle" x="126" y="-596.3" font-family="Times,serif" font-size="14.00">p5</text>
</g>
<!-- transition10 -->
<g id="node7" class="node"><title>transition10</title>
<polygon fill="none" stroke="black" points="139,-546 103,-546 103,-545 139,-545 139,-546"/>
<text text-anchor="middle" x="81.5" y="-549.8" font-family="Times,serif" font-size="14.00">[sel+]r&#45;</text>
</g>
<!-- p5&#45;&gt;transition10 -->
<g id="edge5" class="edge"><title>p5&#45;&gt;transition10</title>
<path fill="none" stroke="black" d="M124.39,-581.939C123.395,-571.385 122.182,-558.534 121.511,-551.412"/>
<polygon fill="none" stroke="black" points="123.218,-550.873 121.006,-546.059 119.733,-551.201 123.218,-550.873"/>
</g>
<!-- transition14 -->
<g id="node24" class="node"><title>transition14</title>
<polygon fill="none" stroke="black" points="193,-546 157,-546 157,-545 193,-545 193,-546"/>
<text text-anchor="middle" x="137.5" y="-549.8" font-family="Times,serif" font-size="14.00">[sel&#45;]r&#45;</text>
</g>
<!-- p5&#45;&gt;transition14 -->
<g id="edge25" class="edge"><title>p5&#45;&gt;transition14</title>
<path fill="none" stroke="black" d="M137.862,-586.17C148.837,-574.299 164.472,-557.387 171.427,-549.865"/>
<polygon fill="none" stroke="black" points="172.825,-550.93 174.935,-546.071 170.255,-548.554 172.825,-550.93"/>
</g>
<!-- transition3&#45;&gt;p5 -->
<g id="edge4" class="edge"><title>transition3&#45;&gt;p5</title>
<path fill="none" stroke="black" d="M134.993,-670.949C134.839,-669.748 131.969,-647.429 129.513,-628.321"/>
<polygon fill="black" stroke="black" points="132.957,-627.663 128.21,-618.191 126.014,-628.556 132.957,-627.663"/>
</g>
<!-- p6 -->
<g id="node6" class="node"><title>p6</title>
<ellipse fill="none" stroke="black" cx="121" cy="-491" rx="18" ry="18"/>
<text text-anchor="middle" x="121" y="-487.3" font-family="Times,serif" font-size="14.00">p6</text>
</g>
<!-- transition11 -->
<g id="node9" class="node"><title>transition11</title>
<polygon fill="none" stroke="black" points="139,-437 103,-437 103,-436 139,-436 139,-437"/>
<text text-anchor="middle" x="95.5" y="-440.8" font-family="Times,serif" font-size="14.00">a+</text>
</g>
<!-- p6&#45;&gt;transition11 -->
<g id="edge7" class="edge"><title>p6&#45;&gt;transition11</title>
<path fill="none" stroke="black" d="M121,-472.939C121,-462.385 121,-449.534 121,-442.412"/>
<polygon fill="none" stroke="black" points="122.75,-442.059 121,-437.059 119.25,-442.059 122.75,-442.059"/>
</g>
<!-- transition10&#45;&gt;p6 -->
<g id="edge6" class="edge"><title>transition10&#45;&gt;p6</title>
<path fill="none" stroke="black" d="M121,-544.848C121,-543.368 121,-531.319 121,-519.1"/>
<polygon fill="black" stroke="black" points="124.5,-519.025 121,-509.025 117.5,-519.025 124.5,-519.025"/>
</g>
<!-- p13 -->
<g id="node8" class="node"><title>p13</title>
<ellipse fill="none" stroke="black" cx="121" cy="-382" rx="18" ry="18"/>
<text text-anchor="middle" x="121" y="-378.3" font-family="Times,serif" font-size="14.00">p13</text>
</g>
<!-- transition8 -->
<g id="node11" class="node"><title>transition8</title>
<polygon fill="none" stroke="black" points="139,-328 103,-328 103,-327 139,-327 139,-328"/>
<text text-anchor="middle" x="80" y="-331.8" font-family="Times,serif" font-size="14.00">[sel+]r+</text>
</g>
<!-- p13&#45;&gt;transition8 -->
<g id="edge9" class="edge"><title>p13&#45;&gt;transition8</title>
<path fill="none" stroke="black" d="M121,-363.939C121,-353.385 121,-340.534 121,-333.412"/>
<polygon fill="none" stroke="black" points="122.75,-333.059 121,-328.059 119.25,-333.059 122.75,-333.059"/>
</g>
<!-- transition12 -->
<g id="node14" class="node"><title>transition12</title>
<polygon fill="none" stroke="black" points="193,-328 157,-328 157,-327 193,-327 193,-328"/>
<text text-anchor="middle" x="135.5" y="-331.8" font-family="Times,serif" font-size="14.00">[sel&#45;]r+</text>
</g>
<!-- p13&#45;&gt;transition12 -->
<g id="edge13" class="edge"><title>p13&#45;&gt;transition12</title>
<path fill="none" stroke="black" d="M133.524,-368.708C145.598,-356.858 163.153,-339.627 170.977,-331.948"/>
<polygon fill="none" stroke="black" points="172.584,-332.824 174.926,-328.072 170.132,-330.326 172.584,-332.824"/>
</g>
<!-- transition11&#45;&gt;p13 -->
<g id="edge8" class="edge"><title>transition11&#45;&gt;p13</title>
<path fill="none" stroke="black" d="M121,-435.848C121,-434.368 121,-422.319 121,-410.1"/>
<polygon fill="black" stroke="black" points="124.5,-410.025 121,-400.025 117.5,-410.025 124.5,-410.025"/>
</g>
<!-- p14 -->
<g id="node10" class="node"><title>p14</title>
<ellipse fill="none" stroke="black" cx="121" cy="-273" rx="18" ry="18"/>
<text text-anchor="middle" x="121" y="-269.3" font-family="Times,serif" font-size="14.00">p14</text>
</g>
<!-- transition9 -->
<g id="node12" class="node"><title>transition9</title>
<polygon fill="none" stroke="black" points="47,-219 11,-219 11,-218 47,-218 47,-219"/>
<text text-anchor="middle" x="5.5" y="-222.8" font-family="Times,serif" font-size="14.00">a&#45;</text>
</g>
<!-- p14&#45;&gt;transition9 -->
<g id="edge11" class="edge"><title>p14&#45;&gt;transition9</title>
<path fill="none" stroke="black" d="M105.808,-263.248C84.4494,-250.944 46.6905,-229.191 33.612,-221.657"/>
<polygon fill="none" stroke="black" points="34.3523,-220.064 29.1462,-219.084 32.6051,-223.097 34.3523,-220.064"/>
</g>
<!-- transition8&#45;&gt;p14 -->
<g id="edge10" class="edge"><title>transition8&#45;&gt;p14</title>
<path fill="none" stroke="black" d="M121,-326.848C121,-325.368 121,-313.319 121,-301.1"/>
<polygon fill="black" stroke="black" points="124.5,-301.025 121,-291.025 117.5,-301.025 124.5,-301.025"/>
</g>
<!-- transition9&#45;&gt;p5 -->
<g id="edge12" class="edge"><title>transition9&#45;&gt;p5</title>
<path fill="none" stroke="black" d="M29.0029,-219.044C29.124,-220.871 33,-279.718 33,-327 33,-492 33,-492 33,-492 33,-533.793 73.9169,-567.22 101.47,-584.992"/>
<polygon fill="black" stroke="black" points="99.8784,-588.122 110.224,-590.408 103.562,-582.17 99.8784,-588.122"/>
</g>
<!-- p18 -->
<g id="node13" class="node"><title>p18</title>
<ellipse fill="none" stroke="black" cx="175" cy="-273" rx="18" ry="18"/>
<text text-anchor="middle" x="175" y="-269.3" font-family="Times,serif" font-size="14.00">p18</text>
</g>
<!-- transition13 -->
<g id="node16" class="node"><title>transition13</title>
<polygon fill="none" stroke="black" points="193,-219 157,-219 157,-218 193,-218 193,-219"/>
<text text-anchor="middle" x="148" y="-222.8" font-family="Times,serif" font-size="14.00">s2&#45;</text>
</g>
<!-- p18&#45;&gt;transition13 -->
<g id="edge15" class="edge"><title>p18&#45;&gt;transition13</title>
<path fill="none" stroke="black" d="M175,-254.939C175,-244.385 175,-231.534 175,-224.412"/>
<polygon fill="none" stroke="black" points="176.75,-224.059 175,-219.059 173.25,-224.059 176.75,-224.059"/>
</g>
<!-- transition12&#45;&gt;p18 -->
<g id="edge14" class="edge"><title>transition12&#45;&gt;p18</title>
<path fill="none" stroke="black" d="M175,-326.848C175,-325.368 175,-313.319 175,-301.1"/>
<polygon fill="black" stroke="black" points="178.5,-301.025 175,-291.025 171.5,-301.025 178.5,-301.025"/>
</g>
<!-- p9 -->
<g id="node15" class="node"><title>p9</title>
<ellipse fill="none" stroke="black" cx="198" cy="-164" rx="18" ry="18"/>
<text text-anchor="middle" x="198" y="-160.3" font-family="Times,serif" font-size="14.00">p9</text>
</g>
<!-- transition6 -->
<g id="node18" class="node"><title>transition6</title>
<polygon fill="none" stroke="black" points="188,-110 152,-110 152,-109 188,-109 188,-110"/>
<text text-anchor="middle" x="132.5" y="-113.8" font-family="Times,serif" font-size="14.00">[sel&#45;]r&#45;</text>
</g>
<!-- p9&#45;&gt;transition6 -->
<g id="edge17" class="edge"><title>p9&#45;&gt;transition6</title>
<path fill="none" stroke="black" d="M189.901,-147.67C184.018,-136.534 176.433,-122.177 172.546,-114.818"/>
<polygon fill="none" stroke="black" points="173.917,-113.667 170.034,-110.064 170.822,-115.302 173.917,-113.667"/>
</g>
<!-- transition4 -->
<g id="node21" class="node"><title>transition4</title>
<polygon fill="none" stroke="black" points="242,-110 206,-110 206,-109 242,-109 242,-110"/>
<text text-anchor="middle" x="184.5" y="-113.8" font-family="Times,serif" font-size="14.00">[sel+]r&#45;</text>
</g>
<!-- p9&#45;&gt;transition4 -->
<g id="edge21" class="edge"><title>p9&#45;&gt;transition4</title>
<path fill="none" stroke="black" d="M205.66,-147.385C211.116,-136.263 218.092,-122.044 221.663,-114.764"/>
<polygon fill="none" stroke="black" points="223.338,-115.323 223.969,-110.063 220.196,-113.781 223.338,-115.323"/>
</g>
<!-- transition13&#45;&gt;p9 -->
<g id="edge16" class="edge"><title>transition13&#45;&gt;p9</title>
<path fill="none" stroke="black" d="M175.066,-217.848C175.738,-216.3 181.429,-203.185 186.974,-190.409"/>
<polygon fill="black" stroke="black" points="190.329,-191.469 191.099,-180.902 183.908,-188.682 190.329,-191.469"/>
</g>
<!-- p15 -->
<g id="node17" class="node"><title>p15</title>
<ellipse fill="none" stroke="black" cx="164" cy="-55" rx="18" ry="18"/>
<text text-anchor="middle" x="164" y="-51.3" font-family="Times,serif" font-size="14.00">p15</text>
</g>
<!-- transition7 -->
<g id="node19" class="node"><title>transition7</title>
<polygon fill="none" stroke="black" points="182,-1 146,-1 146,-0 182,-0 182,-1"/>
<text text-anchor="middle" x="135.5" y="-4.8" font-family="Times,serif" font-size="14.00">s2+</text>
</g>
<!-- p15&#45;&gt;transition7 -->
<g id="edge19" class="edge"><title>p15&#45;&gt;transition7</title>
<path fill="none" stroke="black" d="M164,-36.9387C164,-26.3852 164,-13.5344 164,-6.41235"/>
<polygon fill="none" stroke="black" points="165.75,-6.05909 164,-1.05912 162.25,-6.05916 165.75,-6.05909"/>
</g>
<!-- transition6&#45;&gt;p15 -->
<g id="edge18" class="edge"><title>transition6&#45;&gt;p15</title>
<path fill="none" stroke="black" d="M169.983,-108.848C169.815,-107.368 168.451,-95.3194 167.068,-83.1004"/>
<polygon fill="black" stroke="black" points="170.53,-82.5675 165.927,-73.0247 163.575,-83.355 170.53,-82.5675"/>
</g>
<!-- transition7&#45;&gt;p13 -->
<g id="edge20" class="edge"><title>transition7&#45;&gt;p13</title>
<path fill="none" stroke="black" d="M163.935,-1.03343C161.24,-2.4353 75,-47.7734 75,-109 75,-274 75,-274 75,-274 75,-305.176 91.6861,-337.612 104.959,-358.481"/>
<polygon fill="black" stroke="black" points="102.123,-360.539 110.562,-366.945 107.96,-356.674 102.123,-360.539"/>
</g>
<!-- p10 -->
<g id="node20" class="node"><title>p10</title>
<ellipse fill="none" stroke="black" cx="230" cy="-55" rx="18" ry="18"/>
<text text-anchor="middle" x="230" y="-51.3" font-family="Times,serif" font-size="14.00">p10</text>
</g>
<!-- transition5 -->
<g id="node22" class="node"><title>transition5</title>
<polygon fill="none" stroke="black" points="260,-1 224,-1 224,-0 260,-0 260,-1"/>
<text text-anchor="middle" x="218.5" y="-4.8" font-family="Times,serif" font-size="14.00">a&#45;</text>
</g>
<!-- p10&#45;&gt;transition5 -->
<g id="edge23" class="edge"><title>p10&#45;&gt;transition5</title>
<path fill="none" stroke="black" d="M233.797,-37.2305C236.245,-26.4189 239.261,-13.0981 240.867,-6.00401"/>
<polygon fill="none" stroke="black" points="242.589,-6.3229 241.986,-1.05986 239.175,-5.54996 242.589,-6.3229"/>
</g>
<!-- transition4&#45;&gt;p10 -->
<g id="edge22" class="edge"><title>transition4&#45;&gt;p10</title>
<path fill="none" stroke="black" d="M224.017,-108.848C224.185,-107.368 225.549,-95.3194 226.932,-83.1004"/>
<polygon fill="black" stroke="black" points="230.425,-83.355 228.073,-73.0247 223.47,-82.5675 230.425,-83.355"/>
</g>
<!-- transition5&#45;&gt;p1 -->
<g id="edge24" class="edge"><title>transition5&#45;&gt;p1</title>
<path fill="none" stroke="black" d="M242.158,-1.15694C245.384,-4.38312 297,-56.8174 297,-109 297,-745 297,-745 297,-745 297,-778.746 274.217,-811.871 256.966,-832.114"/>
<polygon fill="black" stroke="black" points="254.241,-829.912 250.225,-839.716 259.478,-834.556 254.241,-829.912"/>
</g>
<!-- p17 -->
<g id="node23" class="node"><title>p17</title>
<ellipse fill="none" stroke="black" cx="175" cy="-491" rx="18" ry="18"/>
<text text-anchor="middle" x="175" y="-487.3" font-family="Times,serif" font-size="14.00">p17</text>
</g>
<!-- transition15 -->
<g id="node25" class="node"><title>transition15</title>
<polygon fill="none" stroke="black" points="193,-437 157,-437 157,-436 193,-436 193,-437"/>
<text text-anchor="middle" x="148" y="-440.8" font-family="Times,serif" font-size="14.00">s2&#45;</text>
</g>
<!-- p17&#45;&gt;transition15 -->
<g id="edge27" class="edge"><title>p17&#45;&gt;transition15</title>
<path fill="none" stroke="black" d="M175,-472.939C175,-462.385 175,-449.534 175,-442.412"/>
<polygon fill="none" stroke="black" points="176.75,-442.059 175,-437.059 173.25,-442.059 176.75,-442.059"/>
</g>
<!-- transition14&#45;&gt;p17 -->
<g id="edge26" class="edge"><title>transition14&#45;&gt;p17</title>
<path fill="none" stroke="black" d="M175,-544.848C175,-543.368 175,-531.319 175,-519.1"/>
<polygon fill="black" stroke="black" points="178.5,-519.025 175,-509.025 171.5,-519.025 178.5,-519.025"/>
</g>
<!-- transition15&#45;&gt;p1 -->
<g id="edge28" class="edge"><title>transition15&#45;&gt;p1</title>
<path fill="none" stroke="black" d="M175.061,-437.034C177.604,-438.478 259,-485.141 259,-545 259,-745 259,-745 259,-745 259,-772.982 251.999,-804.323 246.082,-825.815"/>
<polygon fill="black" stroke="black" points="242.692,-824.939 243.299,-835.517 249.42,-826.869 242.692,-824.939"/>
</g>
<!-- p2 -->
<g id="node26" class="node"><title>p2</title>
<ellipse fill="none" stroke="black" cx="213" cy="-672" rx="18" ry="18"/>
<text text-anchor="middle" x="213" y="-668.3" font-family="Times,serif" font-size="14.00">p2</text>
</g>
<!-- transition1 -->
<g id="node28" class="node"><title>transition1</title>
<polygon fill="none" stroke="black" points="231,-600.5 195,-600.5 195,-599.5 231,-599.5 231,-600.5"/>
<text text-anchor="middle" x="187.5" y="-604.3" font-family="Times,serif" font-size="14.00">a+</text>
</g>
<!-- p2&#45;&gt;transition1 -->
<g id="edge31" class="edge"><title>p2&#45;&gt;transition1</title>
<path fill="none" stroke="black" d="M213,-653.697C213,-638.165 213,-616.324 213,-606.348"/>
<polygon fill="none" stroke="black" points="214.75,-606.092 213,-601.092 211.25,-606.092 214.75,-606.092"/>
</g>
<!-- transition0&#45;&gt;p2 -->
<g id="edge30" class="edge"><title>transition0&#45;&gt;p2</title>
<path fill="none" stroke="black" d="M213,-742.949C213,-741.748 213,-719.429 213,-700.321"/>
<polygon fill="black" stroke="black" points="216.5,-700.191 213,-690.191 209.5,-700.191 216.5,-700.191"/>
</g>
<!-- transition1&#45;&gt;p9 -->
<g id="edge32" class="edge"><title>transition1&#45;&gt;p9</title>
<path fill="none" stroke="black" d="M213.006,-598.957C213.248,-597.149 221,-538.943 221,-492 221,-492 221,-492 221,-272 221,-243.751 213.243,-212.226 206.738,-190.756"/>
<polygon fill="black" stroke="black" points="210.033,-189.566 203.685,-181.083 203.358,-191.673 210.033,-189.566"/>
</g>
</g>
</svg>
