<?xml version="1.0" encoding="UTF-8" standalone="no"?>
<!DOCTYPE svg PUBLIC "-//W3C//DTD SVG 1.1//EN"
 "http://www.w3.org/Graphics/SVG/1.1/DTD/svg11.dtd">
<!-- Generated by graphviz version 2.38.0 (20140413.2041)
 -->
<!-- Title: %3 Pages: 1 -->
<svg width="356pt" height="1533pt"
 viewBox="0.00 0.00 356.00 1533.00" xmlns="http://www.w3.org/2000/svg" xmlns:xlink="http://www.w3.org/1999/xlink">
<g id="graph0" class="graph" transform="scale(1 1) rotate(0) translate(4 1529)">
<title>%3</title>
<polygon fill="white" stroke="none" points="-4,4 -4,-1529 352,-1529 352,4 -4,4"/>
<!-- p1 -->
<g id="node1" class="node"><title>p1</title>
<ellipse fill="none" stroke="black" cx="277" cy="-1507" rx="18" ry="18"/>
<text text-anchor="middle" x="277" y="-1503.3" font-family="Times,serif" font-size="14.00">p1</text>
</g>
<!-- transition0 -->
<g id="node3" class="node"><title>transition0</title>
<polygon fill="none" stroke="black" points="201,-1453 165,-1453 165,-1452 201,-1452 201,-1453"/>
<text text-anchor="middle" x="143.5" y="-1456.8" font-family="Times,serif" font-size="14.00">[sel&#45;]r+</text>
</g>
<!-- p1&#45;&gt;transition0 -->
<g id="edge1" class="edge"><title>p1&#45;&gt;transition0</title>
<path fill="none" stroke="black" d="M261.478,-1497.25C239.655,-1484.94 201.075,-1463.19 187.712,-1455.66"/>
<polygon fill="none" stroke="black" points="188.364,-1454.02 183.149,-1453.08 186.645,-1457.06 188.364,-1454.02"/>
</g>
<!-- transition8 -->
<g id="node43" class="node"><title>transition8</title>
<polygon fill="none" stroke="black" points="320,-1398.5 284,-1398.5 284,-1397.5 320,-1397.5 320,-1398.5"/>
<text text-anchor="middle" x="261" y="-1402.3" font-family="Times,serif" font-size="14.00">[sel+]r+</text>
</g>
<!-- p1&#45;&gt;transition8 -->
<g id="edge45" class="edge"><title>p1&#45;&gt;transition8</title>
<path fill="none" stroke="black" d="M280.906,-1489.28C286.692,-1464.52 297.239,-1419.38 300.794,-1404.16"/>
<polygon fill="none" stroke="black" points="302.556,-1404.31 301.99,-1399.04 299.148,-1403.51 302.556,-1404.31"/>
</g>
<!-- p2 -->
<g id="node2" class="node"><title>p2</title>
<ellipse fill="none" stroke="black" cx="170" cy="-1398" rx="18" ry="18"/>
<text text-anchor="middle" x="170" y="-1394.3" font-family="Times,serif" font-size="14.00">p2</text>
</g>
<!-- transition1 -->
<g id="node5" class="node"><title>transition1</title>
<polygon fill="none" stroke="black" points="181,-1326.5 145,-1326.5 145,-1325.5 181,-1325.5 181,-1326.5"/>
<text text-anchor="middle" x="134.5" y="-1330.3" font-family="Times,serif" font-size="14.00">s2+</text>
</g>
<!-- p2&#45;&gt;transition1 -->
<g id="edge3" class="edge"><title>p2&#45;&gt;transition1</title>
<path fill="none" stroke="black" d="M168.305,-1380.05C166.738,-1364.38 164.504,-1342.04 163.51,-1332.1"/>
<polygon fill="none" stroke="black" points="165.248,-1331.89 163.009,-1327.09 161.766,-1332.24 165.248,-1331.89"/>
</g>
<!-- transition0&#45;&gt;p2 -->
<g id="edge2" class="edge"><title>transition0&#45;&gt;p2</title>
<path fill="none" stroke="black" d="M182.963,-1451.85C182.594,-1450.34 179.546,-1437.92 176.499,-1425.5"/>
<polygon fill="black" stroke="black" points="179.888,-1424.62 174.107,-1415.74 173.09,-1426.29 179.888,-1424.62"/>
</g>
<!-- p3 -->
<g id="node4" class="node"><title>p3</title>
<ellipse fill="none" stroke="black" cx="160" cy="-1254" rx="18" ry="18"/>
<text text-anchor="middle" x="160" y="-1250.3" font-family="Times,serif" font-size="14.00">p3</text>
</g>
<!-- transition2 -->
<g id="node7" class="node"><title>transition2</title>
<polygon fill="none" stroke="black" points="150,-1200 114,-1200 114,-1199 150,-1199 150,-1200"/>
<text text-anchor="middle" x="104" y="-1203.8" font-family="Times,serif" font-size="14.00">r2+</text>
</g>
<!-- p3&#45;&gt;transition2 -->
<g id="edge5" class="edge"><title>p3&#45;&gt;transition2</title>
<path fill="none" stroke="black" d="M151.901,-1237.67C146.018,-1226.53 138.433,-1212.18 134.546,-1204.82"/>
<polygon fill="none" stroke="black" points="135.917,-1203.67 132.034,-1200.06 132.822,-1205.3 135.917,-1203.67"/>
</g>
<!-- transition1&#45;&gt;p3 -->
<g id="edge4" class="edge"><title>transition1&#45;&gt;p3</title>
<path fill="none" stroke="black" d="M162.998,-1324.95C162.946,-1323.75 161.99,-1301.43 161.171,-1282.32"/>
<polygon fill="black" stroke="black" points="164.662,-1282.03 160.737,-1272.19 157.668,-1282.33 164.662,-1282.03"/>
</g>
<!-- p4 -->
<g id="node6" class="node"><title>p4</title>
<ellipse fill="none" stroke="black" cx="130" cy="-1145" rx="18" ry="18"/>
<text text-anchor="middle" x="130" y="-1141.3" font-family="Times,serif" font-size="14.00">p4</text>
</g>
<!-- transition3 -->
<g id="node9" class="node"><title>transition3</title>
<polygon fill="none" stroke="black" points="147,-1091 111,-1091 111,-1090 147,-1090 147,-1091"/>
<text text-anchor="middle" x="103.5" y="-1094.8" font-family="Times,serif" font-size="14.00">a+</text>
</g>
<!-- p4&#45;&gt;transition3 -->
<g id="edge7" class="edge"><title>p4&#45;&gt;transition3</title>
<path fill="none" stroke="black" d="M129.678,-1126.94C129.479,-1116.39 129.236,-1103.53 129.102,-1096.41"/>
<polygon fill="none" stroke="black" points="130.845,-1096.03 129.001,-1091.06 127.346,-1096.09 130.845,-1096.03"/>
</g>
<!-- transition2&#45;&gt;p4 -->
<g id="edge6" class="edge"><title>transition2&#45;&gt;p4</title>
<path fill="none" stroke="black" d="M131.994,-1198.85C131.938,-1197.37 131.484,-1185.32 131.023,-1173.1"/>
<polygon fill="black" stroke="black" points="134.517,-1172.89 130.642,-1163.02 127.522,-1173.15 134.517,-1172.89"/>
</g>
<!-- p5 -->
<g id="node8" class="node"><title>p5</title>
<ellipse fill="none" stroke="black" cx="129" cy="-1036" rx="18" ry="18"/>
<text text-anchor="middle" x="129" y="-1032.3" font-family="Times,serif" font-size="14.00">p5</text>
</g>
<!-- transition4 -->
<g id="node11" class="node"><title>transition4</title>
<polygon fill="none" stroke="black" points="224,-982 188,-982 188,-981 224,-981 224,-982"/>
<text text-anchor="middle" x="168.5" y="-985.8" font-family="Times,serif" font-size="14.00">[sel&#45;]r&#45;</text>
</g>
<!-- p5&#45;&gt;transition4 -->
<g id="edge9" class="edge"><title>p5&#45;&gt;transition4</title>
<path fill="none" stroke="black" d="M143.483,-1025.03C161.377,-1012.71 190.796,-992.465 201.732,-984.938"/>
<polygon fill="none" stroke="black" points="202.758,-986.356 205.884,-982.08 200.773,-983.473 202.758,-986.356"/>
</g>
<!-- transition18 -->
<g id="node18" class="node"><title>transition18</title>
<polygon fill="none" stroke="black" points="147,-982 111,-982 111,-981 147,-981 147,-982"/>
<text text-anchor="middle" x="89.5" y="-985.8" font-family="Times,serif" font-size="14.00">[sel+]r&#45;</text>
</g>
<!-- p5&#45;&gt;transition18 -->
<g id="edge17" class="edge"><title>p5&#45;&gt;transition18</title>
<path fill="none" stroke="black" d="M129,-1017.94C129,-1007.39 129,-994.534 129,-987.412"/>
<polygon fill="none" stroke="black" points="130.75,-987.059 129,-982.059 127.25,-987.059 130.75,-987.059"/>
</g>
<!-- transition3&#45;&gt;p5 -->
<g id="edge8" class="edge"><title>transition3&#45;&gt;p5</title>
<path fill="none" stroke="black" d="M129,-1089.85C129,-1088.37 129,-1076.32 129,-1064.1"/>
<polygon fill="black" stroke="black" points="132.5,-1064.02 129,-1054.02 125.5,-1064.02 132.5,-1064.02"/>
</g>
<!-- p6 -->
<g id="node10" class="node"><title>p6</title>
<ellipse fill="none" stroke="black" cx="206" cy="-927" rx="18" ry="18"/>
<text text-anchor="middle" x="206" y="-923.3" font-family="Times,serif" font-size="14.00">p6</text>
</g>
<!-- transition5 -->
<g id="node13" class="node"><title>transition5</title>
<polygon fill="none" stroke="black" points="224,-873 188,-873 188,-872 224,-872 224,-873"/>
<text text-anchor="middle" x="179" y="-876.8" font-family="Times,serif" font-size="14.00">s2&#45;</text>
</g>
<!-- p6&#45;&gt;transition5 -->
<g id="edge11" class="edge"><title>p6&#45;&gt;transition5</title>
<path fill="none" stroke="black" d="M206,-908.939C206,-898.385 206,-885.534 206,-878.412"/>
<polygon fill="none" stroke="black" points="207.75,-878.059 206,-873.059 204.25,-878.059 207.75,-878.059"/>
</g>
<!-- transition4&#45;&gt;p6 -->
<g id="edge10" class="edge"><title>transition4&#45;&gt;p6</title>
<path fill="none" stroke="black" d="M206,-980.848C206,-979.368 206,-967.319 206,-955.1"/>
<polygon fill="black" stroke="black" points="209.5,-955.025 206,-945.025 202.5,-955.025 209.5,-955.025"/>
</g>
<!-- p7 -->
<g id="node12" class="node"><title>p7</title>
<ellipse fill="none" stroke="black" cx="207" cy="-818" rx="18" ry="18"/>
<text text-anchor="middle" x="207" y="-814.3" font-family="Times,serif" font-size="14.00">p7</text>
</g>
<!-- transition6 -->
<g id="node15" class="node"><title>transition6</title>
<polygon fill="none" stroke="black" points="228,-764 192,-764 192,-763 228,-763 228,-764"/>
<text text-anchor="middle" x="183.5" y="-767.8" font-family="Times,serif" font-size="14.00">r2&#45;</text>
</g>
<!-- p7&#45;&gt;transition6 -->
<g id="edge13" class="edge"><title>p7&#45;&gt;transition6</title>
<path fill="none" stroke="black" d="M207.966,-799.939C208.563,-789.385 209.291,-776.534 209.694,-769.412"/>
<polygon fill="none" stroke="black" points="211.461,-769.15 209.997,-764.059 207.967,-768.952 211.461,-769.15"/>
</g>
<!-- transition5&#45;&gt;p7 -->
<g id="edge12" class="edge"><title>transition5&#45;&gt;p7</title>
<path fill="none" stroke="black" d="M206.003,-871.848C206.031,-870.368 206.258,-858.319 206.489,-846.1"/>
<polygon fill="black" stroke="black" points="209.989,-846.089 206.679,-836.025 202.991,-845.957 209.989,-846.089"/>
</g>
<!-- p8 -->
<g id="node14" class="node"><title>p8</title>
<ellipse fill="none" stroke="black" cx="210" cy="-709" rx="18" ry="18"/>
<text text-anchor="middle" x="210" y="-705.3" font-family="Times,serif" font-size="14.00">p8</text>
</g>
<!-- transition7 -->
<g id="node16" class="node"><title>transition7</title>
<polygon fill="none" stroke="black" points="251,-655 215,-655 215,-654 251,-654 251,-655"/>
<text text-anchor="middle" x="209.5" y="-658.8" font-family="Times,serif" font-size="14.00">a&#45;</text>
</g>
<!-- p8&#45;&gt;transition7 -->
<g id="edge15" class="edge"><title>p8&#45;&gt;transition7</title>
<path fill="none" stroke="black" d="M216.901,-692.098C221.721,-680.992 227.831,-666.912 230.956,-659.71"/>
<polygon fill="none" stroke="black" points="232.588,-660.346 232.973,-655.062 229.377,-658.952 232.588,-660.346"/>
</g>
<!-- transition6&#45;&gt;p8 -->
<g id="edge14" class="edge"><title>transition6&#45;&gt;p8</title>
<path fill="none" stroke="black" d="M210,-762.848C210,-761.368 210,-749.319 210,-737.1"/>
<polygon fill="black" stroke="black" points="213.5,-737.025 210,-727.025 206.5,-737.025 213.5,-737.025"/>
</g>
<!-- transition7&#45;&gt;p1 -->
<g id="edge16" class="edge"><title>transition7&#45;&gt;p1</title>
<path fill="none" stroke="black" d="M233.017,-655.043C233.713,-656.839 256,-714.69 256,-763 256,-1399 256,-1399 256,-1399 256,-1426.98 263.001,-1458.32 268.918,-1479.81"/>
<polygon fill="black" stroke="black" points="265.58,-1480.87 271.701,-1489.52 272.308,-1478.94 265.58,-1480.87"/>
</g>
<!-- p18 -->
<g id="node17" class="node"><title>p18</title>
<ellipse fill="none" stroke="black" cx="118" cy="-927" rx="18" ry="18"/>
<text text-anchor="middle" x="118" y="-923.3" font-family="Times,serif" font-size="14.00">p18</text>
</g>
<!-- transition19 -->
<g id="node20" class="node"><title>transition19</title>
<polygon fill="none" stroke="black" points="135,-873 99,-873 99,-872 135,-872 135,-873"/>
<text text-anchor="middle" x="93.5" y="-876.8" font-family="Times,serif" font-size="14.00">a&#45;</text>
</g>
<!-- p18&#45;&gt;transition19 -->
<g id="edge19" class="edge"><title>p18&#45;&gt;transition19</title>
<path fill="none" stroke="black" d="M117.678,-908.939C117.479,-898.385 117.236,-885.534 117.102,-878.412"/>
<polygon fill="none" stroke="black" points="118.845,-878.025 117.001,-873.059 115.346,-878.091 118.845,-878.025"/>
</g>
<!-- transition18&#45;&gt;p18 -->
<g id="edge18" class="edge"><title>transition18&#45;&gt;p18</title>
<path fill="none" stroke="black" d="M128.968,-980.848C128.659,-979.359 126.128,-967.164 123.576,-954.865"/>
<polygon fill="black" stroke="black" points="126.934,-953.822 121.475,-944.742 120.08,-955.245 126.934,-953.822"/>
</g>
<!-- p13 -->
<g id="node19" class="node"><title>p13</title>
<ellipse fill="none" stroke="black" cx="111" cy="-818" rx="18" ry="18"/>
<text text-anchor="middle" x="111" y="-814.3" font-family="Times,serif" font-size="14.00">p13</text>
</g>
<!-- transition16 -->
<g id="node22" class="node"><title>transition16</title>
<polygon fill="none" stroke="black" points="82,-764 46,-764 46,-763 82,-763 82,-764"/>
<text text-anchor="middle" x="23" y="-767.8" font-family="Times,serif" font-size="14.00">[sel+]r+</text>
</g>
<!-- p13&#45;&gt;transition16 -->
<g id="edge21" class="edge"><title>p13&#45;&gt;transition16</title>
<path fill="none" stroke="black" d="M99.382,-803.899C88.8483,-792.02 73.9924,-775.268 67.3903,-767.823"/>
<polygon fill="none" stroke="black" points="68.6888,-766.65 64.062,-764.07 66.0701,-768.972 68.6888,-766.65"/>
</g>
<!-- transition20 -->
<g id="node25" class="node"><title>transition20</title>
<polygon fill="none" stroke="black" points="174,-764 138,-764 138,-763 174,-763 174,-764"/>
<text text-anchor="middle" x="116.5" y="-767.8" font-family="Times,serif" font-size="14.00">[sel&#45;]r+</text>
</g>
<!-- p13&#45;&gt;transition20 -->
<g id="edge25" class="edge"><title>p13&#45;&gt;transition20</title>
<path fill="none" stroke="black" d="M122.355,-803.626C132.243,-791.981 145.972,-775.811 152.404,-768.235"/>
<polygon fill="none" stroke="black" points="154.039,-769.013 155.941,-764.069 151.371,-766.748 154.039,-769.013"/>
</g>
<!-- transition19&#45;&gt;p13 -->
<g id="edge20" class="edge"><title>transition19&#45;&gt;p13</title>
<path fill="none" stroke="black" d="M116.983,-871.848C116.815,-870.368 115.451,-858.319 114.068,-846.1"/>
<polygon fill="black" stroke="black" points="117.53,-845.568 112.927,-836.025 110.575,-846.355 117.53,-845.568"/>
</g>
<!-- p14 -->
<g id="node21" class="node"><title>p14</title>
<ellipse fill="none" stroke="black" cx="64" cy="-709" rx="18" ry="18"/>
<text text-anchor="middle" x="64" y="-705.3" font-family="Times,serif" font-size="14.00">p14</text>
</g>
<!-- transition17 -->
<g id="node23" class="node"><title>transition17</title>
<polygon fill="none" stroke="black" points="59,-655 23,-655 23,-654 59,-654 59,-655"/>
<text text-anchor="middle" x="15.5" y="-658.8" font-family="Times,serif" font-size="14.00">a+</text>
</g>
<!-- p14&#45;&gt;transition17 -->
<g id="edge23" class="edge"><title>p14&#45;&gt;transition17</title>
<path fill="none" stroke="black" d="M57.0992,-692.098C52.2795,-680.992 46.1693,-666.912 43.0441,-659.71"/>
<polygon fill="none" stroke="black" points="44.6228,-658.952 41.027,-655.062 41.4121,-660.346 44.6228,-658.952"/>
</g>
<!-- transition16&#45;&gt;p14 -->
<g id="edge22" class="edge"><title>transition16&#45;&gt;p14</title>
<path fill="none" stroke="black" d="M64,-762.848C64,-761.368 64,-749.319 64,-737.1"/>
<polygon fill="black" stroke="black" points="67.5001,-737.025 64,-727.025 60.5001,-737.025 67.5001,-737.025"/>
</g>
<!-- transition17&#45;&gt;p5 -->
<g id="edge24" class="edge"><title>transition17&#45;&gt;p5</title>
<path fill="none" stroke="black" d="M40.9833,-655.043C40.2869,-656.839 18,-714.69 18,-763 18,-928 18,-928 18,-928 18,-975.059 70.3531,-1007.95 103.151,-1023.93"/>
<polygon fill="black" stroke="black" points="102.079,-1027.3 112.622,-1028.35 105.037,-1020.95 102.079,-1027.3"/>
</g>
<!-- p19 -->
<g id="node24" class="node"><title>p19</title>
<ellipse fill="none" stroke="black" cx="156" cy="-709" rx="18" ry="18"/>
<text text-anchor="middle" x="156" y="-705.3" font-family="Times,serif" font-size="14.00">p19</text>
</g>
<!-- transition21 -->
<g id="node27" class="node"><title>transition21</title>
<polygon fill="none" stroke="black" points="183,-655 147,-655 147,-654 183,-654 183,-655"/>
<text text-anchor="middle" x="138" y="-658.8" font-family="Times,serif" font-size="14.00">s2&#45;</text>
</g>
<!-- p19&#45;&gt;transition21 -->
<g id="edge27" class="edge"><title>p19&#45;&gt;transition21</title>
<path fill="none" stroke="black" d="M158.897,-690.939C160.689,-680.385 162.872,-667.534 164.081,-660.412"/>
<polygon fill="none" stroke="black" points="165.878,-660.282 164.99,-655.059 162.428,-659.696 165.878,-660.282"/>
</g>
<!-- transition20&#45;&gt;p19 -->
<g id="edge26" class="edge"><title>transition20&#45;&gt;p19</title>
<path fill="none" stroke="black" d="M156,-762.848C156,-761.368 156,-749.319 156,-737.1"/>
<polygon fill="black" stroke="black" points="159.5,-737.025 156,-727.025 152.5,-737.025 159.5,-737.025"/>
</g>
<!-- p15 -->
<g id="node26" class="node"><title>p15</title>
<ellipse fill="none" stroke="black" cx="165" cy="-600" rx="18" ry="18"/>
<text text-anchor="middle" x="165" y="-596.3" font-family="Times,serif" font-size="14.00">p15</text>
</g>
<!-- transition22 -->
<g id="node29" class="node"><title>transition22</title>
<polygon fill="none" stroke="black" points="204,-546 168,-546 168,-545 204,-545 204,-546"/>
<text text-anchor="middle" x="159.5" y="-549.8" font-family="Times,serif" font-size="14.00">r2&#45;</text>
</g>
<!-- p15&#45;&gt;transition22 -->
<g id="edge29" class="edge"><title>p15&#45;&gt;transition22</title>
<path fill="none" stroke="black" d="M171.301,-583.098C175.608,-572.228 181.043,-558.51 183.948,-551.179"/>
<polygon fill="none" stroke="black" points="185.76,-551.355 185.975,-546.062 182.507,-550.066 185.76,-551.355"/>
</g>
<!-- transition21&#45;&gt;p15 -->
<g id="edge28" class="edge"><title>transition21&#45;&gt;p15</title>
<path fill="none" stroke="black" d="M165,-653.848C165,-652.368 165,-640.319 165,-628.1"/>
<polygon fill="black" stroke="black" points="168.5,-628.025 165,-618.025 161.5,-628.025 168.5,-628.025"/>
</g>
<!-- p16 -->
<g id="node28" class="node"><title>p16</title>
<ellipse fill="none" stroke="black" cx="227" cy="-491" rx="18" ry="18"/>
<text text-anchor="middle" x="227" y="-487.3" font-family="Times,serif" font-size="14.00">p16</text>
</g>
<!-- transition23 -->
<g id="node31" class="node"><title>transition23</title>
<polygon fill="none" stroke="black" points="270,-437 234,-437 234,-436 270,-436 270,-437"/>
<text text-anchor="middle" x="226.5" y="-440.8" font-family="Times,serif" font-size="14.00">a+</text>
</g>
<!-- p16&#45;&gt;transition23 -->
<g id="edge31" class="edge"><title>p16&#45;&gt;transition23</title>
<path fill="none" stroke="black" d="M234.366,-474.385C239.612,-463.263 246.319,-449.044 249.753,-441.764"/>
<polygon fill="none" stroke="black" points="251.42,-442.332 251.97,-437.063 248.254,-440.838 251.42,-442.332"/>
</g>
<!-- transition22&#45;&gt;p16 -->
<g id="edge30" class="edge"><title>transition22&#45;&gt;p16</title>
<path fill="none" stroke="black" d="M186.118,-544.848C187.425,-543.159 199.385,-527.697 210.034,-513.931"/>
<polygon fill="black" stroke="black" points="213.038,-515.769 216.388,-505.718 207.501,-511.486 213.038,-515.769"/>
</g>
<!-- p9 -->
<g id="node30" class="node"><title>p9</title>
<ellipse fill="none" stroke="black" cx="275" cy="-382" rx="18" ry="18"/>
<text text-anchor="middle" x="275" y="-378.3" font-family="Times,serif" font-size="14.00">p9</text>
</g>
<!-- transition12 -->
<g id="node33" class="node"><title>transition12</title>
<polygon fill="none" stroke="black" points="205,-328 169,-328 169,-327 205,-327 205,-328"/>
<text text-anchor="middle" x="149.5" y="-331.8" font-family="Times,serif" font-size="14.00">[sel&#45;]r&#45;</text>
</g>
<!-- p9&#45;&gt;transition12 -->
<g id="edge33" class="edge"><title>p9&#45;&gt;transition12</title>
<path fill="none" stroke="black" d="M259.672,-371.768C239.254,-359.471 204.247,-338.388 191.67,-330.813"/>
<polygon fill="none" stroke="black" points="192.323,-329.163 187.137,-328.082 190.517,-332.161 192.323,-329.163"/>
</g>
<!-- transition10 -->
<g id="node40" class="node"><title>transition10</title>
<polygon fill="none" stroke="black" points="305,-328 269,-328 269,-327 305,-327 305,-328"/>
<text text-anchor="middle" x="247.5" y="-331.8" font-family="Times,serif" font-size="14.00">[sel+]r&#45;</text>
</g>
<!-- p9&#45;&gt;transition10 -->
<g id="edge41" class="edge"><title>p9&#45;&gt;transition10</title>
<path fill="none" stroke="black" d="M278.797,-364.23C281.245,-353.419 284.261,-340.098 285.867,-333.004"/>
<polygon fill="none" stroke="black" points="287.589,-333.323 286.986,-328.06 284.175,-332.55 287.589,-333.323"/>
</g>
<!-- transition23&#45;&gt;p9 -->
<g id="edge32" class="edge"><title>transition23&#45;&gt;p9</title>
<path fill="none" stroke="black" d="M252.066,-435.848C252.738,-434.3 258.429,-421.185 263.974,-408.409"/>
<polygon fill="black" stroke="black" points="267.329,-409.469 268.099,-398.902 260.908,-406.682 267.329,-409.469"/>
</g>
<!-- p20 -->
<g id="node32" class="node"><title>p20</title>
<ellipse fill="none" stroke="black" cx="186" cy="-273" rx="18" ry="18"/>
<text text-anchor="middle" x="186" y="-269.3" font-family="Times,serif" font-size="14.00">p20</text>
</g>
<!-- transition13 -->
<g id="node35" class="node"><title>transition13</title>
<polygon fill="none" stroke="black" points="196,-219 160,-219 160,-218 196,-218 196,-219"/>
<text text-anchor="middle" x="149.5" y="-222.8" font-family="Times,serif" font-size="14.00">s2+</text>
</g>
<!-- p20&#45;&gt;transition13 -->
<g id="edge35" class="edge"><title>p20&#45;&gt;transition13</title>
<path fill="none" stroke="black" d="M183.425,-254.939C181.832,-244.385 179.892,-231.534 178.817,-224.412"/>
<polygon fill="none" stroke="black" points="180.486,-223.742 178.009,-219.059 177.025,-224.264 180.486,-223.742"/>
</g>
<!-- transition12&#45;&gt;p20 -->
<g id="edge34" class="edge"><title>transition12&#45;&gt;p20</title>
<path fill="none" stroke="black" d="M186.997,-326.848C186.969,-325.368 186.742,-313.319 186.511,-301.1"/>
<polygon fill="black" stroke="black" points="190.009,-300.957 186.321,-291.025 183.011,-301.089 190.009,-300.957"/>
</g>
<!-- p11 -->
<g id="node34" class="node"><title>p11</title>
<ellipse fill="none" stroke="black" cx="163" cy="-164" rx="18" ry="18"/>
<text text-anchor="middle" x="163" y="-160.3" font-family="Times,serif" font-size="14.00">p11</text>
</g>
<!-- transition14 -->
<g id="node37" class="node"><title>transition14</title>
<polygon fill="none" stroke="black" points="177,-110 141,-110 141,-109 177,-109 177,-110"/>
<text text-anchor="middle" x="131" y="-113.8" font-family="Times,serif" font-size="14.00">r2+</text>
</g>
<!-- p11&#45;&gt;transition14 -->
<g id="edge37" class="edge"><title>p11&#45;&gt;transition14</title>
<path fill="none" stroke="black" d="M161.712,-145.939C160.916,-135.385 159.946,-122.534 159.408,-115.412"/>
<polygon fill="none" stroke="black" points="161.126,-114.913 159.004,-110.059 157.636,-115.177 161.126,-114.913"/>
</g>
<!-- transition13&#45;&gt;p11 -->
<g id="edge36" class="edge"><title>transition13&#45;&gt;p11</title>
<path fill="none" stroke="black" d="M177.957,-217.848C177.528,-216.334 173.97,-203.761 170.432,-191.259"/>
<polygon fill="black" stroke="black" points="173.75,-190.13 167.659,-181.461 167.014,-192.036 173.75,-190.13"/>
</g>
<!-- p12 -->
<g id="node36" class="node"><title>p12</title>
<ellipse fill="none" stroke="black" cx="157" cy="-55" rx="18" ry="18"/>
<text text-anchor="middle" x="157" y="-51.3" font-family="Times,serif" font-size="14.00">p12</text>
</g>
<!-- transition15 -->
<g id="node38" class="node"><title>transition15</title>
<polygon fill="none" stroke="black" points="151,-1 115,-1 115,-0 151,-0 151,-1"/>
<text text-anchor="middle" x="109.5" y="-4.8" font-family="Times,serif" font-size="14.00">a&#45;</text>
</g>
<!-- p12&#45;&gt;transition15 -->
<g id="edge39" class="edge"><title>p12&#45;&gt;transition15</title>
<path fill="none" stroke="black" d="M149.929,-38.3849C144.893,-27.2627 138.454,-13.0442 135.157,-5.76429"/>
<polygon fill="none" stroke="black" points="136.685,-4.89575 133.028,-1.06287 133.497,-6.33956 136.685,-4.89575"/>
</g>
<!-- transition14&#45;&gt;p12 -->
<g id="edge38" class="edge"><title>transition14&#45;&gt;p12</title>
<path fill="none" stroke="black" d="M158.994,-108.848C158.938,-107.368 158.484,-95.3194 158.023,-83.1004"/>
<polygon fill="black" stroke="black" points="161.517,-82.8856 157.642,-73.0247 154.522,-83.1496 161.517,-82.8856"/>
</g>
<!-- transition15&#45;&gt;p13 -->
<g id="edge40" class="edge"><title>transition15&#45;&gt;p13</title>
<path fill="none" stroke="black" d="M132.983,-1.04289C132.287,-2.83896 110,-60.6904 110,-109 110,-710 110,-710 110,-710 110,-737.176 110.327,-768.232 110.606,-789.86"/>
<polygon fill="black" stroke="black" points="107.108,-789.999 110.742,-799.951 114.107,-789.905 107.108,-789.999"/>
</g>
<!-- p10 -->
<g id="node39" class="node"><title>p10</title>
<ellipse fill="none" stroke="black" cx="287" cy="-273" rx="18" ry="18"/>
<text text-anchor="middle" x="287" y="-269.3" font-family="Times,serif" font-size="14.00">p10</text>
</g>
<!-- transition11 -->
<g id="node41" class="node"><title>transition11</title>
<polygon fill="none" stroke="black" points="335,-219 299,-219 299,-218 335,-218 335,-219"/>
<text text-anchor="middle" x="293.5" y="-222.8" font-family="Times,serif" font-size="14.00">a&#45;</text>
</g>
<!-- p10&#45;&gt;transition11 -->
<g id="edge43" class="edge"><title>p10&#45;&gt;transition11</title>
<path fill="none" stroke="black" d="M295.517,-256.954C301.826,-245.807 310.032,-231.311 314.242,-223.873"/>
<polygon fill="none" stroke="black" points="316.023,-224.278 316.964,-219.064 312.978,-222.554 316.023,-224.278"/>
</g>
<!-- transition10&#45;&gt;p10 -->
<g id="edge42" class="edge"><title>transition10&#45;&gt;p10</title>
<path fill="none" stroke="black" d="M287,-326.848C287,-325.368 287,-313.319 287,-301.1"/>
<polygon fill="black" stroke="black" points="290.5,-301.025 287,-291.025 283.5,-301.025 290.5,-301.025"/>
</g>
<!-- transition11&#45;&gt;p1 -->
<g id="edge44" class="edge"><title>transition11&#45;&gt;p1</title>
<path fill="none" stroke="black" d="M317.089,-219.168C318.907,-222.621 348,-278.622 348,-327 348,-1399 348,-1399 348,-1399 348,-1435.37 319.161,-1468.85 298.242,-1488.34"/>
<polygon fill="black" stroke="black" points="295.804,-1485.83 290.69,-1495.1 300.474,-1491.04 295.804,-1485.83"/>
</g>
<!-- p17 -->
<g id="node42" class="node"><title>p17</title>
<ellipse fill="none" stroke="black" cx="302" cy="-1326" rx="18" ry="18"/>
<text text-anchor="middle" x="302" y="-1322.3" font-family="Times,serif" font-size="14.00">p17</text>
</g>
<!-- transition9 -->
<g id="node44" class="node"><title>transition9</title>
<polygon fill="none" stroke="black" points="320,-1254.5 284,-1254.5 284,-1253.5 320,-1253.5 320,-1254.5"/>
<text text-anchor="middle" x="276.5" y="-1258.3" font-family="Times,serif" font-size="14.00">a+</text>
</g>
<!-- p17&#45;&gt;transition9 -->
<g id="edge47" class="edge"><title>p17&#45;&gt;transition9</title>
<path fill="none" stroke="black" d="M302,-1307.7C302,-1292.17 302,-1270.32 302,-1260.35"/>
<polygon fill="none" stroke="black" points="303.75,-1260.09 302,-1255.09 300.25,-1260.09 303.75,-1260.09"/>
</g>
<!-- transition8&#45;&gt;p17 -->
<g id="edge46" class="edge"><title>transition8&#45;&gt;p17</title>
<path fill="none" stroke="black" d="M302,-1396.95C302,-1395.75 302,-1373.43 302,-1354.32"/>
<polygon fill="black" stroke="black" points="305.5,-1354.19 302,-1344.19 298.5,-1354.19 305.5,-1354.19"/>
</g>
<!-- transition9&#45;&gt;p9 -->
<g id="edge48" class="edge"><title>transition9&#45;&gt;p9</title>
<path fill="none" stroke="black" d="M301.997,-1252.96C301.876,-1251.15 298,-1192.85 298,-1146 298,-1146 298,-1146 298,-490 298,-461.751 290.243,-430.226 283.738,-408.756"/>
<polygon fill="black" stroke="black" points="287.033,-407.566 280.685,-399.083 280.358,-409.673 287.033,-407.566"/>
</g>
</g>
</svg>
