<?xml version="1.0" encoding="UTF-8" standalone="no"?>
<!DOCTYPE svg PUBLIC "-//W3C//DTD SVG 1.1//EN"
 "http://www.w3.org/Graphics/SVG/1.1/DTD/svg11.dtd">
<!-- Generated by graphviz version 2.38.0 (20140413.2041)
 -->
<!-- Title: %3 Pages: 1 -->
<svg width="353pt" height="1533pt"
 viewBox="0.00 0.00 353.00 1533.00" xmlns="http://www.w3.org/2000/svg" xmlns:xlink="http://www.w3.org/1999/xlink">
<g id="graph0" class="graph" transform="scale(1 1) rotate(0) translate(4 1529)">
<title>%3</title>
<polygon fill="white" stroke="none" points="-4,4 -4,-1529 349,-1529 349,4 -4,4"/>
<!-- p1 -->
<g id="node1" class="node"><title>p1</title>
<ellipse fill="none" stroke="black" cx="274" cy="-1507" rx="18" ry="18"/>
<text text-anchor="middle" x="274" y="-1503.3" font-family="Times,serif" font-size="14.00">p1</text>
</g>
<!-- transition0 -->
<g id="node3" class="node"><title>transition0</title>
<polygon fill="none" stroke="black" points="225,-1453 189,-1453 189,-1452 225,-1452 225,-1453"/>
<text text-anchor="middle" x="167.5" y="-1456.8" font-family="Times,serif" font-size="14.00">[sel&#45;]r+</text>
</g>
<!-- p1&#45;&gt;transition0 -->
<g id="edge1" class="edge"><title>p1&#45;&gt;transition0</title>
<path fill="none" stroke="black" d="M260.118,-1495.02C244.671,-1482.8 220.632,-1463.78 211.097,-1456.24"/>
<polygon fill="none" stroke="black" points="212.104,-1454.81 207.097,-1453.08 209.932,-1457.55 212.104,-1454.81"/>
</g>
<!-- transition8 -->
<g id="node43" class="node"><title>transition8</title>
<polygon fill="none" stroke="black" points="317,-1398.5 281,-1398.5 281,-1397.5 317,-1397.5 317,-1398.5"/>
<text text-anchor="middle" x="258" y="-1402.3" font-family="Times,serif" font-size="14.00">[sel+]r+</text>
</g>
<!-- p1&#45;&gt;transition8 -->
<g id="edge45" class="edge"><title>p1&#45;&gt;transition8</title>
<path fill="none" stroke="black" d="M277.906,-1489.28C283.692,-1464.52 294.239,-1419.38 297.794,-1404.16"/>
<polygon fill="none" stroke="black" points="299.556,-1404.31 298.99,-1399.04 296.148,-1403.51 299.556,-1404.31"/>
</g>
<!-- p2 -->
<g id="node2" class="node"><title>p2</title>
<ellipse fill="none" stroke="black" cx="207" cy="-1398" rx="18" ry="18"/>
<text text-anchor="middle" x="207" y="-1394.3" font-family="Times,serif" font-size="14.00">p2</text>
</g>
<!-- transition1 -->
<g id="node5" class="node"><title>transition1</title>
<polygon fill="none" stroke="black" points="225,-1326.5 189,-1326.5 189,-1325.5 225,-1325.5 225,-1326.5"/>
<text text-anchor="middle" x="178.5" y="-1330.3" font-family="Times,serif" font-size="14.00">s2+</text>
</g>
<!-- p2&#45;&gt;transition1 -->
<g id="edge3" class="edge"><title>p2&#45;&gt;transition1</title>
<path fill="none" stroke="black" d="M207,-1379.7C207,-1364.17 207,-1342.32 207,-1332.35"/>
<polygon fill="none" stroke="black" points="208.75,-1332.09 207,-1327.09 205.25,-1332.09 208.75,-1332.09"/>
</g>
<!-- transition0&#45;&gt;p2 -->
<g id="edge2" class="edge"><title>transition0&#45;&gt;p2</title>
<path fill="none" stroke="black" d="M207,-1451.85C207,-1450.37 207,-1438.32 207,-1426.1"/>
<polygon fill="black" stroke="black" points="210.5,-1426.02 207,-1416.02 203.5,-1426.02 210.5,-1426.02"/>
</g>
<!-- p3 -->
<g id="node4" class="node"><title>p3</title>
<ellipse fill="none" stroke="black" cx="207" cy="-1254" rx="18" ry="18"/>
<text text-anchor="middle" x="207" y="-1250.3" font-family="Times,serif" font-size="14.00">p3</text>
</g>
<!-- transition2 -->
<g id="node7" class="node"><title>transition2</title>
<polygon fill="none" stroke="black" points="202,-1200 166,-1200 166,-1199 202,-1199 202,-1200"/>
<text text-anchor="middle" x="156" y="-1203.8" font-family="Times,serif" font-size="14.00">r2+</text>
</g>
<!-- p3&#45;&gt;transition2 -->
<g id="edge5" class="edge"><title>p3&#45;&gt;transition2</title>
<path fill="none" stroke="black" d="M200.099,-1237.1C195.279,-1225.99 189.169,-1211.91 186.044,-1204.71"/>
<polygon fill="none" stroke="black" points="187.623,-1203.95 184.027,-1200.06 184.412,-1205.35 187.623,-1203.95"/>
</g>
<!-- transition1&#45;&gt;p3 -->
<g id="edge4" class="edge"><title>transition1&#45;&gt;p3</title>
<path fill="none" stroke="black" d="M207,-1324.95C207,-1323.75 207,-1301.43 207,-1282.32"/>
<polygon fill="black" stroke="black" points="210.5,-1282.19 207,-1272.19 203.5,-1282.19 210.5,-1282.19"/>
</g>
<!-- p4 -->
<g id="node6" class="node"><title>p4</title>
<ellipse fill="none" stroke="black" cx="184" cy="-1145" rx="18" ry="18"/>
<text text-anchor="middle" x="184" y="-1141.3" font-family="Times,serif" font-size="14.00">p4</text>
</g>
<!-- transition3 -->
<g id="node9" class="node"><title>transition3</title>
<polygon fill="none" stroke="black" points="202,-1091 166,-1091 166,-1090 202,-1090 202,-1091"/>
<text text-anchor="middle" x="158.5" y="-1094.8" font-family="Times,serif" font-size="14.00">a+</text>
</g>
<!-- p4&#45;&gt;transition3 -->
<g id="edge7" class="edge"><title>p4&#45;&gt;transition3</title>
<path fill="none" stroke="black" d="M184,-1126.94C184,-1116.39 184,-1103.53 184,-1096.41"/>
<polygon fill="none" stroke="black" points="185.75,-1096.06 184,-1091.06 182.25,-1096.06 185.75,-1096.06"/>
</g>
<!-- transition2&#45;&gt;p4 -->
<g id="edge6" class="edge"><title>transition2&#45;&gt;p4</title>
<path fill="none" stroke="black" d="M184,-1198.85C184,-1197.37 184,-1185.32 184,-1173.1"/>
<polygon fill="black" stroke="black" points="187.5,-1173.02 184,-1163.02 180.5,-1173.02 187.5,-1173.02"/>
</g>
<!-- p5 -->
<g id="node8" class="node"><title>p5</title>
<ellipse fill="none" stroke="black" cx="172" cy="-1036" rx="18" ry="18"/>
<text text-anchor="middle" x="172" y="-1032.3" font-family="Times,serif" font-size="14.00">p5</text>
</g>
<!-- transition18 -->
<g id="node11" class="node"><title>transition18</title>
<polygon fill="none" stroke="black" points="106,-982 70,-982 70,-981 106,-981 106,-982"/>
<text text-anchor="middle" x="48.5" y="-985.8" font-family="Times,serif" font-size="14.00">[sel+]r&#45;</text>
</g>
<!-- p5&#45;&gt;transition18 -->
<g id="edge9" class="edge"><title>p5&#45;&gt;transition18</title>
<path fill="none" stroke="black" d="M156.982,-1025.52C137.416,-1013.18 104.301,-992.285 92.4132,-984.784"/>
<polygon fill="none" stroke="black" points="93.2918,-983.27 88.1293,-982.082 91.4241,-986.23 93.2918,-983.27"/>
</g>
<!-- transition4 -->
<g id="node36" class="node"><title>transition4</title>
<polygon fill="none" stroke="black" points="225,-982 189,-982 189,-981 225,-981 225,-982"/>
<text text-anchor="middle" x="169.5" y="-985.8" font-family="Times,serif" font-size="14.00">[sel&#45;]r&#45;</text>
</g>
<!-- p5&#45;&gt;transition4 -->
<g id="edge37" class="edge"><title>p5&#45;&gt;transition4</title>
<path fill="none" stroke="black" d="M181.564,-1020.52C189.093,-1009.12 199.109,-993.949 204.023,-986.507"/>
<polygon fill="none" stroke="black" points="205.661,-987.203 206.956,-982.066 202.741,-985.274 205.661,-987.203"/>
</g>
<!-- transition3&#45;&gt;p5 -->
<g id="edge8" class="edge"><title>transition3&#45;&gt;p5</title>
<path fill="none" stroke="black" d="M183.966,-1089.85C183.625,-1088.34 180.812,-1075.92 177.999,-1063.5"/>
<polygon fill="black" stroke="black" points="181.413,-1062.72 175.791,-1053.74 174.585,-1064.27 181.413,-1062.72"/>
</g>
<!-- p19 -->
<g id="node10" class="node"><title>p19</title>
<ellipse fill="none" stroke="black" cx="84" cy="-927" rx="18" ry="18"/>
<text text-anchor="middle" x="84" y="-923.3" font-family="Times,serif" font-size="14.00">p19</text>
</g>
<!-- transition19 -->
<g id="node13" class="node"><title>transition19</title>
<polygon fill="none" stroke="black" points="89,-873 53,-873 53,-872 89,-872 89,-873"/>
<text text-anchor="middle" x="47.5" y="-876.8" font-family="Times,serif" font-size="14.00">a&#45;</text>
</g>
<!-- p19&#45;&gt;transition19 -->
<g id="edge11" class="edge"><title>p19&#45;&gt;transition19</title>
<path fill="none" stroke="black" d="M79.8867,-909.23C77.2348,-898.419 73.9675,-885.098 72.2274,-878.004"/>
<polygon fill="none" stroke="black" points="73.9055,-877.499 71.0147,-873.06 70.5062,-878.333 73.9055,-877.499"/>
</g>
<!-- transition18&#45;&gt;p19 -->
<g id="edge10" class="edge"><title>transition18&#45;&gt;p19</title>
<path fill="none" stroke="black" d="M87.9885,-980.848C87.8768,-979.368 86.9675,-967.319 86.0453,-955.1"/>
<polygon fill="black" stroke="black" points="89.5276,-954.733 85.2849,-945.025 82.5475,-955.26 89.5276,-954.733"/>
</g>
<!-- p13 -->
<g id="node12" class="node"><title>p13</title>
<ellipse fill="none" stroke="black" cx="64" cy="-818" rx="18" ry="18"/>
<text text-anchor="middle" x="64" y="-814.3" font-family="Times,serif" font-size="14.00">p13</text>
</g>
<!-- transition20 -->
<g id="node15" class="node"><title>transition20</title>
<polygon fill="none" stroke="black" points="79,-764 43,-764 43,-763 79,-763 79,-764"/>
<text text-anchor="middle" x="21.5" y="-767.8" font-family="Times,serif" font-size="14.00">[sel&#45;]r+</text>
</g>
<!-- p13&#45;&gt;transition20 -->
<g id="edge13" class="edge"><title>p13&#45;&gt;transition20</title>
<path fill="none" stroke="black" d="M63.0343,-799.939C62.4369,-789.385 61.7095,-776.534 61.3064,-769.412"/>
<polygon fill="none" stroke="black" points="63.0332,-768.952 61.0033,-764.059 59.5388,-769.15 63.0332,-768.952"/>
</g>
<!-- transition16 -->
<g id="node33" class="node"><title>transition16</title>
<polygon fill="none" stroke="black" points="133,-764 97,-764 97,-763 133,-763 133,-764"/>
<text text-anchor="middle" x="74" y="-767.8" font-family="Times,serif" font-size="14.00">[sel+]r+</text>
</g>
<!-- p13&#45;&gt;transition16 -->
<g id="edge33" class="edge"><title>p13&#45;&gt;transition16</title>
<path fill="none" stroke="black" d="M76.0863,-804.44C87.5004,-792.578 103.927,-775.507 111.241,-767.906"/>
<polygon fill="none" stroke="black" points="112.725,-768.888 114.931,-764.072 110.203,-766.461 112.725,-768.888"/>
</g>
<!-- transition19&#45;&gt;p13 -->
<g id="edge12" class="edge"><title>transition19&#45;&gt;p13</title>
<path fill="none" stroke="black" d="M70.9799,-871.848C70.7845,-870.368 69.1931,-858.319 67.5793,-846.1"/>
<polygon fill="black" stroke="black" points="71.0279,-845.48 66.2486,-836.025 64.0882,-846.397 71.0279,-845.48"/>
</g>
<!-- p18 -->
<g id="node14" class="node"><title>p18</title>
<ellipse fill="none" stroke="black" cx="61" cy="-709" rx="18" ry="18"/>
<text text-anchor="middle" x="61" y="-705.3" font-family="Times,serif" font-size="14.00">p18</text>
</g>
<!-- transition21 -->
<g id="node17" class="node"><title>transition21</title>
<polygon fill="none" stroke="black" points="91,-655 55,-655 55,-654 91,-654 91,-655"/>
<text text-anchor="middle" x="46" y="-658.8" font-family="Times,serif" font-size="14.00">s2&#45;</text>
</g>
<!-- p18&#45;&gt;transition21 -->
<g id="edge15" class="edge"><title>p18&#45;&gt;transition21</title>
<path fill="none" stroke="black" d="M64.7969,-691.23C67.2448,-680.419 70.2608,-667.098 71.867,-660.004"/>
<polygon fill="none" stroke="black" points="73.589,-660.323 72.9864,-655.06 70.1754,-659.55 73.589,-660.323"/>
</g>
<!-- transition20&#45;&gt;p18 -->
<g id="edge14" class="edge"><title>transition20&#45;&gt;p18</title>
<path fill="none" stroke="black" d="M61,-762.848C61,-761.368 61,-749.319 61,-737.1"/>
<polygon fill="black" stroke="black" points="64.5001,-737.025 61,-727.025 57.5001,-737.025 64.5001,-737.025"/>
</g>
<!-- p15 -->
<g id="node16" class="node"><title>p15</title>
<ellipse fill="none" stroke="black" cx="117" cy="-600" rx="18" ry="18"/>
<text text-anchor="middle" x="117" y="-596.3" font-family="Times,serif" font-size="14.00">p15</text>
</g>
<!-- transition22 -->
<g id="node19" class="node"><title>transition22</title>
<polygon fill="none" stroke="black" points="178,-546 142,-546 142,-545 178,-545 178,-546"/>
<text text-anchor="middle" x="133.5" y="-549.8" font-family="Times,serif" font-size="14.00">r2&#45;</text>
</g>
<!-- p15&#45;&gt;transition22 -->
<g id="edge17" class="edge"><title>p15&#45;&gt;transition22</title>
<path fill="none" stroke="black" d="M127.851,-585.626C137.299,-573.981 150.417,-557.811 156.564,-550.235"/>
<polygon fill="none" stroke="black" points="158.153,-551.055 159.944,-546.069 155.435,-548.849 158.153,-551.055"/>
</g>
<!-- transition21&#45;&gt;p15 -->
<g id="edge16" class="edge"><title>transition21&#45;&gt;p15</title>
<path fill="none" stroke="black" d="M73.1262,-653.848C74.5504,-652.132 87.764,-636.216 99.3212,-622.295"/>
<polygon fill="black" stroke="black" points="102.138,-624.381 105.833,-614.451 96.7524,-619.91 102.138,-624.381"/>
</g>
<!-- p16 -->
<g id="node18" class="node"><title>p16</title>
<ellipse fill="none" stroke="black" cx="247" cy="-491" rx="18" ry="18"/>
<text text-anchor="middle" x="247" y="-487.3" font-family="Times,serif" font-size="14.00">p16</text>
</g>
<!-- transition23 -->
<g id="node21" class="node"><title>transition23</title>
<polygon fill="none" stroke="black" points="266,-437 230,-437 230,-436 266,-436 266,-437"/>
<text text-anchor="middle" x="222.5" y="-440.8" font-family="Times,serif" font-size="14.00">a+</text>
</g>
<!-- p16&#45;&gt;transition23 -->
<g id="edge19" class="edge"><title>p16&#45;&gt;transition23</title>
<path fill="none" stroke="black" d="M247.322,-472.939C247.521,-462.385 247.764,-449.534 247.898,-442.412"/>
<polygon fill="none" stroke="black" points="249.654,-442.091 247.999,-437.059 246.155,-442.025 249.654,-442.091"/>
</g>
<!-- transition22&#45;&gt;p16 -->
<g id="edge18" class="edge"><title>transition22&#45;&gt;p16</title>
<path fill="none" stroke="black" d="M160.063,-544.962C161.777,-543.917 198.057,-521.816 223.201,-506.498"/>
<polygon fill="black" stroke="black" points="225.158,-509.405 231.877,-501.213 221.516,-503.427 225.158,-509.405"/>
</g>
<!-- p9 -->
<g id="node20" class="node"><title>p9</title>
<ellipse fill="none" stroke="black" cx="272" cy="-382" rx="18" ry="18"/>
<text text-anchor="middle" x="272" y="-378.3" font-family="Times,serif" font-size="14.00">p9</text>
</g>
<!-- transition10 -->
<g id="node23" class="node"><title>transition10</title>
<polygon fill="none" stroke="black" points="296,-328 260,-328 260,-327 296,-327 296,-328"/>
<text text-anchor="middle" x="238.5" y="-331.8" font-family="Times,serif" font-size="14.00">[sel+]r&#45;</text>
</g>
<!-- p9&#45;&gt;transition10 -->
<g id="edge21" class="edge"><title>p9&#45;&gt;transition10</title>
<path fill="none" stroke="black" d="M273.931,-363.939C275.126,-353.385 276.581,-340.534 277.387,-333.412"/>
<polygon fill="none" stroke="black" points="279.17,-333.224 277.993,-328.059 275.692,-332.831 279.17,-333.224"/>
</g>
<!-- transition12 -->
<g id="node26" class="node"><title>transition12</title>
<polygon fill="none" stroke="black" points="150,-328 114,-328 114,-327 150,-327 150,-328"/>
<text text-anchor="middle" x="94.5" y="-331.8" font-family="Times,serif" font-size="14.00">[sel&#45;]r&#45;</text>
</g>
<!-- p9&#45;&gt;transition12 -->
<g id="edge25" class="edge"><title>p9&#45;&gt;transition12</title>
<path fill="none" stroke="black" d="M255.39,-374.712C223.591,-362.674 155.6,-336.934 136.867,-329.842"/>
<polygon fill="none" stroke="black" points="137.358,-328.157 132.063,-328.024 136.119,-331.431 137.358,-328.157"/>
</g>
<!-- transition23&#45;&gt;p9 -->
<g id="edge20" class="edge"><title>transition23&#45;&gt;p9</title>
<path fill="none" stroke="black" d="M248.069,-435.848C248.781,-434.275 254.902,-420.759 260.774,-407.791"/>
<polygon fill="black" stroke="black" points="263.988,-409.177 264.925,-398.624 257.611,-406.29 263.988,-409.177"/>
</g>
<!-- p10 -->
<g id="node22" class="node"><title>p10</title>
<ellipse fill="none" stroke="black" cx="285" cy="-273" rx="18" ry="18"/>
<text text-anchor="middle" x="285" y="-269.3" font-family="Times,serif" font-size="14.00">p10</text>
</g>
<!-- transition11 -->
<g id="node24" class="node"><title>transition11</title>
<polygon fill="none" stroke="black" points="333,-219 297,-219 297,-218 333,-218 333,-219"/>
<text text-anchor="middle" x="291.5" y="-222.8" font-family="Times,serif" font-size="14.00">a&#45;</text>
</g>
<!-- p10&#45;&gt;transition11 -->
<g id="edge23" class="edge"><title>p10&#45;&gt;transition11</title>
<path fill="none" stroke="black" d="M293.517,-256.954C299.826,-245.807 308.032,-231.311 312.242,-223.873"/>
<polygon fill="none" stroke="black" points="314.023,-224.278 314.964,-219.064 310.978,-222.554 314.023,-224.278"/>
</g>
<!-- transition10&#45;&gt;p10 -->
<g id="edge22" class="edge"><title>transition10&#45;&gt;p10</title>
<path fill="none" stroke="black" d="M278.02,-326.848C278.216,-325.368 279.807,-313.319 281.421,-301.1"/>
<polygon fill="black" stroke="black" points="284.912,-301.397 282.751,-291.025 277.972,-300.48 284.912,-301.397"/>
</g>
<!-- transition11&#45;&gt;p1 -->
<g id="edge24" class="edge"><title>transition11&#45;&gt;p1</title>
<path fill="none" stroke="black" d="M315.086,-219.168C316.846,-222.628 345,-278.739 345,-327 345,-1399 345,-1399 345,-1399 345,-1435.37 316.161,-1468.85 295.242,-1488.34"/>
<polygon fill="black" stroke="black" points="292.804,-1485.83 287.69,-1495.1 297.474,-1491.04 292.804,-1485.83"/>
</g>
<!-- p17 -->
<g id="node25" class="node"><title>p17</title>
<ellipse fill="none" stroke="black" cx="100" cy="-273" rx="18" ry="18"/>
<text text-anchor="middle" x="100" y="-269.3" font-family="Times,serif" font-size="14.00">p17</text>
</g>
<!-- transition13 -->
<g id="node28" class="node"><title>transition13</title>
<polygon fill="none" stroke="black" points="115,-219 79,-219 79,-218 115,-218 115,-219"/>
<text text-anchor="middle" x="68.5" y="-222.8" font-family="Times,serif" font-size="14.00">s2+</text>
</g>
<!-- p17&#45;&gt;transition13 -->
<g id="edge27" class="edge"><title>p17&#45;&gt;transition13</title>
<path fill="none" stroke="black" d="M99.0343,-254.939C98.4369,-244.385 97.7095,-231.534 97.3064,-224.412"/>
<polygon fill="none" stroke="black" points="99.0332,-223.952 97.0033,-219.059 95.5388,-224.15 99.0332,-223.952"/>
</g>
<!-- transition12&#45;&gt;p17 -->
<g id="edge26" class="edge"><title>transition12&#45;&gt;p17</title>
<path fill="none" stroke="black" d="M131.908,-326.848C130.931,-325.23 122.326,-310.978 114.299,-297.683"/>
<polygon fill="black" stroke="black" points="117.1,-295.55 108.935,-288.799 111.108,-299.168 117.1,-295.55"/>
</g>
<!-- p11 -->
<g id="node27" class="node"><title>p11</title>
<ellipse fill="none" stroke="black" cx="78" cy="-164" rx="18" ry="18"/>
<text text-anchor="middle" x="78" y="-160.3" font-family="Times,serif" font-size="14.00">p11</text>
</g>
<!-- transition14 -->
<g id="node30" class="node"><title>transition14</title>
<polygon fill="none" stroke="black" points="86,-110 50,-110 50,-109 86,-109 86,-110"/>
<text text-anchor="middle" x="40" y="-113.8" font-family="Times,serif" font-size="14.00">r2+</text>
</g>
<!-- p11&#45;&gt;transition14 -->
<g id="edge29" class="edge"><title>p11&#45;&gt;transition14</title>
<path fill="none" stroke="black" d="M74.8359,-146.23C72.796,-135.419 70.2827,-122.098 68.9442,-115.004"/>
<polygon fill="none" stroke="black" points="70.6581,-114.649 68.0113,-110.06 67.2188,-115.298 70.6581,-114.649"/>
</g>
<!-- transition13&#45;&gt;p11 -->
<g id="edge28" class="edge"><title>transition13&#45;&gt;p11</title>
<path fill="none" stroke="black" d="M96.9455,-217.848C96.3939,-216.309 91.7474,-203.348 87.1946,-190.648"/>
<polygon fill="black" stroke="black" points="90.47,-189.413 83.8006,-181.181 83.8806,-191.775 90.47,-189.413"/>
</g>
<!-- p12 -->
<g id="node29" class="node"><title>p12</title>
<ellipse fill="none" stroke="black" cx="63" cy="-55" rx="18" ry="18"/>
<text text-anchor="middle" x="63" y="-51.3" font-family="Times,serif" font-size="14.00">p12</text>
</g>
<!-- transition15 -->
<g id="node31" class="node"><title>transition15</title>
<polygon fill="none" stroke="black" points="57,-1 21,-1 21,-0 57,-0 57,-1"/>
<text text-anchor="middle" x="15.5" y="-4.8" font-family="Times,serif" font-size="14.00">a&#45;</text>
</g>
<!-- p12&#45;&gt;transition15 -->
<g id="edge31" class="edge"><title>p12&#45;&gt;transition15</title>
<path fill="none" stroke="black" d="M55.929,-38.3849C50.8925,-27.2627 44.454,-13.0442 41.1574,-5.76429"/>
<polygon fill="none" stroke="black" points="42.6852,-4.89575 39.0285,-1.06287 39.4969,-6.33956 42.6852,-4.89575"/>
</g>
<!-- transition14&#45;&gt;p12 -->
<g id="edge30" class="edge"><title>transition14&#45;&gt;p12</title>
<path fill="none" stroke="black" d="M67.9857,-108.848C67.846,-107.368 66.7094,-95.3194 65.5566,-83.1004"/>
<polygon fill="black" stroke="black" points="69.03,-82.6518 64.6061,-73.0247 62.0609,-83.3093 69.03,-82.6518"/>
</g>
<!-- transition15&#45;&gt;p13 -->
<g id="edge32" class="edge"><title>transition15&#45;&gt;p13</title>
<path fill="none" stroke="black" d="M38.9826,-1.04283C38.2559,-2.83605 15,-60.5974 15,-109 15,-710 15,-710 15,-710 15,-741.68 32.9757,-774.237 47.152,-794.987"/>
<polygon fill="black" stroke="black" points="44.476,-797.263 53.1253,-803.382 50.1795,-793.205 44.476,-797.263"/>
</g>
<!-- p14 -->
<g id="node32" class="node"><title>p14</title>
<ellipse fill="none" stroke="black" cx="115" cy="-709" rx="18" ry="18"/>
<text text-anchor="middle" x="115" y="-705.3" font-family="Times,serif" font-size="14.00">p14</text>
</g>
<!-- transition17 -->
<g id="node34" class="node"><title>transition17</title>
<polygon fill="none" stroke="black" points="168,-655 132,-655 132,-654 168,-654 168,-655"/>
<text text-anchor="middle" x="124.5" y="-658.8" font-family="Times,serif" font-size="14.00">a+</text>
</g>
<!-- p14&#45;&gt;transition17 -->
<g id="edge35" class="edge"><title>p14&#45;&gt;transition17</title>
<path fill="none" stroke="black" d="M124.564,-693.518C132.093,-682.116 142.109,-666.949 147.023,-659.507"/>
<polygon fill="none" stroke="black" points="148.661,-660.203 149.956,-655.066 145.741,-658.274 148.661,-660.203"/>
</g>
<!-- transition16&#45;&gt;p14 -->
<g id="edge34" class="edge"><title>transition16&#45;&gt;p14</title>
<path fill="none" stroke="black" d="M115,-762.848C115,-761.368 115,-749.319 115,-737.1"/>
<polygon fill="black" stroke="black" points="118.5,-737.025 115,-727.025 111.5,-737.025 118.5,-737.025"/>
</g>
<!-- transition17&#45;&gt;p5 -->
<g id="edge36" class="edge"><title>transition17&#45;&gt;p5</title>
<path fill="none" stroke="black" d="M150.008,-655.043C150.341,-656.864 161,-715.506 161,-763 161,-928 161,-928 161,-928 161,-955.318 164.592,-986.354 167.671,-1007.94"/>
<polygon fill="black" stroke="black" points="164.235,-1008.63 169.167,-1018.01 171.159,-1007.6 164.235,-1008.63"/>
</g>
<!-- p6 -->
<g id="node35" class="node"><title>p6</title>
<ellipse fill="none" stroke="black" cx="207" cy="-927" rx="18" ry="18"/>
<text text-anchor="middle" x="207" y="-923.3" font-family="Times,serif" font-size="14.00">p6</text>
</g>
<!-- transition5 -->
<g id="node38" class="node"><title>transition5</title>
<polygon fill="none" stroke="black" points="225,-873 189,-873 189,-872 225,-872 225,-873"/>
<text text-anchor="middle" x="180" y="-876.8" font-family="Times,serif" font-size="14.00">s2&#45;</text>
</g>
<!-- p6&#45;&gt;transition5 -->
<g id="edge39" class="edge"><title>p6&#45;&gt;transition5</title>
<path fill="none" stroke="black" d="M207,-908.939C207,-898.385 207,-885.534 207,-878.412"/>
<polygon fill="none" stroke="black" points="208.75,-878.059 207,-873.059 205.25,-878.059 208.75,-878.059"/>
</g>
<!-- transition4&#45;&gt;p6 -->
<g id="edge38" class="edge"><title>transition4&#45;&gt;p6</title>
<path fill="none" stroke="black" d="M207,-980.848C207,-979.368 207,-967.319 207,-955.1"/>
<polygon fill="black" stroke="black" points="210.5,-955.025 207,-945.025 203.5,-955.025 210.5,-955.025"/>
</g>
<!-- p7 -->
<g id="node37" class="node"><title>p7</title>
<ellipse fill="none" stroke="black" cx="207" cy="-818" rx="18" ry="18"/>
<text text-anchor="middle" x="207" y="-814.3" font-family="Times,serif" font-size="14.00">p7</text>
</g>
<!-- transition6 -->
<g id="node40" class="node"><title>transition6</title>
<polygon fill="none" stroke="black" points="225,-764 189,-764 189,-763 225,-763 225,-764"/>
<text text-anchor="middle" x="180.5" y="-767.8" font-family="Times,serif" font-size="14.00">r2&#45;</text>
</g>
<!-- p7&#45;&gt;transition6 -->
<g id="edge41" class="edge"><title>p7&#45;&gt;transition6</title>
<path fill="none" stroke="black" d="M207,-799.939C207,-789.385 207,-776.534 207,-769.412"/>
<polygon fill="none" stroke="black" points="208.75,-769.059 207,-764.059 205.25,-769.059 208.75,-769.059"/>
</g>
<!-- transition5&#45;&gt;p7 -->
<g id="edge40" class="edge"><title>transition5&#45;&gt;p7</title>
<path fill="none" stroke="black" d="M207,-871.848C207,-870.368 207,-858.319 207,-846.1"/>
<polygon fill="black" stroke="black" points="210.5,-846.025 207,-836.025 203.5,-846.025 210.5,-846.025"/>
</g>
<!-- p8 -->
<g id="node39" class="node"><title>p8</title>
<ellipse fill="none" stroke="black" cx="207" cy="-709" rx="18" ry="18"/>
<text text-anchor="middle" x="207" y="-705.3" font-family="Times,serif" font-size="14.00">p8</text>
</g>
<!-- transition7 -->
<g id="node41" class="node"><title>transition7</title>
<polygon fill="none" stroke="black" points="250,-655 214,-655 214,-654 250,-654 250,-655"/>
<text text-anchor="middle" x="208.5" y="-658.8" font-family="Times,serif" font-size="14.00">a&#45;</text>
</g>
<!-- p8&#45;&gt;transition7 -->
<g id="edge43" class="edge"><title>p8&#45;&gt;transition7</title>
<path fill="none" stroke="black" d="M214.366,-692.385C219.612,-681.263 226.319,-667.044 229.753,-659.764"/>
<polygon fill="none" stroke="black" points="231.42,-660.332 231.97,-655.063 228.254,-658.838 231.42,-660.332"/>
</g>
<!-- transition6&#45;&gt;p8 -->
<g id="edge42" class="edge"><title>transition6&#45;&gt;p8</title>
<path fill="none" stroke="black" d="M207,-762.848C207,-761.368 207,-749.319 207,-737.1"/>
<polygon fill="black" stroke="black" points="210.5,-737.025 207,-727.025 203.5,-737.025 210.5,-737.025"/>
</g>
<!-- transition7&#45;&gt;p1 -->
<g id="edge44" class="edge"><title>transition7&#45;&gt;p1</title>
<path fill="none" stroke="black" d="M232.015,-655.043C232.651,-656.844 253,-714.865 253,-763 253,-1399 253,-1399 253,-1399 253,-1426.98 260.001,-1458.32 265.918,-1479.81"/>
<polygon fill="black" stroke="black" points="262.58,-1480.87 268.701,-1489.52 269.308,-1478.94 262.58,-1480.87"/>
</g>
<!-- p20 -->
<g id="node42" class="node"><title>p20</title>
<ellipse fill="none" stroke="black" cx="299" cy="-1326" rx="18" ry="18"/>
<text text-anchor="middle" x="299" y="-1322.3" font-family="Times,serif" font-size="14.00">p20</text>
</g>
<!-- transition9 -->
<g id="node44" class="node"><title>transition9</title>
<polygon fill="none" stroke="black" points="317,-1254.5 281,-1254.5 281,-1253.5 317,-1253.5 317,-1254.5"/>
<text text-anchor="middle" x="273.5" y="-1258.3" font-family="Times,serif" font-size="14.00">a+</text>
</g>
<!-- p20&#45;&gt;transition9 -->
<g id="edge47" class="edge"><title>p20&#45;&gt;transition9</title>
<path fill="none" stroke="black" d="M299,-1307.7C299,-1292.17 299,-1270.32 299,-1260.35"/>
<polygon fill="none" stroke="black" points="300.75,-1260.09 299,-1255.09 297.25,-1260.09 300.75,-1260.09"/>
</g>
<!-- transition8&#45;&gt;p20 -->
<g id="edge46" class="edge"><title>transition8&#45;&gt;p20</title>
<path fill="none" stroke="black" d="M299,-1396.95C299,-1395.75 299,-1373.43 299,-1354.32"/>
<polygon fill="black" stroke="black" points="302.5,-1354.19 299,-1344.19 295.5,-1354.19 302.5,-1354.19"/>
</g>
<!-- transition9&#45;&gt;p9 -->
<g id="edge48" class="edge"><title>transition9&#45;&gt;p9</title>
<path fill="none" stroke="black" d="M298.997,-1252.96C298.876,-1251.15 295,-1192.85 295,-1146 295,-1146 295,-1146 295,-490 295,-461.751 287.243,-430.226 280.738,-408.756"/>
<polygon fill="black" stroke="black" points="284.033,-407.566 277.685,-399.083 277.358,-409.673 284.033,-407.566"/>
</g>
</g>
</svg>
