<?xml version="1.0" encoding="UTF-8" standalone="no"?>
<!DOCTYPE svg PUBLIC "-//W3C//DTD SVG 1.1//EN"
 "http://www.w3.org/Graphics/SVG/1.1/DTD/svg11.dtd">
<!-- Generated by graphviz version 2.38.0 (20140413.2041)
 -->
<!-- Title: %3 Pages: 1 -->
<svg width="241pt" height="740pt"
 viewBox="0.00 0.00 241.00 740.00" xmlns="http://www.w3.org/2000/svg" xmlns:xlink="http://www.w3.org/1999/xlink">
<g id="graph0" class="graph" transform="scale(1 1) rotate(0) translate(4 736)">
<title>%3</title>
<polygon fill="white" stroke="none" points="-4,4 -4,-736 237,-736 237,4 -4,4"/>
<!-- p1 -->
<g id="node1" class="node"><title>p1</title>
<ellipse fill="none" stroke="black" cx="182" cy="-714" rx="27" ry="18"/>
<text text-anchor="middle" x="182" y="-710.3" font-family="Times,serif" font-size="14.00">p1</text>
</g>
<!-- p2 -->
<g id="node2" class="node"><title>p2</title>
<ellipse fill="none" stroke="black" cx="106" cy="-627" rx="27" ry="18"/>
<text text-anchor="middle" x="106" y="-623.3" font-family="Times,serif" font-size="14.00">p2</text>
</g>
<!-- p1&#45;&gt;p2 -->
<g id="edge1" class="edge"><title>p1&#45;&gt;p2</title>
<path fill="none" stroke="black" d="M168.762,-698.194C157.064,-685.111 139.821,-665.826 126.367,-650.779"/>
<polygon fill="black" stroke="black" points="128.616,-648.043 119.341,-642.921 123.398,-652.709 128.616,-648.043"/>
<text text-anchor="middle" x="162" y="-666.8" font-family="Times,serif" font-size="14.00">w8+</text>
</g>
<!-- p3 -->
<g id="node3" class="node"><title>p3</title>
<ellipse fill="none" stroke="black" cx="93" cy="-540" rx="27" ry="18"/>
<text text-anchor="middle" x="93" y="-536.3" font-family="Times,serif" font-size="14.00">p3</text>
</g>
<!-- p2&#45;&gt;p3 -->
<g id="edge2" class="edge"><title>p2&#45;&gt;p3</title>
<path fill="none" stroke="black" d="M99.1828,-609.544C97.1126,-603.781 95.0969,-597.199 94,-591 92.7192,-583.762 92.1762,-575.844 92.023,-568.486"/>
<polygon fill="black" stroke="black" points="95.5232,-568.257 92.037,-558.252 88.5232,-568.247 95.5232,-568.257"/>
<text text-anchor="middle" x="137.5" y="-579.8" font-family="Times,serif" font-size="14.00">y0_sendrdone+</text>
</g>
<!-- p4 -->
<g id="node4" class="node"><title>p4</title>
<ellipse fill="none" stroke="black" cx="114" cy="-453" rx="27" ry="18"/>
<text text-anchor="middle" x="114" y="-449.3" font-family="Times,serif" font-size="14.00">p4</text>
</g>
<!-- p3&#45;&gt;p4 -->
<g id="edge3" class="edge"><title>p3&#45;&gt;p4</title>
<path fill="none" stroke="black" d="M97.1489,-522.207C100.064,-510.409 104.024,-494.378 107.373,-480.822"/>
<polygon fill="black" stroke="black" points="110.787,-481.597 109.788,-471.049 103.991,-479.918 110.787,-481.597"/>
<text text-anchor="middle" x="116" y="-492.8" font-family="Times,serif" font-size="14.00">w8&#45;</text>
</g>
<!-- p5 -->
<g id="node5" class="node"><title>p5</title>
<ellipse fill="none" stroke="black" cx="128" cy="-366" rx="27" ry="18"/>
<text text-anchor="middle" x="128" y="-362.3" font-family="Times,serif" font-size="14.00">p5</text>
</g>
<!-- p4&#45;&gt;p5 -->
<g id="edge4" class="edge"><title>p4&#45;&gt;p5</title>
<path fill="none" stroke="black" d="M116.833,-434.799C118.75,-423.163 121.322,-407.548 123.514,-394.237"/>
<polygon fill="black" stroke="black" points="126.999,-394.611 125.171,-384.175 120.092,-393.474 126.999,-394.611"/>
<text text-anchor="middle" x="142.5" y="-405.8" font-family="Times,serif" font-size="14.00">dones+</text>
</g>
<!-- p6 -->
<g id="node6" class="node"><title>p6</title>
<ellipse fill="none" stroke="black" cx="135" cy="-279" rx="27" ry="18"/>
<text text-anchor="middle" x="135" y="-275.3" font-family="Times,serif" font-size="14.00">p6</text>
</g>
<!-- p5&#45;&gt;p6 -->
<g id="edge5" class="edge"><title>p5&#45;&gt;p6</title>
<path fill="none" stroke="black" d="M129.346,-347.874C130.111,-338.218 131.094,-325.935 132,-315 132.212,-312.447 132.434,-309.79 132.659,-307.131"/>
<polygon fill="black" stroke="black" points="136.153,-307.35 133.516,-297.088 129.178,-306.755 136.153,-307.35"/>
<text text-anchor="middle" x="156.5" y="-318.8" font-family="Times,serif" font-size="14.00">reqsend&#45;</text>
</g>
<!-- p7 -->
<g id="node7" class="node"><title>p7</title>
<ellipse fill="none" stroke="black" cx="96" cy="-192" rx="27" ry="18"/>
<text text-anchor="middle" x="96" y="-188.3" font-family="Times,serif" font-size="14.00">p7</text>
</g>
<!-- p6&#45;&gt;p7 -->
<g id="edge6" class="edge"><title>p6&#45;&gt;p7</title>
<path fill="none" stroke="black" d="M116.372,-265.93C108.915,-260.003 101.126,-252.159 97,-243 93.813,-235.925 92.7294,-227.696 92.6689,-219.98"/>
<polygon fill="black" stroke="black" points="96.1678,-220.082 93.1193,-209.935 89.1748,-219.768 96.1678,-220.082"/>
<text text-anchor="middle" x="139" y="-231.8" font-family="Times,serif" font-size="14.00">y0_sendrdone&#45;</text>
</g>
<!-- p7&#45;&gt;p1 -->
<g id="edge7" class="edge"><title>p7&#45;&gt;p1</title>
<path fill="none" stroke="black" d="M121.806,-197.373C140.747,-201.896 165.733,-210.823 181,-228 196.331,-245.249 195,-254.923 195,-278 195,-628 195,-628 195,-628 195,-647.594 191.583,-669.439 188.252,-686.077"/>
<polygon fill="black" stroke="black" points="184.76,-685.674 186.113,-696.182 191.608,-687.124 184.76,-685.674"/>
<text text-anchor="middle" x="214" y="-449.3" font-family="Times,serif" font-size="14.00">dones&#45;</text>
</g>
<!-- p8 -->
<g id="node8" class="node"><title>p8</title>
<ellipse fill="none" stroke="black" cx="67" cy="-105" rx="27" ry="18"/>
<text text-anchor="middle" x="67" y="-101.3" font-family="Times,serif" font-size="14.00">p8</text>
</g>
<!-- p7&#45;&gt;p8 -->
<g id="edge8" class="edge"><title>p7&#45;&gt;p8</title>
<path fill="none" stroke="black" d="M90.2705,-174.207C86.2191,-162.332 80.7045,-146.168 76.0605,-132.557"/>
<polygon fill="black" stroke="black" points="79.2592,-131.093 72.7176,-122.758 72.6341,-133.353 79.2592,-131.093"/>
<text text-anchor="middle" x="103" y="-144.8" font-family="Times,serif" font-size="14.00">dones&#45;</text>
</g>
<!-- p9 -->
<g id="node9" class="node"><title>p9</title>
<ellipse fill="none" stroke="black" cx="27" cy="-18" rx="27" ry="18"/>
<text text-anchor="middle" x="27" y="-14.3" font-family="Times,serif" font-size="14.00">p9</text>
</g>
<!-- p8&#45;&gt;p9 -->
<g id="edge9" class="edge"><title>p8&#45;&gt;p9</title>
<path fill="none" stroke="black" d="M59.2876,-87.6111C53.5326,-75.3817 45.5614,-58.4429 38.9793,-44.456"/>
<polygon fill="black" stroke="black" points="42.1136,-42.8964 34.6887,-35.3385 35.7799,-45.877 42.1136,-42.8964"/>
<text text-anchor="middle" x="76" y="-57.8" font-family="Times,serif" font-size="14.00">reqsend+</text>
</g>
<!-- p9&#45;&gt;p3 -->
<g id="edge10" class="edge"><title>p9&#45;&gt;p3</title>
<path fill="none" stroke="black" d="M19.4062,-35.5441C12.375,-52.3962 3,-79.4658 3,-104 3,-454 3,-454 3,-454 3,-487.115 35.602,-511.159 61.5619,-525.055"/>
<polygon fill="black" stroke="black" points="60.2508,-528.315 70.7528,-529.714 63.4156,-522.071 60.2508,-528.315"/>
<text text-anchor="middle" x="46.5" y="-275.3" font-family="Times,serif" font-size="14.00">y0_sendrdone+</text>
</g>
</g>
</svg>
