<?xml version="1.0" encoding="UTF-8" standalone="no"?>
<!DOCTYPE svg PUBLIC "-//W3C//DTD SVG 1.1//EN"
 "http://www.w3.org/Graphics/SVG/1.1/DTD/svg11.dtd">
<!-- Generated by graphviz version 2.38.0 (20140413.2041)
 -->
<!-- Title: %3 Pages: 1 -->
<svg width="186pt" height="807pt"
 viewBox="0.00 0.00 186.00 807.00" xmlns="http://www.w3.org/2000/svg" xmlns:xlink="http://www.w3.org/1999/xlink">
<g id="graph0" class="graph" transform="scale(1 1) rotate(0) translate(4 803)">
<title>%3</title>
<polygon fill="white" stroke="none" points="-4,4 -4,-803 182,-803 182,4 -4,4"/>
<!-- PL1 -->
<g id="node1" class="node"><title>PL1</title>
<ellipse fill="none" stroke="black" cx="128" cy="-781" rx="18" ry="18"/>
<text text-anchor="middle" x="128" y="-777.3" font-family="Times,serif" font-size="14.00">PL1</text>
</g>
<!-- transition8 -->
<g id="node3" class="node"><title>transition8</title>
<polygon fill="none" stroke="black" points="123,-727 87,-727 87,-726 123,-726 123,-727"/>
<text text-anchor="middle" x="43.5" y="-730.8" font-family="Times,serif" font-size="14.00">y0_sendrdone+</text>
</g>
<!-- PL1&#45;&gt;transition8 -->
<g id="edge1" class="edge"><title>PL1&#45;&gt;transition8</title>
<path fill="none" stroke="black" d="M121.099,-764.098C116.279,-752.992 110.169,-738.912 107.044,-731.71"/>
<polygon fill="none" stroke="black" points="108.623,-730.952 105.027,-727.062 105.412,-732.346 108.623,-730.952"/>
</g>
<!-- PL4 -->
<g id="node2" class="node"><title>PL4</title>
<ellipse fill="none" stroke="black" cx="105" cy="-672" rx="18" ry="18"/>
<text text-anchor="middle" x="105" y="-668.3" font-family="Times,serif" font-size="14.00">PL4</text>
</g>
<!-- transition1 -->
<g id="node5" class="node"><title>transition1</title>
<polygon fill="none" stroke="black" points="123,-618 87,-618 87,-617 123,-617 123,-618"/>
<text text-anchor="middle" x="76" y="-621.8" font-family="Times,serif" font-size="14.00">w8&#45;</text>
</g>
<!-- PL4&#45;&gt;transition1 -->
<g id="edge3" class="edge"><title>PL4&#45;&gt;transition1</title>
<path fill="none" stroke="black" d="M105,-653.939C105,-643.385 105,-630.534 105,-623.412"/>
<polygon fill="none" stroke="black" points="106.75,-623.059 105,-618.059 103.25,-623.059 106.75,-623.059"/>
</g>
<!-- transition8&#45;&gt;PL4 -->
<g id="edge2" class="edge"><title>transition8&#45;&gt;PL4</title>
<path fill="none" stroke="black" d="M105,-725.848C105,-724.368 105,-712.319 105,-700.1"/>
<polygon fill="black" stroke="black" points="108.5,-700.025 105,-690.025 101.5,-700.025 108.5,-700.025"/>
</g>
<!-- PL5 -->
<g id="node4" class="node"><title>PL5</title>
<ellipse fill="none" stroke="black" cx="105" cy="-563" rx="18" ry="18"/>
<text text-anchor="middle" x="105" y="-559.3" font-family="Times,serif" font-size="14.00">PL5</text>
</g>
<!-- transition2 -->
<g id="node7" class="node"><title>transition2</title>
<polygon fill="none" stroke="black" points="123,-509 87,-509 87,-508 123,-508 123,-509"/>
<text text-anchor="middle" x="66.5" y="-512.8" font-family="Times,serif" font-size="14.00">dones+</text>
</g>
<!-- PL5&#45;&gt;transition2 -->
<g id="edge5" class="edge"><title>PL5&#45;&gt;transition2</title>
<path fill="none" stroke="black" d="M105,-544.939C105,-534.385 105,-521.534 105,-514.412"/>
<polygon fill="none" stroke="black" points="106.75,-514.059 105,-509.059 103.25,-514.059 106.75,-514.059"/>
</g>
<!-- transition1&#45;&gt;PL5 -->
<g id="edge4" class="edge"><title>transition1&#45;&gt;PL5</title>
<path fill="none" stroke="black" d="M105,-616.848C105,-615.368 105,-603.319 105,-591.1"/>
<polygon fill="black" stroke="black" points="108.5,-591.025 105,-581.025 101.5,-591.025 108.5,-591.025"/>
</g>
<!-- PL6 -->
<g id="node6" class="node"><title>PL6</title>
<ellipse fill="none" stroke="black" cx="105" cy="-454" rx="18" ry="18"/>
<text text-anchor="middle" x="105" y="-450.3" font-family="Times,serif" font-size="14.00">PL6</text>
</g>
<!-- transition3 -->
<g id="node9" class="node"><title>transition3</title>
<polygon fill="none" stroke="black" points="123,-400 87,-400 87,-399 123,-399 123,-400"/>
<text text-anchor="middle" x="62.5" y="-403.8" font-family="Times,serif" font-size="14.00">reqsend&#45;</text>
</g>
<!-- PL6&#45;&gt;transition3 -->
<g id="edge7" class="edge"><title>PL6&#45;&gt;transition3</title>
<path fill="none" stroke="black" d="M105,-435.939C105,-425.385 105,-412.534 105,-405.412"/>
<polygon fill="none" stroke="black" points="106.75,-405.059 105,-400.059 103.25,-405.059 106.75,-405.059"/>
</g>
<!-- transition2&#45;&gt;PL6 -->
<g id="edge6" class="edge"><title>transition2&#45;&gt;PL6</title>
<path fill="none" stroke="black" d="M105,-507.848C105,-506.368 105,-494.319 105,-482.1"/>
<polygon fill="black" stroke="black" points="108.5,-482.025 105,-472.025 101.5,-482.025 108.5,-482.025"/>
</g>
<!-- PL7 -->
<g id="node8" class="node"><title>PL7</title>
<ellipse fill="none" stroke="black" cx="105" cy="-345" rx="18" ry="18"/>
<text text-anchor="middle" x="105" y="-341.3" font-family="Times,serif" font-size="14.00">PL7</text>
</g>
<!-- transition4 -->
<g id="node11" class="node"><title>transition4</title>
<polygon fill="none" stroke="black" points="123,-291 87,-291 87,-290 123,-290 123,-291"/>
<text text-anchor="middle" x="45" y="-294.8" font-family="Times,serif" font-size="14.00">y0_sendrdone&#45;</text>
</g>
<!-- PL7&#45;&gt;transition4 -->
<g id="edge9" class="edge"><title>PL7&#45;&gt;transition4</title>
<path fill="none" stroke="black" d="M105,-326.939C105,-316.385 105,-303.534 105,-296.412"/>
<polygon fill="none" stroke="black" points="106.75,-296.059 105,-291.059 103.25,-296.059 106.75,-296.059"/>
</g>
<!-- transition3&#45;&gt;PL7 -->
<g id="edge8" class="edge"><title>transition3&#45;&gt;PL7</title>
<path fill="none" stroke="black" d="M105,-398.848C105,-397.368 105,-385.319 105,-373.1"/>
<polygon fill="black" stroke="black" points="108.5,-373.025 105,-363.025 101.5,-373.025 108.5,-373.025"/>
</g>
<!-- PL8 -->
<g id="node10" class="node"><title>PL8</title>
<ellipse fill="none" stroke="black" cx="105" cy="-236" rx="18" ry="18"/>
<text text-anchor="middle" x="105" y="-232.3" font-family="Times,serif" font-size="14.00">PL8</text>
</g>
<!-- transition5 -->
<g id="node13" class="node"><title>transition5</title>
<polygon fill="none" stroke="black" points="123,-182 87,-182 87,-181 123,-181 123,-182"/>
<text text-anchor="middle" x="68" y="-185.8" font-family="Times,serif" font-size="14.00">dones&#45;</text>
</g>
<!-- PL8&#45;&gt;transition5 -->
<g id="edge11" class="edge"><title>PL8&#45;&gt;transition5</title>
<path fill="none" stroke="black" d="M105,-217.939C105,-207.385 105,-194.534 105,-187.412"/>
<polygon fill="none" stroke="black" points="106.75,-187.059 105,-182.059 103.25,-187.059 106.75,-187.059"/>
</g>
<!-- transition4&#45;&gt;PL8 -->
<g id="edge10" class="edge"><title>transition4&#45;&gt;PL8</title>
<path fill="none" stroke="black" d="M105,-289.848C105,-288.368 105,-276.319 105,-264.1"/>
<polygon fill="black" stroke="black" points="108.5,-264.025 105,-254.025 101.5,-264.025 108.5,-264.025"/>
</g>
<!-- PL3 -->
<g id="node12" class="node"><title>PL3</title>
<ellipse fill="none" stroke="black" cx="78" cy="-127" rx="18" ry="18"/>
<text text-anchor="middle" x="78" y="-123.3" font-family="Times,serif" font-size="14.00">PL3</text>
</g>
<!-- transition7 -->
<g id="node15" class="node"><title>transition7</title>
<polygon fill="none" stroke="black" points="96,-73 60,-73 60,-72 96,-72 96,-73"/>
<text text-anchor="middle" x="34" y="-76.8" font-family="Times,serif" font-size="14.00">reqsend+</text>
</g>
<!-- PL3&#45;&gt;transition7 -->
<g id="edge13" class="edge"><title>PL3&#45;&gt;transition7</title>
<path fill="none" stroke="black" d="M78,-108.939C78,-98.3852 78,-85.5344 78,-78.4124"/>
<polygon fill="none" stroke="black" points="79.7501,-78.0591 78,-73.0591 76.2501,-78.0592 79.7501,-78.0591"/>
</g>
<!-- transition5&#45;&gt;PL3 -->
<g id="edge12" class="edge"><title>transition5&#45;&gt;PL3</title>
<path fill="none" stroke="black" d="M104.923,-180.848C104.116,-179.265 97.1499,-165.591 90.5064,-152.55"/>
<polygon fill="black" stroke="black" points="93.4765,-150.669 85.8186,-143.348 87.2393,-153.847 93.4765,-150.669"/>
</g>
<!-- PL2 -->
<g id="node16" class="node"><title>PL2</title>
<ellipse fill="none" stroke="black" cx="132" cy="-127" rx="18" ry="18"/>
<text text-anchor="middle" x="132" y="-123.3" font-family="Times,serif" font-size="14.00">PL2</text>
</g>
<!-- transition5&#45;&gt;PL2 -->
<g id="edge16" class="edge"><title>transition5&#45;&gt;PL2</title>
<path fill="none" stroke="black" d="M105.077,-180.848C105.884,-179.265 112.85,-165.591 119.494,-152.55"/>
<polygon fill="black" stroke="black" points="122.761,-153.847 124.181,-143.348 116.523,-150.669 122.761,-153.847"/>
</g>
<!-- PL9 -->
<g id="node14" class="node"><title>PL9</title>
<ellipse fill="none" stroke="black" cx="55" cy="-18" rx="18" ry="18"/>
<text text-anchor="middle" x="55" y="-14.3" font-family="Times,serif" font-size="14.00">PL9</text>
</g>
<!-- PL9&#45;&gt;transition8 -->
<g id="edge15" class="edge"><title>PL9&#45;&gt;transition8</title>
<path fill="none" stroke="black" d="M49.3146,-35.0834C42.5036,-55.8203 32,-93.1288 32,-126 32,-618 32,-618 32,-618 32,-667.457 85.1949,-711.177 100.766,-722.915"/>
<polygon fill="none" stroke="black" points="99.876,-724.432 104.947,-725.963 101.938,-721.604 99.876,-724.432"/>
</g>
<!-- transition7&#45;&gt;PL9 -->
<g id="edge14" class="edge"><title>transition7&#45;&gt;PL9</title>
<path fill="none" stroke="black" d="M77.934,-71.848C77.2621,-70.2997 71.5707,-57.1847 66.0263,-44.4085"/>
<polygon fill="black" stroke="black" points="69.0925,-42.6819 61.9008,-34.9017 62.671,-45.4686 69.0925,-42.6819"/>
</g>
<!-- transition6 -->
<g id="node17" class="node"><title>transition6</title>
<polygon fill="none" stroke="black" points="173,-73 137,-73 137,-72 173,-72 173,-73"/>
<text text-anchor="middle" x="124" y="-76.8" font-family="Times,serif" font-size="14.00">w8+</text>
</g>
<!-- PL2&#45;&gt;transition6 -->
<g id="edge17" class="edge"><title>PL2&#45;&gt;transition6</title>
<path fill="none" stroke="black" d="M138.901,-110.098C143.721,-98.9918 149.831,-84.9118 152.956,-77.7104"/>
<polygon fill="none" stroke="black" points="154.588,-78.3455 154.973,-73.0621 151.377,-76.9522 154.588,-78.3455"/>
</g>
<!-- transition6&#45;&gt;PL1 -->
<g id="edge18" class="edge"><title>transition6&#45;&gt;PL1</title>
<path fill="none" stroke="black" d="M155.017,-73.0429C155.713,-74.839 178,-132.69 178,-181 178,-673 178,-673 178,-673 178,-704.936 159.493,-737.618 144.997,-758.318"/>
<polygon fill="black" stroke="black" points="142.156,-756.274 139.097,-766.418 147.814,-760.396 142.156,-756.274"/>
</g>
</g>
</svg>
