<?xml version="1.0" encoding="UTF-8" standalone="no"?>
<!DOCTYPE svg PUBLIC "-//W3C//DTD SVG 1.1//EN"
 "http://www.w3.org/Graphics/SVG/1.1/DTD/svg11.dtd">
<!-- Generated by graphviz version 2.38.0 (20140413.2041)
 -->
<!-- Title: %3 Pages: 1 -->
<svg width="159pt" height="916pt"
 viewBox="0.00 0.00 159.00 916.00" xmlns="http://www.w3.org/2000/svg" xmlns:xlink="http://www.w3.org/1999/xlink">
<g id="graph0" class="graph" transform="scale(1 1) rotate(0) translate(4 912)">
<title>%3</title>
<polygon fill="white" stroke="none" points="-4,4 -4,-912 155,-912 155,4 -4,4"/>
<!-- pl1 -->
<g id="node1" class="node"><title>pl1</title>
<ellipse fill="none" stroke="black" cx="128" cy="-890" rx="18" ry="18"/>
<text text-anchor="middle" x="128" y="-886.3" font-family="Times,serif" font-size="14.00">pl1</text>
</g>
<!-- transition1 -->
<g id="node3" class="node"><title>transition1</title>
<polygon fill="none" stroke="black" points="123,-836 87,-836 87,-835 123,-835 123,-836"/>
<text text-anchor="middle" x="74" y="-839.8" font-family="Times,serif" font-size="14.00">w8+</text>
</g>
<!-- pl1&#45;&gt;transition1 -->
<g id="edge1" class="edge"><title>pl1&#45;&gt;transition1</title>
<path fill="none" stroke="black" d="M121.099,-873.098C114.536,-857.975 105.58,-837.337 105.027,-836.062"/>
</g>
<!-- pl2 -->
<g id="node2" class="node"><title>pl2</title>
<ellipse fill="none" stroke="black" cx="105" cy="-781" rx="18" ry="18"/>
<text text-anchor="middle" x="105" y="-777.3" font-family="Times,serif" font-size="14.00">pl2</text>
</g>
<!-- transition3 -->
<g id="node5" class="node"><title>transition3</title>
<polygon fill="none" stroke="black" points="123,-727 87,-727 87,-726 123,-726 123,-727"/>
<text text-anchor="middle" x="43.5" y="-730.8" font-family="Times,serif" font-size="14.00">y0_sendrdone+</text>
</g>
<!-- pl2&#45;&gt;transition3 -->
<g id="edge3" class="edge"><title>pl2&#45;&gt;transition3</title>
<path fill="none" stroke="black" d="M105,-762.939C105,-747.929 105,-728.273 105,-727.059"/>
</g>
<!-- transition1&#45;&gt;pl2 -->
<g id="edge2" class="edge"><title>transition1&#45;&gt;pl2</title>
<path fill="none" stroke="black" d="M105,-834.848C105,-833.368 105,-821.319 105,-809.1"/>
<polygon fill="black" stroke="black" points="108.5,-809.025 105,-799.025 101.5,-809.025 108.5,-809.025"/>
</g>
<!-- pl3 -->
<g id="node4" class="node"><title>pl3</title>
<ellipse fill="none" stroke="black" cx="105" cy="-672" rx="18" ry="18"/>
<text text-anchor="middle" x="105" y="-668.3" font-family="Times,serif" font-size="14.00">pl3</text>
</g>
<!-- transition4 -->
<g id="node7" class="node"><title>transition4</title>
<polygon fill="none" stroke="black" points="123,-618 87,-618 87,-617 123,-617 123,-618"/>
<text text-anchor="middle" x="76" y="-621.8" font-family="Times,serif" font-size="14.00">w8&#45;</text>
</g>
<!-- pl3&#45;&gt;transition4 -->
<g id="edge5" class="edge"><title>pl3&#45;&gt;transition4</title>
<path fill="none" stroke="black" d="M105,-653.939C105,-638.929 105,-619.273 105,-618.059"/>
</g>
<!-- transition3&#45;&gt;pl3 -->
<g id="edge4" class="edge"><title>transition3&#45;&gt;pl3</title>
<path fill="none" stroke="black" d="M105,-725.848C105,-724.368 105,-712.319 105,-700.1"/>
<polygon fill="black" stroke="black" points="108.5,-700.025 105,-690.025 101.5,-700.025 108.5,-700.025"/>
</g>
<!-- pl4 -->
<g id="node6" class="node"><title>pl4</title>
<ellipse fill="none" stroke="black" cx="105" cy="-563" rx="18" ry="18"/>
<text text-anchor="middle" x="105" y="-559.3" font-family="Times,serif" font-size="14.00">pl4</text>
</g>
<!-- transition5 -->
<g id="node9" class="node"><title>transition5</title>
<polygon fill="none" stroke="black" points="123,-509 87,-509 87,-508 123,-508 123,-509"/>
<text text-anchor="middle" x="66.5" y="-512.8" font-family="Times,serif" font-size="14.00">dones+</text>
</g>
<!-- pl4&#45;&gt;transition5 -->
<g id="edge7" class="edge"><title>pl4&#45;&gt;transition5</title>
<path fill="none" stroke="black" d="M105,-544.939C105,-529.929 105,-510.273 105,-509.059"/>
</g>
<!-- transition4&#45;&gt;pl4 -->
<g id="edge6" class="edge"><title>transition4&#45;&gt;pl4</title>
<path fill="none" stroke="black" d="M105,-616.848C105,-615.368 105,-603.319 105,-591.1"/>
<polygon fill="black" stroke="black" points="108.5,-591.025 105,-581.025 101.5,-591.025 108.5,-591.025"/>
</g>
<!-- pl5 -->
<g id="node8" class="node"><title>pl5</title>
<ellipse fill="none" stroke="black" cx="105" cy="-454" rx="18" ry="18"/>
<text text-anchor="middle" x="105" y="-450.3" font-family="Times,serif" font-size="14.00">pl5</text>
</g>
<!-- transition6 -->
<g id="node11" class="node"><title>transition6</title>
<polygon fill="none" stroke="black" points="123,-400 87,-400 87,-399 123,-399 123,-400"/>
<text text-anchor="middle" x="62.5" y="-403.8" font-family="Times,serif" font-size="14.00">reqsend&#45;</text>
</g>
<!-- pl5&#45;&gt;transition6 -->
<g id="edge9" class="edge"><title>pl5&#45;&gt;transition6</title>
<path fill="none" stroke="black" d="M105,-435.939C105,-420.929 105,-401.273 105,-400.059"/>
</g>
<!-- transition5&#45;&gt;pl5 -->
<g id="edge8" class="edge"><title>transition5&#45;&gt;pl5</title>
<path fill="none" stroke="black" d="M105,-507.848C105,-506.368 105,-494.319 105,-482.1"/>
<polygon fill="black" stroke="black" points="108.5,-482.025 105,-472.025 101.5,-482.025 108.5,-482.025"/>
</g>
<!-- pl6 -->
<g id="node10" class="node"><title>pl6</title>
<ellipse fill="none" stroke="black" cx="105" cy="-345" rx="18" ry="18"/>
<text text-anchor="middle" x="105" y="-341.3" font-family="Times,serif" font-size="14.00">pl6</text>
</g>
<!-- transition7 -->
<g id="node13" class="node"><title>transition7</title>
<polygon fill="none" stroke="black" points="123,-291 87,-291 87,-290 123,-290 123,-291"/>
<text text-anchor="middle" x="45" y="-294.8" font-family="Times,serif" font-size="14.00">y0_sendrdone&#45;</text>
</g>
<!-- pl6&#45;&gt;transition7 -->
<g id="edge11" class="edge"><title>pl6&#45;&gt;transition7</title>
<path fill="none" stroke="black" d="M105,-326.939C105,-311.929 105,-292.273 105,-291.059"/>
</g>
<!-- transition6&#45;&gt;pl6 -->
<g id="edge10" class="edge"><title>transition6&#45;&gt;pl6</title>
<path fill="none" stroke="black" d="M105,-398.848C105,-397.368 105,-385.319 105,-373.1"/>
<polygon fill="black" stroke="black" points="108.5,-373.025 105,-363.025 101.5,-373.025 108.5,-373.025"/>
</g>
<!-- pl7 -->
<g id="node12" class="node"><title>pl7</title>
<ellipse fill="none" stroke="black" cx="105" cy="-236" rx="18" ry="18"/>
<text text-anchor="middle" x="105" y="-232.3" font-family="Times,serif" font-size="14.00">pl7</text>
</g>
<!-- transition8 -->
<g id="node14" class="node"><title>transition8</title>
<polygon fill="none" stroke="black" points="123,-182 87,-182 87,-181 123,-181 123,-182"/>
<text text-anchor="middle" x="68" y="-185.8" font-family="Times,serif" font-size="14.00">dones&#45;</text>
</g>
<!-- pl7&#45;&gt;transition8 -->
<g id="edge13" class="edge"><title>pl7&#45;&gt;transition8</title>
<path fill="none" stroke="black" d="M105,-217.939C105,-202.929 105,-183.273 105,-182.059"/>
</g>
<!-- transition7&#45;&gt;pl7 -->
<g id="edge12" class="edge"><title>transition7&#45;&gt;pl7</title>
<path fill="none" stroke="black" d="M105,-289.848C105,-288.368 105,-276.319 105,-264.1"/>
<polygon fill="black" stroke="black" points="108.5,-264.025 105,-254.025 101.5,-264.025 108.5,-264.025"/>
</g>
<!-- transition8&#45;&gt;pl1 -->
<g id="edge14" class="edge"><title>transition8&#45;&gt;pl1</title>
<path fill="none" stroke="black" d="M105.053,-182.052C106.134,-183.125 123.559,-200.56 132,-218 146.418,-247.79 151,-256.905 151,-290 151,-782 151,-782 151,-782 151,-810.249 143.243,-841.774 136.738,-863.244"/>
<polygon fill="black" stroke="black" points="133.358,-862.327 133.685,-872.917 140.033,-864.434 133.358,-862.327"/>
</g>
<!-- pl8 -->
<g id="node15" class="node"><title>pl8</title>
<ellipse fill="none" stroke="black" cx="105" cy="-127" rx="18" ry="18"/>
<text text-anchor="middle" x="105" y="-123.3" font-family="Times,serif" font-size="14.00">pl8</text>
</g>
<!-- transition8&#45;&gt;pl8 -->
<g id="edge15" class="edge"><title>transition8&#45;&gt;pl8</title>
<path fill="none" stroke="black" d="M105,-180.848C105,-179.368 105,-167.319 105,-155.1"/>
<polygon fill="black" stroke="black" points="108.5,-155.025 105,-145.025 101.5,-155.025 108.5,-155.025"/>
</g>
<!-- transition2 -->
<g id="node17" class="node"><title>transition2</title>
<polygon fill="none" stroke="black" points="123,-73 87,-73 87,-72 123,-72 123,-73"/>
<text text-anchor="middle" x="61" y="-76.8" font-family="Times,serif" font-size="14.00">reqsend+</text>
</g>
<!-- pl8&#45;&gt;transition2 -->
<g id="edge16" class="edge"><title>pl8&#45;&gt;transition2</title>
<path fill="none" stroke="black" d="M105,-108.939C105,-93.9293 105,-74.273 105,-73.0591"/>
</g>
<!-- pl9 -->
<g id="node16" class="node"><title>pl9</title>
<ellipse fill="none" stroke="black" cx="82" cy="-18" rx="18" ry="18"/>
<text text-anchor="middle" x="82" y="-14.3" font-family="Times,serif" font-size="14.00">pl9</text>
</g>
<!-- pl9&#45;&gt;transition3 -->
<g id="edge18" class="edge"><title>pl9&#45;&gt;transition3</title>
<path fill="none" stroke="black" d="M76.3146,-35.0834C69.5036,-55.8203 59,-93.1288 59,-126 59,-618 59,-618 59,-618 59,-651.095 63.5822,-660.21 78,-690 86.4406,-707.44 103.866,-724.875 104.947,-725.948"/>
</g>
<!-- transition2&#45;&gt;pl9 -->
<g id="edge17" class="edge"><title>transition2&#45;&gt;pl9</title>
<path fill="none" stroke="black" d="M104.934,-71.848C104.262,-70.2997 98.5707,-57.1847 93.0263,-44.4085"/>
<polygon fill="black" stroke="black" points="96.0925,-42.6819 88.9008,-34.9017 89.671,-45.4686 96.0925,-42.6819"/>
</g>
</g>
</svg>
