<?xml version="1.0" encoding="UTF-8" standalone="no"?>
<!DOCTYPE svg PUBLIC "-//W3C//DTD SVG 1.1//EN"
 "http://www.w3.org/Graphics/SVG/1.1/DTD/svg11.dtd">
<!-- Generated by graphviz version 2.38.0 (20140413.2041)
 -->
<!-- Title: %3 Pages: 1 -->
<svg width="189pt" height="916pt"
 viewBox="0.00 0.00 189.00 916.00" xmlns="http://www.w3.org/2000/svg" xmlns:xlink="http://www.w3.org/1999/xlink">
<g id="graph0" class="graph" transform="scale(1 1) rotate(0) translate(4 912)">
<title>%3</title>
<polygon fill="white" stroke="none" points="-4,4 -4,-912 185,-912 185,4 -4,4"/>
<!-- p1 -->
<g id="node1" class="node"><title>p1</title>
<ellipse fill="none" stroke="black" cx="154" cy="-890" rx="27" ry="18"/>
<text text-anchor="middle" x="154" y="-886.3" font-family="Times,serif" font-size="14.00">p1</text>
</g>
<!-- transition1 -->
<g id="node2" class="node"><title>transition1</title>
<ellipse fill="black" stroke="black" cx="127" cy="-835.5" rx="0.036" ry="0.036"/>
<text text-anchor="middle" x="113.964" y="-839.336" font-family="Times,serif" font-size="14.00">w8+</text>
</g>
<!-- p1&#45;&gt;transition1 -->
<g id="edge1" class="edge"><title>p1&#45;&gt;transition1</title>
<path fill="none" stroke="black" d="M145.752,-872.81C138.06,-857.711 127.673,-837.321 127.031,-836.061"/>
</g>
<!-- p2 -->
<g id="node3" class="node"><title>p2</title>
<ellipse fill="none" stroke="black" cx="114" cy="-781" rx="27" ry="18"/>
<text text-anchor="middle" x="114" y="-777.3" font-family="Times,serif" font-size="14.00">p2</text>
</g>
<!-- transition1&#45;&gt;p2 -->
<g id="edge2" class="edge"><title>transition1&#45;&gt;p2</title>
<path fill="none" stroke="black" d="M126.963,-834.848C126.6,-833.368 123.644,-821.319 120.647,-809.1"/>
<polygon fill="black" stroke="black" points="123.957,-807.903 118.176,-799.025 117.159,-809.571 123.957,-807.903"/>
</g>
<!-- transition3 -->
<g id="node5" class="node"><title>transition3</title>
<polygon fill="none" stroke="black" points="141,-727 87,-727 87,-726 141,-726 141,-727"/>
<text text-anchor="middle" x="43.5" y="-730.8" font-family="Times,serif" font-size="14.00">y0_sendrdone+</text>
</g>
<!-- p2&#45;&gt;transition3 -->
<g id="edge3" class="edge"><title>p2&#45;&gt;transition3</title>
<path fill="none" stroke="black" d="M114,-762.939C114,-747.929 114,-728.273 114,-727.059"/>
</g>
<!-- p3 -->
<g id="node4" class="node"><title>p3</title>
<ellipse fill="none" stroke="black" cx="114" cy="-672" rx="27" ry="18"/>
<text text-anchor="middle" x="114" y="-668.3" font-family="Times,serif" font-size="14.00">p3</text>
</g>
<!-- transition4 -->
<g id="node7" class="node"><title>transition4</title>
<polygon fill="none" stroke="black" points="141,-618 87,-618 87,-617 141,-617 141,-618"/>
<text text-anchor="middle" x="76" y="-621.8" font-family="Times,serif" font-size="14.00">w8&#45;</text>
</g>
<!-- p3&#45;&gt;transition4 -->
<g id="edge5" class="edge"><title>p3&#45;&gt;transition4</title>
<path fill="none" stroke="black" d="M114,-653.939C114,-638.929 114,-619.273 114,-618.059"/>
</g>
<!-- transition3&#45;&gt;p3 -->
<g id="edge4" class="edge"><title>transition3&#45;&gt;p3</title>
<path fill="none" stroke="black" d="M114,-725.848C114,-724.368 114,-712.319 114,-700.1"/>
<polygon fill="black" stroke="black" points="117.5,-700.025 114,-690.025 110.5,-700.025 117.5,-700.025"/>
</g>
<!-- p4 -->
<g id="node6" class="node"><title>p4</title>
<ellipse fill="none" stroke="black" cx="114" cy="-563" rx="27" ry="18"/>
<text text-anchor="middle" x="114" y="-559.3" font-family="Times,serif" font-size="14.00">p4</text>
</g>
<!-- transition5 -->
<g id="node9" class="node"><title>transition5</title>
<polygon fill="none" stroke="black" points="141,-509 87,-509 87,-508 141,-508 141,-509"/>
<text text-anchor="middle" x="66.5" y="-512.8" font-family="Times,serif" font-size="14.00">dones+</text>
</g>
<!-- p4&#45;&gt;transition5 -->
<g id="edge7" class="edge"><title>p4&#45;&gt;transition5</title>
<path fill="none" stroke="black" d="M114,-544.939C114,-529.929 114,-510.273 114,-509.059"/>
</g>
<!-- transition4&#45;&gt;p4 -->
<g id="edge6" class="edge"><title>transition4&#45;&gt;p4</title>
<path fill="none" stroke="black" d="M114,-616.848C114,-615.368 114,-603.319 114,-591.1"/>
<polygon fill="black" stroke="black" points="117.5,-591.025 114,-581.025 110.5,-591.025 117.5,-591.025"/>
</g>
<!-- p5 -->
<g id="node8" class="node"><title>p5</title>
<ellipse fill="none" stroke="black" cx="114" cy="-454" rx="27" ry="18"/>
<text text-anchor="middle" x="114" y="-450.3" font-family="Times,serif" font-size="14.00">p5</text>
</g>
<!-- transition6 -->
<g id="node11" class="node"><title>transition6</title>
<polygon fill="none" stroke="black" points="141,-400 87,-400 87,-399 141,-399 141,-400"/>
<text text-anchor="middle" x="62.5" y="-403.8" font-family="Times,serif" font-size="14.00">reqsend&#45;</text>
</g>
<!-- p5&#45;&gt;transition6 -->
<g id="edge9" class="edge"><title>p5&#45;&gt;transition6</title>
<path fill="none" stroke="black" d="M114,-435.939C114,-420.929 114,-401.273 114,-400.059"/>
</g>
<!-- transition5&#45;&gt;p5 -->
<g id="edge8" class="edge"><title>transition5&#45;&gt;p5</title>
<path fill="none" stroke="black" d="M114,-507.848C114,-506.368 114,-494.319 114,-482.1"/>
<polygon fill="black" stroke="black" points="117.5,-482.025 114,-472.025 110.5,-482.025 117.5,-482.025"/>
</g>
<!-- p6 -->
<g id="node10" class="node"><title>p6</title>
<ellipse fill="none" stroke="black" cx="114" cy="-345" rx="27" ry="18"/>
<text text-anchor="middle" x="114" y="-341.3" font-family="Times,serif" font-size="14.00">p6</text>
</g>
<!-- transition7 -->
<g id="node13" class="node"><title>transition7</title>
<polygon fill="none" stroke="black" points="141,-291 87,-291 87,-290 141,-290 141,-291"/>
<text text-anchor="middle" x="45" y="-294.8" font-family="Times,serif" font-size="14.00">y0_sendrdone&#45;</text>
</g>
<!-- p6&#45;&gt;transition7 -->
<g id="edge11" class="edge"><title>p6&#45;&gt;transition7</title>
<path fill="none" stroke="black" d="M114,-326.939C114,-311.929 114,-292.273 114,-291.059"/>
</g>
<!-- transition6&#45;&gt;p6 -->
<g id="edge10" class="edge"><title>transition6&#45;&gt;p6</title>
<path fill="none" stroke="black" d="M114,-398.848C114,-397.368 114,-385.319 114,-373.1"/>
<polygon fill="black" stroke="black" points="117.5,-373.025 114,-363.025 110.5,-373.025 117.5,-373.025"/>
</g>
<!-- p7 -->
<g id="node12" class="node"><title>p7</title>
<ellipse fill="none" stroke="black" cx="114" cy="-236" rx="27" ry="18"/>
<text text-anchor="middle" x="114" y="-232.3" font-family="Times,serif" font-size="14.00">p7</text>
</g>
<!-- transition8 -->
<g id="node14" class="node"><title>transition8</title>
<polygon fill="none" stroke="black" points="141,-182 87,-182 87,-181 141,-181 141,-182"/>
<text text-anchor="middle" x="68" y="-185.8" font-family="Times,serif" font-size="14.00">dones&#45;</text>
</g>
<!-- p7&#45;&gt;transition8 -->
<g id="edge13" class="edge"><title>p7&#45;&gt;transition8</title>
<path fill="none" stroke="black" d="M114,-217.939C114,-202.929 114,-183.273 114,-182.059"/>
</g>
<!-- transition7&#45;&gt;p7 -->
<g id="edge12" class="edge"><title>transition7&#45;&gt;p7</title>
<path fill="none" stroke="black" d="M114,-289.848C114,-288.368 114,-276.319 114,-264.1"/>
<polygon fill="black" stroke="black" points="117.5,-264.025 114,-254.025 110.5,-264.025 117.5,-264.025"/>
</g>
<!-- transition8&#45;&gt;p1 -->
<g id="edge14" class="edge"><title>transition8&#45;&gt;p1</title>
<path fill="none" stroke="black" d="M114.071,-182.048C115.532,-183.027 139.076,-198.996 150,-218 166.493,-246.693 169,-256.905 169,-290 169,-782 169,-782 169,-782 169,-809.44 164.102,-840.459 159.904,-862.006"/>
<polygon fill="black" stroke="black" points="156.424,-861.557 157.863,-872.054 163.284,-862.95 156.424,-861.557"/>
</g>
<!-- p8 -->
<g id="node15" class="node"><title>p8</title>
<ellipse fill="none" stroke="black" cx="114" cy="-127" rx="27" ry="18"/>
<text text-anchor="middle" x="114" y="-123.3" font-family="Times,serif" font-size="14.00">p8</text>
</g>
<!-- transition8&#45;&gt;p8 -->
<g id="edge15" class="edge"><title>transition8&#45;&gt;p8</title>
<path fill="none" stroke="black" d="M114,-180.848C114,-179.368 114,-167.319 114,-155.1"/>
<polygon fill="black" stroke="black" points="117.5,-155.025 114,-145.025 110.5,-155.025 117.5,-155.025"/>
</g>
<!-- transition2 -->
<g id="node17" class="node"><title>transition2</title>
<polygon fill="none" stroke="black" points="141,-73 87,-73 87,-72 141,-72 141,-73"/>
<text text-anchor="middle" x="61" y="-76.8" font-family="Times,serif" font-size="14.00">reqsend+</text>
</g>
<!-- p8&#45;&gt;transition2 -->
<g id="edge16" class="edge"><title>p8&#45;&gt;transition2</title>
<path fill="none" stroke="black" d="M114,-108.939C114,-93.9293 114,-74.273 114,-73.0591"/>
</g>
<!-- p9 -->
<g id="node16" class="node"><title>p9</title>
<ellipse fill="none" stroke="black" cx="86" cy="-18" rx="27" ry="18"/>
<text text-anchor="middle" x="86" y="-14.3" font-family="Times,serif" font-size="14.00">p9</text>
</g>
<!-- p9&#45;&gt;transition3 -->
<g id="edge18" class="edge"><title>p9&#45;&gt;transition3</title>
<path fill="none" stroke="black" d="M79.0468,-35.7199C71.0469,-56.5029 59,-93.2387 59,-126 59,-618 59,-618 59,-618 59,-651.095 61.5067,-661.307 78,-690 88.9241,-709.004 112.468,-724.973 113.929,-725.952"/>
</g>
<!-- transition2&#45;&gt;p9 -->
<g id="edge17" class="edge"><title>transition2&#45;&gt;p9</title>
<path fill="none" stroke="black" d="M113.92,-71.848C113.099,-70.2943 106.125,-57.0929 99.3526,-44.2747"/>
<polygon fill="black" stroke="black" points="102.314,-42.3877 94.5483,-35.1807 96.1249,-45.6576 102.314,-42.3877"/>
</g>
</g>
</svg>
