<?xml version="1.0" encoding="UTF-8" standalone="no"?>
<!DOCTYPE svg PUBLIC "-//W3C//DTD SVG 1.1//EN"
 "http://www.w3.org/Graphics/SVG/1.1/DTD/svg11.dtd">
<!-- Generated by graphviz version 2.38.0 (20140413.2041)
 -->
<!-- Title: %3 Pages: 1 -->
<svg width="257pt" height="740pt"
 viewBox="0.00 0.00 257.45 740.00" xmlns="http://www.w3.org/2000/svg" xmlns:xlink="http://www.w3.org/1999/xlink">
<g id="graph0" class="graph" transform="scale(1 1) rotate(0) translate(4 736)">
<title>%3</title>
<polygon fill="white" stroke="none" points="-4,4 -4,-736 253.447,-736 253.447,4 -4,4"/>
<!-- place1 -->
<g id="node1" class="node"><title>place1</title>
<ellipse fill="none" stroke="black" cx="198.447" cy="-714" rx="34.394" ry="18"/>
<text text-anchor="middle" x="198.447" y="-710.3" font-family="Times,serif" font-size="14.00">place1</text>
</g>
<!-- place2 -->
<g id="node2" class="node"><title>place2</title>
<ellipse fill="none" stroke="black" cx="122.447" cy="-627" rx="34.394" ry="18"/>
<text text-anchor="middle" x="122.447" y="-623.3" font-family="Times,serif" font-size="14.00">place2</text>
</g>
<!-- place1&#45;&gt;place2 -->
<g id="edge1" class="edge"><title>place1&#45;&gt;place2</title>
<path fill="none" stroke="black" d="M184.507,-697.41C172.937,-684.469 156.311,-665.875 143.18,-651.188"/>
<polygon fill="black" stroke="black" points="145.573,-648.613 136.298,-643.491 140.354,-653.279 145.573,-648.613"/>
<text text-anchor="middle" x="178.447" y="-666.8" font-family="Times,serif" font-size="14.00">w8+</text>
</g>
<!-- place3 -->
<g id="node3" class="node"><title>place3</title>
<ellipse fill="none" stroke="black" cx="109.447" cy="-540" rx="34.394" ry="18"/>
<text text-anchor="middle" x="109.447" y="-536.3" font-family="Times,serif" font-size="14.00">place3</text>
</g>
<!-- place2&#45;&gt;place3 -->
<g id="edge2" class="edge"><title>place2&#45;&gt;place3</title>
<path fill="none" stroke="black" d="M115.503,-609.19C113.478,-603.512 111.522,-597.072 110.447,-591 109.166,-583.762 108.623,-575.844 108.47,-568.486"/>
<polygon fill="black" stroke="black" points="111.97,-568.257 108.484,-558.252 104.97,-568.247 111.97,-568.257"/>
<text text-anchor="middle" x="153.947" y="-579.8" font-family="Times,serif" font-size="14.00">y0_sendrdone+</text>
</g>
<!-- place4 -->
<g id="node4" class="node"><title>place4</title>
<ellipse fill="none" stroke="black" cx="133.447" cy="-453" rx="34.394" ry="18"/>
<text text-anchor="middle" x="133.447" y="-449.3" font-family="Times,serif" font-size="14.00">place4</text>
</g>
<!-- place3&#45;&gt;place4 -->
<g id="edge3" class="edge"><title>place3&#45;&gt;place4</title>
<path fill="none" stroke="black" d="M114.304,-521.799C117.644,-509.97 122.144,-494.03 125.943,-480.578"/>
<polygon fill="black" stroke="black" points="129.33,-481.46 128.679,-470.885 122.594,-479.558 129.33,-481.46"/>
<text text-anchor="middle" x="134.447" y="-492.8" font-family="Times,serif" font-size="14.00">w8&#45;</text>
</g>
<!-- place5 -->
<g id="node5" class="node"><title>place5</title>
<ellipse fill="none" stroke="black" cx="142.447" cy="-366" rx="34.394" ry="18"/>
<text text-anchor="middle" x="142.447" y="-362.3" font-family="Times,serif" font-size="14.00">place5</text>
</g>
<!-- place4&#45;&gt;place5 -->
<g id="edge4" class="edge"><title>place4&#45;&gt;place5</title>
<path fill="none" stroke="black" d="M135.268,-434.799C136.5,-423.163 138.154,-407.548 139.563,-394.237"/>
<polygon fill="black" stroke="black" points="143.056,-394.488 140.628,-384.175 136.095,-393.751 143.056,-394.488"/>
<text text-anchor="middle" x="159.947" y="-405.8" font-family="Times,serif" font-size="14.00">dones+</text>
</g>
<!-- place6 -->
<g id="node6" class="node"><title>place6</title>
<ellipse fill="none" stroke="black" cx="147.447" cy="-279" rx="34.394" ry="18"/>
<text text-anchor="middle" x="147.447" y="-275.3" font-family="Times,serif" font-size="14.00">place6</text>
</g>
<!-- place5&#45;&gt;place6 -->
<g id="edge5" class="edge"><title>place5&#45;&gt;place6</title>
<path fill="none" stroke="black" d="M143.459,-347.799C144.143,-336.163 145.062,-320.548 145.845,-307.237"/>
<polygon fill="black" stroke="black" points="149.343,-307.364 146.437,-297.175 142.355,-306.953 149.343,-307.364"/>
<text text-anchor="middle" x="169.947" y="-318.8" font-family="Times,serif" font-size="14.00">reqsend&#45;</text>
</g>
<!-- place7 -->
<g id="node7" class="node"><title>place7</title>
<ellipse fill="none" stroke="black" cx="112.447" cy="-192" rx="34.394" ry="18"/>
<text text-anchor="middle" x="112.447" y="-188.3" font-family="Times,serif" font-size="14.00">place7</text>
</g>
<!-- place6&#45;&gt;place7 -->
<g id="edge6" class="edge"><title>place6&#45;&gt;place7</title>
<path fill="none" stroke="black" d="M128.593,-263.558C122.612,-257.868 116.71,-250.818 113.447,-243 110.537,-236.029 109.49,-228.022 109.375,-220.487"/>
<polygon fill="black" stroke="black" points="112.879,-220.426 109.736,-210.308 105.883,-220.178 112.879,-220.426"/>
<text text-anchor="middle" x="155.447" y="-231.8" font-family="Times,serif" font-size="14.00">y0_sendrdone&#45;</text>
</g>
<!-- place7&#45;&gt;place1 -->
<g id="edge7" class="edge"><title>place7&#45;&gt;place1</title>
<path fill="none" stroke="black" d="M144.351,-198.934C162.294,-203.845 183.77,-212.612 197.447,-228 212.778,-245.249 211.447,-254.923 211.447,-278 211.447,-628 211.447,-628 211.447,-628 211.447,-647.471 208.072,-669.166 204.762,-685.764"/>
<polygon fill="black" stroke="black" points="201.271,-685.354 202.632,-695.861 208.121,-686.799 201.271,-685.354"/>
<text text-anchor="middle" x="230.447" y="-449.3" font-family="Times,serif" font-size="14.00">dones&#45;</text>
</g>
<!-- place8 -->
<g id="node8" class="node"><title>place8</title>
<ellipse fill="none" stroke="black" cx="80.4469" cy="-105" rx="34.394" ry="18"/>
<text text-anchor="middle" x="80.4469" y="-101.3" font-family="Times,serif" font-size="14.00">place8</text>
</g>
<!-- place7&#45;&gt;place8 -->
<g id="edge8" class="edge"><title>place7&#45;&gt;place8</title>
<path fill="none" stroke="black" d="M106.125,-174.207C101.61,-162.216 95.4497,-145.851 90.2943,-132.157"/>
<polygon fill="black" stroke="black" points="93.5549,-130.884 86.756,-122.758 87.0038,-133.35 93.5549,-130.884"/>
<text text-anchor="middle" x="117.447" y="-144.8" font-family="Times,serif" font-size="14.00">dones&#45;</text>
</g>
<!-- place9 -->
<g id="node9" class="node"><title>place9</title>
<ellipse fill="none" stroke="black" cx="34.4469" cy="-18" rx="34.394" ry="18"/>
<text text-anchor="middle" x="34.4469" y="-14.3" font-family="Times,serif" font-size="14.00">place9</text>
</g>
<!-- place8&#45;&gt;place9 -->
<g id="edge9" class="edge"><title>place8&#45;&gt;place9</title>
<path fill="none" stroke="black" d="M71.3588,-87.2067C64.7639,-75.0205 55.7247,-58.3176 48.2421,-44.491"/>
<polygon fill="black" stroke="black" points="51.1974,-42.598 43.3597,-35.4692 45.0411,-45.9297 51.1974,-42.598"/>
<text text-anchor="middle" x="86.4469" y="-57.8" font-family="Times,serif" font-size="14.00">reqsend+</text>
</g>
<!-- place9&#45;&gt;place3 -->
<g id="edge10" class="edge"><title>place9&#45;&gt;place3</title>
<path fill="none" stroke="black" d="M26.0773,-35.7942C18.4766,-52.6164 8.44694,-79.4633 8.44694,-104 8.44694,-454 8.44694,-454 8.44694,-454 8.44694,-488.489 43.3487,-511.802 72.1185,-525.161"/>
<polygon fill="black" stroke="black" points="71.0172,-528.5 81.5809,-529.312 73.8291,-522.089 71.0172,-528.5"/>
<text text-anchor="middle" x="51.9469" y="-275.3" font-family="Times,serif" font-size="14.00">y0_sendrdone+</text>
</g>
</g>
</svg>
