<?xml version="1.0" encoding="UTF-8" standalone="no"?>
<!DOCTYPE svg PUBLIC "-//W3C//DTD SVG 1.1//EN"
 "http://www.w3.org/Graphics/SVG/1.1/DTD/svg11.dtd">
<!-- Generated by graphviz version 2.38.0 (20140413.2041)
 -->
<!-- Title: %3 Pages: 1 -->
<svg width="208pt" height="953pt"
 viewBox="0.00 0.00 208.00 953.00" xmlns="http://www.w3.org/2000/svg" xmlns:xlink="http://www.w3.org/1999/xlink">
<g id="graph0" class="graph" transform="scale(1 1) rotate(0) translate(4 949)">
<title>%3</title>
<polygon fill="white" stroke="none" points="-4,4 -4,-949 204,-949 204,4 -4,4"/>
<!-- PL1 -->
<g id="node1" class="node"><title>PL1</title>
<ellipse fill="none" stroke="black" cx="177" cy="-927" rx="18" ry="18"/>
<text text-anchor="middle" x="177" y="-923.3" font-family="Times,serif" font-size="14.00">PL1</text>
</g>
<!-- transition4 -->
<g id="node3" class="node"><title>transition4</title>
<polygon fill="none" stroke="black" points="172,-873 136,-873 136,-872 172,-872 172,-873"/>
<text text-anchor="middle" x="129" y="-876.8" font-family="Times,serif" font-size="14.00">s+</text>
</g>
<!-- PL1&#45;&gt;transition4 -->
<g id="edge1" class="edge"><title>PL1&#45;&gt;transition4</title>
<path fill="none" stroke="black" d="M170.099,-910.098C165.279,-898.992 159.169,-884.912 156.044,-877.71"/>
<polygon fill="none" stroke="black" points="157.623,-876.952 154.027,-873.062 154.412,-878.346 157.623,-876.952"/>
</g>
<!-- transition10 -->
<g id="node11" class="node"><title>transition10</title>
<polygon fill="none" stroke="black" points="170,-437 134,-437 134,-436 170,-436 170,-437"/>
<text text-anchor="middle" x="124.5" y="-440.8" font-family="Times,serif" font-size="14.00">m+</text>
</g>
<!-- PL1&#45;&gt;transition10 -->
<g id="edge22" class="edge"><title>PL1&#45;&gt;transition10</title>
<path fill="none" stroke="black" d="M182.685,-909.917C189.496,-889.18 200,-851.871 200,-819 200,-819 200,-819 200,-545 200,-511.667 193.907,-502.814 179,-473 172.501,-460.003 161.193,-446.888 155.495,-440.688"/>
<polygon fill="none" stroke="black" points="156.761,-439.48 152.052,-437.053 154.219,-441.886 156.761,-439.48"/>
</g>
<!-- PL3 -->
<g id="node2" class="node"><title>PL3</title>
<ellipse fill="none" stroke="black" cx="116" cy="-818" rx="18" ry="18"/>
<text text-anchor="middle" x="116" y="-814.3" font-family="Times,serif" font-size="14.00">PL3</text>
</g>
<!-- transition1 -->
<g id="node5" class="node"><title>transition1</title>
<polygon fill="none" stroke="black" points="134,-764 98,-764 98,-763 134,-763 134,-764"/>
<text text-anchor="middle" x="90.5" y="-767.8" font-family="Times,serif" font-size="14.00">q+</text>
</g>
<!-- PL3&#45;&gt;transition1 -->
<g id="edge3" class="edge"><title>PL3&#45;&gt;transition1</title>
<path fill="none" stroke="black" d="M116,-799.939C116,-789.385 116,-776.534 116,-769.412"/>
<polygon fill="none" stroke="black" points="117.75,-769.059 116,-764.059 114.25,-769.059 117.75,-769.059"/>
</g>
<!-- transition4&#45;&gt;PL3 -->
<g id="edge2" class="edge"><title>transition4&#45;&gt;PL3</title>
<path fill="none" stroke="black" d="M153.891,-871.848C152.687,-870.169 141.726,-854.881 131.901,-841.177"/>
<polygon fill="black" stroke="black" points="134.699,-839.073 126.028,-832.986 129.01,-843.152 134.699,-839.073"/>
</g>
<!-- PL4 -->
<g id="node4" class="node"><title>PL4</title>
<ellipse fill="none" stroke="black" cx="107" cy="-709" rx="18" ry="18"/>
<text text-anchor="middle" x="107" y="-705.3" font-family="Times,serif" font-size="14.00">PL4</text>
</g>
<!-- transition2 -->
<g id="node7" class="node"><title>transition2</title>
<polygon fill="none" stroke="black" points="125,-655 89,-655 89,-654 125,-654 125,-655"/>
<text text-anchor="middle" x="83.5" y="-658.8" font-family="Times,serif" font-size="14.00">s&#45;</text>
</g>
<!-- PL4&#45;&gt;transition2 -->
<g id="edge5" class="edge"><title>PL4&#45;&gt;transition2</title>
<path fill="none" stroke="black" d="M107,-690.939C107,-680.385 107,-667.534 107,-660.412"/>
<polygon fill="none" stroke="black" points="108.75,-660.059 107,-655.059 105.25,-660.059 108.75,-660.059"/>
</g>
<!-- transition9 -->
<g id="node19" class="node"><title>transition9</title>
<polygon fill="none" stroke="black" points="55,-600.5 19,-600.5 19,-599.5 55,-599.5 55,-600.5"/>
<text text-anchor="middle" x="9.5" y="-604.3" font-family="Times,serif" font-size="14.00">m+</text>
</g>
<!-- PL4&#45;&gt;transition9 -->
<g id="edge20" class="edge"><title>PL4&#45;&gt;transition9</title>
<path fill="none" stroke="black" d="M97.5595,-693.57C81.5429,-669.087 49.8247,-620.604 39.9833,-605.56"/>
<polygon fill="none" stroke="black" points="41.2319,-604.272 37.0301,-601.046 38.303,-606.188 41.2319,-604.272"/>
</g>
<!-- transition1&#45;&gt;PL4 -->
<g id="edge4" class="edge"><title>transition1&#45;&gt;PL4</title>
<path fill="none" stroke="black" d="M115.974,-762.848C115.723,-761.368 113.677,-749.319 111.602,-737.1"/>
<polygon fill="black" stroke="black" points="115.016,-736.298 109.891,-727.025 108.115,-737.47 115.016,-736.298"/>
</g>
<!-- PL5 -->
<g id="node6" class="node"><title>PL5</title>
<ellipse fill="none" stroke="black" cx="107" cy="-600" rx="18" ry="18"/>
<text text-anchor="middle" x="107" y="-596.3" font-family="Times,serif" font-size="14.00">PL5</text>
</g>
<!-- transition3 -->
<g id="node9" class="node"><title>transition3</title>
<polygon fill="none" stroke="black" points="134,-546 98,-546 98,-545 134,-545 134,-546"/>
<text text-anchor="middle" x="92" y="-549.8" font-family="Times,serif" font-size="14.00">q&#45;</text>
</g>
<!-- PL5&#45;&gt;transition3 -->
<g id="edge7" class="edge"><title>PL5&#45;&gt;transition3</title>
<path fill="none" stroke="black" d="M109.897,-581.939C111.689,-571.385 113.872,-558.534 115.081,-551.412"/>
<polygon fill="none" stroke="black" points="116.878,-551.282 115.99,-546.059 113.428,-550.696 116.878,-551.282"/>
</g>
<!-- transition2&#45;&gt;PL5 -->
<g id="edge6" class="edge"><title>transition2&#45;&gt;PL5</title>
<path fill="none" stroke="black" d="M107,-653.848C107,-652.368 107,-640.319 107,-628.1"/>
<polygon fill="black" stroke="black" points="110.5,-628.025 107,-618.025 103.5,-628.025 110.5,-628.025"/>
</g>
<!-- PL2 -->
<g id="node8" class="node"><title>PL2</title>
<ellipse fill="none" stroke="black" cx="152" cy="-491" rx="18" ry="18"/>
<text text-anchor="middle" x="152" y="-487.3" font-family="Times,serif" font-size="14.00">PL2</text>
</g>
<!-- PL2&#45;&gt;transition4 -->
<g id="edge9" class="edge"><title>PL2&#45;&gt;transition4</title>
<path fill="none" stroke="black" d="M154.575,-509.003C157.538,-530.072 162,-567.096 162,-599 162,-764 162,-764 162,-764 162,-803.606 156.583,-851.16 154.664,-866.763"/>
<polygon fill="none" stroke="black" points="152.898,-866.776 154.006,-871.956 156.371,-867.216 152.898,-866.776"/>
</g>
<!-- PL2&#45;&gt;transition10 -->
<g id="edge10" class="edge"><title>PL2&#45;&gt;transition10</title>
<path fill="none" stroke="black" d="M152,-472.939C152,-462.385 152,-449.534 152,-442.412"/>
<polygon fill="none" stroke="black" points="153.75,-442.059 152,-437.059 150.25,-442.059 153.75,-442.059"/>
</g>
<!-- transition3&#45;&gt;PL2 -->
<g id="edge8" class="edge"><title>transition3&#45;&gt;PL2</title>
<path fill="none" stroke="black" d="M116.103,-544.848C117.226,-543.194 127.311,-528.347 136.506,-514.81"/>
<polygon fill="black" stroke="black" points="139.594,-516.494 142.317,-506.255 133.803,-512.561 139.594,-516.494"/>
</g>
<!-- PL8 -->
<g id="node10" class="node"><title>PL8</title>
<ellipse fill="none" stroke="black" cx="133" cy="-382" rx="18" ry="18"/>
<text text-anchor="middle" x="133" y="-378.3" font-family="Times,serif" font-size="14.00">PL8</text>
</g>
<!-- transition5 -->
<g id="node13" class="node"><title>transition5</title>
<polygon fill="none" stroke="black" points="142,-328 106,-328 106,-327 142,-327 142,-328"/>
<text text-anchor="middle" x="99" y="-331.8" font-family="Times,serif" font-size="14.00">s+</text>
</g>
<!-- PL8&#45;&gt;transition5 -->
<g id="edge12" class="edge"><title>PL8&#45;&gt;transition5</title>
<path fill="none" stroke="black" d="M130.103,-363.939C128.311,-353.385 126.128,-340.534 124.919,-333.412"/>
<polygon fill="none" stroke="black" points="126.572,-332.696 124.01,-328.059 123.122,-333.282 126.572,-332.696"/>
</g>
<!-- transition10&#45;&gt;PL8 -->
<g id="edge11" class="edge"><title>transition10&#45;&gt;PL8</title>
<path fill="none" stroke="black" d="M151.945,-435.848C151.394,-434.309 146.747,-421.348 142.195,-408.648"/>
<polygon fill="black" stroke="black" points="145.47,-407.413 138.801,-399.181 138.881,-409.775 145.47,-407.413"/>
</g>
<!-- PL9 -->
<g id="node12" class="node"><title>PL9</title>
<ellipse fill="none" stroke="black" cx="119" cy="-273" rx="18" ry="18"/>
<text text-anchor="middle" x="119" y="-269.3" font-family="Times,serif" font-size="14.00">PL9</text>
</g>
<!-- transition6 -->
<g id="node15" class="node"><title>transition6</title>
<polygon fill="none" stroke="black" points="135,-219 99,-219 99,-218 135,-218 135,-219"/>
<text text-anchor="middle" x="91.5" y="-222.8" font-family="Times,serif" font-size="14.00">q+</text>
</g>
<!-- PL9&#45;&gt;transition6 -->
<g id="edge14" class="edge"><title>PL9&#45;&gt;transition6</title>
<path fill="none" stroke="black" d="M118.356,-254.939C117.958,-244.385 117.473,-231.534 117.204,-224.412"/>
<polygon fill="none" stroke="black" points="118.94,-223.99 117.002,-219.059 115.442,-224.122 118.94,-223.99"/>
</g>
<!-- transition5&#45;&gt;PL9 -->
<g id="edge13" class="edge"><title>transition5&#45;&gt;PL9</title>
<path fill="none" stroke="black" d="M123.986,-326.848C123.846,-325.368 122.709,-313.319 121.557,-301.1"/>
<polygon fill="black" stroke="black" points="125.03,-300.652 120.606,-291.025 118.061,-301.309 125.03,-300.652"/>
</g>
<!-- PL6 -->
<g id="node14" class="node"><title>PL6</title>
<ellipse fill="none" stroke="black" cx="116" cy="-164" rx="18" ry="18"/>
<text text-anchor="middle" x="116" y="-160.3" font-family="Times,serif" font-size="14.00">PL6</text>
</g>
<!-- transition7 -->
<g id="node17" class="node"><title>transition7</title>
<polygon fill="none" stroke="black" points="134,-110 98,-110 98,-109 134,-109 134,-110"/>
<text text-anchor="middle" x="92.5" y="-113.8" font-family="Times,serif" font-size="14.00">s&#45;</text>
</g>
<!-- PL6&#45;&gt;transition7 -->
<g id="edge16" class="edge"><title>PL6&#45;&gt;transition7</title>
<path fill="none" stroke="black" d="M116,-145.939C116,-135.385 116,-122.534 116,-115.412"/>
<polygon fill="none" stroke="black" points="117.75,-115.059 116,-110.059 114.25,-115.059 117.75,-115.059"/>
</g>
<!-- transition6&#45;&gt;PL6 -->
<g id="edge15" class="edge"><title>transition6&#45;&gt;PL6</title>
<path fill="none" stroke="black" d="M116.997,-217.848C116.969,-216.368 116.742,-204.319 116.511,-192.1"/>
<polygon fill="black" stroke="black" points="120.009,-191.957 116.321,-182.025 113.011,-192.089 120.009,-191.957"/>
</g>
<!-- PL7 -->
<g id="node16" class="node"><title>PL7</title>
<ellipse fill="none" stroke="black" cx="116" cy="-55" rx="18" ry="18"/>
<text text-anchor="middle" x="116" y="-51.3" font-family="Times,serif" font-size="14.00">PL7</text>
</g>
<!-- transition8 -->
<g id="node18" class="node"><title>transition8</title>
<polygon fill="none" stroke="black" points="111,-1 75,-1 75,-0 111,-0 111,-1"/>
<text text-anchor="middle" x="67" y="-4.8" font-family="Times,serif" font-size="14.00">m&#45;</text>
</g>
<!-- PL7&#45;&gt;transition8 -->
<g id="edge18" class="edge"><title>PL7&#45;&gt;transition8</title>
<path fill="none" stroke="black" d="M109.099,-38.0983C104.279,-26.9918 98.1693,-12.9118 95.0441,-5.7104"/>
<polygon fill="none" stroke="black" points="96.6228,-4.95216 93.027,-1.06211 93.4121,-6.34553 96.6228,-4.95216"/>
</g>
<!-- transition7&#45;&gt;PL7 -->
<g id="edge17" class="edge"><title>transition7&#45;&gt;PL7</title>
<path fill="none" stroke="black" d="M116,-108.848C116,-107.368 116,-95.3194 116,-83.1004"/>
<polygon fill="black" stroke="black" points="119.5,-83.0247 116,-73.0247 112.5,-83.0248 119.5,-83.0247"/>
</g>
<!-- transition8&#45;&gt;PL5 -->
<g id="edge19" class="edge"><title>transition8&#45;&gt;PL5</title>
<path fill="none" stroke="black" d="M92.9833,-1.04289C92.2869,-2.83896 70,-60.6904 70,-109 70,-492 70,-492 70,-492 70,-521.829 83.0024,-553.894 93.5915,-575.062"/>
<polygon fill="black" stroke="black" points="90.5088,-576.72 98.2315,-583.973 96.7177,-573.487 90.5088,-576.72"/>
</g>
<!-- transition9&#45;&gt;PL6 -->
<g id="edge21" class="edge"><title>transition9&#45;&gt;PL6</title>
<path fill="none" stroke="black" d="M36.9964,-598.957C36.845,-597.147 32,-538.864 32,-492 32,-492 32,-492 32,-272 32,-232.494 67.8652,-198.931 92.7251,-180.412"/>
<polygon fill="black" stroke="black" points="94.8863,-183.17 100.982,-174.504 90.8131,-177.477 94.8863,-183.17"/>
</g>
</g>
</svg>
