<?xml version="1.0" encoding="UTF-8" standalone="no"?>
<!DOCTYPE svg PUBLIC "-//W3C//DTD SVG 1.1//EN"
 "http://www.w3.org/Graphics/SVG/1.1/DTD/svg11.dtd">
<!-- Generated by graphviz version 2.38.0 (20140413.2041)
 -->
<!-- Title: %3 Pages: 1 -->
<svg width="187pt" height="953pt"
 viewBox="0.00 0.00 187.00 953.00" xmlns="http://www.w3.org/2000/svg" xmlns:xlink="http://www.w3.org/1999/xlink">
<g id="graph0" class="graph" transform="scale(1 1) rotate(0) translate(4 949)">
<title>%3</title>
<polygon fill="white" stroke="none" points="-4,4 -4,-949 183,-949 183,4 -4,4"/>
<!-- PL1 -->
<g id="node1" class="node"><title>PL1</title>
<ellipse fill="none" stroke="black" cx="156" cy="-927" rx="18" ry="18"/>
<text text-anchor="middle" x="156" y="-923.3" font-family="Times,serif" font-size="14.00">PL1</text>
</g>
<!-- transition4 -->
<g id="node3" class="node"><title>transition4</title>
<polygon fill="none" stroke="black" points="151,-873 115,-873 115,-872 151,-872 151,-873"/>
<text text-anchor="middle" x="108" y="-876.8" font-family="Times,serif" font-size="14.00">s+</text>
</g>
<!-- PL1&#45;&gt;transition4 -->
<g id="edge1" class="edge"><title>PL1&#45;&gt;transition4</title>
<path fill="none" stroke="black" d="M149.099,-910.098C144.279,-898.992 138.169,-884.912 135.044,-877.71"/>
<polygon fill="none" stroke="black" points="136.623,-876.952 133.027,-873.062 133.412,-878.346 136.623,-876.952"/>
</g>
<!-- transition10 -->
<g id="node15" class="node"><title>transition10</title>
<polygon fill="none" stroke="black" points="132,-219 96,-219 96,-218 132,-218 132,-219"/>
<text text-anchor="middle" x="86.5" y="-222.8" font-family="Times,serif" font-size="14.00">m+</text>
</g>
<!-- PL1&#45;&gt;transition10 -->
<g id="edge22" class="edge"><title>PL1&#45;&gt;transition10</title>
<path fill="none" stroke="black" d="M161.685,-909.917C168.496,-889.18 179,-851.871 179,-819 179,-819 179,-819 179,-327 179,-279.608 132.484,-235.11 118.153,-222.525"/>
<polygon fill="none" stroke="black" points="118.991,-220.941 114.047,-219.038 116.725,-223.609 118.991,-220.941"/>
</g>
<!-- PL8 -->
<g id="node2" class="node"><title>PL8</title>
<ellipse fill="none" stroke="black" cx="95" cy="-818" rx="18" ry="18"/>
<text text-anchor="middle" x="95" y="-814.3" font-family="Times,serif" font-size="14.00">PL8</text>
</g>
<!-- transition1 -->
<g id="node5" class="node"><title>transition1</title>
<polygon fill="none" stroke="black" points="113,-764 77,-764 77,-763 113,-763 113,-764"/>
<text text-anchor="middle" x="69.5" y="-767.8" font-family="Times,serif" font-size="14.00">q+</text>
</g>
<!-- PL8&#45;&gt;transition1 -->
<g id="edge3" class="edge"><title>PL8&#45;&gt;transition1</title>
<path fill="none" stroke="black" d="M95,-799.939C95,-789.385 95,-776.534 95,-769.412"/>
<polygon fill="none" stroke="black" points="96.7501,-769.059 95,-764.059 93.2501,-769.059 96.7501,-769.059"/>
</g>
<!-- transition4&#45;&gt;PL8 -->
<g id="edge2" class="edge"><title>transition4&#45;&gt;PL8</title>
<path fill="none" stroke="black" d="M132.891,-871.848C131.687,-870.169 120.726,-854.881 110.901,-841.177"/>
<polygon fill="black" stroke="black" points="113.699,-839.073 105.028,-832.986 108.01,-843.152 113.699,-839.073"/>
</g>
<!-- PL9 -->
<g id="node4" class="node"><title>PL9</title>
<ellipse fill="none" stroke="black" cx="95" cy="-709" rx="18" ry="18"/>
<text text-anchor="middle" x="95" y="-705.3" font-family="Times,serif" font-size="14.00">PL9</text>
</g>
<!-- transition9 -->
<g id="node7" class="node"><title>transition9</title>
<polygon fill="none" stroke="black" points="63,-655 27,-655 27,-654 63,-654 63,-655"/>
<text text-anchor="middle" x="17.5" y="-658.8" font-family="Times,serif" font-size="14.00">m+</text>
</g>
<!-- PL9&#45;&gt;transition9 -->
<g id="edge5" class="edge"><title>PL9&#45;&gt;transition9</title>
<path fill="none" stroke="black" d="M83.1507,-695.44C71.9604,-683.578 55.8558,-666.507 48.6853,-658.906"/>
<polygon fill="none" stroke="black" points="49.7716,-657.508 45.0675,-655.072 47.2257,-659.909 49.7716,-657.508"/>
</g>
<!-- transition2 -->
<g id="node19" class="node"><title>transition2</title>
<polygon fill="none" stroke="black" points="113,-600.5 77,-600.5 77,-599.5 113,-599.5 113,-600.5"/>
<text text-anchor="middle" x="71.5" y="-604.3" font-family="Times,serif" font-size="14.00">s&#45;</text>
</g>
<!-- PL9&#45;&gt;transition2 -->
<g id="edge20" class="edge"><title>PL9&#45;&gt;transition2</title>
<path fill="none" stroke="black" d="M95,-690.809C95,-665.92 95,-621.18 95,-606.112"/>
<polygon fill="none" stroke="black" points="96.7501,-606.043 95,-601.043 93.2501,-606.043 96.7501,-606.043"/>
</g>
<!-- transition1&#45;&gt;PL9 -->
<g id="edge4" class="edge"><title>transition1&#45;&gt;PL9</title>
<path fill="none" stroke="black" d="M95,-762.848C95,-761.368 95,-749.319 95,-737.1"/>
<polygon fill="black" stroke="black" points="98.5001,-737.025 95,-727.025 91.5001,-737.025 98.5001,-737.025"/>
</g>
<!-- PL5 -->
<g id="node6" class="node"><title>PL5</title>
<ellipse fill="none" stroke="black" cx="41" cy="-600" rx="18" ry="18"/>
<text text-anchor="middle" x="41" y="-596.3" font-family="Times,serif" font-size="14.00">PL5</text>
</g>
<!-- transition7 -->
<g id="node9" class="node"><title>transition7</title>
<polygon fill="none" stroke="black" points="71,-546 35,-546 35,-545 71,-545 71,-546"/>
<text text-anchor="middle" x="29.5" y="-549.8" font-family="Times,serif" font-size="14.00">s&#45;</text>
</g>
<!-- PL5&#45;&gt;transition7 -->
<g id="edge7" class="edge"><title>PL5&#45;&gt;transition7</title>
<path fill="none" stroke="black" d="M44.7969,-582.23C47.2448,-571.419 50.2608,-558.098 51.867,-551.004"/>
<polygon fill="none" stroke="black" points="53.589,-551.323 52.9864,-546.06 50.1754,-550.55 53.589,-551.323"/>
</g>
<!-- transition9&#45;&gt;PL5 -->
<g id="edge6" class="edge"><title>transition9&#45;&gt;PL5</title>
<path fill="none" stroke="black" d="M44.9885,-653.848C44.8768,-652.368 43.9675,-640.319 43.0453,-628.1"/>
<polygon fill="black" stroke="black" points="46.5276,-627.733 42.2849,-618.025 39.5475,-628.26 46.5276,-627.733"/>
</g>
<!-- PL6 -->
<g id="node8" class="node"><title>PL6</title>
<ellipse fill="none" stroke="black" cx="53" cy="-491" rx="18" ry="18"/>
<text text-anchor="middle" x="53" y="-487.3" font-family="Times,serif" font-size="14.00">PL6</text>
</g>
<!-- transition8 -->
<g id="node11" class="node"><title>transition8</title>
<polygon fill="none" stroke="black" points="71,-437 35,-437 35,-436 71,-436 71,-437"/>
<text text-anchor="middle" x="27" y="-440.8" font-family="Times,serif" font-size="14.00">m&#45;</text>
</g>
<!-- PL6&#45;&gt;transition8 -->
<g id="edge9" class="edge"><title>PL6&#45;&gt;transition8</title>
<path fill="none" stroke="black" d="M53,-472.939C53,-462.385 53,-449.534 53,-442.412"/>
<polygon fill="none" stroke="black" points="54.7501,-442.059 53,-437.059 51.2501,-442.059 54.7501,-442.059"/>
</g>
<!-- transition7&#45;&gt;PL6 -->
<g id="edge8" class="edge"><title>transition7&#45;&gt;PL6</title>
<path fill="none" stroke="black" d="M53,-544.848C53,-543.368 53,-531.319 53,-519.1"/>
<polygon fill="black" stroke="black" points="56.5001,-519.025 53,-509.025 49.5001,-519.025 56.5001,-519.025"/>
</g>
<!-- PL7 -->
<g id="node10" class="node"><title>PL7</title>
<ellipse fill="none" stroke="black" cx="95" cy="-382" rx="18" ry="18"/>
<text text-anchor="middle" x="95" y="-378.3" font-family="Times,serif" font-size="14.00">PL7</text>
</g>
<!-- transition3 -->
<g id="node13" class="node"><title>transition3</title>
<polygon fill="none" stroke="black" points="113,-328 77,-328 77,-327 113,-327 113,-328"/>
<text text-anchor="middle" x="71" y="-331.8" font-family="Times,serif" font-size="14.00">q&#45;</text>
</g>
<!-- PL7&#45;&gt;transition3 -->
<g id="edge11" class="edge"><title>PL7&#45;&gt;transition3</title>
<path fill="none" stroke="black" d="M95,-363.939C95,-353.385 95,-340.534 95,-333.412"/>
<polygon fill="none" stroke="black" points="96.7501,-333.059 95,-328.059 93.2501,-333.059 96.7501,-333.059"/>
</g>
<!-- transition8&#45;&gt;PL7 -->
<g id="edge10" class="edge"><title>transition8&#45;&gt;PL7</title>
<path fill="none" stroke="black" d="M53.1205,-435.848C54.4593,-434.159 66.7119,-418.697 77.6205,-404.931"/>
<polygon fill="black" stroke="black" points="80.6616,-406.729 84.1293,-396.718 75.1754,-402.381 80.6616,-406.729"/>
</g>
<!-- PL2 -->
<g id="node12" class="node"><title>PL2</title>
<ellipse fill="none" stroke="black" cx="114" cy="-273" rx="18" ry="18"/>
<text text-anchor="middle" x="114" y="-269.3" font-family="Times,serif" font-size="14.00">PL2</text>
</g>
<!-- PL2&#45;&gt;transition4 -->
<g id="edge13" class="edge"><title>PL2&#45;&gt;transition4</title>
<path fill="none" stroke="black" d="M120.674,-289.997C128.67,-310.643 141,-347.855 141,-381 141,-764 141,-764 141,-764 141,-803.606 135.583,-851.16 133.664,-866.763"/>
<polygon fill="none" stroke="black" points="131.898,-866.776 133.006,-871.956 135.371,-867.216 131.898,-866.776"/>
</g>
<!-- PL2&#45;&gt;transition10 -->
<g id="edge14" class="edge"><title>PL2&#45;&gt;transition10</title>
<path fill="none" stroke="black" d="M114,-254.939C114,-244.385 114,-231.534 114,-224.412"/>
<polygon fill="none" stroke="black" points="115.75,-224.059 114,-219.059 112.25,-224.059 115.75,-224.059"/>
</g>
<!-- transition3&#45;&gt;PL2 -->
<g id="edge12" class="edge"><title>transition3&#45;&gt;PL2</title>
<path fill="none" stroke="black" d="M95.0545,-326.848C95.6061,-325.309 100.253,-312.348 104.805,-299.648"/>
<polygon fill="black" stroke="black" points="108.119,-300.775 108.199,-290.181 101.53,-298.413 108.119,-300.775"/>
</g>
<!-- PL3 -->
<g id="node14" class="node"><title>PL3</title>
<ellipse fill="none" stroke="black" cx="98" cy="-164" rx="18" ry="18"/>
<text text-anchor="middle" x="98" y="-160.3" font-family="Times,serif" font-size="14.00">PL3</text>
</g>
<!-- transition5 -->
<g id="node17" class="node"><title>transition5</title>
<polygon fill="none" stroke="black" points="86,-110 50,-110 50,-109 86,-109 86,-110"/>
<text text-anchor="middle" x="43" y="-113.8" font-family="Times,serif" font-size="14.00">s+</text>
</g>
<!-- PL3&#45;&gt;transition5 -->
<g id="edge16" class="edge"><title>PL3&#45;&gt;transition5</title>
<path fill="none" stroke="black" d="M89.4834,-147.954C83.1736,-136.807 74.9684,-122.311 70.7582,-114.873"/>
<polygon fill="none" stroke="black" points="72.0224,-113.554 68.0365,-110.064 68.9765,-115.278 72.0224,-113.554"/>
</g>
<!-- transition10&#45;&gt;PL3 -->
<g id="edge15" class="edge"><title>transition10&#45;&gt;PL3</title>
<path fill="none" stroke="black" d="M113.954,-217.848C113.497,-216.334 109.701,-203.761 105.927,-191.259"/>
<polygon fill="black" stroke="black" points="109.21,-190.023 102.969,-181.461 102.509,-192.046 109.21,-190.023"/>
</g>
<!-- PL4 -->
<g id="node16" class="node"><title>PL4</title>
<ellipse fill="none" stroke="black" cx="60" cy="-55" rx="18" ry="18"/>
<text text-anchor="middle" x="60" y="-51.3" font-family="Times,serif" font-size="14.00">PL4</text>
</g>
<!-- transition6 -->
<g id="node18" class="node"><title>transition6</title>
<polygon fill="none" stroke="black" points="51,-1 15,-1 15,-0 51,-0 51,-1"/>
<text text-anchor="middle" x="7.5" y="-4.8" font-family="Times,serif" font-size="14.00">q+</text>
</g>
<!-- PL4&#45;&gt;transition6 -->
<g id="edge18" class="edge"><title>PL4&#45;&gt;transition6</title>
<path fill="none" stroke="black" d="M52.1905,-38.6702C46.5175,-27.5343 39.2035,-13.1772 35.4547,-5.81843"/>
<polygon fill="none" stroke="black" points="36.8614,-4.72446 33.0324,-1.06364 33.7428,-6.31323 36.8614,-4.72446"/>
</g>
<!-- transition5&#45;&gt;PL4 -->
<g id="edge17" class="edge"><title>transition5&#45;&gt;PL4</title>
<path fill="none" stroke="black" d="M67.9771,-108.848C67.7537,-107.368 65.935,-95.3194 64.0906,-83.1004"/>
<polygon fill="black" stroke="black" points="67.5232,-82.3903 62.5698,-73.0247 60.6016,-83.4351 67.5232,-82.3903"/>
</g>
<!-- transition6&#45;&gt;PL5 -->
<g id="edge19" class="edge"><title>transition6&#45;&gt;PL5</title>
<path fill="none" stroke="black" d="M32.9812,-1.04268C32.1938,-2.82989 7,-60.4001 7,-109 7,-492 7,-492 7,-492 7,-521.447 18.8408,-553.402 28.547,-574.65"/>
<polygon fill="black" stroke="black" points="25.4852,-576.361 32.9425,-583.887 31.806,-573.353 25.4852,-576.361"/>
</g>
<!-- transition2&#45;&gt;PL7 -->
<g id="edge21" class="edge"><title>transition2&#45;&gt;PL7</title>
<path fill="none" stroke="black" d="M95,-598.843C95,-593.779 95,-467.146 95,-410.245"/>
<polygon fill="black" stroke="black" points="98.5001,-410.164 95,-400.164 91.5001,-410.164 98.5001,-410.164"/>
</g>
</g>
</svg>
