<?xml version="1.0" encoding="UTF-8" standalone="no"?>
<!DOCTYPE svg PUBLIC "-//W3C//DTD SVG 1.1//EN"
 "http://www.w3.org/Graphics/SVG/1.1/DTD/svg11.dtd">
<!-- Generated by graphviz version 2.38.0 (20140413.2041)
 -->
<!-- Title: %3 Pages: 1 -->
<svg width="432pt" height="1716pt"
 viewBox="0.00 0.00 432.00 1716.00" xmlns="http://www.w3.org/2000/svg" xmlns:xlink="http://www.w3.org/1999/xlink">
<g id="graph0" class="graph" transform="scale(1 1) rotate(0) translate(4 1712)">
<title>%3</title>
<polygon fill="white" stroke="none" points="-4,4 -4,-1712 428,-1712 428,4 -4,4"/>
<!-- p1 -->
<g id="node1" class="node"><title>p1</title>
<ellipse fill="none" stroke="black" cx="399" cy="-1690" rx="18" ry="18"/>
<text text-anchor="middle" x="399" y="-1686.3" font-family="Times,serif" font-size="14.00">p1</text>
</g>
<!-- transition0 -->
<g id="node3" class="node"><title>transition0</title>
<polygon fill="none" stroke="black" points="392,-1636 356,-1636 356,-1635 392,-1635 392,-1636"/>
<text text-anchor="middle" x="315" y="-1639.8" font-family="Times,serif" font-size="14.00">startdmasend+</text>
</g>
<!-- p1&#45;&gt;transition0 -->
<g id="edge1" class="edge"><title>p1&#45;&gt;transition0</title>
<path fill="none" stroke="black" d="M391.634,-1673.38C386.388,-1662.26 379.681,-1648.04 376.247,-1640.76"/>
<polygon fill="none" stroke="black" points="377.746,-1639.84 374.03,-1636.06 374.58,-1641.33 377.746,-1639.84"/>
</g>
<!-- p2 -->
<g id="node2" class="node"><title>p2</title>
<ellipse fill="none" stroke="black" cx="369" cy="-1581" rx="18" ry="18"/>
<text text-anchor="middle" x="369" y="-1577.3" font-family="Times,serif" font-size="14.00">p2</text>
</g>
<!-- transition1 -->
<g id="node5" class="node"><title>transition1</title>
<polygon fill="none" stroke="black" points="383,-1527 347,-1527 347,-1526 383,-1526 383,-1527"/>
<text text-anchor="middle" x="318.5" y="-1530.8" font-family="Times,serif" font-size="14.00">endmaint&#45;</text>
</g>
<!-- p2&#45;&gt;transition1 -->
<g id="edge3" class="edge"><title>p2&#45;&gt;transition1</title>
<path fill="none" stroke="black" d="M367.712,-1562.94C366.916,-1552.39 365.946,-1539.53 365.408,-1532.41"/>
<polygon fill="none" stroke="black" points="367.126,-1531.91 365.004,-1527.06 363.636,-1532.18 367.126,-1531.91"/>
</g>
<!-- transition0&#45;&gt;p2 -->
<g id="edge2" class="edge"><title>transition0&#45;&gt;p2</title>
<path fill="none" stroke="black" d="M373.986,-1634.85C373.846,-1633.37 372.709,-1621.32 371.557,-1609.1"/>
<polygon fill="black" stroke="black" points="375.03,-1608.65 370.606,-1599.02 368.061,-1609.31 375.03,-1608.65"/>
</g>
<!-- p3 -->
<g id="node4" class="node"><title>p3</title>
<ellipse fill="none" stroke="black" cx="347" cy="-1472" rx="18" ry="18"/>
<text text-anchor="middle" x="347" y="-1468.3" font-family="Times,serif" font-size="14.00">p3</text>
</g>
<!-- transition2 -->
<g id="node7" class="node"><title>transition2</title>
<polygon fill="none" stroke="black" points="363,-1418 327,-1418 327,-1417 363,-1417 363,-1418"/>
<text text-anchor="middle" x="287.5" y="-1421.8" font-family="Times,serif" font-size="14.00">startdmasend&#45;</text>
</g>
<!-- p3&#45;&gt;transition2 -->
<g id="edge5" class="edge"><title>p3&#45;&gt;transition2</title>
<path fill="none" stroke="black" d="M346.356,-1453.94C345.958,-1443.39 345.473,-1430.53 345.204,-1423.41"/>
<polygon fill="none" stroke="black" points="346.94,-1422.99 345.002,-1418.06 343.442,-1423.12 346.94,-1422.99"/>
</g>
<!-- transition1&#45;&gt;p3 -->
<g id="edge4" class="edge"><title>transition1&#45;&gt;p3</title>
<path fill="none" stroke="black" d="M364.948,-1525.85C364.431,-1524.32 360.11,-1511.6 355.838,-1499.02"/>
<polygon fill="black" stroke="black" points="359.025,-1497.52 352.495,-1489.18 352.397,-1499.78 359.025,-1497.52"/>
</g>
<!-- p4 -->
<g id="node6" class="node"><title>p4</title>
<ellipse fill="none" stroke="black" cx="309" cy="-1363" rx="18" ry="18"/>
<text text-anchor="middle" x="309" y="-1359.3" font-family="Times,serif" font-size="14.00">p4</text>
</g>
<!-- transition3 -->
<g id="node9" class="node"><title>transition3</title>
<polygon fill="none" stroke="black" points="326,-1309 290,-1309 290,-1308 326,-1308 326,-1309"/>
<text text-anchor="middle" x="273.5" y="-1312.8" font-family="Times,serif" font-size="14.00">dreq+</text>
</g>
<!-- p4&#45;&gt;transition3 -->
<g id="edge7" class="edge"><title>p4&#45;&gt;transition3</title>
<path fill="none" stroke="black" d="M308.678,-1344.94C308.479,-1334.39 308.236,-1321.53 308.102,-1314.41"/>
<polygon fill="none" stroke="black" points="309.845,-1314.03 308.001,-1309.06 306.346,-1314.09 309.845,-1314.03"/>
</g>
<!-- transition2&#45;&gt;p4 -->
<g id="edge6" class="edge"><title>transition2&#45;&gt;p4</title>
<path fill="none" stroke="black" d="M344.897,-1416.85C343.774,-1415.19 333.689,-1400.35 324.494,-1386.81"/>
<polygon fill="black" stroke="black" points="327.197,-1384.56 318.683,-1378.26 321.406,-1388.49 327.197,-1384.56"/>
</g>
<!-- p5 -->
<g id="node8" class="node"><title>p5</title>
<ellipse fill="none" stroke="black" cx="236" cy="-1254" rx="18" ry="18"/>
<text text-anchor="middle" x="236" y="-1250.3" font-family="Times,serif" font-size="14.00">p5</text>
</g>
<!-- transition4 -->
<g id="node11" class="node"><title>transition4</title>
<polygon fill="none" stroke="black" points="253,-1200 217,-1200 217,-1199 253,-1199 253,-1200"/>
<text text-anchor="middle" x="199.5" y="-1203.8" font-family="Times,serif" font-size="14.00">dack+</text>
</g>
<!-- p5&#45;&gt;transition4 -->
<g id="edge9" class="edge"><title>p5&#45;&gt;transition4</title>
<path fill="none" stroke="black" d="M235.678,-1235.94C235.479,-1225.39 235.236,-1212.53 235.102,-1205.41"/>
<polygon fill="none" stroke="black" points="236.845,-1205.03 235.001,-1200.06 233.346,-1205.09 236.845,-1205.03"/>
</g>
<!-- transition3&#45;&gt;p5 -->
<g id="edge8" class="edge"><title>transition3&#45;&gt;p5</title>
<path fill="none" stroke="black" d="M307.948,-1307.96C306.592,-1306.96 279.081,-1286.71 258.48,-1271.55"/>
<polygon fill="black" stroke="black" points="260.299,-1268.54 250.171,-1265.43 256.15,-1274.18 260.299,-1268.54"/>
</g>
<!-- p6 -->
<g id="node10" class="node"><title>p6</title>
<ellipse fill="none" stroke="black" cx="234" cy="-1145" rx="18" ry="18"/>
<text text-anchor="middle" x="234" y="-1141.3" font-family="Times,serif" font-size="14.00">p6</text>
</g>
<!-- transition5 -->
<g id="node13" class="node"><title>transition5</title>
<polygon fill="none" stroke="black" points="252,-1091 216,-1091 216,-1090 252,-1090 252,-1091"/>
<text text-anchor="middle" x="196.5" y="-1094.8" font-family="Times,serif" font-size="14.00">ready+</text>
</g>
<!-- p6&#45;&gt;transition5 -->
<g id="edge11" class="edge"><title>p6&#45;&gt;transition5</title>
<path fill="none" stroke="black" d="M234,-1126.94C234,-1116.39 234,-1103.53 234,-1096.41"/>
<polygon fill="none" stroke="black" points="235.75,-1096.06 234,-1091.06 232.25,-1096.06 235.75,-1096.06"/>
</g>
<!-- transition4&#45;&gt;p6 -->
<g id="edge10" class="edge"><title>transition4&#45;&gt;p6</title>
<path fill="none" stroke="black" d="M234.997,-1198.85C234.969,-1197.37 234.742,-1185.32 234.511,-1173.1"/>
<polygon fill="black" stroke="black" points="238.009,-1172.96 234.321,-1163.02 231.011,-1173.09 238.009,-1172.96"/>
</g>
<!-- p7 -->
<g id="node12" class="node"><title>p7</title>
<ellipse fill="none" stroke="black" cx="234" cy="-1036" rx="18" ry="18"/>
<text text-anchor="middle" x="234" y="-1032.3" font-family="Times,serif" font-size="14.00">p7</text>
</g>
<!-- transition6 -->
<g id="node15" class="node"><title>transition6</title>
<polygon fill="none" stroke="black" points="279,-982 243,-982 243,-981 279,-981 279,-982"/>
<text text-anchor="middle" x="208" y="-985.8" font-family="Times,serif" font-size="14.00">[done+]dtc+</text>
</g>
<!-- p7&#45;&gt;transition6 -->
<g id="edge13" class="edge"><title>p7&#45;&gt;transition6</title>
<path fill="none" stroke="black" d="M241.81,-1019.67C247.483,-1008.53 254.796,-994.177 258.545,-986.818"/>
<polygon fill="none" stroke="black" points="260.257,-987.313 260.968,-982.064 257.139,-985.724 260.257,-987.313"/>
</g>
<!-- transition16 -->
<g id="node33" class="node"><title>transition16</title>
<polygon fill="none" stroke="black" points="224,-982 188,-982 188,-981 224,-981 224,-982"/>
<text text-anchor="middle" x="154.5" y="-969.8" font-family="Times,serif" font-size="14.00">[done&#45;]dtc+</text>
</g>
<!-- p7&#45;&gt;transition16 -->
<g id="edge33" class="edge"><title>p7&#45;&gt;transition16</title>
<path fill="none" stroke="black" d="M225.901,-1019.67C220.018,-1008.53 212.433,-994.177 208.546,-986.818"/>
<polygon fill="none" stroke="black" points="209.917,-985.667 206.034,-982.064 206.822,-987.302 209.917,-985.667"/>
</g>
<!-- transition5&#45;&gt;p7 -->
<g id="edge12" class="edge"><title>transition5&#45;&gt;p7</title>
<path fill="none" stroke="black" d="M234,-1089.85C234,-1088.37 234,-1076.32 234,-1064.1"/>
<polygon fill="black" stroke="black" points="237.5,-1064.02 234,-1054.02 230.5,-1064.02 237.5,-1064.02"/>
</g>
<!-- p8 -->
<g id="node14" class="node"><title>p8</title>
<ellipse fill="none" stroke="black" cx="261" cy="-927" rx="18" ry="18"/>
<text text-anchor="middle" x="261" y="-923.3" font-family="Times,serif" font-size="14.00">p8</text>
</g>
<!-- transition7 -->
<g id="node17" class="node"><title>transition7</title>
<polygon fill="none" stroke="black" points="279,-873 243,-873 243,-872 279,-872 279,-873"/>
<text text-anchor="middle" x="210" y="-876.8" font-family="Times,serif" font-size="14.00">ready&#45;dreq&#45;</text>
</g>
<!-- p8&#45;&gt;transition7 -->
<g id="edge15" class="edge"><title>p8&#45;&gt;transition7</title>
<path fill="none" stroke="black" d="M261,-908.939C261,-898.385 261,-885.534 261,-878.412"/>
<polygon fill="none" stroke="black" points="262.75,-878.059 261,-873.059 259.25,-878.059 262.75,-878.059"/>
</g>
<!-- transition6&#45;&gt;p8 -->
<g id="edge14" class="edge"><title>transition6&#45;&gt;p8</title>
<path fill="none" stroke="black" d="M261,-980.848C261,-979.368 261,-967.319 261,-955.1"/>
<polygon fill="black" stroke="black" points="264.5,-955.025 261,-945.025 257.5,-955.025 264.5,-955.025"/>
</g>
<!-- p9 -->
<g id="node16" class="node"><title>p9</title>
<ellipse fill="none" stroke="black" cx="261" cy="-818" rx="18" ry="18"/>
<text text-anchor="middle" x="261" y="-814.3" font-family="Times,serif" font-size="14.00">p9</text>
</g>
<!-- transition8 -->
<g id="node19" class="node"><title>transition8</title>
<polygon fill="none" stroke="black" points="280,-764 244,-764 244,-763 280,-763 280,-764"/>
<text text-anchor="middle" x="217.5" y="-767.8" font-family="Times,serif" font-size="14.00">dack&#45;dtc&#45;</text>
</g>
<!-- p9&#45;&gt;transition8 -->
<g id="edge17" class="edge"><title>p9&#45;&gt;transition8</title>
<path fill="none" stroke="black" d="M261.322,-799.939C261.521,-789.385 261.764,-776.534 261.898,-769.412"/>
<polygon fill="none" stroke="black" points="263.654,-769.091 261.999,-764.059 260.155,-769.025 263.654,-769.091"/>
</g>
<!-- transition7&#45;&gt;p9 -->
<g id="edge16" class="edge"><title>transition7&#45;&gt;p9</title>
<path fill="none" stroke="black" d="M261,-871.848C261,-870.368 261,-858.319 261,-846.1"/>
<polygon fill="black" stroke="black" points="264.5,-846.025 261,-836.025 257.5,-846.025 264.5,-846.025"/>
</g>
<!-- p10 -->
<g id="node18" class="node"><title>p10</title>
<ellipse fill="none" stroke="black" cx="264" cy="-709" rx="18" ry="18"/>
<text text-anchor="middle" x="264" y="-705.3" font-family="Times,serif" font-size="14.00">p10</text>
</g>
<!-- transition9 -->
<g id="node21" class="node"><title>transition9</title>
<polygon fill="none" stroke="black" points="291,-655 255,-655 255,-654 291,-654 291,-655"/>
<text text-anchor="middle" x="233" y="-658.8" font-family="Times,serif" font-size="14.00">regout+</text>
</g>
<!-- p10&#45;&gt;transition9 -->
<g id="edge19" class="edge"><title>p10&#45;&gt;transition9</title>
<path fill="none" stroke="black" d="M266.897,-690.939C268.689,-680.385 270.872,-667.534 272.081,-660.412"/>
<polygon fill="none" stroke="black" points="273.878,-660.282 272.99,-655.059 270.428,-659.696 273.878,-660.282"/>
</g>
<!-- transition8&#45;&gt;p10 -->
<g id="edge18" class="edge"><title>transition8&#45;&gt;p10</title>
<path fill="none" stroke="black" d="M262.006,-762.848C262.062,-761.368 262.516,-749.319 262.977,-737.1"/>
<polygon fill="black" stroke="black" points="266.478,-737.15 263.358,-727.025 259.483,-736.886 266.478,-737.15"/>
</g>
<!-- p11 -->
<g id="node20" class="node"><title>p11</title>
<ellipse fill="none" stroke="black" cx="278" cy="-600" rx="18" ry="18"/>
<text text-anchor="middle" x="278" y="-596.3" font-family="Times,serif" font-size="14.00">p11</text>
</g>
<!-- transition10 -->
<g id="node23" class="node"><title>transition10</title>
<polygon fill="none" stroke="black" points="342,-546 306,-546 306,-545 342,-545 342,-546"/>
<text text-anchor="middle" x="286.5" y="-549.8" font-family="Times,serif" font-size="14.00">ackin+</text>
</g>
<!-- p11&#45;&gt;transition10 -->
<g id="edge21" class="edge"><title>p11&#45;&gt;transition10</title>
<path fill="none" stroke="black" d="M289.371,-585.899C299.474,-574.258 313.64,-557.936 320.285,-550.281"/>
<polygon fill="none" stroke="black" points="321.984,-550.993 323.939,-546.07 319.34,-548.699 321.984,-550.993"/>
</g>
<!-- transition9&#45;&gt;p11 -->
<g id="edge20" class="edge"><title>transition9&#45;&gt;p11</title>
<path fill="none" stroke="black" d="M273.014,-653.848C273.154,-652.368 274.291,-640.319 275.443,-628.1"/>
<polygon fill="black" stroke="black" points="278.939,-628.309 276.394,-618.025 271.97,-627.652 278.939,-628.309"/>
</g>
<!-- p12 -->
<g id="node22" class="node"><title>p12</title>
<ellipse fill="none" stroke="black" cx="324" cy="-491" rx="18" ry="18"/>
<text text-anchor="middle" x="324" y="-487.3" font-family="Times,serif" font-size="14.00">p12</text>
</g>
<!-- transition11 -->
<g id="node25" class="node"><title>transition11</title>
<polygon fill="none" stroke="black" points="342,-437 306,-437 306,-436 342,-436 342,-437"/>
<text text-anchor="middle" x="285.5" y="-440.8" font-family="Times,serif" font-size="14.00">regout&#45;</text>
</g>
<!-- p12&#45;&gt;transition11 -->
<g id="edge23" class="edge"><title>p12&#45;&gt;transition11</title>
<path fill="none" stroke="black" d="M324,-472.939C324,-462.385 324,-449.534 324,-442.412"/>
<polygon fill="none" stroke="black" points="325.75,-442.059 324,-437.059 322.25,-442.059 325.75,-442.059"/>
</g>
<!-- transition10&#45;&gt;p12 -->
<g id="edge22" class="edge"><title>transition10&#45;&gt;p12</title>
<path fill="none" stroke="black" d="M324,-544.848C324,-543.368 324,-531.319 324,-519.1"/>
<polygon fill="black" stroke="black" points="327.5,-519.025 324,-509.025 320.5,-519.025 327.5,-519.025"/>
</g>
<!-- p13 -->
<g id="node24" class="node"><title>p13</title>
<ellipse fill="none" stroke="black" cx="324" cy="-382" rx="18" ry="18"/>
<text text-anchor="middle" x="324" y="-378.3" font-family="Times,serif" font-size="14.00">p13</text>
</g>
<!-- transition13 -->
<g id="node27" class="node"><title>transition13</title>
<polygon fill="none" stroke="black" points="342,-328 306,-328 306,-327 342,-327 342,-328"/>
<text text-anchor="middle" x="264" y="-331.8" font-family="Times,serif" font-size="14.00">[empty&#45;]ackin&#45;</text>
</g>
<!-- p13&#45;&gt;transition13 -->
<g id="edge25" class="edge"><title>p13&#45;&gt;transition13</title>
<path fill="none" stroke="black" d="M324,-363.939C324,-353.385 324,-340.534 324,-333.412"/>
<polygon fill="none" stroke="black" points="325.75,-333.059 324,-328.059 322.25,-333.059 325.75,-333.059"/>
</g>
<!-- transition12 -->
<g id="node30" class="node"><title>transition12</title>
<polygon fill="none" stroke="black" points="396,-328 360,-328 360,-327 396,-327 396,-328"/>
<text text-anchor="middle" x="316" y="-315.8" font-family="Times,serif" font-size="14.00">[empty+]ackin&#45;</text>
</g>
<!-- p13&#45;&gt;transition12 -->
<g id="edge29" class="edge"><title>p13&#45;&gt;transition12</title>
<path fill="none" stroke="black" d="M336.524,-368.708C348.598,-356.858 366.153,-339.627 373.977,-331.948"/>
<polygon fill="none" stroke="black" points="375.584,-332.824 377.926,-328.072 373.132,-330.326 375.584,-332.824"/>
</g>
<!-- transition11&#45;&gt;p13 -->
<g id="edge24" class="edge"><title>transition11&#45;&gt;p13</title>
<path fill="none" stroke="black" d="M324,-435.848C324,-434.368 324,-422.319 324,-410.1"/>
<polygon fill="black" stroke="black" points="327.5,-410.025 324,-400.025 320.5,-410.025 327.5,-410.025"/>
</g>
<!-- p15 -->
<g id="node26" class="node"><title>p15</title>
<ellipse fill="none" stroke="black" cx="324" cy="-273" rx="18" ry="18"/>
<text text-anchor="middle" x="324" y="-269.3" font-family="Times,serif" font-size="14.00">p15</text>
</g>
<!-- transition15 -->
<g id="node28" class="node"><title>transition15</title>
<polygon fill="none" stroke="black" points="323,-219 287,-219 287,-218 323,-218 323,-219"/>
<text text-anchor="middle" x="265" y="-222.8" font-family="Times,serif" font-size="14.00">regout+</text>
</g>
<!-- p15&#45;&gt;transition15 -->
<g id="edge27" class="edge"><title>p15&#45;&gt;transition15</title>
<path fill="none" stroke="black" d="M318.196,-255.81C314.306,-244.958 309.435,-231.372 306.836,-224.121"/>
<polygon fill="none" stroke="black" points="308.357,-223.177 305.022,-219.061 305.062,-224.359 308.357,-223.177"/>
</g>
<!-- transition13&#45;&gt;p15 -->
<g id="edge26" class="edge"><title>transition13&#45;&gt;p15</title>
<path fill="none" stroke="black" d="M324,-326.848C324,-325.368 324,-313.319 324,-301.1"/>
<polygon fill="black" stroke="black" points="327.5,-301.025 324,-291.025 320.5,-301.025 327.5,-301.025"/>
</g>
<!-- transition15&#45;&gt;p11 -->
<g id="edge28" class="edge"><title>transition15&#45;&gt;p11</title>
<path fill="none" stroke="black" d="M304.923,-219.169C303.339,-222.649 278,-279.069 278,-327 278,-492 278,-492 278,-492 278,-519.174 278,-550.231 278,-571.86"/>
<polygon fill="black" stroke="black" points="274.5,-571.951 278,-581.951 281.5,-571.951 274.5,-571.951"/>
</g>
<!-- p14 -->
<g id="node29" class="node"><title>p14</title>
<ellipse fill="none" stroke="black" cx="378" cy="-273" rx="18" ry="18"/>
<text text-anchor="middle" x="378" y="-269.3" font-family="Times,serif" font-size="14.00">p14</text>
</g>
<!-- transition14 -->
<g id="node31" class="node"><title>transition14</title>
<polygon fill="none" stroke="black" points="419,-219 383,-219 383,-218 419,-218 419,-219"/>
<text text-anchor="middle" x="353" y="-222.8" font-family="Times,serif" font-size="14.00">endmaint+</text>
</g>
<!-- p14&#45;&gt;transition14 -->
<g id="edge31" class="edge"><title>p14&#45;&gt;transition14</title>
<path fill="none" stroke="black" d="M384.901,-256.098C389.721,-244.992 395.831,-230.912 398.956,-223.71"/>
<polygon fill="none" stroke="black" points="400.588,-224.346 400.973,-219.062 397.377,-222.952 400.588,-224.346"/>
</g>
<!-- transition12&#45;&gt;p14 -->
<g id="edge30" class="edge"><title>transition12&#45;&gt;p14</title>
<path fill="none" stroke="black" d="M378,-326.848C378,-325.368 378,-313.319 378,-301.1"/>
<polygon fill="black" stroke="black" points="381.5,-301.025 378,-291.025 374.5,-301.025 381.5,-301.025"/>
</g>
<!-- transition14&#45;&gt;p1 -->
<g id="edge32" class="edge"><title>transition14&#45;&gt;p1</title>
<path fill="none" stroke="black" d="M401.017,-219.043C401.713,-220.839 424,-278.69 424,-327 424,-1582 424,-1582 424,-1582 424,-1610.36 415.568,-1641.87 408.498,-1663.3"/>
<polygon fill="black" stroke="black" points="405.12,-1662.36 405.18,-1672.96 411.74,-1664.64 405.12,-1662.36"/>
</g>
<!-- p25 -->
<g id="node32" class="node"><title>p25</title>
<ellipse fill="none" stroke="black" cx="206" cy="-927" rx="18" ry="18"/>
<text text-anchor="middle" x="206" y="-923.3" font-family="Times,serif" font-size="14.00">p25</text>
</g>
<!-- transition17 -->
<g id="node35" class="node"><title>transition17</title>
<polygon fill="none" stroke="black" points="224,-873 188,-873 188,-872 224,-872 224,-873"/>
<text text-anchor="middle" x="170" y="-860.8" font-family="Times,serif" font-size="14.00">ready&#45;</text>
</g>
<!-- p25&#45;&gt;transition17 -->
<g id="edge35" class="edge"><title>p25&#45;&gt;transition17</title>
<path fill="none" stroke="black" d="M206,-908.939C206,-898.385 206,-885.534 206,-878.412"/>
<polygon fill="none" stroke="black" points="207.75,-878.059 206,-873.059 204.25,-878.059 207.75,-878.059"/>
</g>
<!-- transition16&#45;&gt;p25 -->
<g id="edge34" class="edge"><title>transition16&#45;&gt;p25</title>
<path fill="none" stroke="black" d="M206,-980.848C206,-979.368 206,-967.319 206,-955.1"/>
<polygon fill="black" stroke="black" points="209.5,-955.025 206,-945.025 202.5,-955.025 209.5,-955.025"/>
</g>
<!-- p16 -->
<g id="node34" class="node"><title>p16</title>
<ellipse fill="none" stroke="black" cx="206" cy="-818" rx="18" ry="18"/>
<text text-anchor="middle" x="206" y="-814.3" font-family="Times,serif" font-size="14.00">p16</text>
</g>
<!-- transition18 -->
<g id="node37" class="node"><title>transition18</title>
<polygon fill="none" stroke="black" points="224,-764 188,-764 188,-763 224,-763 224,-764"/>
<text text-anchor="middle" x="161.5" y="-767.8" font-family="Times,serif" font-size="14.00">dack&#45;dtc&#45;</text>
</g>
<!-- p16&#45;&gt;transition18 -->
<g id="edge37" class="edge"><title>p16&#45;&gt;transition18</title>
<path fill="none" stroke="black" d="M206,-799.939C206,-789.385 206,-776.534 206,-769.412"/>
<polygon fill="none" stroke="black" points="207.75,-769.059 206,-764.059 204.25,-769.059 207.75,-769.059"/>
</g>
<!-- transition17&#45;&gt;p16 -->
<g id="edge36" class="edge"><title>transition17&#45;&gt;p16</title>
<path fill="none" stroke="black" d="M206,-871.848C206,-870.368 206,-858.319 206,-846.1"/>
<polygon fill="black" stroke="black" points="209.5,-846.025 206,-836.025 202.5,-846.025 209.5,-846.025"/>
</g>
<!-- p17 -->
<g id="node36" class="node"><title>p17</title>
<ellipse fill="none" stroke="black" cx="206" cy="-709" rx="18" ry="18"/>
<text text-anchor="middle" x="206" y="-705.3" font-family="Times,serif" font-size="14.00">p17</text>
</g>
<!-- transition19 -->
<g id="node39" class="node"><title>transition19</title>
<polygon fill="none" stroke="black" points="224,-655 188,-655 188,-654 224,-654 224,-655"/>
<text text-anchor="middle" x="166" y="-658.8" font-family="Times,serif" font-size="14.00">regout+</text>
</g>
<!-- p17&#45;&gt;transition19 -->
<g id="edge39" class="edge"><title>p17&#45;&gt;transition19</title>
<path fill="none" stroke="black" d="M206,-690.939C206,-680.385 206,-667.534 206,-660.412"/>
<polygon fill="none" stroke="black" points="207.75,-660.059 206,-655.059 204.25,-660.059 207.75,-660.059"/>
</g>
<!-- transition18&#45;&gt;p17 -->
<g id="edge38" class="edge"><title>transition18&#45;&gt;p17</title>
<path fill="none" stroke="black" d="M206,-762.848C206,-761.368 206,-749.319 206,-737.1"/>
<polygon fill="black" stroke="black" points="209.5,-737.025 206,-727.025 202.5,-737.025 209.5,-737.025"/>
</g>
<!-- p18 -->
<g id="node38" class="node"><title>p18</title>
<ellipse fill="none" stroke="black" cx="206" cy="-600" rx="18" ry="18"/>
<text text-anchor="middle" x="206" y="-596.3" font-family="Times,serif" font-size="14.00">p18</text>
</g>
<!-- transition20 -->
<g id="node41" class="node"><title>transition20</title>
<polygon fill="none" stroke="black" points="224,-546 188,-546 188,-545 224,-545 224,-546"/>
<text text-anchor="middle" x="152" y="-549.8" font-family="Times,serif" font-size="14.00">dack*ackin+</text>
</g>
<!-- p18&#45;&gt;transition20 -->
<g id="edge41" class="edge"><title>p18&#45;&gt;transition20</title>
<path fill="none" stroke="black" d="M206,-581.939C206,-571.385 206,-558.534 206,-551.412"/>
<polygon fill="none" stroke="black" points="207.75,-551.059 206,-546.059 204.25,-551.059 207.75,-551.059"/>
</g>
<!-- transition19&#45;&gt;p18 -->
<g id="edge40" class="edge"><title>transition19&#45;&gt;p18</title>
<path fill="none" stroke="black" d="M206,-653.848C206,-652.368 206,-640.319 206,-628.1"/>
<polygon fill="black" stroke="black" points="209.5,-628.025 206,-618.025 202.5,-628.025 209.5,-628.025"/>
</g>
<!-- p19 -->
<g id="node40" class="node"><title>p19</title>
<ellipse fill="none" stroke="black" cx="205" cy="-491" rx="18" ry="18"/>
<text text-anchor="middle" x="205" y="-487.3" font-family="Times,serif" font-size="14.00">p19</text>
</g>
<!-- transition21 -->
<g id="node43" class="node"><title>transition21</title>
<polygon fill="none" stroke="black" points="204,-437 168,-437 168,-436 204,-436 204,-437"/>
<text text-anchor="middle" x="147.5" y="-440.8" font-family="Times,serif" font-size="14.00">regout&#45;</text>
</g>
<!-- p19&#45;&gt;transition21 -->
<g id="edge43" class="edge"><title>p19&#45;&gt;transition21</title>
<path fill="none" stroke="black" d="M199.196,-473.81C195.306,-462.958 190.435,-449.372 187.836,-442.121"/>
<polygon fill="none" stroke="black" points="189.357,-441.177 186.022,-437.061 186.062,-442.359 189.357,-441.177"/>
</g>
<!-- transition20&#45;&gt;p19 -->
<g id="edge42" class="edge"><title>transition20&#45;&gt;p19</title>
<path fill="none" stroke="black" d="M205.997,-544.848C205.969,-543.368 205.742,-531.319 205.511,-519.1"/>
<polygon fill="black" stroke="black" points="209.009,-518.957 205.321,-509.025 202.011,-519.089 209.009,-518.957"/>
</g>
<!-- p20 -->
<g id="node42" class="node"><title>p20</title>
<ellipse fill="none" stroke="black" cx="186" cy="-382" rx="18" ry="18"/>
<text text-anchor="middle" x="186" y="-378.3" font-family="Times,serif" font-size="14.00">p20</text>
</g>
<!-- transition26 -->
<g id="node45" class="node"><title>transition26</title>
<polygon fill="none" stroke="black" points="158,-328 122,-328 122,-327 158,-327 158,-328"/>
<text text-anchor="middle" x="61" y="-331.8" font-family="Times,serif" font-size="14.00">[empty+]dack+ackin&#45;</text>
</g>
<!-- p20&#45;&gt;transition26 -->
<g id="edge45" class="edge"><title>p20&#45;&gt;transition26</title>
<path fill="none" stroke="black" d="M174.629,-367.899C164.526,-356.258 150.36,-339.936 143.715,-332.281"/>
<polygon fill="none" stroke="black" points="144.66,-330.699 140.061,-328.07 142.016,-332.993 144.66,-330.699"/>
</g>
<!-- transition22 -->
<g id="node47" class="node"><title>transition22</title>
<polygon fill="none" stroke="black" points="250,-328 214,-328 214,-327 250,-327 250,-328"/>
<text text-anchor="middle" x="155" y="-315.8" font-family="Times,serif" font-size="14.00">[empty&#45;]dack*ackin&#45;</text>
</g>
<!-- p20&#45;&gt;transition22 -->
<g id="edge48" class="edge"><title>p20&#45;&gt;transition22</title>
<path fill="none" stroke="black" d="M197.371,-367.899C207.474,-356.258 221.64,-339.936 228.285,-332.281"/>
<polygon fill="none" stroke="black" points="229.984,-332.993 231.939,-328.07 227.34,-330.699 229.984,-332.993"/>
</g>
<!-- transition21&#45;&gt;p20 -->
<g id="edge44" class="edge"><title>transition21&#45;&gt;p20</title>
<path fill="none" stroke="black" d="M186,-435.848C186,-434.368 186,-422.319 186,-410.1"/>
<polygon fill="black" stroke="black" points="189.5,-410.025 186,-400.025 182.5,-410.025 189.5,-410.025"/>
</g>
<!-- p24 -->
<g id="node44" class="node"><title>p24</title>
<ellipse fill="none" stroke="black" cx="117" cy="-273" rx="18" ry="18"/>
<text text-anchor="middle" x="117" y="-269.3" font-family="Times,serif" font-size="14.00">p24</text>
</g>
<!-- p24&#45;&gt;transition5 -->
<g id="edge47" class="edge"><title>p24&#45;&gt;transition5</title>
<path fill="none" stroke="black" d="M111.315,-290.083C104.504,-310.82 94,-348.129 94,-381 94,-982 94,-982 94,-982 94,-1051.5 203.503,-1082.54 228.82,-1088.79"/>
<polygon fill="none" stroke="black" points="228.631,-1090.54 233.899,-1089.98 229.429,-1087.14 228.631,-1090.54"/>
</g>
<!-- transition26&#45;&gt;p24 -->
<g id="edge46" class="edge"><title>transition26&#45;&gt;p24</title>
<path fill="none" stroke="black" d="M139.934,-326.848C139.262,-325.3 133.571,-312.185 128.026,-299.409"/>
<polygon fill="black" stroke="black" points="131.092,-297.682 123.901,-289.902 124.671,-300.469 131.092,-297.682"/>
</g>
<!-- p21 -->
<g id="node46" class="node"><title>p21</title>
<ellipse fill="none" stroke="black" cx="232" cy="-273" rx="18" ry="18"/>
<text text-anchor="middle" x="232" y="-269.3" font-family="Times,serif" font-size="14.00">p21</text>
</g>
<!-- transition23 -->
<g id="node49" class="node"><title>transition23</title>
<polygon fill="none" stroke="black" points="250,-219 214,-219 214,-218 250,-218 250,-219"/>
<text text-anchor="middle" x="192" y="-222.8" font-family="Times,serif" font-size="14.00">regout+</text>
</g>
<!-- p21&#45;&gt;transition23 -->
<g id="edge50" class="edge"><title>p21&#45;&gt;transition23</title>
<path fill="none" stroke="black" d="M232,-254.939C232,-244.385 232,-231.534 232,-224.412"/>
<polygon fill="none" stroke="black" points="233.75,-224.059 232,-219.059 230.25,-224.059 233.75,-224.059"/>
</g>
<!-- transition22&#45;&gt;p21 -->
<g id="edge49" class="edge"><title>transition22&#45;&gt;p21</title>
<path fill="none" stroke="black" d="M232,-326.848C232,-325.368 232,-313.319 232,-301.1"/>
<polygon fill="black" stroke="black" points="235.5,-301.025 232,-291.025 228.5,-301.025 235.5,-301.025"/>
</g>
<!-- p22 -->
<g id="node48" class="node"><title>p22</title>
<ellipse fill="none" stroke="black" cx="232" cy="-164" rx="18" ry="18"/>
<text text-anchor="middle" x="232" y="-160.3" font-family="Times,serif" font-size="14.00">p22</text>
</g>
<!-- transition24 -->
<g id="node51" class="node"><title>transition24</title>
<polygon fill="none" stroke="black" points="250,-110 214,-110 214,-109 250,-109 250,-110"/>
<text text-anchor="middle" x="178" y="-113.8" font-family="Times,serif" font-size="14.00">dack*ackin+</text>
</g>
<!-- p22&#45;&gt;transition24 -->
<g id="edge52" class="edge"><title>p22&#45;&gt;transition24</title>
<path fill="none" stroke="black" d="M232,-145.939C232,-135.385 232,-122.534 232,-115.412"/>
<polygon fill="none" stroke="black" points="233.75,-115.059 232,-110.059 230.25,-115.059 233.75,-115.059"/>
</g>
<!-- transition23&#45;&gt;p22 -->
<g id="edge51" class="edge"><title>transition23&#45;&gt;p22</title>
<path fill="none" stroke="black" d="M232,-217.848C232,-216.368 232,-204.319 232,-192.1"/>
<polygon fill="black" stroke="black" points="235.5,-192.025 232,-182.025 228.5,-192.025 235.5,-192.025"/>
</g>
<!-- p23 -->
<g id="node50" class="node"><title>p23</title>
<ellipse fill="none" stroke="black" cx="232" cy="-55" rx="18" ry="18"/>
<text text-anchor="middle" x="232" y="-51.3" font-family="Times,serif" font-size="14.00">p23</text>
</g>
<!-- transition25 -->
<g id="node52" class="node"><title>transition25</title>
<polygon fill="none" stroke="black" points="227,-1 191,-1 191,-0 227,-0 227,-1"/>
<text text-anchor="middle" x="170.5" y="-4.8" font-family="Times,serif" font-size="14.00">regout&#45;</text>
</g>
<!-- p23&#45;&gt;transition25 -->
<g id="edge54" class="edge"><title>p23&#45;&gt;transition25</title>
<path fill="none" stroke="black" d="M225.099,-38.0983C220.279,-26.9918 214.169,-12.9118 211.044,-5.7104"/>
<polygon fill="none" stroke="black" points="212.623,-4.95216 209.027,-1.06211 209.412,-6.34553 212.623,-4.95216"/>
</g>
<!-- transition24&#45;&gt;p23 -->
<g id="edge53" class="edge"><title>transition24&#45;&gt;p23</title>
<path fill="none" stroke="black" d="M232,-108.848C232,-107.368 232,-95.3194 232,-83.1004"/>
<polygon fill="black" stroke="black" points="235.5,-83.0247 232,-73.0247 228.5,-83.0248 235.5,-83.0247"/>
</g>
<!-- transition25&#45;&gt;p20 -->
<g id="edge55" class="edge"><title>transition25&#45;&gt;p20</title>
<path fill="none" stroke="black" d="M208.983,-1.04289C208.287,-2.83896 186,-60.6904 186,-109 186,-274 186,-274 186,-274 186,-301.174 186,-332.231 186,-353.86"/>
<polygon fill="black" stroke="black" points="182.5,-353.951 186,-363.951 189.5,-353.951 182.5,-353.951"/>
</g>
</g>
</svg>
