<?xml version="1.0" encoding="UTF-8" standalone="no"?>
<!DOCTYPE svg PUBLIC "-//W3C//DTD SVG 1.1//EN"
 "http://www.w3.org/Graphics/SVG/1.1/DTD/svg11.dtd">
<!-- Generated by graphviz version 2.38.0 (20140413.2041)
 -->
<!-- Title: %3 Pages: 1 -->
<svg width="432pt" height="1716pt"
 viewBox="0.00 0.00 432.00 1716.00" xmlns="http://www.w3.org/2000/svg" xmlns:xlink="http://www.w3.org/1999/xlink">
<g id="graph0" class="graph" transform="scale(1 1) rotate(0) translate(4 1712)">
<title>%3</title>
<polygon fill="white" stroke="none" points="-4,4 -4,-1712 428,-1712 428,4 -4,4"/>
<!-- p1 -->
<g id="node1" class="node"><title>p1</title>
<ellipse fill="none" stroke="black" cx="399" cy="-1690" rx="18" ry="18"/>
<text text-anchor="middle" x="399" y="-1686.3" font-family="Times,serif" font-size="14.00">p1</text>
</g>
<!-- transition1 -->
<g id="node3" class="node"><title>transition1</title>
<polygon fill="none" stroke="black" points="393,-1636 357,-1636 357,-1635 393,-1635 393,-1636"/>
<text text-anchor="middle" x="316" y="-1639.8" font-family="Times,serif" font-size="14.00">startdmasend+</text>
</g>
<!-- p1&#45;&gt;transition1 -->
<g id="edge1" class="edge"><title>p1&#45;&gt;transition1</title>
<path fill="none" stroke="black" d="M391.929,-1673.38C386.893,-1662.26 380.454,-1648.04 377.157,-1640.76"/>
<polygon fill="none" stroke="black" points="378.685,-1639.9 375.028,-1636.06 375.497,-1641.34 378.685,-1639.9"/>
</g>
<!-- p2 -->
<g id="node2" class="node"><title>p2</title>
<ellipse fill="none" stroke="black" cx="372" cy="-1581" rx="18" ry="18"/>
<text text-anchor="middle" x="372" y="-1577.3" font-family="Times,serif" font-size="14.00">p2</text>
</g>
<!-- transition2 -->
<g id="node5" class="node"><title>transition2</title>
<polygon fill="none" stroke="black" points="387,-1527 351,-1527 351,-1526 387,-1526 387,-1527"/>
<text text-anchor="middle" x="322.5" y="-1530.8" font-family="Times,serif" font-size="14.00">endmaint&#45;</text>
</g>
<!-- p2&#45;&gt;transition2 -->
<g id="edge3" class="edge"><title>p2&#45;&gt;transition2</title>
<path fill="none" stroke="black" d="M371.034,-1562.94C370.437,-1552.39 369.709,-1539.53 369.306,-1532.41"/>
<polygon fill="none" stroke="black" points="371.033,-1531.95 369.003,-1527.06 367.539,-1532.15 371.033,-1531.95"/>
</g>
<!-- transition1&#45;&gt;p2 -->
<g id="edge2" class="edge"><title>transition1&#45;&gt;p2</title>
<path fill="none" stroke="black" d="M374.991,-1634.85C374.908,-1633.37 374.226,-1621.32 373.534,-1609.1"/>
<polygon fill="black" stroke="black" points="377.023,-1608.81 372.964,-1599.02 370.034,-1609.21 377.023,-1608.81"/>
</g>
<!-- p3 -->
<g id="node4" class="node"><title>p3</title>
<ellipse fill="none" stroke="black" cx="358" cy="-1472" rx="18" ry="18"/>
<text text-anchor="middle" x="358" y="-1468.3" font-family="Times,serif" font-size="14.00">p3</text>
</g>
<!-- transition3 -->
<g id="node7" class="node"><title>transition3</title>
<polygon fill="none" stroke="black" points="375,-1418 339,-1418 339,-1417 375,-1417 375,-1418"/>
<text text-anchor="middle" x="299.5" y="-1421.8" font-family="Times,serif" font-size="14.00">startdmasend&#45;</text>
</g>
<!-- p3&#45;&gt;transition3 -->
<g id="edge5" class="edge"><title>p3&#45;&gt;transition3</title>
<path fill="none" stroke="black" d="M357.678,-1453.94C357.479,-1443.39 357.236,-1430.53 357.102,-1423.41"/>
<polygon fill="none" stroke="black" points="358.845,-1423.03 357.001,-1418.06 355.346,-1423.09 358.845,-1423.03"/>
</g>
<!-- transition2&#45;&gt;p3 -->
<g id="edge4" class="edge"><title>transition2&#45;&gt;p3</title>
<path fill="none" stroke="black" d="M368.968,-1525.85C368.659,-1524.36 366.128,-1512.16 363.576,-1499.87"/>
<polygon fill="black" stroke="black" points="366.934,-1498.82 361.475,-1489.74 360.08,-1500.24 366.934,-1498.82"/>
</g>
<!-- p4 -->
<g id="node6" class="node"><title>p4</title>
<ellipse fill="none" stroke="black" cx="335" cy="-1363" rx="18" ry="18"/>
<text text-anchor="middle" x="335" y="-1359.3" font-family="Times,serif" font-size="14.00">p4</text>
</g>
<!-- transition4 -->
<g id="node9" class="node"><title>transition4</title>
<polygon fill="none" stroke="black" points="352,-1309 316,-1309 316,-1308 352,-1308 352,-1309"/>
<text text-anchor="middle" x="299.5" y="-1312.8" font-family="Times,serif" font-size="14.00">dreq+</text>
</g>
<!-- p4&#45;&gt;transition4 -->
<g id="edge7" class="edge"><title>p4&#45;&gt;transition4</title>
<path fill="none" stroke="black" d="M334.678,-1344.94C334.479,-1334.39 334.236,-1321.53 334.102,-1314.41"/>
<polygon fill="none" stroke="black" points="335.845,-1314.03 334.001,-1309.06 332.346,-1314.09 335.845,-1314.03"/>
</g>
<!-- transition3&#45;&gt;p4 -->
<g id="edge6" class="edge"><title>transition3&#45;&gt;p4</title>
<path fill="none" stroke="black" d="M356.937,-1416.85C356.294,-1415.3 350.85,-1402.18 345.547,-1389.41"/>
<polygon fill="black" stroke="black" points="348.667,-1387.8 341.601,-1379.9 342.202,-1390.48 348.667,-1387.8"/>
</g>
<!-- p5 -->
<g id="node8" class="node"><title>p5</title>
<ellipse fill="none" stroke="black" cx="289" cy="-1254" rx="18" ry="18"/>
<text text-anchor="middle" x="289" y="-1250.3" font-family="Times,serif" font-size="14.00">p5</text>
</g>
<!-- transition5 -->
<g id="node11" class="node"><title>transition5</title>
<polygon fill="none" stroke="black" points="307,-1200 271,-1200 271,-1199 307,-1199 307,-1200"/>
<text text-anchor="middle" x="253.5" y="-1203.8" font-family="Times,serif" font-size="14.00">dack+</text>
</g>
<!-- p5&#45;&gt;transition5 -->
<g id="edge9" class="edge"><title>p5&#45;&gt;transition5</title>
<path fill="none" stroke="black" d="M289,-1235.94C289,-1225.39 289,-1212.53 289,-1205.41"/>
<polygon fill="none" stroke="black" points="290.75,-1205.06 289,-1200.06 287.25,-1205.06 290.75,-1205.06"/>
</g>
<!-- transition4&#45;&gt;p5 -->
<g id="edge8" class="edge"><title>transition4&#45;&gt;p5</title>
<path fill="none" stroke="black" d="M333.871,-1307.85C332.406,-1306.12 318.74,-1290.03 306.871,-1276.05"/>
<polygon fill="black" stroke="black" points="309.336,-1273.54 300.196,-1268.19 304,-1278.07 309.336,-1273.54"/>
</g>
<!-- p6 -->
<g id="node10" class="node"><title>p6</title>
<ellipse fill="none" stroke="black" cx="288" cy="-1145" rx="18" ry="18"/>
<text text-anchor="middle" x="288" y="-1141.3" font-family="Times,serif" font-size="14.00">p6</text>
</g>
<!-- transition6 -->
<g id="node13" class="node"><title>transition6</title>
<polygon fill="none" stroke="black" points="306,-1091 270,-1091 270,-1090 306,-1090 306,-1091"/>
<text text-anchor="middle" x="250.5" y="-1094.8" font-family="Times,serif" font-size="14.00">ready+</text>
</g>
<!-- p6&#45;&gt;transition6 -->
<g id="edge11" class="edge"><title>p6&#45;&gt;transition6</title>
<path fill="none" stroke="black" d="M288,-1126.94C288,-1116.39 288,-1103.53 288,-1096.41"/>
<polygon fill="none" stroke="black" points="289.75,-1096.06 288,-1091.06 286.25,-1096.06 289.75,-1096.06"/>
</g>
<!-- transition5&#45;&gt;p6 -->
<g id="edge10" class="edge"><title>transition5&#45;&gt;p6</title>
<path fill="none" stroke="black" d="M288.997,-1198.85C288.969,-1197.37 288.742,-1185.32 288.511,-1173.1"/>
<polygon fill="black" stroke="black" points="292.009,-1172.96 288.321,-1163.02 285.011,-1173.09 292.009,-1172.96"/>
</g>
<!-- p7 -->
<g id="node12" class="node"><title>p7</title>
<ellipse fill="none" stroke="black" cx="288" cy="-1036" rx="18" ry="18"/>
<text text-anchor="middle" x="288" y="-1032.3" font-family="Times,serif" font-size="14.00">p7</text>
</g>
<!-- transition7 -->
<g id="node15" class="node"><title>transition7</title>
<polygon fill="none" stroke="black" points="358,-982 322,-982 322,-981 358,-981 358,-982"/>
<text text-anchor="middle" x="287" y="-985.8" font-family="Times,serif" font-size="14.00">[done+]dtc+</text>
</g>
<!-- p7&#45;&gt;transition7 -->
<g id="edge13" class="edge"><title>p7&#45;&gt;transition7</title>
<path fill="none" stroke="black" d="M300.323,-1022.44C311.961,-1010.58 328.71,-993.507 336.167,-985.906"/>
<polygon fill="none" stroke="black" points="337.677,-986.866 339.93,-982.072 335.179,-984.415 337.677,-986.866"/>
</g>
<!-- transition17 -->
<g id="node33" class="node"><title>transition17</title>
<polygon fill="none" stroke="black" points="254,-982 218,-982 218,-981 254,-981 254,-982"/>
<text text-anchor="middle" x="184.5" y="-985.8" font-family="Times,serif" font-size="14.00">[done&#45;]dtc+</text>
</g>
<!-- p7&#45;&gt;transition17 -->
<g id="edge33" class="edge"><title>p7&#45;&gt;transition17</title>
<path fill="none" stroke="black" d="M275.677,-1022.44C264.039,-1010.58 247.29,-993.507 239.833,-985.906"/>
<polygon fill="none" stroke="black" points="240.821,-984.415 236.07,-982.072 238.323,-986.866 240.821,-984.415"/>
</g>
<!-- transition6&#45;&gt;p7 -->
<g id="edge12" class="edge"><title>transition6&#45;&gt;p7</title>
<path fill="none" stroke="black" d="M288,-1089.85C288,-1088.37 288,-1076.32 288,-1064.1"/>
<polygon fill="black" stroke="black" points="291.5,-1064.02 288,-1054.02 284.5,-1064.02 291.5,-1064.02"/>
</g>
<!-- p8 -->
<g id="node14" class="node"><title>p8</title>
<ellipse fill="none" stroke="black" cx="340" cy="-927" rx="18" ry="18"/>
<text text-anchor="middle" x="340" y="-923.3" font-family="Times,serif" font-size="14.00">p8</text>
</g>
<!-- transition8 -->
<g id="node17" class="node"><title>transition8</title>
<polygon fill="none" stroke="black" points="358,-873 322,-873 322,-872 358,-872 358,-873"/>
<text text-anchor="middle" x="289" y="-876.8" font-family="Times,serif" font-size="14.00">ready&#45;dreq&#45;</text>
</g>
<!-- p8&#45;&gt;transition8 -->
<g id="edge15" class="edge"><title>p8&#45;&gt;transition8</title>
<path fill="none" stroke="black" d="M340,-908.939C340,-898.385 340,-885.534 340,-878.412"/>
<polygon fill="none" stroke="black" points="341.75,-878.059 340,-873.059 338.25,-878.059 341.75,-878.059"/>
</g>
<!-- transition7&#45;&gt;p8 -->
<g id="edge14" class="edge"><title>transition7&#45;&gt;p8</title>
<path fill="none" stroke="black" d="M340,-980.848C340,-979.368 340,-967.319 340,-955.1"/>
<polygon fill="black" stroke="black" points="343.5,-955.025 340,-945.025 336.5,-955.025 343.5,-955.025"/>
</g>
<!-- p9 -->
<g id="node16" class="node"><title>p9</title>
<ellipse fill="none" stroke="black" cx="340" cy="-818" rx="18" ry="18"/>
<text text-anchor="middle" x="340" y="-814.3" font-family="Times,serif" font-size="14.00">p9</text>
</g>
<!-- transition9 -->
<g id="node19" class="node"><title>transition9</title>
<polygon fill="none" stroke="black" points="358,-764 322,-764 322,-763 358,-763 358,-764"/>
<text text-anchor="middle" x="295.5" y="-767.8" font-family="Times,serif" font-size="14.00">dack&#45;dtc&#45;</text>
</g>
<!-- p9&#45;&gt;transition9 -->
<g id="edge17" class="edge"><title>p9&#45;&gt;transition9</title>
<path fill="none" stroke="black" d="M340,-799.939C340,-789.385 340,-776.534 340,-769.412"/>
<polygon fill="none" stroke="black" points="341.75,-769.059 340,-764.059 338.25,-769.059 341.75,-769.059"/>
</g>
<!-- transition8&#45;&gt;p9 -->
<g id="edge16" class="edge"><title>transition8&#45;&gt;p9</title>
<path fill="none" stroke="black" d="M340,-871.848C340,-870.368 340,-858.319 340,-846.1"/>
<polygon fill="black" stroke="black" points="343.5,-846.025 340,-836.025 336.5,-846.025 343.5,-846.025"/>
</g>
<!-- p10 -->
<g id="node18" class="node"><title>p10</title>
<ellipse fill="none" stroke="black" cx="340" cy="-709" rx="18" ry="18"/>
<text text-anchor="middle" x="340" y="-705.3" font-family="Times,serif" font-size="14.00">p10</text>
</g>
<!-- transition10 -->
<g id="node21" class="node"><title>transition10</title>
<polygon fill="none" stroke="black" points="358,-655 322,-655 322,-654 358,-654 358,-655"/>
<text text-anchor="middle" x="300" y="-658.8" font-family="Times,serif" font-size="14.00">regout+</text>
</g>
<!-- p10&#45;&gt;transition10 -->
<g id="edge19" class="edge"><title>p10&#45;&gt;transition10</title>
<path fill="none" stroke="black" d="M340,-690.939C340,-680.385 340,-667.534 340,-660.412"/>
<polygon fill="none" stroke="black" points="341.75,-660.059 340,-655.059 338.25,-660.059 341.75,-660.059"/>
</g>
<!-- transition9&#45;&gt;p10 -->
<g id="edge18" class="edge"><title>transition9&#45;&gt;p10</title>
<path fill="none" stroke="black" d="M340,-762.848C340,-761.368 340,-749.319 340,-737.1"/>
<polygon fill="black" stroke="black" points="343.5,-737.025 340,-727.025 336.5,-737.025 343.5,-737.025"/>
</g>
<!-- p11 -->
<g id="node20" class="node"><title>p11</title>
<ellipse fill="none" stroke="black" cx="340" cy="-600" rx="18" ry="18"/>
<text text-anchor="middle" x="340" y="-596.3" font-family="Times,serif" font-size="14.00">p11</text>
</g>
<!-- transition11 -->
<g id="node23" class="node"><title>transition11</title>
<polygon fill="none" stroke="black" points="358,-546 322,-546 322,-545 358,-545 358,-546"/>
<text text-anchor="middle" x="302.5" y="-549.8" font-family="Times,serif" font-size="14.00">ackin+</text>
</g>
<!-- p11&#45;&gt;transition11 -->
<g id="edge21" class="edge"><title>p11&#45;&gt;transition11</title>
<path fill="none" stroke="black" d="M340,-581.939C340,-571.385 340,-558.534 340,-551.412"/>
<polygon fill="none" stroke="black" points="341.75,-551.059 340,-546.059 338.25,-551.059 341.75,-551.059"/>
</g>
<!-- transition10&#45;&gt;p11 -->
<g id="edge20" class="edge"><title>transition10&#45;&gt;p11</title>
<path fill="none" stroke="black" d="M340,-653.848C340,-652.368 340,-640.319 340,-628.1"/>
<polygon fill="black" stroke="black" points="343.5,-628.025 340,-618.025 336.5,-628.025 343.5,-628.025"/>
</g>
<!-- p12 -->
<g id="node22" class="node"><title>p12</title>
<ellipse fill="none" stroke="black" cx="340" cy="-491" rx="18" ry="18"/>
<text text-anchor="middle" x="340" y="-487.3" font-family="Times,serif" font-size="14.00">p12</text>
</g>
<!-- transition12 -->
<g id="node25" class="node"><title>transition12</title>
<polygon fill="none" stroke="black" points="358,-437 322,-437 322,-436 358,-436 358,-437"/>
<text text-anchor="middle" x="301.5" y="-440.8" font-family="Times,serif" font-size="14.00">regout&#45;</text>
</g>
<!-- p12&#45;&gt;transition12 -->
<g id="edge23" class="edge"><title>p12&#45;&gt;transition12</title>
<path fill="none" stroke="black" d="M340,-472.939C340,-462.385 340,-449.534 340,-442.412"/>
<polygon fill="none" stroke="black" points="341.75,-442.059 340,-437.059 338.25,-442.059 341.75,-442.059"/>
</g>
<!-- transition11&#45;&gt;p12 -->
<g id="edge22" class="edge"><title>transition11&#45;&gt;p12</title>
<path fill="none" stroke="black" d="M340,-544.848C340,-543.368 340,-531.319 340,-519.1"/>
<polygon fill="black" stroke="black" points="343.5,-519.025 340,-509.025 336.5,-519.025 343.5,-519.025"/>
</g>
<!-- p13 -->
<g id="node24" class="node"><title>p13</title>
<ellipse fill="none" stroke="black" cx="340" cy="-382" rx="18" ry="18"/>
<text text-anchor="middle" x="340" y="-378.3" font-family="Times,serif" font-size="14.00">p13</text>
</g>
<!-- transition13 -->
<g id="node27" class="node"><title>transition13</title>
<polygon fill="none" stroke="black" points="358,-328 322,-328 322,-327 358,-327 358,-328"/>
<text text-anchor="middle" x="278" y="-331.8" font-family="Times,serif" font-size="14.00">[empty+]ackin&#45;</text>
</g>
<!-- p13&#45;&gt;transition13 -->
<g id="edge25" class="edge"><title>p13&#45;&gt;transition13</title>
<path fill="none" stroke="black" d="M340,-363.939C340,-353.385 340,-340.534 340,-333.412"/>
<polygon fill="none" stroke="black" points="341.75,-333.059 340,-328.059 338.25,-333.059 341.75,-333.059"/>
</g>
<!-- transition14 -->
<g id="node30" class="node"><title>transition14</title>
<polygon fill="none" stroke="black" points="304,-328 268,-328 268,-327 304,-327 304,-328"/>
<text text-anchor="middle" x="226" y="-315.8" font-family="Times,serif" font-size="14.00">[empty&#45;]ackin&#45;</text>
</g>
<!-- p13&#45;&gt;transition14 -->
<g id="edge29" class="edge"><title>p13&#45;&gt;transition14</title>
<path fill="none" stroke="black" d="M327.476,-368.708C315.402,-356.858 297.847,-339.627 290.023,-331.948"/>
<polygon fill="none" stroke="black" points="290.868,-330.326 286.074,-328.072 288.416,-332.824 290.868,-330.326"/>
</g>
<!-- transition12&#45;&gt;p13 -->
<g id="edge24" class="edge"><title>transition12&#45;&gt;p13</title>
<path fill="none" stroke="black" d="M340,-435.848C340,-434.368 340,-422.319 340,-410.1"/>
<polygon fill="black" stroke="black" points="343.5,-410.025 340,-400.025 336.5,-410.025 343.5,-410.025"/>
</g>
<!-- p14 -->
<g id="node26" class="node"><title>p14</title>
<ellipse fill="none" stroke="black" cx="340" cy="-273" rx="18" ry="18"/>
<text text-anchor="middle" x="340" y="-269.3" font-family="Times,serif" font-size="14.00">p14</text>
</g>
<!-- transition15 -->
<g id="node28" class="node"><title>transition15</title>
<polygon fill="none" stroke="black" points="421,-219 385,-219 385,-218 421,-218 421,-219"/>
<text text-anchor="middle" x="355" y="-222.8" font-family="Times,serif" font-size="14.00">endmaint+</text>
</g>
<!-- p14&#45;&gt;transition15 -->
<g id="edge27" class="edge"><title>p14&#45;&gt;transition15</title>
<path fill="none" stroke="black" d="M353.361,-260.76C367.777,-248.632 389.882,-230.036 398.928,-222.426"/>
<polygon fill="none" stroke="black" points="400.211,-223.634 402.91,-219.076 397.957,-220.955 400.211,-223.634"/>
</g>
<!-- transition13&#45;&gt;p14 -->
<g id="edge26" class="edge"><title>transition13&#45;&gt;p14</title>
<path fill="none" stroke="black" d="M340,-326.848C340,-325.368 340,-313.319 340,-301.1"/>
<polygon fill="black" stroke="black" points="343.5,-301.025 340,-291.025 336.5,-301.025 343.5,-301.025"/>
</g>
<!-- transition15&#45;&gt;p1 -->
<g id="edge28" class="edge"><title>transition15&#45;&gt;p1</title>
<path fill="none" stroke="black" d="M403.015,-219.043C403.651,-220.844 424,-278.865 424,-327 424,-1582 424,-1582 424,-1582 424,-1610.36 415.568,-1641.87 408.498,-1663.3"/>
<polygon fill="black" stroke="black" points="405.12,-1662.36 405.18,-1672.96 411.74,-1664.64 405.12,-1662.36"/>
</g>
<!-- p15 -->
<g id="node29" class="node"><title>p15</title>
<ellipse fill="none" stroke="black" cx="286" cy="-273" rx="18" ry="18"/>
<text text-anchor="middle" x="286" y="-269.3" font-family="Times,serif" font-size="14.00">p15</text>
</g>
<!-- transition16 -->
<g id="node31" class="node"><title>transition16</title>
<polygon fill="none" stroke="black" points="325,-219 289,-219 289,-218 325,-218 325,-219"/>
<text text-anchor="middle" x="267" y="-222.8" font-family="Times,serif" font-size="14.00">regout+</text>
</g>
<!-- p15&#45;&gt;transition16 -->
<g id="edge31" class="edge"><title>p15&#45;&gt;transition16</title>
<path fill="none" stroke="black" d="M292.301,-256.098C296.608,-245.228 302.043,-231.51 304.948,-224.179"/>
<polygon fill="none" stroke="black" points="306.76,-224.355 306.975,-219.062 303.507,-223.066 306.76,-224.355"/>
</g>
<!-- transition14&#45;&gt;p15 -->
<g id="edge30" class="edge"><title>transition14&#45;&gt;p15</title>
<path fill="none" stroke="black" d="M286,-326.848C286,-325.368 286,-313.319 286,-301.1"/>
<polygon fill="black" stroke="black" points="289.5,-301.025 286,-291.025 282.5,-301.025 289.5,-301.025"/>
</g>
<!-- transition16&#45;&gt;p11 -->
<g id="edge32" class="edge"><title>transition16&#45;&gt;p11</title>
<path fill="none" stroke="black" d="M307.119,-219.033C309.561,-219.709 348.907,-230.911 367,-255 386.876,-281.463 386,-293.905 386,-327 386,-492 386,-492 386,-492 386,-523.176 369.314,-555.612 356.041,-576.481"/>
<polygon fill="black" stroke="black" points="353.04,-574.674 350.438,-584.945 358.877,-578.539 353.04,-574.674"/>
</g>
<!-- p25 -->
<g id="node32" class="node"><title>p25</title>
<ellipse fill="none" stroke="black" cx="235" cy="-927" rx="18" ry="18"/>
<text text-anchor="middle" x="235" y="-923.3" font-family="Times,serif" font-size="14.00">p25</text>
</g>
<!-- transition18 -->
<g id="node35" class="node"><title>transition18</title>
<polygon fill="none" stroke="black" points="247,-873 211,-873 211,-872 247,-872 247,-873"/>
<text text-anchor="middle" x="193" y="-876.8" font-family="Times,serif" font-size="14.00">ready&#45;</text>
</g>
<!-- p25&#45;&gt;transition18 -->
<g id="edge35" class="edge"><title>p25&#45;&gt;transition18</title>
<path fill="none" stroke="black" d="M233.069,-908.939C231.874,-898.385 230.419,-885.534 229.613,-878.412"/>
<polygon fill="none" stroke="black" points="231.308,-877.831 229.007,-873.059 227.83,-878.224 231.308,-877.831"/>
</g>
<!-- transition17&#45;&gt;p25 -->
<g id="edge34" class="edge"><title>transition17&#45;&gt;p25</title>
<path fill="none" stroke="black" d="M235.997,-980.848C235.969,-979.368 235.742,-967.319 235.511,-955.1"/>
<polygon fill="black" stroke="black" points="239.009,-954.957 235.321,-945.025 232.011,-955.089 239.009,-954.957"/>
</g>
<!-- p16 -->
<g id="node34" class="node"><title>p16</title>
<ellipse fill="none" stroke="black" cx="217" cy="-818" rx="18" ry="18"/>
<text text-anchor="middle" x="217" y="-814.3" font-family="Times,serif" font-size="14.00">p16</text>
</g>
<!-- transition19 -->
<g id="node37" class="node"><title>transition19</title>
<polygon fill="none" stroke="black" points="233,-764 197,-764 197,-763 233,-763 233,-764"/>
<text text-anchor="middle" x="170.5" y="-767.8" font-family="Times,serif" font-size="14.00">dack&#45;dtc&#45;</text>
</g>
<!-- p16&#45;&gt;transition19 -->
<g id="edge37" class="edge"><title>p16&#45;&gt;transition19</title>
<path fill="none" stroke="black" d="M216.356,-799.939C215.958,-789.385 215.473,-776.534 215.204,-769.412"/>
<polygon fill="none" stroke="black" points="216.94,-768.99 215.002,-764.059 213.442,-769.122 216.94,-768.99"/>
</g>
<!-- transition18&#45;&gt;p16 -->
<g id="edge36" class="edge"><title>transition18&#45;&gt;p16</title>
<path fill="none" stroke="black" d="M228.966,-871.848C228.625,-870.344 225.812,-857.919 222.999,-845.496"/>
<polygon fill="black" stroke="black" points="226.413,-844.722 220.791,-835.742 219.585,-846.268 226.413,-844.722"/>
</g>
<!-- p17 -->
<g id="node36" class="node"><title>p17</title>
<ellipse fill="none" stroke="black" cx="212" cy="-709" rx="18" ry="18"/>
<text text-anchor="middle" x="212" y="-705.3" font-family="Times,serif" font-size="14.00">p17</text>
</g>
<!-- transition20 -->
<g id="node39" class="node"><title>transition20</title>
<polygon fill="none" stroke="black" points="229,-655 193,-655 193,-654 229,-654 229,-655"/>
<text text-anchor="middle" x="171" y="-658.8" font-family="Times,serif" font-size="14.00">regout+</text>
</g>
<!-- p17&#45;&gt;transition20 -->
<g id="edge39" class="edge"><title>p17&#45;&gt;transition20</title>
<path fill="none" stroke="black" d="M211.678,-690.939C211.479,-680.385 211.236,-667.534 211.102,-660.412"/>
<polygon fill="none" stroke="black" points="212.845,-660.025 211.001,-655.059 209.346,-660.091 212.845,-660.025"/>
</g>
<!-- transition19&#45;&gt;p17 -->
<g id="edge38" class="edge"><title>transition19&#45;&gt;p17</title>
<path fill="none" stroke="black" d="M214.991,-762.848C214.908,-761.368 214.226,-749.319 213.534,-737.1"/>
<polygon fill="black" stroke="black" points="217.023,-736.811 212.964,-727.025 210.034,-737.207 217.023,-736.811"/>
</g>
<!-- p18 -->
<g id="node38" class="node"><title>p18</title>
<ellipse fill="none" stroke="black" cx="211" cy="-600" rx="18" ry="18"/>
<text text-anchor="middle" x="211" y="-596.3" font-family="Times,serif" font-size="14.00">p18</text>
</g>
<!-- transition21 -->
<g id="node41" class="node"><title>transition21</title>
<polygon fill="none" stroke="black" points="229,-546 193,-546 193,-545 229,-545 229,-546"/>
<text text-anchor="middle" x="157" y="-549.8" font-family="Times,serif" font-size="14.00">dack*ackin+</text>
</g>
<!-- p18&#45;&gt;transition21 -->
<g id="edge41" class="edge"><title>p18&#45;&gt;transition21</title>
<path fill="none" stroke="black" d="M211,-581.939C211,-571.385 211,-558.534 211,-551.412"/>
<polygon fill="none" stroke="black" points="212.75,-551.059 211,-546.059 209.25,-551.059 212.75,-551.059"/>
</g>
<!-- transition20&#45;&gt;p18 -->
<g id="edge40" class="edge"><title>transition20&#45;&gt;p18</title>
<path fill="none" stroke="black" d="M211,-653.848C211,-652.368 211,-640.319 211,-628.1"/>
<polygon fill="black" stroke="black" points="214.5,-628.025 211,-618.025 207.5,-628.025 214.5,-628.025"/>
</g>
<!-- p19 -->
<g id="node40" class="node"><title>p19</title>
<ellipse fill="none" stroke="black" cx="211" cy="-491" rx="18" ry="18"/>
<text text-anchor="middle" x="211" y="-487.3" font-family="Times,serif" font-size="14.00">p19</text>
</g>
<!-- transition22 -->
<g id="node43" class="node"><title>transition22</title>
<polygon fill="none" stroke="black" points="204,-437 168,-437 168,-436 204,-436 204,-437"/>
<text text-anchor="middle" x="147.5" y="-440.8" font-family="Times,serif" font-size="14.00">regout&#45;</text>
</g>
<!-- p19&#45;&gt;transition22 -->
<g id="edge43" class="edge"><title>p19&#45;&gt;transition22</title>
<path fill="none" stroke="black" d="M203.634,-474.385C198.388,-463.263 191.681,-449.044 188.247,-441.764"/>
<polygon fill="none" stroke="black" points="189.746,-440.838 186.03,-437.063 186.58,-442.332 189.746,-440.838"/>
</g>
<!-- transition21&#45;&gt;p19 -->
<g id="edge42" class="edge"><title>transition21&#45;&gt;p19</title>
<path fill="none" stroke="black" d="M211,-544.848C211,-543.368 211,-531.319 211,-519.1"/>
<polygon fill="black" stroke="black" points="214.5,-519.025 211,-509.025 207.5,-519.025 214.5,-519.025"/>
</g>
<!-- p20 -->
<g id="node42" class="node"><title>p20</title>
<ellipse fill="none" stroke="black" cx="186" cy="-382" rx="18" ry="18"/>
<text text-anchor="middle" x="186" y="-378.3" font-family="Times,serif" font-size="14.00">p20</text>
</g>
<!-- transition23 -->
<g id="node45" class="node"><title>transition23</title>
<polygon fill="none" stroke="black" points="250,-328 214,-328 214,-327 250,-327 250,-328"/>
<text text-anchor="middle" x="155" y="-331.8" font-family="Times,serif" font-size="14.00">[empty&#45;]dack*ackin&#45;</text>
</g>
<!-- p20&#45;&gt;transition23 -->
<g id="edge45" class="edge"><title>p20&#45;&gt;transition23</title>
<path fill="none" stroke="black" d="M197.371,-367.899C207.474,-356.258 221.64,-339.936 228.285,-332.281"/>
<polygon fill="none" stroke="black" points="229.984,-332.993 231.939,-328.07 227.34,-330.699 229.984,-332.993"/>
</g>
<!-- transition27 -->
<g id="node52" class="node"><title>transition27</title>
<polygon fill="none" stroke="black" points="158,-328 122,-328 122,-327 158,-327 158,-328"/>
<text text-anchor="middle" x="61" y="-315.8" font-family="Times,serif" font-size="14.00">[empty+]dack+ackin&#45;</text>
</g>
<!-- p20&#45;&gt;transition27 -->
<g id="edge53" class="edge"><title>p20&#45;&gt;transition27</title>
<path fill="none" stroke="black" d="M174.629,-367.899C164.526,-356.258 150.36,-339.936 143.715,-332.281"/>
<polygon fill="none" stroke="black" points="144.66,-330.699 140.061,-328.07 142.016,-332.993 144.66,-330.699"/>
</g>
<!-- transition22&#45;&gt;p20 -->
<g id="edge44" class="edge"><title>transition22&#45;&gt;p20</title>
<path fill="none" stroke="black" d="M186,-435.848C186,-434.368 186,-422.319 186,-410.1"/>
<polygon fill="black" stroke="black" points="189.5,-410.025 186,-400.025 182.5,-410.025 189.5,-410.025"/>
</g>
<!-- p21 -->
<g id="node44" class="node"><title>p21</title>
<ellipse fill="none" stroke="black" cx="232" cy="-273" rx="18" ry="18"/>
<text text-anchor="middle" x="232" y="-269.3" font-family="Times,serif" font-size="14.00">p21</text>
</g>
<!-- transition24 -->
<g id="node47" class="node"><title>transition24</title>
<polygon fill="none" stroke="black" points="250,-219 214,-219 214,-218 250,-218 250,-219"/>
<text text-anchor="middle" x="192" y="-222.8" font-family="Times,serif" font-size="14.00">regout+</text>
</g>
<!-- p21&#45;&gt;transition24 -->
<g id="edge47" class="edge"><title>p21&#45;&gt;transition24</title>
<path fill="none" stroke="black" d="M232,-254.939C232,-244.385 232,-231.534 232,-224.412"/>
<polygon fill="none" stroke="black" points="233.75,-224.059 232,-219.059 230.25,-224.059 233.75,-224.059"/>
</g>
<!-- transition23&#45;&gt;p21 -->
<g id="edge46" class="edge"><title>transition23&#45;&gt;p21</title>
<path fill="none" stroke="black" d="M232,-326.848C232,-325.368 232,-313.319 232,-301.1"/>
<polygon fill="black" stroke="black" points="235.5,-301.025 232,-291.025 228.5,-301.025 235.5,-301.025"/>
</g>
<!-- p22 -->
<g id="node46" class="node"><title>p22</title>
<ellipse fill="none" stroke="black" cx="232" cy="-164" rx="18" ry="18"/>
<text text-anchor="middle" x="232" y="-160.3" font-family="Times,serif" font-size="14.00">p22</text>
</g>
<!-- transition25 -->
<g id="node49" class="node"><title>transition25</title>
<polygon fill="none" stroke="black" points="250,-110 214,-110 214,-109 250,-109 250,-110"/>
<text text-anchor="middle" x="178" y="-113.8" font-family="Times,serif" font-size="14.00">dack*ackin+</text>
</g>
<!-- p22&#45;&gt;transition25 -->
<g id="edge49" class="edge"><title>p22&#45;&gt;transition25</title>
<path fill="none" stroke="black" d="M232,-145.939C232,-135.385 232,-122.534 232,-115.412"/>
<polygon fill="none" stroke="black" points="233.75,-115.059 232,-110.059 230.25,-115.059 233.75,-115.059"/>
</g>
<!-- transition24&#45;&gt;p22 -->
<g id="edge48" class="edge"><title>transition24&#45;&gt;p22</title>
<path fill="none" stroke="black" d="M232,-217.848C232,-216.368 232,-204.319 232,-192.1"/>
<polygon fill="black" stroke="black" points="235.5,-192.025 232,-182.025 228.5,-192.025 235.5,-192.025"/>
</g>
<!-- p23 -->
<g id="node48" class="node"><title>p23</title>
<ellipse fill="none" stroke="black" cx="232" cy="-55" rx="18" ry="18"/>
<text text-anchor="middle" x="232" y="-51.3" font-family="Times,serif" font-size="14.00">p23</text>
</g>
<!-- transition26 -->
<g id="node50" class="node"><title>transition26</title>
<polygon fill="none" stroke="black" points="227,-1 191,-1 191,-0 227,-0 227,-1"/>
<text text-anchor="middle" x="170.5" y="-4.8" font-family="Times,serif" font-size="14.00">regout&#45;</text>
</g>
<!-- p23&#45;&gt;transition26 -->
<g id="edge51" class="edge"><title>p23&#45;&gt;transition26</title>
<path fill="none" stroke="black" d="M225.099,-38.0983C220.279,-26.9918 214.169,-12.9118 211.044,-5.7104"/>
<polygon fill="none" stroke="black" points="212.623,-4.95216 209.027,-1.06211 209.412,-6.34553 212.623,-4.95216"/>
</g>
<!-- transition25&#45;&gt;p23 -->
<g id="edge50" class="edge"><title>transition25&#45;&gt;p23</title>
<path fill="none" stroke="black" d="M232,-108.848C232,-107.368 232,-95.3194 232,-83.1004"/>
<polygon fill="black" stroke="black" points="235.5,-83.0247 232,-73.0247 228.5,-83.0248 235.5,-83.0247"/>
</g>
<!-- transition26&#45;&gt;p20 -->
<g id="edge52" class="edge"><title>transition26&#45;&gt;p20</title>
<path fill="none" stroke="black" d="M208.983,-1.04289C208.287,-2.83896 186,-60.6904 186,-109 186,-274 186,-274 186,-274 186,-301.174 186,-332.231 186,-353.86"/>
<polygon fill="black" stroke="black" points="182.5,-353.951 186,-363.951 189.5,-353.951 182.5,-353.951"/>
</g>
<!-- p24 -->
<g id="node51" class="node"><title>p24</title>
<ellipse fill="none" stroke="black" cx="117" cy="-273" rx="18" ry="18"/>
<text text-anchor="middle" x="117" y="-269.3" font-family="Times,serif" font-size="14.00">p24</text>
</g>
<!-- p24&#45;&gt;transition6 -->
<g id="edge55" class="edge"><title>p24&#45;&gt;transition6</title>
<path fill="none" stroke="black" d="M111.315,-290.083C104.504,-310.82 94,-348.129 94,-381 94,-982 94,-982 94,-982 94,-1070.79 251.063,-1087.23 282.545,-1089.64"/>
<polygon fill="none" stroke="black" points="282.754,-1091.41 287.859,-1089.99 282.987,-1087.91 282.754,-1091.41"/>
</g>
<!-- transition27&#45;&gt;p24 -->
<g id="edge54" class="edge"><title>transition27&#45;&gt;p24</title>
<path fill="none" stroke="black" d="M139.934,-326.848C139.262,-325.3 133.571,-312.185 128.026,-299.409"/>
<polygon fill="black" stroke="black" points="131.092,-297.682 123.901,-289.902 124.671,-300.469 131.092,-297.682"/>
</g>
</g>
</svg>
