<?xml version="1.0" encoding="UTF-8" standalone="no"?>
<!DOCTYPE svg PUBLIC "-//W3C//DTD SVG 1.1//EN"
 "http://www.w3.org/Graphics/SVG/1.1/DTD/svg11.dtd">
<!-- Generated by graphviz version 2.38.0 (20140413.2041)
 -->
<!-- Title: %3 Pages: 1 -->
<svg width="141pt" height="1350pt"
 viewBox="0.00 0.00 141.00 1350.00" xmlns="http://www.w3.org/2000/svg" xmlns:xlink="http://www.w3.org/1999/xlink">
<g id="graph0" class="graph" transform="scale(1 1) rotate(0) translate(4 1346)">
<title>%3</title>
<polygon fill="white" stroke="none" points="-4,4 -4,-1346 137,-1346 137,4 -4,4"/>
<!-- 1 -->
<g id="node1" class="node"><title>1</title>
<ellipse fill="none" stroke="black" cx="110" cy="-1324" rx="18" ry="18"/>
<text text-anchor="middle" x="110" y="-1320.3" font-family="Times,serif" font-size="14.00">1</text>
</g>
<!-- transition0 -->
<g id="node3" class="node"><title>transition0</title>
<polygon fill="none" stroke="black" points="105,-1270 69,-1270 69,-1269 105,-1269 105,-1270"/>
<text text-anchor="middle" x="61.5" y="-1273.8" font-family="Times,serif" font-size="14.00">c+</text>
</g>
<!-- 1&#45;&gt;transition0 -->
<g id="edge1" class="edge"><title>1&#45;&gt;transition0</title>
<path fill="none" stroke="black" d="M103.099,-1307.1C98.2795,-1295.99 92.1693,-1281.91 89.0441,-1274.71"/>
<polygon fill="none" stroke="black" points="90.6228,-1273.95 87.027,-1270.06 87.4121,-1275.35 90.6228,-1273.95"/>
</g>
<!-- 2 -->
<g id="node2" class="node"><title>2</title>
<ellipse fill="none" stroke="black" cx="37" cy="-1215" rx="18" ry="18"/>
<text text-anchor="middle" x="37" y="-1211.3" font-family="Times,serif" font-size="14.00">2</text>
</g>
<!-- transition1 -->
<g id="node5" class="node"><title>transition1</title>
<polygon fill="none" stroke="black" points="51,-1143.5 15,-1143.5 15,-1142.5 51,-1142.5 51,-1143.5"/>
<text text-anchor="middle" x="7.5" y="-1147.3" font-family="Times,serif" font-size="14.00">b+</text>
</g>
<!-- 2&#45;&gt;transition1 -->
<g id="edge3" class="edge"><title>2&#45;&gt;transition1</title>
<path fill="none" stroke="black" d="M36.0112,-1196.7C35.1237,-1181.17 33.8757,-1159.32 33.3056,-1149.35"/>
<polygon fill="none" stroke="black" points="35.0378,-1148.98 33.0053,-1144.09 31.5435,-1149.18 35.0378,-1148.98"/>
</g>
<!-- transition0&#45;&gt;2 -->
<g id="edge2" class="edge"><title>transition0&#45;&gt;2</title>
<path fill="none" stroke="black" d="M86.8566,-1268.85C85.194,-1267.09 69.3941,-1250.34 56.0198,-1236.16"/>
<polygon fill="black" stroke="black" points="58.3526,-1233.53 48.9445,-1228.66 53.2608,-1238.34 58.3526,-1233.53"/>
</g>
<!-- 4 -->
<g id="node27" class="node"><title>4</title>
<ellipse fill="none" stroke="black" cx="87" cy="-1143" rx="18" ry="18"/>
<text text-anchor="middle" x="87" y="-1139.3" font-family="Times,serif" font-size="14.00">4</text>
</g>
<!-- transition0&#45;&gt;4 -->
<g id="edge28" class="edge"><title>transition0&#45;&gt;4</title>
<path fill="none" stroke="black" d="M87,-1268.91C87,-1266.29 87,-1207.47 87,-1171.49"/>
<polygon fill="black" stroke="black" points="90.5001,-1171.15 87,-1161.15 83.5001,-1171.15 90.5001,-1171.15"/>
</g>
<!-- 3 -->
<g id="node4" class="node"><title>3</title>
<ellipse fill="none" stroke="black" cx="33" cy="-1071" rx="18" ry="18"/>
<text text-anchor="middle" x="33" y="-1067.3" font-family="Times,serif" font-size="14.00">3</text>
</g>
<!-- transition2 -->
<g id="node7" class="node"><title>transition2</title>
<polygon fill="none" stroke="black" points="56,-1017 20,-1017 20,-1016 56,-1016 56,-1017"/>
<text text-anchor="middle" x="14.5" y="-1020.8" font-family="Times,serif" font-size="14.00">a&#45;</text>
</g>
<!-- 3&#45;&gt;transition2 -->
<g id="edge5" class="edge"><title>3&#45;&gt;transition2</title>
<path fill="none" stroke="black" d="M34.6096,-1052.94C35.6052,-1042.39 36.8175,-1029.53 37.4894,-1022.41"/>
<polygon fill="none" stroke="black" points="39.267,-1022.2 37.9944,-1017.06 35.7825,-1021.87 39.267,-1022.2"/>
</g>
<!-- transition1&#45;&gt;3 -->
<g id="edge4" class="edge"><title>transition1&#45;&gt;3</title>
<path fill="none" stroke="black" d="M33,-1141.95C33,-1140.75 33,-1118.43 33,-1099.32"/>
<polygon fill="black" stroke="black" points="36.5001,-1099.19 33,-1089.19 29.5001,-1099.19 36.5001,-1099.19"/>
</g>
<!-- 5 -->
<g id="node6" class="node"><title>5</title>
<ellipse fill="none" stroke="black" cx="38" cy="-962" rx="18" ry="18"/>
<text text-anchor="middle" x="38" y="-958.3" font-family="Times,serif" font-size="14.00">5</text>
</g>
<!-- transition4 -->
<g id="node9" class="node"><title>transition4</title>
<polygon fill="none" stroke="black" points="56,-908 20,-908 20,-907 56,-907 56,-908"/>
<text text-anchor="middle" x="12.5" y="-911.8" font-family="Times,serif" font-size="14.00">x+</text>
</g>
<!-- 5&#45;&gt;transition4 -->
<g id="edge7" class="edge"><title>5&#45;&gt;transition4</title>
<path fill="none" stroke="black" d="M38,-943.939C38,-933.385 38,-920.534 38,-913.412"/>
<polygon fill="none" stroke="black" points="39.7501,-913.059 38,-908.059 36.2501,-913.059 39.7501,-913.059"/>
</g>
<!-- transition2&#45;&gt;5 -->
<g id="edge6" class="edge"><title>transition2&#45;&gt;5</title>
<path fill="none" stroke="black" d="M38,-1015.85C38,-1014.37 38,-1002.32 38,-990.1"/>
<polygon fill="black" stroke="black" points="41.5001,-990.025 38,-980.025 34.5001,-990.025 41.5001,-990.025"/>
</g>
<!-- 6 -->
<g id="node8" class="node"><title>6</title>
<ellipse fill="none" stroke="black" cx="38" cy="-853" rx="18" ry="18"/>
<text text-anchor="middle" x="38" y="-849.3" font-family="Times,serif" font-size="14.00">6</text>
</g>
<!-- transition5 -->
<g id="node11" class="node"><title>transition5</title>
<polygon fill="none" stroke="black" points="56,-799 20,-799 20,-798 56,-798 56,-799"/>
<text text-anchor="middle" x="14" y="-802.8" font-family="Times,serif" font-size="14.00">b&#45;</text>
</g>
<!-- 6&#45;&gt;transition5 -->
<g id="edge9" class="edge"><title>6&#45;&gt;transition5</title>
<path fill="none" stroke="black" d="M38,-834.939C38,-824.385 38,-811.534 38,-804.412"/>
<polygon fill="none" stroke="black" points="39.7501,-804.059 38,-799.059 36.2501,-804.059 39.7501,-804.059"/>
</g>
<!-- transition4&#45;&gt;6 -->
<g id="edge8" class="edge"><title>transition4&#45;&gt;6</title>
<path fill="none" stroke="black" d="M38,-906.848C38,-905.368 38,-893.319 38,-881.1"/>
<polygon fill="black" stroke="black" points="41.5001,-881.025 38,-871.025 34.5001,-881.025 41.5001,-881.025"/>
</g>
<!-- 7 -->
<g id="node10" class="node"><title>7</title>
<ellipse fill="none" stroke="black" cx="38" cy="-744" rx="18" ry="18"/>
<text text-anchor="middle" x="38" y="-740.3" font-family="Times,serif" font-size="14.00">7</text>
</g>
<!-- transition6 -->
<g id="node13" class="node"><title>transition6</title>
<polygon fill="none" stroke="black" points="56,-690 20,-690 20,-689 56,-689 56,-690"/>
<text text-anchor="middle" x="12.5" y="-693.8" font-family="Times,serif" font-size="14.00">a+</text>
</g>
<!-- 7&#45;&gt;transition6 -->
<g id="edge11" class="edge"><title>7&#45;&gt;transition6</title>
<path fill="none" stroke="black" d="M38,-725.939C38,-715.385 38,-702.534 38,-695.412"/>
<polygon fill="none" stroke="black" points="39.7501,-695.059 38,-690.059 36.2501,-695.059 39.7501,-695.059"/>
</g>
<!-- transition5&#45;&gt;7 -->
<g id="edge10" class="edge"><title>transition5&#45;&gt;7</title>
<path fill="none" stroke="black" d="M38,-797.848C38,-796.368 38,-784.319 38,-772.1"/>
<polygon fill="black" stroke="black" points="41.5001,-772.025 38,-762.025 34.5001,-772.025 41.5001,-772.025"/>
</g>
<!-- 8 -->
<g id="node12" class="node"><title>8</title>
<ellipse fill="none" stroke="black" cx="38" cy="-635" rx="18" ry="18"/>
<text text-anchor="middle" x="38" y="-631.3" font-family="Times,serif" font-size="14.00">8</text>
</g>
<!-- transition7 -->
<g id="node15" class="node"><title>transition7</title>
<polygon fill="none" stroke="black" points="56,-581 20,-581 20,-580 56,-580 56,-581"/>
<text text-anchor="middle" x="14.5" y="-584.8" font-family="Times,serif" font-size="14.00">c&#45;</text>
</g>
<!-- 8&#45;&gt;transition7 -->
<g id="edge13" class="edge"><title>8&#45;&gt;transition7</title>
<path fill="none" stroke="black" d="M38,-616.939C38,-606.385 38,-593.534 38,-586.412"/>
<polygon fill="none" stroke="black" points="39.7501,-586.059 38,-581.059 36.2501,-586.059 39.7501,-586.059"/>
</g>
<!-- transition6&#45;&gt;8 -->
<g id="edge12" class="edge"><title>transition6&#45;&gt;8</title>
<path fill="none" stroke="black" d="M38,-688.848C38,-687.368 38,-675.319 38,-663.1"/>
<polygon fill="black" stroke="black" points="41.5001,-663.025 38,-653.025 34.5001,-663.025 41.5001,-663.025"/>
</g>
<!-- 9 -->
<g id="node14" class="node"><title>9</title>
<ellipse fill="none" stroke="black" cx="34" cy="-526" rx="18" ry="18"/>
<text text-anchor="middle" x="34" y="-522.3" font-family="Times,serif" font-size="14.00">9</text>
</g>
<!-- transition8 -->
<g id="node17" class="node"><title>transition8</title>
<polygon fill="none" stroke="black" points="51,-454.5 15,-454.5 15,-453.5 51,-453.5 51,-454.5"/>
<text text-anchor="middle" x="7.5" y="-458.3" font-family="Times,serif" font-size="14.00">b+</text>
</g>
<!-- 9&#45;&gt;transition8 -->
<g id="edge15" class="edge"><title>9&#45;&gt;transition8</title>
<path fill="none" stroke="black" d="M33.7528,-507.697C33.5309,-492.165 33.2189,-470.324 33.0764,-460.348"/>
<polygon fill="none" stroke="black" points="34.8227,-460.067 33.0013,-455.092 31.323,-460.117 34.8227,-460.067"/>
</g>
<!-- transition7&#45;&gt;9 -->
<g id="edge14" class="edge"><title>transition7&#45;&gt;9</title>
<path fill="none" stroke="black" d="M37.9885,-579.848C37.8768,-578.368 36.9675,-566.319 36.0453,-554.1"/>
<polygon fill="black" stroke="black" points="39.5276,-553.733 35.2849,-544.025 32.5475,-554.26 39.5276,-553.733"/>
</g>
<!-- 11 -->
<g id="node25" class="node"><title>11</title>
<ellipse fill="none" stroke="black" cx="87" cy="-454" rx="18" ry="18"/>
<text text-anchor="middle" x="87" y="-450.3" font-family="Times,serif" font-size="14.00">11</text>
</g>
<!-- transition7&#45;&gt;11 -->
<g id="edge25" class="edge"><title>transition7&#45;&gt;11</title>
<path fill="none" stroke="black" d="M38.0437,-579.946C38.9396,-578.832 53.393,-560.747 61,-544 70.1269,-523.907 76.9348,-499.811 81.2901,-481.761"/>
<polygon fill="black" stroke="black" points="84.7254,-482.44 83.57,-471.909 77.9056,-480.862 84.7254,-482.44"/>
</g>
<!-- 10 -->
<g id="node16" class="node"><title>10</title>
<ellipse fill="none" stroke="black" cx="33" cy="-382" rx="18" ry="18"/>
<text text-anchor="middle" x="33" y="-378.3" font-family="Times,serif" font-size="14.00">10</text>
</g>
<!-- transition9 -->
<g id="node19" class="node"><title>transition9</title>
<polygon fill="none" stroke="black" points="55,-328 19,-328 19,-327 55,-327 55,-328"/>
<text text-anchor="middle" x="13.5" y="-331.8" font-family="Times,serif" font-size="14.00">a&#45;</text>
</g>
<!-- 10&#45;&gt;transition9 -->
<g id="edge17" class="edge"><title>10&#45;&gt;transition9</title>
<path fill="none" stroke="black" d="M34.2876,-363.939C35.0841,-353.385 36.054,-340.534 36.5915,-333.412"/>
<polygon fill="none" stroke="black" points="38.3642,-333.177 36.9955,-328.059 34.8741,-332.913 38.3642,-333.177"/>
</g>
<!-- transition8&#45;&gt;10 -->
<g id="edge16" class="edge"><title>transition8&#45;&gt;10</title>
<path fill="none" stroke="black" d="M33,-452.949C33,-451.748 33,-429.429 33,-410.321"/>
<polygon fill="black" stroke="black" points="36.5001,-410.191 33,-400.191 29.5001,-410.191 36.5001,-410.191"/>
</g>
<!-- 12 -->
<g id="node18" class="node"><title>12</title>
<ellipse fill="none" stroke="black" cx="87" cy="-273" rx="18" ry="18"/>
<text text-anchor="middle" x="87" y="-269.3" font-family="Times,serif" font-size="14.00">12</text>
</g>
<!-- transition11 -->
<g id="node21" class="node"><title>transition11</title>
<polygon fill="none" stroke="black" points="105,-219 69,-219 69,-218 105,-218 105,-219"/>
<text text-anchor="middle" x="63" y="-222.8" font-family="Times,serif" font-size="14.00">x&#45;</text>
</g>
<!-- 12&#45;&gt;transition11 -->
<g id="edge19" class="edge"><title>12&#45;&gt;transition11</title>
<path fill="none" stroke="black" d="M87,-254.939C87,-244.385 87,-231.534 87,-224.412"/>
<polygon fill="none" stroke="black" points="88.7501,-224.059 87,-219.059 85.2501,-224.059 88.7501,-224.059"/>
</g>
<!-- transition9&#45;&gt;12 -->
<g id="edge18" class="edge"><title>transition9&#45;&gt;12</title>
<path fill="none" stroke="black" d="M37.1434,-326.848C38.806,-325.086 54.6059,-308.338 67.9802,-294.161"/>
<polygon fill="black" stroke="black" points="70.7392,-296.337 75.0555,-286.661 65.6474,-291.533 70.7392,-296.337"/>
</g>
<!-- 13 -->
<g id="node20" class="node"><title>13</title>
<ellipse fill="none" stroke="black" cx="87" cy="-164" rx="18" ry="18"/>
<text text-anchor="middle" x="87" y="-160.3" font-family="Times,serif" font-size="14.00">13</text>
</g>
<!-- transition12 -->
<g id="node23" class="node"><title>transition12</title>
<polygon fill="none" stroke="black" points="105,-110 69,-110 69,-109 105,-109 105,-110"/>
<text text-anchor="middle" x="63" y="-113.8" font-family="Times,serif" font-size="14.00">b&#45;</text>
</g>
<!-- 13&#45;&gt;transition12 -->
<g id="edge21" class="edge"><title>13&#45;&gt;transition12</title>
<path fill="none" stroke="black" d="M87,-145.939C87,-135.385 87,-122.534 87,-115.412"/>
<polygon fill="none" stroke="black" points="88.7501,-115.059 87,-110.059 85.2501,-115.059 88.7501,-115.059"/>
</g>
<!-- transition11&#45;&gt;13 -->
<g id="edge20" class="edge"><title>transition11&#45;&gt;13</title>
<path fill="none" stroke="black" d="M87,-217.848C87,-216.368 87,-204.319 87,-192.1"/>
<polygon fill="black" stroke="black" points="90.5001,-192.025 87,-182.025 83.5001,-192.025 90.5001,-192.025"/>
</g>
<!-- 14 -->
<g id="node22" class="node"><title>14</title>
<ellipse fill="none" stroke="black" cx="87" cy="-55" rx="18" ry="18"/>
<text text-anchor="middle" x="87" y="-51.3" font-family="Times,serif" font-size="14.00">14</text>
</g>
<!-- transition13 -->
<g id="node24" class="node"><title>transition13</title>
<polygon fill="none" stroke="black" points="128,-1 92,-1 92,-0 128,-0 128,-1"/>
<text text-anchor="middle" x="84.5" y="-4.8" font-family="Times,serif" font-size="14.00">a+</text>
</g>
<!-- 14&#45;&gt;transition13 -->
<g id="edge23" class="edge"><title>14&#45;&gt;transition13</title>
<path fill="none" stroke="black" d="M93.9008,-38.0983C98.7205,-26.9918 104.831,-12.9118 107.956,-5.7104"/>
<polygon fill="none" stroke="black" points="109.588,-6.34553 109.973,-1.06211 106.377,-4.95216 109.588,-6.34553"/>
</g>
<!-- transition12&#45;&gt;14 -->
<g id="edge22" class="edge"><title>transition12&#45;&gt;14</title>
<path fill="none" stroke="black" d="M87,-108.848C87,-107.368 87,-95.3194 87,-83.1004"/>
<polygon fill="black" stroke="black" points="90.5001,-83.0247 87,-73.0247 83.5001,-83.0248 90.5001,-83.0247"/>
</g>
<!-- transition13&#45;&gt;1 -->
<g id="edge24" class="edge"><title>transition13&#45;&gt;1</title>
<path fill="none" stroke="black" d="M110.017,-1.04289C110.713,-2.83896 133,-60.6904 133,-109 133,-1216 133,-1216 133,-1216 133,-1244.25 125.243,-1275.77 118.738,-1297.24"/>
<polygon fill="black" stroke="black" points="115.358,-1296.33 115.685,-1306.92 122.033,-1298.43 115.358,-1296.33"/>
</g>
<!-- transition10 -->
<g id="node26" class="node"><title>transition10</title>
<polygon fill="none" stroke="black" points="105,-382.5 69,-382.5 69,-381.5 105,-381.5 105,-382.5"/>
<text text-anchor="middle" x="63" y="-386.3" font-family="Times,serif" font-size="14.00">d&#45;</text>
</g>
<!-- 11&#45;&gt;transition10 -->
<g id="edge26" class="edge"><title>11&#45;&gt;transition10</title>
<path fill="none" stroke="black" d="M87,-435.697C87,-420.165 87,-398.324 87,-388.348"/>
<polygon fill="none" stroke="black" points="88.7501,-388.092 87,-383.092 85.2501,-388.092 88.7501,-388.092"/>
</g>
<!-- transition10&#45;&gt;12 -->
<g id="edge27" class="edge"><title>transition10&#45;&gt;12</title>
<path fill="none" stroke="black" d="M87,-380.922C87,-378.771 87,-332.348 87,-301.386"/>
<polygon fill="black" stroke="black" points="90.5001,-301.177 87,-291.177 83.5001,-301.177 90.5001,-301.177"/>
</g>
<!-- transition3 -->
<g id="node28" class="node"><title>transition3</title>
<polygon fill="none" stroke="black" points="105,-1071.5 69,-1071.5 69,-1070.5 105,-1070.5 105,-1071.5"/>
<text text-anchor="middle" x="61.5" y="-1075.3" font-family="Times,serif" font-size="14.00">d+</text>
</g>
<!-- 4&#45;&gt;transition3 -->
<g id="edge29" class="edge"><title>4&#45;&gt;transition3</title>
<path fill="none" stroke="black" d="M87,-1124.7C87,-1109.17 87,-1087.32 87,-1077.35"/>
<polygon fill="none" stroke="black" points="88.7501,-1077.09 87,-1072.09 85.2501,-1077.09 88.7501,-1077.09"/>
</g>
<!-- transition3&#45;&gt;5 -->
<g id="edge30" class="edge"><title>transition3&#45;&gt;5</title>
<path fill="none" stroke="black" d="M86.9675,-1069.91C86.2992,-1068.1 75.4434,-1038.83 65,-1016 60.6466,-1006.48 55.5087,-996.195 50.8896,-987.238"/>
<polygon fill="black" stroke="black" points="53.8717,-985.387 46.1427,-978.141 47.6657,-988.626 53.8717,-985.387"/>
</g>
</g>
</svg>
