<?xml version="1.0" encoding="UTF-8" standalone="no"?>
<!DOCTYPE svg PUBLIC "-//W3C//DTD SVG 1.1//EN"
 "http://www.w3.org/Graphics/SVG/1.1/DTD/svg11.dtd">
<!-- Generated by graphviz version 2.38.0 (20140413.2041)
 -->
<!-- Title: %3 Pages: 1 -->
<svg width="164pt" height="1043pt"
 viewBox="0.00 0.00 164.00 1043.00" xmlns="http://www.w3.org/2000/svg" xmlns:xlink="http://www.w3.org/1999/xlink">
<g id="graph0" class="graph" transform="scale(1 1) rotate(0) translate(4 1039)">
<title>%3</title>
<polygon fill="white" stroke="none" points="-4,4 -4,-1039 160,-1039 160,4 -4,4"/>
<!-- 1 -->
<g id="node1" class="node"><title>1</title>
<ellipse fill="none" stroke="black" cx="98" cy="-1017" rx="27" ry="18"/>
<text text-anchor="middle" x="98" y="-1013.3" font-family="Times,serif" font-size="14.00">1</text>
</g>
<!-- 2 -->
<g id="node2" class="node"><title>2</title>
<ellipse fill="none" stroke="black" cx="41" cy="-930" rx="27" ry="18"/>
<text text-anchor="middle" x="41" y="-926.3" font-family="Times,serif" font-size="14.00">2</text>
</g>
<!-- 1&#45;&gt;2 -->
<g id="edge1" class="edge"><title>1&#45;&gt;2</title>
<path fill="none" stroke="black" d="M80.9575,-1002.68C74.0667,-996.638 66.4666,-989.045 61,-981 56.197,-973.932 52.2741,-965.536 49.2152,-957.663"/>
<polygon fill="black" stroke="black" points="52.4619,-956.348 45.8013,-948.108 45.8701,-958.703 52.4619,-956.348"/>
<text text-anchor="middle" x="68.5" y="-969.8" font-family="Times,serif" font-size="14.00">c+</text>
</g>
<!-- 4 -->
<g id="node13" class="node"><title>4</title>
<ellipse fill="none" stroke="black" cx="98" cy="-876" rx="27" ry="18"/>
<text text-anchor="middle" x="98" y="-872.3" font-family="Times,serif" font-size="14.00">4</text>
</g>
<!-- 1&#45;&gt;4 -->
<g id="edge13" class="edge"><title>1&#45;&gt;4</title>
<path fill="none" stroke="black" d="M98,-998.956C98,-975.404 98,-932.639 98,-904.526"/>
<polygon fill="black" stroke="black" points="101.5,-904.184 98,-894.184 94.5001,-904.184 101.5,-904.184"/>
<text text-anchor="middle" x="105.5" y="-969.8" font-family="Times,serif" font-size="14.00">c+</text>
</g>
<!-- 3 -->
<g id="node3" class="node"><title>3</title>
<ellipse fill="none" stroke="black" cx="35" cy="-822" rx="27" ry="18"/>
<text text-anchor="middle" x="35" y="-818.3" font-family="Times,serif" font-size="14.00">3</text>
</g>
<!-- 2&#45;&gt;3 -->
<g id="edge2" class="edge"><title>2&#45;&gt;3</title>
<path fill="none" stroke="black" d="M40.036,-911.969C39.0969,-895.378 37.6537,-869.883 36.5527,-850.431"/>
<polygon fill="black" stroke="black" points="40.0412,-850.127 35.9815,-840.341 33.0524,-850.522 40.0412,-850.127"/>
<text text-anchor="middle" x="46.5" y="-872.3" font-family="Times,serif" font-size="14.00">b+</text>
</g>
<!-- 5 -->
<g id="node4" class="node"><title>5</title>
<ellipse fill="none" stroke="black" cx="40" cy="-735" rx="27" ry="18"/>
<text text-anchor="middle" x="40" y="-731.3" font-family="Times,serif" font-size="14.00">5</text>
</g>
<!-- 3&#45;&gt;5 -->
<g id="edge3" class="edge"><title>3&#45;&gt;5</title>
<path fill="none" stroke="black" d="M36.0118,-803.799C36.6963,-792.163 37.6148,-776.548 38.3978,-763.237"/>
<polygon fill="black" stroke="black" points="41.8963,-763.364 38.9897,-753.175 34.9084,-762.953 41.8963,-763.364"/>
<text text-anchor="middle" x="43.5" y="-774.8" font-family="Times,serif" font-size="14.00">a&#45;</text>
</g>
<!-- 6 -->
<g id="node5" class="node"><title>6</title>
<ellipse fill="none" stroke="black" cx="40" cy="-648" rx="27" ry="18"/>
<text text-anchor="middle" x="40" y="-644.3" font-family="Times,serif" font-size="14.00">6</text>
</g>
<!-- 5&#45;&gt;6 -->
<g id="edge4" class="edge"><title>5&#45;&gt;6</title>
<path fill="none" stroke="black" d="M40,-716.799C40,-705.163 40,-689.548 40,-676.237"/>
<polygon fill="black" stroke="black" points="43.5001,-676.175 40,-666.175 36.5001,-676.175 43.5001,-676.175"/>
<text text-anchor="middle" x="47.5" y="-687.8" font-family="Times,serif" font-size="14.00">x+</text>
</g>
<!-- 7 -->
<g id="node6" class="node"><title>7</title>
<ellipse fill="none" stroke="black" cx="40" cy="-561" rx="27" ry="18"/>
<text text-anchor="middle" x="40" y="-557.3" font-family="Times,serif" font-size="14.00">7</text>
</g>
<!-- 6&#45;&gt;7 -->
<g id="edge5" class="edge"><title>6&#45;&gt;7</title>
<path fill="none" stroke="black" d="M40,-629.799C40,-618.163 40,-602.548 40,-589.237"/>
<polygon fill="black" stroke="black" points="43.5001,-589.175 40,-579.175 36.5001,-589.175 43.5001,-589.175"/>
<text text-anchor="middle" x="46" y="-600.8" font-family="Times,serif" font-size="14.00">b&#45;</text>
</g>
<!-- 8 -->
<g id="node7" class="node"><title>8</title>
<ellipse fill="none" stroke="black" cx="40" cy="-474" rx="27" ry="18"/>
<text text-anchor="middle" x="40" y="-470.3" font-family="Times,serif" font-size="14.00">8</text>
</g>
<!-- 7&#45;&gt;8 -->
<g id="edge6" class="edge"><title>7&#45;&gt;8</title>
<path fill="none" stroke="black" d="M40,-542.799C40,-531.163 40,-515.548 40,-502.237"/>
<polygon fill="black" stroke="black" points="43.5001,-502.175 40,-492.175 36.5001,-502.175 43.5001,-502.175"/>
<text text-anchor="middle" x="47.5" y="-513.8" font-family="Times,serif" font-size="14.00">a+</text>
</g>
<!-- 9 -->
<g id="node8" class="node"><title>9</title>
<ellipse fill="none" stroke="black" cx="29" cy="-387" rx="27" ry="18"/>
<text text-anchor="middle" x="29" y="-383.3" font-family="Times,serif" font-size="14.00">9</text>
</g>
<!-- 8&#45;&gt;9 -->
<g id="edge7" class="edge"><title>8&#45;&gt;9</title>
<path fill="none" stroke="black" d="M37.774,-455.799C36.2681,-444.163 34.2474,-428.548 32.5248,-415.237"/>
<polygon fill="black" stroke="black" points="35.9773,-414.644 31.2227,-405.175 29.0351,-415.542 35.9773,-414.644"/>
<text text-anchor="middle" x="41.5" y="-426.8" font-family="Times,serif" font-size="14.00">c&#45;</text>
</g>
<!-- 11 -->
<g id="node14" class="node"><title>11</title>
<ellipse fill="none" stroke="black" cx="89" cy="-333" rx="27" ry="18"/>
<text text-anchor="middle" x="89" y="-329.3" font-family="Times,serif" font-size="14.00">11</text>
</g>
<!-- 8&#45;&gt;11 -->
<g id="edge15" class="edge"><title>8&#45;&gt;11</title>
<path fill="none" stroke="black" d="M46.2875,-456.277C51.419,-442.54 58.807,-422.555 65,-405 70.2086,-390.235 75.8231,-373.664 80.3112,-360.247"/>
<polygon fill="black" stroke="black" points="83.657,-361.277 83.4983,-350.684 77.0161,-359.064 83.657,-361.277"/>
<text text-anchor="middle" x="64.5" y="-426.8" font-family="Times,serif" font-size="14.00">c&#45;</text>
</g>
<!-- 10 -->
<g id="node9" class="node"><title>10</title>
<ellipse fill="none" stroke="black" cx="27" cy="-279" rx="27" ry="18"/>
<text text-anchor="middle" x="27" y="-275.3" font-family="Times,serif" font-size="14.00">10</text>
</g>
<!-- 9&#45;&gt;10 -->
<g id="edge8" class="edge"><title>9&#45;&gt;10</title>
<path fill="none" stroke="black" d="M28.6787,-368.969C28.3656,-352.378 27.8846,-326.883 27.5176,-307.431"/>
<polygon fill="black" stroke="black" points="31.0153,-307.273 27.3272,-297.341 24.0165,-307.405 31.0153,-307.273"/>
<text text-anchor="middle" x="36.5" y="-329.3" font-family="Times,serif" font-size="14.00">b+</text>
</g>
<!-- 12 -->
<g id="node10" class="node"><title>12</title>
<ellipse fill="none" stroke="black" cx="86" cy="-192" rx="27" ry="18"/>
<text text-anchor="middle" x="86" y="-188.3" font-family="Times,serif" font-size="14.00">12</text>
</g>
<!-- 10&#45;&gt;12 -->
<g id="edge9" class="edge"><title>10&#45;&gt;12</title>
<path fill="none" stroke="black" d="M37.8215,-262.41C46.5822,-249.788 59.0765,-231.788 69.146,-217.281"/>
<polygon fill="black" stroke="black" points="72.2203,-218.99 75.0473,-208.779 66.4699,-214.999 72.2203,-218.99"/>
<text text-anchor="middle" x="65.5" y="-231.8" font-family="Times,serif" font-size="14.00">a&#45;</text>
</g>
<!-- 13 -->
<g id="node11" class="node"><title>13</title>
<ellipse fill="none" stroke="black" cx="86" cy="-105" rx="27" ry="18"/>
<text text-anchor="middle" x="86" y="-101.3" font-family="Times,serif" font-size="14.00">13</text>
</g>
<!-- 12&#45;&gt;13 -->
<g id="edge10" class="edge"><title>12&#45;&gt;13</title>
<path fill="none" stroke="black" d="M86,-173.799C86,-162.163 86,-146.548 86,-133.237"/>
<polygon fill="black" stroke="black" points="89.5001,-133.175 86,-123.175 82.5001,-133.175 89.5001,-133.175"/>
<text text-anchor="middle" x="92" y="-144.8" font-family="Times,serif" font-size="14.00">x&#45;</text>
</g>
<!-- 14 -->
<g id="node12" class="node"><title>14</title>
<ellipse fill="none" stroke="black" cx="120" cy="-18" rx="27" ry="18"/>
<text text-anchor="middle" x="120" y="-14.3" font-family="Times,serif" font-size="14.00">14</text>
</g>
<!-- 13&#45;&gt;14 -->
<g id="edge11" class="edge"><title>13&#45;&gt;14</title>
<path fill="none" stroke="black" d="M92.7173,-87.2067C97.5449,-75.1377 104.145,-58.6384 109.644,-44.8906"/>
<polygon fill="black" stroke="black" points="112.948,-46.0538 113.412,-35.4692 106.449,-43.454 112.948,-46.0538"/>
<text text-anchor="middle" x="111" y="-57.8" font-family="Times,serif" font-size="14.00">b&#45;</text>
</g>
<!-- 14&#45;&gt;1 -->
<g id="edge12" class="edge"><title>14&#45;&gt;1</title>
<path fill="none" stroke="black" d="M126.645,-35.6341C132.797,-52.5561 141,-79.679 141,-104 141,-931 141,-931 141,-931 141,-953.745 128.589,-976.583 117.103,-992.851"/>
<polygon fill="black" stroke="black" points="114.072,-991.061 110.901,-1001.17 119.684,-995.244 114.072,-991.061"/>
<text text-anchor="middle" x="148.5" y="-513.8" font-family="Times,serif" font-size="14.00">a+</text>
</g>
<!-- 4&#45;&gt;5 -->
<g id="edge14" class="edge"><title>4&#45;&gt;5</title>
<path fill="none" stroke="black" d="M91.972,-858.239C86.6881,-843.776 78.6732,-822.376 71,-804 65.064,-789.784 57.9657,-774.128 52.0602,-761.424"/>
<polygon fill="black" stroke="black" points="55.2257,-759.931 47.8157,-752.359 48.8861,-762.899 55.2257,-759.931"/>
<text text-anchor="middle" x="92.5" y="-818.3" font-family="Times,serif" font-size="14.00">d+</text>
</g>
<!-- 11&#45;&gt;12 -->
<g id="edge16" class="edge"><title>11&#45;&gt;12</title>
<path fill="none" stroke="black" d="M88.6321,-314.956C88.1238,-291.404 87.2008,-248.639 86.5941,-220.526"/>
<polygon fill="black" stroke="black" points="90.0859,-220.106 86.3709,-210.184 83.0876,-220.257 90.0859,-220.106"/>
<text text-anchor="middle" x="94" y="-275.3" font-family="Times,serif" font-size="14.00">d&#45;</text>
</g>
</g>
</svg>
