<?xml version="1.0" encoding="UTF-8" standalone="no"?>
<!DOCTYPE svg PUBLIC "-//W3C//DTD SVG 1.1//EN"
 "http://www.w3.org/Graphics/SVG/1.1/DTD/svg11.dtd">
<!-- Generated by graphviz version 2.38.0 (20140413.2041)
 -->
<!-- Title: %3 Pages: 1 -->
<svg width="329pt" height="479pt"
 viewBox="0.00 0.00 329.00 479.00" xmlns="http://www.w3.org/2000/svg" xmlns:xlink="http://www.w3.org/1999/xlink">
<g id="graph0" class="graph" transform="scale(1 1) rotate(0) translate(4 475)">
<title>%3</title>
<polygon fill="white" stroke="none" points="-4,4 -4,-475 325,-475 325,4 -4,4"/>
<!-- p1 -->
<g id="node1" class="node"><title>p1</title>
<ellipse fill="none" stroke="black" cx="290" cy="-453" rx="27" ry="18"/>
<text text-anchor="middle" x="290" y="-449.3" font-family="Times,serif" font-size="14.00">p1</text>
</g>
<!-- p2 -->
<g id="node2" class="node"><title>p2</title>
<ellipse fill="none" stroke="black" cx="161" cy="-366" rx="27" ry="18"/>
<text text-anchor="middle" x="161" y="-362.3" font-family="Times,serif" font-size="14.00">p2</text>
</g>
<!-- p1&#45;&gt;p2 -->
<g id="edge1" class="edge"><title>p1&#45;&gt;p2</title>
<path fill="none" stroke="black" d="M271.517,-439.822C249.677,-425.43 213.148,-401.361 188.106,-384.86"/>
<polygon fill="black" stroke="black" points="189.724,-381.735 179.448,-379.156 185.873,-387.581 189.724,-381.735"/>
<text text-anchor="middle" x="247" y="-405.8" font-family="Times,serif" font-size="14.00">req+</text>
</g>
<!-- p3 -->
<g id="node3" class="node"><title>p3</title>
<ellipse fill="none" stroke="black" cx="129" cy="-279" rx="27" ry="18"/>
<text text-anchor="middle" x="129" y="-275.3" font-family="Times,serif" font-size="14.00">p3</text>
</g>
<!-- p2&#45;&gt;p3 -->
<g id="edge2" class="edge"><title>p2&#45;&gt;p3</title>
<path fill="none" stroke="black" d="M154.678,-348.207C150.164,-336.216 144.003,-319.851 138.847,-306.157"/>
<polygon fill="black" stroke="black" points="142.108,-304.884 135.309,-296.758 135.557,-307.35 142.108,-304.884"/>
<text text-anchor="middle" x="174.5" y="-318.8" font-family="Times,serif" font-size="14.00">sendline+</text>
</g>
<!-- p4 -->
<g id="node4" class="node"><title>p4</title>
<ellipse fill="none" stroke="black" cx="27" cy="-192" rx="27" ry="18"/>
<text text-anchor="middle" x="27" y="-188.3" font-family="Times,serif" font-size="14.00">p4</text>
</g>
<!-- p3&#45;&gt;p4 -->
<g id="edge3" class="edge"><title>p3&#45;&gt;p4</title>
<path fill="none" stroke="black" d="M101.931,-277.731C76.1574,-275.852 38.6192,-268.534 20,-243 15.0068,-236.152 14.7838,-227.345 16.44,-219.035"/>
<polygon fill="black" stroke="black" points="19.8367,-219.886 19.198,-209.31 13.1023,-217.976 19.8367,-219.886"/>
<text text-anchor="middle" x="65" y="-231.8" font-family="Times,serif" font-size="14.00">[done&#45;]ackline+</text>
</g>
<!-- p7 -->
<g id="node7" class="node"><title>p7</title>
<ellipse fill="none" stroke="black" cx="191" cy="-192" rx="27" ry="18"/>
<text text-anchor="middle" x="191" y="-188.3" font-family="Times,serif" font-size="14.00">p7</text>
</g>
<!-- p3&#45;&gt;p7 -->
<g id="edge7" class="edge"><title>p3&#45;&gt;p7</title>
<path fill="none" stroke="black" d="M140.372,-262.41C149.723,-249.589 163.123,-231.219 173.788,-216.597"/>
<polygon fill="black" stroke="black" points="176.635,-218.633 179.7,-208.491 170.98,-214.508 176.635,-218.633"/>
<text text-anchor="middle" x="210.5" y="-231.8" font-family="Times,serif" font-size="14.00">[done+]ackline+</text>
</g>
<!-- p5 -->
<g id="node5" class="node"><title>p5</title>
<ellipse fill="none" stroke="black" cx="48" cy="-105" rx="27" ry="18"/>
<text text-anchor="middle" x="48" y="-101.3" font-family="Times,serif" font-size="14.00">p5</text>
</g>
<!-- p4&#45;&gt;p5 -->
<g id="edge4" class="edge"><title>p4&#45;&gt;p5</title>
<path fill="none" stroke="black" d="M31.1489,-174.207C34.0636,-162.409 38.0242,-146.378 41.3734,-132.822"/>
<polygon fill="black" stroke="black" points="44.7871,-133.597 43.7878,-123.049 37.9914,-131.918 44.7871,-133.597"/>
<text text-anchor="middle" x="65" y="-144.8" font-family="Times,serif" font-size="14.00">sendline&#45;</text>
</g>
<!-- p6 -->
<g id="node6" class="node"><title>p6</title>
<ellipse fill="none" stroke="black" cx="91" cy="-18" rx="27" ry="18"/>
<text text-anchor="middle" x="91" y="-14.3" font-family="Times,serif" font-size="14.00">p6</text>
</g>
<!-- p5&#45;&gt;p6 -->
<g id="edge5" class="edge"><title>p5&#45;&gt;p6</title>
<path fill="none" stroke="black" d="M51.9333,-86.7471C54.5778,-76.8295 58.5778,-64.3295 64,-54 66.1446,-49.9145 68.7712,-45.8174 71.535,-41.9396"/>
<polygon fill="black" stroke="black" points="74.392,-43.9649 77.6709,-33.8902 68.825,-39.7212 74.392,-43.9649"/>
<text text-anchor="middle" x="87" y="-57.8" font-family="Times,serif" font-size="14.00">ackline&#45;</text>
</g>
<!-- p6&#45;&gt;p3 -->
<g id="edge6" class="edge"><title>p6&#45;&gt;p3</title>
<path fill="none" stroke="black" d="M101.358,-34.7721C104.683,-40.5872 108.016,-47.3766 110,-54 130.549,-122.616 131.4,-207.973 130.235,-250.804"/>
<polygon fill="black" stroke="black" points="126.731,-250.872 129.896,-260.983 133.727,-251.105 126.731,-250.872"/>
<text text-anchor="middle" x="155.5" y="-144.8" font-family="Times,serif" font-size="14.00">sendline+</text>
</g>
<!-- p8 -->
<g id="node8" class="node"><title>p8</title>
<ellipse fill="none" stroke="black" cx="207" cy="-105" rx="27" ry="18"/>
<text text-anchor="middle" x="207" y="-101.3" font-family="Times,serif" font-size="14.00">p8</text>
</g>
<!-- p7&#45;&gt;p8 -->
<g id="edge8" class="edge"><title>p7&#45;&gt;p8</title>
<path fill="none" stroke="black" d="M194.238,-173.799C196.443,-162.086 199.406,-146.342 201.922,-132.974"/>
<polygon fill="black" stroke="black" points="205.411,-133.36 203.822,-122.885 198.532,-132.065 205.411,-133.36"/>
<text text-anchor="middle" x="239.5" y="-144.8" font-family="Times,serif" font-size="14.00">sendline&#45;ack+</text>
</g>
<!-- p9 -->
<g id="node9" class="node"><title>p9</title>
<ellipse fill="none" stroke="black" cx="253" cy="-18" rx="27" ry="18"/>
<text text-anchor="middle" x="253" y="-14.3" font-family="Times,serif" font-size="14.00">p9</text>
</g>
<!-- p8&#45;&gt;p9 -->
<g id="edge9" class="edge"><title>p8&#45;&gt;p9</title>
<path fill="none" stroke="black" d="M206.526,-86.8955C206.923,-76.7945 208.645,-64.058 214,-54 217.143,-48.0977 221.695,-42.6995 226.59,-38.0025"/>
<polygon fill="black" stroke="black" points="229.143,-40.421 234.408,-31.2269 224.559,-35.131 229.143,-40.421"/>
<text text-anchor="middle" x="248" y="-57.8" font-family="Times,serif" font-size="14.00">req&#45;ackline&#45;</text>
</g>
<!-- p9&#45;&gt;p1 -->
<g id="edge10" class="edge"><title>p9&#45;&gt;p1</title>
<path fill="none" stroke="black" d="M267.204,-33.3354C272.48,-39.3159 278.119,-46.5901 282,-54 292.707,-74.4428 296,-80.9231 296,-104 296,-367 296,-367 296,-367 296,-386.295 294.443,-407.993 292.915,-424.637"/>
<polygon fill="black" stroke="black" points="289.414,-424.477 291.931,-434.769 296.381,-425.154 289.414,-424.477"/>
<text text-anchor="middle" x="308.5" y="-231.8" font-family="Times,serif" font-size="14.00">ack&#45;</text>
</g>
</g>
</svg>
