<?xml version="1.0" encoding="UTF-8" standalone="no"?>
<!DOCTYPE svg PUBLIC "-//W3C//DTD SVG 1.1//EN"
 "http://www.w3.org/Graphics/SVG/1.1/DTD/svg11.dtd">
<!-- Generated by graphviz version 2.38.0 (20140413.2041)
 -->
<!-- Title: %3 Pages: 1 -->
<svg width="254pt" height="626pt"
 viewBox="0.00 0.00 254.00 626.00" xmlns="http://www.w3.org/2000/svg" xmlns:xlink="http://www.w3.org/1999/xlink">
<g id="graph0" class="graph" transform="scale(1 1) rotate(0) translate(4 622)">
<title>%3</title>
<polygon fill="white" stroke="none" points="-4,4 -4,-622 250,-622 250,4 -4,4"/>
<!-- p1 -->
<g id="node1" class="node"><title>p1</title>
<ellipse fill="none" stroke="black" cx="200" cy="-600" rx="18" ry="18"/>
<text text-anchor="middle" x="200" y="-596.3" font-family="Times,serif" font-size="14.00">p1</text>
</g>
<!-- transition1 -->
<g id="node3" class="node"><title>transition1</title>
<polygon fill="none" stroke="black" points="195,-546 159,-546 159,-545 195,-545 195,-546"/>
<text text-anchor="middle" x="146" y="-549.8" font-family="Times,serif" font-size="14.00">req+</text>
</g>
<!-- p1&#45;&gt;transition1 -->
<g id="edge1" class="edge"><title>p1&#45;&gt;transition1</title>
<path fill="none" stroke="black" d="M193.099,-583.098C188.279,-571.992 182.169,-557.912 179.044,-550.71"/>
<polygon fill="none" stroke="black" points="180.623,-549.952 177.027,-546.062 177.412,-551.346 180.623,-549.952"/>
</g>
<!-- p2 -->
<g id="node2" class="node"><title>p2</title>
<ellipse fill="none" stroke="black" cx="177" cy="-491" rx="18" ry="18"/>
<text text-anchor="middle" x="177" y="-487.3" font-family="Times,serif" font-size="14.00">p2</text>
</g>
<!-- transition2 -->
<g id="node5" class="node"><title>transition2</title>
<polygon fill="none" stroke="black" points="189,-437 153,-437 153,-436 189,-436 189,-437"/>
<text text-anchor="middle" x="125.5" y="-440.8" font-family="Times,serif" font-size="14.00">sendline+</text>
</g>
<!-- p2&#45;&gt;transition2 -->
<g id="edge3" class="edge"><title>p2&#45;&gt;transition2</title>
<path fill="none" stroke="black" d="M175.069,-472.939C173.874,-462.385 172.419,-449.534 171.613,-442.412"/>
<polygon fill="none" stroke="black" points="173.308,-441.831 171.007,-437.059 169.83,-442.224 173.308,-441.831"/>
</g>
<!-- transition1&#45;&gt;p2 -->
<g id="edge2" class="edge"><title>transition1&#45;&gt;p2</title>
<path fill="none" stroke="black" d="M177,-544.848C177,-543.368 177,-531.319 177,-519.1"/>
<polygon fill="black" stroke="black" points="180.5,-519.025 177,-509.025 173.5,-519.025 180.5,-519.025"/>
</g>
<!-- p3 -->
<g id="node4" class="node"><title>p3</title>
<ellipse fill="none" stroke="black" cx="160" cy="-382" rx="18" ry="18"/>
<text text-anchor="middle" x="160" y="-378.3" font-family="Times,serif" font-size="14.00">p3</text>
</g>
<!-- transition3 -->
<g id="node7" class="node"><title>transition3</title>
<polygon fill="none" stroke="black" points="126,-328 90,-328 90,-327 126,-327 126,-328"/>
<text text-anchor="middle" x="45" y="-331.8" font-family="Times,serif" font-size="14.00">[done&#45;]ackline+</text>
</g>
<!-- p3&#45;&gt;transition3 -->
<g id="edge5" class="edge"><title>p3&#45;&gt;transition3</title>
<path fill="none" stroke="black" d="M147.677,-368.44C136.039,-356.578 119.29,-339.507 111.833,-331.906"/>
<polygon fill="none" stroke="black" points="112.821,-330.415 108.07,-328.072 110.323,-332.866 112.821,-330.415"/>
</g>
<!-- transition7 -->
<g id="node14" class="node"><title>transition7</title>
<polygon fill="none" stroke="black" points="218,-328 182,-328 182,-327 218,-327 218,-328"/>
<text text-anchor="middle" x="135.5" y="-315.8" font-family="Times,serif" font-size="14.00">[done+]ackline+</text>
</g>
<!-- p3&#45;&gt;transition7 -->
<g id="edge13" class="edge"><title>p3&#45;&gt;transition7</title>
<path fill="none" stroke="black" d="M170.51,-367.075C179.3,-355.428 191.274,-339.562 196.873,-332.143"/>
<polygon fill="none" stroke="black" points="198.334,-333.113 199.949,-328.068 195.54,-331.004 198.334,-333.113"/>
</g>
<!-- transition2&#45;&gt;p3 -->
<g id="edge4" class="edge"><title>transition2&#45;&gt;p3</title>
<path fill="none" stroke="black" d="M170.968,-435.848C170.659,-434.359 168.128,-422.164 165.576,-409.865"/>
<polygon fill="black" stroke="black" points="168.934,-408.822 163.475,-399.742 162.08,-410.245 168.934,-408.822"/>
</g>
<!-- p4 -->
<g id="node6" class="node"><title>p4</title>
<ellipse fill="none" stroke="black" cx="108" cy="-273" rx="18" ry="18"/>
<text text-anchor="middle" x="108" y="-269.3" font-family="Times,serif" font-size="14.00">p4</text>
</g>
<!-- transition4 -->
<g id="node9" class="node"><title>transition4</title>
<polygon fill="none" stroke="black" points="126,-219 90,-219 90,-218 126,-218 126,-219"/>
<text text-anchor="middle" x="64" y="-222.8" font-family="Times,serif" font-size="14.00">sendline&#45;</text>
</g>
<!-- p4&#45;&gt;transition4 -->
<g id="edge7" class="edge"><title>p4&#45;&gt;transition4</title>
<path fill="none" stroke="black" d="M108,-254.939C108,-244.385 108,-231.534 108,-224.412"/>
<polygon fill="none" stroke="black" points="109.75,-224.059 108,-219.059 106.25,-224.059 109.75,-224.059"/>
</g>
<!-- transition3&#45;&gt;p4 -->
<g id="edge6" class="edge"><title>transition3&#45;&gt;p4</title>
<path fill="none" stroke="black" d="M108,-326.848C108,-325.368 108,-313.319 108,-301.1"/>
<polygon fill="black" stroke="black" points="111.5,-301.025 108,-291.025 104.5,-301.025 111.5,-301.025"/>
</g>
<!-- p5 -->
<g id="node8" class="node"><title>p5</title>
<ellipse fill="none" stroke="black" cx="108" cy="-164" rx="18" ry="18"/>
<text text-anchor="middle" x="108" y="-160.3" font-family="Times,serif" font-size="14.00">p5</text>
</g>
<!-- transition5 -->
<g id="node11" class="node"><title>transition5</title>
<polygon fill="none" stroke="black" points="126,-110 90,-110 90,-109 126,-109 126,-110"/>
<text text-anchor="middle" x="67" y="-113.8" font-family="Times,serif" font-size="14.00">ackline&#45;</text>
</g>
<!-- p5&#45;&gt;transition5 -->
<g id="edge9" class="edge"><title>p5&#45;&gt;transition5</title>
<path fill="none" stroke="black" d="M108,-145.939C108,-135.385 108,-122.534 108,-115.412"/>
<polygon fill="none" stroke="black" points="109.75,-115.059 108,-110.059 106.25,-115.059 109.75,-115.059"/>
</g>
<!-- transition4&#45;&gt;p5 -->
<g id="edge8" class="edge"><title>transition4&#45;&gt;p5</title>
<path fill="none" stroke="black" d="M108,-217.848C108,-216.368 108,-204.319 108,-192.1"/>
<polygon fill="black" stroke="black" points="111.5,-192.025 108,-182.025 104.5,-192.025 111.5,-192.025"/>
</g>
<!-- p6 -->
<g id="node10" class="node"><title>p6</title>
<ellipse fill="none" stroke="black" cx="108" cy="-55" rx="18" ry="18"/>
<text text-anchor="middle" x="108" y="-51.3" font-family="Times,serif" font-size="14.00">p6</text>
</g>
<!-- transition6 -->
<g id="node12" class="node"><title>transition6</title>
<polygon fill="none" stroke="black" points="158,-1 122,-1 122,-0 158,-0 158,-1"/>
<text text-anchor="middle" x="94.5" y="-4.8" font-family="Times,serif" font-size="14.00">sendline+</text>
</g>
<!-- p6&#45;&gt;transition6 -->
<g id="edge11" class="edge"><title>p6&#45;&gt;transition6</title>
<path fill="none" stroke="black" d="M116.914,-39.2365C123.793,-27.8424 132.863,-12.8206 137.309,-5.45742"/>
<polygon fill="none" stroke="black" points="138.874,-6.25005 139.961,-1.06518 135.878,-4.44098 138.874,-6.25005"/>
</g>
<!-- transition5&#45;&gt;p6 -->
<g id="edge10" class="edge"><title>transition5&#45;&gt;p6</title>
<path fill="none" stroke="black" d="M108,-108.848C108,-107.368 108,-95.3194 108,-83.1004"/>
<polygon fill="black" stroke="black" points="111.5,-83.0247 108,-73.0247 104.5,-83.0248 111.5,-83.0247"/>
</g>
<!-- transition6&#45;&gt;p3 -->
<g id="edge12" class="edge"><title>transition6&#45;&gt;p3</title>
<path fill="none" stroke="black" d="M140.01,-1.04338C140.434,-2.85972 154,-61.3547 154,-109 154,-274 154,-274 154,-274 154,-301.217 155.959,-332.268 157.638,-353.883"/>
<polygon fill="black" stroke="black" points="154.159,-354.282 158.455,-363.967 161.136,-353.717 154.159,-354.282"/>
</g>
<!-- p7 -->
<g id="node13" class="node"><title>p7</title>
<ellipse fill="none" stroke="black" cx="200" cy="-273" rx="18" ry="18"/>
<text text-anchor="middle" x="200" y="-269.3" font-family="Times,serif" font-size="14.00">p7</text>
</g>
<!-- transition8 -->
<g id="node16" class="node"><title>transition8</title>
<polygon fill="none" stroke="black" points="218,-219 182,-219 182,-218 218,-218 218,-219"/>
<text text-anchor="middle" x="142.5" y="-222.8" font-family="Times,serif" font-size="14.00">sendline&#45;ack+</text>
</g>
<!-- p7&#45;&gt;transition8 -->
<g id="edge15" class="edge"><title>p7&#45;&gt;transition8</title>
<path fill="none" stroke="black" d="M200,-254.939C200,-244.385 200,-231.534 200,-224.412"/>
<polygon fill="none" stroke="black" points="201.75,-224.059 200,-219.059 198.25,-224.059 201.75,-224.059"/>
</g>
<!-- transition7&#45;&gt;p7 -->
<g id="edge14" class="edge"><title>transition7&#45;&gt;p7</title>
<path fill="none" stroke="black" d="M200,-326.848C200,-325.368 200,-313.319 200,-301.1"/>
<polygon fill="black" stroke="black" points="203.5,-301.025 200,-291.025 196.5,-301.025 203.5,-301.025"/>
</g>
<!-- p8 -->
<g id="node15" class="node"><title>p8</title>
<ellipse fill="none" stroke="black" cx="200" cy="-164" rx="18" ry="18"/>
<text text-anchor="middle" x="200" y="-160.3" font-family="Times,serif" font-size="14.00">p8</text>
</g>
<!-- transition9 -->
<g id="node18" class="node"><title>transition9</title>
<polygon fill="none" stroke="black" points="218,-110 182,-110 182,-109 218,-109 218,-110"/>
<text text-anchor="middle" x="148" y="-113.8" font-family="Times,serif" font-size="14.00">req&#45;ackline&#45;</text>
</g>
<!-- p8&#45;&gt;transition9 -->
<g id="edge17" class="edge"><title>p8&#45;&gt;transition9</title>
<path fill="none" stroke="black" d="M200,-145.939C200,-135.385 200,-122.534 200,-115.412"/>
<polygon fill="none" stroke="black" points="201.75,-115.059 200,-110.059 198.25,-115.059 201.75,-115.059"/>
</g>
<!-- transition8&#45;&gt;p8 -->
<g id="edge16" class="edge"><title>transition8&#45;&gt;p8</title>
<path fill="none" stroke="black" d="M200,-217.848C200,-216.368 200,-204.319 200,-192.1"/>
<polygon fill="black" stroke="black" points="203.5,-192.025 200,-182.025 196.5,-192.025 203.5,-192.025"/>
</g>
<!-- p9 -->
<g id="node17" class="node"><title>p9</title>
<ellipse fill="none" stroke="black" cx="200" cy="-55" rx="18" ry="18"/>
<text text-anchor="middle" x="200" y="-51.3" font-family="Times,serif" font-size="14.00">p9</text>
</g>
<!-- transition10 -->
<g id="node19" class="node"><title>transition10</title>
<polygon fill="none" stroke="black" points="231,-1 195,-1 195,-0 231,-0 231,-1"/>
<text text-anchor="middle" x="182.5" y="-4.8" font-family="Times,serif" font-size="14.00">ack&#45;</text>
</g>
<!-- p9&#45;&gt;transition10 -->
<g id="edge19" class="edge"><title>p9&#45;&gt;transition10</title>
<path fill="none" stroke="black" d="M204.113,-37.2305C206.765,-26.4189 210.033,-13.0981 211.773,-6.00401"/>
<polygon fill="none" stroke="black" points="213.494,-6.33283 212.985,-1.05986 210.095,-5.49901 213.494,-6.33283"/>
</g>
<!-- transition9&#45;&gt;p9 -->
<g id="edge18" class="edge"><title>transition9&#45;&gt;p9</title>
<path fill="none" stroke="black" d="M200,-108.848C200,-107.368 200,-95.3194 200,-83.1004"/>
<polygon fill="black" stroke="black" points="203.5,-83.0247 200,-73.0247 196.5,-83.0248 203.5,-83.0247"/>
</g>
<!-- transition10&#45;&gt;p1 -->
<g id="edge20" class="edge"><title>transition10&#45;&gt;p1</title>
<path fill="none" stroke="black" d="M213.095,-1.16737C215.03,-4.60564 246,-60.3777 246,-109 246,-492 246,-492 246,-492 246,-523.176 229.314,-555.612 216.041,-576.481"/>
<polygon fill="black" stroke="black" points="213.04,-574.674 210.438,-584.945 218.877,-578.539 213.04,-574.674"/>
</g>
</g>
</svg>
