<?xml version="1.0" encoding="UTF-8" standalone="no"?>
<!DOCTYPE svg PUBLIC "-//W3C//DTD SVG 1.1//EN"
 "http://www.w3.org/Graphics/SVG/1.1/DTD/svg11.dtd">
<!-- Generated by graphviz version 2.38.0 (20140413.2041)
 -->
<!-- Title: %3 Pages: 1 -->
<svg width="695pt" height="1349pt"
 viewBox="0.00 0.00 694.52 1349.00" xmlns="http://www.w3.org/2000/svg" xmlns:xlink="http://www.w3.org/1999/xlink">
<g id="graph0" class="graph" transform="scale(1 1) rotate(0) translate(4 1345)">
<title>%3</title>
<polygon fill="white" stroke="none" points="-4,4 -4,-1345 690.522,-1345 690.522,4 -4,4"/>
<!-- p1 -->
<g id="node1" class="node"><title>p1</title>
<ellipse fill="none" stroke="black" cx="577.522" cy="-1323" rx="27" ry="18"/>
<text text-anchor="middle" x="577.522" y="-1319.3" font-family="Times,serif" font-size="14.00">p1</text>
</g>
<!-- p2 -->
<g id="node2" class="node"><title>p2</title>
<ellipse fill="none" stroke="black" cx="529.522" cy="-1236" rx="27" ry="18"/>
<text text-anchor="middle" x="529.522" y="-1232.3" font-family="Times,serif" font-size="14.00">p2</text>
</g>
<!-- p1&#45;&gt;p2 -->
<g id="edge1" class="edge"><title>p1&#45;&gt;p2</title>
<path fill="none" stroke="black" d="M556.063,-1311.76C546.431,-1305.94 536.016,-1297.67 530.522,-1287 526.97,-1280.1 525.777,-1271.92 525.728,-1264.2"/>
<polygon fill="black" stroke="black" points="529.228,-1264.29 526.256,-1254.12 522.237,-1263.92 529.228,-1264.29"/>
<text text-anchor="middle" x="571.522" y="-1275.8" font-family="Times,serif" font-size="14.00">startdmasend+</text>
</g>
<!-- p3 -->
<g id="node3" class="node"><title>p3</title>
<ellipse fill="none" stroke="black" cx="528.522" cy="-1149" rx="27" ry="18"/>
<text text-anchor="middle" x="528.522" y="-1145.3" font-family="Times,serif" font-size="14.00">p3</text>
</g>
<!-- p2&#45;&gt;p3 -->
<g id="edge2" class="edge"><title>p2&#45;&gt;p3</title>
<path fill="none" stroke="black" d="M529.319,-1217.8C529.182,-1206.16 528.999,-1190.55 528.842,-1177.24"/>
<polygon fill="black" stroke="black" points="532.341,-1177.13 528.724,-1167.18 525.342,-1177.22 532.341,-1177.13"/>
<text text-anchor="middle" x="557.022" y="-1188.8" font-family="Times,serif" font-size="14.00">endmaint&#45;</text>
</g>
<!-- p4 -->
<g id="node4" class="node"><title>p4</title>
<ellipse fill="none" stroke="black" cx="524.522" cy="-1062" rx="27" ry="18"/>
<text text-anchor="middle" x="524.522" y="-1058.3" font-family="Times,serif" font-size="14.00">p4</text>
</g>
<!-- p3&#45;&gt;p4 -->
<g id="edge3" class="edge"><title>p3&#45;&gt;p4</title>
<path fill="none" stroke="black" d="M527.712,-1130.8C527.165,-1119.16 526.43,-1103.55 525.803,-1090.24"/>
<polygon fill="black" stroke="black" points="529.296,-1090 525.33,-1080.18 522.304,-1090.33 529.296,-1090"/>
<text text-anchor="middle" x="566.022" y="-1101.8" font-family="Times,serif" font-size="14.00">startdmasend&#45;</text>
</g>
<!-- p5 -->
<g id="node5" class="node"><title>p5</title>
<ellipse fill="none" stroke="black" cx="507.522" cy="-975" rx="27" ry="18"/>
<text text-anchor="middle" x="507.522" y="-971.3" font-family="Times,serif" font-size="14.00">p5</text>
</g>
<!-- p4&#45;&gt;p5 -->
<g id="edge4" class="edge"><title>p4&#45;&gt;p5</title>
<path fill="none" stroke="black" d="M521.081,-1043.8C518.739,-1032.09 515.59,-1016.34 512.917,-1002.97"/>
<polygon fill="black" stroke="black" points="516.292,-1002 510.899,-992.885 509.428,-1003.38 516.292,-1002"/>
<text text-anchor="middle" x="533.022" y="-1014.8" font-family="Times,serif" font-size="14.00">dreq+</text>
</g>
<!-- p6 -->
<g id="node6" class="node"><title>p6</title>
<ellipse fill="none" stroke="black" cx="438.522" cy="-888" rx="27" ry="18"/>
<text text-anchor="middle" x="438.522" y="-884.3" font-family="Times,serif" font-size="14.00">p6</text>
</g>
<!-- p5&#45;&gt;p6 -->
<g id="edge5" class="edge"><title>p5&#45;&gt;p6</title>
<path fill="none" stroke="black" d="M495.186,-958.804C484.589,-945.75 469.154,-926.735 457.068,-911.847"/>
<polygon fill="black" stroke="black" points="459.771,-909.623 450.751,-904.065 454.336,-914.035 459.771,-909.623"/>
<text text-anchor="middle" x="494.022" y="-927.8" font-family="Times,serif" font-size="14.00">dack+</text>
</g>
<!-- p7 -->
<g id="node7" class="node"><title>p7</title>
<ellipse fill="none" stroke="black" cx="345.522" cy="-801" rx="27" ry="18"/>
<text text-anchor="middle" x="345.522" y="-797.3" font-family="Times,serif" font-size="14.00">p7</text>
</g>
<!-- p6&#45;&gt;p7 -->
<g id="edge6" class="edge"><title>p6&#45;&gt;p7</title>
<path fill="none" stroke="black" d="M423.165,-872.964C408.356,-859.43 385.75,-838.768 368.742,-823.223"/>
<polygon fill="black" stroke="black" points="370.644,-820.22 360.902,-816.057 365.922,-825.387 370.644,-820.22"/>
<text text-anchor="middle" x="417.022" y="-840.8" font-family="Times,serif" font-size="14.00">ready+</text>
</g>
<!-- p8 -->
<g id="node8" class="node"><title>p8</title>
<ellipse fill="none" stroke="black" cx="401.522" cy="-714" rx="27" ry="18"/>
<text text-anchor="middle" x="401.522" y="-710.3" font-family="Times,serif" font-size="14.00">p8</text>
</g>
<!-- p7&#45;&gt;p8 -->
<g id="edge7" class="edge"><title>p7&#45;&gt;p8</title>
<path fill="none" stroke="black" d="M356.055,-784.012C364.346,-771.427 376.039,-753.679 385.491,-739.333"/>
<polygon fill="black" stroke="black" points="388.457,-741.192 391.036,-730.916 382.611,-737.341 388.457,-741.192"/>
<text text-anchor="middle" x="411.522" y="-753.8" font-family="Times,serif" font-size="14.00">[done+]dtc+</text>
</g>
<!-- p25 -->
<g id="node16" class="node"><title>p25</title>
<ellipse fill="none" stroke="black" cx="116.522" cy="-714" rx="27" ry="18"/>
<text text-anchor="middle" x="116.522" y="-710.3" font-family="Times,serif" font-size="14.00">p25</text>
</g>
<!-- p7&#45;&gt;p25 -->
<g id="edge17" class="edge"><title>p7&#45;&gt;p25</title>
<path fill="none" stroke="black" d="M322.304,-791.382C281.307,-776.165 196.005,-744.503 149.127,-727.102"/>
<polygon fill="black" stroke="black" points="150.054,-723.713 139.461,-723.514 147.618,-730.276 150.054,-723.713"/>
<text text-anchor="middle" x="279.022" y="-753.8" font-family="Times,serif" font-size="14.00">[done&#45;]dtc+</text>
</g>
<!-- p9 -->
<g id="node9" class="node"><title>p9</title>
<ellipse fill="none" stroke="black" cx="405.522" cy="-627" rx="27" ry="18"/>
<text text-anchor="middle" x="405.522" y="-623.3" font-family="Times,serif" font-size="14.00">p9</text>
</g>
<!-- p8&#45;&gt;p9 -->
<g id="edge8" class="edge"><title>p8&#45;&gt;p9</title>
<path fill="none" stroke="black" d="M402.331,-695.799C402.879,-684.163 403.614,-668.548 404.24,-655.237"/>
<polygon fill="black" stroke="black" points="407.739,-655.329 404.713,-645.175 400.747,-655 407.739,-655.329"/>
<text text-anchor="middle" x="436.522" y="-666.8" font-family="Times,serif" font-size="14.00">ready&#45;dreq&#45;</text>
</g>
<!-- p10 -->
<g id="node10" class="node"><title>p10</title>
<ellipse fill="none" stroke="black" cx="405.522" cy="-540" rx="27" ry="18"/>
<text text-anchor="middle" x="405.522" y="-536.3" font-family="Times,serif" font-size="14.00">p10</text>
</g>
<!-- p9&#45;&gt;p10 -->
<g id="edge9" class="edge"><title>p9&#45;&gt;p10</title>
<path fill="none" stroke="black" d="M405.522,-608.799C405.522,-597.163 405.522,-581.548 405.522,-568.237"/>
<polygon fill="black" stroke="black" points="409.022,-568.175 405.522,-558.175 402.022,-568.175 409.022,-568.175"/>
<text text-anchor="middle" x="432.022" y="-579.8" font-family="Times,serif" font-size="14.00">dack&#45;dtc&#45;</text>
</g>
<!-- p11 -->
<g id="node11" class="node"><title>p11</title>
<ellipse fill="none" stroke="black" cx="407.522" cy="-453" rx="27" ry="18"/>
<text text-anchor="middle" x="407.522" y="-449.3" font-family="Times,serif" font-size="14.00">p11</text>
</g>
<!-- p10&#45;&gt;p11 -->
<g id="edge10" class="edge"><title>p10&#45;&gt;p11</title>
<path fill="none" stroke="black" d="M405.926,-521.799C406.2,-510.163 406.568,-494.548 406.881,-481.237"/>
<polygon fill="black" stroke="black" points="410.381,-481.255 407.118,-471.175 403.383,-481.09 410.381,-481.255"/>
<text text-anchor="middle" x="428.522" y="-492.8" font-family="Times,serif" font-size="14.00">regout+</text>
</g>
<!-- p12 -->
<g id="node12" class="node"><title>p12</title>
<ellipse fill="none" stroke="black" cx="444.522" cy="-366" rx="27" ry="18"/>
<text text-anchor="middle" x="444.522" y="-362.3" font-family="Times,serif" font-size="14.00">p12</text>
</g>
<!-- p11&#45;&gt;p12 -->
<g id="edge11" class="edge"><title>p11&#45;&gt;p12</title>
<path fill="none" stroke="black" d="M414.656,-435.611C419.894,-423.577 427.118,-406.983 433.148,-393.128"/>
<polygon fill="black" stroke="black" points="436.501,-394.195 437.283,-383.629 430.083,-391.401 436.501,-394.195"/>
<text text-anchor="middle" x="447.022" y="-405.8" font-family="Times,serif" font-size="14.00">ackin+</text>
</g>
<!-- p13 -->
<g id="node13" class="node"><title>p13</title>
<ellipse fill="none" stroke="black" cx="450.522" cy="-279" rx="27" ry="18"/>
<text text-anchor="middle" x="450.522" y="-275.3" font-family="Times,serif" font-size="14.00">p13</text>
</g>
<!-- p12&#45;&gt;p13 -->
<g id="edge12" class="edge"><title>p12&#45;&gt;p13</title>
<path fill="none" stroke="black" d="M445.736,-347.799C446.557,-336.163 447.659,-320.548 448.599,-307.237"/>
<polygon fill="black" stroke="black" points="452.096,-307.397 449.309,-297.175 445.114,-306.904 452.096,-307.397"/>
<text text-anchor="middle" x="468.022" y="-318.8" font-family="Times,serif" font-size="14.00">regout&#45;</text>
</g>
<!-- p14 -->
<g id="node14" class="node"><title>p14</title>
<ellipse fill="none" stroke="black" cx="574.522" cy="-192" rx="27" ry="18"/>
<text text-anchor="middle" x="574.522" y="-188.3" font-family="Times,serif" font-size="14.00">p14</text>
</g>
<!-- p13&#45;&gt;p14 -->
<g id="edge13" class="edge"><title>p13&#45;&gt;p14</title>
<path fill="none" stroke="black" d="M468.818,-265.458C489.698,-251.145 524.034,-227.609 547.882,-211.261"/>
<polygon fill="black" stroke="black" points="549.881,-214.134 556.15,-205.593 545.923,-208.361 549.881,-214.134"/>
<text text-anchor="middle" x="563.522" y="-231.8" font-family="Times,serif" font-size="14.00">[empty+]ackin&#45;</text>
</g>
<!-- p15 -->
<g id="node15" class="node"><title>p15</title>
<ellipse fill="none" stroke="black" cx="399.522" cy="-192" rx="27" ry="18"/>
<text text-anchor="middle" x="399.522" y="-188.3" font-family="Times,serif" font-size="14.00">p15</text>
</g>
<!-- p13&#45;&gt;p15 -->
<g id="edge15" class="edge"><title>p13&#45;&gt;p15</title>
<path fill="none" stroke="black" d="M434.919,-264.138C428.853,-258.116 422.242,-250.686 417.522,-243 413.108,-235.814 409.552,-227.385 406.803,-219.517"/>
<polygon fill="black" stroke="black" points="410.134,-218.442 403.749,-209.987 403.467,-220.578 410.134,-218.442"/>
<text text-anchor="middle" x="459.522" y="-231.8" font-family="Times,serif" font-size="14.00">[empty&#45;]ackin&#45;</text>
</g>
<!-- p14&#45;&gt;p1 -->
<g id="edge14" class="edge"><title>p14&#45;&gt;p1</title>
<path fill="none" stroke="black" d="M591.919,-206.087C598.87,-212.093 606.419,-219.72 611.522,-228 623.694,-247.751 626.522,-254.799 626.522,-278 626.522,-1237 626.522,-1237 626.522,-1237 626.522,-1260.08 624.172,-1267.08 612.522,-1287 609.593,-1292.01 605.776,-1296.81 601.742,-1301.16"/>
<polygon fill="black" stroke="black" points="599.018,-1298.93 594.392,-1308.46 603.952,-1303.9 599.018,-1298.93"/>
<text text-anchor="middle" x="656.522" y="-753.8" font-family="Times,serif" font-size="14.00">endmaint+</text>
</g>
<!-- p15&#45;&gt;p11 -->
<g id="edge16" class="edge"><title>p15&#45;&gt;p11</title>
<path fill="none" stroke="black" d="M398.906,-210.309C398.093,-236.306 396.937,-286.978 398.522,-330 399.72,-362.539 402.711,-399.86 404.918,-424.565"/>
<polygon fill="black" stroke="black" points="401.443,-425.007 405.837,-434.648 408.414,-424.371 401.443,-425.007"/>
<text text-anchor="middle" x="420.522" y="-318.8" font-family="Times,serif" font-size="14.00">regout+</text>
</g>
<!-- p16 -->
<g id="node17" class="node"><title>p16</title>
<ellipse fill="none" stroke="black" cx="91.5217" cy="-627" rx="27" ry="18"/>
<text text-anchor="middle" x="91.5217" y="-623.3" font-family="Times,serif" font-size="14.00">p16</text>
</g>
<!-- p25&#45;&gt;p16 -->
<g id="edge18" class="edge"><title>p25&#45;&gt;p16</title>
<path fill="none" stroke="black" d="M111.583,-696.207C108.09,-684.332 103.336,-668.168 99.3325,-654.557"/>
<polygon fill="black" stroke="black" points="102.63,-653.364 96.4506,-644.758 95.9146,-655.34 102.63,-653.364"/>
<text text-anchor="middle" x="123.522" y="-666.8" font-family="Times,serif" font-size="14.00">ready&#45;</text>
</g>
<!-- p17 -->
<g id="node18" class="node"><title>p17</title>
<ellipse fill="none" stroke="black" cx="73.5217" cy="-540" rx="27" ry="18"/>
<text text-anchor="middle" x="73.5217" y="-536.3" font-family="Times,serif" font-size="14.00">p17</text>
</g>
<!-- p16&#45;&gt;p17 -->
<g id="edge19" class="edge"><title>p16&#45;&gt;p17</title>
<path fill="none" stroke="black" d="M87.8791,-608.799C85.3987,-597.086 82.0648,-581.342 79.2339,-567.974"/>
<polygon fill="black" stroke="black" points="82.5933,-566.943 77.0974,-557.885 75.7451,-568.394 82.5933,-566.943"/>
<text text-anchor="middle" x="111.022" y="-579.8" font-family="Times,serif" font-size="14.00">dack&#45;dtc&#45;</text>
</g>
<!-- p18 -->
<g id="node19" class="node"><title>p18</title>
<ellipse fill="none" stroke="black" cx="68.5217" cy="-453" rx="27" ry="18"/>
<text text-anchor="middle" x="68.5217" y="-449.3" font-family="Times,serif" font-size="14.00">p18</text>
</g>
<!-- p17&#45;&gt;p18 -->
<g id="edge20" class="edge"><title>p17&#45;&gt;p18</title>
<path fill="none" stroke="black" d="M72.5099,-521.799C71.8254,-510.163 70.9069,-494.548 70.1239,-481.237"/>
<polygon fill="black" stroke="black" points="73.6133,-480.953 69.532,-471.175 66.6254,-481.364 73.6133,-480.953"/>
<text text-anchor="middle" x="93.5217" y="-492.8" font-family="Times,serif" font-size="14.00">regout+</text>
</g>
<!-- p19 -->
<g id="node20" class="node"><title>p19</title>
<ellipse fill="none" stroke="black" cx="67.5217" cy="-366" rx="27" ry="18"/>
<text text-anchor="middle" x="67.5217" y="-362.3" font-family="Times,serif" font-size="14.00">p19</text>
</g>
<!-- p18&#45;&gt;p19 -->
<g id="edge21" class="edge"><title>p18&#45;&gt;p19</title>
<path fill="none" stroke="black" d="M68.3193,-434.799C68.1824,-423.163 67.9987,-407.548 67.8421,-394.237"/>
<polygon fill="black" stroke="black" points="71.3413,-394.134 67.7238,-384.175 64.3417,-394.216 71.3413,-394.134"/>
<text text-anchor="middle" x="104.522" y="-405.8" font-family="Times,serif" font-size="14.00">dack*ackin+</text>
</g>
<!-- p20 -->
<g id="node21" class="node"><title>p20</title>
<ellipse fill="none" stroke="black" cx="67.5217" cy="-279" rx="27" ry="18"/>
<text text-anchor="middle" x="67.5217" y="-275.3" font-family="Times,serif" font-size="14.00">p20</text>
</g>
<!-- p19&#45;&gt;p20 -->
<g id="edge22" class="edge"><title>p19&#45;&gt;p20</title>
<path fill="none" stroke="black" d="M67.5217,-347.799C67.5217,-336.163 67.5217,-320.548 67.5217,-307.237"/>
<polygon fill="black" stroke="black" points="71.0218,-307.175 67.5217,-297.175 64.0218,-307.175 71.0218,-307.175"/>
<text text-anchor="middle" x="104.522" y="-318.8" font-family="Times,serif" font-size="14.00">dack*regout&#45;</text>
</g>
<!-- p21 -->
<g id="node22" class="node"><title>p21</title>
<ellipse fill="none" stroke="black" cx="83.5217" cy="-192" rx="27" ry="18"/>
<text text-anchor="middle" x="83.5217" y="-188.3" font-family="Times,serif" font-size="14.00">p21</text>
</g>
<!-- p20&#45;&gt;p21 -->
<g id="edge23" class="edge"><title>p20&#45;&gt;p21</title>
<path fill="none" stroke="black" d="M66.249,-260.687C65.9368,-250.973 66.2151,-238.694 68.5217,-228 69.1834,-224.932 70.1154,-221.799 71.1948,-218.73"/>
<polygon fill="black" stroke="black" points="74.5023,-219.886 74.9943,-209.303 68.0098,-217.269 74.5023,-219.886"/>
<text text-anchor="middle" x="127.522" y="-231.8" font-family="Times,serif" font-size="14.00">[empty&#45;]dack*ackin&#45;</text>
</g>
<!-- p24 -->
<g id="node25" class="node"><title>p24</title>
<ellipse fill="none" stroke="black" cx="267.522" cy="-192" rx="27" ry="18"/>
<text text-anchor="middle" x="267.522" y="-188.3" font-family="Times,serif" font-size="14.00">p24</text>
</g>
<!-- p20&#45;&gt;p24 -->
<g id="edge27" class="edge"><title>p20&#45;&gt;p24</title>
<path fill="none" stroke="black" d="M92.9023,-272.802C117.535,-267.239 155.622,-257.245 186.522,-243 197.605,-237.891 199.185,-234.487 209.522,-228 219.185,-221.936 229.852,-215.443 239.375,-209.716"/>
<polygon fill="black" stroke="black" points="241.305,-212.64 248.085,-204.499 237.708,-206.635 241.305,-212.64"/>
<text text-anchor="middle" x="270.522" y="-231.8" font-family="Times,serif" font-size="14.00">[empty+]dack+ackin&#45;</text>
</g>
<!-- p22 -->
<g id="node23" class="node"><title>p22</title>
<ellipse fill="none" stroke="black" cx="78.5217" cy="-105" rx="27" ry="18"/>
<text text-anchor="middle" x="78.5217" y="-101.3" font-family="Times,serif" font-size="14.00">p22</text>
</g>
<!-- p21&#45;&gt;p22 -->
<g id="edge24" class="edge"><title>p21&#45;&gt;p22</title>
<path fill="none" stroke="black" d="M82.5099,-173.799C81.8254,-162.163 80.9069,-146.548 80.1239,-133.237"/>
<polygon fill="black" stroke="black" points="83.6133,-132.953 79.532,-123.175 76.6254,-133.364 83.6133,-132.953"/>
<text text-anchor="middle" x="120.522" y="-144.8" font-family="Times,serif" font-size="14.00">dack*regout+</text>
</g>
<!-- p23 -->
<g id="node24" class="node"><title>p23</title>
<ellipse fill="none" stroke="black" cx="29.5217" cy="-18" rx="27" ry="18"/>
<text text-anchor="middle" x="29.5217" y="-14.3" font-family="Times,serif" font-size="14.00">p23</text>
</g>
<!-- p22&#45;&gt;p23 -->
<g id="edge25" class="edge"><title>p22&#45;&gt;p23</title>
<path fill="none" stroke="black" d="M69.3052,-88.0122C62.1644,-75.625 52.1395,-58.235 43.9397,-44.0109"/>
<polygon fill="black" stroke="black" points="46.8901,-42.1207 38.8635,-35.2052 40.8256,-45.6167 46.8901,-42.1207"/>
<text text-anchor="middle" x="93.5217" y="-57.8" font-family="Times,serif" font-size="14.00">dack*ackin+</text>
</g>
<!-- p23&#45;&gt;p20 -->
<g id="edge26" class="edge"><title>p23&#45;&gt;p20</title>
<path fill="none" stroke="black" d="M21.7996,-35.5732C10.7635,-61.4599 -7.07647,-112.983 3.5217,-156 12.5526,-192.655 34.7758,-230.487 50.4911,-254.111"/>
<polygon fill="black" stroke="black" points="47.6363,-256.137 56.1545,-262.437 53.4244,-252.2 47.6363,-256.137"/>
<text text-anchor="middle" x="40.5217" y="-144.8" font-family="Times,serif" font-size="14.00">dack*regout&#45;</text>
</g>
<!-- p24&#45;&gt;p7 -->
<g id="edge28" class="edge"><title>p24&#45;&gt;p7</title>
<path fill="none" stroke="black" d="M291.326,-200.724C304.933,-206.289 321.277,-215.113 331.522,-228 345.883,-246.064 345.522,-254.923 345.522,-278 345.522,-715 345.522,-715 345.522,-715 345.522,-734.247 345.522,-755.946 345.522,-772.603"/>
<polygon fill="black" stroke="black" points="342.022,-772.744 345.522,-782.744 349.022,-772.744 342.022,-772.744"/>
<text text-anchor="middle" x="365.022" y="-492.8" font-family="Times,serif" font-size="14.00">ready+</text>
</g>
</g>
</svg>
