<?xml version="1.0" encoding="UTF-8" standalone="no"?>
<!DOCTYPE svg PUBLIC "-//W3C//DTD SVG 1.1//EN"
 "http://www.w3.org/Graphics/SVG/1.1/DTD/svg11.dtd">
<!-- Generated by graphviz version 2.38.0 (20140413.2041)
 -->
<!-- Title: %3 Pages: 1 -->
<svg width="244pt" height="626pt"
 viewBox="0.00 0.00 244.00 626.00" xmlns="http://www.w3.org/2000/svg" xmlns:xlink="http://www.w3.org/1999/xlink">
<g id="graph0" class="graph" transform="scale(1 1) rotate(0) translate(4 622)">
<title>%3</title>
<polygon fill="white" stroke="none" points="-4,4 -4,-622 240,-622 240,4 -4,4"/>
<!-- p1 -->
<g id="node1" class="node"><title>p1</title>
<ellipse fill="none" stroke="black" cx="175" cy="-600" rx="18" ry="18"/>
<text text-anchor="middle" x="175" y="-596.3" font-family="Times,serif" font-size="14.00">p1</text>
</g>
<!-- transition4 -->
<g id="node3" class="node"><title>transition4</title>
<polygon fill="none" stroke="black" points="116,-546 80,-546 80,-545 116,-545 116,-546"/>
<text text-anchor="middle" x="62" y="-549.8" font-family="Times,serif" font-size="14.00">[c&#45;]b+</text>
</g>
<!-- p1&#45;&gt;transition4 -->
<g id="edge1" class="edge"><title>p1&#45;&gt;transition4</title>
<path fill="none" stroke="black" d="M160.517,-589.031C142.623,-576.714 113.204,-556.465 102.268,-548.938"/>
<polygon fill="none" stroke="black" points="103.227,-547.473 98.116,-546.08 101.242,-550.356 103.227,-547.473"/>
</g>
<!-- transition0 -->
<g id="node19" class="node"><title>transition0</title>
<polygon fill="none" stroke="black" points="170,-546 134,-546 134,-545 170,-545 170,-546"/>
<text text-anchor="middle" x="114.5" y="-549.8" font-family="Times,serif" font-size="14.00">[c+]b+</text>
</g>
<!-- p1&#45;&gt;transition0 -->
<g id="edge19" class="edge"><title>p1&#45;&gt;transition0</title>
<path fill="none" stroke="black" d="M168.099,-583.098C163.279,-571.992 157.169,-557.912 154.044,-550.71"/>
<polygon fill="none" stroke="black" points="155.623,-549.952 152.027,-546.062 152.412,-551.346 155.623,-549.952"/>
</g>
<!-- p5 -->
<g id="node2" class="node"><title>p5</title>
<ellipse fill="none" stroke="black" cx="98" cy="-491" rx="18" ry="18"/>
<text text-anchor="middle" x="98" y="-487.3" font-family="Times,serif" font-size="14.00">p5</text>
</g>
<!-- transition5 -->
<g id="node5" class="node"><title>transition5</title>
<polygon fill="none" stroke="black" points="116,-437 80,-437 80,-436 116,-436 116,-437"/>
<text text-anchor="middle" x="72.5" y="-440.8" font-family="Times,serif" font-size="14.00">x+</text>
</g>
<!-- p5&#45;&gt;transition5 -->
<g id="edge3" class="edge"><title>p5&#45;&gt;transition5</title>
<path fill="none" stroke="black" d="M98,-472.939C98,-462.385 98,-449.534 98,-442.412"/>
<polygon fill="none" stroke="black" points="99.7501,-442.059 98,-437.059 96.2501,-442.059 99.7501,-442.059"/>
</g>
<!-- transition4&#45;&gt;p5 -->
<g id="edge2" class="edge"><title>transition4&#45;&gt;p5</title>
<path fill="none" stroke="black" d="M98,-544.848C98,-543.368 98,-531.319 98,-519.1"/>
<polygon fill="black" stroke="black" points="101.5,-519.025 98,-509.025 94.5001,-519.025 101.5,-519.025"/>
</g>
<!-- p9 -->
<g id="node4" class="node"><title>p9</title>
<ellipse fill="none" stroke="black" cx="44" cy="-382" rx="18" ry="18"/>
<text text-anchor="middle" x="44" y="-378.3" font-family="Times,serif" font-size="14.00">p9</text>
</g>
<!-- transition8 -->
<g id="node7" class="node"><title>transition8</title>
<polygon fill="none" stroke="black" points="62,-328 26,-328 26,-327 62,-327 62,-328"/>
<text text-anchor="middle" x="13" y="-331.8" font-family="Times,serif" font-size="14.00">a+b&#45;</text>
</g>
<!-- p9&#45;&gt;transition8 -->
<g id="edge5" class="edge"><title>p9&#45;&gt;transition8</title>
<path fill="none" stroke="black" d="M44,-363.939C44,-353.385 44,-340.534 44,-333.412"/>
<polygon fill="none" stroke="black" points="45.7501,-333.059 44,-328.059 42.2501,-333.059 45.7501,-333.059"/>
</g>
<!-- transition5&#45;&gt;p9 -->
<g id="edge4" class="edge"><title>transition5&#45;&gt;p9</title>
<path fill="none" stroke="black" d="M97.8451,-435.848C96.0118,-434.049 78.2624,-416.628 63.6353,-402.272"/>
<polygon fill="black" stroke="black" points="65.9603,-399.649 56.3718,-395.143 61.057,-404.645 65.9603,-399.649"/>
</g>
<!-- p6 -->
<g id="node13" class="node"><title>p6</title>
<ellipse fill="none" stroke="black" cx="98" cy="-382" rx="18" ry="18"/>
<text text-anchor="middle" x="98" y="-378.3" font-family="Times,serif" font-size="14.00">p6</text>
</g>
<!-- transition5&#45;&gt;p6 -->
<g id="edge13" class="edge"><title>transition5&#45;&gt;p6</title>
<path fill="none" stroke="black" d="M98,-435.848C98,-434.368 98,-422.319 98,-410.1"/>
<polygon fill="black" stroke="black" points="101.5,-410.025 98,-400.025 94.5001,-410.025 101.5,-410.025"/>
</g>
<!-- p10 -->
<g id="node6" class="node"><title>p10</title>
<ellipse fill="none" stroke="black" cx="44" cy="-273" rx="18" ry="18"/>
<text text-anchor="middle" x="44" y="-269.3" font-family="Times,serif" font-size="14.00">p10</text>
</g>
<!-- transition9 -->
<g id="node9" class="node"><title>transition9</title>
<polygon fill="none" stroke="black" points="62,-219 26,-219 26,-218 62,-218 62,-219"/>
<text text-anchor="middle" x="18.5" y="-222.8" font-family="Times,serif" font-size="14.00">z+</text>
</g>
<!-- p10&#45;&gt;transition9 -->
<g id="edge7" class="edge"><title>p10&#45;&gt;transition9</title>
<path fill="none" stroke="black" d="M44,-254.939C44,-244.385 44,-231.534 44,-224.412"/>
<polygon fill="none" stroke="black" points="45.7501,-224.059 44,-219.059 42.2501,-224.059 45.7501,-224.059"/>
</g>
<!-- transition8&#45;&gt;p10 -->
<g id="edge6" class="edge"><title>transition8&#45;&gt;p10</title>
<path fill="none" stroke="black" d="M44,-326.848C44,-325.368 44,-313.319 44,-301.1"/>
<polygon fill="black" stroke="black" points="47.5001,-301.025 44,-291.025 40.5001,-301.025 47.5001,-301.025"/>
</g>
<!-- p11 -->
<g id="node8" class="node"><title>p11</title>
<ellipse fill="none" stroke="black" cx="44" cy="-164" rx="18" ry="18"/>
<text text-anchor="middle" x="44" y="-160.3" font-family="Times,serif" font-size="14.00">p11</text>
</g>
<!-- transition10 -->
<g id="node11" class="node"><title>transition10</title>
<polygon fill="none" stroke="black" points="116,-110 80,-110 80,-109 116,-109 116,-110"/>
<text text-anchor="middle" x="74.5" y="-113.8" font-family="Times,serif" font-size="14.00">a&#45;</text>
</g>
<!-- p11&#45;&gt;transition10 -->
<g id="edge9" class="edge"><title>p11&#45;&gt;transition10</title>
<path fill="none" stroke="black" d="M56.5244,-150.708C68.5976,-138.858 86.1532,-121.627 93.9771,-113.948"/>
<polygon fill="none" stroke="black" points="95.5837,-114.824 97.9263,-110.072 93.132,-112.326 95.5837,-114.824"/>
</g>
<!-- transition9&#45;&gt;p11 -->
<g id="edge8" class="edge"><title>transition9&#45;&gt;p11</title>
<path fill="none" stroke="black" d="M44,-217.848C44,-216.368 44,-204.319 44,-192.1"/>
<polygon fill="black" stroke="black" points="47.5001,-192.025 44,-182.025 40.5001,-192.025 47.5001,-192.025"/>
</g>
<!-- p12 -->
<g id="node10" class="node"><title>p12</title>
<ellipse fill="none" stroke="black" cx="144" cy="-55" rx="18" ry="18"/>
<text text-anchor="middle" x="144" y="-51.3" font-family="Times,serif" font-size="14.00">p12</text>
</g>
<!-- transition11 -->
<g id="node12" class="node"><title>transition11</title>
<polygon fill="none" stroke="black" points="208,-1 172,-1 172,-0 208,-0 208,-1"/>
<text text-anchor="middle" x="166.5" y="-4.8" font-family="Times,serif" font-size="14.00">z&#45;</text>
</g>
<!-- p12&#45;&gt;transition11 -->
<g id="edge11" class="edge"><title>p12&#45;&gt;transition11</title>
<path fill="none" stroke="black" d="M155.371,-40.8989C165.474,-29.258 179.64,-12.9361 186.285,-5.28086"/>
<polygon fill="none" stroke="black" points="187.984,-5.99312 189.939,-1.06991 185.34,-3.69894 187.984,-5.99312"/>
</g>
<!-- transition10&#45;&gt;p12 -->
<g id="edge10" class="edge"><title>transition10&#45;&gt;p12</title>
<path fill="none" stroke="black" d="M98.132,-108.848C99.6297,-107.122 113.599,-91.0273 125.732,-77.048"/>
<polygon fill="black" stroke="black" points="128.644,-79.0326 132.555,-69.1863 123.357,-74.4443 128.644,-79.0326"/>
</g>
<!-- transition11&#45;&gt;p1 -->
<g id="edge12" class="edge"><title>transition11&#45;&gt;p1</title>
<path fill="none" stroke="black" d="M190.132,-1.16174C192.83,-4.48565 236,-58.4578 236,-109 236,-492 236,-492 236,-492 236,-526.017 212.445,-559.075 194.609,-579.23"/>
<polygon fill="black" stroke="black" points="191.841,-577.069 187.639,-586.795 196.989,-581.812 191.841,-577.069"/>
</g>
<!-- transition6 -->
<g id="node15" class="node"><title>transition6</title>
<polygon fill="none" stroke="black" points="116,-328 80,-328 80,-327 116,-327 116,-328"/>
<text text-anchor="middle" x="72.5" y="-331.8" font-family="Times,serif" font-size="14.00">a+</text>
</g>
<!-- p6&#45;&gt;transition6 -->
<g id="edge14" class="edge"><title>p6&#45;&gt;transition6</title>
<path fill="none" stroke="black" d="M98,-363.939C98,-353.385 98,-340.534 98,-333.412"/>
<polygon fill="none" stroke="black" points="99.7501,-333.059 98,-328.059 96.2501,-333.059 99.7501,-333.059"/>
</g>
<!-- p7 -->
<g id="node14" class="node"><title>p7</title>
<ellipse fill="none" stroke="black" cx="98" cy="-273" rx="18" ry="18"/>
<text text-anchor="middle" x="98" y="-269.3" font-family="Times,serif" font-size="14.00">p7</text>
</g>
<!-- transition7 -->
<g id="node17" class="node"><title>transition7</title>
<polygon fill="none" stroke="black" points="116,-219 80,-219 80,-218 116,-218 116,-219"/>
<text text-anchor="middle" x="74" y="-222.8" font-family="Times,serif" font-size="14.00">x&#45;</text>
</g>
<!-- p7&#45;&gt;transition7 -->
<g id="edge16" class="edge"><title>p7&#45;&gt;transition7</title>
<path fill="none" stroke="black" d="M98,-254.939C98,-244.385 98,-231.534 98,-224.412"/>
<polygon fill="none" stroke="black" points="99.7501,-224.059 98,-219.059 96.2501,-224.059 99.7501,-224.059"/>
</g>
<!-- transition6&#45;&gt;p7 -->
<g id="edge15" class="edge"><title>transition6&#45;&gt;p7</title>
<path fill="none" stroke="black" d="M98,-326.848C98,-325.368 98,-313.319 98,-301.1"/>
<polygon fill="black" stroke="black" points="101.5,-301.025 98,-291.025 94.5001,-301.025 101.5,-301.025"/>
</g>
<!-- p8 -->
<g id="node16" class="node"><title>p8</title>
<ellipse fill="none" stroke="black" cx="98" cy="-164" rx="18" ry="18"/>
<text text-anchor="middle" x="98" y="-160.3" font-family="Times,serif" font-size="14.00">p8</text>
</g>
<!-- p8&#45;&gt;transition10 -->
<g id="edge18" class="edge"><title>p8&#45;&gt;transition10</title>
<path fill="none" stroke="black" d="M98,-145.939C98,-135.385 98,-122.534 98,-115.412"/>
<polygon fill="none" stroke="black" points="99.7501,-115.059 98,-110.059 96.2501,-115.059 99.7501,-115.059"/>
</g>
<!-- transition7&#45;&gt;p8 -->
<g id="edge17" class="edge"><title>transition7&#45;&gt;p8</title>
<path fill="none" stroke="black" d="M98,-217.848C98,-216.368 98,-204.319 98,-192.1"/>
<polygon fill="black" stroke="black" points="101.5,-192.025 98,-182.025 94.5001,-192.025 101.5,-192.025"/>
</g>
<!-- p2 -->
<g id="node18" class="node"><title>p2</title>
<ellipse fill="none" stroke="black" cx="152" cy="-491" rx="18" ry="18"/>
<text text-anchor="middle" x="152" y="-487.3" font-family="Times,serif" font-size="14.00">p2</text>
</g>
<!-- transition1 -->
<g id="node21" class="node"><title>transition1</title>
<polygon fill="none" stroke="black" points="170,-437 134,-437 134,-436 170,-436 170,-437"/>
<text text-anchor="middle" x="126.5" y="-440.8" font-family="Times,serif" font-size="14.00">y+</text>
</g>
<!-- p2&#45;&gt;transition1 -->
<g id="edge21" class="edge"><title>p2&#45;&gt;transition1</title>
<path fill="none" stroke="black" d="M152,-472.939C152,-462.385 152,-449.534 152,-442.412"/>
<polygon fill="none" stroke="black" points="153.75,-442.059 152,-437.059 150.25,-442.059 153.75,-442.059"/>
</g>
<!-- transition0&#45;&gt;p2 -->
<g id="edge20" class="edge"><title>transition0&#45;&gt;p2</title>
<path fill="none" stroke="black" d="M152,-544.848C152,-543.368 152,-531.319 152,-519.1"/>
<polygon fill="black" stroke="black" points="155.5,-519.025 152,-509.025 148.5,-519.025 155.5,-519.025"/>
</g>
<!-- p3 -->
<g id="node20" class="node"><title>p3</title>
<ellipse fill="none" stroke="black" cx="152" cy="-382" rx="18" ry="18"/>
<text text-anchor="middle" x="152" y="-378.3" font-family="Times,serif" font-size="14.00">p3</text>
</g>
<!-- transition2 -->
<g id="node23" class="node"><title>transition2</title>
<polygon fill="none" stroke="black" points="170,-328 134,-328 134,-327 170,-327 170,-328"/>
<text text-anchor="middle" x="128" y="-331.8" font-family="Times,serif" font-size="14.00">b&#45;</text>
</g>
<!-- p3&#45;&gt;transition2 -->
<g id="edge23" class="edge"><title>p3&#45;&gt;transition2</title>
<path fill="none" stroke="black" d="M152,-363.939C152,-353.385 152,-340.534 152,-333.412"/>
<polygon fill="none" stroke="black" points="153.75,-333.059 152,-328.059 150.25,-333.059 153.75,-333.059"/>
</g>
<!-- transition1&#45;&gt;p3 -->
<g id="edge22" class="edge"><title>transition1&#45;&gt;p3</title>
<path fill="none" stroke="black" d="M152,-435.848C152,-434.368 152,-422.319 152,-410.1"/>
<polygon fill="black" stroke="black" points="155.5,-410.025 152,-400.025 148.5,-410.025 155.5,-410.025"/>
</g>
<!-- p4 -->
<g id="node22" class="node"><title>p4</title>
<ellipse fill="none" stroke="black" cx="152" cy="-273" rx="18" ry="18"/>
<text text-anchor="middle" x="152" y="-269.3" font-family="Times,serif" font-size="14.00">p4</text>
</g>
<!-- transition3 -->
<g id="node24" class="node"><title>transition3</title>
<polygon fill="none" stroke="black" points="189,-219 153,-219 153,-218 189,-218 189,-219"/>
<text text-anchor="middle" x="147" y="-222.8" font-family="Times,serif" font-size="14.00">y&#45;</text>
</g>
<!-- p4&#45;&gt;transition3 -->
<g id="edge25" class="edge"><title>p4&#45;&gt;transition3</title>
<path fill="none" stroke="black" d="M157.804,-255.81C161.694,-244.958 166.565,-231.372 169.164,-224.121"/>
<polygon fill="none" stroke="black" points="170.938,-224.359 170.978,-219.061 167.643,-223.177 170.938,-224.359"/>
</g>
<!-- transition2&#45;&gt;p4 -->
<g id="edge24" class="edge"><title>transition2&#45;&gt;p4</title>
<path fill="none" stroke="black" d="M152,-326.848C152,-325.368 152,-313.319 152,-301.1"/>
<polygon fill="black" stroke="black" points="155.5,-301.025 152,-291.025 148.5,-301.025 155.5,-301.025"/>
</g>
<!-- transition3&#45;&gt;p1 -->
<g id="edge26" class="edge"><title>transition3&#45;&gt;p1</title>
<path fill="none" stroke="black" d="M171.077,-219.169C172.661,-222.649 198,-279.069 198,-327 198,-492 198,-492 198,-492 198,-520.249 190.243,-551.774 183.738,-573.244"/>
<polygon fill="black" stroke="black" points="180.358,-572.327 180.685,-582.917 187.033,-574.434 180.358,-572.327"/>
</g>
</g>
</svg>
