<?xml version="1.0" encoding="UTF-8" standalone="no"?>
<!DOCTYPE svg PUBLIC "-//W3C//DTD SVG 1.1//EN"
 "http://www.w3.org/Graphics/SVG/1.1/DTD/svg11.dtd">
<!-- Generated by graphviz version 2.38.0 (20140413.2041)
 -->
<!-- Title: %3 Pages: 1 -->
<svg width="283pt" height="479pt"
 viewBox="0.00 0.00 283.00 479.00" xmlns="http://www.w3.org/2000/svg" xmlns:xlink="http://www.w3.org/1999/xlink">
<g id="graph0" class="graph" transform="scale(1 1) rotate(0) translate(4 475)">
<title>%3</title>
<polygon fill="white" stroke="none" points="-4,4 -4,-475 279,-475 279,4 -4,4"/>
<!-- p1 -->
<g id="node1" class="node"><title>p1</title>
<ellipse fill="none" stroke="black" cx="104" cy="-453" rx="27" ry="18"/>
<text text-anchor="middle" x="104" y="-449.3" font-family="Times,serif" font-size="14.00">p1</text>
</g>
<!-- p2 -->
<g id="node2" class="node"><title>p2</title>
<ellipse fill="none" stroke="black" cx="27" cy="-366" rx="27" ry="18"/>
<text text-anchor="middle" x="27" y="-362.3" font-family="Times,serif" font-size="14.00">p2</text>
</g>
<!-- p1&#45;&gt;p2 -->
<g id="edge1" class="edge"><title>p1&#45;&gt;p2</title>
<path fill="none" stroke="black" d="M78.2548,-447.17C61.2238,-442.518 40.0634,-433.629 29,-417 24.5833,-410.362 23.0764,-402.056 22.9607,-394.133"/>
<polygon fill="black" stroke="black" points="26.4578,-394.277 23.4821,-384.108 19.4673,-393.913 26.4578,-394.277"/>
<text text-anchor="middle" x="48.5" y="-405.8" font-family="Times,serif" font-size="14.00">[c+]b+</text>
</g>
<!-- p5 -->
<g id="node5" class="node"><title>p5</title>
<ellipse fill="none" stroke="black" cx="137" cy="-366" rx="27" ry="18"/>
<text text-anchor="middle" x="137" y="-362.3" font-family="Times,serif" font-size="14.00">p5</text>
</g>
<!-- p1&#45;&gt;p5 -->
<g id="edge5" class="edge"><title>p1&#45;&gt;p5</title>
<path fill="none" stroke="black" d="M110.52,-435.207C115.175,-423.216 121.528,-406.851 126.845,-393.157"/>
<polygon fill="black" stroke="black" points="130.137,-394.347 130.494,-383.758 123.612,-391.814 130.137,-394.347"/>
<text text-anchor="middle" x="141" y="-405.8" font-family="Times,serif" font-size="14.00">[c&#45;]b+</text>
</g>
<!-- p3 -->
<g id="node3" class="node"><title>p3</title>
<ellipse fill="none" stroke="black" cx="27" cy="-279" rx="27" ry="18"/>
<text text-anchor="middle" x="27" y="-275.3" font-family="Times,serif" font-size="14.00">p3</text>
</g>
<!-- p2&#45;&gt;p3 -->
<g id="edge2" class="edge"><title>p2&#45;&gt;p3</title>
<path fill="none" stroke="black" d="M27,-347.799C27,-336.163 27,-320.548 27,-307.237"/>
<polygon fill="black" stroke="black" points="30.5001,-307.175 27,-297.175 23.5001,-307.175 30.5001,-307.175"/>
<text text-anchor="middle" x="34.5" y="-318.8" font-family="Times,serif" font-size="14.00">y+</text>
</g>
<!-- p4 -->
<g id="node4" class="node"><title>p4</title>
<ellipse fill="none" stroke="black" cx="53" cy="-192" rx="27" ry="18"/>
<text text-anchor="middle" x="53" y="-188.3" font-family="Times,serif" font-size="14.00">p4</text>
</g>
<!-- p3&#45;&gt;p4 -->
<g id="edge3" class="edge"><title>p3&#45;&gt;p4</title>
<path fill="none" stroke="black" d="M32.1368,-261.207C35.769,-249.332 40.7132,-233.168 44.8768,-219.557"/>
<polygon fill="black" stroke="black" points="48.2957,-220.345 47.8739,-209.758 41.6019,-218.297 48.2957,-220.345"/>
<text text-anchor="middle" x="48" y="-231.8" font-family="Times,serif" font-size="14.00">b&#45;</text>
</g>
<!-- p4&#45;&gt;p1 -->
<g id="edge4" class="edge"><title>p4&#45;&gt;p1</title>
<path fill="none" stroke="black" d="M56.3586,-210.056C65.0176,-254.031 88.156,-371.537 98.6694,-424.929"/>
<polygon fill="black" stroke="black" points="95.2876,-425.871 100.654,-435.006 102.156,-424.518 95.2876,-425.871"/>
<text text-anchor="middle" x="86" y="-318.8" font-family="Times,serif" font-size="14.00">y&#45;</text>
</g>
<!-- p6 -->
<g id="node6" class="node"><title>p6</title>
<ellipse fill="none" stroke="black" cx="137" cy="-279" rx="27" ry="18"/>
<text text-anchor="middle" x="137" y="-275.3" font-family="Times,serif" font-size="14.00">p6</text>
</g>
<!-- p5&#45;&gt;p6 -->
<g id="edge6" class="edge"><title>p5&#45;&gt;p6</title>
<path fill="none" stroke="black" d="M137,-347.799C137,-336.163 137,-320.548 137,-307.237"/>
<polygon fill="black" stroke="black" points="140.5,-307.175 137,-297.175 133.5,-307.175 140.5,-307.175"/>
<text text-anchor="middle" x="144.5" y="-318.8" font-family="Times,serif" font-size="14.00">x+</text>
</g>
<!-- p9 -->
<g id="node10" class="node"><title>p9</title>
<ellipse fill="none" stroke="black" cx="209" cy="-279" rx="27" ry="18"/>
<text text-anchor="middle" x="209" y="-275.3" font-family="Times,serif" font-size="14.00">p9</text>
</g>
<!-- p5&#45;&gt;p9 -->
<g id="edge11" class="edge"><title>p5&#45;&gt;p9</title>
<path fill="none" stroke="black" d="M149.872,-349.804C160.93,-336.75 177.036,-317.735 189.647,-302.847"/>
<polygon fill="black" stroke="black" points="192.446,-304.957 196.239,-295.065 187.105,-300.433 192.446,-304.957"/>
<text text-anchor="middle" x="184.5" y="-318.8" font-family="Times,serif" font-size="14.00">x+</text>
</g>
<!-- p7 -->
<g id="node7" class="node"><title>p7</title>
<ellipse fill="none" stroke="black" cx="137" cy="-192" rx="27" ry="18"/>
<text text-anchor="middle" x="137" y="-188.3" font-family="Times,serif" font-size="14.00">p7</text>
</g>
<!-- p6&#45;&gt;p7 -->
<g id="edge7" class="edge"><title>p6&#45;&gt;p7</title>
<path fill="none" stroke="black" d="M137,-260.799C137,-249.163 137,-233.548 137,-220.237"/>
<polygon fill="black" stroke="black" points="140.5,-220.175 137,-210.175 133.5,-220.175 140.5,-220.175"/>
<text text-anchor="middle" x="144.5" y="-231.8" font-family="Times,serif" font-size="14.00">a+</text>
</g>
<!-- p8 -->
<g id="node8" class="node"><title>p8</title>
<ellipse fill="none" stroke="black" cx="137" cy="-105" rx="27" ry="18"/>
<text text-anchor="middle" x="137" y="-101.3" font-family="Times,serif" font-size="14.00">p8</text>
</g>
<!-- p7&#45;&gt;p8 -->
<g id="edge8" class="edge"><title>p7&#45;&gt;p8</title>
<path fill="none" stroke="black" d="M137,-173.799C137,-162.163 137,-146.548 137,-133.237"/>
<polygon fill="black" stroke="black" points="140.5,-133.175 137,-123.175 133.5,-133.175 140.5,-133.175"/>
<text text-anchor="middle" x="143" y="-144.8" font-family="Times,serif" font-size="14.00">x&#45;</text>
</g>
<!-- p12 -->
<g id="node9" class="node"><title>p12</title>
<ellipse fill="none" stroke="black" cx="209" cy="-18" rx="27" ry="18"/>
<text text-anchor="middle" x="209" y="-14.3" font-family="Times,serif" font-size="14.00">p12</text>
</g>
<!-- p8&#45;&gt;p12 -->
<g id="edge9" class="edge"><title>p8&#45;&gt;p12</title>
<path fill="none" stroke="black" d="M149.872,-88.8037C160.93,-75.7495 177.036,-56.7354 189.647,-41.8473"/>
<polygon fill="black" stroke="black" points="192.446,-43.9574 196.239,-34.0647 187.105,-39.433 192.446,-43.9574"/>
<text text-anchor="middle" x="182.5" y="-57.8" font-family="Times,serif" font-size="14.00">a&#45;</text>
</g>
<!-- p12&#45;&gt;p1 -->
<g id="edge10" class="edge"><title>p12&#45;&gt;p1</title>
<path fill="none" stroke="black" d="M224.908,-32.5917C241.152,-48.0709 264,-74.9983 264,-104 264,-367 264,-367 264,-367 264,-422.415 188.224,-441.814 140.968,-448.524"/>
<polygon fill="black" stroke="black" points="140.25,-445.088 130.78,-449.839 141.146,-452.03 140.25,-445.088"/>
<text text-anchor="middle" x="269.5" y="-231.8" font-family="Times,serif" font-size="14.00">z&#45;</text>
</g>
<!-- p10 -->
<g id="node11" class="node"><title>p10</title>
<ellipse fill="none" stroke="black" cx="209" cy="-192" rx="27" ry="18"/>
<text text-anchor="middle" x="209" y="-188.3" font-family="Times,serif" font-size="14.00">p10</text>
</g>
<!-- p9&#45;&gt;p10 -->
<g id="edge12" class="edge"><title>p9&#45;&gt;p10</title>
<path fill="none" stroke="black" d="M209,-260.799C209,-249.163 209,-233.548 209,-220.237"/>
<polygon fill="black" stroke="black" points="212.5,-220.175 209,-210.175 205.5,-220.175 212.5,-220.175"/>
<text text-anchor="middle" x="222" y="-231.8" font-family="Times,serif" font-size="14.00">a+b&#45;</text>
</g>
<!-- p11 -->
<g id="node12" class="node"><title>p11</title>
<ellipse fill="none" stroke="black" cx="209" cy="-105" rx="27" ry="18"/>
<text text-anchor="middle" x="209" y="-101.3" font-family="Times,serif" font-size="14.00">p11</text>
</g>
<!-- p10&#45;&gt;p11 -->
<g id="edge13" class="edge"><title>p10&#45;&gt;p11</title>
<path fill="none" stroke="black" d="M209,-173.799C209,-162.163 209,-146.548 209,-133.237"/>
<polygon fill="black" stroke="black" points="212.5,-133.175 209,-123.175 205.5,-133.175 212.5,-133.175"/>
<text text-anchor="middle" x="216.5" y="-144.8" font-family="Times,serif" font-size="14.00">z+</text>
</g>
<!-- p11&#45;&gt;p12 -->
<g id="edge14" class="edge"><title>p11&#45;&gt;p12</title>
<path fill="none" stroke="black" d="M209,-86.799C209,-75.1626 209,-59.5479 209,-46.2368"/>
<polygon fill="black" stroke="black" points="212.5,-46.1754 209,-36.1754 205.5,-46.1755 212.5,-46.1754"/>
<text text-anchor="middle" x="214.5" y="-57.8" font-family="Times,serif" font-size="14.00">a&#45;</text>
</g>
</g>
</svg>
