<?xml version="1.0" encoding="UTF-8" standalone="no"?>
<!DOCTYPE svg PUBLIC "-//W3C//DTD SVG 1.1//EN"
 "http://www.w3.org/Graphics/SVG/1.1/DTD/svg11.dtd">
<!-- Generated by graphviz version 2.38.0 (20140413.2041)
 -->
<!-- Title: %3 Pages: 1 -->
<svg width="141pt" height="1315pt"
 viewBox="0.00 0.00 141.00 1315.00" xmlns="http://www.w3.org/2000/svg" xmlns:xlink="http://www.w3.org/1999/xlink">
<g id="graph0" class="graph" transform="scale(1 1) rotate(0) translate(4 1311)">
<title>%3</title>
<polygon fill="white" stroke="none" points="-4,4 -4,-1311 137,-1311 137,4 -4,4"/>
<!-- 1 -->
<g id="node1" class="node"><title>1</title>
<ellipse fill="none" stroke="black" cx="110" cy="-1289" rx="18" ry="18"/>
<text text-anchor="middle" x="110" y="-1285.3" font-family="Times,serif" font-size="14.00">1</text>
</g>
<!-- transition0 -->
<g id="node3" class="node"><title>transition0</title>
<polygon fill="none" stroke="black" points="105,-1235 69,-1235 69,-1234 105,-1234 105,-1235"/>
<text text-anchor="middle" x="61.5" y="-1238.8" font-family="Times,serif" font-size="14.00">c+</text>
</g>
<!-- 1&#45;&gt;transition0 -->
<g id="edge1" class="edge"><title>1&#45;&gt;transition0</title>
<path fill="none" stroke="black" d="M103.099,-1272.1C98.2795,-1260.99 92.1693,-1246.91 89.0441,-1239.71"/>
<polygon fill="none" stroke="black" points="90.6228,-1238.95 87.027,-1235.06 87.4121,-1240.35 90.6228,-1238.95"/>
</g>
<!-- 4 -->
<g id="node2" class="node"><title>4</title>
<ellipse fill="none" stroke="black" cx="33" cy="-1180" rx="18" ry="18"/>
<text text-anchor="middle" x="33" y="-1176.3" font-family="Times,serif" font-size="14.00">4</text>
</g>
<!-- transition3 -->
<g id="node5" class="node"><title>transition3</title>
<polygon fill="none" stroke="black" points="51,-1071.5 15,-1071.5 15,-1070.5 51,-1070.5 51,-1071.5"/>
<text text-anchor="middle" x="7.5" y="-1075.3" font-family="Times,serif" font-size="14.00">d+</text>
</g>
<!-- 4&#45;&gt;transition3 -->
<g id="edge3" class="edge"><title>4&#45;&gt;transition3</title>
<path fill="none" stroke="black" d="M33,-1161.81C33,-1136.92 33,-1092.18 33,-1077.11"/>
<polygon fill="none" stroke="black" points="34.7501,-1077.04 33,-1072.04 31.2501,-1077.04 34.7501,-1077.04"/>
</g>
<!-- transition0&#45;&gt;4 -->
<g id="edge2" class="edge"><title>transition0&#45;&gt;4</title>
<path fill="none" stroke="black" d="M86.8451,-1233.85C85.0118,-1232.05 67.2624,-1214.63 52.6353,-1200.27"/>
<polygon fill="black" stroke="black" points="54.9603,-1197.65 45.3718,-1193.14 50.057,-1202.65 54.9603,-1197.65"/>
</g>
<!-- 2 -->
<g id="node25" class="node"><title>2</title>
<ellipse fill="none" stroke="black" cx="87" cy="-1180" rx="18" ry="18"/>
<text text-anchor="middle" x="87" y="-1176.3" font-family="Times,serif" font-size="14.00">2</text>
</g>
<!-- transition0&#45;&gt;2 -->
<g id="edge26" class="edge"><title>transition0&#45;&gt;2</title>
<path fill="none" stroke="black" d="M87,-1233.85C87,-1232.37 87,-1220.32 87,-1208.1"/>
<polygon fill="black" stroke="black" points="90.5001,-1208.02 87,-1198.02 83.5001,-1208.02 90.5001,-1208.02"/>
</g>
<!-- 5 -->
<g id="node4" class="node"><title>5</title>
<ellipse fill="none" stroke="black" cx="36" cy="-962" rx="18" ry="18"/>
<text text-anchor="middle" x="36" y="-958.3" font-family="Times,serif" font-size="14.00">5</text>
</g>
<!-- transition4 -->
<g id="node7" class="node"><title>transition4</title>
<polygon fill="none" stroke="black" points="54,-908 18,-908 18,-907 54,-907 54,-908"/>
<text text-anchor="middle" x="10.5" y="-911.8" font-family="Times,serif" font-size="14.00">x+</text>
</g>
<!-- 5&#45;&gt;transition4 -->
<g id="edge5" class="edge"><title>5&#45;&gt;transition4</title>
<path fill="none" stroke="black" d="M36,-943.939C36,-933.385 36,-920.534 36,-913.412"/>
<polygon fill="none" stroke="black" points="37.7501,-913.059 36,-908.059 34.2501,-913.059 37.7501,-913.059"/>
</g>
<!-- transition3&#45;&gt;5 -->
<g id="edge4" class="edge"><title>transition3&#45;&gt;5</title>
<path fill="none" stroke="black" d="M33.0022,-1069.92C33.0625,-1067.77 34.3641,-1021.35 35.2322,-990.386"/>
<polygon fill="black" stroke="black" points="38.7367,-990.271 35.5184,-980.177 31.7394,-990.075 38.7367,-990.271"/>
</g>
<!-- 6 -->
<g id="node6" class="node"><title>6</title>
<ellipse fill="none" stroke="black" cx="36" cy="-853" rx="18" ry="18"/>
<text text-anchor="middle" x="36" y="-849.3" font-family="Times,serif" font-size="14.00">6</text>
</g>
<!-- transition5 -->
<g id="node9" class="node"><title>transition5</title>
<polygon fill="none" stroke="black" points="54,-799 18,-799 18,-798 54,-798 54,-799"/>
<text text-anchor="middle" x="12" y="-802.8" font-family="Times,serif" font-size="14.00">b&#45;</text>
</g>
<!-- 6&#45;&gt;transition5 -->
<g id="edge7" class="edge"><title>6&#45;&gt;transition5</title>
<path fill="none" stroke="black" d="M36,-834.939C36,-824.385 36,-811.534 36,-804.412"/>
<polygon fill="none" stroke="black" points="37.7501,-804.059 36,-799.059 34.2501,-804.059 37.7501,-804.059"/>
</g>
<!-- transition4&#45;&gt;6 -->
<g id="edge6" class="edge"><title>transition4&#45;&gt;6</title>
<path fill="none" stroke="black" d="M36,-906.848C36,-905.368 36,-893.319 36,-881.1"/>
<polygon fill="black" stroke="black" points="39.5001,-881.025 36,-871.025 32.5001,-881.025 39.5001,-881.025"/>
</g>
<!-- 7 -->
<g id="node8" class="node"><title>7</title>
<ellipse fill="none" stroke="black" cx="36" cy="-744" rx="18" ry="18"/>
<text text-anchor="middle" x="36" y="-740.3" font-family="Times,serif" font-size="14.00">7</text>
</g>
<!-- transition6 -->
<g id="node11" class="node"><title>transition6</title>
<polygon fill="none" stroke="black" points="54,-690 18,-690 18,-689 54,-689 54,-690"/>
<text text-anchor="middle" x="10.5" y="-693.8" font-family="Times,serif" font-size="14.00">a+</text>
</g>
<!-- 7&#45;&gt;transition6 -->
<g id="edge9" class="edge"><title>7&#45;&gt;transition6</title>
<path fill="none" stroke="black" d="M36,-725.939C36,-715.385 36,-702.534 36,-695.412"/>
<polygon fill="none" stroke="black" points="37.7501,-695.059 36,-690.059 34.2501,-695.059 37.7501,-695.059"/>
</g>
<!-- transition5&#45;&gt;7 -->
<g id="edge8" class="edge"><title>transition5&#45;&gt;7</title>
<path fill="none" stroke="black" d="M36,-797.848C36,-796.368 36,-784.319 36,-772.1"/>
<polygon fill="black" stroke="black" points="39.5001,-772.025 36,-762.025 32.5001,-772.025 39.5001,-772.025"/>
</g>
<!-- 8 -->
<g id="node10" class="node"><title>8</title>
<ellipse fill="none" stroke="black" cx="36" cy="-635" rx="18" ry="18"/>
<text text-anchor="middle" x="36" y="-631.3" font-family="Times,serif" font-size="14.00">8</text>
</g>
<!-- transition7 -->
<g id="node13" class="node"><title>transition7</title>
<polygon fill="none" stroke="black" points="54,-581 18,-581 18,-580 54,-580 54,-581"/>
<text text-anchor="middle" x="12.5" y="-584.8" font-family="Times,serif" font-size="14.00">c&#45;</text>
</g>
<!-- 8&#45;&gt;transition7 -->
<g id="edge11" class="edge"><title>8&#45;&gt;transition7</title>
<path fill="none" stroke="black" d="M36,-616.939C36,-606.385 36,-593.534 36,-586.412"/>
<polygon fill="none" stroke="black" points="37.7501,-586.059 36,-581.059 34.2501,-586.059 37.7501,-586.059"/>
</g>
<!-- transition6&#45;&gt;8 -->
<g id="edge10" class="edge"><title>transition6&#45;&gt;8</title>
<path fill="none" stroke="black" d="M36,-688.848C36,-687.368 36,-675.319 36,-663.1"/>
<polygon fill="black" stroke="black" points="39.5001,-663.025 36,-653.025 32.5001,-663.025 39.5001,-663.025"/>
</g>
<!-- 9 -->
<g id="node12" class="node"><title>9</title>
<ellipse fill="none" stroke="black" cx="34" cy="-526" rx="18" ry="18"/>
<text text-anchor="middle" x="34" y="-522.3" font-family="Times,serif" font-size="14.00">9</text>
</g>
<!-- transition8 -->
<g id="node15" class="node"><title>transition8</title>
<polygon fill="none" stroke="black" points="51,-454.5 15,-454.5 15,-453.5 51,-453.5 51,-454.5"/>
<text text-anchor="middle" x="7.5" y="-458.3" font-family="Times,serif" font-size="14.00">b+</text>
</g>
<!-- 9&#45;&gt;transition8 -->
<g id="edge13" class="edge"><title>9&#45;&gt;transition8</title>
<path fill="none" stroke="black" d="M33.7528,-507.697C33.5309,-492.165 33.2189,-470.324 33.0764,-460.348"/>
<polygon fill="none" stroke="black" points="34.8227,-460.067 33.0013,-455.092 31.323,-460.117 34.8227,-460.067"/>
</g>
<!-- transition7&#45;&gt;9 -->
<g id="edge12" class="edge"><title>transition7&#45;&gt;9</title>
<path fill="none" stroke="black" d="M35.9943,-579.848C35.9384,-578.368 35.4837,-566.319 35.0227,-554.1"/>
<polygon fill="black" stroke="black" points="38.5171,-553.886 34.6424,-544.025 31.5221,-554.15 38.5171,-553.886"/>
</g>
<!-- 11 -->
<g id="node23" class="node"><title>11</title>
<ellipse fill="none" stroke="black" cx="87" cy="-454" rx="18" ry="18"/>
<text text-anchor="middle" x="87" y="-450.3" font-family="Times,serif" font-size="14.00">11</text>
</g>
<!-- transition7&#45;&gt;11 -->
<g id="edge23" class="edge"><title>transition7&#45;&gt;11</title>
<path fill="none" stroke="black" d="M36.0479,-579.947C37.0297,-578.849 52.8665,-561.028 61,-544 70.5115,-524.087 77.2922,-499.978 81.5391,-481.877"/>
<polygon fill="black" stroke="black" points="84.983,-482.515 83.7483,-471.992 78.1515,-480.988 84.983,-482.515"/>
</g>
<!-- 10 -->
<g id="node14" class="node"><title>10</title>
<ellipse fill="none" stroke="black" cx="33" cy="-382" rx="18" ry="18"/>
<text text-anchor="middle" x="33" y="-378.3" font-family="Times,serif" font-size="14.00">10</text>
</g>
<!-- transition9 -->
<g id="node17" class="node"><title>transition9</title>
<polygon fill="none" stroke="black" points="55,-328 19,-328 19,-327 55,-327 55,-328"/>
<text text-anchor="middle" x="13.5" y="-331.8" font-family="Times,serif" font-size="14.00">a&#45;</text>
</g>
<!-- 10&#45;&gt;transition9 -->
<g id="edge15" class="edge"><title>10&#45;&gt;transition9</title>
<path fill="none" stroke="black" d="M34.2876,-363.939C35.0841,-353.385 36.054,-340.534 36.5915,-333.412"/>
<polygon fill="none" stroke="black" points="38.3642,-333.177 36.9955,-328.059 34.8741,-332.913 38.3642,-333.177"/>
</g>
<!-- transition8&#45;&gt;10 -->
<g id="edge14" class="edge"><title>transition8&#45;&gt;10</title>
<path fill="none" stroke="black" d="M33,-452.949C33,-451.748 33,-429.429 33,-410.321"/>
<polygon fill="black" stroke="black" points="36.5001,-410.191 33,-400.191 29.5001,-410.191 36.5001,-410.191"/>
</g>
<!-- 12 -->
<g id="node16" class="node"><title>12</title>
<ellipse fill="none" stroke="black" cx="87" cy="-273" rx="18" ry="18"/>
<text text-anchor="middle" x="87" y="-269.3" font-family="Times,serif" font-size="14.00">12</text>
</g>
<!-- transition11 -->
<g id="node19" class="node"><title>transition11</title>
<polygon fill="none" stroke="black" points="105,-219 69,-219 69,-218 105,-218 105,-219"/>
<text text-anchor="middle" x="63" y="-222.8" font-family="Times,serif" font-size="14.00">x&#45;</text>
</g>
<!-- 12&#45;&gt;transition11 -->
<g id="edge17" class="edge"><title>12&#45;&gt;transition11</title>
<path fill="none" stroke="black" d="M87,-254.939C87,-244.385 87,-231.534 87,-224.412"/>
<polygon fill="none" stroke="black" points="88.7501,-224.059 87,-219.059 85.2501,-224.059 88.7501,-224.059"/>
</g>
<!-- transition9&#45;&gt;12 -->
<g id="edge16" class="edge"><title>transition9&#45;&gt;12</title>
<path fill="none" stroke="black" d="M37.1434,-326.848C38.806,-325.086 54.6059,-308.338 67.9802,-294.161"/>
<polygon fill="black" stroke="black" points="70.7392,-296.337 75.0555,-286.661 65.6474,-291.533 70.7392,-296.337"/>
</g>
<!-- 13 -->
<g id="node18" class="node"><title>13</title>
<ellipse fill="none" stroke="black" cx="87" cy="-164" rx="18" ry="18"/>
<text text-anchor="middle" x="87" y="-160.3" font-family="Times,serif" font-size="14.00">13</text>
</g>
<!-- transition12 -->
<g id="node21" class="node"><title>transition12</title>
<polygon fill="none" stroke="black" points="105,-110 69,-110 69,-109 105,-109 105,-110"/>
<text text-anchor="middle" x="63" y="-113.8" font-family="Times,serif" font-size="14.00">b&#45;</text>
</g>
<!-- 13&#45;&gt;transition12 -->
<g id="edge19" class="edge"><title>13&#45;&gt;transition12</title>
<path fill="none" stroke="black" d="M87,-145.939C87,-135.385 87,-122.534 87,-115.412"/>
<polygon fill="none" stroke="black" points="88.7501,-115.059 87,-110.059 85.2501,-115.059 88.7501,-115.059"/>
</g>
<!-- transition11&#45;&gt;13 -->
<g id="edge18" class="edge"><title>transition11&#45;&gt;13</title>
<path fill="none" stroke="black" d="M87,-217.848C87,-216.368 87,-204.319 87,-192.1"/>
<polygon fill="black" stroke="black" points="90.5001,-192.025 87,-182.025 83.5001,-192.025 90.5001,-192.025"/>
</g>
<!-- 14 -->
<g id="node20" class="node"><title>14</title>
<ellipse fill="none" stroke="black" cx="87" cy="-55" rx="18" ry="18"/>
<text text-anchor="middle" x="87" y="-51.3" font-family="Times,serif" font-size="14.00">14</text>
</g>
<!-- transition13 -->
<g id="node22" class="node"><title>transition13</title>
<polygon fill="none" stroke="black" points="128,-1 92,-1 92,-0 128,-0 128,-1"/>
<text text-anchor="middle" x="84.5" y="-4.8" font-family="Times,serif" font-size="14.00">a+</text>
</g>
<!-- 14&#45;&gt;transition13 -->
<g id="edge21" class="edge"><title>14&#45;&gt;transition13</title>
<path fill="none" stroke="black" d="M93.9008,-38.0983C98.7205,-26.9918 104.831,-12.9118 107.956,-5.7104"/>
<polygon fill="none" stroke="black" points="109.588,-6.34553 109.973,-1.06211 106.377,-4.95216 109.588,-6.34553"/>
</g>
<!-- transition12&#45;&gt;14 -->
<g id="edge20" class="edge"><title>transition12&#45;&gt;14</title>
<path fill="none" stroke="black" d="M87,-108.848C87,-107.368 87,-95.3194 87,-83.1004"/>
<polygon fill="black" stroke="black" points="90.5001,-83.0247 87,-73.0247 83.5001,-83.0248 90.5001,-83.0247"/>
</g>
<!-- transition13&#45;&gt;1 -->
<g id="edge22" class="edge"><title>transition13&#45;&gt;1</title>
<path fill="none" stroke="black" d="M110.017,-1.04289C110.713,-2.83896 133,-60.6904 133,-109 133,-1181 133,-1181 133,-1181 133,-1209.25 125.243,-1240.77 118.738,-1262.24"/>
<polygon fill="black" stroke="black" points="115.358,-1261.33 115.685,-1271.92 122.033,-1263.43 115.358,-1261.33"/>
</g>
<!-- transition10 -->
<g id="node24" class="node"><title>transition10</title>
<polygon fill="none" stroke="black" points="105,-382.5 69,-382.5 69,-381.5 105,-381.5 105,-382.5"/>
<text text-anchor="middle" x="63" y="-386.3" font-family="Times,serif" font-size="14.00">d&#45;</text>
</g>
<!-- 11&#45;&gt;transition10 -->
<g id="edge24" class="edge"><title>11&#45;&gt;transition10</title>
<path fill="none" stroke="black" d="M87,-435.697C87,-420.165 87,-398.324 87,-388.348"/>
<polygon fill="none" stroke="black" points="88.7501,-388.092 87,-383.092 85.2501,-388.092 88.7501,-388.092"/>
</g>
<!-- transition10&#45;&gt;12 -->
<g id="edge25" class="edge"><title>transition10&#45;&gt;12</title>
<path fill="none" stroke="black" d="M87,-380.922C87,-378.771 87,-332.348 87,-301.386"/>
<polygon fill="black" stroke="black" points="90.5001,-301.177 87,-291.177 83.5001,-301.177 90.5001,-301.177"/>
</g>
<!-- transition1 -->
<g id="node27" class="node"><title>transition1</title>
<polygon fill="none" stroke="black" points="105,-1126 69,-1126 69,-1125 105,-1125 105,-1126"/>
<text text-anchor="middle" x="61.5" y="-1129.8" font-family="Times,serif" font-size="14.00">b+</text>
</g>
<!-- 2&#45;&gt;transition1 -->
<g id="edge27" class="edge"><title>2&#45;&gt;transition1</title>
<path fill="none" stroke="black" d="M87,-1161.94C87,-1151.39 87,-1138.53 87,-1131.41"/>
<polygon fill="none" stroke="black" points="88.7501,-1131.06 87,-1126.06 85.2501,-1131.06 88.7501,-1131.06"/>
</g>
<!-- 3 -->
<g id="node26" class="node"><title>3</title>
<ellipse fill="none" stroke="black" cx="87" cy="-1071" rx="18" ry="18"/>
<text text-anchor="middle" x="87" y="-1067.3" font-family="Times,serif" font-size="14.00">3</text>
</g>
<!-- transition2 -->
<g id="node28" class="node"><title>transition2</title>
<polygon fill="none" stroke="black" points="101,-1017 65,-1017 65,-1016 101,-1016 101,-1017"/>
<text text-anchor="middle" x="59.5" y="-1020.8" font-family="Times,serif" font-size="14.00">a&#45;</text>
</g>
<!-- 3&#45;&gt;transition2 -->
<g id="edge29" class="edge"><title>3&#45;&gt;transition2</title>
<path fill="none" stroke="black" d="M85.7124,-1052.94C84.9159,-1042.39 83.946,-1029.53 83.4085,-1022.41"/>
<polygon fill="none" stroke="black" points="85.1259,-1021.91 83.0045,-1017.06 81.6358,-1022.18 85.1259,-1021.91"/>
</g>
<!-- transition1&#45;&gt;3 -->
<g id="edge28" class="edge"><title>transition1&#45;&gt;3</title>
<path fill="none" stroke="black" d="M87,-1124.85C87,-1123.37 87,-1111.32 87,-1099.1"/>
<polygon fill="black" stroke="black" points="90.5001,-1099.02 87,-1089.02 83.5001,-1099.02 90.5001,-1099.02"/>
</g>
<!-- transition2&#45;&gt;5 -->
<g id="edge30" class="edge"><title>transition2&#45;&gt;5</title>
<path fill="none" stroke="black" d="M82.8652,-1015.85C81.3115,-1014.1 66.6227,-997.532 54.0982,-983.409"/>
<polygon fill="black" stroke="black" points="56.7135,-981.083 47.4599,-975.923 51.4762,-985.727 56.7135,-981.083"/>
</g>
</g>
</svg>
