<?xml version="1.0" encoding="UTF-8" standalone="no"?>
<!DOCTYPE svg PUBLIC "-//W3C//DTD SVG 1.1//EN"
 "http://www.w3.org/Graphics/SVG/1.1/DTD/svg11.dtd">
<!-- Generated by graphviz version 2.38.0 (20140413.2041)
 -->
<!-- Title: %3 Pages: 1 -->
<svg width="395pt" height="1716pt"
 viewBox="0.00 0.00 395.00 1716.00" xmlns="http://www.w3.org/2000/svg" xmlns:xlink="http://www.w3.org/1999/xlink">
<g id="graph0" class="graph" transform="scale(1 1) rotate(0) translate(4 1712)">
<title>%3</title>
<polygon fill="white" stroke="none" points="-4,4 -4,-1712 391,-1712 391,4 -4,4"/>
<!-- p1 -->
<g id="node1" class="node"><title>p1</title>
<ellipse fill="none" stroke="black" cx="80" cy="-1690" rx="18" ry="18"/>
<text text-anchor="middle" x="80" y="-1686.3" font-family="Times,serif" font-size="14.00">p1</text>
</g>
<!-- transition0 -->
<g id="node3" class="node"><title>transition0</title>
<polygon fill="none" stroke="black" points="121,-1636 85,-1636 85,-1635 121,-1635 121,-1636"/>
<text text-anchor="middle" x="44" y="-1639.8" font-family="Times,serif" font-size="14.00">startdmasend+</text>
</g>
<!-- p1&#45;&gt;transition0 -->
<g id="edge1" class="edge"><title>p1&#45;&gt;transition0</title>
<path fill="none" stroke="black" d="M86.9008,-1673.1C91.7205,-1661.99 97.8307,-1647.91 100.956,-1640.71"/>
<polygon fill="none" stroke="black" points="102.588,-1641.35 102.973,-1636.06 99.3772,-1639.95 102.588,-1641.35"/>
</g>
<!-- p2 -->
<g id="node2" class="node"><title>p2</title>
<ellipse fill="none" stroke="black" cx="103" cy="-1581" rx="18" ry="18"/>
<text text-anchor="middle" x="103" y="-1577.3" font-family="Times,serif" font-size="14.00">p2</text>
</g>
<!-- transition1 -->
<g id="node5" class="node"><title>transition1</title>
<polygon fill="none" stroke="black" points="121,-1527 85,-1527 85,-1526 121,-1526 121,-1527"/>
<text text-anchor="middle" x="56.5" y="-1530.8" font-family="Times,serif" font-size="14.00">endmaint&#45;</text>
</g>
<!-- p2&#45;&gt;transition1 -->
<g id="edge3" class="edge"><title>p2&#45;&gt;transition1</title>
<path fill="none" stroke="black" d="M103,-1562.94C103,-1552.39 103,-1539.53 103,-1532.41"/>
<polygon fill="none" stroke="black" points="104.75,-1532.06 103,-1527.06 101.25,-1532.06 104.75,-1532.06"/>
</g>
<!-- transition0&#45;&gt;p2 -->
<g id="edge2" class="edge"><title>transition0&#45;&gt;p2</title>
<path fill="none" stroke="black" d="M103,-1634.85C103,-1633.37 103,-1621.32 103,-1609.1"/>
<polygon fill="black" stroke="black" points="106.5,-1609.02 103,-1599.02 99.5001,-1609.02 106.5,-1609.02"/>
</g>
<!-- p3 -->
<g id="node4" class="node"><title>p3</title>
<ellipse fill="none" stroke="black" cx="103" cy="-1472" rx="18" ry="18"/>
<text text-anchor="middle" x="103" y="-1468.3" font-family="Times,serif" font-size="14.00">p3</text>
</g>
<!-- transition2 -->
<g id="node7" class="node"><title>transition2</title>
<polygon fill="none" stroke="black" points="122,-1418 86,-1418 86,-1417 122,-1417 122,-1418"/>
<text text-anchor="middle" x="46.5" y="-1421.8" font-family="Times,serif" font-size="14.00">startdmasend&#45;</text>
</g>
<!-- p3&#45;&gt;transition2 -->
<g id="edge5" class="edge"><title>p3&#45;&gt;transition2</title>
<path fill="none" stroke="black" d="M103.322,-1453.94C103.521,-1443.39 103.764,-1430.53 103.898,-1423.41"/>
<polygon fill="none" stroke="black" points="105.654,-1423.09 103.999,-1418.06 102.155,-1423.03 105.654,-1423.09"/>
</g>
<!-- transition1&#45;&gt;p3 -->
<g id="edge4" class="edge"><title>transition1&#45;&gt;p3</title>
<path fill="none" stroke="black" d="M103,-1525.85C103,-1524.37 103,-1512.32 103,-1500.1"/>
<polygon fill="black" stroke="black" points="106.5,-1500.02 103,-1490.02 99.5001,-1500.02 106.5,-1500.02"/>
</g>
<!-- p4 -->
<g id="node6" class="node"><title>p4</title>
<ellipse fill="none" stroke="black" cx="106" cy="-1363" rx="18" ry="18"/>
<text text-anchor="middle" x="106" y="-1359.3" font-family="Times,serif" font-size="14.00">p4</text>
</g>
<!-- transition3 -->
<g id="node9" class="node"><title>transition3</title>
<polygon fill="none" stroke="black" points="125,-1309 89,-1309 89,-1308 125,-1308 125,-1309"/>
<text text-anchor="middle" x="72.5" y="-1312.8" font-family="Times,serif" font-size="14.00">dreq+</text>
</g>
<!-- p4&#45;&gt;transition3 -->
<g id="edge7" class="edge"><title>p4&#45;&gt;transition3</title>
<path fill="none" stroke="black" d="M106.322,-1344.94C106.521,-1334.39 106.764,-1321.53 106.898,-1314.41"/>
<polygon fill="none" stroke="black" points="108.654,-1314.09 106.999,-1309.06 105.155,-1314.03 108.654,-1314.09"/>
</g>
<!-- transition2&#45;&gt;p4 -->
<g id="edge6" class="edge"><title>transition2&#45;&gt;p4</title>
<path fill="none" stroke="black" d="M104.006,-1416.85C104.062,-1415.37 104.516,-1403.32 104.977,-1391.1"/>
<polygon fill="black" stroke="black" points="108.478,-1391.15 105.358,-1381.02 101.483,-1390.89 108.478,-1391.15"/>
</g>
<!-- p5 -->
<g id="node8" class="node"><title>p5</title>
<ellipse fill="none" stroke="black" cx="115" cy="-1254" rx="18" ry="18"/>
<text text-anchor="middle" x="115" y="-1250.3" font-family="Times,serif" font-size="14.00">p5</text>
</g>
<!-- transition4 -->
<g id="node11" class="node"><title>transition4</title>
<polygon fill="none" stroke="black" points="137,-1200 101,-1200 101,-1199 137,-1199 137,-1200"/>
<text text-anchor="middle" x="83.5" y="-1203.8" font-family="Times,serif" font-size="14.00">dack+</text>
</g>
<!-- p5&#45;&gt;transition4 -->
<g id="edge9" class="edge"><title>p5&#45;&gt;transition4</title>
<path fill="none" stroke="black" d="M116.288,-1235.94C117.084,-1225.39 118.054,-1212.53 118.592,-1205.41"/>
<polygon fill="none" stroke="black" points="120.364,-1205.18 118.996,-1200.06 116.874,-1204.91 120.364,-1205.18"/>
</g>
<!-- transition3&#45;&gt;p5 -->
<g id="edge8" class="edge"><title>transition3&#45;&gt;p5</title>
<path fill="none" stroke="black" d="M107.023,-1307.85C107.246,-1306.37 109.065,-1294.32 110.909,-1282.1"/>
<polygon fill="black" stroke="black" points="114.398,-1282.44 112.43,-1272.02 107.477,-1281.39 114.398,-1282.44"/>
</g>
<!-- p6 -->
<g id="node10" class="node"><title>p6</title>
<ellipse fill="none" stroke="black" cx="151" cy="-1145" rx="18" ry="18"/>
<text text-anchor="middle" x="151" y="-1141.3" font-family="Times,serif" font-size="14.00">p6</text>
</g>
<!-- transition5 -->
<g id="node13" class="node"><title>transition5</title>
<polygon fill="none" stroke="black" points="212,-1091 176,-1091 176,-1090 212,-1090 212,-1091"/>
<text text-anchor="middle" x="156.5" y="-1094.8" font-family="Times,serif" font-size="14.00">ready+</text>
</g>
<!-- p6&#45;&gt;transition5 -->
<g id="edge11" class="edge"><title>p6&#45;&gt;transition5</title>
<path fill="none" stroke="black" d="M161.851,-1130.63C171.299,-1118.98 184.417,-1102.81 190.564,-1095.23"/>
<polygon fill="none" stroke="black" points="192.153,-1096.05 193.944,-1091.07 189.435,-1093.85 192.153,-1096.05"/>
</g>
<!-- transition4&#45;&gt;p6 -->
<g id="edge10" class="edge"><title>transition4&#45;&gt;p6</title>
<path fill="none" stroke="black" d="M119.092,-1198.85C120.069,-1197.23 128.674,-1182.98 136.701,-1169.68"/>
<polygon fill="black" stroke="black" points="139.892,-1171.17 142.065,-1160.8 133.9,-1167.55 139.892,-1171.17"/>
</g>
<!-- p7 -->
<g id="node12" class="node"><title>p7</title>
<ellipse fill="none" stroke="black" cx="194" cy="-1036" rx="18" ry="18"/>
<text text-anchor="middle" x="194" y="-1032.3" font-family="Times,serif" font-size="14.00">p7</text>
</g>
<!-- transition6 -->
<g id="node15" class="node"><title>transition6</title>
<polygon fill="none" stroke="black" points="185,-982 149,-982 149,-981 185,-981 185,-982"/>
<text text-anchor="middle" x="114" y="-985.8" font-family="Times,serif" font-size="14.00">[done+]dtc+</text>
</g>
<!-- p7&#45;&gt;transition6 -->
<g id="edge13" class="edge"><title>p7&#45;&gt;transition6</title>
<path fill="none" stroke="black" d="M186.19,-1019.67C180.517,-1008.53 173.204,-994.177 169.455,-986.818"/>
<polygon fill="none" stroke="black" points="170.861,-985.724 167.032,-982.064 167.743,-987.313 170.861,-985.724"/>
</g>
<!-- transition16 -->
<g id="node33" class="node"><title>transition16</title>
<polygon fill="none" stroke="black" points="239,-982 203,-982 203,-981 239,-981 239,-982"/>
<text text-anchor="middle" x="169.5" y="-969.8" font-family="Times,serif" font-size="14.00">[done&#45;]dtc+</text>
</g>
<!-- p7&#45;&gt;transition16 -->
<g id="edge33" class="edge"><title>p7&#45;&gt;transition16</title>
<path fill="none" stroke="black" d="M201.81,-1019.67C207.483,-1008.53 214.796,-994.177 218.545,-986.818"/>
<polygon fill="none" stroke="black" points="220.257,-987.313 220.968,-982.064 217.139,-985.724 220.257,-987.313"/>
</g>
<!-- transition5&#45;&gt;p7 -->
<g id="edge12" class="edge"><title>transition5&#45;&gt;p7</title>
<path fill="none" stroke="black" d="M194,-1089.85C194,-1088.37 194,-1076.32 194,-1064.1"/>
<polygon fill="black" stroke="black" points="197.5,-1064.02 194,-1054.02 190.5,-1064.02 197.5,-1064.02"/>
</g>
<!-- p8 -->
<g id="node14" class="node"><title>p8</title>
<ellipse fill="none" stroke="black" cx="167" cy="-927" rx="18" ry="18"/>
<text text-anchor="middle" x="167" y="-923.3" font-family="Times,serif" font-size="14.00">p8</text>
</g>
<!-- transition7 -->
<g id="node17" class="node"><title>transition7</title>
<polygon fill="none" stroke="black" points="185,-873 149,-873 149,-872 185,-872 185,-873"/>
<text text-anchor="middle" x="116" y="-876.8" font-family="Times,serif" font-size="14.00">ready&#45;dreq&#45;</text>
</g>
<!-- p8&#45;&gt;transition7 -->
<g id="edge15" class="edge"><title>p8&#45;&gt;transition7</title>
<path fill="none" stroke="black" d="M167,-908.939C167,-898.385 167,-885.534 167,-878.412"/>
<polygon fill="none" stroke="black" points="168.75,-878.059 167,-873.059 165.25,-878.059 168.75,-878.059"/>
</g>
<!-- transition6&#45;&gt;p8 -->
<g id="edge14" class="edge"><title>transition6&#45;&gt;p8</title>
<path fill="none" stroke="black" d="M167,-980.848C167,-979.368 167,-967.319 167,-955.1"/>
<polygon fill="black" stroke="black" points="170.5,-955.025 167,-945.025 163.5,-955.025 170.5,-955.025"/>
</g>
<!-- p9 -->
<g id="node16" class="node"><title>p9</title>
<ellipse fill="none" stroke="black" cx="167" cy="-818" rx="18" ry="18"/>
<text text-anchor="middle" x="167" y="-814.3" font-family="Times,serif" font-size="14.00">p9</text>
</g>
<!-- transition8 -->
<g id="node19" class="node"><title>transition8</title>
<polygon fill="none" stroke="black" points="185,-764 149,-764 149,-763 185,-763 185,-764"/>
<text text-anchor="middle" x="122.5" y="-767.8" font-family="Times,serif" font-size="14.00">dack&#45;dtc&#45;</text>
</g>
<!-- p9&#45;&gt;transition8 -->
<g id="edge17" class="edge"><title>p9&#45;&gt;transition8</title>
<path fill="none" stroke="black" d="M167,-799.939C167,-789.385 167,-776.534 167,-769.412"/>
<polygon fill="none" stroke="black" points="168.75,-769.059 167,-764.059 165.25,-769.059 168.75,-769.059"/>
</g>
<!-- transition7&#45;&gt;p9 -->
<g id="edge16" class="edge"><title>transition7&#45;&gt;p9</title>
<path fill="none" stroke="black" d="M167,-871.848C167,-870.368 167,-858.319 167,-846.1"/>
<polygon fill="black" stroke="black" points="170.5,-846.025 167,-836.025 163.5,-846.025 170.5,-846.025"/>
</g>
<!-- p10 -->
<g id="node18" class="node"><title>p10</title>
<ellipse fill="none" stroke="black" cx="167" cy="-709" rx="18" ry="18"/>
<text text-anchor="middle" x="167" y="-705.3" font-family="Times,serif" font-size="14.00">p10</text>
</g>
<!-- transition9 -->
<g id="node21" class="node"><title>transition9</title>
<polygon fill="none" stroke="black" points="185,-655 149,-655 149,-654 185,-654 185,-655"/>
<text text-anchor="middle" x="127" y="-658.8" font-family="Times,serif" font-size="14.00">regout+</text>
</g>
<!-- p10&#45;&gt;transition9 -->
<g id="edge19" class="edge"><title>p10&#45;&gt;transition9</title>
<path fill="none" stroke="black" d="M167,-690.939C167,-680.385 167,-667.534 167,-660.412"/>
<polygon fill="none" stroke="black" points="168.75,-660.059 167,-655.059 165.25,-660.059 168.75,-660.059"/>
</g>
<!-- transition8&#45;&gt;p10 -->
<g id="edge18" class="edge"><title>transition8&#45;&gt;p10</title>
<path fill="none" stroke="black" d="M167,-762.848C167,-761.368 167,-749.319 167,-737.1"/>
<polygon fill="black" stroke="black" points="170.5,-737.025 167,-727.025 163.5,-737.025 170.5,-737.025"/>
</g>
<!-- p11 -->
<g id="node20" class="node"><title>p11</title>
<ellipse fill="none" stroke="black" cx="166" cy="-600" rx="18" ry="18"/>
<text text-anchor="middle" x="166" y="-596.3" font-family="Times,serif" font-size="14.00">p11</text>
</g>
<!-- transition10 -->
<g id="node23" class="node"><title>transition10</title>
<polygon fill="none" stroke="black" points="184,-546 148,-546 148,-545 184,-545 184,-546"/>
<text text-anchor="middle" x="128.5" y="-549.8" font-family="Times,serif" font-size="14.00">ackin+</text>
</g>
<!-- p11&#45;&gt;transition10 -->
<g id="edge21" class="edge"><title>p11&#45;&gt;transition10</title>
<path fill="none" stroke="black" d="M166,-581.939C166,-571.385 166,-558.534 166,-551.412"/>
<polygon fill="none" stroke="black" points="167.75,-551.059 166,-546.059 164.25,-551.059 167.75,-551.059"/>
</g>
<!-- transition9&#45;&gt;p11 -->
<g id="edge20" class="edge"><title>transition9&#45;&gt;p11</title>
<path fill="none" stroke="black" d="M166.997,-653.848C166.969,-652.368 166.742,-640.319 166.511,-628.1"/>
<polygon fill="black" stroke="black" points="170.009,-627.957 166.321,-618.025 163.011,-628.089 170.009,-627.957"/>
</g>
<!-- p12 -->
<g id="node22" class="node"><title>p12</title>
<ellipse fill="none" stroke="black" cx="166" cy="-491" rx="18" ry="18"/>
<text text-anchor="middle" x="166" y="-487.3" font-family="Times,serif" font-size="14.00">p12</text>
</g>
<!-- transition11 -->
<g id="node25" class="node"><title>transition11</title>
<polygon fill="none" stroke="black" points="184,-437 148,-437 148,-436 184,-436 184,-437"/>
<text text-anchor="middle" x="127.5" y="-440.8" font-family="Times,serif" font-size="14.00">regout&#45;</text>
</g>
<!-- p12&#45;&gt;transition11 -->
<g id="edge23" class="edge"><title>p12&#45;&gt;transition11</title>
<path fill="none" stroke="black" d="M166,-472.939C166,-462.385 166,-449.534 166,-442.412"/>
<polygon fill="none" stroke="black" points="167.75,-442.059 166,-437.059 164.25,-442.059 167.75,-442.059"/>
</g>
<!-- transition10&#45;&gt;p12 -->
<g id="edge22" class="edge"><title>transition10&#45;&gt;p12</title>
<path fill="none" stroke="black" d="M166,-544.848C166,-543.368 166,-531.319 166,-519.1"/>
<polygon fill="black" stroke="black" points="169.5,-519.025 166,-509.025 162.5,-519.025 169.5,-519.025"/>
</g>
<!-- p13 -->
<g id="node24" class="node"><title>p13</title>
<ellipse fill="none" stroke="black" cx="166" cy="-382" rx="18" ry="18"/>
<text text-anchor="middle" x="166" y="-378.3" font-family="Times,serif" font-size="14.00">p13</text>
</g>
<!-- transition12 -->
<g id="node27" class="node"><title>transition12</title>
<polygon fill="none" stroke="black" points="159,-328 123,-328 123,-327 159,-327 159,-328"/>
<text text-anchor="middle" x="79" y="-331.8" font-family="Times,serif" font-size="14.00">[empty+]ackin&#45;</text>
</g>
<!-- p13&#45;&gt;transition12 -->
<g id="edge25" class="edge"><title>p13&#45;&gt;transition12</title>
<path fill="none" stroke="black" d="M158.634,-365.385C153.388,-354.263 146.681,-340.044 143.247,-332.764"/>
<polygon fill="none" stroke="black" points="144.746,-331.838 141.03,-328.063 141.58,-333.332 144.746,-331.838"/>
</g>
<!-- transition13 -->
<g id="node30" class="node"><title>transition13</title>
<polygon fill="none" stroke="black" points="213,-328 177,-328 177,-327 213,-327 213,-328"/>
<text text-anchor="middle" x="135" y="-315.8" font-family="Times,serif" font-size="14.00">[empty&#45;]ackin&#45;</text>
</g>
<!-- p13&#45;&gt;transition13 -->
<g id="edge29" class="edge"><title>p13&#45;&gt;transition13</title>
<path fill="none" stroke="black" d="M174.233,-365.954C180.332,-354.807 188.264,-340.311 192.334,-332.873"/>
<polygon fill="none" stroke="black" points="194.1,-333.291 194.965,-328.064 191.029,-331.611 194.1,-333.291"/>
</g>
<!-- transition11&#45;&gt;p13 -->
<g id="edge24" class="edge"><title>transition11&#45;&gt;p13</title>
<path fill="none" stroke="black" d="M166,-435.848C166,-434.368 166,-422.319 166,-410.1"/>
<polygon fill="black" stroke="black" points="169.5,-410.025 166,-400.025 162.5,-410.025 169.5,-410.025"/>
</g>
<!-- p14 -->
<g id="node26" class="node"><title>p14</title>
<ellipse fill="none" stroke="black" cx="141" cy="-273" rx="18" ry="18"/>
<text text-anchor="middle" x="141" y="-269.3" font-family="Times,serif" font-size="14.00">p14</text>
</g>
<!-- transition14 -->
<g id="node28" class="node"><title>transition14</title>
<polygon fill="none" stroke="black" points="96,-219 60,-219 60,-218 96,-218 96,-219"/>
<text text-anchor="middle" x="30" y="-222.8" font-family="Times,serif" font-size="14.00">endmaint+</text>
</g>
<!-- p14&#45;&gt;transition14 -->
<g id="edge27" class="edge"><title>p14&#45;&gt;transition14</title>
<path fill="none" stroke="black" d="M127.639,-260.76C113.223,-248.632 91.118,-230.036 82.072,-222.426"/>
<polygon fill="none" stroke="black" points="83.0427,-220.955 78.0899,-219.076 80.7895,-223.634 83.0427,-220.955"/>
</g>
<!-- transition12&#45;&gt;p14 -->
<g id="edge26" class="edge"><title>transition12&#45;&gt;p14</title>
<path fill="none" stroke="black" d="M141,-326.848C141,-325.368 141,-313.319 141,-301.1"/>
<polygon fill="black" stroke="black" points="144.5,-301.025 141,-291.025 137.5,-301.025 144.5,-301.025"/>
</g>
<!-- transition14&#45;&gt;p1 -->
<g id="edge28" class="edge"><title>transition14&#45;&gt;p1</title>
<path fill="none" stroke="black" d="M77.9848,-219.043C77.3489,-220.844 57,-278.865 57,-327 57,-1582 57,-1582 57,-1582 57,-1610.25 64.7572,-1641.77 71.2616,-1663.24"/>
<polygon fill="black" stroke="black" points="67.967,-1664.43 74.3146,-1672.92 74.6424,-1662.33 67.967,-1664.43"/>
</g>
<!-- p15 -->
<g id="node29" class="node"><title>p15</title>
<ellipse fill="none" stroke="black" cx="195" cy="-273" rx="18" ry="18"/>
<text text-anchor="middle" x="195" y="-269.3" font-family="Times,serif" font-size="14.00">p15</text>
</g>
<!-- transition15 -->
<g id="node31" class="node"><title>transition15</title>
<polygon fill="none" stroke="black" points="192,-219 156,-219 156,-218 192,-218 192,-219"/>
<text text-anchor="middle" x="134" y="-222.8" font-family="Times,serif" font-size="14.00">regout+</text>
</g>
<!-- p15&#45;&gt;transition15 -->
<g id="edge31" class="edge"><title>p15&#45;&gt;transition15</title>
<path fill="none" stroke="black" d="M188.699,-256.098C184.392,-245.228 178.957,-231.51 176.052,-224.179"/>
<polygon fill="none" stroke="black" points="177.493,-223.066 174.025,-219.062 174.24,-224.355 177.493,-223.066"/>
</g>
<!-- transition13&#45;&gt;p15 -->
<g id="edge30" class="edge"><title>transition13&#45;&gt;p15</title>
<path fill="none" stroke="black" d="M195,-326.848C195,-325.368 195,-313.319 195,-301.1"/>
<polygon fill="black" stroke="black" points="198.5,-301.025 195,-291.025 191.5,-301.025 198.5,-301.025"/>
</g>
<!-- transition15&#45;&gt;p11 -->
<g id="edge32" class="edge"><title>transition15&#45;&gt;p11</title>
<path fill="none" stroke="black" d="M173.881,-219.033C171.439,-219.709 132.093,-230.911 114,-255 94.1244,-281.463 95,-293.905 95,-327 95,-492 95,-492 95,-492 95,-528.374 123.839,-561.846 144.758,-581.34"/>
<polygon fill="black" stroke="black" points="142.526,-584.04 152.31,-588.104 147.196,-578.825 142.526,-584.04"/>
</g>
<!-- p25 -->
<g id="node32" class="node"><title>p25</title>
<ellipse fill="none" stroke="black" cx="222" cy="-927" rx="18" ry="18"/>
<text text-anchor="middle" x="222" y="-923.3" font-family="Times,serif" font-size="14.00">p25</text>
</g>
<!-- transition17 -->
<g id="node35" class="node"><title>transition17</title>
<polygon fill="none" stroke="black" points="241,-873 205,-873 205,-872 241,-872 241,-873"/>
<text text-anchor="middle" x="187" y="-876.8" font-family="Times,serif" font-size="14.00">ready&#45;</text>
</g>
<!-- p25&#45;&gt;transition17 -->
<g id="edge35" class="edge"><title>p25&#45;&gt;transition17</title>
<path fill="none" stroke="black" d="M222.322,-908.939C222.521,-898.385 222.764,-885.534 222.898,-878.412"/>
<polygon fill="none" stroke="black" points="224.654,-878.091 222.999,-873.059 221.155,-878.025 224.654,-878.091"/>
</g>
<!-- transition16&#45;&gt;p25 -->
<g id="edge34" class="edge"><title>transition16&#45;&gt;p25</title>
<path fill="none" stroke="black" d="M221.003,-980.848C221.031,-979.368 221.258,-967.319 221.489,-955.1"/>
<polygon fill="black" stroke="black" points="224.989,-955.089 221.679,-945.025 217.991,-954.957 224.989,-955.089"/>
</g>
<!-- p16 -->
<g id="node34" class="node"><title>p16</title>
<ellipse fill="none" stroke="black" cx="223" cy="-818" rx="18" ry="18"/>
<text text-anchor="middle" x="223" y="-814.3" font-family="Times,serif" font-size="14.00">p16</text>
</g>
<!-- transition18 -->
<g id="node37" class="node"><title>transition18</title>
<polygon fill="none" stroke="black" points="241,-764 205,-764 205,-763 241,-763 241,-764"/>
<text text-anchor="middle" x="178.5" y="-767.8" font-family="Times,serif" font-size="14.00">dack&#45;dtc&#45;</text>
</g>
<!-- p16&#45;&gt;transition18 -->
<g id="edge37" class="edge"><title>p16&#45;&gt;transition18</title>
<path fill="none" stroke="black" d="M223,-799.939C223,-789.385 223,-776.534 223,-769.412"/>
<polygon fill="none" stroke="black" points="224.75,-769.059 223,-764.059 221.25,-769.059 224.75,-769.059"/>
</g>
<!-- transition17&#45;&gt;p16 -->
<g id="edge36" class="edge"><title>transition17&#45;&gt;p16</title>
<path fill="none" stroke="black" d="M223,-871.848C223,-870.368 223,-858.319 223,-846.1"/>
<polygon fill="black" stroke="black" points="226.5,-846.025 223,-836.025 219.5,-846.025 226.5,-846.025"/>
</g>
<!-- p17 -->
<g id="node36" class="node"><title>p17</title>
<ellipse fill="none" stroke="black" cx="223" cy="-709" rx="18" ry="18"/>
<text text-anchor="middle" x="223" y="-705.3" font-family="Times,serif" font-size="14.00">p17</text>
</g>
<!-- transition19 -->
<g id="node39" class="node"><title>transition19</title>
<polygon fill="none" stroke="black" points="242,-655 206,-655 206,-654 242,-654 242,-655"/>
<text text-anchor="middle" x="184" y="-658.8" font-family="Times,serif" font-size="14.00">regout+</text>
</g>
<!-- p17&#45;&gt;transition19 -->
<g id="edge39" class="edge"><title>p17&#45;&gt;transition19</title>
<path fill="none" stroke="black" d="M223.322,-690.939C223.521,-680.385 223.764,-667.534 223.898,-660.412"/>
<polygon fill="none" stroke="black" points="225.654,-660.091 223.999,-655.059 222.155,-660.025 225.654,-660.091"/>
</g>
<!-- transition18&#45;&gt;p17 -->
<g id="edge38" class="edge"><title>transition18&#45;&gt;p17</title>
<path fill="none" stroke="black" d="M223,-762.848C223,-761.368 223,-749.319 223,-737.1"/>
<polygon fill="black" stroke="black" points="226.5,-737.025 223,-727.025 219.5,-737.025 226.5,-737.025"/>
</g>
<!-- p18 -->
<g id="node38" class="node"><title>p18</title>
<ellipse fill="none" stroke="black" cx="230" cy="-600" rx="18" ry="18"/>
<text text-anchor="middle" x="230" y="-596.3" font-family="Times,serif" font-size="14.00">p18</text>
</g>
<!-- transition20 -->
<g id="node41" class="node"><title>transition20</title>
<polygon fill="none" stroke="black" points="248,-546 212,-546 212,-545 248,-545 248,-546"/>
<text text-anchor="middle" x="176" y="-533.8" font-family="Times,serif" font-size="14.00">dack*ackin+</text>
</g>
<!-- p18&#45;&gt;transition20 -->
<g id="edge41" class="edge"><title>p18&#45;&gt;transition20</title>
<path fill="none" stroke="black" d="M230,-581.939C230,-571.385 230,-558.534 230,-551.412"/>
<polygon fill="none" stroke="black" points="231.75,-551.059 230,-546.059 228.25,-551.059 231.75,-551.059"/>
</g>
<!-- transition19&#45;&gt;p18 -->
<g id="edge40" class="edge"><title>transition19&#45;&gt;p18</title>
<path fill="none" stroke="black" d="M224.017,-653.848C224.185,-652.368 225.549,-640.319 226.932,-628.1"/>
<polygon fill="black" stroke="black" points="230.425,-628.355 228.073,-618.025 223.47,-627.568 230.425,-628.355"/>
</g>
<!-- p19 -->
<g id="node40" class="node"><title>p19</title>
<ellipse fill="none" stroke="black" cx="242" cy="-491" rx="18" ry="18"/>
<text text-anchor="middle" x="242" y="-487.3" font-family="Times,serif" font-size="14.00">p19</text>
</g>
<!-- transition21 -->
<g id="node43" class="node"><title>transition21</title>
<polygon fill="none" stroke="black" points="263,-437 227,-437 227,-436 263,-436 263,-437"/>
<text text-anchor="middle" x="206.5" y="-440.8" font-family="Times,serif" font-size="14.00">regout&#45;</text>
</g>
<!-- p19&#45;&gt;transition21 -->
<g id="edge43" class="edge"><title>p19&#45;&gt;transition21</title>
<path fill="none" stroke="black" d="M242.966,-472.939C243.563,-462.385 244.291,-449.534 244.694,-442.412"/>
<polygon fill="none" stroke="black" points="246.461,-442.15 244.997,-437.059 242.967,-441.952 246.461,-442.15"/>
</g>
<!-- transition20&#45;&gt;p19 -->
<g id="edge42" class="edge"><title>transition20&#45;&gt;p19</title>
<path fill="none" stroke="black" d="M230.034,-544.848C230.375,-543.344 233.188,-530.919 236.001,-518.496"/>
<polygon fill="black" stroke="black" points="239.415,-519.268 238.209,-508.742 232.587,-517.722 239.415,-519.268"/>
</g>
<!-- p20 -->
<g id="node42" class="node"><title>p20</title>
<ellipse fill="none" stroke="black" cx="295" cy="-382" rx="18" ry="18"/>
<text text-anchor="middle" x="295" y="-378.3" font-family="Times,serif" font-size="14.00">p20</text>
</g>
<!-- transition26 -->
<g id="node45" class="node"><title>transition26</title>
<polygon fill="none" stroke="black" points="359,-328 323,-328 323,-327 359,-327 359,-328"/>
<text text-anchor="middle" x="262" y="-331.8" font-family="Times,serif" font-size="14.00">[empty+]dack+ackin&#45;</text>
</g>
<!-- p20&#45;&gt;transition26 -->
<g id="edge45" class="edge"><title>p20&#45;&gt;transition26</title>
<path fill="none" stroke="black" d="M306.371,-367.899C316.474,-356.258 330.64,-339.936 337.285,-332.281"/>
<polygon fill="none" stroke="black" points="338.984,-332.993 340.939,-328.07 336.34,-330.699 338.984,-332.993"/>
</g>
<!-- transition22 -->
<g id="node47" class="node"><title>transition22</title>
<polygon fill="none" stroke="black" points="267,-328 231,-328 231,-327 267,-327 267,-328"/>
<text text-anchor="middle" x="290" y="-315.8" font-family="Times,serif" font-size="14.00">[empty&#45;]dack*ackin&#45;</text>
</g>
<!-- p20&#45;&gt;transition22 -->
<g id="edge48" class="edge"><title>p20&#45;&gt;transition22</title>
<path fill="none" stroke="black" d="M283.629,-367.899C273.526,-356.258 259.36,-339.936 252.715,-332.281"/>
<polygon fill="none" stroke="black" points="253.66,-330.699 249.061,-328.07 251.016,-332.993 253.66,-330.699"/>
</g>
<!-- transition21&#45;&gt;p20 -->
<g id="edge44" class="edge"><title>transition21&#45;&gt;p20</title>
<path fill="none" stroke="black" d="M245.143,-435.848C246.806,-434.086 262.606,-417.338 275.98,-403.161"/>
<polygon fill="black" stroke="black" points="278.739,-405.337 283.056,-395.661 273.647,-400.533 278.739,-405.337"/>
</g>
<!-- p24 -->
<g id="node44" class="node"><title>p24</title>
<ellipse fill="none" stroke="black" cx="364" cy="-273" rx="18" ry="18"/>
<text text-anchor="middle" x="364" y="-269.3" font-family="Times,serif" font-size="14.00">p24</text>
</g>
<!-- p24&#45;&gt;transition5 -->
<g id="edge47" class="edge"><title>p24&#45;&gt;transition5</title>
<path fill="none" stroke="black" d="M369.685,-290.083C376.496,-310.82 387,-348.129 387,-381 387,-982 387,-982 387,-982 387,-1070.44 230.746,-1087.16 199.427,-1089.63"/>
<polygon fill="none" stroke="black" points="199.008,-1087.9 194.14,-1089.99 199.248,-1091.39 199.008,-1087.9"/>
</g>
<!-- transition26&#45;&gt;p24 -->
<g id="edge46" class="edge"><title>transition26&#45;&gt;p24</title>
<path fill="none" stroke="black" d="M341.066,-326.848C341.738,-325.3 347.429,-312.185 352.974,-299.409"/>
<polygon fill="black" stroke="black" points="356.329,-300.469 357.099,-289.902 349.908,-297.682 356.329,-300.469"/>
</g>
<!-- p21 -->
<g id="node46" class="node"><title>p21</title>
<ellipse fill="none" stroke="black" cx="249" cy="-273" rx="18" ry="18"/>
<text text-anchor="middle" x="249" y="-269.3" font-family="Times,serif" font-size="14.00">p21</text>
</g>
<!-- transition23 -->
<g id="node49" class="node"><title>transition23</title>
<polygon fill="none" stroke="black" points="267,-219 231,-219 231,-218 267,-218 267,-219"/>
<text text-anchor="middle" x="209" y="-222.8" font-family="Times,serif" font-size="14.00">regout+</text>
</g>
<!-- p21&#45;&gt;transition23 -->
<g id="edge50" class="edge"><title>p21&#45;&gt;transition23</title>
<path fill="none" stroke="black" d="M249,-254.939C249,-244.385 249,-231.534 249,-224.412"/>
<polygon fill="none" stroke="black" points="250.75,-224.059 249,-219.059 247.25,-224.059 250.75,-224.059"/>
</g>
<!-- transition22&#45;&gt;p21 -->
<g id="edge49" class="edge"><title>transition22&#45;&gt;p21</title>
<path fill="none" stroke="black" d="M249,-326.848C249,-325.368 249,-313.319 249,-301.1"/>
<polygon fill="black" stroke="black" points="252.5,-301.025 249,-291.025 245.5,-301.025 252.5,-301.025"/>
</g>
<!-- p22 -->
<g id="node48" class="node"><title>p22</title>
<ellipse fill="none" stroke="black" cx="249" cy="-164" rx="18" ry="18"/>
<text text-anchor="middle" x="249" y="-160.3" font-family="Times,serif" font-size="14.00">p22</text>
</g>
<!-- transition24 -->
<g id="node51" class="node"><title>transition24</title>
<polygon fill="none" stroke="black" points="267,-110 231,-110 231,-109 267,-109 267,-110"/>
<text text-anchor="middle" x="195" y="-113.8" font-family="Times,serif" font-size="14.00">dack*ackin+</text>
</g>
<!-- p22&#45;&gt;transition24 -->
<g id="edge52" class="edge"><title>p22&#45;&gt;transition24</title>
<path fill="none" stroke="black" d="M249,-145.939C249,-135.385 249,-122.534 249,-115.412"/>
<polygon fill="none" stroke="black" points="250.75,-115.059 249,-110.059 247.25,-115.059 250.75,-115.059"/>
</g>
<!-- transition23&#45;&gt;p22 -->
<g id="edge51" class="edge"><title>transition23&#45;&gt;p22</title>
<path fill="none" stroke="black" d="M249,-217.848C249,-216.368 249,-204.319 249,-192.1"/>
<polygon fill="black" stroke="black" points="252.5,-192.025 249,-182.025 245.5,-192.025 252.5,-192.025"/>
</g>
<!-- p23 -->
<g id="node50" class="node"><title>p23</title>
<ellipse fill="none" stroke="black" cx="249" cy="-55" rx="18" ry="18"/>
<text text-anchor="middle" x="249" y="-51.3" font-family="Times,serif" font-size="14.00">p23</text>
</g>
<!-- transition25 -->
<g id="node52" class="node"><title>transition25</title>
<polygon fill="none" stroke="black" points="290,-1 254,-1 254,-0 290,-0 290,-1"/>
<text text-anchor="middle" x="233.5" y="-4.8" font-family="Times,serif" font-size="14.00">regout&#45;</text>
</g>
<!-- p23&#45;&gt;transition25 -->
<g id="edge54" class="edge"><title>p23&#45;&gt;transition25</title>
<path fill="none" stroke="black" d="M255.901,-38.0983C260.721,-26.9918 266.831,-12.9118 269.956,-5.7104"/>
<polygon fill="none" stroke="black" points="271.588,-6.34553 271.973,-1.06211 268.377,-4.95216 271.588,-6.34553"/>
</g>
<!-- transition24&#45;&gt;p23 -->
<g id="edge53" class="edge"><title>transition24&#45;&gt;p23</title>
<path fill="none" stroke="black" d="M249,-108.848C249,-107.368 249,-95.3194 249,-83.1004"/>
<polygon fill="black" stroke="black" points="252.5,-83.0247 249,-73.0247 245.5,-83.0248 252.5,-83.0247"/>
</g>
<!-- transition25&#45;&gt;p20 -->
<g id="edge55" class="edge"><title>transition25&#45;&gt;p20</title>
<path fill="none" stroke="black" d="M272.017,-1.04289C272.713,-2.83896 295,-60.6904 295,-109 295,-274 295,-274 295,-274 295,-301.174 295,-332.231 295,-353.86"/>
<polygon fill="black" stroke="black" points="291.5,-353.951 295,-363.951 298.5,-353.951 291.5,-353.951"/>
</g>
</g>
</svg>
