<?xml version="1.0" encoding="UTF-8" standalone="no"?>
<!DOCTYPE svg PUBLIC "-//W3C//DTD SVG 1.1//EN"
 "http://www.w3.org/Graphics/SVG/1.1/DTD/svg11.dtd">
<!-- Generated by graphviz version 2.38.0 (20140413.2041)
 -->
<!-- Title: %3 Pages: 1 -->
<svg width="653pt" height="1239pt"
 viewBox="0.00 0.00 653.00 1239.00" xmlns="http://www.w3.org/2000/svg" xmlns:xlink="http://www.w3.org/1999/xlink">
<g id="graph0" class="graph" transform="scale(1 1) rotate(0) translate(4 1235)">
<title>%3</title>
<polygon fill="white" stroke="none" points="-4,4 -4,-1235 649,-1235 649,4 -4,4"/>
<!-- PL1 -->
<g id="node1" class="node"><title>PL1</title>
<ellipse fill="none" stroke="black" cx="85" cy="-1213" rx="18" ry="18"/>
<text text-anchor="middle" x="85" y="-1209.3" font-family="Times,serif" font-size="14.00">PL1</text>
</g>
<!-- transition5 -->
<g id="node3" class="node"><title>transition5</title>
<polygon fill="none" stroke="black" points="138,-1159 102,-1159 102,-1158 138,-1158 138,-1159"/>
<text text-anchor="middle" x="94.5" y="-1162.8" font-family="Times,serif" font-size="14.00">c+</text>
</g>
<!-- PL1&#45;&gt;transition5 -->
<g id="edge1" class="edge"><title>PL1&#45;&gt;transition5</title>
<path fill="none" stroke="black" d="M94.5639,-1197.52C102.093,-1186.12 112.109,-1170.95 117.023,-1163.51"/>
<polygon fill="none" stroke="black" points="118.661,-1164.2 119.956,-1159.07 115.741,-1162.27 118.661,-1164.2"/>
</g>
<!-- PL9 -->
<g id="node2" class="node"><title>PL9</title>
<ellipse fill="none" stroke="black" cx="355" cy="-1104" rx="18" ry="18"/>
<text text-anchor="middle" x="355" y="-1100.3" font-family="Times,serif" font-size="14.00">PL9</text>
</g>
<!-- transition16 -->
<g id="node5" class="node"><title>transition16</title>
<polygon fill="none" stroke="black" points="537,-1032.5 501,-1032.5 501,-1031.5 537,-1031.5 537,-1032.5"/>
<text text-anchor="middle" x="495" y="-1036.3" font-family="Times,serif" font-size="14.00">b&#45;</text>
</g>
<!-- PL9&#45;&gt;transition16 -->
<g id="edge3" class="edge"><title>PL9&#45;&gt;transition16</title>
<path fill="none" stroke="black" d="M371.325,-1096.03C407.533,-1080.58 493.044,-1044.08 514.202,-1035.05"/>
<polygon fill="none" stroke="black" points="515.011,-1036.61 518.923,-1033.03 513.637,-1033.39 515.011,-1036.61"/>
</g>
<!-- transition5&#45;&gt;PL9 -->
<g id="edge2" class="edge"><title>transition5&#45;&gt;PL9</title>
<path fill="none" stroke="black" d="M120.043,-1157.99C122.886,-1157.35 266.608,-1124.94 327.839,-1111.13"/>
<polygon fill="black" stroke="black" points="328.61,-1114.54 337.595,-1108.93 327.07,-1107.71 328.61,-1114.54"/>
</g>
<!-- PL30 -->
<g id="node30" class="node"><title>PL30</title>
<ellipse fill="none" stroke="black" cx="161" cy="-1032" rx="18" ry="18"/>
<text text-anchor="middle" x="161" y="-1028.3" font-family="Times,serif" font-size="14.00">PL30</text>
</g>
<!-- transition5&#45;&gt;PL30 -->
<g id="edge33" class="edge"><title>transition5&#45;&gt;PL30</title>
<path fill="none" stroke="black" d="M120.03,-1157.91C120.899,-1155.26 140.649,-1095.05 152.405,-1059.2"/>
<polygon fill="black" stroke="black" points="155.836,-1059.97 155.627,-1049.38 149.184,-1057.79 155.836,-1059.97"/>
</g>
<!-- PL10 -->
<g id="node4" class="node"><title>PL10</title>
<ellipse fill="none" stroke="black" cx="487" cy="-960" rx="18" ry="18"/>
<text text-anchor="middle" x="487" y="-956.3" font-family="Times,serif" font-size="14.00">PL10</text>
</g>
<!-- transition15 -->
<g id="node7" class="node"><title>transition15</title>
<polygon fill="none" stroke="black" points="486,-888.5 450,-888.5 450,-887.5 486,-887.5 486,-888.5"/>
<text text-anchor="middle" x="442.5" y="-892.3" font-family="Times,serif" font-size="14.00">a+</text>
</g>
<!-- PL10&#45;&gt;transition15 -->
<g id="edge5" class="edge"><title>PL10&#45;&gt;transition15</title>
<path fill="none" stroke="black" d="M482.497,-942.411C478.245,-926.745 472.125,-904.198 469.4,-894.159"/>
<polygon fill="none" stroke="black" points="471.024,-893.461 468.026,-889.094 467.647,-894.378 471.024,-893.461"/>
</g>
<!-- transition16&#45;&gt;PL10 -->
<g id="edge4" class="edge"><title>transition16&#45;&gt;PL10</title>
<path fill="none" stroke="black" d="M518.977,-1030.95C518.404,-1029.7 507.346,-1005.51 498.393,-985.921"/>
<polygon fill="black" stroke="black" points="501.562,-984.436 494.221,-976.797 495.196,-987.347 501.562,-984.436"/>
</g>
<!-- PL29 -->
<g id="node48" class="node"><title>PL29</title>
<ellipse fill="none" stroke="black" cx="627" cy="-888" rx="18" ry="18"/>
<text text-anchor="middle" x="627" y="-884.3" font-family="Times,serif" font-size="14.00">PL29</text>
</g>
<!-- transition16&#45;&gt;PL29 -->
<g id="edge59" class="edge"><title>transition16&#45;&gt;PL29</title>
<path fill="none" stroke="black" d="M519.137,-1030.94C521.954,-1029.64 567.39,-1008.4 591,-978 605.405,-959.451 614.859,-934.358 620.448,-915.545"/>
<polygon fill="black" stroke="black" points="623.845,-916.393 623.163,-905.82 617.103,-914.511 623.845,-916.393"/>
</g>
<!-- PL11 -->
<g id="node6" class="node"><title>PL11</title>
<ellipse fill="none" stroke="black" cx="399" cy="-816" rx="18" ry="18"/>
<text text-anchor="middle" x="399" y="-812.3" font-family="Times,serif" font-size="14.00">PL11</text>
</g>
<!-- transition10 -->
<g id="node9" class="node"><title>transition10</title>
<polygon fill="none" stroke="black" points="413,-762 377,-762 377,-761 413,-761 413,-762"/>
<text text-anchor="middle" x="371.5" y="-765.8" font-family="Times,serif" font-size="14.00">c&#45;</text>
</g>
<!-- PL11&#45;&gt;transition10 -->
<g id="edge7" class="edge"><title>PL11&#45;&gt;transition10</title>
<path fill="none" stroke="black" d="M397.712,-797.939C396.916,-787.385 395.946,-774.534 395.408,-767.412"/>
<polygon fill="none" stroke="black" points="397.126,-766.913 395.004,-762.059 393.636,-767.177 397.126,-766.913"/>
</g>
<!-- transition15&#45;&gt;PL11 -->
<g id="edge6" class="edge"><title>transition15&#45;&gt;PL11</title>
<path fill="none" stroke="black" d="M467.95,-886.949C466.604,-885.584 438.373,-856.944 418.458,-836.74"/>
<polygon fill="black" stroke="black" points="420.819,-834.149 411.306,-829.484 415.833,-839.063 420.819,-834.149"/>
</g>
<!-- PL22 -->
<g id="node37" class="node"><title>PL22</title>
<ellipse fill="none" stroke="black" cx="491" cy="-816" rx="18" ry="18"/>
<text text-anchor="middle" x="491" y="-812.3" font-family="Times,serif" font-size="14.00">PL22</text>
</g>
<!-- transition15&#45;&gt;PL22 -->
<g id="edge45" class="edge"><title>transition15&#45;&gt;PL22</title>
<path fill="none" stroke="black" d="M468.017,-886.949C468.42,-885.722 476.056,-862.482 482.417,-843.122"/>
<polygon fill="black" stroke="black" points="485.786,-844.082 485.582,-833.489 479.135,-841.897 485.786,-844.082"/>
</g>
<!-- PL12 -->
<g id="node8" class="node"><title>PL12</title>
<ellipse fill="none" stroke="black" cx="268" cy="-707" rx="18" ry="18"/>
<text text-anchor="middle" x="268" y="-703.3" font-family="Times,serif" font-size="14.00">PL12</text>
</g>
<!-- transition9 -->
<g id="node11" class="node"><title>transition9</title>
<polygon fill="none" stroke="black" points="267,-635.5 231,-635.5 231,-634.5 267,-634.5 267,-635.5"/>
<text text-anchor="middle" x="223.5" y="-639.3" font-family="Times,serif" font-size="14.00">b+</text>
</g>
<!-- PL12&#45;&gt;transition9 -->
<g id="edge9" class="edge"><title>PL12&#45;&gt;transition9</title>
<path fill="none" stroke="black" d="M263.497,-689.411C259.245,-673.745 253.125,-651.198 250.4,-641.159"/>
<polygon fill="none" stroke="black" points="252.024,-640.461 249.026,-636.094 248.647,-641.378 252.024,-640.461"/>
</g>
<!-- transition10&#45;&gt;PL12 -->
<g id="edge8" class="edge"><title>transition10&#45;&gt;PL12</title>
<path fill="none" stroke="black" d="M394.908,-760.962C392.196,-759.83 330.199,-733.957 293.88,-718.8"/>
<polygon fill="black" stroke="black" points="294.964,-715.46 284.388,-714.839 292.268,-721.92 294.964,-715.46"/>
</g>
<!-- PL21 -->
<g id="node36" class="node"><title>PL21</title>
<ellipse fill="none" stroke="black" cx="398" cy="-635" rx="18" ry="18"/>
<text text-anchor="middle" x="398" y="-631.3" font-family="Times,serif" font-size="14.00">PL21</text>
</g>
<!-- transition10&#45;&gt;PL21 -->
<g id="edge43" class="edge"><title>transition10&#45;&gt;PL21</title>
<path fill="none" stroke="black" d="M395.002,-760.909C395.065,-758.29 396.477,-699.468 397.34,-663.491"/>
<polygon fill="black" stroke="black" points="400.847,-663.228 397.588,-653.147 393.849,-663.06 400.847,-663.228"/>
</g>
<!-- PL14 -->
<g id="node10" class="node"><title>PL14</title>
<ellipse fill="none" stroke="black" cx="306" cy="-563" rx="18" ry="18"/>
<text text-anchor="middle" x="306" y="-559.3" font-family="Times,serif" font-size="14.00">PL14</text>
</g>
<!-- transition8 -->
<g id="node13" class="node"><title>transition8</title>
<polygon fill="none" stroke="black" points="378,-509 342,-509 342,-508 378,-508 378,-509"/>
<text text-anchor="middle" x="334" y="-512.8" font-family="Times,serif" font-size="14.00">t3&#45;</text>
</g>
<!-- PL14&#45;&gt;transition8 -->
<g id="edge11" class="edge"><title>PL14&#45;&gt;transition8</title>
<path fill="none" stroke="black" d="M318.524,-549.708C330.598,-537.858 348.153,-520.627 355.977,-512.948"/>
<polygon fill="none" stroke="black" points="357.584,-513.824 359.926,-509.072 355.132,-511.326 357.584,-513.824"/>
</g>
<!-- transition9&#45;&gt;PL14 -->
<g id="edge10" class="edge"><title>transition9&#45;&gt;PL14</title>
<path fill="none" stroke="black" d="M249.041,-633.949C250.126,-632.618 272.331,-605.348 288.69,-585.258"/>
<polygon fill="black" stroke="black" points="291.448,-587.414 295.048,-577.45 286.019,-582.994 291.448,-587.414"/>
</g>
<!-- PL13 -->
<g id="node18" class="node"><title>PL13</title>
<ellipse fill="none" stroke="black" cx="138" cy="-563" rx="18" ry="18"/>
<text text-anchor="middle" x="138" y="-559.3" font-family="Times,serif" font-size="14.00">PL13</text>
</g>
<!-- transition9&#45;&gt;PL13 -->
<g id="edge18" class="edge"><title>transition9&#45;&gt;PL13</title>
<path fill="none" stroke="black" d="M248.92,-633.949C246.577,-632.472 193.639,-599.087 161.756,-578.981"/>
<polygon fill="black" stroke="black" points="163.324,-575.832 152.999,-573.459 159.59,-581.753 163.324,-575.832"/>
</g>
<!-- PL15 -->
<g id="node12" class="node"><title>PL15</title>
<ellipse fill="none" stroke="black" cx="360" cy="-454" rx="18" ry="18"/>
<text text-anchor="middle" x="360" y="-450.3" font-family="Times,serif" font-size="14.00">PL15</text>
</g>
<!-- transition6 -->
<g id="node15" class="node"><title>transition6</title>
<polygon fill="none" stroke="black" points="378,-400 342,-400 342,-399 378,-399 378,-400"/>
<text text-anchor="middle" x="332" y="-403.8" font-family="Times,serif" font-size="14.00">r3+</text>
</g>
<!-- PL15&#45;&gt;transition6 -->
<g id="edge13" class="edge"><title>PL15&#45;&gt;transition6</title>
<path fill="none" stroke="black" d="M360,-435.939C360,-425.385 360,-412.534 360,-405.412"/>
<polygon fill="none" stroke="black" points="361.75,-405.059 360,-400.059 358.25,-405.059 361.75,-405.059"/>
</g>
<!-- transition8&#45;&gt;PL15 -->
<g id="edge12" class="edge"><title>transition8&#45;&gt;PL15</title>
<path fill="none" stroke="black" d="M360,-507.848C360,-506.368 360,-494.319 360,-482.1"/>
<polygon fill="black" stroke="black" points="363.5,-482.025 360,-472.025 356.5,-482.025 363.5,-482.025"/>
</g>
<!-- PL16 -->
<g id="node14" class="node"><title>PL16</title>
<ellipse fill="none" stroke="black" cx="360" cy="-345" rx="18" ry="18"/>
<text text-anchor="middle" x="360" y="-341.3" font-family="Times,serif" font-size="14.00">PL16</text>
</g>
<!-- transition11 -->
<g id="node17" class="node"><title>transition11</title>
<polygon fill="none" stroke="black" points="351,-291 315,-291 315,-290 351,-290 351,-291"/>
<text text-anchor="middle" x="305.5" y="-294.8" font-family="Times,serif" font-size="14.00">t3+</text>
</g>
<!-- PL16&#45;&gt;transition11 -->
<g id="edge15" class="edge"><title>PL16&#45;&gt;transition11</title>
<path fill="none" stroke="black" d="M352.19,-328.67C346.517,-317.534 339.204,-303.177 335.455,-295.818"/>
<polygon fill="none" stroke="black" points="336.861,-294.724 333.032,-291.064 333.743,-296.313 336.861,-294.724"/>
</g>
<!-- transition6&#45;&gt;PL16 -->
<g id="edge14" class="edge"><title>transition6&#45;&gt;PL16</title>
<path fill="none" stroke="black" d="M360,-398.848C360,-397.368 360,-385.319 360,-373.1"/>
<polygon fill="black" stroke="black" points="363.5,-373.025 360,-363.025 356.5,-373.025 363.5,-373.025"/>
</g>
<!-- PL20 -->
<g id="node35" class="node"><title>PL20</title>
<ellipse fill="none" stroke="black" cx="306" cy="-345" rx="18" ry="18"/>
<text text-anchor="middle" x="306" y="-341.3" font-family="Times,serif" font-size="14.00">PL20</text>
</g>
<!-- transition6&#45;&gt;PL20 -->
<g id="edge41" class="edge"><title>transition6&#45;&gt;PL20</title>
<path fill="none" stroke="black" d="M359.845,-398.848C358.012,-397.049 340.262,-379.628 325.635,-365.272"/>
<polygon fill="black" stroke="black" points="327.96,-362.649 318.372,-358.143 323.057,-367.645 327.96,-362.649"/>
</g>
<!-- PL19 -->
<g id="node16" class="node"><title>PL19</title>
<ellipse fill="none" stroke="black" cx="244" cy="-236" rx="18" ry="18"/>
<text text-anchor="middle" x="244" y="-232.3" font-family="Times,serif" font-size="14.00">PL19</text>
</g>
<!-- PL19&#45;&gt;transition9 -->
<g id="edge17" class="edge"><title>PL19&#45;&gt;transition9</title>
<path fill="none" stroke="black" d="M238.448,-253.464C231.931,-274.292 222,-311.38 222,-344 222,-509 222,-509 222,-509 222,-556.644 240.972,-612.246 247.109,-628.987"/>
<polygon fill="none" stroke="black" points="245.579,-629.889 248.98,-633.95 248.854,-628.654 245.579,-629.889"/>
</g>
<!-- transition11&#45;&gt;PL19 -->
<g id="edge16" class="edge"><title>transition11&#45;&gt;PL19</title>
<path fill="none" stroke="black" d="M332.935,-289.962C331.173,-288.912 293.671,-266.579 267.934,-251.253"/>
<polygon fill="black" stroke="black" points="269.455,-248.085 259.072,-245.976 265.874,-254.099 269.455,-248.085"/>
</g>
<!-- PL17 -->
<g id="node32" class="node"><title>PL17</title>
<ellipse fill="none" stroke="black" cx="340" cy="-236" rx="18" ry="18"/>
<text text-anchor="middle" x="340" y="-232.3" font-family="Times,serif" font-size="14.00">PL17</text>
</g>
<!-- transition11&#45;&gt;PL17 -->
<g id="edge37" class="edge"><title>transition11&#45;&gt;PL17</title>
<path fill="none" stroke="black" d="M333.02,-289.848C333.216,-288.368 334.807,-276.319 336.421,-264.1"/>
<polygon fill="black" stroke="black" points="339.912,-264.397 337.751,-254.025 332.972,-263.48 339.912,-264.397"/>
</g>
<!-- transition4 -->
<g id="node19" class="node"><title>transition4</title>
<polygon fill="none" stroke="black" points="64,-509 28,-509 28,-508 64,-508 64,-509"/>
<text text-anchor="middle" x="22.5" y="-512.8" font-family="Times,serif" font-size="14.00">a&#45;</text>
</g>
<!-- PL13&#45;&gt;transition4 -->
<g id="edge19" class="edge"><title>PL13&#45;&gt;transition4</title>
<path fill="none" stroke="black" d="M122.808,-553.248C101.449,-540.944 63.6905,-519.191 50.612,-511.657"/>
<polygon fill="none" stroke="black" points="51.3523,-510.064 46.1462,-509.084 49.6051,-513.097 51.3523,-510.064"/>
</g>
<!-- transition4&#45;&gt;PL1 -->
<g id="edge20" class="edge"><title>transition4&#45;&gt;PL1</title>
<path fill="none" stroke="black" d="M46.0029,-509.051C46.124,-511.166 50,-579.285 50,-634 50,-1105 50,-1105 50,-1105 50,-1134.53 62.189,-1166.47 72.1808,-1187.69"/>
<polygon fill="black" stroke="black" points="69.1592,-1189.48 76.7055,-1196.92 75.4439,-1186.4 69.1592,-1189.48"/>
</g>
<!-- PL2 -->
<g id="node20" class="node"><title>PL2</title>
<ellipse fill="none" stroke="black" cx="46" cy="-454" rx="18" ry="18"/>
<text text-anchor="middle" x="46" y="-450.3" font-family="Times,serif" font-size="14.00">PL2</text>
</g>
<!-- transition4&#45;&gt;PL2 -->
<g id="edge21" class="edge"><title>transition4&#45;&gt;PL2</title>
<path fill="none" stroke="black" d="M46,-507.848C46,-506.368 46,-494.319 46,-482.1"/>
<polygon fill="black" stroke="black" points="49.5001,-482.025 46,-472.025 42.5001,-482.025 49.5001,-482.025"/>
</g>
<!-- transition3 -->
<g id="node22" class="node"><title>transition3</title>
<polygon fill="none" stroke="black" points="64,-400 28,-400 28,-399 64,-399 64,-400"/>
<text text-anchor="middle" x="18.5" y="-403.8" font-family="Times,serif" font-size="14.00">t1+</text>
</g>
<!-- PL2&#45;&gt;transition3 -->
<g id="edge22" class="edge"><title>PL2&#45;&gt;transition3</title>
<path fill="none" stroke="black" d="M46,-435.939C46,-425.385 46,-412.534 46,-405.412"/>
<polygon fill="none" stroke="black" points="47.7501,-405.059 46,-400.059 44.2501,-405.059 47.7501,-405.059"/>
</g>
<!-- PL3 -->
<g id="node21" class="node"><title>PL3</title>
<ellipse fill="none" stroke="black" cx="46" cy="-345" rx="18" ry="18"/>
<text text-anchor="middle" x="46" y="-341.3" font-family="Times,serif" font-size="14.00">PL3</text>
</g>
<!-- transition1 -->
<g id="node24" class="node"><title>transition1</title>
<polygon fill="none" stroke="black" points="64,-291 28,-291 28,-290 64,-290 64,-291"/>
<text text-anchor="middle" x="19.5" y="-294.8" font-family="Times,serif" font-size="14.00">r1&#45;</text>
</g>
<!-- PL3&#45;&gt;transition1 -->
<g id="edge24" class="edge"><title>PL3&#45;&gt;transition1</title>
<path fill="none" stroke="black" d="M46,-326.939C46,-316.385 46,-303.534 46,-296.412"/>
<polygon fill="none" stroke="black" points="47.7501,-296.059 46,-291.059 44.2501,-296.059 47.7501,-296.059"/>
</g>
<!-- transition3&#45;&gt;PL3 -->
<g id="edge23" class="edge"><title>transition3&#45;&gt;PL3</title>
<path fill="none" stroke="black" d="M46,-398.848C46,-397.368 46,-385.319 46,-373.1"/>
<polygon fill="black" stroke="black" points="49.5001,-373.025 46,-363.025 42.5001,-373.025 49.5001,-373.025"/>
</g>
<!-- PL8 -->
<g id="node29" class="node"><title>PL8</title>
<ellipse fill="none" stroke="black" cx="138" cy="-345" rx="18" ry="18"/>
<text text-anchor="middle" x="138" y="-341.3" font-family="Times,serif" font-size="14.00">PL8</text>
</g>
<!-- transition3&#45;&gt;PL8 -->
<g id="edge31" class="edge"><title>transition3&#45;&gt;PL8</title>
<path fill="none" stroke="black" d="M46.0667,-398.962C47.9065,-397.902 87.4128,-375.143 114.032,-359.808"/>
<polygon fill="black" stroke="black" points="115.91,-362.765 122.827,-354.741 112.415,-356.7 115.91,-362.765"/>
</g>
<!-- PL4 -->
<g id="node23" class="node"><title>PL4</title>
<ellipse fill="none" stroke="black" cx="46" cy="-236" rx="18" ry="18"/>
<text text-anchor="middle" x="46" y="-232.3" font-family="Times,serif" font-size="14.00">PL4</text>
</g>
<!-- transition18 -->
<g id="node26" class="node"><title>transition18</title>
<polygon fill="none" stroke="black" points="68,-182 32,-182 32,-181 68,-181 68,-182"/>
<text text-anchor="middle" x="24" y="-185.8" font-family="Times,serif" font-size="14.00">t1&#45;</text>
</g>
<!-- PL4&#45;&gt;transition18 -->
<g id="edge26" class="edge"><title>PL4&#45;&gt;transition18</title>
<path fill="none" stroke="black" d="M47.2876,-217.939C48.0841,-207.385 49.054,-194.534 49.5915,-187.412"/>
<polygon fill="none" stroke="black" points="51.3642,-187.177 49.9955,-182.059 47.8741,-186.913 51.3642,-187.177"/>
</g>
<!-- transition1&#45;&gt;PL4 -->
<g id="edge25" class="edge"><title>transition1&#45;&gt;PL4</title>
<path fill="none" stroke="black" d="M46,-289.848C46,-288.368 46,-276.319 46,-264.1"/>
<polygon fill="black" stroke="black" points="49.5001,-264.025 46,-254.025 42.5001,-264.025 49.5001,-264.025"/>
</g>
<!-- PL5 -->
<g id="node25" class="node"><title>PL5</title>
<ellipse fill="none" stroke="black" cx="50" cy="-127" rx="18" ry="18"/>
<text text-anchor="middle" x="50" y="-123.3" font-family="Times,serif" font-size="14.00">PL5</text>
</g>
<!-- transition2 -->
<g id="node28" class="node"><title>transition2</title>
<polygon fill="none" stroke="black" points="68,-73 32,-73 32,-72 68,-72 68,-73"/>
<text text-anchor="middle" x="22" y="-76.8" font-family="Times,serif" font-size="14.00">r1+</text>
</g>
<!-- PL5&#45;&gt;transition2 -->
<g id="edge28" class="edge"><title>PL5&#45;&gt;transition2</title>
<path fill="none" stroke="black" d="M50,-108.939C50,-98.3852 50,-85.5344 50,-78.4124"/>
<polygon fill="none" stroke="black" points="51.7501,-78.0591 50,-73.0591 48.2501,-78.0592 51.7501,-78.0591"/>
</g>
<!-- transition18&#45;&gt;PL5 -->
<g id="edge27" class="edge"><title>transition18&#45;&gt;PL5</title>
<path fill="none" stroke="black" d="M50,-180.848C50,-179.368 50,-167.319 50,-155.1"/>
<polygon fill="black" stroke="black" points="53.5001,-155.025 50,-145.025 46.5001,-155.025 53.5001,-155.025"/>
</g>
<!-- PL6 -->
<g id="node27" class="node"><title>PL6</title>
<ellipse fill="none" stroke="black" cx="104" cy="-18" rx="18" ry="18"/>
<text text-anchor="middle" x="104" y="-14.3" font-family="Times,serif" font-size="14.00">PL6</text>
</g>
<!-- PL6&#45;&gt;transition3 -->
<g id="edge30" class="edge"><title>PL6&#45;&gt;transition3</title>
<path fill="none" stroke="black" d="M110.427,-35.02C118.126,-55.6899 130,-92.9277 130,-126 130,-237 130,-237 130,-237 130,-307.48 66.5638,-377.805 49.9458,-395.018"/>
<polygon fill="none" stroke="black" points="48.3355,-394.157 46.0609,-398.941 50.8225,-396.619 48.3355,-394.157"/>
</g>
<!-- transition2&#45;&gt;PL6 -->
<g id="edge29" class="edge"><title>transition2&#45;&gt;PL6</title>
<path fill="none" stroke="black" d="M50.1549,-71.848C51.9882,-70.0487 69.7376,-52.6279 84.3647,-38.2717"/>
<polygon fill="black" stroke="black" points="86.943,-40.6453 91.6282,-31.1427 82.0397,-35.6495 86.943,-40.6453"/>
</g>
<!-- PL7 -->
<g id="node31" class="node"><title>PL7</title>
<ellipse fill="none" stroke="black" cx="25" cy="-18" rx="18" ry="18"/>
<text text-anchor="middle" x="25" y="-14.3" font-family="Times,serif" font-size="14.00">PL7</text>
</g>
<!-- transition2&#45;&gt;PL7 -->
<g id="edge35" class="edge"><title>transition2&#45;&gt;PL7</title>
<path fill="none" stroke="black" d="M49.9283,-71.848C49.1862,-70.2747 42.8108,-56.759 36.6939,-43.7912"/>
<polygon fill="black" stroke="black" points="39.8016,-42.1752 32.3698,-34.624 33.4706,-45.1615 39.8016,-42.1752"/>
</g>
<!-- PL8&#45;&gt;transition5 -->
<g id="edge32" class="edge"><title>PL8&#45;&gt;transition5</title>
<path fill="none" stroke="black" d="M127.562,-360.055C113.99,-379.76 92,-417.21 92,-453 92,-1033 92,-1033 92,-1033 92,-1080.72 111.675,-1136.27 118.039,-1152.99"/>
<polygon fill="none" stroke="black" points="116.528,-1153.93 119.98,-1157.95 119.787,-1152.66 116.528,-1153.93"/>
</g>
<!-- PL30&#45;&gt;transition18 -->
<g id="edge34" class="edge"><title>PL30&#45;&gt;transition18</title>
<path fill="none" stroke="black" d="M165.435,-1014.53C172.118,-988.206 184,-934.952 184,-889 184,-889 184,-889 184,-399 184,-297.445 76.4382,-203.678 54.0514,-185.262"/>
<polygon fill="none" stroke="black" points="55.0886,-183.85 50.0971,-182.076 52.8927,-186.575 55.0886,-183.85"/>
</g>
<!-- PL7&#45;&gt;transition4 -->
<g id="edge36" class="edge"><title>PL7&#45;&gt;transition4</title>
<path fill="none" stroke="black" d="M18.8202,-35.0419C11.417,-55.735 0,-92.9973 0,-126 0,-400 0,-400 0,-400 0,-433.095 4.58215,-442.21 19,-472 25.3305,-485.08 36.7151,-498.157 42.4677,-504.331"/>
<polygon fill="none" stroke="black" points="41.2196,-505.558 45.9473,-507.948 43.742,-503.131 41.2196,-505.558"/>
</g>
<!-- transition7 -->
<g id="node34" class="node"><title>transition7</title>
<polygon fill="none" stroke="black" points="365,-182 329,-182 329,-181 365,-181 365,-182"/>
<text text-anchor="middle" x="320.5" y="-185.8" font-family="Times,serif" font-size="14.00">r3&#45;</text>
</g>
<!-- PL17&#45;&gt;transition7 -->
<g id="edge38" class="edge"><title>PL17&#45;&gt;transition7</title>
<path fill="none" stroke="black" d="M342.253,-217.939C343.647,-207.385 345.345,-194.534 346.285,-187.412"/>
<polygon fill="none" stroke="black" points="348.072,-187.245 346.992,-182.059 344.602,-186.787 348.072,-187.245"/>
</g>
<!-- PL18 -->
<g id="node33" class="node"><title>PL18</title>
<ellipse fill="none" stroke="black" cx="376" cy="-127" rx="18" ry="18"/>
<text text-anchor="middle" x="376" y="-123.3" font-family="Times,serif" font-size="14.00">PL18</text>
</g>
<!-- PL18&#45;&gt;transition8 -->
<g id="edge40" class="edge"><title>PL18&#45;&gt;transition8</title>
<path fill="none" stroke="black" d="M383.262,-143.569C392.141,-164.063 406,-201.431 406,-235 406,-400 406,-400 406,-400 406,-433.095 401.418,-442.21 387,-472 380.67,-485.08 369.285,-498.157 363.532,-504.331"/>
<polygon fill="none" stroke="black" points="362.258,-503.131 360.053,-507.948 364.78,-505.558 362.258,-503.131"/>
</g>
<!-- transition7&#45;&gt;PL18 -->
<g id="edge39" class="edge"><title>transition7&#45;&gt;PL18</title>
<path fill="none" stroke="black" d="M347.083,-180.848C347.963,-179.24 355.672,-165.152 362.908,-151.926"/>
<polygon fill="black" stroke="black" points="366.023,-153.525 367.753,-143.072 359.882,-150.165 366.023,-153.525"/>
</g>
<!-- PL20&#45;&gt;transition10 -->
<g id="edge42" class="edge"><title>PL20&#45;&gt;transition10</title>
<path fill="none" stroke="black" d="M308.405,-363.212C312.671,-393.031 322.144,-456.178 333,-509 353.624,-609.353 386.526,-730.252 393.623,-756.022"/>
<polygon fill="none" stroke="black" points="391.952,-756.546 394.972,-760.899 395.326,-755.613 391.952,-756.546"/>
</g>
<!-- PL21&#45;&gt;transition11 -->
<g id="edge44" class="edge"><title>PL21&#45;&gt;transition11</title>
<path fill="none" stroke="black" d="M380.173,-631.047C354.029,-625.764 305.524,-612.179 279,-581 257.556,-555.792 260,-542.095 260,-509 260,-509 260,-509 260,-399 260,-365.905 259.76,-353.928 279,-327 292.072,-308.705 317.579,-297.057 328.19,-292.81"/>
<polygon fill="none" stroke="black" points="328.832,-294.438 332.893,-291.037 327.597,-291.163 328.832,-294.438"/>
</g>
<!-- transition14 -->
<g id="node39" class="node"><title>transition14</title>
<polygon fill="none" stroke="black" points="509,-762 473,-762 473,-761 509,-761 509,-762"/>
<text text-anchor="middle" x="465" y="-765.8" font-family="Times,serif" font-size="14.00">t2&#45;</text>
</g>
<!-- PL22&#45;&gt;transition14 -->
<g id="edge46" class="edge"><title>PL22&#45;&gt;transition14</title>
<path fill="none" stroke="black" d="M491,-797.939C491,-787.385 491,-774.534 491,-767.412"/>
<polygon fill="none" stroke="black" points="492.75,-767.059 491,-762.059 489.25,-767.059 492.75,-767.059"/>
</g>
<!-- PL23 -->
<g id="node38" class="node"><title>PL23</title>
<ellipse fill="none" stroke="black" cx="529" cy="-707" rx="18" ry="18"/>
<text text-anchor="middle" x="529" y="-703.3" font-family="Times,serif" font-size="14.00">PL23</text>
</g>
<!-- transition12 -->
<g id="node41" class="node"><title>transition12</title>
<polygon fill="none" stroke="black" points="547,-635.5 511,-635.5 511,-634.5 547,-634.5 547,-635.5"/>
<text text-anchor="middle" x="501" y="-639.3" font-family="Times,serif" font-size="14.00">r2+</text>
</g>
<!-- PL23&#45;&gt;transition12 -->
<g id="edge48" class="edge"><title>PL23&#45;&gt;transition12</title>
<path fill="none" stroke="black" d="M529,-688.697C529,-673.165 529,-651.324 529,-641.348"/>
<polygon fill="none" stroke="black" points="530.75,-641.092 529,-636.092 527.25,-641.092 530.75,-641.092"/>
</g>
<!-- transition14&#45;&gt;PL23 -->
<g id="edge47" class="edge"><title>transition14&#45;&gt;PL23</title>
<path fill="none" stroke="black" d="M491.109,-760.848C492.313,-759.169 503.274,-743.881 513.099,-730.177"/>
<polygon fill="black" stroke="black" points="515.99,-732.152 518.972,-721.986 510.301,-728.073 515.99,-732.152"/>
</g>
<!-- PL24 -->
<g id="node40" class="node"><title>PL24</title>
<ellipse fill="none" stroke="black" cx="528" cy="-563" rx="18" ry="18"/>
<text text-anchor="middle" x="528" y="-559.3" font-family="Times,serif" font-size="14.00">PL24</text>
</g>
<!-- transition17 -->
<g id="node43" class="node"><title>transition17</title>
<polygon fill="none" stroke="black" points="554,-509 518,-509 518,-508 554,-508 554,-509"/>
<text text-anchor="middle" x="508.5" y="-512.8" font-family="Times,serif" font-size="14.00">t2+</text>
</g>
<!-- PL24&#45;&gt;transition17 -->
<g id="edge50" class="edge"><title>PL24&#45;&gt;transition17</title>
<path fill="none" stroke="black" d="M530.575,-544.939C532.168,-534.385 534.108,-521.534 535.183,-514.412"/>
<polygon fill="none" stroke="black" points="536.975,-514.264 535.991,-509.059 533.514,-513.742 536.975,-514.264"/>
</g>
<!-- transition12&#45;&gt;PL24 -->
<g id="edge49" class="edge"><title>transition12&#45;&gt;PL24</title>
<path fill="none" stroke="black" d="M528.999,-633.949C528.982,-632.748 528.663,-610.429 528.39,-591.321"/>
<polygon fill="black" stroke="black" points="531.888,-591.14 528.246,-581.191 524.889,-591.24 531.888,-591.14"/>
</g>
<!-- PL28 -->
<g id="node47" class="node"><title>PL28</title>
<ellipse fill="none" stroke="black" cx="582" cy="-563" rx="18" ry="18"/>
<text text-anchor="middle" x="582" y="-559.3" font-family="Times,serif" font-size="14.00">PL28</text>
</g>
<!-- transition12&#45;&gt;PL28 -->
<g id="edge57" class="edge"><title>transition12&#45;&gt;PL28</title>
<path fill="none" stroke="black" d="M529.038,-633.949C530.037,-632.631 550.288,-605.884 565.452,-585.856"/>
<polygon fill="black" stroke="black" points="568.322,-587.863 571.568,-577.778 562.742,-583.637 568.322,-587.863"/>
</g>
<!-- PL25 -->
<g id="node42" class="node"><title>PL25</title>
<ellipse fill="none" stroke="black" cx="544" cy="-454" rx="18" ry="18"/>
<text text-anchor="middle" x="544" y="-450.3" font-family="Times,serif" font-size="14.00">PL25</text>
</g>
<!-- transition13 -->
<g id="node45" class="node"><title>transition13</title>
<polygon fill="none" stroke="black" points="535,-400 499,-400 499,-399 535,-399 535,-400"/>
<text text-anchor="middle" x="490.5" y="-403.8" font-family="Times,serif" font-size="14.00">r2&#45;</text>
</g>
<!-- PL25&#45;&gt;transition13 -->
<g id="edge52" class="edge"><title>PL25&#45;&gt;transition13</title>
<path fill="none" stroke="black" d="M536.19,-437.67C530.517,-426.534 523.204,-412.177 519.455,-404.818"/>
<polygon fill="none" stroke="black" points="520.861,-403.724 517.032,-400.064 517.743,-405.313 520.861,-403.724"/>
</g>
<!-- transition17&#45;&gt;PL25 -->
<g id="edge51" class="edge"><title>transition17&#45;&gt;PL25</title>
<path fill="none" stroke="black" d="M536.023,-507.848C536.246,-506.368 538.065,-494.319 539.909,-482.1"/>
<polygon fill="black" stroke="black" points="543.398,-482.435 541.43,-472.025 536.477,-481.39 543.398,-482.435"/>
</g>
<!-- PL27 -->
<g id="node46" class="node"><title>PL27</title>
<ellipse fill="none" stroke="black" cx="490" cy="-454" rx="18" ry="18"/>
<text text-anchor="middle" x="490" y="-450.3" font-family="Times,serif" font-size="14.00">PL27</text>
</g>
<!-- transition17&#45;&gt;PL27 -->
<g id="edge55" class="edge"><title>transition17&#45;&gt;PL27</title>
<path fill="none" stroke="black" d="M535.868,-507.848C534.37,-506.122 520.401,-490.027 508.268,-476.048"/>
<polygon fill="black" stroke="black" points="510.643,-473.444 501.445,-468.186 505.356,-478.033 510.643,-473.444"/>
</g>
<!-- PL26 -->
<g id="node44" class="node"><title>PL26</title>
<ellipse fill="none" stroke="black" cx="484" cy="-345" rx="18" ry="18"/>
<text text-anchor="middle" x="484" y="-341.3" font-family="Times,serif" font-size="14.00">PL26</text>
</g>
<!-- PL26&#45;&gt;transition14 -->
<g id="edge54" class="edge"><title>PL26&#45;&gt;transition14</title>
<path fill="none" stroke="black" d="M474.723,-360.591C462.906,-380.611 444,-418.096 444,-453 444,-564 444,-564 444,-564 444,-642.569 479.809,-734.07 488.914,-756.067"/>
<polygon fill="none" stroke="black" points="487.408,-756.998 490.966,-760.922 490.632,-755.635 487.408,-756.998"/>
</g>
<!-- transition13&#45;&gt;PL26 -->
<g id="edge53" class="edge"><title>transition13&#45;&gt;PL26</title>
<path fill="none" stroke="black" d="M516.905,-398.848C515.888,-397.214 506.853,-382.703 498.507,-369.3"/>
<polygon fill="black" stroke="black" points="501.471,-367.438 493.214,-360.799 495.529,-371.138 501.471,-367.438"/>
</g>
<!-- PL27&#45;&gt;transition15 -->
<g id="edge56" class="edge"><title>PL27&#45;&gt;transition15</title>
<path fill="none" stroke="black" d="M488.021,-472.221C482.789,-518.719 468.676,-650.734 464,-761 462.625,-793.415 462.778,-801.579 464,-834 464.66,-851.508 466.541,-872.201 467.469,-881.723"/>
<polygon fill="none" stroke="black" points="465.75,-882.115 467.991,-886.915 469.232,-881.765 465.75,-882.115"/>
</g>
<!-- PL28&#45;&gt;transition16 -->
<g id="edge58" class="edge"><title>PL28&#45;&gt;transition16</title>
<path fill="none" stroke="black" d="M581.012,-581.042C579.555,-607.692 577,-660.857 577,-706 577,-889 577,-889 577,-889 577,-947.195 534.736,-1009.51 522.364,-1026.5"/>
<polygon fill="none" stroke="black" points="520.635,-1025.89 519.042,-1030.95 523.438,-1027.99 520.635,-1025.89"/>
</g>
<!-- PL29&#45;&gt;transition17 -->
<g id="edge60" class="edge"><title>PL29&#45;&gt;transition17</title>
<path fill="none" stroke="black" d="M627.227,-869.61C627.522,-845.463 628,-800.413 628,-762 628,-762 628,-762 628,-634 628,-593.553 633.846,-576.916 609,-545 591.172,-522.1 554.966,-512.773 541.344,-509.98"/>
<polygon fill="none" stroke="black" points="541.381,-508.207 536.146,-509.022 540.746,-511.65 541.381,-508.207"/>
</g>
</g>
</svg>
