<?xml version="1.0" encoding="UTF-8" standalone="no"?>
<!DOCTYPE svg PUBLIC "-//W3C//DTD SVG 1.1//EN"
 "http://www.w3.org/Graphics/SVG/1.1/DTD/svg11.dtd">
<!-- Generated by graphviz version 2.38.0 (20140413.2041)
 -->
<!-- Title: %3 Pages: 1 -->
<svg width="667pt" height="1239pt"
 viewBox="0.00 0.00 667.00 1239.00" xmlns="http://www.w3.org/2000/svg" xmlns:xlink="http://www.w3.org/1999/xlink">
<g id="graph0" class="graph" transform="scale(1 1) rotate(0) translate(4 1235)">
<title>%3</title>
<polygon fill="white" stroke="none" points="-4,4 -4,-1235 663,-1235 663,4 -4,4"/>
<!-- PL1 -->
<g id="node1" class="node"><title>PL1</title>
<ellipse fill="none" stroke="black" cx="73" cy="-1213" rx="18" ry="18"/>
<text text-anchor="middle" x="73" y="-1209.3" font-family="Times,serif" font-size="14.00">PL1</text>
</g>
<!-- transition5 -->
<g id="node3" class="node"><title>transition5</title>
<polygon fill="none" stroke="black" points="132,-1159 96,-1159 96,-1158 132,-1158 132,-1159"/>
<text text-anchor="middle" x="88.5" y="-1162.8" font-family="Times,serif" font-size="14.00">c+</text>
</g>
<!-- PL1&#45;&gt;transition5 -->
<g id="edge1" class="edge"><title>PL1&#45;&gt;transition5</title>
<path fill="none" stroke="black" d="M83.5585,-1198.35C92.5687,-1186.7 104.96,-1170.69 110.76,-1163.19"/>
<polygon fill="none" stroke="black" points="112.272,-1164.09 113.947,-1159.07 109.504,-1161.95 112.272,-1164.09"/>
</g>
<!-- PL3 -->
<g id="node2" class="node"><title>PL3</title>
<ellipse fill="none" stroke="black" cx="363" cy="-1104" rx="18" ry="18"/>
<text text-anchor="middle" x="363" y="-1100.3" font-family="Times,serif" font-size="14.00">PL3</text>
</g>
<!-- transition16 -->
<g id="node5" class="node"><title>transition16</title>
<polygon fill="none" stroke="black" points="549,-1032.5 513,-1032.5 513,-1031.5 549,-1031.5 549,-1032.5"/>
<text text-anchor="middle" x="507" y="-1036.3" font-family="Times,serif" font-size="14.00">b&#45;</text>
</g>
<!-- PL3&#45;&gt;transition16 -->
<g id="edge3" class="edge"><title>PL3&#45;&gt;transition16</title>
<path fill="none" stroke="black" d="M379.414,-1096.16C416.313,-1080.79 504.288,-1044.13 526.062,-1035.06"/>
<polygon fill="none" stroke="black" points="526.978,-1036.57 530.921,-1033.03 525.632,-1033.34 526.978,-1036.57"/>
</g>
<!-- transition5&#45;&gt;PL3 -->
<g id="edge2" class="edge"><title>transition5&#45;&gt;PL3</title>
<path fill="none" stroke="black" d="M114.045,-1157.99C117.078,-1157.34 271.411,-1124.49 335.527,-1110.85"/>
<polygon fill="black" stroke="black" points="336.302,-1114.26 345.354,-1108.76 334.845,-1107.41 336.302,-1114.26"/>
</g>
<!-- PL24 -->
<g id="node26" class="node"><title>PL24</title>
<ellipse fill="none" stroke="black" cx="168" cy="-1032" rx="18" ry="18"/>
<text text-anchor="middle" x="168" y="-1028.3" font-family="Times,serif" font-size="14.00">PL24</text>
</g>
<!-- transition5&#45;&gt;PL24 -->
<g id="edge29" class="edge"><title>transition5&#45;&gt;PL24</title>
<path fill="none" stroke="black" d="M114.039,-1157.91C115.195,-1155.23 141.687,-1093.91 157.113,-1058.2"/>
<polygon fill="black" stroke="black" points="160.387,-1059.45 161.14,-1048.88 153.961,-1056.67 160.387,-1059.45"/>
</g>
<!-- PL4 -->
<g id="node4" class="node"><title>PL4</title>
<ellipse fill="none" stroke="black" cx="497" cy="-960" rx="18" ry="18"/>
<text text-anchor="middle" x="497" y="-956.3" font-family="Times,serif" font-size="14.00">PL4</text>
</g>
<!-- transition15 -->
<g id="node7" class="node"><title>transition15</title>
<polygon fill="none" stroke="black" points="492,-888.5 456,-888.5 456,-887.5 492,-887.5 492,-888.5"/>
<text text-anchor="middle" x="448.5" y="-892.3" font-family="Times,serif" font-size="14.00">a+</text>
</g>
<!-- PL4&#45;&gt;transition15 -->
<g id="edge5" class="edge"><title>PL4&#45;&gt;transition15</title>
<path fill="none" stroke="black" d="M491.666,-942.765C486.472,-926.958 478.896,-903.901 475.615,-893.914"/>
<polygon fill="none" stroke="black" points="477.255,-893.299 474.031,-889.096 473.93,-894.392 477.255,-893.299"/>
</g>
<!-- transition16&#45;&gt;PL4 -->
<g id="edge4" class="edge"><title>transition16&#45;&gt;PL4</title>
<path fill="none" stroke="black" d="M530.975,-1030.95C530.364,-1029.69 518.484,-1005.23 508.943,-985.588"/>
<polygon fill="black" stroke="black" points="512.024,-983.92 504.506,-976.454 505.727,-986.978 512.024,-983.92"/>
</g>
<!-- PL23 -->
<g id="node48" class="node"><title>PL23</title>
<ellipse fill="none" stroke="black" cx="641" cy="-888" rx="18" ry="18"/>
<text text-anchor="middle" x="641" y="-884.3" font-family="Times,serif" font-size="14.00">PL23</text>
</g>
<!-- transition16&#45;&gt;PL23 -->
<g id="edge59" class="edge"><title>transition16&#45;&gt;PL23</title>
<path fill="none" stroke="black" d="M531.141,-1030.94C534.038,-1029.66 580.761,-1008.8 605,-978 619.526,-959.545 628.968,-934.443 634.521,-915.602"/>
<polygon fill="black" stroke="black" points="637.923,-916.432 637.214,-905.861 631.176,-914.566 637.923,-916.432"/>
</g>
<!-- PL5 -->
<g id="node6" class="node"><title>PL5</title>
<ellipse fill="none" stroke="black" cx="368" cy="-816" rx="18" ry="18"/>
<text text-anchor="middle" x="368" y="-812.3" font-family="Times,serif" font-size="14.00">PL5</text>
</g>
<!-- transition10 -->
<g id="node9" class="node"><title>transition10</title>
<polygon fill="none" stroke="black" points="357,-762 321,-762 321,-761 357,-761 357,-762"/>
<text text-anchor="middle" x="315.5" y="-765.8" font-family="Times,serif" font-size="14.00">c&#45;</text>
</g>
<!-- PL5&#45;&gt;transition10 -->
<g id="edge7" class="edge"><title>PL5&#45;&gt;transition10</title>
<path fill="none" stroke="black" d="M359.767,-799.954C353.668,-788.807 345.736,-774.311 341.666,-766.873"/>
<polygon fill="none" stroke="black" points="342.971,-765.611 339.035,-762.064 339.9,-767.291 342.971,-765.611"/>
</g>
<!-- transition15&#45;&gt;PL5 -->
<g id="edge6" class="edge"><title>transition15&#45;&gt;PL5</title>
<path fill="none" stroke="black" d="M473.923,-886.949C471.698,-885.48 421.647,-852.427 391.154,-832.29"/>
<polygon fill="black" stroke="black" points="393.033,-829.337 382.76,-826.747 389.176,-835.178 393.033,-829.337"/>
</g>
<!-- PL16 -->
<g id="node37" class="node"><title>PL16</title>
<ellipse fill="none" stroke="black" cx="451" cy="-816" rx="18" ry="18"/>
<text text-anchor="middle" x="451" y="-812.3" font-family="Times,serif" font-size="14.00">PL16</text>
</g>
<!-- transition15&#45;&gt;PL16 -->
<g id="edge45" class="edge"><title>transition15&#45;&gt;PL16</title>
<path fill="none" stroke="black" d="M473.983,-886.949C473.58,-885.722 465.944,-862.482 459.583,-843.122"/>
<polygon fill="black" stroke="black" points="462.865,-841.897 456.418,-833.489 456.214,-844.082 462.865,-841.897"/>
</g>
<!-- PL6 -->
<g id="node8" class="node"><title>PL6</title>
<ellipse fill="none" stroke="black" cx="362" cy="-707" rx="18" ry="18"/>
<text text-anchor="middle" x="362" y="-703.3" font-family="Times,serif" font-size="14.00">PL6</text>
</g>
<!-- transition9 -->
<g id="node11" class="node"><title>transition9</title>
<polygon fill="none" stroke="black" points="380,-635.5 344,-635.5 344,-634.5 380,-634.5 380,-635.5"/>
<text text-anchor="middle" x="336.5" y="-639.3" font-family="Times,serif" font-size="14.00">b+</text>
</g>
<!-- PL6&#45;&gt;transition9 -->
<g id="edge9" class="edge"><title>PL6&#45;&gt;transition9</title>
<path fill="none" stroke="black" d="M362,-688.697C362,-673.165 362,-651.324 362,-641.348"/>
<polygon fill="none" stroke="black" points="363.75,-641.092 362,-636.092 360.25,-641.092 363.75,-641.092"/>
</g>
<!-- transition10&#45;&gt;PL6 -->
<g id="edge8" class="edge"><title>transition10&#45;&gt;PL6</title>
<path fill="none" stroke="black" d="M339.066,-760.848C339.738,-759.3 345.429,-746.185 350.974,-733.409"/>
<polygon fill="black" stroke="black" points="354.329,-734.469 355.099,-723.902 347.908,-731.682 354.329,-734.469"/>
</g>
<!-- PL15 -->
<g id="node36" class="node"><title>PL15</title>
<ellipse fill="none" stroke="black" cx="251" cy="-635" rx="18" ry="18"/>
<text text-anchor="middle" x="251" y="-631.3" font-family="Times,serif" font-size="14.00">PL15</text>
</g>
<!-- transition10&#45;&gt;PL15 -->
<g id="edge43" class="edge"><title>transition10&#45;&gt;PL15</title>
<path fill="none" stroke="black" d="M338.934,-760.948C337.575,-759.883 315.623,-742.563 302,-725 286.292,-704.749 272.128,-679.14 262.735,-660.598"/>
<polygon fill="black" stroke="black" points="265.856,-659.013 258.276,-651.611 259.586,-662.124 265.856,-659.013"/>
</g>
<!-- PL8 -->
<g id="node10" class="node"><title>PL8</title>
<ellipse fill="none" stroke="black" cx="362" cy="-563" rx="18" ry="18"/>
<text text-anchor="middle" x="362" y="-559.3" font-family="Times,serif" font-size="14.00">PL8</text>
</g>
<!-- transition8 -->
<g id="node13" class="node"><title>transition8</title>
<polygon fill="none" stroke="black" points="380,-509 344,-509 344,-508 380,-508 380,-509"/>
<text text-anchor="middle" x="336" y="-512.8" font-family="Times,serif" font-size="14.00">t3&#45;</text>
</g>
<!-- PL8&#45;&gt;transition8 -->
<g id="edge11" class="edge"><title>PL8&#45;&gt;transition8</title>
<path fill="none" stroke="black" d="M362,-544.939C362,-534.385 362,-521.534 362,-514.412"/>
<polygon fill="none" stroke="black" points="363.75,-514.059 362,-509.059 360.25,-514.059 363.75,-514.059"/>
</g>
<!-- transition9&#45;&gt;PL8 -->
<g id="edge10" class="edge"><title>transition9&#45;&gt;PL8</title>
<path fill="none" stroke="black" d="M362,-633.949C362,-632.748 362,-610.429 362,-591.321"/>
<polygon fill="black" stroke="black" points="365.5,-591.191 362,-581.191 358.5,-591.191 365.5,-591.191"/>
</g>
<!-- PL7 -->
<g id="node21" class="node"><title>PL7</title>
<ellipse fill="none" stroke="black" cx="270" cy="-563" rx="18" ry="18"/>
<text text-anchor="middle" x="270" y="-559.3" font-family="Times,serif" font-size="14.00">PL7</text>
</g>
<!-- transition9&#45;&gt;PL7 -->
<g id="edge22" class="edge"><title>transition9&#45;&gt;PL7</title>
<path fill="none" stroke="black" d="M361.933,-633.949C360.048,-632.515 318.609,-600.985 292.016,-580.751"/>
<polygon fill="black" stroke="black" points="294.05,-577.901 283.973,-574.631 289.812,-583.472 294.05,-577.901"/>
</g>
<!-- PL9 -->
<g id="node12" class="node"><title>PL9</title>
<ellipse fill="none" stroke="black" cx="333" cy="-454" rx="18" ry="18"/>
<text text-anchor="middle" x="333" y="-450.3" font-family="Times,serif" font-size="14.00">PL9</text>
</g>
<!-- transition6 -->
<g id="node15" class="node"><title>transition6</title>
<polygon fill="none" stroke="black" points="351,-400 315,-400 315,-399 351,-399 351,-400"/>
<text text-anchor="middle" x="305" y="-403.8" font-family="Times,serif" font-size="14.00">r3+</text>
</g>
<!-- PL9&#45;&gt;transition6 -->
<g id="edge13" class="edge"><title>PL9&#45;&gt;transition6</title>
<path fill="none" stroke="black" d="M333,-435.939C333,-425.385 333,-412.534 333,-405.412"/>
<polygon fill="none" stroke="black" points="334.75,-405.059 333,-400.059 331.25,-405.059 334.75,-405.059"/>
</g>
<!-- transition8&#45;&gt;PL9 -->
<g id="edge12" class="edge"><title>transition8&#45;&gt;PL9</title>
<path fill="none" stroke="black" d="M361.917,-507.848C361.037,-506.24 353.328,-492.152 346.092,-478.926"/>
<polygon fill="black" stroke="black" points="349.118,-477.165 341.247,-470.072 342.977,-480.525 349.118,-477.165"/>
</g>
<!-- PL10 -->
<g id="node14" class="node"><title>PL10</title>
<ellipse fill="none" stroke="black" cx="333" cy="-345" rx="18" ry="18"/>
<text text-anchor="middle" x="333" y="-341.3" font-family="Times,serif" font-size="14.00">PL10</text>
</g>
<!-- transition11 -->
<g id="node17" class="node"><title>transition11</title>
<polygon fill="none" stroke="black" points="324,-291 288,-291 288,-290 324,-290 324,-291"/>
<text text-anchor="middle" x="278.5" y="-294.8" font-family="Times,serif" font-size="14.00">t3+</text>
</g>
<!-- PL10&#45;&gt;transition11 -->
<g id="edge15" class="edge"><title>PL10&#45;&gt;transition11</title>
<path fill="none" stroke="black" d="M325.19,-328.67C319.517,-317.534 312.204,-303.177 308.455,-295.818"/>
<polygon fill="none" stroke="black" points="309.861,-294.724 306.032,-291.064 306.743,-296.313 309.861,-294.724"/>
</g>
<!-- transition6&#45;&gt;PL10 -->
<g id="edge14" class="edge"><title>transition6&#45;&gt;PL10</title>
<path fill="none" stroke="black" d="M333,-398.848C333,-397.368 333,-385.319 333,-373.1"/>
<polygon fill="black" stroke="black" points="336.5,-373.025 333,-363.025 329.5,-373.025 336.5,-373.025"/>
</g>
<!-- PL14 -->
<g id="node35" class="node"><title>PL14</title>
<ellipse fill="none" stroke="black" cx="279" cy="-345" rx="18" ry="18"/>
<text text-anchor="middle" x="279" y="-341.3" font-family="Times,serif" font-size="14.00">PL14</text>
</g>
<!-- transition6&#45;&gt;PL14 -->
<g id="edge41" class="edge"><title>transition6&#45;&gt;PL14</title>
<path fill="none" stroke="black" d="M332.845,-398.848C331.012,-397.049 313.262,-379.628 298.635,-365.272"/>
<polygon fill="black" stroke="black" points="300.96,-362.649 291.372,-358.143 296.057,-367.645 300.96,-362.649"/>
</g>
<!-- PL11 -->
<g id="node16" class="node"><title>PL11</title>
<ellipse fill="none" stroke="black" cx="279" cy="-236" rx="18" ry="18"/>
<text text-anchor="middle" x="279" y="-232.3" font-family="Times,serif" font-size="14.00">PL11</text>
</g>
<!-- transition7 -->
<g id="node19" class="node"><title>transition7</title>
<polygon fill="none" stroke="black" points="324,-182 288,-182 288,-181 324,-181 324,-182"/>
<text text-anchor="middle" x="279.5" y="-185.8" font-family="Times,serif" font-size="14.00">r3&#45;</text>
</g>
<!-- PL11&#45;&gt;transition7 -->
<g id="edge17" class="edge"><title>PL11&#45;&gt;transition7</title>
<path fill="none" stroke="black" d="M286.81,-219.67C292.483,-208.534 299.796,-194.177 303.545,-186.818"/>
<polygon fill="none" stroke="black" points="305.257,-187.313 305.968,-182.064 302.139,-185.724 305.257,-187.313"/>
</g>
<!-- transition11&#45;&gt;PL11 -->
<g id="edge16" class="edge"><title>transition11&#45;&gt;PL11</title>
<path fill="none" stroke="black" d="M305.923,-289.848C305.116,-288.265 298.15,-274.591 291.506,-261.55"/>
<polygon fill="black" stroke="black" points="294.477,-259.669 286.819,-252.348 288.239,-262.847 294.477,-259.669"/>
</g>
<!-- PL13 -->
<g id="node20" class="node"><title>PL13</title>
<ellipse fill="none" stroke="black" cx="333" cy="-236" rx="18" ry="18"/>
<text text-anchor="middle" x="333" y="-232.3" font-family="Times,serif" font-size="14.00">PL13</text>
</g>
<!-- transition11&#45;&gt;PL13 -->
<g id="edge20" class="edge"><title>transition11&#45;&gt;PL13</title>
<path fill="none" stroke="black" d="M306.077,-289.848C306.884,-288.265 313.85,-274.591 320.494,-261.55"/>
<polygon fill="black" stroke="black" points="323.761,-262.847 325.181,-252.348 317.523,-259.669 323.761,-262.847"/>
</g>
<!-- PL12 -->
<g id="node18" class="node"><title>PL12</title>
<ellipse fill="none" stroke="black" cx="342" cy="-127" rx="18" ry="18"/>
<text text-anchor="middle" x="342" y="-123.3" font-family="Times,serif" font-size="14.00">PL12</text>
</g>
<!-- PL12&#45;&gt;transition8 -->
<g id="edge19" class="edge"><title>PL12&#45;&gt;transition8</title>
<path fill="none" stroke="black" d="M350.768,-143.027C361.71,-163.232 379,-200.603 379,-235 379,-400 379,-400 379,-400 379,-439.984 367.489,-487.294 363.411,-502.799"/>
<polygon fill="none" stroke="black" points="361.632,-502.673 362.012,-507.957 365.01,-503.589 361.632,-502.673"/>
</g>
<!-- transition7&#45;&gt;PL12 -->
<g id="edge18" class="edge"><title>transition7&#45;&gt;PL12</title>
<path fill="none" stroke="black" d="M306.103,-180.848C307.226,-179.194 317.311,-164.347 326.506,-150.81"/>
<polygon fill="black" stroke="black" points="329.594,-152.494 332.317,-142.255 323.803,-148.561 329.594,-152.494"/>
</g>
<!-- PL13&#45;&gt;transition9 -->
<g id="edge21" class="edge"><title>PL13&#45;&gt;transition9</title>
<path fill="none" stroke="black" d="M348.018,-246.504C372.179,-263.1 417,-299.836 417,-344 417,-509 417,-509 417,-509 417,-560.345 377.641,-614.273 365.514,-629.67"/>
<polygon fill="none" stroke="black" points="363.83,-628.967 362.04,-633.953 366.549,-631.172 363.83,-628.967"/>
</g>
<!-- transition4 -->
<g id="node22" class="node"><title>transition4</title>
<polygon fill="none" stroke="black" points="47,-509 11,-509 11,-508 47,-508 47,-509"/>
<text text-anchor="middle" x="5.5" y="-512.8" font-family="Times,serif" font-size="14.00">a&#45;</text>
</g>
<!-- PL7&#45;&gt;transition4 -->
<g id="edge23" class="edge"><title>PL7&#45;&gt;transition4</title>
<path fill="none" stroke="black" d="M252.279,-558.103C202.415,-547.137 62.6748,-516.406 34.1307,-510.128"/>
<polygon fill="none" stroke="black" points="34.3809,-508.392 29.1217,-509.027 33.6291,-511.81 34.3809,-508.392"/>
</g>
<!-- transition4&#45;&gt;PL1 -->
<g id="edge24" class="edge"><title>transition4&#45;&gt;PL1</title>
<path fill="none" stroke="black" d="M29.0029,-509.051C29.124,-511.166 33,-579.285 33,-634 33,-1105 33,-1105 33,-1105 33,-1135.27 47.2178,-1167.48 58.7003,-1188.56"/>
<polygon fill="black" stroke="black" points="55.7443,-1190.44 63.7227,-1197.41 61.8329,-1186.98 55.7443,-1190.44"/>
</g>
<!-- PL2 -->
<g id="node23" class="node"><title>PL2</title>
<ellipse fill="none" stroke="black" cx="121" cy="-454" rx="18" ry="18"/>
<text text-anchor="middle" x="121" y="-450.3" font-family="Times,serif" font-size="14.00">PL2</text>
</g>
<!-- transition4&#45;&gt;PL2 -->
<g id="edge25" class="edge"><title>transition4&#45;&gt;PL2</title>
<path fill="none" stroke="black" d="M29.0667,-507.962C30.9065,-506.902 70.4128,-484.143 97.0321,-468.808"/>
<polygon fill="black" stroke="black" points="98.9095,-471.765 105.827,-463.741 95.4153,-465.7 98.9095,-471.765"/>
</g>
<!-- transition3 -->
<g id="node25" class="node"><title>transition3</title>
<polygon fill="none" stroke="black" points="139,-400 103,-400 103,-399 139,-399 139,-400"/>
<text text-anchor="middle" x="93.5" y="-403.8" font-family="Times,serif" font-size="14.00">t1+</text>
</g>
<!-- PL2&#45;&gt;transition3 -->
<g id="edge26" class="edge"><title>PL2&#45;&gt;transition3</title>
<path fill="none" stroke="black" d="M121,-435.939C121,-425.385 121,-412.534 121,-405.412"/>
<polygon fill="none" stroke="black" points="122.75,-405.059 121,-400.059 119.25,-405.059 122.75,-405.059"/>
</g>
<!-- PL29 -->
<g id="node24" class="node"><title>PL29</title>
<ellipse fill="none" stroke="black" cx="48" cy="-345" rx="18" ry="18"/>
<text text-anchor="middle" x="48" y="-341.3" font-family="Times,serif" font-size="14.00">PL29</text>
</g>
<!-- PL29&#45;&gt;transition5 -->
<g id="edge28" class="edge"><title>PL29&#45;&gt;transition5</title>
<path fill="none" stroke="black" d="M54.6742,-361.997C62.6696,-382.643 75,-419.855 75,-453 75,-1033 75,-1033 75,-1033 75,-1082.23 102.909,-1137.62 111.508,-1153.52"/>
<polygon fill="none" stroke="black" points="110.013,-1154.43 113.972,-1157.95 113.072,-1152.73 110.013,-1154.43"/>
</g>
<!-- transition3&#45;&gt;PL29 -->
<g id="edge27" class="edge"><title>transition3&#45;&gt;PL29</title>
<path fill="none" stroke="black" d="M120.947,-398.962C119.566,-397.959 91.4297,-377.531 70.5134,-362.345"/>
<polygon fill="black" stroke="black" points="72.5165,-359.474 62.368,-356.432 68.4039,-365.139 72.5165,-359.474"/>
</g>
<!-- PL27 -->
<g id="node31" class="node"><title>PL27</title>
<ellipse fill="none" stroke="black" cx="102" cy="-345" rx="18" ry="18"/>
<text text-anchor="middle" x="102" y="-341.3" font-family="Times,serif" font-size="14.00">PL27</text>
</g>
<!-- transition3&#45;&gt;PL27 -->
<g id="edge35" class="edge"><title>transition3&#45;&gt;PL27</title>
<path fill="none" stroke="black" d="M120.945,-398.848C120.394,-397.309 115.747,-384.348 111.195,-371.648"/>
<polygon fill="black" stroke="black" points="114.47,-370.413 107.801,-362.181 107.881,-372.775 114.47,-370.413"/>
</g>
<!-- transition18 -->
<g id="node28" class="node"><title>transition18</title>
<polygon fill="none" stroke="black" points="120,-182 84,-182 84,-181 120,-181 120,-182"/>
<text text-anchor="middle" x="76" y="-185.8" font-family="Times,serif" font-size="14.00">t1&#45;</text>
</g>
<!-- PL24&#45;&gt;transition18 -->
<g id="edge30" class="edge"><title>PL24&#45;&gt;transition18</title>
<path fill="none" stroke="black" d="M171.556,-1014.04C176.802,-987.498 186,-934.476 186,-889 186,-889 186,-889 186,-344 186,-273.52 122.564,-203.195 105.946,-185.982"/>
<polygon fill="none" stroke="black" points="106.823,-184.381 102.061,-182.059 104.335,-186.843 106.823,-184.381"/>
</g>
<!-- PL25 -->
<g id="node27" class="node"><title>PL25</title>
<ellipse fill="none" stroke="black" cx="102" cy="-127" rx="18" ry="18"/>
<text text-anchor="middle" x="102" y="-123.3" font-family="Times,serif" font-size="14.00">PL25</text>
</g>
<!-- transition2 -->
<g id="node30" class="node"><title>transition2</title>
<polygon fill="none" stroke="black" points="120,-73 84,-73 84,-72 120,-72 120,-73"/>
<text text-anchor="middle" x="74" y="-76.8" font-family="Times,serif" font-size="14.00">r1+</text>
</g>
<!-- PL25&#45;&gt;transition2 -->
<g id="edge32" class="edge"><title>PL25&#45;&gt;transition2</title>
<path fill="none" stroke="black" d="M102,-108.939C102,-98.3852 102,-85.5344 102,-78.4124"/>
<polygon fill="none" stroke="black" points="103.75,-78.0591 102,-73.0591 100.25,-78.0592 103.75,-78.0591"/>
</g>
<!-- transition18&#45;&gt;PL25 -->
<g id="edge31" class="edge"><title>transition18&#45;&gt;PL25</title>
<path fill="none" stroke="black" d="M102,-180.848C102,-179.368 102,-167.319 102,-155.1"/>
<polygon fill="black" stroke="black" points="105.5,-155.025 102,-145.025 98.5001,-155.025 105.5,-155.025"/>
</g>
<!-- PL26 -->
<g id="node29" class="node"><title>PL26</title>
<ellipse fill="none" stroke="black" cx="129" cy="-18" rx="18" ry="18"/>
<text text-anchor="middle" x="129" y="-14.3" font-family="Times,serif" font-size="14.00">PL26</text>
</g>
<!-- PL26&#45;&gt;transition3 -->
<g id="edge34" class="edge"><title>PL26&#45;&gt;transition3</title>
<path fill="none" stroke="black" d="M138.005,-33.9965C149.243,-54.1682 167,-91.5021 167,-126 167,-182 167,-182 167,-182 167,-268.812 131.333,-370.995 122.812,-394.167"/>
<polygon fill="none" stroke="black" points="121.149,-393.618 121.033,-398.914 124.427,-394.846 121.149,-393.618"/>
</g>
<!-- transition2&#45;&gt;PL26 -->
<g id="edge33" class="edge"><title>transition2&#45;&gt;PL26</title>
<path fill="none" stroke="black" d="M102.077,-71.848C102.884,-70.265 109.85,-56.5906 116.494,-43.5496"/>
<polygon fill="black" stroke="black" points="119.761,-44.8468 121.181,-34.3476 113.523,-41.6692 119.761,-44.8468"/>
</g>
<!-- PL30 -->
<g id="node34" class="node"><title>PL30</title>
<ellipse fill="none" stroke="black" cx="39" cy="-18" rx="18" ry="18"/>
<text text-anchor="middle" x="39" y="-14.3" font-family="Times,serif" font-size="14.00">PL30</text>
</g>
<!-- transition2&#45;&gt;PL30 -->
<g id="edge39" class="edge"><title>transition2&#45;&gt;PL30</title>
<path fill="none" stroke="black" d="M101.954,-71.9616C100.798,-70.9885 77.8975,-51.7233 60.0478,-36.7068"/>
<polygon fill="black" stroke="black" points="62.2036,-33.9467 52.2981,-30.1873 57.6972,-39.3033 62.2036,-33.9467"/>
</g>
<!-- transition1 -->
<g id="node33" class="node"><title>transition1</title>
<polygon fill="none" stroke="black" points="111,-291 75,-291 75,-290 111,-290 111,-291"/>
<text text-anchor="middle" x="66.5" y="-294.8" font-family="Times,serif" font-size="14.00">r1&#45;</text>
</g>
<!-- PL27&#45;&gt;transition1 -->
<g id="edge36" class="edge"><title>PL27&#45;&gt;transition1</title>
<path fill="none" stroke="black" d="M99.1028,-326.939C97.3107,-316.385 95.1285,-303.534 93.9191,-296.412"/>
<polygon fill="none" stroke="black" points="95.5725,-295.696 93.01,-291.059 92.1219,-296.282 95.5725,-295.696"/>
</g>
<!-- PL28 -->
<g id="node32" class="node"><title>PL28</title>
<ellipse fill="none" stroke="black" cx="83" cy="-236" rx="18" ry="18"/>
<text text-anchor="middle" x="83" y="-232.3" font-family="Times,serif" font-size="14.00">PL28</text>
</g>
<!-- PL28&#45;&gt;transition18 -->
<g id="edge38" class="edge"><title>PL28&#45;&gt;transition18</title>
<path fill="none" stroke="black" d="M88.8039,-218.81C92.6944,-207.958 97.5648,-194.372 100.164,-187.121"/>
<polygon fill="none" stroke="black" points="101.938,-187.359 101.978,-182.061 98.6433,-186.177 101.938,-187.359"/>
</g>
<!-- transition1&#45;&gt;PL28 -->
<g id="edge37" class="edge"><title>transition1&#45;&gt;PL28</title>
<path fill="none" stroke="black" d="M92.9713,-289.848C92.6903,-288.359 90.3895,-276.164 88.0689,-263.865"/>
<polygon fill="black" stroke="black" points="91.4524,-262.92 86.1589,-253.742 84.5738,-264.218 91.4524,-262.92"/>
</g>
<!-- PL30&#45;&gt;transition4 -->
<g id="edge40" class="edge"><title>PL30&#45;&gt;transition4</title>
<path fill="none" stroke="black" d="M30.2315,-34.0266C19.2901,-54.2317 2,-91.6026 2,-126 2,-400 2,-400 2,-400 2,-440.816 20.3747,-487.789 26.8076,-502.983"/>
<polygon fill="none" stroke="black" points="25.3192,-503.947 28.9225,-507.831 28.5272,-502.548 25.3192,-503.947"/>
</g>
<!-- PL14&#45;&gt;transition10 -->
<g id="edge42" class="edge"><title>PL14&#45;&gt;transition10</title>
<path fill="none" stroke="black" d="M281.465,-363.046C291.912,-435.31 332.285,-714.554 338.259,-755.878"/>
<polygon fill="none" stroke="black" points="336.542,-756.226 338.989,-760.924 340.006,-755.725 336.542,-756.226"/>
</g>
<!-- PL15&#45;&gt;transition11 -->
<g id="edge44" class="edge"><title>PL15&#45;&gt;transition11</title>
<path fill="none" stroke="black" d="M245.141,-617.663C237.2,-594.02 224,-548.741 224,-509 224,-509 224,-509 224,-399 224,-364.665 230.495,-353.766 252,-327 265.947,-309.642 290.541,-297.63 301.033,-293.054"/>
<polygon fill="none" stroke="black" points="301.947,-294.57 305.896,-291.039 300.607,-291.336 301.947,-294.57"/>
</g>
<!-- transition14 -->
<g id="node39" class="node"><title>transition14</title>
<polygon fill="none" stroke="black" points="469,-762 433,-762 433,-761 469,-761 469,-762"/>
<text text-anchor="middle" x="425" y="-765.8" font-family="Times,serif" font-size="14.00">t2&#45;</text>
</g>
<!-- PL16&#45;&gt;transition14 -->
<g id="edge46" class="edge"><title>PL16&#45;&gt;transition14</title>
<path fill="none" stroke="black" d="M451,-797.939C451,-787.385 451,-774.534 451,-767.412"/>
<polygon fill="none" stroke="black" points="452.75,-767.059 451,-762.059 449.25,-767.059 452.75,-767.059"/>
</g>
<!-- PL17 -->
<g id="node38" class="node"><title>PL17</title>
<ellipse fill="none" stroke="black" cx="543" cy="-707" rx="18" ry="18"/>
<text text-anchor="middle" x="543" y="-703.3" font-family="Times,serif" font-size="14.00">PL17</text>
</g>
<!-- transition12 -->
<g id="node41" class="node"><title>transition12</title>
<polygon fill="none" stroke="black" points="561,-635.5 525,-635.5 525,-634.5 561,-634.5 561,-635.5"/>
<text text-anchor="middle" x="515" y="-639.3" font-family="Times,serif" font-size="14.00">r2+</text>
</g>
<!-- PL17&#45;&gt;transition12 -->
<g id="edge48" class="edge"><title>PL17&#45;&gt;transition12</title>
<path fill="none" stroke="black" d="M543,-688.697C543,-673.165 543,-651.324 543,-641.348"/>
<polygon fill="none" stroke="black" points="544.75,-641.092 543,-636.092 541.25,-641.092 544.75,-641.092"/>
</g>
<!-- transition14&#45;&gt;PL17 -->
<g id="edge47" class="edge"><title>transition14&#45;&gt;PL17</title>
<path fill="none" stroke="black" d="M451.067,-760.962C452.907,-759.902 492.413,-737.143 519.032,-721.808"/>
<polygon fill="black" stroke="black" points="520.91,-724.765 527.827,-716.741 517.415,-718.7 520.91,-724.765"/>
</g>
<!-- PL18 -->
<g id="node40" class="node"><title>PL18</title>
<ellipse fill="none" stroke="black" cx="543" cy="-563" rx="18" ry="18"/>
<text text-anchor="middle" x="543" y="-559.3" font-family="Times,serif" font-size="14.00">PL18</text>
</g>
<!-- transition17 -->
<g id="node43" class="node"><title>transition17</title>
<polygon fill="none" stroke="black" points="567,-509 531,-509 531,-508 567,-508 567,-509"/>
<text text-anchor="middle" x="521.5" y="-512.8" font-family="Times,serif" font-size="14.00">t2+</text>
</g>
<!-- PL18&#45;&gt;transition17 -->
<g id="edge50" class="edge"><title>PL18&#45;&gt;transition17</title>
<path fill="none" stroke="black" d="M544.931,-544.939C546.126,-534.385 547.581,-521.534 548.387,-514.412"/>
<polygon fill="none" stroke="black" points="550.17,-514.224 548.993,-509.059 546.692,-513.831 550.17,-514.224"/>
</g>
<!-- transition12&#45;&gt;PL18 -->
<g id="edge49" class="edge"><title>transition12&#45;&gt;PL18</title>
<path fill="none" stroke="black" d="M543,-633.949C543,-632.748 543,-610.429 543,-591.321"/>
<polygon fill="black" stroke="black" points="546.5,-591.191 543,-581.191 539.5,-591.191 546.5,-591.191"/>
</g>
<!-- PL22 -->
<g id="node47" class="node"><title>PL22</title>
<ellipse fill="none" stroke="black" cx="597" cy="-563" rx="18" ry="18"/>
<text text-anchor="middle" x="597" y="-559.3" font-family="Times,serif" font-size="14.00">PL22</text>
</g>
<!-- transition12&#45;&gt;PL22 -->
<g id="edge57" class="edge"><title>transition12&#45;&gt;PL22</title>
<path fill="none" stroke="black" d="M543.039,-633.949C544.056,-632.631 564.689,-605.884 580.14,-585.856"/>
<polygon fill="black" stroke="black" points="583.035,-587.833 586.372,-577.778 577.492,-583.558 583.035,-587.833"/>
</g>
<!-- PL21 -->
<g id="node42" class="node"><title>PL21</title>
<ellipse fill="none" stroke="black" cx="501" cy="-454" rx="18" ry="18"/>
<text text-anchor="middle" x="501" y="-450.3" font-family="Times,serif" font-size="14.00">PL21</text>
</g>
<!-- PL21&#45;&gt;transition15 -->
<g id="edge52" class="edge"><title>PL21&#45;&gt;transition15</title>
<path fill="none" stroke="black" d="M499.97,-472.042C498.785,-493.149 497,-530.212 497,-562 497,-762 497,-762 497,-762 497,-809.352 480.838,-865.152 475.61,-881.964"/>
<polygon fill="none" stroke="black" points="473.872,-881.655 474.017,-886.95 477.206,-882.72 473.872,-881.655"/>
</g>
<!-- transition17&#45;&gt;PL21 -->
<g id="edge51" class="edge"><title>transition17&#45;&gt;PL21</title>
<path fill="none" stroke="black" d="M548.862,-507.848C547.276,-506.096 532.274,-489.532 519.483,-475.409"/>
<polygon fill="black" stroke="black" points="522.011,-472.985 512.704,-467.923 516.822,-477.684 522.011,-472.985"/>
</g>
<!-- PL19 -->
<g id="node44" class="node"><title>PL19</title>
<ellipse fill="none" stroke="black" cx="555" cy="-454" rx="18" ry="18"/>
<text text-anchor="middle" x="555" y="-450.3" font-family="Times,serif" font-size="14.00">PL19</text>
</g>
<!-- transition17&#45;&gt;PL19 -->
<g id="edge53" class="edge"><title>transition17&#45;&gt;PL19</title>
<path fill="none" stroke="black" d="M549.017,-507.848C549.185,-506.368 550.549,-494.319 551.932,-482.1"/>
<polygon fill="black" stroke="black" points="555.425,-482.355 553.073,-472.025 548.47,-481.568 555.425,-482.355"/>
</g>
<!-- transition13 -->
<g id="node46" class="node"><title>transition13</title>
<polygon fill="none" stroke="black" points="546,-400 510,-400 510,-399 546,-399 546,-400"/>
<text text-anchor="middle" x="501.5" y="-403.8" font-family="Times,serif" font-size="14.00">r2&#45;</text>
</g>
<!-- PL19&#45;&gt;transition13 -->
<g id="edge54" class="edge"><title>PL19&#45;&gt;transition13</title>
<path fill="none" stroke="black" d="M547.19,-437.67C541.517,-426.534 534.204,-412.177 530.455,-404.818"/>
<polygon fill="none" stroke="black" points="531.861,-403.724 528.032,-400.064 528.743,-405.313 531.861,-403.724"/>
</g>
<!-- PL20 -->
<g id="node45" class="node"><title>PL20</title>
<ellipse fill="none" stroke="black" cx="495" cy="-345" rx="18" ry="18"/>
<text text-anchor="middle" x="495" y="-341.3" font-family="Times,serif" font-size="14.00">PL20</text>
</g>
<!-- PL20&#45;&gt;transition14 -->
<g id="edge56" class="edge"><title>PL20&#45;&gt;transition14</title>
<path fill="none" stroke="black" d="M485.723,-360.591C473.906,-380.611 455,-418.096 455,-453 455,-636 455,-636 455,-636 455,-682.594 452.189,-738.907 451.28,-755.904"/>
<polygon fill="none" stroke="black" points="449.53,-755.861 451.003,-760.949 453.025,-756.053 449.53,-755.861"/>
</g>
<!-- transition13&#45;&gt;PL20 -->
<g id="edge55" class="edge"><title>transition13&#45;&gt;PL20</title>
<path fill="none" stroke="black" d="M527.905,-398.848C526.888,-397.214 517.853,-382.703 509.507,-369.3"/>
<polygon fill="black" stroke="black" points="512.471,-367.438 504.214,-360.799 506.529,-371.138 512.471,-367.438"/>
</g>
<!-- PL22&#45;&gt;transition16 -->
<g id="edge58" class="edge"><title>PL22&#45;&gt;transition16</title>
<path fill="none" stroke="black" d="M595.815,-581.039C594.066,-607.685 591,-660.845 591,-706 591,-889 591,-889 591,-889 591,-948.013 546.487,-1010.71 534.141,-1026.97"/>
<polygon fill="none" stroke="black" points="532.736,-1025.93 531.043,-1030.95 535.497,-1028.08 532.736,-1025.93"/>
</g>
<!-- PL23&#45;&gt;transition17 -->
<g id="edge60" class="edge"><title>PL23&#45;&gt;transition17</title>
<path fill="none" stroke="black" d="M641.454,-869.611C642.044,-845.465 643,-800.416 643,-762 643,-762 643,-762 643,-634 643,-593.553 649.015,-576.783 624,-545 605.481,-521.471 567.771,-512.442 554.097,-509.858"/>
<polygon fill="none" stroke="black" points="554.372,-508.13 549.15,-509.021 553.788,-511.581 554.372,-508.13"/>
</g>
</g>
</svg>
