<?xml version="1.0" encoding="UTF-8" standalone="no"?>
<!DOCTYPE svg PUBLIC "-//W3C//DTD SVG 1.1//EN"
 "http://www.w3.org/Graphics/SVG/1.1/DTD/svg11.dtd">
<!-- Generated by graphviz version 2.38.0 (20140413.2041)
 -->
<!-- Title: %3 Pages: 1 -->
<svg width="686pt" height="1239pt"
 viewBox="0.00 0.00 686.00 1239.00" xmlns="http://www.w3.org/2000/svg" xmlns:xlink="http://www.w3.org/1999/xlink">
<g id="graph0" class="graph" transform="scale(1 1) rotate(0) translate(4 1235)">
<title>%3</title>
<polygon fill="white" stroke="none" points="-4,4 -4,-1235 682,-1235 682,4 -4,4"/>
<!-- PL1 -->
<g id="node1" class="node"><title>PL1</title>
<ellipse fill="none" stroke="black" cx="607" cy="-1213" rx="18" ry="18"/>
<text text-anchor="middle" x="607" y="-1209.3" font-family="Times,serif" font-size="14.00">PL1</text>
</g>
<!-- transition5 -->
<g id="node3" class="node"><title>transition5</title>
<polygon fill="none" stroke="black" points="579,-1159 543,-1159 543,-1158 579,-1158 579,-1159"/>
<text text-anchor="middle" x="535.5" y="-1162.8" font-family="Times,serif" font-size="14.00">c+</text>
</g>
<!-- PL1&#45;&gt;transition5 -->
<g id="edge1" class="edge"><title>PL1&#45;&gt;transition5</title>
<path fill="none" stroke="black" d="M595.629,-1198.9C585.526,-1187.26 571.36,-1170.94 564.715,-1163.28"/>
<polygon fill="none" stroke="black" points="565.66,-1161.7 561.061,-1159.07 563.016,-1163.99 565.66,-1161.7"/>
</g>
<!-- PL3 -->
<g id="node2" class="node"><title>PL3</title>
<ellipse fill="none" stroke="black" cx="327" cy="-1104" rx="18" ry="18"/>
<text text-anchor="middle" x="327" y="-1100.3" font-family="Times,serif" font-size="14.00">PL3</text>
</g>
<!-- transition16 -->
<g id="node5" class="node"><title>transition16</title>
<polygon fill="none" stroke="black" points="177,-1032.5 141,-1032.5 141,-1031.5 177,-1031.5 177,-1032.5"/>
<text text-anchor="middle" x="135" y="-1036.3" font-family="Times,serif" font-size="14.00">b&#45;</text>
</g>
<!-- PL3&#45;&gt;transition16 -->
<g id="edge3" class="edge"><title>PL3&#45;&gt;transition16</title>
<path fill="none" stroke="black" d="M310.586,-1096.16C273.687,-1080.79 185.712,-1044.13 163.938,-1035.06"/>
<polygon fill="none" stroke="black" points="164.368,-1033.34 159.079,-1033.03 163.022,-1036.57 164.368,-1033.34"/>
</g>
<!-- transition5&#45;&gt;PL3 -->
<g id="edge2" class="edge"><title>transition5&#45;&gt;PL3</title>
<path fill="none" stroke="black" d="M560.957,-1157.99C558.132,-1157.35 415.607,-1125.07 354.424,-1111.21"/>
<polygon fill="black" stroke="black" points="354.857,-1107.72 344.331,-1108.93 353.311,-1114.55 354.857,-1107.72"/>
</g>
<!-- PL24 -->
<g id="node34" class="node"><title>PL24</title>
<ellipse fill="none" stroke="black" cx="586" cy="-1032" rx="18" ry="18"/>
<text text-anchor="middle" x="586" y="-1028.3" font-family="Times,serif" font-size="14.00">PL24</text>
</g>
<!-- transition5&#45;&gt;PL24 -->
<g id="edge39" class="edge"><title>transition5&#45;&gt;PL24</title>
<path fill="none" stroke="black" d="M561.018,-1157.91C561.546,-1155.27 573.469,-1095.66 580.65,-1059.75"/>
<polygon fill="black" stroke="black" points="584.093,-1060.38 582.622,-1049.89 577.229,-1059.01 584.093,-1060.38"/>
</g>
<!-- PL4 -->
<g id="node4" class="node"><title>PL4</title>
<ellipse fill="none" stroke="black" cx="188" cy="-960" rx="18" ry="18"/>
<text text-anchor="middle" x="188" y="-956.3" font-family="Times,serif" font-size="14.00">PL4</text>
</g>
<!-- transition15 -->
<g id="node7" class="node"><title>transition15</title>
<polygon fill="none" stroke="black" points="217,-888.5 181,-888.5 181,-887.5 217,-887.5 217,-888.5"/>
<text text-anchor="middle" x="173.5" y="-892.3" font-family="Times,serif" font-size="14.00">a+</text>
</g>
<!-- PL4&#45;&gt;transition15 -->
<g id="edge5" class="edge"><title>PL4&#45;&gt;transition15</title>
<path fill="none" stroke="black" d="M190.663,-942.055C193.127,-926.376 196.637,-904.04 198.198,-894.104"/>
<polygon fill="none" stroke="black" points="199.938,-894.304 198.985,-889.093 196.48,-893.761 199.938,-894.304"/>
</g>
<!-- transition16&#45;&gt;PL4 -->
<g id="edge4" class="edge"><title>transition16&#45;&gt;PL4</title>
<path fill="none" stroke="black" d="M159.021,-1030.95C159.537,-1029.7 169.47,-1005.73 177.565,-986.189"/>
<polygon fill="black" stroke="black" points="180.862,-987.375 181.456,-976.797 174.395,-984.696 180.862,-987.375"/>
</g>
<!-- PL23 -->
<g id="node12" class="node"><title>PL23</title>
<ellipse fill="none" stroke="black" cx="42" cy="-888" rx="18" ry="18"/>
<text text-anchor="middle" x="42" y="-884.3" font-family="Times,serif" font-size="14.00">PL23</text>
</g>
<!-- transition16&#45;&gt;PL23 -->
<g id="edge12" class="edge"><title>transition16&#45;&gt;PL23</title>
<path fill="none" stroke="black" d="M158.915,-1030.9C156.258,-1027.67 91.8349,-949.483 59.7796,-910.579"/>
<polygon fill="black" stroke="black" points="62.1629,-907.967 53.1027,-902.475 56.7604,-912.418 62.1629,-907.967"/>
</g>
<!-- PL16 -->
<g id="node6" class="node"><title>PL16</title>
<ellipse fill="none" stroke="black" cx="176" cy="-816" rx="18" ry="18"/>
<text text-anchor="middle" x="176" y="-812.3" font-family="Times,serif" font-size="14.00">PL16</text>
</g>
<!-- transition14 -->
<g id="node9" class="node"><title>transition14</title>
<polygon fill="none" stroke="black" points="102,-762 66,-762 66,-761 102,-761 102,-762"/>
<text text-anchor="middle" x="58" y="-765.8" font-family="Times,serif" font-size="14.00">t2&#45;</text>
</g>
<!-- PL16&#45;&gt;transition14 -->
<g id="edge7" class="edge"><title>PL16&#45;&gt;transition14</title>
<path fill="none" stroke="black" d="M160.808,-806.248C139.449,-793.944 101.691,-772.191 88.612,-764.657"/>
<polygon fill="none" stroke="black" points="89.3523,-763.064 84.1462,-762.084 87.6051,-766.097 89.3523,-763.064"/>
</g>
<!-- transition15&#45;&gt;PL16 -->
<g id="edge6" class="edge"><title>transition15&#45;&gt;PL16</title>
<path fill="none" stroke="black" d="M198.983,-886.949C198.58,-885.722 190.944,-862.482 184.583,-843.122"/>
<polygon fill="black" stroke="black" points="187.865,-841.897 181.418,-833.489 181.214,-844.082 187.865,-841.897"/>
</g>
<!-- PL5 -->
<g id="node18" class="node"><title>PL5</title>
<ellipse fill="none" stroke="black" cx="280" cy="-816" rx="18" ry="18"/>
<text text-anchor="middle" x="280" y="-812.3" font-family="Times,serif" font-size="14.00">PL5</text>
</g>
<!-- transition15&#45;&gt;PL5 -->
<g id="edge20" class="edge"><title>transition15&#45;&gt;PL5</title>
<path fill="none" stroke="black" d="M199.059,-886.949C200.679,-885.549 235.461,-855.49 258.898,-835.236"/>
<polygon fill="black" stroke="black" points="261.364,-837.731 266.642,-828.544 256.787,-832.435 261.364,-837.731"/>
</g>
<!-- PL17 -->
<g id="node8" class="node"><title>PL17</title>
<ellipse fill="none" stroke="black" cx="84" cy="-707" rx="18" ry="18"/>
<text text-anchor="middle" x="84" y="-703.3" font-family="Times,serif" font-size="14.00">PL17</text>
</g>
<!-- transition12 -->
<g id="node11" class="node"><title>transition12</title>
<polygon fill="none" stroke="black" points="102,-635.5 66,-635.5 66,-634.5 102,-634.5 102,-635.5"/>
<text text-anchor="middle" x="56" y="-639.3" font-family="Times,serif" font-size="14.00">r2+</text>
</g>
<!-- PL17&#45;&gt;transition12 -->
<g id="edge9" class="edge"><title>PL17&#45;&gt;transition12</title>
<path fill="none" stroke="black" d="M84,-688.697C84,-673.165 84,-651.324 84,-641.348"/>
<polygon fill="none" stroke="black" points="85.7501,-641.092 84,-636.092 82.2501,-641.092 85.7501,-641.092"/>
</g>
<!-- transition14&#45;&gt;PL17 -->
<g id="edge8" class="edge"><title>transition14&#45;&gt;PL17</title>
<path fill="none" stroke="black" d="M84,-760.848C84,-759.368 84,-747.319 84,-735.1"/>
<polygon fill="black" stroke="black" points="87.5001,-735.025 84,-725.025 80.5001,-735.025 87.5001,-735.025"/>
</g>
<!-- PL22 -->
<g id="node10" class="node"><title>PL22</title>
<ellipse fill="none" stroke="black" cx="138" cy="-563" rx="18" ry="18"/>
<text text-anchor="middle" x="138" y="-559.3" font-family="Times,serif" font-size="14.00">PL22</text>
</g>
<!-- PL22&#45;&gt;transition16 -->
<g id="edge11" class="edge"><title>PL22&#45;&gt;transition16</title>
<path fill="none" stroke="black" d="M136.419,-581.032C134.088,-607.668 130,-660.814 130,-706 130,-889 130,-889 130,-889 130,-943.491 150.753,-1007.41 157.147,-1025.81"/>
<polygon fill="none" stroke="black" points="155.651,-1026.82 158.979,-1030.94 158.948,-1025.65 155.651,-1026.82"/>
</g>
<!-- transition12&#45;&gt;PL22 -->
<g id="edge10" class="edge"><title>transition12&#45;&gt;PL22</title>
<path fill="none" stroke="black" d="M84.0391,-633.949C85.0563,-632.631 105.689,-605.884 121.14,-585.856"/>
<polygon fill="black" stroke="black" points="124.035,-587.833 127.372,-577.778 118.492,-583.558 124.035,-587.833"/>
</g>
<!-- PL18 -->
<g id="node48" class="node"><title>PL18</title>
<ellipse fill="none" stroke="black" cx="84" cy="-563" rx="18" ry="18"/>
<text text-anchor="middle" x="84" y="-559.3" font-family="Times,serif" font-size="14.00">PL18</text>
</g>
<!-- transition12&#45;&gt;PL18 -->
<g id="edge59" class="edge"><title>transition12&#45;&gt;PL18</title>
<path fill="none" stroke="black" d="M84,-633.949C84,-632.748 84,-610.429 84,-591.321"/>
<polygon fill="black" stroke="black" points="87.5001,-591.191 84,-581.191 80.5001,-591.191 87.5001,-591.191"/>
</g>
<!-- transition17 -->
<g id="node14" class="node"><title>transition17</title>
<polygon fill="none" stroke="black" points="102,-509 66,-509 66,-508 102,-508 102,-509"/>
<text text-anchor="middle" x="56.5" y="-512.8" font-family="Times,serif" font-size="14.00">t2+</text>
</g>
<!-- PL23&#45;&gt;transition17 -->
<g id="edge13" class="edge"><title>PL23&#45;&gt;transition17</title>
<path fill="none" stroke="black" d="M33.2976,-871.77C20.9955,-848.766 0,-803.437 0,-762 0,-762 0,-762 0,-634 0,-576.348 62.3184,-525.275 79.6021,-512.219"/>
<polygon fill="none" stroke="black" points="80.9392,-513.409 83.9391,-509.042 78.8712,-510.585 80.9392,-513.409"/>
</g>
<!-- PL19 -->
<g id="node13" class="node"><title>PL19</title>
<ellipse fill="none" stroke="black" cx="84" cy="-454" rx="18" ry="18"/>
<text text-anchor="middle" x="84" y="-450.3" font-family="Times,serif" font-size="14.00">PL19</text>
</g>
<!-- transition13 -->
<g id="node16" class="node"><title>transition13</title>
<polygon fill="none" stroke="black" points="102,-400 66,-400 66,-399 102,-399 102,-400"/>
<text text-anchor="middle" x="57.5" y="-403.8" font-family="Times,serif" font-size="14.00">r2&#45;</text>
</g>
<!-- PL19&#45;&gt;transition13 -->
<g id="edge15" class="edge"><title>PL19&#45;&gt;transition13</title>
<path fill="none" stroke="black" d="M84,-435.939C84,-425.385 84,-412.534 84,-405.412"/>
<polygon fill="none" stroke="black" points="85.7501,-405.059 84,-400.059 82.2501,-405.059 85.7501,-405.059"/>
</g>
<!-- transition17&#45;&gt;PL19 -->
<g id="edge14" class="edge"><title>transition17&#45;&gt;PL19</title>
<path fill="none" stroke="black" d="M84,-507.848C84,-506.368 84,-494.319 84,-482.1"/>
<polygon fill="black" stroke="black" points="87.5001,-482.025 84,-472.025 80.5001,-482.025 87.5001,-482.025"/>
</g>
<!-- PL21 -->
<g id="node17" class="node"><title>PL21</title>
<ellipse fill="none" stroke="black" cx="180" cy="-454" rx="18" ry="18"/>
<text text-anchor="middle" x="180" y="-450.3" font-family="Times,serif" font-size="14.00">PL21</text>
</g>
<!-- transition17&#45;&gt;PL21 -->
<g id="edge18" class="edge"><title>transition17&#45;&gt;PL21</title>
<path fill="none" stroke="black" d="M84.0696,-507.962C86.008,-506.891 128.015,-483.7 155.793,-468.364"/>
<polygon fill="black" stroke="black" points="157.526,-471.405 164.589,-463.508 154.143,-465.277 157.526,-471.405"/>
</g>
<!-- PL20 -->
<g id="node15" class="node"><title>PL20</title>
<ellipse fill="none" stroke="black" cx="61" cy="-345" rx="18" ry="18"/>
<text text-anchor="middle" x="61" y="-341.3" font-family="Times,serif" font-size="14.00">PL20</text>
</g>
<!-- PL20&#45;&gt;transition14 -->
<g id="edge17" class="edge"><title>PL20&#45;&gt;transition14</title>
<path fill="none" stroke="black" d="M55.3146,-362.083C48.5036,-382.82 38,-420.129 38,-453 38,-636 38,-636 38,-636 38,-676.447 40.2524,-688.183 57,-725 63.0169,-738.227 74.5436,-751.238 80.3974,-757.364"/>
<polygon fill="none" stroke="black" points="79.1846,-758.626 83.946,-760.948 81.6719,-756.164 79.1846,-758.626"/>
</g>
<!-- transition13&#45;&gt;PL20 -->
<g id="edge16" class="edge"><title>transition13&#45;&gt;PL20</title>
<path fill="none" stroke="black" d="M83.934,-398.848C83.2621,-397.3 77.5707,-384.185 72.0263,-371.409"/>
<polygon fill="black" stroke="black" points="75.0925,-369.682 67.9008,-361.902 68.671,-372.469 75.0925,-369.682"/>
</g>
<!-- PL21&#45;&gt;transition15 -->
<g id="edge19" class="edge"><title>PL21&#45;&gt;transition15</title>
<path fill="none" stroke="black" d="M189.741,-469.527C202.148,-489.474 222,-526.877 222,-562 222,-762 222,-762 222,-762 222,-809.352 205.838,-865.152 200.61,-881.964"/>
<polygon fill="none" stroke="black" points="198.872,-881.655 199.017,-886.95 202.206,-882.72 198.872,-881.655"/>
</g>
<!-- transition10 -->
<g id="node20" class="node"><title>transition10</title>
<polygon fill="none" stroke="black" points="311,-762 275,-762 275,-761 311,-761 311,-762"/>
<text text-anchor="middle" x="269.5" y="-765.8" font-family="Times,serif" font-size="14.00">c&#45;</text>
</g>
<!-- PL5&#45;&gt;transition10 -->
<g id="edge21" class="edge"><title>PL5&#45;&gt;transition10</title>
<path fill="none" stroke="black" d="M284.113,-798.23C286.765,-787.419 290.033,-774.098 291.773,-767.004"/>
<polygon fill="none" stroke="black" points="293.494,-767.333 292.985,-762.06 290.095,-766.499 293.494,-767.333"/>
</g>
<!-- PL6 -->
<g id="node19" class="node"><title>PL6</title>
<ellipse fill="none" stroke="black" cx="406" cy="-707" rx="18" ry="18"/>
<text text-anchor="middle" x="406" y="-703.3" font-family="Times,serif" font-size="14.00">PL6</text>
</g>
<!-- transition9 -->
<g id="node22" class="node"><title>transition9</title>
<polygon fill="none" stroke="black" points="443,-635.5 407,-635.5 407,-634.5 443,-634.5 443,-635.5"/>
<text text-anchor="middle" x="399.5" y="-639.3" font-family="Times,serif" font-size="14.00">b+</text>
</g>
<!-- PL6&#45;&gt;transition9 -->
<g id="edge23" class="edge"><title>PL6&#45;&gt;transition9</title>
<path fill="none" stroke="black" d="M410.503,-689.411C414.755,-673.745 420.875,-651.198 423.6,-641.159"/>
<polygon fill="none" stroke="black" points="425.353,-641.378 424.974,-636.094 421.976,-640.461 425.353,-641.378"/>
</g>
<!-- transition10&#45;&gt;PL6 -->
<g id="edge22" class="edge"><title>transition10&#45;&gt;PL6</title>
<path fill="none" stroke="black" d="M293.082,-760.962C295.432,-759.859 347.812,-735.292 380.396,-720.009"/>
<polygon fill="black" stroke="black" points="382.227,-723.016 389.795,-715.601 379.255,-716.678 382.227,-723.016"/>
</g>
<!-- PL15 -->
<g id="node47" class="node"><title>PL15</title>
<ellipse fill="none" stroke="black" cx="268" cy="-635" rx="18" ry="18"/>
<text text-anchor="middle" x="268" y="-631.3" font-family="Times,serif" font-size="14.00">PL15</text>
</g>
<!-- transition10&#45;&gt;PL15 -->
<g id="edge57" class="edge"><title>transition10&#45;&gt;PL15</title>
<path fill="none" stroke="black" d="M292.982,-760.909C292.454,-758.272 280.531,-698.656 273.35,-662.752"/>
<polygon fill="black" stroke="black" points="276.771,-662.01 271.378,-652.891 269.907,-663.383 276.771,-662.01"/>
</g>
<!-- PL7 -->
<g id="node21" class="node"><title>PL7</title>
<ellipse fill="none" stroke="black" cx="494" cy="-563" rx="18" ry="18"/>
<text text-anchor="middle" x="494" y="-559.3" font-family="Times,serif" font-size="14.00">PL7</text>
</g>
<!-- transition4 -->
<g id="node23" class="node"><title>transition4</title>
<polygon fill="none" stroke="black" points="650,-509 614,-509 614,-508 650,-508 650,-509"/>
<text text-anchor="middle" x="608.5" y="-512.8" font-family="Times,serif" font-size="14.00">a&#45;</text>
</g>
<!-- PL7&#45;&gt;transition4 -->
<g id="edge25" class="edge"><title>PL7&#45;&gt;transition4</title>
<path fill="none" stroke="black" d="M510.646,-555.607C542.119,-543.52 608.846,-517.893 627.226,-510.834"/>
<polygon fill="none" stroke="black" points="627.898,-512.45 631.939,-509.024 626.643,-509.183 627.898,-512.45"/>
</g>
<!-- transition9&#45;&gt;PL7 -->
<g id="edge24" class="edge"><title>transition9&#45;&gt;PL7</title>
<path fill="none" stroke="black" d="M425.05,-633.949C426.396,-632.584 454.627,-603.944 474.542,-583.74"/>
<polygon fill="black" stroke="black" points="477.167,-586.063 481.694,-576.484 472.181,-581.149 477.167,-586.063"/>
</g>
<!-- PL8 -->
<g id="node36" class="node"><title>PL8</title>
<ellipse fill="none" stroke="black" cx="402" cy="-563" rx="18" ry="18"/>
<text text-anchor="middle" x="402" y="-559.3" font-family="Times,serif" font-size="14.00">PL8</text>
</g>
<!-- transition9&#45;&gt;PL8 -->
<g id="edge43" class="edge"><title>transition9&#45;&gt;PL8</title>
<path fill="none" stroke="black" d="M424.983,-633.949C424.58,-632.722 416.944,-609.482 410.583,-590.122"/>
<polygon fill="black" stroke="black" points="413.865,-588.897 407.418,-580.489 407.214,-591.082 413.865,-588.897"/>
</g>
<!-- transition4&#45;&gt;PL1 -->
<g id="edge26" class="edge"><title>transition4&#45;&gt;PL1</title>
<path fill="none" stroke="black" d="M632,-509.051C632,-511.167 632,-579.312 632,-634 632,-1105 632,-1105 632,-1105 632,-1133.36 623.568,-1164.87 616.498,-1186.3"/>
<polygon fill="black" stroke="black" points="613.12,-1185.36 613.18,-1195.96 619.74,-1187.64 613.12,-1185.36"/>
</g>
<!-- PL2 -->
<g id="node24" class="node"><title>PL2</title>
<ellipse fill="none" stroke="black" cx="632" cy="-454" rx="18" ry="18"/>
<text text-anchor="middle" x="632" y="-450.3" font-family="Times,serif" font-size="14.00">PL2</text>
</g>
<!-- transition4&#45;&gt;PL2 -->
<g id="edge27" class="edge"><title>transition4&#45;&gt;PL2</title>
<path fill="none" stroke="black" d="M632,-507.848C632,-506.368 632,-494.319 632,-482.1"/>
<polygon fill="black" stroke="black" points="635.5,-482.025 632,-472.025 628.5,-482.025 635.5,-482.025"/>
</g>
<!-- transition3 -->
<g id="node26" class="node"><title>transition3</title>
<polygon fill="none" stroke="black" points="604,-400 568,-400 568,-399 604,-399 604,-400"/>
<text text-anchor="middle" x="558.5" y="-403.8" font-family="Times,serif" font-size="14.00">t1+</text>
</g>
<!-- PL2&#45;&gt;transition3 -->
<g id="edge28" class="edge"><title>PL2&#45;&gt;transition3</title>
<path fill="none" stroke="black" d="M620.629,-439.899C610.526,-428.258 596.36,-411.936 589.715,-404.281"/>
<polygon fill="none" stroke="black" points="590.66,-402.699 586.061,-400.07 588.016,-404.993 590.66,-402.699"/>
</g>
<!-- PL27 -->
<g id="node25" class="node"><title>PL27</title>
<ellipse fill="none" stroke="black" cx="586" cy="-345" rx="18" ry="18"/>
<text text-anchor="middle" x="586" y="-341.3" font-family="Times,serif" font-size="14.00">PL27</text>
</g>
<!-- transition1 -->
<g id="node28" class="node"><title>transition1</title>
<polygon fill="none" stroke="black" points="604,-291 568,-291 568,-290 604,-290 604,-291"/>
<text text-anchor="middle" x="559.5" y="-294.8" font-family="Times,serif" font-size="14.00">r1&#45;</text>
</g>
<!-- PL27&#45;&gt;transition1 -->
<g id="edge30" class="edge"><title>PL27&#45;&gt;transition1</title>
<path fill="none" stroke="black" d="M586,-326.939C586,-316.385 586,-303.534 586,-296.412"/>
<polygon fill="none" stroke="black" points="587.75,-296.059 586,-291.059 584.25,-296.059 587.75,-296.059"/>
</g>
<!-- transition3&#45;&gt;PL27 -->
<g id="edge29" class="edge"><title>transition3&#45;&gt;PL27</title>
<path fill="none" stroke="black" d="M586,-398.848C586,-397.368 586,-385.319 586,-373.1"/>
<polygon fill="black" stroke="black" points="589.5,-373.025 586,-363.025 582.5,-373.025 589.5,-373.025"/>
</g>
<!-- PL29 -->
<g id="node33" class="node"><title>PL29</title>
<ellipse fill="none" stroke="black" cx="494" cy="-345" rx="18" ry="18"/>
<text text-anchor="middle" x="494" y="-341.3" font-family="Times,serif" font-size="14.00">PL29</text>
</g>
<!-- transition3&#45;&gt;PL29 -->
<g id="edge37" class="edge"><title>transition3&#45;&gt;PL29</title>
<path fill="none" stroke="black" d="M585.933,-398.962C584.093,-397.902 544.587,-375.143 517.968,-359.808"/>
<polygon fill="black" stroke="black" points="519.585,-356.7 509.173,-354.741 516.09,-362.765 519.585,-356.7"/>
</g>
<!-- PL28 -->
<g id="node27" class="node"><title>PL28</title>
<ellipse fill="none" stroke="black" cx="586" cy="-236" rx="18" ry="18"/>
<text text-anchor="middle" x="586" y="-232.3" font-family="Times,serif" font-size="14.00">PL28</text>
</g>
<!-- transition18 -->
<g id="node30" class="node"><title>transition18</title>
<polygon fill="none" stroke="black" points="639,-182 603,-182 603,-181 639,-181 639,-182"/>
<text text-anchor="middle" x="595" y="-185.8" font-family="Times,serif" font-size="14.00">t1&#45;</text>
</g>
<!-- PL28&#45;&gt;transition18 -->
<g id="edge32" class="edge"><title>PL28&#45;&gt;transition18</title>
<path fill="none" stroke="black" d="M595.564,-220.518C603.093,-209.116 613.109,-193.949 618.023,-186.507"/>
<polygon fill="none" stroke="black" points="619.661,-187.203 620.956,-182.066 616.741,-185.274 619.661,-187.203"/>
</g>
<!-- transition1&#45;&gt;PL28 -->
<g id="edge31" class="edge"><title>transition1&#45;&gt;PL28</title>
<path fill="none" stroke="black" d="M586,-289.848C586,-288.368 586,-276.319 586,-264.1"/>
<polygon fill="black" stroke="black" points="589.5,-264.025 586,-254.025 582.5,-264.025 589.5,-264.025"/>
</g>
<!-- PL25 -->
<g id="node29" class="node"><title>PL25</title>
<ellipse fill="none" stroke="black" cx="621" cy="-127" rx="18" ry="18"/>
<text text-anchor="middle" x="621" y="-123.3" font-family="Times,serif" font-size="14.00">PL25</text>
</g>
<!-- transition2 -->
<g id="node32" class="node"><title>transition2</title>
<polygon fill="none" stroke="black" points="639,-73 603,-73 603,-72 639,-72 639,-73"/>
<text text-anchor="middle" x="593" y="-76.8" font-family="Times,serif" font-size="14.00">r1+</text>
</g>
<!-- PL25&#45;&gt;transition2 -->
<g id="edge34" class="edge"><title>PL25&#45;&gt;transition2</title>
<path fill="none" stroke="black" d="M621,-108.939C621,-98.3852 621,-85.5344 621,-78.4124"/>
<polygon fill="none" stroke="black" points="622.75,-78.0591 621,-73.0591 619.25,-78.0592 622.75,-78.0591"/>
</g>
<!-- transition18&#45;&gt;PL25 -->
<g id="edge33" class="edge"><title>transition18&#45;&gt;PL25</title>
<path fill="none" stroke="black" d="M621,-180.848C621,-179.368 621,-167.319 621,-155.1"/>
<polygon fill="black" stroke="black" points="624.5,-155.025 621,-145.025 617.5,-155.025 624.5,-155.025"/>
</g>
<!-- PL26 -->
<g id="node31" class="node"><title>PL26</title>
<ellipse fill="none" stroke="black" cx="561" cy="-18" rx="18" ry="18"/>
<text text-anchor="middle" x="561" y="-14.3" font-family="Times,serif" font-size="14.00">PL26</text>
</g>
<!-- PL26&#45;&gt;transition3 -->
<g id="edge36" class="edge"><title>PL26&#45;&gt;transition3</title>
<path fill="none" stroke="black" d="M555.701,-35.4835C549.48,-56.3304 540,-93.4391 540,-126 540,-291 540,-291 540,-291 540,-324.095 544.582,-333.21 559,-363 565.33,-376.08 576.715,-389.157 582.468,-395.331"/>
<polygon fill="none" stroke="black" points="581.22,-396.558 585.947,-398.948 583.742,-394.131 581.22,-396.558"/>
</g>
<!-- transition2&#45;&gt;PL26 -->
<g id="edge35" class="edge"><title>transition2&#45;&gt;PL26</title>
<path fill="none" stroke="black" d="M620.957,-71.9616C619.877,-71.008 598.913,-52.4897 582.075,-37.6165"/>
<polygon fill="black" stroke="black" points="584.058,-34.698 574.246,-30.7008 579.424,-39.9443 584.058,-34.698"/>
</g>
<!-- PL30 -->
<g id="node35" class="node"><title>PL30</title>
<ellipse fill="none" stroke="black" cx="625" cy="-18" rx="18" ry="18"/>
<text text-anchor="middle" x="625" y="-14.3" font-family="Times,serif" font-size="14.00">PL30</text>
</g>
<!-- transition2&#45;&gt;PL30 -->
<g id="edge41" class="edge"><title>transition2&#45;&gt;PL30</title>
<path fill="none" stroke="black" d="M621.011,-71.848C621.123,-70.368 622.033,-58.3194 622.955,-46.1004"/>
<polygon fill="black" stroke="black" points="626.453,-46.2598 623.715,-36.0247 619.472,-45.7329 626.453,-46.2598"/>
</g>
<!-- PL29&#45;&gt;transition5 -->
<g id="edge38" class="edge"><title>PL29&#45;&gt;transition5</title>
<path fill="none" stroke="black" d="M504.438,-360.055C518.01,-379.76 540,-417.21 540,-453 540,-1033 540,-1033 540,-1033 540,-1080.22 554.756,-1136.11 559.53,-1152.95"/>
<polygon fill="none" stroke="black" points="557.906,-1153.64 560.985,-1157.95 561.267,-1152.66 557.906,-1153.64"/>
</g>
<!-- PL24&#45;&gt;transition18 -->
<g id="edge40" class="edge"><title>PL24&#45;&gt;transition18</title>
<path fill="none" stroke="black" d="M586,-1013.95C586,-987.292 586,-934.115 586,-889 586,-889 586,-889 586,-508 586,-433.154 632,-420.846 632,-346 632,-346 632,-346 632,-290 632,-250.298 624.552,-202.806 621.913,-187.228"/>
<polygon fill="none" stroke="black" points="623.592,-186.668 621.008,-182.043 620.144,-187.27 623.592,-186.668"/>
</g>
<!-- PL30&#45;&gt;transition4 -->
<g id="edge42" class="edge"><title>PL30&#45;&gt;transition4</title>
<path fill="none" stroke="black" d="M636.5,-32.1462C652.088,-51.3646 678,-88.8927 678,-126 678,-400 678,-400 678,-400 678,-433.095 673.418,-442.21 659,-472 652.67,-485.08 641.285,-498.157 635.532,-504.331"/>
<polygon fill="none" stroke="black" points="634.258,-503.131 632.053,-507.948 636.78,-505.558 634.258,-503.131"/>
</g>
<!-- transition8 -->
<g id="node38" class="node"><title>transition8</title>
<polygon fill="none" stroke="black" points="420,-509 384,-509 384,-508 420,-508 420,-509"/>
<text text-anchor="middle" x="376" y="-512.8" font-family="Times,serif" font-size="14.00">t3&#45;</text>
</g>
<!-- PL8&#45;&gt;transition8 -->
<g id="edge44" class="edge"><title>PL8&#45;&gt;transition8</title>
<path fill="none" stroke="black" d="M402,-544.939C402,-534.385 402,-521.534 402,-514.412"/>
<polygon fill="none" stroke="black" points="403.75,-514.059 402,-509.059 400.25,-514.059 403.75,-514.059"/>
</g>
<!-- PL9 -->
<g id="node37" class="node"><title>PL9</title>
<ellipse fill="none" stroke="black" cx="364" cy="-454" rx="18" ry="18"/>
<text text-anchor="middle" x="364" y="-450.3" font-family="Times,serif" font-size="14.00">PL9</text>
</g>
<!-- transition6 -->
<g id="node40" class="node"><title>transition6</title>
<polygon fill="none" stroke="black" points="382,-400 346,-400 346,-399 382,-399 382,-400"/>
<text text-anchor="middle" x="336" y="-403.8" font-family="Times,serif" font-size="14.00">r3+</text>
</g>
<!-- PL9&#45;&gt;transition6 -->
<g id="edge46" class="edge"><title>PL9&#45;&gt;transition6</title>
<path fill="none" stroke="black" d="M364,-435.939C364,-425.385 364,-412.534 364,-405.412"/>
<polygon fill="none" stroke="black" points="365.75,-405.059 364,-400.059 362.25,-405.059 365.75,-405.059"/>
</g>
<!-- transition8&#45;&gt;PL9 -->
<g id="edge45" class="edge"><title>transition8&#45;&gt;PL9</title>
<path fill="none" stroke="black" d="M401.891,-507.848C400.687,-506.169 389.726,-490.881 379.901,-477.177"/>
<polygon fill="black" stroke="black" points="382.699,-475.073 374.028,-468.986 377.01,-479.152 382.699,-475.073"/>
</g>
<!-- PL10 -->
<g id="node39" class="node"><title>PL10</title>
<ellipse fill="none" stroke="black" cx="364" cy="-345" rx="18" ry="18"/>
<text text-anchor="middle" x="364" y="-341.3" font-family="Times,serif" font-size="14.00">PL10</text>
</g>
<!-- transition11 -->
<g id="node42" class="node"><title>transition11</title>
<polygon fill="none" stroke="black" points="382,-291 346,-291 346,-290 382,-290 382,-291"/>
<text text-anchor="middle" x="336.5" y="-294.8" font-family="Times,serif" font-size="14.00">t3+</text>
</g>
<!-- PL10&#45;&gt;transition11 -->
<g id="edge48" class="edge"><title>PL10&#45;&gt;transition11</title>
<path fill="none" stroke="black" d="M364,-326.939C364,-316.385 364,-303.534 364,-296.412"/>
<polygon fill="none" stroke="black" points="365.75,-296.059 364,-291.059 362.25,-296.059 365.75,-296.059"/>
</g>
<!-- transition6&#45;&gt;PL10 -->
<g id="edge47" class="edge"><title>transition6&#45;&gt;PL10</title>
<path fill="none" stroke="black" d="M364,-398.848C364,-397.368 364,-385.319 364,-373.1"/>
<polygon fill="black" stroke="black" points="367.5,-373.025 364,-363.025 360.5,-373.025 367.5,-373.025"/>
</g>
<!-- PL14 -->
<g id="node46" class="node"><title>PL14</title>
<ellipse fill="none" stroke="black" cx="310" cy="-345" rx="18" ry="18"/>
<text text-anchor="middle" x="310" y="-341.3" font-family="Times,serif" font-size="14.00">PL14</text>
</g>
<!-- transition6&#45;&gt;PL14 -->
<g id="edge55" class="edge"><title>transition6&#45;&gt;PL14</title>
<path fill="none" stroke="black" d="M363.845,-398.848C362.012,-397.049 344.262,-379.628 329.635,-365.272"/>
<polygon fill="black" stroke="black" points="331.96,-362.649 322.372,-358.143 327.057,-367.645 331.96,-362.649"/>
</g>
<!-- PL11 -->
<g id="node41" class="node"><title>PL11</title>
<ellipse fill="none" stroke="black" cx="364" cy="-236" rx="18" ry="18"/>
<text text-anchor="middle" x="364" y="-232.3" font-family="Times,serif" font-size="14.00">PL11</text>
</g>
<!-- transition7 -->
<g id="node44" class="node"><title>transition7</title>
<polygon fill="none" stroke="black" points="382,-182 346,-182 346,-181 382,-181 382,-182"/>
<text text-anchor="middle" x="337.5" y="-185.8" font-family="Times,serif" font-size="14.00">r3&#45;</text>
</g>
<!-- PL11&#45;&gt;transition7 -->
<g id="edge50" class="edge"><title>PL11&#45;&gt;transition7</title>
<path fill="none" stroke="black" d="M364,-217.939C364,-207.385 364,-194.534 364,-187.412"/>
<polygon fill="none" stroke="black" points="365.75,-187.059 364,-182.059 362.25,-187.059 365.75,-187.059"/>
</g>
<!-- transition11&#45;&gt;PL11 -->
<g id="edge49" class="edge"><title>transition11&#45;&gt;PL11</title>
<path fill="none" stroke="black" d="M364,-289.848C364,-288.368 364,-276.319 364,-264.1"/>
<polygon fill="black" stroke="black" points="367.5,-264.025 364,-254.025 360.5,-264.025 367.5,-264.025"/>
</g>
<!-- PL13 -->
<g id="node45" class="node"><title>PL13</title>
<ellipse fill="none" stroke="black" cx="456" cy="-236" rx="18" ry="18"/>
<text text-anchor="middle" x="456" y="-232.3" font-family="Times,serif" font-size="14.00">PL13</text>
</g>
<!-- transition11&#45;&gt;PL13 -->
<g id="edge53" class="edge"><title>transition11&#45;&gt;PL13</title>
<path fill="none" stroke="black" d="M364.067,-289.962C365.907,-288.902 405.413,-266.143 432.032,-250.808"/>
<polygon fill="black" stroke="black" points="433.91,-253.765 440.827,-245.741 430.415,-247.7 433.91,-253.765"/>
</g>
<!-- PL12 -->
<g id="node43" class="node"><title>PL12</title>
<ellipse fill="none" stroke="black" cx="387" cy="-127" rx="18" ry="18"/>
<text text-anchor="middle" x="387" y="-123.3" font-family="Times,serif" font-size="14.00">PL12</text>
</g>
<!-- PL12&#45;&gt;transition8 -->
<g id="edge52" class="edge"><title>PL12&#45;&gt;transition8</title>
<path fill="none" stroke="black" d="M392.685,-144.083C399.496,-164.82 410,-202.129 410,-235 410,-400 410,-400 410,-400 410,-439.606 404.583,-487.16 402.664,-502.763"/>
<polygon fill="none" stroke="black" points="400.898,-502.776 402.006,-507.956 404.371,-503.216 400.898,-502.776"/>
</g>
<!-- transition7&#45;&gt;PL12 -->
<g id="edge51" class="edge"><title>transition7&#45;&gt;PL12</title>
<path fill="none" stroke="black" d="M364.066,-180.848C364.738,-179.3 370.429,-166.185 375.974,-153.409"/>
<polygon fill="black" stroke="black" points="379.329,-154.469 380.099,-143.902 372.908,-151.682 379.329,-154.469"/>
</g>
<!-- PL13&#45;&gt;transition9 -->
<g id="edge54" class="edge"><title>PL13&#45;&gt;transition9</title>
<path fill="none" stroke="black" d="M453.94,-254.02C451.569,-275.105 448,-312.146 448,-344 448,-509 448,-509 448,-509 448,-556.352 431.838,-612.152 426.61,-628.964"/>
<polygon fill="none" stroke="black" points="424.872,-628.655 425.017,-633.95 428.206,-629.72 424.872,-628.655"/>
</g>
<!-- PL14&#45;&gt;transition10 -->
<g id="edge56" class="edge"><title>PL14&#45;&gt;transition10</title>
<path fill="none" stroke="black" d="M311.03,-363.042C312.215,-384.149 314,-421.212 314,-453 314,-636 314,-636 314,-636 314,-683.222 299.244,-739.11 294.47,-755.954"/>
<polygon fill="none" stroke="black" points="292.733,-755.66 293.015,-760.95 296.094,-756.639 292.733,-755.66"/>
</g>
<!-- PL15&#45;&gt;transition11 -->
<g id="edge58" class="edge"><title>PL15&#45;&gt;transition11</title>
<path fill="none" stroke="black" d="M267.092,-616.615C265.912,-592.475 264,-547.431 264,-509 264,-509 264,-509 264,-399 264,-365.905 261.546,-352.2 283,-327 303.681,-302.708 343.986,-294.151 358.569,-291.775"/>
<polygon fill="none" stroke="black" points="359.14,-293.461 363.84,-291.018 358.642,-289.997 359.14,-293.461"/>
</g>
<!-- PL18&#45;&gt;transition17 -->
<g id="edge60" class="edge"><title>PL18&#45;&gt;transition17</title>
<path fill="none" stroke="black" d="M84,-544.939C84,-534.385 84,-521.534 84,-514.412"/>
<polygon fill="none" stroke="black" points="85.7501,-514.059 84,-509.059 82.2501,-514.059 85.7501,-514.059"/>
</g>
</g>
</svg>
