<?xml version="1.0" encoding="UTF-8" standalone="no"?>
<!DOCTYPE svg PUBLIC "-//W3C//DTD SVG 1.1//EN"
 "http://www.w3.org/Graphics/SVG/1.1/DTD/svg11.dtd">
<!-- Generated by graphviz version 2.38.0 (20140413.2041)
 -->
<!-- Title: %3 Pages: 1 -->
<svg width="814pt" height="1239pt"
 viewBox="0.00 0.00 814.00 1239.00" xmlns="http://www.w3.org/2000/svg" xmlns:xlink="http://www.w3.org/1999/xlink">
<g id="graph0" class="graph" transform="scale(1 1) rotate(0) translate(4 1235)">
<title>%3</title>
<polygon fill="white" stroke="none" points="-4,4 -4,-1235 810,-1235 810,4 -4,4"/>
<!-- pl1 -->
<g id="node1" class="node"><title>pl1</title>
<ellipse fill="none" stroke="black" cx="155" cy="-1213" rx="18" ry="18"/>
<text text-anchor="middle" x="155" y="-1209.3" font-family="Times,serif" font-size="14.00">pl1</text>
</g>
<!-- transition5 -->
<g id="node3" class="node"><title>transition5</title>
<polygon fill="none" stroke="black" points="289,-1159 253,-1159 253,-1158 289,-1158 289,-1159"/>
<text text-anchor="middle" x="245.5" y="-1162.8" font-family="Times,serif" font-size="14.00">c+</text>
</g>
<!-- pl1&#45;&gt;transition5 -->
<g id="edge1" class="edge"><title>pl1&#45;&gt;transition5</title>
<path fill="none" stroke="black" d="M171.129,-1204.63C202.505,-1190.3 268.884,-1159.97 270.951,-1159.02"/>
</g>
<!-- pl2 -->
<g id="node2" class="node"><title>pl2</title>
<ellipse fill="none" stroke="black" cx="535" cy="-1104" rx="18" ry="18"/>
<text text-anchor="middle" x="535" y="-1100.3" font-family="Times,serif" font-size="14.00">pl2</text>
</g>
<!-- transition16 -->
<g id="node5" class="node"><title>transition16</title>
<polygon fill="none" stroke="black" points="644,-1032.5 608,-1032.5 608,-1031.5 644,-1031.5 644,-1032.5"/>
<text text-anchor="middle" x="602" y="-1036.3" font-family="Times,serif" font-size="14.00">b&#45;</text>
</g>
<!-- pl2&#45;&gt;transition16 -->
<g id="edge3" class="edge"><title>pl2&#45;&gt;transition16</title>
<path fill="none" stroke="black" d="M548.821,-1092.37C573.482,-1073.4 622.793,-1035.47 625.851,-1033.11"/>
</g>
<!-- transition5&#45;&gt;pl2 -->
<g id="edge2" class="edge"><title>transition5&#45;&gt;pl2</title>
<path fill="none" stroke="black" d="M271.048,-1157.99C274.293,-1157.34 440.88,-1123.9 507.701,-1110.48"/>
<polygon fill="black" stroke="black" points="508.413,-1113.91 517.528,-1108.51 507.035,-1107.04 508.413,-1113.91"/>
</g>
<!-- pl23 -->
<g id="node23" class="node"><title>pl23</title>
<ellipse fill="none" stroke="black" cx="271" cy="-1032" rx="18" ry="18"/>
<text text-anchor="middle" x="271" y="-1028.3" font-family="Times,serif" font-size="14.00">pl23</text>
</g>
<!-- transition5&#45;&gt;pl23 -->
<g id="edge25" class="edge"><title>transition5&#45;&gt;pl23</title>
<path fill="none" stroke="black" d="M271,-1157.91C271,-1155.29 271,-1096.47 271,-1060.49"/>
<polygon fill="black" stroke="black" points="274.5,-1060.15 271,-1050.15 267.5,-1060.15 274.5,-1060.15"/>
</g>
<!-- pl3 -->
<g id="node4" class="node"><title>pl3</title>
<ellipse fill="none" stroke="black" cx="603" cy="-960" rx="18" ry="18"/>
<text text-anchor="middle" x="603" y="-956.3" font-family="Times,serif" font-size="14.00">pl3</text>
</g>
<!-- transition15 -->
<g id="node7" class="node"><title>transition15</title>
<polygon fill="none" stroke="black" points="621,-888.5 585,-888.5 585,-887.5 621,-887.5 621,-888.5"/>
<text text-anchor="middle" x="577.5" y="-892.3" font-family="Times,serif" font-size="14.00">a+</text>
</g>
<!-- pl3&#45;&gt;transition15 -->
<g id="edge5" class="edge"><title>pl3&#45;&gt;transition15</title>
<path fill="none" stroke="black" d="M603,-941.697C603,-921.615 603,-890.987 603,-889.092"/>
</g>
<!-- transition16&#45;&gt;pl3 -->
<g id="edge4" class="edge"><title>transition16&#45;&gt;pl3</title>
<path fill="none" stroke="black" d="M625.983,-1030.95C625.58,-1029.72 617.944,-1006.48 611.583,-987.122"/>
<polygon fill="black" stroke="black" points="614.865,-985.897 608.418,-977.489 608.214,-988.082 614.865,-985.897"/>
</g>
<!-- pl22 -->
<g id="node50" class="node"><title>pl22</title>
<ellipse fill="none" stroke="black" cx="760" cy="-888" rx="18" ry="18"/>
<text text-anchor="middle" x="760" y="-884.3" font-family="Times,serif" font-size="14.00">pl22</text>
</g>
<!-- transition16&#45;&gt;pl22 -->
<g id="edge63" class="edge"><title>transition16&#45;&gt;pl22</title>
<path fill="none" stroke="black" d="M626.102,-1030.92C628.191,-1029.29 661.994,-1002.73 686,-978 707.022,-956.34 728.852,-929.457 743.303,-910.937"/>
<polygon fill="black" stroke="black" points="746.231,-912.873 749.582,-902.822 740.695,-908.589 746.231,-912.873"/>
</g>
<!-- pl4 -->
<g id="node6" class="node"><title>pl4</title>
<ellipse fill="none" stroke="black" cx="510" cy="-816" rx="18" ry="18"/>
<text text-anchor="middle" x="510" y="-812.3" font-family="Times,serif" font-size="14.00">pl4</text>
</g>
<!-- transition10 -->
<g id="node9" class="node"><title>transition10</title>
<polygon fill="none" stroke="black" points="528,-762 492,-762 492,-761 528,-761 528,-762"/>
<text text-anchor="middle" x="486.5" y="-765.8" font-family="Times,serif" font-size="14.00">c&#45;</text>
</g>
<!-- pl4&#45;&gt;transition10 -->
<g id="edge7" class="edge"><title>pl4&#45;&gt;transition10</title>
<path fill="none" stroke="black" d="M510,-797.939C510,-782.929 510,-763.273 510,-762.059"/>
</g>
<!-- transition15&#45;&gt;pl4 -->
<g id="edge6" class="edge"><title>transition15&#45;&gt;pl4</title>
<path fill="none" stroke="black" d="M602.933,-886.949C601.027,-885.515 559.137,-853.985 532.255,-833.751"/>
<polygon fill="black" stroke="black" points="534.219,-830.849 524.125,-827.631 530.01,-836.442 534.219,-830.849"/>
</g>
<!-- pl15 -->
<g id="node39" class="node"><title>pl15</title>
<ellipse fill="none" stroke="black" cx="626" cy="-816" rx="18" ry="18"/>
<text text-anchor="middle" x="626" y="-812.3" font-family="Times,serif" font-size="14.00">pl15</text>
</g>
<!-- transition15&#45;&gt;pl15 -->
<g id="edge49" class="edge"><title>transition15&#45;&gt;pl15</title>
<path fill="none" stroke="black" d="M603.017,-886.949C603.42,-885.722 611.056,-862.482 617.417,-843.122"/>
<polygon fill="black" stroke="black" points="620.786,-844.082 620.582,-833.489 614.135,-841.897 620.786,-844.082"/>
</g>
<!-- pl5 -->
<g id="node8" class="node"><title>pl5</title>
<ellipse fill="none" stroke="black" cx="444" cy="-707" rx="18" ry="18"/>
<text text-anchor="middle" x="444" y="-703.3" font-family="Times,serif" font-size="14.00">pl5</text>
</g>
<!-- transition9 -->
<g id="node11" class="node"><title>transition9</title>
<polygon fill="none" stroke="black" points="354,-635.5 318,-635.5 318,-634.5 354,-634.5 354,-635.5"/>
<text text-anchor="middle" x="310.5" y="-639.3" font-family="Times,serif" font-size="14.00">b+</text>
</g>
<!-- pl5&#45;&gt;transition9 -->
<g id="edge9" class="edge"><title>pl5&#45;&gt;transition9</title>
<path fill="none" stroke="black" d="M428.983,-696.267C399.771,-677.333 337.97,-637.277 336.046,-636.03"/>
</g>
<!-- transition10&#45;&gt;pl5 -->
<g id="edge8" class="edge"><title>transition10&#45;&gt;pl5</title>
<path fill="none" stroke="black" d="M509.952,-760.962C508.728,-759.979 484.262,-740.332 465.484,-725.252"/>
<polygon fill="black" stroke="black" points="467.604,-722.466 457.615,-718.933 463.221,-727.924 467.604,-722.466"/>
</g>
<!-- pl14 -->
<g id="node38" class="node"><title>pl14</title>
<ellipse fill="none" stroke="black" cx="534" cy="-635" rx="18" ry="18"/>
<text text-anchor="middle" x="534" y="-631.3" font-family="Times,serif" font-size="14.00">pl14</text>
</g>
<!-- transition10&#45;&gt;pl14 -->
<g id="edge47" class="edge"><title>transition10&#45;&gt;pl14</title>
<path fill="none" stroke="black" d="M510.017,-760.909C510.524,-758.272 521.97,-698.656 528.864,-662.752"/>
<polygon fill="black" stroke="black" points="532.309,-663.371 530.757,-652.891 525.434,-662.051 532.309,-663.371"/>
</g>
<!-- pl6 -->
<g id="node10" class="node"><title>pl6</title>
<ellipse fill="none" stroke="black" cx="85" cy="-563" rx="18" ry="18"/>
<text text-anchor="middle" x="85" y="-559.3" font-family="Times,serif" font-size="14.00">pl6</text>
</g>
<!-- transition3 -->
<g id="node12" class="node"><title>transition3</title>
<polygon fill="none" stroke="black" points="80,-509 44,-509 44,-508 80,-508 80,-509"/>
<text text-anchor="middle" x="38.5" y="-512.8" font-family="Times,serif" font-size="14.00">a&#45;</text>
</g>
<!-- pl6&#45;&gt;transition3 -->
<g id="edge11" class="edge"><title>pl6&#45;&gt;transition3</title>
<path fill="none" stroke="black" d="M78.0992,-546.098C71.5362,-530.975 62.5803,-510.337 62.027,-509.062"/>
</g>
<!-- transition9&#45;&gt;pl6 -->
<g id="edge10" class="edge"><title>transition9&#45;&gt;pl6</title>
<path fill="none" stroke="black" d="M335.954,-633.987C332.89,-633.133 176.597,-589.545 112.242,-571.597"/>
<polygon fill="black" stroke="black" points="112.964,-568.165 102.392,-568.85 111.084,-574.908 112.964,-568.165"/>
</g>
<!-- pl7 -->
<g id="node27" class="node"><title>pl7</title>
<ellipse fill="none" stroke="black" cx="355" cy="-563" rx="18" ry="18"/>
<text text-anchor="middle" x="355" y="-559.3" font-family="Times,serif" font-size="14.00">pl7</text>
</g>
<!-- transition9&#45;&gt;pl7 -->
<g id="edge33" class="edge"><title>transition9&#45;&gt;pl7</title>
<path fill="none" stroke="black" d="M336.014,-633.949C336.345,-632.728 342.597,-609.695 347.837,-590.389"/>
<polygon fill="black" stroke="black" points="351.283,-591.057 350.524,-580.489 344.527,-589.223 351.283,-591.057"/>
</g>
<!-- transition3&#45;&gt;pl1 -->
<g id="edge12" class="edge"><title>transition3&#45;&gt;pl1</title>
<path fill="none" stroke="black" d="M61.9833,-509.05C61.2869,-511.138 39,-578.394 39,-634 39,-1105 39,-1105 39,-1105 39,-1153.63 94.7544,-1186.26 128.956,-1201.7"/>
<polygon fill="black" stroke="black" points="127.812,-1205.02 138.38,-1205.77 130.587,-1198.59 127.812,-1205.02"/>
</g>
<!-- pl30 -->
<g id="node13" class="node"><title>pl30</title>
<ellipse fill="none" stroke="black" cx="74" cy="-454" rx="18" ry="18"/>
<text text-anchor="middle" x="74" y="-450.3" font-family="Times,serif" font-size="14.00">pl30</text>
</g>
<!-- transition3&#45;&gt;pl30 -->
<g id="edge13" class="edge"><title>transition3&#45;&gt;pl30</title>
<path fill="none" stroke="black" d="M62.0344,-507.848C62.375,-506.344 65.188,-493.919 68.0008,-481.496"/>
<polygon fill="black" stroke="black" points="71.4146,-482.268 70.2093,-471.742 64.5874,-480.722 71.4146,-482.268"/>
</g>
<!-- transition2 -->
<g id="node15" class="node"><title>transition2</title>
<polygon fill="none" stroke="black" points="195,-400 159,-400 159,-399 195,-399 195,-400"/>
<text text-anchor="middle" x="149.5" y="-403.8" font-family="Times,serif" font-size="14.00">t1+</text>
</g>
<!-- pl30&#45;&gt;transition2 -->
<g id="edge14" class="edge"><title>pl30&#45;&gt;transition2</title>
<path fill="none" stroke="black" d="M89.6435,-444.95C117.557,-430.587 173.37,-401.868 176.831,-400.087"/>
</g>
<!-- pl26 -->
<g id="node14" class="node"><title>pl26</title>
<ellipse fill="none" stroke="black" cx="100" cy="-345" rx="18" ry="18"/>
<text text-anchor="middle" x="100" y="-341.3" font-family="Times,serif" font-size="14.00">pl26</text>
</g>
<!-- transition4 -->
<g id="node17" class="node"><title>transition4</title>
<polygon fill="none" stroke="black" points="134,-291 98,-291 98,-290 134,-290 134,-291"/>
<text text-anchor="middle" x="89.5" y="-294.8" font-family="Times,serif" font-size="14.00">r1&#45;</text>
</g>
<!-- pl26&#45;&gt;transition4 -->
<g id="edge16" class="edge"><title>pl26&#45;&gt;transition4</title>
<path fill="none" stroke="black" d="M104.975,-327.521C109.525,-312.449 115.606,-292.305 115.982,-291.061"/>
</g>
<!-- transition2&#45;&gt;pl26 -->
<g id="edge15" class="edge"><title>transition2&#45;&gt;pl26</title>
<path fill="none" stroke="black" d="M176.944,-398.962C175.465,-397.943 144.884,-376.894 122.728,-361.644"/>
<polygon fill="black" stroke="black" points="124.66,-358.725 114.438,-355.938 120.691,-364.491 124.66,-358.725"/>
</g>
<!-- pl28 -->
<g id="node22" class="node"><title>pl28</title>
<ellipse fill="none" stroke="black" cx="246" cy="-345" rx="18" ry="18"/>
<text text-anchor="middle" x="246" y="-341.3" font-family="Times,serif" font-size="14.00">pl28</text>
</g>
<!-- transition2&#45;&gt;pl28 -->
<g id="edge23" class="edge"><title>transition2&#45;&gt;pl28</title>
<path fill="none" stroke="black" d="M177.05,-398.962C178.343,-397.969 204.425,-377.934 224.13,-362.799"/>
<polygon fill="black" stroke="black" points="226.295,-365.549 232.094,-356.681 222.031,-359.997 226.295,-365.549"/>
</g>
<!-- pl31 -->
<g id="node24" class="node"><title>pl31</title>
<ellipse fill="none" stroke="black" cx="154" cy="-345" rx="18" ry="18"/>
<text text-anchor="middle" x="154" y="-341.3" font-family="Times,serif" font-size="14.00">pl31</text>
</g>
<!-- transition2&#45;&gt;pl31 -->
<g id="edge27" class="edge"><title>transition2&#45;&gt;pl31</title>
<path fill="none" stroke="black" d="M176.934,-398.848C176.262,-397.3 170.571,-384.185 165.026,-371.409"/>
<polygon fill="black" stroke="black" points="168.092,-369.682 160.901,-361.902 161.671,-372.469 168.092,-369.682"/>
</g>
<!-- pl32 -->
<g id="node25" class="node"><title>pl32</title>
<ellipse fill="none" stroke="black" cx="46" cy="-345" rx="18" ry="18"/>
<text text-anchor="middle" x="46" y="-341.3" font-family="Times,serif" font-size="14.00">pl32</text>
</g>
<!-- transition2&#45;&gt;pl32 -->
<g id="edge29" class="edge"><title>transition2&#45;&gt;pl32</title>
<path fill="none" stroke="black" d="M176.956,-398.989C175.132,-398.535 116.406,-383.838 73,-363 71.8203,-362.434 70.6283,-361.827 69.4365,-361.192"/>
<polygon fill="black" stroke="black" points="70.9075,-357.999 60.5062,-355.983 67.3804,-364.045 70.9075,-357.999"/>
</g>
<!-- pl27 -->
<g id="node16" class="node"><title>pl27</title>
<ellipse fill="none" stroke="black" cx="116" cy="-236" rx="18" ry="18"/>
<text text-anchor="middle" x="116" y="-232.3" font-family="Times,serif" font-size="14.00">pl27</text>
</g>
<!-- transition18 -->
<g id="node19" class="node"><title>transition18</title>
<polygon fill="none" stroke="black" points="153,-182 117,-182 117,-181 153,-181 153,-182"/>
<text text-anchor="middle" x="109" y="-185.8" font-family="Times,serif" font-size="14.00">t1&#45;</text>
</g>
<!-- pl27&#45;&gt;transition18 -->
<g id="edge18" class="edge"><title>pl27&#45;&gt;transition18</title>
<path fill="none" stroke="black" d="M121.804,-218.81C127.217,-203.711 134.526,-183.321 134.978,-182.061"/>
</g>
<!-- transition4&#45;&gt;pl27 -->
<g id="edge17" class="edge"><title>transition4&#45;&gt;pl27</title>
<path fill="none" stroke="black" d="M116,-289.848C116,-288.368 116,-276.319 116,-264.1"/>
<polygon fill="black" stroke="black" points="119.5,-264.025 116,-254.025 112.5,-264.025 119.5,-264.025"/>
</g>
<!-- pl24 -->
<g id="node18" class="node"><title>pl24</title>
<ellipse fill="none" stroke="black" cx="135" cy="-127" rx="18" ry="18"/>
<text text-anchor="middle" x="135" y="-123.3" font-family="Times,serif" font-size="14.00">pl24</text>
</g>
<!-- transition1 -->
<g id="node21" class="node"><title>transition1</title>
<polygon fill="none" stroke="black" points="153,-73 117,-73 117,-72 153,-72 153,-73"/>
<text text-anchor="middle" x="107" y="-76.8" font-family="Times,serif" font-size="14.00">r1+</text>
</g>
<!-- pl24&#45;&gt;transition1 -->
<g id="edge20" class="edge"><title>pl24&#45;&gt;transition1</title>
<path fill="none" stroke="black" d="M135,-108.939C135,-93.9293 135,-74.273 135,-73.0591"/>
</g>
<!-- transition18&#45;&gt;pl24 -->
<g id="edge19" class="edge"><title>transition18&#45;&gt;pl24</title>
<path fill="none" stroke="black" d="M135,-180.848C135,-179.368 135,-167.319 135,-155.1"/>
<polygon fill="black" stroke="black" points="138.5,-155.025 135,-145.025 131.5,-155.025 138.5,-155.025"/>
</g>
<!-- pl25 -->
<g id="node20" class="node"><title>pl25</title>
<ellipse fill="none" stroke="black" cx="162" cy="-18" rx="18" ry="18"/>
<text text-anchor="middle" x="162" y="-14.3" font-family="Times,serif" font-size="14.00">pl25</text>
</g>
<!-- pl25&#45;&gt;transition2 -->
<g id="edge22" class="edge"><title>pl25&#45;&gt;transition2</title>
<path fill="none" stroke="black" d="M171.005,-33.9965C182.243,-54.1682 200,-91.5021 200,-126 200,-291 200,-291 200,-291 200,-339.31 177.713,-397.161 177.017,-398.957"/>
</g>
<!-- transition1&#45;&gt;pl25 -->
<g id="edge21" class="edge"><title>transition1&#45;&gt;pl25</title>
<path fill="none" stroke="black" d="M135.077,-71.848C135.884,-70.265 142.85,-56.5906 149.494,-43.5496"/>
<polygon fill="black" stroke="black" points="152.761,-44.8468 154.181,-34.3476 146.523,-41.6692 152.761,-44.8468"/>
</g>
<!-- pl29 -->
<g id="node26" class="node"><title>pl29</title>
<ellipse fill="none" stroke="black" cx="64" cy="-18" rx="18" ry="18"/>
<text text-anchor="middle" x="64" y="-14.3" font-family="Times,serif" font-size="14.00">pl29</text>
</g>
<!-- transition1&#45;&gt;pl29 -->
<g id="edge31" class="edge"><title>transition1&#45;&gt;pl29</title>
<path fill="none" stroke="black" d="M134.949,-71.9616C133.611,-70.9632 106.483,-50.7123 86.1682,-35.5481"/>
<polygon fill="black" stroke="black" points="88.0816,-32.6088 77.9743,-29.4316 83.8942,-38.2183 88.0816,-32.6088"/>
</g>
<!-- pl28&#45;&gt;transition5 -->
<g id="edge24" class="edge"><title>pl28&#45;&gt;transition5</title>
<path fill="none" stroke="black" d="M256.82,-359.758C286.438,-397.717 367.587,-503.825 382,-545 413.805,-635.857 398,-664.737 398,-761 398,-1033 398,-1033 398,-1033 398,-1110.96 274.938,-1156.56 271.092,-1157.97"/>
</g>
<!-- pl23&#45;&gt;transition18 -->
<g id="edge26" class="edge"><title>pl23&#45;&gt;transition18</title>
<path fill="none" stroke="black" d="M271,-1013.95C271,-987.292 271,-934.115 271,-889 271,-889 271,-889 271,-508 271,-427.551 302.865,-401.7 273,-327 240.489,-245.683 138.263,-183.955 135.076,-182.046"/>
</g>
<!-- pl31&#45;&gt;transition4 -->
<g id="edge28" class="edge"><title>pl31&#45;&gt;transition4</title>
<path fill="none" stroke="black" d="M143.817,-329.797C132.912,-314.588 117.03,-292.436 116.048,-291.067"/>
</g>
<!-- pl32&#45;&gt;transition5 -->
<g id="edge30" class="edge"><title>pl32&#45;&gt;transition5</title>
<path fill="none" stroke="black" d="M61.1963,-355.461C85.6453,-371.991 131,-408.635 131,-453 131,-1033 131,-1033 131,-1033 131,-1115.11 266.659,-1156.69 270.899,-1157.97"/>
</g>
<!-- pl29&#45;&gt;transition3 -->
<g id="edge32" class="edge"><title>pl29&#45;&gt;transition3</title>
<path fill="none" stroke="black" d="M51.0486,-30.7778C32.3477,-49.1434 0,-86.6047 0,-126 0,-400 0,-400 0,-400 0,-454.482 60.0776,-506.354 61.9551,-507.962"/>
</g>
<!-- transition8 -->
<g id="node29" class="node"><title>transition8</title>
<polygon fill="none" stroke="black" points="411,-509 375,-509 375,-508 411,-508 411,-509"/>
<text text-anchor="middle" x="367" y="-512.8" font-family="Times,serif" font-size="14.00">t3&#45;</text>
</g>
<!-- pl7&#45;&gt;transition8 -->
<g id="edge34" class="edge"><title>pl7&#45;&gt;transition8</title>
<path fill="none" stroke="black" d="M365.183,-547.797C376.088,-532.588 391.97,-510.436 392.952,-509.067"/>
</g>
<!-- pl8 -->
<g id="node28" class="node"><title>pl8</title>
<ellipse fill="none" stroke="black" cx="434" cy="-454" rx="18" ry="18"/>
<text text-anchor="middle" x="434" y="-450.3" font-family="Times,serif" font-size="14.00">pl8</text>
</g>
<!-- transition6 -->
<g id="node31" class="node"><title>transition6</title>
<polygon fill="none" stroke="black" points="452,-400 416,-400 416,-399 452,-399 452,-400"/>
<text text-anchor="middle" x="406" y="-403.8" font-family="Times,serif" font-size="14.00">r3+</text>
</g>
<!-- pl8&#45;&gt;transition6 -->
<g id="edge36" class="edge"><title>pl8&#45;&gt;transition6</title>
<path fill="none" stroke="black" d="M434,-435.939C434,-420.929 434,-401.273 434,-400.059"/>
</g>
<!-- transition8&#45;&gt;pl8 -->
<g id="edge35" class="edge"><title>transition8&#45;&gt;pl8</title>
<path fill="none" stroke="black" d="M393.118,-507.848C394.425,-506.159 406.385,-490.697 417.034,-476.931"/>
<polygon fill="black" stroke="black" points="420.038,-478.769 423.388,-468.718 414.501,-474.486 420.038,-478.769"/>
</g>
<!-- pl9 -->
<g id="node30" class="node"><title>pl9</title>
<ellipse fill="none" stroke="black" cx="434" cy="-345" rx="18" ry="18"/>
<text text-anchor="middle" x="434" y="-341.3" font-family="Times,serif" font-size="14.00">pl9</text>
</g>
<!-- transition11 -->
<g id="node33" class="node"><title>transition11</title>
<polygon fill="none" stroke="black" points="474,-291 438,-291 438,-290 474,-290 474,-291"/>
<text text-anchor="middle" x="428.5" y="-294.8" font-family="Times,serif" font-size="14.00">t3+</text>
</g>
<!-- pl9&#45;&gt;transition11 -->
<g id="edge38" class="edge"><title>pl9&#45;&gt;transition11</title>
<path fill="none" stroke="black" d="M440.601,-328.098C446.878,-312.975 455.445,-292.337 455.974,-291.062"/>
</g>
<!-- transition6&#45;&gt;pl9 -->
<g id="edge37" class="edge"><title>transition6&#45;&gt;pl9</title>
<path fill="none" stroke="black" d="M434,-398.848C434,-397.368 434,-385.319 434,-373.1"/>
<polygon fill="black" stroke="black" points="437.5,-373.025 434,-363.025 430.5,-373.025 437.5,-373.025"/>
</g>
<!-- pl13 -->
<g id="node37" class="node"><title>pl13</title>
<ellipse fill="none" stroke="black" cx="488" cy="-345" rx="18" ry="18"/>
<text text-anchor="middle" x="488" y="-341.3" font-family="Times,serif" font-size="14.00">pl13</text>
</g>
<!-- transition6&#45;&gt;pl13 -->
<g id="edge45" class="edge"><title>transition6&#45;&gt;pl13</title>
<path fill="none" stroke="black" d="M434.155,-398.848C435.988,-397.049 453.738,-379.628 468.365,-365.272"/>
<polygon fill="black" stroke="black" points="470.943,-367.645 475.628,-358.143 466.04,-362.649 470.943,-367.645"/>
</g>
<!-- pl10 -->
<g id="node32" class="node"><title>pl10</title>
<ellipse fill="none" stroke="black" cx="464" cy="-236" rx="18" ry="18"/>
<text text-anchor="middle" x="464" y="-232.3" font-family="Times,serif" font-size="14.00">pl10</text>
</g>
<!-- transition7 -->
<g id="node35" class="node"><title>transition7</title>
<polygon fill="none" stroke="black" points="455,-182 419,-182 419,-181 455,-181 455,-182"/>
<text text-anchor="middle" x="410.5" y="-185.8" font-family="Times,serif" font-size="14.00">r3&#45;</text>
</g>
<!-- pl10&#45;&gt;transition7 -->
<g id="edge40" class="edge"><title>pl10&#45;&gt;transition7</title>
<path fill="none" stroke="black" d="M456.19,-219.67C448.466,-204.506 437.698,-183.37 437.032,-182.064"/>
</g>
<!-- transition11&#45;&gt;pl10 -->
<g id="edge39" class="edge"><title>transition11&#45;&gt;pl10</title>
<path fill="none" stroke="black" d="M456.023,-289.848C456.246,-288.368 458.065,-276.319 459.909,-264.1"/>
<polygon fill="black" stroke="black" points="463.398,-264.435 461.43,-254.025 456.477,-263.39 463.398,-264.435"/>
</g>
<!-- pl12 -->
<g id="node36" class="node"><title>pl12</title>
<ellipse fill="none" stroke="black" cx="410" cy="-236" rx="18" ry="18"/>
<text text-anchor="middle" x="410" y="-232.3" font-family="Times,serif" font-size="14.00">pl12</text>
</g>
<!-- transition11&#45;&gt;pl12 -->
<g id="edge43" class="edge"><title>transition11&#45;&gt;pl12</title>
<path fill="none" stroke="black" d="M455.868,-289.848C454.37,-288.122 440.401,-272.027 428.268,-258.048"/>
<polygon fill="black" stroke="black" points="430.643,-255.444 421.445,-250.186 425.356,-260.033 430.643,-255.444"/>
</g>
<!-- pl11 -->
<g id="node34" class="node"><title>pl11</title>
<ellipse fill="none" stroke="black" cx="387" cy="-127" rx="18" ry="18"/>
<text text-anchor="middle" x="387" y="-123.3" font-family="Times,serif" font-size="14.00">pl11</text>
</g>
<!-- pl11&#45;&gt;transition8 -->
<g id="edge42" class="edge"><title>pl11&#45;&gt;transition8</title>
<path fill="none" stroke="black" d="M386.006,-145.246C385.015,-163.357 383.563,-192.669 383,-218 380.181,-344.919 392.602,-502.975 392.991,-507.883"/>
</g>
<!-- transition7&#45;&gt;pl11 -->
<g id="edge41" class="edge"><title>transition7&#45;&gt;pl11</title>
<path fill="none" stroke="black" d="M436.857,-180.848C435.194,-179.086 419.394,-162.338 406.02,-148.161"/>
<polygon fill="black" stroke="black" points="408.353,-145.533 398.944,-140.661 403.261,-150.337 408.353,-145.533"/>
</g>
<!-- pl12&#45;&gt;transition9 -->
<g id="edge44" class="edge"><title>pl12&#45;&gt;transition9</title>
<path fill="none" stroke="black" d="M404.124,-253.061C387.948,-298.241 342.968,-430.602 328,-545 323.009,-583.149 335.196,-630.909 335.962,-633.856"/>
</g>
<!-- pl13&#45;&gt;transition10 -->
<g id="edge46" class="edge"><title>pl13&#45;&gt;transition10</title>
<path fill="none" stroke="black" d="M488,-363.049C488,-384.164 488,-421.234 488,-453 488,-564 488,-564 488,-564 488,-650.723 509.318,-757.602 509.984,-760.921"/>
</g>
<!-- pl14&#45;&gt;transition11 -->
<g id="edge48" class="edge"><title>pl14&#45;&gt;transition11</title>
<path fill="none" stroke="black" d="M534,-616.609C534,-592.462 534,-547.411 534,-509 534,-509 534,-509 534,-399 534,-365.905 534.777,-353.536 515,-327 497.217,-303.139 458.518,-291.724 456.117,-291.033"/>
</g>
<!-- transition14 -->
<g id="node41" class="node"><title>transition14</title>
<polygon fill="none" stroke="black" points="736,-762 700,-762 700,-761 736,-761 736,-762"/>
<text text-anchor="middle" x="692" y="-765.8" font-family="Times,serif" font-size="14.00">t2&#45;</text>
</g>
<!-- pl15&#45;&gt;transition14 -->
<g id="edge50" class="edge"><title>pl15&#45;&gt;transition14</title>
<path fill="none" stroke="black" d="M641.192,-806.248C666.506,-791.665 714.857,-763.811 717.854,-762.084"/>
</g>
<!-- pl16 -->
<g id="node40" class="node"><title>pl16</title>
<ellipse fill="none" stroke="black" cx="718" cy="-707" rx="18" ry="18"/>
<text text-anchor="middle" x="718" y="-703.3" font-family="Times,serif" font-size="14.00">pl16</text>
</g>
<!-- transition12 -->
<g id="node43" class="node"><title>transition12</title>
<polygon fill="none" stroke="black" points="736,-635.5 700,-635.5 700,-634.5 736,-634.5 736,-635.5"/>
<text text-anchor="middle" x="690" y="-639.3" font-family="Times,serif" font-size="14.00">r2+</text>
</g>
<!-- pl16&#45;&gt;transition12 -->
<g id="edge52" class="edge"><title>pl16&#45;&gt;transition12</title>
<path fill="none" stroke="black" d="M718,-688.697C718,-668.615 718,-637.987 718,-636.092"/>
</g>
<!-- transition14&#45;&gt;pl16 -->
<g id="edge51" class="edge"><title>transition14&#45;&gt;pl16</title>
<path fill="none" stroke="black" d="M718,-760.848C718,-759.368 718,-747.319 718,-735.1"/>
<polygon fill="black" stroke="black" points="721.5,-735.025 718,-725.025 714.5,-735.025 721.5,-735.025"/>
</g>
<!-- pl17 -->
<g id="node42" class="node"><title>pl17</title>
<ellipse fill="none" stroke="black" cx="722" cy="-563" rx="18" ry="18"/>
<text text-anchor="middle" x="722" y="-559.3" font-family="Times,serif" font-size="14.00">pl17</text>
</g>
<!-- transition17 -->
<g id="node45" class="node"><title>transition17</title>
<polygon fill="none" stroke="black" points="745,-509 709,-509 709,-508 745,-508 745,-509"/>
<text text-anchor="middle" x="699.5" y="-512.8" font-family="Times,serif" font-size="14.00">t2+</text>
</g>
<!-- pl17&#45;&gt;transition17 -->
<g id="edge54" class="edge"><title>pl17&#45;&gt;transition17</title>
<path fill="none" stroke="black" d="M723.61,-544.939C725.026,-529.929 726.88,-510.273 726.994,-509.059"/>
</g>
<!-- transition12&#45;&gt;pl17 -->
<g id="edge53" class="edge"><title>transition12&#45;&gt;pl17</title>
<path fill="none" stroke="black" d="M718.003,-633.949C718.072,-632.748 719.347,-610.429 720.439,-591.321"/>
<polygon fill="black" stroke="black" points="723.941,-591.375 721.018,-581.191 716.953,-590.975 723.941,-591.375"/>
</g>
<!-- pl21 -->
<g id="node49" class="node"><title>pl21</title>
<ellipse fill="none" stroke="black" cx="668" cy="-563" rx="18" ry="18"/>
<text text-anchor="middle" x="668" y="-559.3" font-family="Times,serif" font-size="14.00">pl21</text>
</g>
<!-- transition12&#45;&gt;pl21 -->
<g id="edge61" class="edge"><title>transition12&#45;&gt;pl21</title>
<path fill="none" stroke="black" d="M717.964,-633.949C717.031,-632.644 698.295,-606.413 684.039,-586.455"/>
<polygon fill="black" stroke="black" points="686.737,-584.211 678.077,-578.108 681.041,-588.279 686.737,-584.211"/>
</g>
<!-- pl18 -->
<g id="node44" class="node"><title>pl18</title>
<ellipse fill="none" stroke="black" cx="746" cy="-454" rx="18" ry="18"/>
<text text-anchor="middle" x="746" y="-450.3" font-family="Times,serif" font-size="14.00">pl18</text>
</g>
<!-- transition13 -->
<g id="node47" class="node"><title>transition13</title>
<polygon fill="none" stroke="black" points="769,-400 733,-400 733,-399 769,-399 769,-400"/>
<text text-anchor="middle" x="724.5" y="-403.8" font-family="Times,serif" font-size="14.00">r2&#45;</text>
</g>
<!-- pl18&#45;&gt;transition13 -->
<g id="edge56" class="edge"><title>pl18&#45;&gt;transition13</title>
<path fill="none" stroke="black" d="M747.61,-435.939C749.026,-420.929 750.88,-401.273 750.994,-400.059"/>
</g>
<!-- transition17&#45;&gt;pl18 -->
<g id="edge55" class="edge"><title>transition17&#45;&gt;pl18</title>
<path fill="none" stroke="black" d="M727.055,-507.848C727.606,-506.309 732.253,-493.348 736.805,-480.648"/>
<polygon fill="black" stroke="black" points="740.119,-481.775 740.199,-471.181 733.53,-479.413 740.119,-481.775"/>
</g>
<!-- pl20 -->
<g id="node48" class="node"><title>pl20</title>
<ellipse fill="none" stroke="black" cx="629" cy="-454" rx="18" ry="18"/>
<text text-anchor="middle" x="629" y="-450.3" font-family="Times,serif" font-size="14.00">pl20</text>
</g>
<!-- transition17&#45;&gt;pl20 -->
<g id="edge59" class="edge"><title>transition17&#45;&gt;pl20</title>
<path fill="none" stroke="black" d="M726.929,-507.962C724.95,-506.891 682.068,-483.7 653.711,-468.364"/>
<polygon fill="black" stroke="black" points="655.193,-465.186 644.732,-463.508 651.863,-471.344 655.193,-465.186"/>
</g>
<!-- pl19 -->
<g id="node46" class="node"><title>pl19</title>
<ellipse fill="none" stroke="black" cx="774" cy="-345" rx="18" ry="18"/>
<text text-anchor="middle" x="774" y="-341.3" font-family="Times,serif" font-size="14.00">pl19</text>
</g>
<!-- pl19&#45;&gt;transition14 -->
<g id="edge58" class="edge"><title>pl19&#45;&gt;transition14</title>
<path fill="none" stroke="black" d="M781.746,-361.517C791.217,-381.956 806,-419.263 806,-453 806,-564 806,-564 806,-564 806,-658.396 720.729,-757.842 718.064,-760.926"/>
</g>
<!-- transition13&#45;&gt;pl19 -->
<g id="edge57" class="edge"><title>transition13&#45;&gt;pl19</title>
<path fill="none" stroke="black" d="M751.066,-398.848C751.738,-397.3 757.429,-384.185 762.974,-371.409"/>
<polygon fill="black" stroke="black" points="766.329,-372.469 767.099,-361.902 759.908,-369.682 766.329,-372.469"/>
</g>
<!-- pl20&#45;&gt;transition15 -->
<g id="edge60" class="edge"><title>pl20&#45;&gt;transition15</title>
<path fill="none" stroke="black" d="M618.125,-468.618C603.69,-488.108 580,-525.632 580,-562 580,-762 580,-762 580,-762 580,-817.606 602.287,-884.862 602.983,-886.95"/>
</g>
<!-- pl21&#45;&gt;transition16 -->
<g id="edge62" class="edge"><title>pl21&#45;&gt;transition16</title>
<path fill="none" stroke="black" d="M668.79,-581.045C669.956,-607.698 672,-660.868 672,-706 672,-889 672,-889 672,-889 672,-954.303 627.426,-1028.64 626.033,-1030.94"/>
</g>
<!-- pl22&#45;&gt;transition17 -->
<g id="edge64" class="edge"><title>pl22&#45;&gt;transition17</title>
<path fill="none" stroke="black" d="M762.426,-870.146C769.089,-819.556 784.885,-665.099 749,-545 743.8,-527.595 728.028,-510.127 727.048,-509.052"/>
</g>
</g>
</svg>
