<?xml version="1.0" encoding="UTF-8" standalone="no"?>
<!DOCTYPE svg PUBLIC "-//W3C//DTD SVG 1.1//EN"
 "http://www.w3.org/Graphics/SVG/1.1/DTD/svg11.dtd">
<!-- Generated by graphviz version 2.38.0 (20140413.2041)
 -->
<!-- Title: %3 Pages: 1 -->
<svg width="654pt" height="1239pt"
 viewBox="0.00 0.00 654.00 1239.00" xmlns="http://www.w3.org/2000/svg" xmlns:xlink="http://www.w3.org/1999/xlink">
<g id="graph0" class="graph" transform="scale(1 1) rotate(0) translate(4 1235)">
<title>%3</title>
<polygon fill="white" stroke="none" points="-4,4 -4,-1235 650,-1235 650,4 -4,4"/>
<!-- PL1 -->
<g id="node1" class="node"><title>PL1</title>
<ellipse fill="none" stroke="black" cx="372" cy="-1213" rx="18" ry="18"/>
<text text-anchor="middle" x="372" y="-1209.3" font-family="Times,serif" font-size="14.00">PL1</text>
</g>
<!-- transition5 -->
<g id="node3" class="node"><title>transition5</title>
<polygon fill="none" stroke="black" points="423,-1159 387,-1159 387,-1158 423,-1158 423,-1159"/>
<text text-anchor="middle" x="379.5" y="-1162.8" font-family="Times,serif" font-size="14.00">c+</text>
</g>
<!-- PL1&#45;&gt;transition5 -->
<g id="edge1" class="edge"><title>PL1&#45;&gt;transition5</title>
<path fill="none" stroke="black" d="M381.192,-1197.24C388.287,-1185.84 397.64,-1170.82 402.225,-1163.46"/>
<polygon fill="none" stroke="black" points="403.802,-1164.23 404.959,-1159.07 400.831,-1162.38 403.802,-1164.23"/>
</g>
<!-- PL3 -->
<g id="node2" class="node"><title>PL3</title>
<ellipse fill="none" stroke="black" cx="424" cy="-1104" rx="18" ry="18"/>
<text text-anchor="middle" x="424" y="-1100.3" font-family="Times,serif" font-size="14.00">PL3</text>
</g>
<!-- transition16 -->
<g id="node5" class="node"><title>transition16</title>
<polygon fill="none" stroke="black" points="465,-1032.5 429,-1032.5 429,-1031.5 465,-1031.5 465,-1032.5"/>
<text text-anchor="middle" x="423" y="-1036.3" font-family="Times,serif" font-size="14.00">b&#45;</text>
</g>
<!-- PL3&#45;&gt;transition16 -->
<g id="edge3" class="edge"><title>PL3&#45;&gt;transition16</title>
<path fill="none" stroke="black" d="M429.334,-1086.76C434.528,-1070.96 442.104,-1047.9 445.385,-1037.91"/>
<polygon fill="none" stroke="black" points="447.07,-1038.39 446.969,-1033.1 443.745,-1037.3 447.07,-1038.39"/>
</g>
<!-- transition5&#45;&gt;PL3 -->
<g id="edge2" class="edge"><title>transition5&#45;&gt;PL3</title>
<path fill="none" stroke="black" d="M405.055,-1157.85C405.606,-1156.31 410.253,-1143.35 414.805,-1130.65"/>
<polygon fill="black" stroke="black" points="418.119,-1131.78 418.199,-1121.18 411.53,-1129.41 418.119,-1131.78"/>
</g>
<!-- PL24 -->
<g id="node23" class="node"><title>PL24</title>
<ellipse fill="none" stroke="black" cx="585" cy="-1032" rx="18" ry="18"/>
<text text-anchor="middle" x="585" y="-1028.3" font-family="Times,serif" font-size="14.00">PL24</text>
</g>
<!-- transition5&#45;&gt;PL24 -->
<g id="edge25" class="edge"><title>transition5&#45;&gt;PL24</title>
<path fill="none" stroke="black" d="M405.13,-1157.91C409.351,-1154.98 514.879,-1081.7 562.296,-1048.77"/>
<polygon fill="black" stroke="black" points="564.48,-1051.51 570.697,-1042.93 560.487,-1045.76 564.48,-1051.51"/>
</g>
<!-- PL4 -->
<g id="node4" class="node"><title>PL4</title>
<ellipse fill="none" stroke="black" cx="424" cy="-960" rx="18" ry="18"/>
<text text-anchor="middle" x="424" y="-956.3" font-family="Times,serif" font-size="14.00">PL4</text>
</g>
<!-- transition15 -->
<g id="node7" class="node"><title>transition15</title>
<polygon fill="none" stroke="black" points="442,-888.5 406,-888.5 406,-887.5 442,-887.5 442,-888.5"/>
<text text-anchor="middle" x="398.5" y="-892.3" font-family="Times,serif" font-size="14.00">a+</text>
</g>
<!-- PL4&#45;&gt;transition15 -->
<g id="edge5" class="edge"><title>PL4&#45;&gt;transition15</title>
<path fill="none" stroke="black" d="M424,-941.697C424,-926.165 424,-904.324 424,-894.348"/>
<polygon fill="none" stroke="black" points="425.75,-894.092 424,-889.092 422.25,-894.092 425.75,-894.092"/>
</g>
<!-- transition16&#45;&gt;PL4 -->
<g id="edge4" class="edge"><title>transition16&#45;&gt;PL4</title>
<path fill="none" stroke="black" d="M446.983,-1030.95C446.58,-1029.72 438.944,-1006.48 432.583,-987.122"/>
<polygon fill="black" stroke="black" points="435.865,-985.897 429.418,-977.489 429.214,-988.082 435.865,-985.897"/>
</g>
<!-- PL23 -->
<g id="node48" class="node"><title>PL23</title>
<ellipse fill="none" stroke="black" cx="555" cy="-888" rx="18" ry="18"/>
<text text-anchor="middle" x="555" y="-884.3" font-family="Times,serif" font-size="14.00">PL23</text>
</g>
<!-- transition16&#45;&gt;PL23 -->
<g id="edge59" class="edge"><title>transition16&#45;&gt;PL23</title>
<path fill="none" stroke="black" d="M447.078,-1030.9C449.525,-1027.68 508.711,-949.862 538.373,-910.862"/>
<polygon fill="black" stroke="black" points="541.291,-912.807 544.559,-902.728 535.719,-908.569 541.291,-912.807"/>
</g>
<!-- PL5 -->
<g id="node6" class="node"><title>PL5</title>
<ellipse fill="none" stroke="black" cx="248" cy="-816" rx="18" ry="18"/>
<text text-anchor="middle" x="248" y="-812.3" font-family="Times,serif" font-size="14.00">PL5</text>
</g>
<!-- transition10 -->
<g id="node9" class="node"><title>transition10</title>
<polygon fill="none" stroke="black" points="218,-762 182,-762 182,-761 218,-761 218,-762"/>
<text text-anchor="middle" x="176.5" y="-765.8" font-family="Times,serif" font-size="14.00">c&#45;</text>
</g>
<!-- PL5&#45;&gt;transition10 -->
<g id="edge7" class="edge"><title>PL5&#45;&gt;transition10</title>
<path fill="none" stroke="black" d="M236.381,-802.17C225.629,-790.299 210.313,-773.387 203.5,-765.865"/>
<polygon fill="none" stroke="black" points="204.718,-764.602 200.064,-762.071 202.123,-766.952 204.718,-764.602"/>
</g>
<!-- transition15&#45;&gt;PL5 -->
<g id="edge6" class="edge"><title>transition15&#45;&gt;PL5</title>
<path fill="none" stroke="black" d="M423.872,-886.949C419.849,-885.349 321.676,-846.303 273.792,-827.258"/>
<polygon fill="black" stroke="black" points="274.975,-823.962 264.39,-823.519 272.388,-830.467 274.975,-823.962"/>
</g>
<!-- PL16 -->
<g id="node37" class="node"><title>PL16</title>
<ellipse fill="none" stroke="black" cx="516" cy="-816" rx="18" ry="18"/>
<text text-anchor="middle" x="516" y="-812.3" font-family="Times,serif" font-size="14.00">PL16</text>
</g>
<!-- transition15&#45;&gt;PL16 -->
<g id="edge45" class="edge"><title>transition15&#45;&gt;PL16</title>
<path fill="none" stroke="black" d="M424.067,-886.949C425.952,-885.515 467.391,-853.985 493.984,-833.751"/>
<polygon fill="black" stroke="black" points="496.188,-836.472 502.027,-827.631 491.95,-830.901 496.188,-836.472"/>
</g>
<!-- PL6 -->
<g id="node8" class="node"><title>PL6</title>
<ellipse fill="none" stroke="black" cx="227" cy="-707" rx="18" ry="18"/>
<text text-anchor="middle" x="227" y="-703.3" font-family="Times,serif" font-size="14.00">PL6</text>
</g>
<!-- transition9 -->
<g id="node11" class="node"><title>transition9</title>
<polygon fill="none" stroke="black" points="247,-635.5 211,-635.5 211,-634.5 247,-634.5 247,-635.5"/>
<text text-anchor="middle" x="203.5" y="-639.3" font-family="Times,serif" font-size="14.00">b+</text>
</g>
<!-- PL6&#45;&gt;transition9 -->
<g id="edge9" class="edge"><title>PL6&#45;&gt;transition9</title>
<path fill="none" stroke="black" d="M227.494,-688.697C227.938,-673.165 228.562,-651.324 228.847,-641.348"/>
<polygon fill="none" stroke="black" points="230.604,-641.14 228.997,-636.092 227.105,-641.04 230.604,-641.14"/>
</g>
<!-- transition10&#45;&gt;PL6 -->
<g id="edge8" class="edge"><title>transition10&#45;&gt;PL6</title>
<path fill="none" stroke="black" d="M200.077,-760.848C200.884,-759.265 207.85,-745.591 214.494,-732.55"/>
<polygon fill="black" stroke="black" points="217.761,-733.847 219.181,-723.348 211.523,-730.669 217.761,-733.847"/>
</g>
<!-- PL15 -->
<g id="node36" class="node"><title>PL15</title>
<ellipse fill="none" stroke="black" cx="166" cy="-635" rx="18" ry="18"/>
<text text-anchor="middle" x="166" y="-631.3" font-family="Times,serif" font-size="14.00">PL15</text>
</g>
<!-- transition10&#45;&gt;PL15 -->
<g id="edge43" class="edge"><title>transition10&#45;&gt;PL15</title>
<path fill="none" stroke="black" d="M199.975,-760.909C199.256,-758.265 182.96,-698.352 173.202,-662.478"/>
<polygon fill="black" stroke="black" points="176.527,-661.366 170.525,-652.635 169.772,-663.203 176.527,-661.366"/>
</g>
<!-- PL7 -->
<g id="node10" class="node"><title>PL7</title>
<ellipse fill="none" stroke="black" cx="294" cy="-563" rx="18" ry="18"/>
<text text-anchor="middle" x="294" y="-559.3" font-family="Times,serif" font-size="14.00">PL7</text>
</g>
<!-- transition4 -->
<g id="node12" class="node"><title>transition4</title>
<polygon fill="none" stroke="black" points="350,-509 314,-509 314,-508 350,-508 350,-509"/>
<text text-anchor="middle" x="308.5" y="-512.8" font-family="Times,serif" font-size="14.00">a&#45;</text>
</g>
<!-- PL7&#45;&gt;transition4 -->
<g id="edge11" class="edge"><title>PL7&#45;&gt;transition4</title>
<path fill="none" stroke="black" d="M304.183,-547.797C312.362,-536.39 323.34,-521.078 328.732,-513.557"/>
<polygon fill="none" stroke="black" points="330.461,-514.15 331.952,-509.067 327.616,-512.111 330.461,-514.15"/>
</g>
<!-- transition9&#45;&gt;PL7 -->
<g id="edge10" class="edge"><title>transition9&#45;&gt;PL7</title>
<path fill="none" stroke="black" d="M229.047,-633.949C230.303,-632.597 256.393,-604.5 275.118,-584.334"/>
<polygon fill="black" stroke="black" points="277.871,-586.513 282.111,-576.803 272.742,-581.75 277.871,-586.513"/>
</g>
<!-- PL8 -->
<g id="node25" class="node"><title>PL8</title>
<ellipse fill="none" stroke="black" cx="202" cy="-563" rx="18" ry="18"/>
<text text-anchor="middle" x="202" y="-559.3" font-family="Times,serif" font-size="14.00">PL8</text>
</g>
<!-- transition9&#45;&gt;PL8 -->
<g id="edge29" class="edge"><title>transition9&#45;&gt;PL8</title>
<path fill="none" stroke="black" d="M228.98,-633.949C228.502,-632.71 219.357,-608.998 211.844,-589.522"/>
<polygon fill="black" stroke="black" points="215.09,-588.212 208.226,-580.142 208.559,-590.731 215.09,-588.212"/>
</g>
<!-- transition4&#45;&gt;PL1 -->
<g id="edge12" class="edge"><title>transition4&#45;&gt;PL1</title>
<path fill="none" stroke="black" d="M332.006,-509.05C332.248,-511.163 340,-579.201 340,-634 340,-1105 340,-1105 340,-1105 340,-1134.12 351.017,-1165.91 360.123,-1187.21"/>
<polygon fill="black" stroke="black" points="356.988,-1188.77 364.254,-1196.48 363.383,-1185.92 356.988,-1188.77"/>
</g>
<!-- PL2 -->
<g id="node13" class="node"><title>PL2</title>
<ellipse fill="none" stroke="black" cx="416" cy="-454" rx="18" ry="18"/>
<text text-anchor="middle" x="416" y="-450.3" font-family="Times,serif" font-size="14.00">PL2</text>
</g>
<!-- transition4&#45;&gt;PL2 -->
<g id="edge13" class="edge"><title>transition4&#45;&gt;PL2</title>
<path fill="none" stroke="black" d="M332.061,-507.962C333.7,-506.928 368.067,-485.243 392.312,-469.946"/>
<polygon fill="black" stroke="black" points="394.429,-472.749 401.019,-464.452 390.694,-466.829 394.429,-472.749"/>
</g>
<!-- transition3 -->
<g id="node15" class="node"><title>transition3</title>
<polygon fill="none" stroke="black" points="434,-400 398,-400 398,-399 434,-399 434,-400"/>
<text text-anchor="middle" x="388.5" y="-403.8" font-family="Times,serif" font-size="14.00">t1+</text>
</g>
<!-- PL2&#45;&gt;transition3 -->
<g id="edge14" class="edge"><title>PL2&#45;&gt;transition3</title>
<path fill="none" stroke="black" d="M416,-435.939C416,-425.385 416,-412.534 416,-405.412"/>
<polygon fill="none" stroke="black" points="417.75,-405.059 416,-400.059 414.25,-405.059 417.75,-405.059"/>
</g>
<!-- PL27 -->
<g id="node14" class="node"><title>PL27</title>
<ellipse fill="none" stroke="black" cx="462" cy="-345" rx="18" ry="18"/>
<text text-anchor="middle" x="462" y="-341.3" font-family="Times,serif" font-size="14.00">PL27</text>
</g>
<!-- transition1 -->
<g id="node17" class="node"><title>transition1</title>
<polygon fill="none" stroke="black" points="480,-291 444,-291 444,-290 480,-290 480,-291"/>
<text text-anchor="middle" x="435.5" y="-294.8" font-family="Times,serif" font-size="14.00">r1&#45;</text>
</g>
<!-- PL27&#45;&gt;transition1 -->
<g id="edge16" class="edge"><title>PL27&#45;&gt;transition1</title>
<path fill="none" stroke="black" d="M462,-326.939C462,-316.385 462,-303.534 462,-296.412"/>
<polygon fill="none" stroke="black" points="463.75,-296.059 462,-291.059 460.25,-296.059 463.75,-296.059"/>
</g>
<!-- transition3&#45;&gt;PL27 -->
<g id="edge15" class="edge"><title>transition3&#45;&gt;PL27</title>
<path fill="none" stroke="black" d="M416.132,-398.848C417.63,-397.122 431.599,-381.027 443.732,-367.048"/>
<polygon fill="black" stroke="black" points="446.644,-369.033 450.555,-359.186 441.357,-364.444 446.644,-369.033"/>
</g>
<!-- PL29 -->
<g id="node22" class="node"><title>PL29</title>
<ellipse fill="none" stroke="black" cx="370" cy="-345" rx="18" ry="18"/>
<text text-anchor="middle" x="370" y="-341.3" font-family="Times,serif" font-size="14.00">PL29</text>
</g>
<!-- transition3&#45;&gt;PL29 -->
<g id="edge23" class="edge"><title>transition3&#45;&gt;PL29</title>
<path fill="none" stroke="black" d="M415.868,-398.848C414.37,-397.122 400.401,-381.027 388.268,-367.048"/>
<polygon fill="black" stroke="black" points="390.643,-364.444 381.445,-359.186 385.356,-369.033 390.643,-364.444"/>
</g>
<!-- PL28 -->
<g id="node16" class="node"><title>PL28</title>
<ellipse fill="none" stroke="black" cx="462" cy="-236" rx="18" ry="18"/>
<text text-anchor="middle" x="462" y="-232.3" font-family="Times,serif" font-size="14.00">PL28</text>
</g>
<!-- transition18 -->
<g id="node19" class="node"><title>transition18</title>
<polygon fill="none" stroke="black" points="509,-182 473,-182 473,-181 509,-181 509,-182"/>
<text text-anchor="middle" x="465" y="-185.8" font-family="Times,serif" font-size="14.00">t1&#45;</text>
</g>
<!-- PL28&#45;&gt;transition18 -->
<g id="edge18" class="edge"><title>PL28&#45;&gt;transition18</title>
<path fill="none" stroke="black" d="M470.233,-219.954C476.332,-208.807 484.264,-194.311 488.334,-186.873"/>
<polygon fill="none" stroke="black" points="490.1,-187.291 490.965,-182.064 487.029,-185.611 490.1,-187.291"/>
</g>
<!-- transition1&#45;&gt;PL28 -->
<g id="edge17" class="edge"><title>transition1&#45;&gt;PL28</title>
<path fill="none" stroke="black" d="M462,-289.848C462,-288.368 462,-276.319 462,-264.1"/>
<polygon fill="black" stroke="black" points="465.5,-264.025 462,-254.025 458.5,-264.025 465.5,-264.025"/>
</g>
<!-- PL25 -->
<g id="node18" class="node"><title>PL25</title>
<ellipse fill="none" stroke="black" cx="491" cy="-127" rx="18" ry="18"/>
<text text-anchor="middle" x="491" y="-123.3" font-family="Times,serif" font-size="14.00">PL25</text>
</g>
<!-- transition2 -->
<g id="node21" class="node"><title>transition2</title>
<polygon fill="none" stroke="black" points="509,-73 473,-73 473,-72 509,-72 509,-73"/>
<text text-anchor="middle" x="463" y="-76.8" font-family="Times,serif" font-size="14.00">r1+</text>
</g>
<!-- PL25&#45;&gt;transition2 -->
<g id="edge20" class="edge"><title>PL25&#45;&gt;transition2</title>
<path fill="none" stroke="black" d="M491,-108.939C491,-98.3852 491,-85.5344 491,-78.4124"/>
<polygon fill="none" stroke="black" points="492.75,-78.0591 491,-73.0591 489.25,-78.0592 492.75,-78.0591"/>
</g>
<!-- transition18&#45;&gt;PL25 -->
<g id="edge19" class="edge"><title>transition18&#45;&gt;PL25</title>
<path fill="none" stroke="black" d="M491,-180.848C491,-179.368 491,-167.319 491,-155.1"/>
<polygon fill="black" stroke="black" points="494.5,-155.025 491,-145.025 487.5,-155.025 494.5,-155.025"/>
</g>
<!-- PL26 -->
<g id="node20" class="node"><title>PL26</title>
<ellipse fill="none" stroke="black" cx="433" cy="-18" rx="18" ry="18"/>
<text text-anchor="middle" x="433" y="-14.3" font-family="Times,serif" font-size="14.00">PL26</text>
</g>
<!-- PL26&#45;&gt;transition3 -->
<g id="edge22" class="edge"><title>PL26&#45;&gt;transition3</title>
<path fill="none" stroke="black" d="M428.71,-35.5509C423.674,-56.4674 416,-93.6479 416,-126 416,-291 416,-291 416,-291 416,-330.498 416,-378.122 416,-393.753"/>
<polygon fill="none" stroke="black" points="414.25,-393.956 416,-398.956 417.75,-393.956 414.25,-393.956"/>
</g>
<!-- transition2&#45;&gt;PL26 -->
<g id="edge21" class="edge"><title>transition2&#45;&gt;PL26</title>
<path fill="none" stroke="black" d="M490.834,-71.848C488.853,-70.0383 469.581,-52.4271 453.819,-38.0245"/>
<polygon fill="black" stroke="black" points="455.75,-35.048 446.007,-30.886 451.028,-40.2155 455.75,-35.048"/>
</g>
<!-- PL30 -->
<g id="node24" class="node"><title>PL30</title>
<ellipse fill="none" stroke="black" cx="495" cy="-18" rx="18" ry="18"/>
<text text-anchor="middle" x="495" y="-14.3" font-family="Times,serif" font-size="14.00">PL30</text>
</g>
<!-- transition2&#45;&gt;PL30 -->
<g id="edge27" class="edge"><title>transition2&#45;&gt;PL30</title>
<path fill="none" stroke="black" d="M491.011,-71.848C491.123,-70.368 492.033,-58.3194 492.955,-46.1004"/>
<polygon fill="black" stroke="black" points="496.453,-46.2598 493.715,-36.0247 489.472,-45.7329 496.453,-46.2598"/>
</g>
<!-- PL29&#45;&gt;transition5 -->
<g id="edge24" class="edge"><title>PL29&#45;&gt;transition5</title>
<path fill="none" stroke="black" d="M371.062,-363.073C373.238,-399.567 378,-487.887 378,-562 378,-1033 378,-1033 378,-1033 378,-1080.64 396.972,-1136.25 403.109,-1152.99"/>
<polygon fill="none" stroke="black" points="401.579,-1153.89 404.98,-1157.95 404.854,-1152.65 401.579,-1153.89"/>
</g>
<!-- PL24&#45;&gt;transition18 -->
<g id="edge26" class="edge"><title>PL24&#45;&gt;transition18</title>
<path fill="none" stroke="black" d="M595.625,-1016.94C613.102,-992.379 646,-939.443 646,-889 646,-889 646,-889 646,-453 646,-327.619 519.436,-207.551 495.041,-185.572"/>
<polygon fill="none" stroke="black" points="496.017,-184.099 491.112,-182.096 493.698,-186.72 496.017,-184.099"/>
</g>
<!-- PL30&#45;&gt;transition4 -->
<g id="edge28" class="edge"><title>PL30&#45;&gt;transition4</title>
<path fill="none" stroke="black" d="M506.066,-32.2199C521.066,-51.528 546,-89.1643 546,-126 546,-182 546,-182 546,-182 546,-193.943 479.896,-438.139 443,-472 410.97,-501.396 354.642,-506.805 337.258,-507.786"/>
<polygon fill="none" stroke="black" points="336.977,-506.046 332.053,-507.999 337.12,-509.543 336.977,-506.046"/>
</g>
<!-- transition8 -->
<g id="node27" class="node"><title>transition8</title>
<polygon fill="none" stroke="black" points="128,-509 92,-509 92,-508 128,-508 128,-509"/>
<text text-anchor="middle" x="84" y="-512.8" font-family="Times,serif" font-size="14.00">t3&#45;</text>
</g>
<!-- PL8&#45;&gt;transition8 -->
<g id="edge30" class="edge"><title>PL8&#45;&gt;transition8</title>
<path fill="none" stroke="black" d="M186.808,-553.248C165.449,-540.944 127.691,-519.191 114.612,-511.657"/>
<polygon fill="none" stroke="black" points="115.352,-510.064 110.146,-509.084 113.605,-513.097 115.352,-510.064"/>
</g>
<!-- PL9 -->
<g id="node26" class="node"><title>PL9</title>
<ellipse fill="none" stroke="black" cx="110" cy="-454" rx="18" ry="18"/>
<text text-anchor="middle" x="110" y="-450.3" font-family="Times,serif" font-size="14.00">PL9</text>
</g>
<!-- transition6 -->
<g id="node29" class="node"><title>transition6</title>
<polygon fill="none" stroke="black" points="128,-400 92,-400 92,-399 128,-399 128,-400"/>
<text text-anchor="middle" x="82" y="-403.8" font-family="Times,serif" font-size="14.00">r3+</text>
</g>
<!-- PL9&#45;&gt;transition6 -->
<g id="edge32" class="edge"><title>PL9&#45;&gt;transition6</title>
<path fill="none" stroke="black" d="M110,-435.939C110,-425.385 110,-412.534 110,-405.412"/>
<polygon fill="none" stroke="black" points="111.75,-405.059 110,-400.059 108.25,-405.059 111.75,-405.059"/>
</g>
<!-- transition8&#45;&gt;PL9 -->
<g id="edge31" class="edge"><title>transition8&#45;&gt;PL9</title>
<path fill="none" stroke="black" d="M110,-507.848C110,-506.368 110,-494.319 110,-482.1"/>
<polygon fill="black" stroke="black" points="113.5,-482.025 110,-472.025 106.5,-482.025 113.5,-482.025"/>
</g>
<!-- PL10 -->
<g id="node28" class="node"><title>PL10</title>
<ellipse fill="none" stroke="black" cx="110" cy="-345" rx="18" ry="18"/>
<text text-anchor="middle" x="110" y="-341.3" font-family="Times,serif" font-size="14.00">PL10</text>
</g>
<!-- transition11 -->
<g id="node31" class="node"><title>transition11</title>
<polygon fill="none" stroke="black" points="151,-291 115,-291 115,-290 151,-290 151,-291"/>
<text text-anchor="middle" x="105.5" y="-294.8" font-family="Times,serif" font-size="14.00">t3+</text>
</g>
<!-- PL10&#45;&gt;transition11 -->
<g id="edge34" class="edge"><title>PL10&#45;&gt;transition11</title>
<path fill="none" stroke="black" d="M116.901,-328.098C121.721,-316.992 127.831,-302.912 130.956,-295.71"/>
<polygon fill="none" stroke="black" points="132.588,-296.346 132.973,-291.062 129.377,-294.952 132.588,-296.346"/>
</g>
<!-- transition6&#45;&gt;PL10 -->
<g id="edge33" class="edge"><title>transition6&#45;&gt;PL10</title>
<path fill="none" stroke="black" d="M110,-398.848C110,-397.368 110,-385.319 110,-373.1"/>
<polygon fill="black" stroke="black" points="113.5,-373.025 110,-363.025 106.5,-373.025 113.5,-373.025"/>
</g>
<!-- PL14 -->
<g id="node35" class="node"><title>PL14</title>
<ellipse fill="none" stroke="black" cx="18" cy="-345" rx="18" ry="18"/>
<text text-anchor="middle" x="18" y="-341.3" font-family="Times,serif" font-size="14.00">PL14</text>
</g>
<!-- transition6&#45;&gt;PL14 -->
<g id="edge41" class="edge"><title>transition6&#45;&gt;PL14</title>
<path fill="none" stroke="black" d="M109.933,-398.962C108.093,-397.902 68.5872,-375.143 41.9679,-359.808"/>
<polygon fill="black" stroke="black" points="43.5847,-356.7 33.1726,-354.741 40.0905,-362.765 43.5847,-356.7"/>
</g>
<!-- PL11 -->
<g id="node30" class="node"><title>PL11</title>
<ellipse fill="none" stroke="black" cx="127" cy="-236" rx="18" ry="18"/>
<text text-anchor="middle" x="127" y="-232.3" font-family="Times,serif" font-size="14.00">PL11</text>
</g>
<!-- transition7 -->
<g id="node33" class="node"><title>transition7</title>
<polygon fill="none" stroke="black" points="134,-182 98,-182 98,-181 134,-181 134,-182"/>
<text text-anchor="middle" x="89.5" y="-185.8" font-family="Times,serif" font-size="14.00">r3&#45;</text>
</g>
<!-- PL11&#45;&gt;transition7 -->
<g id="edge36" class="edge"><title>PL11&#45;&gt;transition7</title>
<path fill="none" stroke="black" d="M123.52,-218.23C121.276,-207.419 118.511,-194.098 117.039,-187.004"/>
<polygon fill="none" stroke="black" points="118.742,-186.6 116.012,-182.06 115.315,-187.311 118.742,-186.6"/>
</g>
<!-- transition11&#45;&gt;PL11 -->
<g id="edge35" class="edge"><title>transition11&#45;&gt;PL11</title>
<path fill="none" stroke="black" d="M132.983,-289.848C132.815,-288.368 131.451,-276.319 130.068,-264.1"/>
<polygon fill="black" stroke="black" points="133.53,-263.568 128.927,-254.025 126.575,-264.355 133.53,-263.568"/>
</g>
<!-- PL13 -->
<g id="node34" class="node"><title>PL13</title>
<ellipse fill="none" stroke="black" cx="223" cy="-236" rx="18" ry="18"/>
<text text-anchor="middle" x="223" y="-232.3" font-family="Times,serif" font-size="14.00">PL13</text>
</g>
<!-- transition11&#45;&gt;PL13 -->
<g id="edge39" class="edge"><title>transition11&#45;&gt;PL13</title>
<path fill="none" stroke="black" d="M133.065,-289.962C134.856,-288.907 173.105,-266.383 199.139,-251.052"/>
<polygon fill="black" stroke="black" points="200.917,-254.066 207.758,-245.976 197.365,-248.034 200.917,-254.066"/>
</g>
<!-- PL12 -->
<g id="node32" class="node"><title>PL12</title>
<ellipse fill="none" stroke="black" cx="93" cy="-127" rx="18" ry="18"/>
<text text-anchor="middle" x="93" y="-123.3" font-family="Times,serif" font-size="14.00">PL12</text>
</g>
<!-- PL12&#45;&gt;transition8 -->
<g id="edge38" class="edge"><title>PL12&#45;&gt;transition8</title>
<path fill="none" stroke="black" d="M85.9799,-143.594C77.3973,-164.115 64,-201.511 64,-235 64,-400 64,-400 64,-400 64,-433.095 68.5822,-442.21 83,-472 89.3305,-485.08 100.715,-498.157 106.468,-504.331"/>
<polygon fill="none" stroke="black" points="105.22,-505.558 109.947,-507.948 107.742,-503.131 105.22,-505.558"/>
</g>
<!-- transition7&#45;&gt;PL12 -->
<g id="edge37" class="edge"><title>transition7&#45;&gt;PL12</title>
<path fill="none" stroke="black" d="M115.934,-180.848C115.262,-179.3 109.571,-166.185 104.026,-153.409"/>
<polygon fill="black" stroke="black" points="107.092,-151.682 99.9008,-143.902 100.671,-154.469 107.092,-151.682"/>
</g>
<!-- PL13&#45;&gt;transition9 -->
<g id="edge40" class="edge"><title>PL13&#45;&gt;transition9</title>
<path fill="none" stroke="black" d="M229.18,-253.042C236.583,-273.735 248,-310.997 248,-344 248,-509 248,-509 248,-509 248,-556.105 234.649,-612.072 230.33,-628.944"/>
<polygon fill="none" stroke="black" points="228.593,-628.669 229.014,-633.95 231.978,-629.56 228.593,-628.669"/>
</g>
<!-- PL14&#45;&gt;transition10 -->
<g id="edge42" class="edge"><title>PL14&#45;&gt;transition10</title>
<path fill="none" stroke="black" d="M19.0301,-363.042C20.2153,-384.149 22,-421.212 22,-453 22,-636 22,-636 22,-636 22,-722.61 164.881,-754.363 194.618,-760.034"/>
<polygon fill="none" stroke="black" points="194.64,-761.816 199.871,-760.979 195.26,-758.372 194.64,-761.816"/>
</g>
<!-- PL15&#45;&gt;transition11 -->
<g id="edge44" class="edge"><title>PL15&#45;&gt;transition11</title>
<path fill="none" stroke="black" d="M163.781,-617.051C160.835,-593.047 156,-547.752 156,-509 156,-509 156,-509 156,-399 156,-358.239 140.134,-310.685 134.757,-295.74"/>
<polygon fill="none" stroke="black" points="136.395,-295.123 133.017,-291.043 133.113,-296.339 136.395,-295.123"/>
</g>
<!-- transition14 -->
<g id="node39" class="node"><title>transition14</title>
<polygon fill="none" stroke="black" points="538,-762 502,-762 502,-761 538,-761 538,-762"/>
<text text-anchor="middle" x="494" y="-765.8" font-family="Times,serif" font-size="14.00">t2&#45;</text>
</g>
<!-- PL16&#45;&gt;transition14 -->
<g id="edge46" class="edge"><title>PL16&#45;&gt;transition14</title>
<path fill="none" stroke="black" d="M517.288,-797.939C518.084,-787.385 519.054,-774.534 519.592,-767.412"/>
<polygon fill="none" stroke="black" points="521.364,-767.177 519.996,-762.059 517.874,-766.913 521.364,-767.177"/>
</g>
<!-- PL17 -->
<g id="node38" class="node"><title>PL17</title>
<ellipse fill="none" stroke="black" cx="520" cy="-707" rx="18" ry="18"/>
<text text-anchor="middle" x="520" y="-703.3" font-family="Times,serif" font-size="14.00">PL17</text>
</g>
<!-- transition12 -->
<g id="node41" class="node"><title>transition12</title>
<polygon fill="none" stroke="black" points="538,-635.5 502,-635.5 502,-634.5 538,-634.5 538,-635.5"/>
<text text-anchor="middle" x="492" y="-639.3" font-family="Times,serif" font-size="14.00">r2+</text>
</g>
<!-- PL17&#45;&gt;transition12 -->
<g id="edge48" class="edge"><title>PL17&#45;&gt;transition12</title>
<path fill="none" stroke="black" d="M520,-688.697C520,-673.165 520,-651.324 520,-641.348"/>
<polygon fill="none" stroke="black" points="521.75,-641.092 520,-636.092 518.25,-641.092 521.75,-641.092"/>
</g>
<!-- transition14&#45;&gt;PL17 -->
<g id="edge47" class="edge"><title>transition14&#45;&gt;PL17</title>
<path fill="none" stroke="black" d="M520,-760.848C520,-759.368 520,-747.319 520,-735.1"/>
<polygon fill="black" stroke="black" points="523.5,-735.025 520,-725.025 516.5,-735.025 523.5,-735.025"/>
</g>
<!-- PL18 -->
<g id="node40" class="node"><title>PL18</title>
<ellipse fill="none" stroke="black" cx="524" cy="-563" rx="18" ry="18"/>
<text text-anchor="middle" x="524" y="-559.3" font-family="Times,serif" font-size="14.00">PL18</text>
</g>
<!-- transition17 -->
<g id="node43" class="node"><title>transition17</title>
<polygon fill="none" stroke="black" points="561,-509 525,-509 525,-508 561,-508 561,-509"/>
<text text-anchor="middle" x="515.5" y="-512.8" font-family="Times,serif" font-size="14.00">t2+</text>
</g>
<!-- PL18&#45;&gt;transition17 -->
<g id="edge50" class="edge"><title>PL18&#45;&gt;transition17</title>
<path fill="none" stroke="black" d="M529.804,-545.81C533.694,-534.958 538.565,-521.372 541.164,-514.121"/>
<polygon fill="none" stroke="black" points="542.938,-514.359 542.978,-509.061 539.643,-513.177 542.938,-514.359"/>
</g>
<!-- transition12&#45;&gt;PL18 -->
<g id="edge49" class="edge"><title>transition12&#45;&gt;PL18</title>
<path fill="none" stroke="black" d="M520.003,-633.949C520.072,-632.748 521.347,-610.429 522.439,-591.321"/>
<polygon fill="black" stroke="black" points="525.941,-591.375 523.018,-581.191 518.953,-590.975 525.941,-591.375"/>
</g>
<!-- PL22 -->
<g id="node47" class="node"><title>PL22</title>
<ellipse fill="none" stroke="black" cx="470" cy="-563" rx="18" ry="18"/>
<text text-anchor="middle" x="470" y="-559.3" font-family="Times,serif" font-size="14.00">PL22</text>
</g>
<!-- transition12&#45;&gt;PL22 -->
<g id="edge57" class="edge"><title>transition12&#45;&gt;PL22</title>
<path fill="none" stroke="black" d="M519.964,-633.949C519.031,-632.644 500.295,-606.413 486.039,-586.455"/>
<polygon fill="black" stroke="black" points="488.737,-584.211 480.077,-578.108 483.041,-588.279 488.737,-584.211"/>
</g>
<!-- PL19 -->
<g id="node42" class="node"><title>PL19</title>
<ellipse fill="none" stroke="black" cx="562" cy="-454" rx="18" ry="18"/>
<text text-anchor="middle" x="562" y="-450.3" font-family="Times,serif" font-size="14.00">PL19</text>
</g>
<!-- transition13 -->
<g id="node45" class="node"><title>transition13</title>
<polygon fill="none" stroke="black" points="580,-400 544,-400 544,-399 580,-399 580,-400"/>
<text text-anchor="middle" x="535.5" y="-403.8" font-family="Times,serif" font-size="14.00">r2&#45;</text>
</g>
<!-- PL19&#45;&gt;transition13 -->
<g id="edge52" class="edge"><title>PL19&#45;&gt;transition13</title>
<path fill="none" stroke="black" d="M562,-435.939C562,-425.385 562,-412.534 562,-405.412"/>
<polygon fill="none" stroke="black" points="563.75,-405.059 562,-400.059 560.25,-405.059 563.75,-405.059"/>
</g>
<!-- transition17&#45;&gt;PL19 -->
<g id="edge51" class="edge"><title>transition17&#45;&gt;PL19</title>
<path fill="none" stroke="black" d="M543.055,-507.848C543.606,-506.309 548.253,-493.348 552.805,-480.648"/>
<polygon fill="black" stroke="black" points="556.119,-481.775 556.199,-471.181 549.53,-479.413 556.119,-481.775"/>
</g>
<!-- PL21 -->
<g id="node46" class="node"><title>PL21</title>
<ellipse fill="none" stroke="black" cx="508" cy="-454" rx="18" ry="18"/>
<text text-anchor="middle" x="508" y="-450.3" font-family="Times,serif" font-size="14.00">PL21</text>
</g>
<!-- transition17&#45;&gt;PL21 -->
<g id="edge55" class="edge"><title>transition17&#45;&gt;PL21</title>
<path fill="none" stroke="black" d="M542.9,-507.848C541.814,-506.204 532.121,-491.526 523.225,-478.055"/>
<polygon fill="black" stroke="black" points="526.024,-475.942 517.593,-469.526 520.183,-479.8 526.024,-475.942"/>
</g>
<!-- PL20 -->
<g id="node44" class="node"><title>PL20</title>
<ellipse fill="none" stroke="black" cx="581" cy="-345" rx="18" ry="18"/>
<text text-anchor="middle" x="581" y="-341.3" font-family="Times,serif" font-size="14.00">PL20</text>
</g>
<!-- PL20&#45;&gt;transition14 -->
<g id="edge54" class="edge"><title>PL20&#45;&gt;transition14</title>
<path fill="none" stroke="black" d="M587.674,-361.997C595.67,-382.643 608,-419.855 608,-453 608,-636 608,-636 608,-636 608,-694.52 542.714,-744.966 524.607,-757.831"/>
<polygon fill="none" stroke="black" points="523.191,-756.682 520.064,-760.958 525.175,-759.565 523.191,-756.682"/>
</g>
<!-- transition13&#45;&gt;PL20 -->
<g id="edge53" class="edge"><title>transition13&#45;&gt;PL20</title>
<path fill="none" stroke="black" d="M562.055,-398.848C562.606,-397.309 567.253,-384.348 571.805,-371.648"/>
<polygon fill="black" stroke="black" points="575.119,-372.775 575.199,-362.181 568.53,-370.413 575.119,-372.775"/>
</g>
<!-- PL21&#45;&gt;transition15 -->
<g id="edge56" class="edge"><title>PL21&#45;&gt;transition15</title>
<path fill="none" stroke="black" d="M492.982,-464.504C468.821,-481.1 424,-517.836 424,-562 424,-762 424,-762 424,-762 424,-808.57 424,-864.899 424,-881.902"/>
<polygon fill="none" stroke="black" points="422.25,-881.949 424,-886.949 425.75,-881.949 422.25,-881.949"/>
</g>
<!-- PL22&#45;&gt;transition16 -->
<g id="edge58" class="edge"><title>PL22&#45;&gt;transition16</title>
<path fill="none" stroke="black" d="M470,-581.049C470,-607.708 470,-660.885 470,-706 470,-889 470,-889 470,-889 470,-943.084 453.541,-1007.28 448.469,-1025.78"/>
<polygon fill="none" stroke="black" points="446.686,-1025.66 447.017,-1030.94 450.055,-1026.6 446.686,-1025.66"/>
</g>
<!-- PL23&#45;&gt;transition17 -->
<g id="edge60" class="edge"><title>PL23&#45;&gt;transition17</title>
<path fill="none" stroke="black" d="M558.329,-870.094C562.748,-846.141 570,-800.906 570,-762 570,-762 570,-762 570,-634 570,-586.356 551.028,-530.754 544.891,-514.013"/>
<polygon fill="none" stroke="black" points="546.421,-513.111 543.02,-509.05 543.146,-514.346 546.421,-513.111"/>
</g>
</g>
</svg>
