<?xml version="1.0" encoding="UTF-8" standalone="no"?>
<!DOCTYPE svg PUBLIC "-//W3C//DTD SVG 1.1//EN"
 "http://www.w3.org/Graphics/SVG/1.1/DTD/svg11.dtd">
<!-- Generated by graphviz version 2.38.0 (20140413.2041)
 -->
<!-- Title: %3 Pages: 1 -->
<svg width="762pt" height="1130pt"
 viewBox="0.00 0.00 762.00 1130.00" xmlns="http://www.w3.org/2000/svg" xmlns:xlink="http://www.w3.org/1999/xlink">
<g id="graph0" class="graph" transform="scale(1 1) rotate(0) translate(4 1126)">
<title>%3</title>
<polygon fill="white" stroke="none" points="-4,4 -4,-1126 758,-1126 758,4 -4,4"/>
<!-- PL1 -->
<g id="node1" class="node"><title>PL1</title>
<ellipse fill="none" stroke="black" cx="75" cy="-1104" rx="18" ry="18"/>
<text text-anchor="middle" x="75" y="-1100.3" font-family="Times,serif" font-size="14.00">PL1</text>
</g>
<!-- transition17 -->
<g id="node3" class="node"><title>transition17</title>
<polygon fill="none" stroke="black" points="188,-1050 152,-1050 152,-1049 188,-1049 188,-1050"/>
<text text-anchor="middle" x="144.5" y="-1053.8" font-family="Times,serif" font-size="14.00">c+</text>
</g>
<!-- PL1&#45;&gt;transition17 -->
<g id="edge1" class="edge"><title>PL1&#45;&gt;transition17</title>
<path fill="none" stroke="black" d="M90.6873,-1094.25C112.742,-1081.94 151.733,-1060.19 165.238,-1052.66"/>
<polygon fill="none" stroke="black" points="166.335,-1054.05 169.849,-1050.08 164.63,-1050.99 166.335,-1054.05"/>
</g>
<!-- PL2 -->
<g id="node2" class="node"><title>PL2</title>
<ellipse fill="none" stroke="black" cx="250" cy="-995" rx="18" ry="18"/>
<text text-anchor="middle" x="250" y="-991.3" font-family="Times,serif" font-size="14.00">PL2</text>
</g>
<!-- transition11 -->
<g id="node5" class="node"><title>transition11</title>
<polygon fill="none" stroke="black" points="289,-941 253,-941 253,-940 289,-940 289,-941"/>
<text text-anchor="middle" x="247" y="-944.8" font-family="Times,serif" font-size="14.00">b&#45;</text>
</g>
<!-- PL2&#45;&gt;transition11 -->
<g id="edge3" class="edge"><title>PL2&#45;&gt;transition11</title>
<path fill="none" stroke="black" d="M256.301,-978.098C260.608,-967.228 266.043,-953.51 268.948,-946.179"/>
<polygon fill="none" stroke="black" points="270.76,-946.355 270.975,-941.062 267.507,-945.066 270.76,-946.355"/>
</g>
<!-- transition17&#45;&gt;PL2 -->
<g id="edge2" class="edge"><title>transition17&#45;&gt;PL2</title>
<path fill="none" stroke="black" d="M170.058,-1048.96C171.603,-1047.94 203.714,-1026.66 226.761,-1011.4"/>
<polygon fill="black" stroke="black" points="228.964,-1014.13 235.367,-1005.69 225.098,-1008.3 228.964,-1014.13"/>
</g>
<!-- PL23 -->
<g id="node37" class="node"><title>PL23</title>
<ellipse fill="none" stroke="black" cx="127" cy="-995" rx="18" ry="18"/>
<text text-anchor="middle" x="127" y="-991.3" font-family="Times,serif" font-size="14.00">PL23</text>
</g>
<!-- transition17&#45;&gt;PL23 -->
<g id="edge45" class="edge"><title>transition17&#45;&gt;PL23</title>
<path fill="none" stroke="black" d="M169.877,-1048.85C168.485,-1047.13 155.572,-1031.22 144.277,-1017.29"/>
<polygon fill="black" stroke="black" points="146.932,-1015.01 137.913,-1009.45 141.496,-1019.42 146.932,-1015.01"/>
</g>
<!-- PL3 -->
<g id="node4" class="node"><title>PL3</title>
<ellipse fill="none" stroke="black" cx="345" cy="-886" rx="18" ry="18"/>
<text text-anchor="middle" x="345" y="-882.3" font-family="Times,serif" font-size="14.00">PL3</text>
</g>
<!-- transition10 -->
<g id="node7" class="node"><title>transition10</title>
<polygon fill="none" stroke="black" points="407,-814.5 371,-814.5 371,-813.5 407,-813.5 407,-814.5"/>
<text text-anchor="middle" x="363.5" y="-818.3" font-family="Times,serif" font-size="14.00">a+</text>
</g>
<!-- PL3&#45;&gt;transition10 -->
<g id="edge5" class="edge"><title>PL3&#45;&gt;transition10</title>
<path fill="none" stroke="black" d="M354.331,-870.155C364.4,-854.137 379.838,-829.576 386.156,-819.524"/>
<polygon fill="none" stroke="black" points="387.758,-820.264 388.937,-815.1 384.795,-818.402 387.758,-820.264"/>
</g>
<!-- transition11&#45;&gt;PL3 -->
<g id="edge4" class="edge"><title>transition11&#45;&gt;PL3</title>
<path fill="none" stroke="black" d="M271.054,-939.962C272.461,-938.953 301.29,-918.306 322.527,-903.095"/>
<polygon fill="black" stroke="black" points="324.689,-905.852 330.781,-897.184 320.613,-900.161 324.689,-905.852"/>
</g>
<!-- PL22 -->
<g id="node36" class="node"><title>PL22</title>
<ellipse fill="none" stroke="black" cx="286" cy="-814" rx="18" ry="18"/>
<text text-anchor="middle" x="286" y="-810.3" font-family="Times,serif" font-size="14.00">PL22</text>
</g>
<!-- transition11&#45;&gt;PL22 -->
<g id="edge43" class="edge"><title>transition11&#45;&gt;PL22</title>
<path fill="none" stroke="black" d="M271.011,-939.909C271.326,-937.283 278.42,-878.167 282.734,-842.216"/>
<polygon fill="black" stroke="black" points="286.257,-842.236 283.973,-831.891 279.307,-841.402 286.257,-842.236"/>
</g>
<!-- PL4 -->
<g id="node6" class="node"><title>PL4</title>
<ellipse fill="none" stroke="black" cx="504" cy="-742" rx="18" ry="18"/>
<text text-anchor="middle" x="504" y="-738.3" font-family="Times,serif" font-size="14.00">PL4</text>
</g>
<!-- transition5 -->
<g id="node9" class="node"><title>transition5</title>
<polygon fill="none" stroke="black" points="545,-670.5 509,-670.5 509,-669.5 545,-669.5 545,-670.5"/>
<text text-anchor="middle" x="503.5" y="-674.3" font-family="Times,serif" font-size="14.00">c&#45;</text>
</g>
<!-- PL4&#45;&gt;transition5 -->
<g id="edge7" class="edge"><title>PL4&#45;&gt;transition5</title>
<path fill="none" stroke="black" d="M509.334,-724.765C514.528,-708.958 522.104,-685.901 525.385,-675.914"/>
<polygon fill="none" stroke="black" points="527.07,-676.392 526.969,-671.096 523.745,-675.299 527.07,-676.392"/>
</g>
<!-- transition10&#45;&gt;PL4 -->
<g id="edge6" class="edge"><title>transition10&#45;&gt;PL4</title>
<path fill="none" stroke="black" d="M389.083,-812.949C391.533,-811.458 447.394,-777.456 480.315,-757.417"/>
<polygon fill="black" stroke="black" points="482.207,-760.363 488.929,-752.174 478.567,-754.384 482.207,-760.363"/>
</g>
<!-- PL15 -->
<g id="node25" class="node"><title>PL15</title>
<ellipse fill="none" stroke="black" cx="366" cy="-742" rx="18" ry="18"/>
<text text-anchor="middle" x="366" y="-738.3" font-family="Times,serif" font-size="14.00">PL15</text>
</g>
<!-- transition10&#45;&gt;PL15 -->
<g id="edge29" class="edge"><title>transition10&#45;&gt;PL15</title>
<path fill="none" stroke="black" d="M388.983,-812.949C388.58,-811.722 380.944,-788.482 374.583,-769.122"/>
<polygon fill="black" stroke="black" points="377.865,-767.897 371.418,-759.489 371.214,-770.082 377.865,-767.897"/>
</g>
<!-- PL5 -->
<g id="node8" class="node"><title>PL5</title>
<ellipse fill="none" stroke="black" cx="550" cy="-598" rx="18" ry="18"/>
<text text-anchor="middle" x="550" y="-594.3" font-family="Times,serif" font-size="14.00">PL5</text>
</g>
<!-- transition4 -->
<g id="node11" class="node"><title>transition4</title>
<polygon fill="none" stroke="black" points="568,-544 532,-544 532,-543 568,-543 568,-544"/>
<text text-anchor="middle" x="524.5" y="-547.8" font-family="Times,serif" font-size="14.00">b+</text>
</g>
<!-- PL5&#45;&gt;transition4 -->
<g id="edge9" class="edge"><title>PL5&#45;&gt;transition4</title>
<path fill="none" stroke="black" d="M550,-579.939C550,-569.385 550,-556.534 550,-549.412"/>
<polygon fill="none" stroke="black" points="551.75,-549.059 550,-544.059 548.25,-549.059 551.75,-549.059"/>
</g>
<!-- transition5&#45;&gt;PL5 -->
<g id="edge8" class="edge"><title>transition5&#45;&gt;PL5</title>
<path fill="none" stroke="black" d="M527.017,-668.949C527.42,-667.722 535.056,-644.482 541.417,-625.122"/>
<polygon fill="black" stroke="black" points="544.786,-626.082 544.582,-615.489 538.135,-623.897 544.786,-626.082"/>
</g>
<!-- PL14 -->
<g id="node24" class="node"><title>PL14</title>
<ellipse fill="none" stroke="black" cx="496" cy="-308" rx="18" ry="18"/>
<text text-anchor="middle" x="496" y="-304.3" font-family="Times,serif" font-size="14.00">PL14</text>
</g>
<!-- transition5&#45;&gt;PL14 -->
<g id="edge27" class="edge"><title>transition5&#45;&gt;PL14</title>
<path fill="none" stroke="black" d="M526.983,-668.95C526.287,-666.862 504,-599.606 504,-544 504,-544 504,-544 504,-434 504,-400.282 501.065,-361.553 498.751,-336.252"/>
<polygon fill="black" stroke="black" points="502.203,-335.587 497.775,-325.961 495.235,-336.247 502.203,-335.587"/>
</g>
<!-- PL6 -->
<g id="node10" class="node"><title>PL6</title>
<ellipse fill="none" stroke="black" cx="458" cy="-489" rx="18" ry="18"/>
<text text-anchor="middle" x="458" y="-485.3" font-family="Times,serif" font-size="14.00">PL6</text>
</g>
<!-- transition18 -->
<g id="node12" class="node"><title>transition18</title>
<polygon fill="none" stroke="black" points="148,-435 112,-435 112,-434 148,-434 148,-435"/>
<text text-anchor="middle" x="106.5" y="-438.8" font-family="Times,serif" font-size="14.00">a&#45;</text>
</g>
<!-- PL6&#45;&gt;transition18 -->
<g id="edge11" class="edge"><title>PL6&#45;&gt;transition18</title>
<path fill="none" stroke="black" d="M441.022,-482.963C427.982,-479.24 409.475,-474.27 393,-471 290.211,-450.6 162.524,-438.037 135.269,-435.484"/>
<polygon fill="none" stroke="black" points="135.246,-433.725 130.107,-435.01 134.926,-437.21 135.246,-433.725"/>
</g>
<!-- transition4&#45;&gt;PL6 -->
<g id="edge10" class="edge"><title>transition4&#45;&gt;PL6</title>
<path fill="none" stroke="black" d="M549.933,-542.962C548.093,-541.902 508.587,-519.143 481.968,-503.808"/>
<polygon fill="black" stroke="black" points="483.585,-500.7 473.173,-498.741 480.09,-506.765 483.585,-500.7"/>
</g>
<!-- PL7 -->
<g id="node13" class="node"><title>PL7</title>
<ellipse fill="none" stroke="black" cx="550" cy="-489" rx="18" ry="18"/>
<text text-anchor="middle" x="550" y="-485.3" font-family="Times,serif" font-size="14.00">PL7</text>
</g>
<!-- transition4&#45;&gt;PL7 -->
<g id="edge13" class="edge"><title>transition4&#45;&gt;PL7</title>
<path fill="none" stroke="black" d="M550,-542.848C550,-541.368 550,-529.319 550,-517.1"/>
<polygon fill="black" stroke="black" points="553.5,-517.025 550,-507.025 546.5,-517.025 553.5,-517.025"/>
</g>
<!-- transition18&#45;&gt;PL1 -->
<g id="edge12" class="edge"><title>transition18&#45;&gt;PL1</title>
<path fill="none" stroke="black" d="M129.957,-435.005C128.155,-435.216 70.2343,-442.206 38,-471 11.0149,-495.105 0,-506.817 0,-543 0,-996 0,-996 0,-996 0,-1033.21 30.7962,-1066.67 52.9206,-1085.91"/>
<polygon fill="black" stroke="black" points="50.9729,-1088.84 60.8931,-1092.56 55.4581,-1083.46 50.9729,-1088.84"/>
</g>
<!-- transition3 -->
<g id="node15" class="node"><title>transition3</title>
<polygon fill="none" stroke="black" points="568,-435 532,-435 532,-434 568,-434 568,-435"/>
<text text-anchor="middle" x="524" y="-438.8" font-family="Times,serif" font-size="14.00">t3&#45;</text>
</g>
<!-- PL7&#45;&gt;transition3 -->
<g id="edge14" class="edge"><title>PL7&#45;&gt;transition3</title>
<path fill="none" stroke="black" d="M550,-470.939C550,-460.385 550,-447.534 550,-440.412"/>
<polygon fill="none" stroke="black" points="551.75,-440.059 550,-435.059 548.25,-440.059 551.75,-440.059"/>
</g>
<!-- PL8 -->
<g id="node14" class="node"><title>PL8</title>
<ellipse fill="none" stroke="black" cx="607" cy="-380" rx="18" ry="18"/>
<text text-anchor="middle" x="607" y="-376.3" font-family="Times,serif" font-size="14.00">PL8</text>
</g>
<!-- transition1 -->
<g id="node17" class="node"><title>transition1</title>
<polygon fill="none" stroke="black" points="634,-308.5 598,-308.5 598,-307.5 634,-307.5 634,-308.5"/>
<text text-anchor="middle" x="588" y="-312.3" font-family="Times,serif" font-size="14.00">r3+</text>
</g>
<!-- PL8&#45;&gt;transition1 -->
<g id="edge16" class="edge"><title>PL8&#45;&gt;transition1</title>
<path fill="none" stroke="black" d="M609.179,-362.055C611.195,-346.376 614.066,-324.04 615.344,-314.104"/>
<polygon fill="none" stroke="black" points="617.086,-314.276 615.988,-309.093 613.615,-313.829 617.086,-314.276"/>
</g>
<!-- transition3&#45;&gt;PL8 -->
<g id="edge15" class="edge"><title>transition3&#45;&gt;PL8</title>
<path fill="none" stroke="black" d="M550.164,-433.848C552.11,-432.038 571.05,-414.427 586.54,-400.024"/>
<polygon fill="black" stroke="black" points="589.277,-402.259 594.217,-392.886 584.51,-397.132 589.277,-402.259"/>
</g>
<!-- PL9 -->
<g id="node16" class="node"><title>PL9</title>
<ellipse fill="none" stroke="black" cx="616" cy="-236" rx="18" ry="18"/>
<text text-anchor="middle" x="616" y="-232.3" font-family="Times,serif" font-size="14.00">PL9</text>
</g>
<!-- transition6 -->
<g id="node19" class="node"><title>transition6</title>
<polygon fill="none" stroke="black" points="629,-182 593,-182 593,-181 629,-181 629,-182"/>
<text text-anchor="middle" x="583.5" y="-185.8" font-family="Times,serif" font-size="14.00">t3+</text>
</g>
<!-- PL9&#45;&gt;transition6 -->
<g id="edge18" class="edge"><title>PL9&#45;&gt;transition6</title>
<path fill="none" stroke="black" d="M614.39,-217.939C613.395,-207.385 612.182,-194.534 611.511,-187.412"/>
<polygon fill="none" stroke="black" points="613.218,-186.873 611.006,-182.059 609.733,-187.201 613.218,-186.873"/>
</g>
<!-- transition1&#45;&gt;PL9 -->
<g id="edge17" class="edge"><title>transition1&#45;&gt;PL9</title>
<path fill="none" stroke="black" d="M616,-306.949C616,-305.748 616,-283.429 616,-264.321"/>
<polygon fill="black" stroke="black" points="619.5,-264.191 616,-254.191 612.5,-264.191 619.5,-264.191"/>
</g>
<!-- PL13 -->
<g id="node23" class="node"><title>PL13</title>
<ellipse fill="none" stroke="black" cx="670" cy="-236" rx="18" ry="18"/>
<text text-anchor="middle" x="670" y="-232.3" font-family="Times,serif" font-size="14.00">PL13</text>
</g>
<!-- transition1&#45;&gt;PL13 -->
<g id="edge25" class="edge"><title>transition1&#45;&gt;PL13</title>
<path fill="none" stroke="black" d="M616.039,-306.949C617.056,-305.631 637.689,-278.884 653.14,-258.856"/>
<polygon fill="black" stroke="black" points="656.035,-260.833 659.372,-250.778 650.492,-256.558 656.035,-260.833"/>
</g>
<!-- PL10 -->
<g id="node18" class="node"><title>PL10</title>
<ellipse fill="none" stroke="black" cx="592" cy="-127" rx="18" ry="18"/>
<text text-anchor="middle" x="592" y="-123.3" font-family="Times,serif" font-size="14.00">PL10</text>
</g>
<!-- transition2 -->
<g id="node21" class="node"><title>transition2</title>
<polygon fill="none" stroke="black" points="601,-73 565,-73 565,-72 601,-72 601,-73"/>
<text text-anchor="middle" x="556.5" y="-76.8" font-family="Times,serif" font-size="14.00">r3&#45;</text>
</g>
<!-- PL10&#45;&gt;transition2 -->
<g id="edge20" class="edge"><title>PL10&#45;&gt;transition2</title>
<path fill="none" stroke="black" d="M589.103,-108.939C587.311,-98.3852 585.128,-85.5344 583.919,-78.4124"/>
<polygon fill="none" stroke="black" points="585.572,-77.6956 583.01,-73.0591 582.122,-78.2816 585.572,-77.6956"/>
</g>
<!-- transition6&#45;&gt;PL10 -->
<g id="edge19" class="edge"><title>transition6&#45;&gt;PL10</title>
<path fill="none" stroke="black" d="M610.945,-180.848C610.394,-179.309 605.747,-166.348 601.195,-153.648"/>
<polygon fill="black" stroke="black" points="604.47,-152.413 597.801,-144.181 597.881,-154.775 604.47,-152.413"/>
</g>
<!-- PL12 -->
<g id="node22" class="node"><title>PL12</title>
<ellipse fill="none" stroke="black" cx="688" cy="-127" rx="18" ry="18"/>
<text text-anchor="middle" x="688" y="-123.3" font-family="Times,serif" font-size="14.00">PL12</text>
</g>
<!-- transition6&#45;&gt;PL12 -->
<g id="edge23" class="edge"><title>transition6&#45;&gt;PL12</title>
<path fill="none" stroke="black" d="M611.056,-180.962C612.535,-179.943 643.116,-158.894 665.272,-143.644"/>
<polygon fill="black" stroke="black" points="667.309,-146.491 673.562,-137.938 663.34,-140.725 667.309,-146.491"/>
</g>
<!-- PL11 -->
<g id="node20" class="node"><title>PL11</title>
<ellipse fill="none" stroke="black" cx="557" cy="-18" rx="18" ry="18"/>
<text text-anchor="middle" x="557" y="-14.3" font-family="Times,serif" font-size="14.00">PL11</text>
</g>
<!-- PL11&#45;&gt;transition3 -->
<g id="edge22" class="edge"><title>PL11&#45;&gt;transition3</title>
<path fill="none" stroke="black" d="M550.82,-35.0419C543.417,-55.735 532,-92.9973 532,-126 532,-182 532,-182 532,-182 532,-281.305 546.079,-402.064 549.334,-428.657"/>
<polygon fill="none" stroke="black" points="547.632,-429.153 549.987,-433.898 551.105,-428.72 547.632,-429.153"/>
</g>
<!-- transition2&#45;&gt;PL11 -->
<g id="edge21" class="edge"><title>transition2&#45;&gt;PL11</title>
<path fill="none" stroke="black" d="M582.925,-71.848C582.154,-70.2747 575.523,-56.759 569.162,-43.7912"/>
<polygon fill="black" stroke="black" points="572.211,-42.0604 564.665,-34.624 565.927,-45.1434 572.211,-42.0604"/>
</g>
<!-- PL12&#45;&gt;transition4 -->
<g id="edge24" class="edge"><title>PL12&#45;&gt;transition4</title>
<path fill="none" stroke="black" d="M694.921,-143.974C703.213,-164.595 716,-201.781 716,-235 716,-435 716,-435 716,-435 716,-513.52 583.893,-537.895 555.382,-542.242"/>
<polygon fill="none" stroke="black" points="554.826,-540.553 550.12,-542.985 555.316,-544.018 554.826,-540.553"/>
</g>
<!-- PL13&#45;&gt;transition5 -->
<g id="edge26" class="edge"><title>PL13&#45;&gt;transition5</title>
<path fill="none" stroke="black" d="M683.125,-248.876C706.75,-271.628 754,-324.005 754,-379 754,-544 754,-544 754,-544 754,-648.517 567.065,-666.28 532.471,-668.672"/>
<polygon fill="none" stroke="black" points="532.05,-666.944 527.165,-668.992 532.261,-670.438 532.05,-666.944"/>
</g>
<!-- PL14&#45;&gt;transition6 -->
<g id="edge28" class="edge"><title>PL14&#45;&gt;transition6</title>
<path fill="none" stroke="black" d="M507.874,-294.094C533.408,-266.34 592.443,-202.171 607.47,-185.837"/>
<polygon fill="none" stroke="black" points="608.849,-186.923 610.946,-182.058 606.273,-184.553 608.849,-186.923"/>
</g>
<!-- transition9 -->
<g id="node27" class="node"><title>transition9</title>
<polygon fill="none" stroke="black" points="384,-670.5 348,-670.5 348,-669.5 384,-669.5 384,-670.5"/>
<text text-anchor="middle" x="340" y="-674.3" font-family="Times,serif" font-size="14.00">t2&#45;</text>
</g>
<!-- PL15&#45;&gt;transition9 -->
<g id="edge30" class="edge"><title>PL15&#45;&gt;transition9</title>
<path fill="none" stroke="black" d="M366,-723.697C366,-708.165 366,-686.324 366,-676.348"/>
<polygon fill="none" stroke="black" points="367.75,-676.092 366,-671.092 364.25,-676.092 367.75,-676.092"/>
</g>
<!-- PL16 -->
<g id="node26" class="node"><title>PL16</title>
<ellipse fill="none" stroke="black" cx="366" cy="-598" rx="18" ry="18"/>
<text text-anchor="middle" x="366" y="-594.3" font-family="Times,serif" font-size="14.00">PL16</text>
</g>
<!-- transition7 -->
<g id="node29" class="node"><title>transition7</title>
<polygon fill="none" stroke="black" points="384,-544 348,-544 348,-543 384,-543 384,-544"/>
<text text-anchor="middle" x="338" y="-547.8" font-family="Times,serif" font-size="14.00">r2+</text>
</g>
<!-- PL16&#45;&gt;transition7 -->
<g id="edge32" class="edge"><title>PL16&#45;&gt;transition7</title>
<path fill="none" stroke="black" d="M366,-579.939C366,-569.385 366,-556.534 366,-549.412"/>
<polygon fill="none" stroke="black" points="367.75,-549.059 366,-544.059 364.25,-549.059 367.75,-549.059"/>
</g>
<!-- transition9&#45;&gt;PL16 -->
<g id="edge31" class="edge"><title>transition9&#45;&gt;PL16</title>
<path fill="none" stroke="black" d="M366,-668.949C366,-667.748 366,-645.429 366,-626.321"/>
<polygon fill="black" stroke="black" points="369.5,-626.191 366,-616.191 362.5,-626.191 369.5,-626.191"/>
</g>
<!-- PL17 -->
<g id="node28" class="node"><title>PL17</title>
<ellipse fill="none" stroke="black" cx="366" cy="-489" rx="18" ry="18"/>
<text text-anchor="middle" x="366" y="-485.3" font-family="Times,serif" font-size="14.00">PL17</text>
</g>
<!-- transition12 -->
<g id="node31" class="node"><title>transition12</title>
<polygon fill="none" stroke="black" points="365,-435 329,-435 329,-434 365,-434 365,-435"/>
<text text-anchor="middle" x="319.5" y="-438.8" font-family="Times,serif" font-size="14.00">t2+</text>
</g>
<!-- PL17&#45;&gt;transition12 -->
<g id="edge34" class="edge"><title>PL17&#45;&gt;transition12</title>
<path fill="none" stroke="black" d="M360.196,-471.81C356.306,-460.958 351.435,-447.372 348.836,-440.121"/>
<polygon fill="none" stroke="black" points="350.357,-439.177 347.022,-435.061 347.062,-440.359 350.357,-439.177"/>
</g>
<!-- transition7&#45;&gt;PL17 -->
<g id="edge33" class="edge"><title>transition7&#45;&gt;PL17</title>
<path fill="none" stroke="black" d="M366,-542.848C366,-541.368 366,-529.319 366,-517.1"/>
<polygon fill="black" stroke="black" points="369.5,-517.025 366,-507.025 362.5,-517.025 369.5,-517.025"/>
</g>
<!-- PL21 -->
<g id="node35" class="node"><title>PL21</title>
<ellipse fill="none" stroke="black" cx="236" cy="-489" rx="18" ry="18"/>
<text text-anchor="middle" x="236" y="-485.3" font-family="Times,serif" font-size="14.00">PL21</text>
</g>
<!-- transition7&#45;&gt;PL21 -->
<g id="edge41" class="edge"><title>transition7&#45;&gt;PL21</title>
<path fill="none" stroke="black" d="M365.906,-542.962C363.123,-541.827 299.347,-515.826 262.21,-500.685"/>
<polygon fill="black" stroke="black" points="263.095,-497.267 252.514,-496.733 260.453,-503.749 263.095,-497.267"/>
</g>
<!-- PL18 -->
<g id="node30" class="node"><title>PL18</title>
<ellipse fill="none" stroke="black" cx="335" cy="-380" rx="18" ry="18"/>
<text text-anchor="middle" x="335" y="-376.3" font-family="Times,serif" font-size="14.00">PL18</text>
</g>
<!-- transition8 -->
<g id="node33" class="node"><title>transition8</title>
<polygon fill="none" stroke="black" points="350,-308.5 314,-308.5 314,-307.5 350,-307.5 350,-308.5"/>
<text text-anchor="middle" x="305.5" y="-312.3" font-family="Times,serif" font-size="14.00">r2&#45;</text>
</g>
<!-- PL18&#45;&gt;transition8 -->
<g id="edge36" class="edge"><title>PL18&#45;&gt;transition8</title>
<path fill="none" stroke="black" d="M334.258,-361.697C333.593,-346.165 332.657,-324.324 332.229,-314.348"/>
<polygon fill="none" stroke="black" points="333.967,-314.013 332.004,-309.092 330.47,-314.163 333.967,-314.013"/>
</g>
<!-- transition12&#45;&gt;PL18 -->
<g id="edge35" class="edge"><title>transition12&#45;&gt;PL18</title>
<path fill="none" stroke="black" d="M346.966,-433.848C346.625,-432.344 343.812,-419.919 340.999,-407.496"/>
<polygon fill="black" stroke="black" points="344.413,-406.722 338.791,-397.742 337.585,-408.268 344.413,-406.722"/>
</g>
<!-- PL20 -->
<g id="node34" class="node"><title>PL20</title>
<ellipse fill="none" stroke="black" cx="404" cy="-380" rx="18" ry="18"/>
<text text-anchor="middle" x="404" y="-376.3" font-family="Times,serif" font-size="14.00">PL20</text>
</g>
<!-- transition12&#45;&gt;PL20 -->
<g id="edge39" class="edge"><title>transition12&#45;&gt;PL20</title>
<path fill="none" stroke="black" d="M347.164,-433.848C349.11,-432.038 368.05,-414.427 383.54,-400.024"/>
<polygon fill="black" stroke="black" points="386.277,-402.259 391.217,-392.886 381.51,-397.132 386.277,-402.259"/>
</g>
<!-- PL19 -->
<g id="node32" class="node"><title>PL19</title>
<ellipse fill="none" stroke="black" cx="307" cy="-236" rx="18" ry="18"/>
<text text-anchor="middle" x="307" y="-232.3" font-family="Times,serif" font-size="14.00">PL19</text>
</g>
<!-- PL19&#45;&gt;transition9 -->
<g id="edge38" class="edge"><title>PL19&#45;&gt;transition9</title>
<path fill="none" stroke="black" d="M302.18,-253.449C294.915,-279.735 282,-332.941 282,-379 282,-490 282,-490 282,-490 282,-567.045 346.564,-646.581 362.484,-665.022"/>
<polygon fill="none" stroke="black" points="361.318,-666.344 365.939,-668.934 363.941,-664.027 361.318,-666.344"/>
</g>
<!-- transition8&#45;&gt;PL19 -->
<g id="edge37" class="edge"><title>transition8&#45;&gt;PL19</title>
<path fill="none" stroke="black" d="M331.982,-306.949C331.541,-305.715 323.148,-282.215 316.21,-262.789"/>
<polygon fill="black" stroke="black" points="319.424,-261.382 312.765,-253.142 312.832,-263.736 319.424,-261.382"/>
</g>
<!-- PL20&#45;&gt;transition10 -->
<g id="edge40" class="edge"><title>PL20&#45;&gt;transition10</title>
<path fill="none" stroke="black" d="M406.06,-398.02C408.431,-419.105 412,-456.146 412,-488 412,-671 412,-671 412,-671 412,-725.084 395.541,-789.283 390.469,-807.779"/>
<polygon fill="none" stroke="black" points="388.686,-807.656 389.017,-812.943 392.055,-808.604 388.686,-807.656"/>
</g>
<!-- PL21&#45;&gt;transition11 -->
<g id="edge42" class="edge"><title>PL21&#45;&gt;transition11</title>
<path fill="none" stroke="black" d="M237.03,-507.042C238.215,-528.149 240,-565.212 240,-597 240,-815 240,-815 240,-815 240,-862.981 261.783,-918.355 268.829,-935.013"/>
<polygon fill="none" stroke="black" points="267.378,-936.064 270.978,-939.951 270.587,-934.668 267.378,-936.064"/>
</g>
<!-- PL22&#45;&gt;transition12 -->
<g id="edge44" class="edge"><title>PL22&#45;&gt;transition12</title>
<path fill="none" stroke="black" d="M288.256,-795.852C294.941,-745.697 315.641,-594.995 339,-471 341.067,-460.029 344.03,-447.301 345.709,-440.3"/>
<polygon fill="none" stroke="black" points="347.503,-440.33 346.986,-435.058 344.102,-439.501 347.503,-440.33"/>
</g>
<!-- transition16 -->
<g id="node39" class="node"><title>transition16</title>
<polygon fill="none" stroke="black" points="125,-941 89,-941 89,-940 125,-940 125,-941"/>
<text text-anchor="middle" x="81" y="-944.8" font-family="Times,serif" font-size="14.00">t1&#45;</text>
</g>
<!-- PL23&#45;&gt;transition16 -->
<g id="edge46" class="edge"><title>PL23&#45;&gt;transition16</title>
<path fill="none" stroke="black" d="M120.891,-977.81C116.795,-966.958 111.669,-953.372 108.932,-946.121"/>
<polygon fill="none" stroke="black" points="110.426,-945.122 107.023,-941.061 107.151,-946.357 110.426,-945.122"/>
</g>
<!-- PL24 -->
<g id="node38" class="node"><title>PL24</title>
<ellipse fill="none" stroke="black" cx="107" cy="-886" rx="18" ry="18"/>
<text text-anchor="middle" x="107" y="-882.3" font-family="Times,serif" font-size="14.00">PL24</text>
</g>
<!-- transition13 -->
<g id="node41" class="node"><title>transition13</title>
<polygon fill="none" stroke="black" points="125,-814.5 89,-814.5 89,-813.5 125,-813.5 125,-814.5"/>
<text text-anchor="middle" x="79" y="-818.3" font-family="Times,serif" font-size="14.00">r1+</text>
</g>
<!-- PL24&#45;&gt;transition13 -->
<g id="edge48" class="edge"><title>PL24&#45;&gt;transition13</title>
<path fill="none" stroke="black" d="M107,-867.697C107,-852.165 107,-830.324 107,-820.348"/>
<polygon fill="none" stroke="black" points="108.75,-820.092 107,-815.092 105.25,-820.092 108.75,-820.092"/>
</g>
<!-- transition16&#45;&gt;PL24 -->
<g id="edge47" class="edge"><title>transition16&#45;&gt;PL24</title>
<path fill="none" stroke="black" d="M107,-939.848C107,-938.368 107,-926.319 107,-914.1"/>
<polygon fill="black" stroke="black" points="110.5,-914.025 107,-904.025 103.5,-914.025 110.5,-914.025"/>
</g>
<!-- PL25 -->
<g id="node40" class="node"><title>PL25</title>
<ellipse fill="none" stroke="black" cx="146" cy="-742" rx="18" ry="18"/>
<text text-anchor="middle" x="146" y="-738.3" font-family="Times,serif" font-size="14.00">PL25</text>
</g>
<!-- transition14 -->
<g id="node43" class="node"><title>transition14</title>
<polygon fill="none" stroke="black" points="166,-670.5 130,-670.5 130,-669.5 166,-669.5 166,-670.5"/>
<text text-anchor="middle" x="139.5" y="-674.3" font-family="Times,serif" font-size="14.00">t1+</text>
</g>
<!-- PL25&#45;&gt;transition14 -->
<g id="edge50" class="edge"><title>PL25&#45;&gt;transition14</title>
<path fill="none" stroke="black" d="M146.494,-723.697C146.938,-708.165 147.562,-686.324 147.847,-676.348"/>
<polygon fill="none" stroke="black" points="149.604,-676.14 147.997,-671.092 146.105,-676.04 149.604,-676.14"/>
</g>
<!-- transition13&#45;&gt;PL25 -->
<g id="edge49" class="edge"><title>transition13&#45;&gt;PL25</title>
<path fill="none" stroke="black" d="M107.028,-812.949C107.737,-811.677 121.637,-786.729 132.636,-766.987"/>
<polygon fill="black" stroke="black" points="135.77,-768.553 137.58,-758.114 129.655,-765.146 135.77,-768.553"/>
</g>
<!-- PL29 -->
<g id="node47" class="node"><title>PL29</title>
<ellipse fill="none" stroke="black" cx="94" cy="-670" rx="18" ry="18"/>
<text text-anchor="middle" x="94" y="-666.3" font-family="Times,serif" font-size="14.00">PL29</text>
</g>
<!-- transition13&#45;&gt;PL29 -->
<g id="edge57" class="edge"><title>transition13&#45;&gt;PL29</title>
<path fill="none" stroke="black" d="M106.991,-812.897C106.709,-809.821 100.182,-738.53 96.4897,-698.195"/>
<polygon fill="black" stroke="black" points="99.9714,-697.834 95.5742,-688.195 93.0005,-698.472 99.9714,-697.834"/>
</g>
<!-- PL26 -->
<g id="node42" class="node"><title>PL26</title>
<ellipse fill="none" stroke="black" cx="140" cy="-598" rx="18" ry="18"/>
<text text-anchor="middle" x="140" y="-594.3" font-family="Times,serif" font-size="14.00">PL26</text>
</g>
<!-- transition15 -->
<g id="node45" class="node"><title>transition15</title>
<polygon fill="none" stroke="black" points="102,-544 66,-544 66,-543 102,-543 102,-544"/>
<text text-anchor="middle" x="57.5" y="-547.8" font-family="Times,serif" font-size="14.00">r1&#45;</text>
</g>
<!-- PL26&#45;&gt;transition15 -->
<g id="edge52" class="edge"><title>PL26&#45;&gt;transition15</title>
<path fill="none" stroke="black" d="M127.293,-584.973C114.538,-572.902 95.6759,-555.05 87.737,-547.537"/>
<polygon fill="none" stroke="black" points="88.9117,-546.239 84.0773,-544.073 86.5059,-548.781 88.9117,-546.239"/>
</g>
<!-- transition14&#45;&gt;PL26 -->
<g id="edge51" class="edge"><title>transition14&#45;&gt;PL26</title>
<path fill="none" stroke="black" d="M147.994,-668.949C147.857,-667.748 145.306,-645.429 143.122,-626.321"/>
<polygon fill="black" stroke="black" points="146.578,-625.729 141.965,-616.191 139.623,-626.524 146.578,-625.729"/>
</g>
<!-- PL28 -->
<g id="node46" class="node"><title>PL28</title>
<ellipse fill="none" stroke="black" cx="194" cy="-598" rx="18" ry="18"/>
<text text-anchor="middle" x="194" y="-594.3" font-family="Times,serif" font-size="14.00">PL28</text>
</g>
<!-- transition14&#45;&gt;PL28 -->
<g id="edge55" class="edge"><title>transition14&#45;&gt;PL28</title>
<path fill="none" stroke="black" d="M148.033,-668.949C148.883,-667.657 165.786,-641.934 178.85,-622.055"/>
<polygon fill="black" stroke="black" points="181.944,-623.72 184.511,-613.44 176.094,-619.875 181.944,-623.72"/>
</g>
<!-- PL27 -->
<g id="node44" class="node"><title>PL27</title>
<ellipse fill="none" stroke="black" cx="65" cy="-489" rx="18" ry="18"/>
<text text-anchor="middle" x="65" y="-485.3" font-family="Times,serif" font-size="14.00">PL27</text>
</g>
<!-- PL27&#45;&gt;transition16 -->
<g id="edge54" class="edge"><title>PL27&#45;&gt;transition16</title>
<path fill="none" stroke="black" d="M58.3258,-505.997C50.3304,-526.643 38,-563.855 38,-597 38,-815 38,-815 38,-815 38,-869.17 88.2801,-921.944 102.998,-936.232"/>
<polygon fill="none" stroke="black" points="102.111,-937.8 106.95,-939.955 104.511,-935.253 102.111,-937.8"/>
</g>
<!-- transition15&#45;&gt;PL27 -->
<g id="edge53" class="edge"><title>transition15&#45;&gt;PL27</title>
<path fill="none" stroke="black" d="M83.9455,-542.848C83.3939,-541.309 78.7474,-528.348 74.1946,-515.648"/>
<polygon fill="black" stroke="black" points="77.47,-514.413 70.8006,-506.181 70.8806,-516.775 77.47,-514.413"/>
</g>
<!-- PL28&#45;&gt;transition17 -->
<g id="edge56" class="edge"><title>PL28&#45;&gt;transition17</title>
<path fill="none" stroke="black" d="M194,-616.049C194,-642.708 194,-695.885 194,-741 194,-941 194,-941 194,-941 194,-981.84 177.444,-1029.34 171.833,-1044.27"/>
<polygon fill="none" stroke="black" points="170.191,-1043.66 170.017,-1048.96 173.455,-1044.93 170.191,-1043.66"/>
</g>
<!-- PL29&#45;&gt;transition18 -->
<g id="edge58" class="edge"><title>PL29&#45;&gt;transition18</title>
<path fill="none" stroke="black" d="M96.589,-652.171C103.953,-604.307 124.768,-469.011 129.174,-440.369"/>
<polygon fill="none" stroke="black" points="130.951,-440.327 129.982,-435.119 127.492,-439.794 130.951,-440.327"/>
</g>
</g>
</svg>
