<?xml version="1.0" encoding="UTF-8" standalone="no"?>
<!DOCTYPE svg PUBLIC "-//W3C//DTD SVG 1.1//EN"
 "http://www.w3.org/Graphics/SVG/1.1/DTD/svg11.dtd">
<!-- Generated by graphviz version 2.38.0 (20140413.2041)
 -->
<!-- Title: %3 Pages: 1 -->
<svg width="338pt" height="1496pt"
 viewBox="0.00 0.00 338.00 1496.00" xmlns="http://www.w3.org/2000/svg" xmlns:xlink="http://www.w3.org/1999/xlink">
<g id="graph0" class="graph" transform="scale(1 1) rotate(0) translate(4 1492)">
<title>%3</title>
<polygon fill="white" stroke="none" points="-4,4 -4,-1492 334,-1492 334,4 -4,4"/>
<!-- PL1 -->
<g id="node1" class="node"><title>PL1</title>
<ellipse fill="none" stroke="black" cx="272" cy="-1470" rx="18" ry="18"/>
<text text-anchor="middle" x="272" y="-1466.3" font-family="Times,serif" font-size="14.00">PL1</text>
</g>
<!-- transition1 -->
<g id="node3" class="node"><title>transition1</title>
<polygon fill="none" stroke="black" points="233,-1416 197,-1416 197,-1415 233,-1415 233,-1416"/>
<text text-anchor="middle" x="186" y="-1419.8" font-family="Times,serif" font-size="14.00">R1&#45;</text>
</g>
<!-- PL1&#45;&gt;transition1 -->
<g id="edge1" class="edge"><title>PL1&#45;&gt;transition1</title>
<path fill="none" stroke="black" d="M259.066,-1456.97C246.083,-1444.9 226.884,-1427.05 218.804,-1419.54"/>
<polygon fill="none" stroke="black" points="219.932,-1418.2 215.079,-1416.07 217.549,-1420.76 219.932,-1418.2"/>
</g>
<!-- PL3 -->
<g id="node2" class="node"><title>PL3</title>
<ellipse fill="none" stroke="black" cx="204" cy="-1361" rx="18" ry="18"/>
<text text-anchor="middle" x="204" y="-1357.3" font-family="Times,serif" font-size="14.00">PL3</text>
</g>
<!-- transition4 -->
<g id="node5" class="node"><title>transition4</title>
<polygon fill="none" stroke="black" points="188,-1307 152,-1307 152,-1306 188,-1306 188,-1307"/>
<text text-anchor="middle" x="141" y="-1310.8" font-family="Times,serif" font-size="14.00">A1&#45;</text>
</g>
<!-- PL3&#45;&gt;transition4 -->
<g id="edge3" class="edge"><title>PL3&#45;&gt;transition4</title>
<path fill="none" stroke="black" d="M194.709,-1345.52C187.395,-1334.12 177.666,-1318.95 172.891,-1311.51"/>
<polygon fill="none" stroke="black" points="174.215,-1310.33 170.042,-1307.07 171.269,-1312.22 174.215,-1310.33"/>
</g>
<!-- transition1&#45;&gt;PL3 -->
<g id="edge2" class="edge"><title>transition1&#45;&gt;PL3</title>
<path fill="none" stroke="black" d="M214.968,-1414.85C214.659,-1413.36 212.128,-1401.16 209.576,-1388.87"/>
<polygon fill="black" stroke="black" points="212.934,-1387.82 207.475,-1378.74 206.08,-1389.24 212.934,-1387.82"/>
</g>
<!-- PL6 -->
<g id="node4" class="node"><title>PL6</title>
<ellipse fill="none" stroke="black" cx="153" cy="-1252" rx="18" ry="18"/>
<text text-anchor="middle" x="153" y="-1248.3" font-family="Times,serif" font-size="14.00">PL6</text>
</g>
<!-- transition7 -->
<g id="node7" class="node"><title>transition7</title>
<polygon fill="none" stroke="black" points="164,-1198 128,-1198 128,-1197 164,-1197 164,-1198"/>
<text text-anchor="middle" x="115" y="-1201.8" font-family="Times,serif" font-size="14.00">A2+</text>
</g>
<!-- PL6&#45;&gt;transition7 -->
<g id="edge5" class="edge"><title>PL6&#45;&gt;transition7</title>
<path fill="none" stroke="black" d="M150.747,-1233.94C149.353,-1223.39 147.655,-1210.53 146.715,-1203.41"/>
<polygon fill="none" stroke="black" points="148.398,-1202.79 146.008,-1198.06 144.928,-1203.25 148.398,-1202.79"/>
</g>
<!-- transition4&#45;&gt;PL6 -->
<g id="edge4" class="edge"><title>transition4&#45;&gt;PL6</title>
<path fill="none" stroke="black" d="M169.951,-1305.85C169.466,-1304.33 165.433,-1291.76 161.423,-1279.26"/>
<polygon fill="black" stroke="black" points="164.667,-1277.91 158.28,-1269.46 158.001,-1280.05 164.667,-1277.91"/>
</g>
<!-- PL4 -->
<g id="node34" class="node"><title>PL4</title>
<ellipse fill="none" stroke="black" cx="221" cy="-1252" rx="18" ry="18"/>
<text text-anchor="middle" x="221" y="-1248.3" font-family="Times,serif" font-size="14.00">PL4</text>
</g>
<!-- transition4&#45;&gt;PL4 -->
<g id="edge37" class="edge"><title>transition4&#45;&gt;PL4</title>
<path fill="none" stroke="black" d="M170.146,-1305.85C171.842,-1304.09 187.958,-1287.34 201.6,-1273.16"/>
<polygon fill="black" stroke="black" points="204.405,-1275.29 208.817,-1265.66 199.361,-1270.44 204.405,-1275.29"/>
</g>
<!-- PL28 -->
<g id="node6" class="node"><title>PL28</title>
<ellipse fill="none" stroke="black" cx="92" cy="-1143" rx="18" ry="18"/>
<text text-anchor="middle" x="92" y="-1139.3" font-family="Times,serif" font-size="14.00">PL28</text>
</g>
<!-- transition20 -->
<g id="node9" class="node"><title>transition20</title>
<polygon fill="none" stroke="black" points="110,-1089 74,-1089 74,-1088 110,-1088 110,-1089"/>
<text text-anchor="middle" x="61" y="-1092.8" font-family="Times,serif" font-size="14.00">X1+</text>
</g>
<!-- PL28&#45;&gt;transition20 -->
<g id="edge7" class="edge"><title>PL28&#45;&gt;transition20</title>
<path fill="none" stroke="black" d="M92,-1124.94C92,-1114.39 92,-1101.53 92,-1094.41"/>
<polygon fill="none" stroke="black" points="93.7501,-1094.06 92,-1089.06 90.2501,-1094.06 93.7501,-1094.06"/>
</g>
<!-- transition7&#45;&gt;PL28 -->
<g id="edge6" class="edge"><title>transition7&#45;&gt;PL28</title>
<path fill="none" stroke="black" d="M145.845,-1196.85C144.012,-1195.05 126.262,-1177.63 111.635,-1163.27"/>
<polygon fill="black" stroke="black" points="113.96,-1160.65 104.372,-1156.14 109.057,-1165.65 113.96,-1160.65"/>
</g>
<!-- PL30 -->
<g id="node49" class="node"><title>PL30</title>
<ellipse fill="none" stroke="black" cx="146" cy="-1143" rx="18" ry="18"/>
<text text-anchor="middle" x="146" y="-1139.3" font-family="Times,serif" font-size="14.00">PL30</text>
</g>
<!-- transition7&#45;&gt;PL30 -->
<g id="edge57" class="edge"><title>transition7&#45;&gt;PL30</title>
<path fill="none" stroke="black" d="M146,-1196.85C146,-1195.37 146,-1183.32 146,-1171.1"/>
<polygon fill="black" stroke="black" points="149.5,-1171.02 146,-1161.02 142.5,-1171.02 149.5,-1171.02"/>
</g>
<!-- PL7 -->
<g id="node52" class="node"><title>PL7</title>
<ellipse fill="none" stroke="black" cx="200" cy="-1143" rx="18" ry="18"/>
<text text-anchor="middle" x="200" y="-1139.3" font-family="Times,serif" font-size="14.00">PL7</text>
</g>
<!-- transition7&#45;&gt;PL7 -->
<g id="edge61" class="edge"><title>transition7&#45;&gt;PL7</title>
<path fill="none" stroke="black" d="M146.155,-1196.85C147.988,-1195.05 165.738,-1177.63 180.365,-1163.27"/>
<polygon fill="black" stroke="black" points="182.943,-1165.65 187.628,-1156.14 178.04,-1160.65 182.943,-1165.65"/>
</g>
<!-- PL29 -->
<g id="node8" class="node"><title>PL29</title>
<ellipse fill="none" stroke="black" cx="92" cy="-1034" rx="18" ry="18"/>
<text text-anchor="middle" x="92" y="-1030.3" font-family="Times,serif" font-size="14.00">PL29</text>
</g>
<!-- transition22 -->
<g id="node11" class="node"><title>transition22</title>
<polygon fill="none" stroke="black" points="164,-962.5 128,-962.5 128,-961.5 164,-961.5 164,-962.5"/>
<text text-anchor="middle" x="117" y="-966.3" font-family="Times,serif" font-size="14.00">A2&#45;</text>
</g>
<!-- PL29&#45;&gt;transition22 -->
<g id="edge9" class="edge"><title>PL29&#45;&gt;transition22</title>
<path fill="none" stroke="black" d="M102.669,-1019.17C115.175,-1002.96 135.168,-977.041 142.852,-967.081"/>
<polygon fill="none" stroke="black" points="144.252,-968.131 145.92,-963.103 141.481,-965.993 144.252,-968.131"/>
</g>
<!-- transition20&#45;&gt;PL29 -->
<g id="edge8" class="edge"><title>transition20&#45;&gt;PL29</title>
<path fill="none" stroke="black" d="M92,-1087.85C92,-1086.37 92,-1074.32 92,-1062.1"/>
<polygon fill="black" stroke="black" points="95.5001,-1062.02 92,-1052.02 88.5001,-1062.02 95.5001,-1062.02"/>
</g>
<!-- PL11 -->
<g id="node10" class="node"><title>PL11</title>
<ellipse fill="none" stroke="black" cx="146" cy="-890" rx="18" ry="18"/>
<text text-anchor="middle" x="146" y="-886.3" font-family="Times,serif" font-size="14.00">PL11</text>
</g>
<!-- transition10 -->
<g id="node13" class="node"><title>transition10</title>
<polygon fill="none" stroke="black" points="164,-836 128,-836 128,-835 164,-835 164,-836"/>
<text text-anchor="middle" x="115" y="-839.8" font-family="Times,serif" font-size="14.00">A3+</text>
</g>
<!-- PL11&#45;&gt;transition10 -->
<g id="edge11" class="edge"><title>PL11&#45;&gt;transition10</title>
<path fill="none" stroke="black" d="M146,-871.939C146,-861.385 146,-848.534 146,-841.412"/>
<polygon fill="none" stroke="black" points="147.75,-841.059 146,-836.059 144.25,-841.059 147.75,-841.059"/>
</g>
<!-- transition22&#45;&gt;PL11 -->
<g id="edge10" class="edge"><title>transition22&#45;&gt;PL11</title>
<path fill="none" stroke="black" d="M146,-960.949C146,-959.748 146,-937.429 146,-918.321"/>
<polygon fill="black" stroke="black" points="149.5,-918.191 146,-908.191 142.5,-918.191 149.5,-918.191"/>
</g>
<!-- PL9 -->
<g id="node46" class="node"><title>PL9</title>
<ellipse fill="none" stroke="black" cx="92" cy="-890" rx="18" ry="18"/>
<text text-anchor="middle" x="92" y="-886.3" font-family="Times,serif" font-size="14.00">PL9</text>
</g>
<!-- transition22&#45;&gt;PL9 -->
<g id="edge53" class="edge"><title>transition22&#45;&gt;PL9</title>
<path fill="none" stroke="black" d="M145.961,-960.949C144.944,-959.631 124.311,-932.884 108.86,-912.856"/>
<polygon fill="black" stroke="black" points="111.508,-910.558 102.628,-904.778 105.965,-914.833 111.508,-910.558"/>
</g>
<!-- PL26 -->
<g id="node12" class="node"><title>PL26</title>
<ellipse fill="none" stroke="black" cx="138" cy="-781" rx="18" ry="18"/>
<text text-anchor="middle" x="138" y="-777.3" font-family="Times,serif" font-size="14.00">PL26</text>
</g>
<!-- transition18 -->
<g id="node15" class="node"><title>transition18</title>
<polygon fill="none" stroke="black" points="156,-727 120,-727 120,-726 156,-726 156,-727"/>
<text text-anchor="middle" x="109" y="-730.8" font-family="Times,serif" font-size="14.00">X1&#45;</text>
</g>
<!-- PL26&#45;&gt;transition18 -->
<g id="edge13" class="edge"><title>PL26&#45;&gt;transition18</title>
<path fill="none" stroke="black" d="M138,-762.939C138,-752.385 138,-739.534 138,-732.412"/>
<polygon fill="none" stroke="black" points="139.75,-732.059 138,-727.059 136.25,-732.059 139.75,-732.059"/>
</g>
<!-- transition10&#45;&gt;PL26 -->
<g id="edge12" class="edge"><title>transition10&#45;&gt;PL26</title>
<path fill="none" stroke="black" d="M145.977,-834.848C145.754,-833.368 143.935,-821.319 142.091,-809.1"/>
<polygon fill="black" stroke="black" points="145.523,-808.39 140.57,-799.025 138.602,-809.435 145.523,-808.39"/>
</g>
<!-- PL12 -->
<g id="node20" class="node"><title>PL12</title>
<ellipse fill="none" stroke="black" cx="192" cy="-781" rx="18" ry="18"/>
<text text-anchor="middle" x="192" y="-777.3" font-family="Times,serif" font-size="14.00">PL12</text>
</g>
<!-- transition10&#45;&gt;PL12 -->
<g id="edge20" class="edge"><title>transition10&#45;&gt;PL12</title>
<path fill="none" stroke="black" d="M146.132,-834.848C147.63,-833.122 161.599,-817.027 173.732,-803.048"/>
<polygon fill="black" stroke="black" points="176.644,-805.033 180.555,-795.186 171.357,-800.444 176.644,-805.033"/>
</g>
<!-- PL24 -->
<g id="node43" class="node"><title>PL24</title>
<ellipse fill="none" stroke="black" cx="246" cy="-781" rx="18" ry="18"/>
<text text-anchor="middle" x="246" y="-777.3" font-family="Times,serif" font-size="14.00">PL24</text>
</g>
<!-- transition10&#45;&gt;PL24 -->
<g id="edge49" class="edge"><title>transition10&#45;&gt;PL24</title>
<path fill="none" stroke="black" d="M146.12,-834.947C148.58,-833.854 188.416,-816.109 219,-799 220.142,-798.361 221.303,-797.695 222.47,-797.013"/>
<polygon fill="black" stroke="black" points="224.588,-799.821 231.313,-791.634 220.95,-793.841 224.588,-799.821"/>
</g>
<!-- PL27 -->
<g id="node14" class="node"><title>PL27</title>
<ellipse fill="none" stroke="black" cx="138" cy="-672" rx="18" ry="18"/>
<text text-anchor="middle" x="138" y="-668.3" font-family="Times,serif" font-size="14.00">PL27</text>
</g>
<!-- transition19 -->
<g id="node17" class="node"><title>transition19</title>
<polygon fill="none" stroke="black" points="210,-618 174,-618 174,-617 210,-617 210,-618"/>
<text text-anchor="middle" x="163" y="-621.8" font-family="Times,serif" font-size="14.00">A3&#45;</text>
</g>
<!-- PL27&#45;&gt;transition19 -->
<g id="edge15" class="edge"><title>PL27&#45;&gt;transition19</title>
<path fill="none" stroke="black" d="M150.524,-658.708C162.598,-646.858 180.153,-629.627 187.977,-621.948"/>
<polygon fill="none" stroke="black" points="189.584,-622.824 191.926,-618.072 187.132,-620.326 189.584,-622.824"/>
</g>
<!-- transition18&#45;&gt;PL27 -->
<g id="edge14" class="edge"><title>transition18&#45;&gt;PL27</title>
<path fill="none" stroke="black" d="M138,-725.848C138,-724.368 138,-712.319 138,-700.1"/>
<polygon fill="black" stroke="black" points="141.5,-700.025 138,-690.025 134.5,-700.025 141.5,-700.025"/>
</g>
<!-- PL14 -->
<g id="node16" class="node"><title>PL14</title>
<ellipse fill="none" stroke="black" cx="138" cy="-563" rx="18" ry="18"/>
<text text-anchor="middle" x="138" y="-559.3" font-family="Times,serif" font-size="14.00">PL14</text>
</g>
<!-- transition9 -->
<g id="node19" class="node"><title>transition9</title>
<polygon fill="none" stroke="black" points="156,-509 120,-509 120,-508 156,-508 156,-509"/>
<text text-anchor="middle" x="107.5" y="-512.8" font-family="Times,serif" font-size="14.00">R3+</text>
</g>
<!-- PL14&#45;&gt;transition9 -->
<g id="edge17" class="edge"><title>PL14&#45;&gt;transition9</title>
<path fill="none" stroke="black" d="M138,-544.939C138,-534.385 138,-521.534 138,-514.412"/>
<polygon fill="none" stroke="black" points="139.75,-514.059 138,-509.059 136.25,-514.059 139.75,-514.059"/>
</g>
<!-- transition19&#45;&gt;PL14 -->
<g id="edge16" class="edge"><title>transition19&#45;&gt;PL14</title>
<path fill="none" stroke="black" d="M191.845,-616.848C190.012,-615.049 172.262,-597.628 157.635,-583.272"/>
<polygon fill="black" stroke="black" points="159.96,-580.649 150.372,-576.143 155.057,-585.645 159.96,-580.649"/>
</g>
<!-- PL16 -->
<g id="node23" class="node"><title>PL16</title>
<ellipse fill="none" stroke="black" cx="192" cy="-563" rx="18" ry="18"/>
<text text-anchor="middle" x="192" y="-559.3" font-family="Times,serif" font-size="14.00">PL16</text>
</g>
<!-- transition19&#45;&gt;PL16 -->
<g id="edge24" class="edge"><title>transition19&#45;&gt;PL16</title>
<path fill="none" stroke="black" d="M192,-616.848C192,-615.368 192,-603.319 192,-591.1"/>
<polygon fill="black" stroke="black" points="195.5,-591.025 192,-581.025 188.5,-591.025 195.5,-591.025"/>
</g>
<!-- PL15 -->
<g id="node18" class="node"><title>PL15</title>
<ellipse fill="none" stroke="black" cx="96" cy="-454" rx="18" ry="18"/>
<text text-anchor="middle" x="96" y="-450.3" font-family="Times,serif" font-size="14.00">PL15</text>
</g>
<!-- PL15&#45;&gt;transition10 -->
<g id="edge19" class="edge"><title>PL15&#45;&gt;transition10</title>
<path fill="none" stroke="black" d="M94.9699,-472.042C93.7847,-493.149 92,-530.212 92,-562 92,-727 92,-727 92,-727 92,-760.095 94.7091,-770.192 111,-799 119.147,-813.407 134.463,-826.247 141.832,-831.919"/>
<polygon fill="none" stroke="black" points="140.87,-833.385 145.931,-834.952 142.952,-830.571 140.87,-833.385"/>
</g>
<!-- transition9&#45;&gt;PL15 -->
<g id="edge18" class="edge"><title>transition9&#45;&gt;PL15</title>
<path fill="none" stroke="black" d="M137.88,-507.848C136.541,-506.159 124.288,-490.697 113.38,-476.931"/>
<polygon fill="black" stroke="black" points="115.825,-474.381 106.871,-468.718 110.338,-478.729 115.825,-474.381"/>
</g>
<!-- transition8 -->
<g id="node22" class="node"><title>transition8</title>
<polygon fill="none" stroke="black" points="210,-727 174,-727 174,-726 210,-726 210,-727"/>
<text text-anchor="middle" x="163" y="-730.8" font-family="Times,serif" font-size="14.00">R3&#45;</text>
</g>
<!-- PL12&#45;&gt;transition8 -->
<g id="edge21" class="edge"><title>PL12&#45;&gt;transition8</title>
<path fill="none" stroke="black" d="M192,-762.939C192,-752.385 192,-739.534 192,-732.412"/>
<polygon fill="none" stroke="black" points="193.75,-732.059 192,-727.059 190.25,-732.059 193.75,-732.059"/>
</g>
<!-- PL13 -->
<g id="node21" class="node"><title>PL13</title>
<ellipse fill="none" stroke="black" cx="192" cy="-672" rx="18" ry="18"/>
<text text-anchor="middle" x="192" y="-668.3" font-family="Times,serif" font-size="14.00">PL13</text>
</g>
<!-- PL13&#45;&gt;transition19 -->
<g id="edge23" class="edge"><title>PL13&#45;&gt;transition19</title>
<path fill="none" stroke="black" d="M192,-653.939C192,-643.385 192,-630.534 192,-623.412"/>
<polygon fill="none" stroke="black" points="193.75,-623.059 192,-618.059 190.25,-623.059 193.75,-623.059"/>
</g>
<!-- transition8&#45;&gt;PL13 -->
<g id="edge22" class="edge"><title>transition8&#45;&gt;PL13</title>
<path fill="none" stroke="black" d="M192,-725.848C192,-724.368 192,-712.319 192,-700.1"/>
<polygon fill="black" stroke="black" points="195.5,-700.025 192,-690.025 188.5,-700.025 195.5,-700.025"/>
</g>
<!-- transition13 -->
<g id="node25" class="node"><title>transition13</title>
<polygon fill="none" stroke="black" points="210,-509 174,-509 174,-508 210,-508 210,-509"/>
<text text-anchor="middle" x="161" y="-512.8" font-family="Times,serif" font-size="14.00">A4+</text>
</g>
<!-- PL16&#45;&gt;transition13 -->
<g id="edge25" class="edge"><title>PL16&#45;&gt;transition13</title>
<path fill="none" stroke="black" d="M192,-544.939C192,-534.385 192,-521.534 192,-514.412"/>
<polygon fill="none" stroke="black" points="193.75,-514.059 192,-509.059 190.25,-514.059 193.75,-514.059"/>
</g>
<!-- PL17 -->
<g id="node24" class="node"><title>PL17</title>
<ellipse fill="none" stroke="black" cx="192" cy="-454" rx="18" ry="18"/>
<text text-anchor="middle" x="192" y="-450.3" font-family="Times,serif" font-size="14.00">PL17</text>
</g>
<!-- transition11 -->
<g id="node27" class="node"><title>transition11</title>
<polygon fill="none" stroke="black" points="210,-400 174,-400 174,-399 210,-399 210,-400"/>
<text text-anchor="middle" x="163" y="-403.8" font-family="Times,serif" font-size="14.00">R4&#45;</text>
</g>
<!-- PL17&#45;&gt;transition11 -->
<g id="edge27" class="edge"><title>PL17&#45;&gt;transition11</title>
<path fill="none" stroke="black" d="M192,-435.939C192,-425.385 192,-412.534 192,-405.412"/>
<polygon fill="none" stroke="black" points="193.75,-405.059 192,-400.059 190.25,-405.059 193.75,-405.059"/>
</g>
<!-- transition13&#45;&gt;PL17 -->
<g id="edge26" class="edge"><title>transition13&#45;&gt;PL17</title>
<path fill="none" stroke="black" d="M192,-507.848C192,-506.368 192,-494.319 192,-482.1"/>
<polygon fill="black" stroke="black" points="195.5,-482.025 192,-472.025 188.5,-482.025 195.5,-482.025"/>
</g>
<!-- PL22 -->
<g id="node40" class="node"><title>PL22</title>
<ellipse fill="none" stroke="black" cx="246" cy="-454" rx="18" ry="18"/>
<text text-anchor="middle" x="246" y="-450.3" font-family="Times,serif" font-size="14.00">PL22</text>
</g>
<!-- transition13&#45;&gt;PL22 -->
<g id="edge45" class="edge"><title>transition13&#45;&gt;PL22</title>
<path fill="none" stroke="black" d="M192.155,-507.848C193.988,-506.049 211.738,-488.628 226.365,-474.272"/>
<polygon fill="black" stroke="black" points="228.943,-476.645 233.628,-467.143 224.04,-471.649 228.943,-476.645"/>
</g>
<!-- PL18 -->
<g id="node26" class="node"><title>PL18</title>
<ellipse fill="none" stroke="black" cx="192" cy="-345" rx="18" ry="18"/>
<text text-anchor="middle" x="192" y="-341.3" font-family="Times,serif" font-size="14.00">PL18</text>
</g>
<!-- transition16 -->
<g id="node29" class="node"><title>transition16</title>
<polygon fill="none" stroke="black" points="237,-291 201,-291 201,-290 237,-290 237,-291"/>
<text text-anchor="middle" x="190" y="-294.8" font-family="Times,serif" font-size="14.00">A4&#45;</text>
</g>
<!-- PL18&#45;&gt;transition16 -->
<g id="edge29" class="edge"><title>PL18&#45;&gt;transition16</title>
<path fill="none" stroke="black" d="M199.81,-328.67C205.483,-317.534 212.796,-303.177 216.545,-295.818"/>
<polygon fill="none" stroke="black" points="218.257,-296.313 218.968,-291.064 215.139,-294.724 218.257,-296.313"/>
</g>
<!-- transition11&#45;&gt;PL18 -->
<g id="edge28" class="edge"><title>transition11&#45;&gt;PL18</title>
<path fill="none" stroke="black" d="M192,-398.848C192,-397.368 192,-385.319 192,-373.1"/>
<polygon fill="black" stroke="black" points="195.5,-373.025 192,-363.025 188.5,-373.025 195.5,-373.025"/>
</g>
<!-- PL21 -->
<g id="node28" class="node"><title>PL21</title>
<ellipse fill="none" stroke="black" cx="246" cy="-236" rx="18" ry="18"/>
<text text-anchor="middle" x="246" y="-232.3" font-family="Times,serif" font-size="14.00">PL21</text>
</g>
<!-- transition14 -->
<g id="node30" class="node"><title>transition14</title>
<polygon fill="none" stroke="black" points="264,-182 228,-182 228,-181 264,-181 264,-182"/>
<text text-anchor="middle" x="215" y="-185.8" font-family="Times,serif" font-size="14.00">A1+</text>
</g>
<!-- PL21&#45;&gt;transition14 -->
<g id="edge31" class="edge"><title>PL21&#45;&gt;transition14</title>
<path fill="none" stroke="black" d="M246,-217.939C246,-207.385 246,-194.534 246,-187.412"/>
<polygon fill="none" stroke="black" points="247.75,-187.059 246,-182.059 244.25,-187.059 247.75,-187.059"/>
</g>
<!-- transition16&#45;&gt;PL21 -->
<g id="edge30" class="edge"><title>transition16&#45;&gt;PL21</title>
<path fill="none" stroke="black" d="M219.077,-289.848C219.884,-288.265 226.85,-274.591 233.494,-261.55"/>
<polygon fill="black" stroke="black" points="236.761,-262.847 238.181,-252.348 230.523,-259.669 236.761,-262.847"/>
</g>
<!-- PL19 -->
<g id="node37" class="node"><title>PL19</title>
<ellipse fill="none" stroke="black" cx="192" cy="-236" rx="18" ry="18"/>
<text text-anchor="middle" x="192" y="-232.3" font-family="Times,serif" font-size="14.00">PL19</text>
</g>
<!-- transition16&#45;&gt;PL19 -->
<g id="edge41" class="edge"><title>transition16&#45;&gt;PL19</title>
<path fill="none" stroke="black" d="M218.923,-289.848C218.116,-288.265 211.15,-274.591 204.506,-261.55"/>
<polygon fill="black" stroke="black" points="207.477,-259.669 199.819,-252.348 201.239,-262.847 207.477,-259.669"/>
</g>
<!-- transition14&#45;&gt;PL1 -->
<g id="edge32" class="edge"><title>transition14&#45;&gt;PL1</title>
<path fill="none" stroke="black" d="M246.089,-182.045C247.919,-182.975 277.447,-198.166 294,-218 316.924,-245.468 330,-254.223 330,-290 330,-1362 330,-1362 330,-1362 330,-1395.43 307.85,-1428.4 290.926,-1448.72"/>
<polygon fill="black" stroke="black" points="288.205,-1446.52 284.3,-1456.36 293.495,-1451.1 288.205,-1446.52"/>
</g>
<!-- PL2 -->
<g id="node31" class="node"><title>PL2</title>
<ellipse fill="none" stroke="black" cx="234" cy="-127" rx="18" ry="18"/>
<text text-anchor="middle" x="234" y="-123.3" font-family="Times,serif" font-size="14.00">PL2</text>
</g>
<!-- transition14&#45;&gt;PL2 -->
<g id="edge33" class="edge"><title>transition14&#45;&gt;PL2</title>
<path fill="none" stroke="black" d="M245.966,-180.848C245.625,-179.344 242.812,-166.919 239.999,-154.496"/>
<polygon fill="black" stroke="black" points="243.413,-153.722 237.791,-144.742 236.585,-155.268 243.413,-153.722"/>
</g>
<!-- transition3 -->
<g id="node33" class="node"><title>transition3</title>
<polygon fill="none" stroke="black" points="158,-73 122,-73 122,-72 158,-72 158,-73"/>
<text text-anchor="middle" x="109" y="-76.8" font-family="Times,serif" font-size="14.00">X0+</text>
</g>
<!-- PL2&#45;&gt;transition3 -->
<g id="edge34" class="edge"><title>PL2&#45;&gt;transition3</title>
<path fill="none" stroke="black" d="M218.478,-117.248C196.655,-104.944 158.075,-83.1913 144.712,-75.6569"/>
<polygon fill="none" stroke="black" points="145.364,-74.0156 140.149,-73.0842 143.645,-77.0644 145.364,-74.0156"/>
</g>
<!-- PL32 -->
<g id="node32" class="node"><title>PL32</title>
<ellipse fill="none" stroke="black" cx="70" cy="-18" rx="18" ry="18"/>
<text text-anchor="middle" x="70" y="-14.3" font-family="Times,serif" font-size="14.00">PL32</text>
</g>
<!-- PL32&#45;&gt;transition4 -->
<g id="edge36" class="edge"><title>PL32&#45;&gt;transition4</title>
<path fill="none" stroke="black" d="M56.5033,-29.9379C36.1621,-47.7482 0,-85.1548 0,-126 0,-1198 0,-1198 0,-1198 0,-1278.2 136.459,-1301.38 164.86,-1305.34"/>
<polygon fill="none" stroke="black" points="164.694,-1307.08 169.877,-1305.99 165.141,-1303.61 164.694,-1307.08"/>
</g>
<!-- transition3&#45;&gt;PL32 -->
<g id="edge35" class="edge"><title>transition3&#45;&gt;PL32</title>
<path fill="none" stroke="black" d="M139.949,-71.9616C138.638,-70.9687 112.177,-50.9343 92.1867,-35.7985"/>
<polygon fill="black" stroke="black" points="94.193,-32.9275 84.1076,-29.6815 89.9675,-38.5083 94.193,-32.9275"/>
</g>
<!-- transition2 -->
<g id="node36" class="node"><title>transition2</title>
<polygon fill="none" stroke="black" points="246,-1198 210,-1198 210,-1197 246,-1197 246,-1198"/>
<text text-anchor="middle" x="197.5" y="-1201.8" font-family="Times,serif" font-size="14.00">R1+</text>
</g>
<!-- PL4&#45;&gt;transition2 -->
<g id="edge38" class="edge"><title>PL4&#45;&gt;transition2</title>
<path fill="none" stroke="black" d="M223.253,-1233.94C224.647,-1223.39 226.345,-1210.53 227.285,-1203.41"/>
<polygon fill="none" stroke="black" points="229.072,-1203.25 227.992,-1198.06 225.602,-1202.79 229.072,-1203.25"/>
</g>
<!-- PL5 -->
<g id="node35" class="node"><title>PL5</title>
<ellipse fill="none" stroke="black" cx="265" cy="-962" rx="18" ry="18"/>
<text text-anchor="middle" x="265" y="-958.3" font-family="Times,serif" font-size="14.00">PL5</text>
</g>
<!-- PL5&#45;&gt;transition14 -->
<g id="edge40" class="edge"><title>PL5&#45;&gt;transition14</title>
<path fill="none" stroke="black" d="M270.859,-944.663C278.8,-921.02 292,-875.741 292,-836 292,-836 292,-836 292,-290 292,-256.905 287.418,-247.79 273,-218 266.67,-204.92 255.285,-191.843 249.532,-185.669"/>
<polygon fill="none" stroke="black" points="250.78,-184.442 246.053,-182.052 248.258,-186.869 250.78,-184.442"/>
</g>
<!-- transition2&#45;&gt;PL5 -->
<g id="edge39" class="edge"><title>transition2&#45;&gt;PL5</title>
<path fill="none" stroke="black" d="M228.007,-1196.96C228.454,-1194.13 251.095,-1050.94 260.732,-989.995"/>
<polygon fill="black" stroke="black" points="264.214,-990.379 262.319,-979.955 257.3,-989.286 264.214,-990.379"/>
</g>
<!-- transition12 -->
<g id="node39" class="node"><title>transition12</title>
<polygon fill="none" stroke="black" points="210,-182 174,-182 174,-181 210,-181 210,-182"/>
<text text-anchor="middle" x="161.5" y="-185.8" font-family="Times,serif" font-size="14.00">R4+</text>
</g>
<!-- PL19&#45;&gt;transition12 -->
<g id="edge42" class="edge"><title>PL19&#45;&gt;transition12</title>
<path fill="none" stroke="black" d="M192,-217.939C192,-207.385 192,-194.534 192,-187.412"/>
<polygon fill="none" stroke="black" points="193.75,-187.059 192,-182.059 190.25,-187.059 193.75,-187.059"/>
</g>
<!-- PL20 -->
<g id="node38" class="node"><title>PL20</title>
<ellipse fill="none" stroke="black" cx="169" cy="-127" rx="18" ry="18"/>
<text text-anchor="middle" x="169" y="-123.3" font-family="Times,serif" font-size="14.00">PL20</text>
</g>
<!-- PL20&#45;&gt;transition13 -->
<g id="edge44" class="edge"><title>PL20&#45;&gt;transition13</title>
<path fill="none" stroke="black" d="M163.315,-144.083C156.504,-164.82 146,-202.129 146,-235 146,-400 146,-400 146,-400 146,-433.095 150.582,-442.21 165,-472 171.33,-485.08 182.715,-498.157 188.468,-504.331"/>
<polygon fill="none" stroke="black" points="187.22,-505.558 191.947,-507.948 189.742,-503.131 187.22,-505.558"/>
</g>
<!-- transition12&#45;&gt;PL20 -->
<g id="edge43" class="edge"><title>transition12&#45;&gt;PL20</title>
<path fill="none" stroke="black" d="M191.934,-180.848C191.262,-179.3 185.571,-166.185 180.026,-153.409"/>
<polygon fill="black" stroke="black" points="183.092,-151.682 175.901,-143.902 176.671,-154.469 183.092,-151.682"/>
</g>
<!-- transition15 -->
<g id="node42" class="node"><title>transition15</title>
<polygon fill="none" stroke="black" points="264,-400 228,-400 228,-399 264,-399 264,-400"/>
<text text-anchor="middle" x="217" y="-403.8" font-family="Times,serif" font-size="14.00">X2&#45;</text>
</g>
<!-- PL22&#45;&gt;transition15 -->
<g id="edge46" class="edge"><title>PL22&#45;&gt;transition15</title>
<path fill="none" stroke="black" d="M246,-435.939C246,-425.385 246,-412.534 246,-405.412"/>
<polygon fill="none" stroke="black" points="247.75,-405.059 246,-400.059 244.25,-405.059 247.75,-405.059"/>
</g>
<!-- PL23 -->
<g id="node41" class="node"><title>PL23</title>
<ellipse fill="none" stroke="black" cx="246" cy="-345" rx="18" ry="18"/>
<text text-anchor="middle" x="246" y="-341.3" font-family="Times,serif" font-size="14.00">PL23</text>
</g>
<!-- PL23&#45;&gt;transition16 -->
<g id="edge48" class="edge"><title>PL23&#45;&gt;transition16</title>
<path fill="none" stroke="black" d="M238.19,-328.67C232.517,-317.534 225.204,-303.177 221.455,-295.818"/>
<polygon fill="none" stroke="black" points="222.861,-294.724 219.032,-291.064 219.743,-296.313 222.861,-294.724"/>
</g>
<!-- transition15&#45;&gt;PL23 -->
<g id="edge47" class="edge"><title>transition15&#45;&gt;PL23</title>
<path fill="none" stroke="black" d="M246,-398.848C246,-397.368 246,-385.319 246,-373.1"/>
<polygon fill="black" stroke="black" points="249.5,-373.025 246,-363.025 242.5,-373.025 249.5,-373.025"/>
</g>
<!-- transition17 -->
<g id="node45" class="node"><title>transition17</title>
<polygon fill="none" stroke="black" points="264,-727 228,-727 228,-726 264,-726 264,-727"/>
<text text-anchor="middle" x="215" y="-730.8" font-family="Times,serif" font-size="14.00">X2+</text>
</g>
<!-- PL24&#45;&gt;transition17 -->
<g id="edge50" class="edge"><title>PL24&#45;&gt;transition17</title>
<path fill="none" stroke="black" d="M246,-762.939C246,-752.385 246,-739.534 246,-732.412"/>
<polygon fill="none" stroke="black" points="247.75,-732.059 246,-727.059 244.25,-732.059 247.75,-732.059"/>
</g>
<!-- PL25 -->
<g id="node44" class="node"><title>PL25</title>
<ellipse fill="none" stroke="black" cx="246" cy="-672" rx="18" ry="18"/>
<text text-anchor="middle" x="246" y="-668.3" font-family="Times,serif" font-size="14.00">PL25</text>
</g>
<!-- PL25&#45;&gt;transition19 -->
<g id="edge52" class="edge"><title>PL25&#45;&gt;transition19</title>
<path fill="none" stroke="black" d="M233.476,-658.708C221.402,-646.858 203.847,-629.627 196.023,-621.948"/>
<polygon fill="none" stroke="black" points="196.868,-620.326 192.074,-618.072 194.416,-622.824 196.868,-620.326"/>
</g>
<!-- transition17&#45;&gt;PL25 -->
<g id="edge51" class="edge"><title>transition17&#45;&gt;PL25</title>
<path fill="none" stroke="black" d="M246,-725.848C246,-724.368 246,-712.319 246,-700.1"/>
<polygon fill="black" stroke="black" points="249.5,-700.025 246,-690.025 242.5,-700.025 249.5,-700.025"/>
</g>
<!-- transition6 -->
<g id="node48" class="node"><title>transition6</title>
<polygon fill="none" stroke="black" points="110,-836 74,-836 74,-835 110,-835 110,-836"/>
<text text-anchor="middle" x="61.5" y="-839.8" font-family="Times,serif" font-size="14.00">R2+</text>
</g>
<!-- PL9&#45;&gt;transition6 -->
<g id="edge54" class="edge"><title>PL9&#45;&gt;transition6</title>
<path fill="none" stroke="black" d="M92,-871.939C92,-861.385 92,-848.534 92,-841.412"/>
<polygon fill="none" stroke="black" points="93.7501,-841.059 92,-836.059 90.2501,-841.059 93.7501,-841.059"/>
</g>
<!-- PL10 -->
<g id="node47" class="node"><title>PL10</title>
<ellipse fill="none" stroke="black" cx="46" cy="-781" rx="18" ry="18"/>
<text text-anchor="middle" x="46" y="-777.3" font-family="Times,serif" font-size="14.00">PL10</text>
</g>
<!-- PL10&#45;&gt;transition7 -->
<g id="edge56" class="edge"><title>PL10&#45;&gt;transition7</title>
<path fill="none" stroke="black" d="M46,-799.049C46,-820.164 46,-857.234 46,-889 46,-1089 46,-1089 46,-1089 46,-1122.1 43.5457,-1135.8 65,-1161 85.6813,-1185.29 125.986,-1193.85 140.569,-1196.22"/>
<polygon fill="none" stroke="black" points="140.642,-1198 145.84,-1196.98 141.14,-1194.54 140.642,-1198"/>
</g>
<!-- transition6&#45;&gt;PL10 -->
<g id="edge55" class="edge"><title>transition6&#45;&gt;PL10</title>
<path fill="none" stroke="black" d="M91.868,-834.848C90.3703,-833.122 76.401,-817.027 64.268,-803.048"/>
<polygon fill="black" stroke="black" points="66.6427,-800.444 57.4447,-795.186 61.3562,-805.033 66.6427,-800.444"/>
</g>
<!-- transition21 -->
<g id="node51" class="node"><title>transition21</title>
<polygon fill="none" stroke="black" points="164,-1089 128,-1089 128,-1088 164,-1088 164,-1089"/>
<text text-anchor="middle" x="117" y="-1092.8" font-family="Times,serif" font-size="14.00">X0&#45;</text>
</g>
<!-- PL30&#45;&gt;transition21 -->
<g id="edge58" class="edge"><title>PL30&#45;&gt;transition21</title>
<path fill="none" stroke="black" d="M146,-1124.94C146,-1114.39 146,-1101.53 146,-1094.41"/>
<polygon fill="none" stroke="black" points="147.75,-1094.06 146,-1089.06 144.25,-1094.06 147.75,-1094.06"/>
</g>
<!-- PL31 -->
<g id="node50" class="node"><title>PL31</title>
<ellipse fill="none" stroke="black" cx="146" cy="-1034" rx="18" ry="18"/>
<text text-anchor="middle" x="146" y="-1030.3" font-family="Times,serif" font-size="14.00">PL31</text>
</g>
<!-- PL31&#45;&gt;transition22 -->
<g id="edge60" class="edge"><title>PL31&#45;&gt;transition22</title>
<path fill="none" stroke="black" d="M146,-1015.7C146,-1000.17 146,-978.324 146,-968.348"/>
<polygon fill="none" stroke="black" points="147.75,-968.092 146,-963.092 144.25,-968.092 147.75,-968.092"/>
</g>
<!-- transition21&#45;&gt;PL31 -->
<g id="edge59" class="edge"><title>transition21&#45;&gt;PL31</title>
<path fill="none" stroke="black" d="M146,-1087.85C146,-1086.37 146,-1074.32 146,-1062.1"/>
<polygon fill="black" stroke="black" points="149.5,-1062.02 146,-1052.02 142.5,-1062.02 149.5,-1062.02"/>
</g>
<!-- transition5 -->
<g id="node54" class="node"><title>transition5</title>
<polygon fill="none" stroke="black" points="218,-1089 182,-1089 182,-1088 218,-1088 218,-1089"/>
<text text-anchor="middle" x="171" y="-1092.8" font-family="Times,serif" font-size="14.00">R2&#45;</text>
</g>
<!-- PL7&#45;&gt;transition5 -->
<g id="edge62" class="edge"><title>PL7&#45;&gt;transition5</title>
<path fill="none" stroke="black" d="M200,-1124.94C200,-1114.39 200,-1101.53 200,-1094.41"/>
<polygon fill="none" stroke="black" points="201.75,-1094.06 200,-1089.06 198.25,-1094.06 201.75,-1094.06"/>
</g>
<!-- PL8 -->
<g id="node53" class="node"><title>PL8</title>
<ellipse fill="none" stroke="black" cx="200" cy="-1034" rx="18" ry="18"/>
<text text-anchor="middle" x="200" y="-1030.3" font-family="Times,serif" font-size="14.00">PL8</text>
</g>
<!-- PL8&#45;&gt;transition22 -->
<g id="edge64" class="edge"><title>PL8&#45;&gt;transition22</title>
<path fill="none" stroke="black" d="M189.331,-1019.17C176.825,-1002.96 156.832,-977.041 149.148,-967.081"/>
<polygon fill="none" stroke="black" points="150.519,-965.993 146.08,-963.103 147.748,-968.131 150.519,-965.993"/>
</g>
<!-- transition5&#45;&gt;PL8 -->
<g id="edge63" class="edge"><title>transition5&#45;&gt;PL8</title>
<path fill="none" stroke="black" d="M200,-1087.85C200,-1086.37 200,-1074.32 200,-1062.1"/>
<polygon fill="black" stroke="black" points="203.5,-1062.02 200,-1052.02 196.5,-1062.02 203.5,-1062.02"/>
</g>
</g>
</svg>
