<?xml version="1.0" encoding="UTF-8" standalone="no"?>
<!DOCTYPE svg PUBLIC "-//W3C//DTD SVG 1.1//EN"
 "http://www.w3.org/Graphics/SVG/1.1/DTD/svg11.dtd">
<!-- Generated by graphviz version 2.38.0 (20140413.2041)
 -->
<!-- Title: %3 Pages: 1 -->
<svg width="346pt" height="1496pt"
 viewBox="0.00 0.00 346.00 1496.00" xmlns="http://www.w3.org/2000/svg" xmlns:xlink="http://www.w3.org/1999/xlink">
<g id="graph0" class="graph" transform="scale(1 1) rotate(0) translate(4 1492)">
<title>%3</title>
<polygon fill="white" stroke="none" points="-4,4 -4,-1492 342,-1492 342,4 -4,4"/>
<!-- PL1 -->
<g id="node1" class="node"><title>PL1</title>
<ellipse fill="none" stroke="black" cx="297" cy="-1470" rx="18" ry="18"/>
<text text-anchor="middle" x="297" y="-1466.3" font-family="Times,serif" font-size="14.00">PL1</text>
</g>
<!-- transition1 -->
<g id="node3" class="node"><title>transition1</title>
<polygon fill="none" stroke="black" points="274,-1416 238,-1416 238,-1415 274,-1415 274,-1416"/>
<text text-anchor="middle" x="227" y="-1419.8" font-family="Times,serif" font-size="14.00">R1&#45;</text>
</g>
<!-- PL1&#45;&gt;transition1 -->
<g id="edge1" class="edge"><title>PL1&#45;&gt;transition1</title>
<path fill="none" stroke="black" d="M286.441,-1455.35C277.431,-1443.7 265.04,-1427.69 259.24,-1420.19"/>
<polygon fill="none" stroke="black" points="260.496,-1418.95 256.053,-1416.07 257.728,-1421.09 260.496,-1418.95"/>
</g>
<!-- PL2 -->
<g id="node2" class="node"><title>PL2</title>
<ellipse fill="none" stroke="black" cx="246" cy="-1361" rx="18" ry="18"/>
<text text-anchor="middle" x="246" y="-1357.3" font-family="Times,serif" font-size="14.00">PL2</text>
</g>
<!-- transition4 -->
<g id="node5" class="node"><title>transition4</title>
<polygon fill="none" stroke="black" points="246,-1307 210,-1307 210,-1306 246,-1306 246,-1307"/>
<text text-anchor="middle" x="199" y="-1310.8" font-family="Times,serif" font-size="14.00">A1&#45;</text>
</g>
<!-- PL2&#45;&gt;transition4 -->
<g id="edge3" class="edge"><title>PL2&#45;&gt;transition4</title>
<path fill="none" stroke="black" d="M240.502,-1343.81C236.816,-1332.96 232.202,-1319.37 229.739,-1312.12"/>
<polygon fill="none" stroke="black" points="231.286,-1311.23 228.021,-1307.06 227.972,-1312.36 231.286,-1311.23"/>
</g>
<!-- transition1&#45;&gt;PL2 -->
<g id="edge2" class="edge"><title>transition1&#45;&gt;PL2</title>
<path fill="none" stroke="black" d="M255.971,-1414.85C255.69,-1413.36 253.39,-1401.16 251.069,-1388.87"/>
<polygon fill="black" stroke="black" points="254.452,-1387.92 249.159,-1378.74 247.574,-1389.22 254.452,-1387.92"/>
</g>
<!-- PL3 -->
<g id="node4" class="node"><title>PL3</title>
<ellipse fill="none" stroke="black" cx="282" cy="-1252" rx="18" ry="18"/>
<text text-anchor="middle" x="282" y="-1248.3" font-family="Times,serif" font-size="14.00">PL3</text>
</g>
<!-- transition2 -->
<g id="node7" class="node"><title>transition2</title>
<polygon fill="none" stroke="black" points="303,-1198 267,-1198 267,-1197 303,-1197 303,-1198"/>
<text text-anchor="middle" x="254.5" y="-1201.8" font-family="Times,serif" font-size="14.00">R1+</text>
</g>
<!-- PL3&#45;&gt;transition2 -->
<g id="edge5" class="edge"><title>PL3&#45;&gt;transition2</title>
<path fill="none" stroke="black" d="M282.966,-1233.94C283.563,-1223.39 284.291,-1210.53 284.694,-1203.41"/>
<polygon fill="none" stroke="black" points="286.461,-1203.15 284.997,-1198.06 282.967,-1202.95 286.461,-1203.15"/>
</g>
<!-- transition4&#45;&gt;PL3 -->
<g id="edge4" class="edge"><title>transition4&#45;&gt;PL3</title>
<path fill="none" stroke="black" d="M228.155,-1305.85C229.988,-1304.05 247.738,-1286.63 262.365,-1272.27"/>
<polygon fill="black" stroke="black" points="264.943,-1274.65 269.628,-1265.14 260.04,-1269.65 264.943,-1274.65"/>
</g>
<!-- PL5 -->
<g id="node12" class="node"><title>PL5</title>
<ellipse fill="none" stroke="black" cx="219" cy="-1252" rx="18" ry="18"/>
<text text-anchor="middle" x="219" y="-1248.3" font-family="Times,serif" font-size="14.00">PL5</text>
</g>
<!-- transition4&#45;&gt;PL5 -->
<g id="edge13" class="edge"><title>transition4&#45;&gt;PL5</title>
<path fill="none" stroke="black" d="M227.974,-1305.85C227.723,-1304.37 225.677,-1292.32 223.602,-1280.1"/>
<polygon fill="black" stroke="black" points="227.016,-1279.3 221.891,-1270.02 220.115,-1280.47 227.016,-1279.3"/>
</g>
<!-- PL4 -->
<g id="node6" class="node"><title>PL4</title>
<ellipse fill="none" stroke="black" cx="292" cy="-962" rx="18" ry="18"/>
<text text-anchor="middle" x="292" y="-958.3" font-family="Times,serif" font-size="14.00">PL4</text>
</g>
<!-- transition14 -->
<g id="node8" class="node"><title>transition14</title>
<polygon fill="none" stroke="black" points="263,-182 227,-182 227,-181 263,-181 263,-182"/>
<text text-anchor="middle" x="214" y="-185.8" font-family="Times,serif" font-size="14.00">A1+</text>
</g>
<!-- PL4&#45;&gt;transition14 -->
<g id="edge7" class="edge"><title>PL4&#45;&gt;transition14</title>
<path fill="none" stroke="black" d="M292,-943.609C292,-919.462 292,-874.411 292,-836 292,-836 292,-836 292,-290 292,-246.419 259.425,-200.548 248.513,-186.406"/>
<polygon fill="none" stroke="black" points="249.618,-184.984 245.135,-182.161 246.879,-187.163 249.618,-184.984"/>
</g>
<!-- transition2&#45;&gt;PL4 -->
<g id="edge6" class="edge"><title>transition2&#45;&gt;PL4</title>
<path fill="none" stroke="black" d="M285.001,-1196.96C285.086,-1194.13 289.349,-1051.61 291.18,-990.424"/>
<polygon fill="black" stroke="black" points="294.681,-990.432 291.482,-980.331 287.684,-990.222 294.681,-990.432"/>
</g>
<!-- transition14&#45;&gt;PL1 -->
<g id="edge8" class="edge"><title>transition14&#45;&gt;PL1</title>
<path fill="none" stroke="black" d="M245.067,-182.033C247.884,-183.4 338,-227.646 338,-290 338,-1362 338,-1362 338,-1362 338,-1392.36 323.427,-1424.55 311.657,-1445.6"/>
<polygon fill="black" stroke="black" points="308.517,-1444.04 306.509,-1454.44 314.566,-1447.56 308.517,-1444.04"/>
</g>
<!-- PL31 -->
<g id="node9" class="node"><title>PL31</title>
<ellipse fill="none" stroke="black" cx="186" cy="-127" rx="18" ry="18"/>
<text text-anchor="middle" x="186" y="-123.3" font-family="Times,serif" font-size="14.00">PL31</text>
</g>
<!-- transition14&#45;&gt;PL31 -->
<g id="edge9" class="edge"><title>transition14&#45;&gt;PL31</title>
<path fill="none" stroke="black" d="M244.831,-180.848C242.786,-179.011 222.622,-160.897 206.462,-146.381"/>
<polygon fill="black" stroke="black" points="208.726,-143.71 198.948,-139.631 204.048,-148.918 208.726,-143.71"/>
</g>
<!-- transition3 -->
<g id="node11" class="node"><title>transition3</title>
<polygon fill="none" stroke="black" points="134,-73 98,-73 98,-72 134,-72 134,-73"/>
<text text-anchor="middle" x="85" y="-76.8" font-family="Times,serif" font-size="14.00">X0+</text>
</g>
<!-- PL31&#45;&gt;transition3 -->
<g id="edge10" class="edge"><title>PL31&#45;&gt;transition3</title>
<path fill="none" stroke="black" d="M171.834,-115.275C155.735,-103.085 130.388,-83.8936 120.325,-76.2748"/>
<polygon fill="none" stroke="black" points="121.145,-74.7003 116.102,-73.0773 119.032,-77.4908 121.145,-74.7003"/>
</g>
<!-- PL32 -->
<g id="node10" class="node"><title>PL32</title>
<ellipse fill="none" stroke="black" cx="58" cy="-18" rx="18" ry="18"/>
<text text-anchor="middle" x="58" y="-14.3" font-family="Times,serif" font-size="14.00">PL32</text>
</g>
<!-- PL32&#45;&gt;transition4 -->
<g id="edge12" class="edge"><title>PL32&#45;&gt;transition4</title>
<path fill="none" stroke="black" d="M45.6997,-31.6356C28.6743,-50.5182 0,-87.966 0,-126 0,-1198 0,-1198 0,-1198 0,-1294.38 168.468,-1304.87 215.777,-1305.91"/>
<polygon fill="none" stroke="black" points="215.898,-1307.66 220.926,-1306 215.956,-1304.16 215.898,-1307.66"/>
</g>
<!-- transition3&#45;&gt;PL32 -->
<g id="edge11" class="edge"><title>transition3&#45;&gt;PL32</title>
<path fill="none" stroke="black" d="M115.834,-71.848C113.853,-70.0383 94.5806,-52.4271 78.8192,-38.0245"/>
<polygon fill="black" stroke="black" points="80.7504,-35.048 71.0073,-30.886 76.0284,-40.2155 80.7504,-35.048"/>
</g>
<!-- transition7 -->
<g id="node14" class="node"><title>transition7</title>
<polygon fill="none" stroke="black" points="218,-1198 182,-1198 182,-1197 218,-1197 218,-1198"/>
<text text-anchor="middle" x="169" y="-1201.8" font-family="Times,serif" font-size="14.00">A2+</text>
</g>
<!-- PL5&#45;&gt;transition7 -->
<g id="edge14" class="edge"><title>PL5&#45;&gt;transition7</title>
<path fill="none" stroke="black" d="M213.196,-1234.81C209.306,-1223.96 204.435,-1210.37 201.836,-1203.12"/>
<polygon fill="none" stroke="black" points="203.357,-1202.18 200.022,-1198.06 200.062,-1203.36 203.357,-1202.18"/>
</g>
<!-- PL6 -->
<g id="node13" class="node"><title>PL6</title>
<ellipse fill="none" stroke="black" cx="146" cy="-1143" rx="18" ry="18"/>
<text text-anchor="middle" x="146" y="-1139.3" font-family="Times,serif" font-size="14.00">PL6</text>
</g>
<!-- transition5 -->
<g id="node16" class="node"><title>transition5</title>
<polygon fill="none" stroke="black" points="164,-1089 128,-1089 128,-1088 164,-1088 164,-1089"/>
<text text-anchor="middle" x="117" y="-1092.8" font-family="Times,serif" font-size="14.00">R2&#45;</text>
</g>
<!-- PL6&#45;&gt;transition5 -->
<g id="edge16" class="edge"><title>PL6&#45;&gt;transition5</title>
<path fill="none" stroke="black" d="M146,-1124.94C146,-1114.39 146,-1101.53 146,-1094.41"/>
<polygon fill="none" stroke="black" points="147.75,-1094.06 146,-1089.06 144.25,-1094.06 147.75,-1094.06"/>
</g>
<!-- transition7&#45;&gt;PL6 -->
<g id="edge15" class="edge"><title>transition7&#45;&gt;PL6</title>
<path fill="none" stroke="black" d="M199.845,-1196.85C198.012,-1195.05 180.262,-1177.63 165.635,-1163.27"/>
<polygon fill="black" stroke="black" points="167.96,-1160.65 158.372,-1156.14 163.057,-1165.65 167.96,-1160.65"/>
</g>
<!-- PL27 -->
<g id="node21" class="node"><title>PL27</title>
<ellipse fill="none" stroke="black" cx="200" cy="-1143" rx="18" ry="18"/>
<text text-anchor="middle" x="200" y="-1139.3" font-family="Times,serif" font-size="14.00">PL27</text>
</g>
<!-- transition7&#45;&gt;PL27 -->
<g id="edge23" class="edge"><title>transition7&#45;&gt;PL27</title>
<path fill="none" stroke="black" d="M200,-1196.85C200,-1195.37 200,-1183.32 200,-1171.1"/>
<polygon fill="black" stroke="black" points="203.5,-1171.02 200,-1161.02 196.5,-1171.02 203.5,-1171.02"/>
</g>
<!-- PL29 -->
<g id="node52" class="node"><title>PL29</title>
<ellipse fill="none" stroke="black" cx="92" cy="-1143" rx="18" ry="18"/>
<text text-anchor="middle" x="92" y="-1139.3" font-family="Times,serif" font-size="14.00">PL29</text>
</g>
<!-- transition7&#45;&gt;PL29 -->
<g id="edge61" class="edge"><title>transition7&#45;&gt;PL29</title>
<path fill="none" stroke="black" d="M199.866,-1196.95C197.121,-1195.91 152.672,-1178.96 119,-1161 117.845,-1160.38 116.674,-1159.74 115.499,-1159.07"/>
<polygon fill="black" stroke="black" points="117.002,-1155.89 106.627,-1153.74 113.4,-1161.89 117.002,-1155.89"/>
</g>
<!-- PL7 -->
<g id="node15" class="node"><title>PL7</title>
<ellipse fill="none" stroke="black" cx="146" cy="-1034" rx="18" ry="18"/>
<text text-anchor="middle" x="146" y="-1030.3" font-family="Times,serif" font-size="14.00">PL7</text>
</g>
<!-- transition22 -->
<g id="node18" class="node"><title>transition22</title>
<polygon fill="none" stroke="black" points="164,-962.5 128,-962.5 128,-961.5 164,-961.5 164,-962.5"/>
<text text-anchor="middle" x="117" y="-966.3" font-family="Times,serif" font-size="14.00">A2&#45;</text>
</g>
<!-- PL7&#45;&gt;transition22 -->
<g id="edge18" class="edge"><title>PL7&#45;&gt;transition22</title>
<path fill="none" stroke="black" d="M146,-1015.7C146,-1000.17 146,-978.324 146,-968.348"/>
<polygon fill="none" stroke="black" points="147.75,-968.092 146,-963.092 144.25,-968.092 147.75,-968.092"/>
</g>
<!-- transition5&#45;&gt;PL7 -->
<g id="edge17" class="edge"><title>transition5&#45;&gt;PL7</title>
<path fill="none" stroke="black" d="M146,-1087.85C146,-1086.37 146,-1074.32 146,-1062.1"/>
<polygon fill="black" stroke="black" points="149.5,-1062.02 146,-1052.02 142.5,-1062.02 149.5,-1062.02"/>
</g>
<!-- PL8 -->
<g id="node17" class="node"><title>PL8</title>
<ellipse fill="none" stroke="black" cx="200" cy="-890" rx="18" ry="18"/>
<text text-anchor="middle" x="200" y="-886.3" font-family="Times,serif" font-size="14.00">PL8</text>
</g>
<!-- transition6 -->
<g id="node20" class="node"><title>transition6</title>
<polygon fill="none" stroke="black" points="218,-836 182,-836 182,-835 218,-835 218,-836"/>
<text text-anchor="middle" x="169.5" y="-839.8" font-family="Times,serif" font-size="14.00">R2+</text>
</g>
<!-- PL8&#45;&gt;transition6 -->
<g id="edge20" class="edge"><title>PL8&#45;&gt;transition6</title>
<path fill="none" stroke="black" d="M200,-871.939C200,-861.385 200,-848.534 200,-841.412"/>
<polygon fill="none" stroke="black" points="201.75,-841.059 200,-836.059 198.25,-841.059 201.75,-841.059"/>
</g>
<!-- transition22&#45;&gt;PL8 -->
<g id="edge19" class="edge"><title>transition22&#45;&gt;PL8</title>
<path fill="none" stroke="black" d="M146.039,-960.949C147.056,-959.631 167.689,-932.884 183.14,-912.856"/>
<polygon fill="black" stroke="black" points="186.035,-914.833 189.372,-904.778 180.492,-910.558 186.035,-914.833"/>
</g>
<!-- PL10 -->
<g id="node24" class="node"><title>PL10</title>
<ellipse fill="none" stroke="black" cx="146" cy="-890" rx="18" ry="18"/>
<text text-anchor="middle" x="146" y="-886.3" font-family="Times,serif" font-size="14.00">PL10</text>
</g>
<!-- transition22&#45;&gt;PL10 -->
<g id="edge27" class="edge"><title>transition22&#45;&gt;PL10</title>
<path fill="none" stroke="black" d="M146,-960.949C146,-959.748 146,-937.429 146,-918.321"/>
<polygon fill="black" stroke="black" points="149.5,-918.191 146,-908.191 142.5,-918.191 149.5,-918.191"/>
</g>
<!-- PL9 -->
<g id="node19" class="node"><title>PL9</title>
<ellipse fill="none" stroke="black" cx="246" cy="-781" rx="18" ry="18"/>
<text text-anchor="middle" x="246" y="-777.3" font-family="Times,serif" font-size="14.00">PL9</text>
</g>
<!-- PL9&#45;&gt;transition7 -->
<g id="edge22" class="edge"><title>PL9&#45;&gt;transition7</title>
<path fill="none" stroke="black" d="M246,-799.049C246,-820.164 246,-857.234 246,-889 246,-1089 246,-1089 246,-1089 246,-1122.1 241.418,-1131.21 227,-1161 220.67,-1174.08 209.285,-1187.16 203.532,-1193.33"/>
<polygon fill="none" stroke="black" points="202.258,-1192.13 200.053,-1196.95 204.78,-1194.56 202.258,-1192.13"/>
</g>
<!-- transition6&#45;&gt;PL9 -->
<g id="edge21" class="edge"><title>transition6&#45;&gt;PL9</title>
<path fill="none" stroke="black" d="M200.132,-834.848C201.63,-833.122 215.599,-817.027 227.732,-803.048"/>
<polygon fill="black" stroke="black" points="230.644,-805.033 234.555,-795.186 225.357,-800.444 230.644,-805.033"/>
</g>
<!-- transition20 -->
<g id="node23" class="node"><title>transition20</title>
<polygon fill="none" stroke="black" points="218,-1089 182,-1089 182,-1088 218,-1088 218,-1089"/>
<text text-anchor="middle" x="169" y="-1092.8" font-family="Times,serif" font-size="14.00">X1+</text>
</g>
<!-- PL27&#45;&gt;transition20 -->
<g id="edge24" class="edge"><title>PL27&#45;&gt;transition20</title>
<path fill="none" stroke="black" d="M200,-1124.94C200,-1114.39 200,-1101.53 200,-1094.41"/>
<polygon fill="none" stroke="black" points="201.75,-1094.06 200,-1089.06 198.25,-1094.06 201.75,-1094.06"/>
</g>
<!-- PL28 -->
<g id="node22" class="node"><title>PL28</title>
<ellipse fill="none" stroke="black" cx="200" cy="-1034" rx="18" ry="18"/>
<text text-anchor="middle" x="200" y="-1030.3" font-family="Times,serif" font-size="14.00">PL28</text>
</g>
<!-- PL28&#45;&gt;transition22 -->
<g id="edge26" class="edge"><title>PL28&#45;&gt;transition22</title>
<path fill="none" stroke="black" d="M189.331,-1019.17C176.825,-1002.96 156.832,-977.041 149.148,-967.081"/>
<polygon fill="none" stroke="black" points="150.519,-965.993 146.08,-963.103 147.748,-968.131 150.519,-965.993"/>
</g>
<!-- transition20&#45;&gt;PL28 -->
<g id="edge25" class="edge"><title>transition20&#45;&gt;PL28</title>
<path fill="none" stroke="black" d="M200,-1087.85C200,-1086.37 200,-1074.32 200,-1062.1"/>
<polygon fill="black" stroke="black" points="203.5,-1062.02 200,-1052.02 196.5,-1062.02 203.5,-1062.02"/>
</g>
<!-- transition10 -->
<g id="node26" class="node"><title>transition10</title>
<polygon fill="none" stroke="black" points="164,-836 128,-836 128,-835 164,-835 164,-836"/>
<text text-anchor="middle" x="115" y="-839.8" font-family="Times,serif" font-size="14.00">A3+</text>
</g>
<!-- PL10&#45;&gt;transition10 -->
<g id="edge28" class="edge"><title>PL10&#45;&gt;transition10</title>
<path fill="none" stroke="black" d="M146,-871.939C146,-861.385 146,-848.534 146,-841.412"/>
<polygon fill="none" stroke="black" points="147.75,-841.059 146,-836.059 144.25,-841.059 147.75,-841.059"/>
</g>
<!-- PL11 -->
<g id="node25" class="node"><title>PL11</title>
<ellipse fill="none" stroke="black" cx="154" cy="-781" rx="18" ry="18"/>
<text text-anchor="middle" x="154" y="-777.3" font-family="Times,serif" font-size="14.00">PL11</text>
</g>
<!-- transition8 -->
<g id="node28" class="node"><title>transition8</title>
<polygon fill="none" stroke="black" points="172,-727 136,-727 136,-726 172,-726 172,-727"/>
<text text-anchor="middle" x="125" y="-730.8" font-family="Times,serif" font-size="14.00">R3&#45;</text>
</g>
<!-- PL11&#45;&gt;transition8 -->
<g id="edge30" class="edge"><title>PL11&#45;&gt;transition8</title>
<path fill="none" stroke="black" d="M154,-762.939C154,-752.385 154,-739.534 154,-732.412"/>
<polygon fill="none" stroke="black" points="155.75,-732.059 154,-727.059 152.25,-732.059 155.75,-732.059"/>
</g>
<!-- transition10&#45;&gt;PL11 -->
<g id="edge29" class="edge"><title>transition10&#45;&gt;PL11</title>
<path fill="none" stroke="black" d="M146.023,-834.848C146.246,-833.368 148.065,-821.319 149.909,-809.1"/>
<polygon fill="black" stroke="black" points="153.398,-809.435 151.43,-799.025 146.477,-808.39 153.398,-809.435"/>
</g>
<!-- PL23 -->
<g id="node33" class="node"><title>PL23</title>
<ellipse fill="none" stroke="black" cx="100" cy="-781" rx="18" ry="18"/>
<text text-anchor="middle" x="100" y="-777.3" font-family="Times,serif" font-size="14.00">PL23</text>
</g>
<!-- transition10&#45;&gt;PL23 -->
<g id="edge37" class="edge"><title>transition10&#45;&gt;PL23</title>
<path fill="none" stroke="black" d="M145.868,-834.848C144.37,-833.122 130.401,-817.027 118.268,-803.048"/>
<polygon fill="black" stroke="black" points="120.643,-800.444 111.445,-795.186 115.356,-805.033 120.643,-800.444"/>
</g>
<!-- PL25 -->
<g id="node49" class="node"><title>PL25</title>
<ellipse fill="none" stroke="black" cx="46" cy="-781" rx="18" ry="18"/>
<text text-anchor="middle" x="46" y="-777.3" font-family="Times,serif" font-size="14.00">PL25</text>
</g>
<!-- transition10&#45;&gt;PL25 -->
<g id="edge57" class="edge"><title>transition10&#45;&gt;PL25</title>
<path fill="none" stroke="black" d="M145.88,-834.947C143.42,-833.854 103.584,-816.109 73,-799 71.8579,-798.361 70.6967,-797.695 69.5295,-797.013"/>
<polygon fill="black" stroke="black" points="71.0498,-793.841 60.6875,-791.634 67.4115,-799.821 71.0498,-793.841"/>
</g>
<!-- PL12 -->
<g id="node27" class="node"><title>PL12</title>
<ellipse fill="none" stroke="black" cx="154" cy="-672" rx="18" ry="18"/>
<text text-anchor="middle" x="154" y="-668.3" font-family="Times,serif" font-size="14.00">PL12</text>
</g>
<!-- transition19 -->
<g id="node30" class="node"><title>transition19</title>
<polygon fill="none" stroke="black" points="118,-618 82,-618 82,-617 118,-617 118,-618"/>
<text text-anchor="middle" x="71" y="-621.8" font-family="Times,serif" font-size="14.00">A3&#45;</text>
</g>
<!-- PL12&#45;&gt;transition19 -->
<g id="edge32" class="edge"><title>PL12&#45;&gt;transition19</title>
<path fill="none" stroke="black" d="M141.476,-658.708C129.402,-646.858 111.847,-629.627 104.023,-621.948"/>
<polygon fill="none" stroke="black" points="104.868,-620.326 100.074,-618.072 102.416,-622.824 104.868,-620.326"/>
</g>
<!-- transition8&#45;&gt;PL12 -->
<g id="edge31" class="edge"><title>transition8&#45;&gt;PL12</title>
<path fill="none" stroke="black" d="M154,-725.848C154,-724.368 154,-712.319 154,-700.1"/>
<polygon fill="black" stroke="black" points="157.5,-700.025 154,-690.025 150.5,-700.025 157.5,-700.025"/>
</g>
<!-- PL13 -->
<g id="node29" class="node"><title>PL13</title>
<ellipse fill="none" stroke="black" cx="154" cy="-563" rx="18" ry="18"/>
<text text-anchor="middle" x="154" y="-559.3" font-family="Times,serif" font-size="14.00">PL13</text>
</g>
<!-- transition9 -->
<g id="node32" class="node"><title>transition9</title>
<polygon fill="none" stroke="black" points="172,-509 136,-509 136,-508 172,-508 172,-509"/>
<text text-anchor="middle" x="123.5" y="-512.8" font-family="Times,serif" font-size="14.00">R3+</text>
</g>
<!-- PL13&#45;&gt;transition9 -->
<g id="edge34" class="edge"><title>PL13&#45;&gt;transition9</title>
<path fill="none" stroke="black" d="M154,-544.939C154,-534.385 154,-521.534 154,-514.412"/>
<polygon fill="none" stroke="black" points="155.75,-514.059 154,-509.059 152.25,-514.059 155.75,-514.059"/>
</g>
<!-- transition19&#45;&gt;PL13 -->
<g id="edge33" class="edge"><title>transition19&#45;&gt;PL13</title>
<path fill="none" stroke="black" d="M100.155,-616.848C101.988,-615.049 119.738,-597.628 134.365,-583.272"/>
<polygon fill="black" stroke="black" points="136.943,-585.645 141.628,-576.143 132.04,-580.649 136.943,-585.645"/>
</g>
<!-- PL15 -->
<g id="node36" class="node"><title>PL15</title>
<ellipse fill="none" stroke="black" cx="100" cy="-563" rx="18" ry="18"/>
<text text-anchor="middle" x="100" y="-559.3" font-family="Times,serif" font-size="14.00">PL15</text>
</g>
<!-- transition19&#45;&gt;PL15 -->
<g id="edge41" class="edge"><title>transition19&#45;&gt;PL15</title>
<path fill="none" stroke="black" d="M100,-616.848C100,-615.368 100,-603.319 100,-591.1"/>
<polygon fill="black" stroke="black" points="103.5,-591.025 100,-581.025 96.5001,-591.025 103.5,-591.025"/>
</g>
<!-- PL14 -->
<g id="node31" class="node"><title>PL14</title>
<ellipse fill="none" stroke="black" cx="204" cy="-454" rx="18" ry="18"/>
<text text-anchor="middle" x="204" y="-450.3" font-family="Times,serif" font-size="14.00">PL14</text>
</g>
<!-- PL14&#45;&gt;transition10 -->
<g id="edge36" class="edge"><title>PL14&#45;&gt;transition10</title>
<path fill="none" stroke="black" d="M202.97,-472.042C201.785,-493.149 200,-530.212 200,-562 200,-727 200,-727 200,-727 200,-760.095 197.291,-770.192 181,-799 172.853,-813.407 157.537,-826.247 150.168,-831.919"/>
<polygon fill="none" stroke="black" points="149.048,-830.571 146.069,-834.952 151.13,-833.385 149.048,-830.571"/>
</g>
<!-- transition9&#45;&gt;PL14 -->
<g id="edge35" class="edge"><title>transition9&#45;&gt;PL14</title>
<path fill="none" stroke="black" d="M154.143,-507.848C155.806,-506.086 171.606,-489.338 184.98,-475.161"/>
<polygon fill="black" stroke="black" points="187.739,-477.337 192.056,-467.661 182.647,-472.533 187.739,-477.337"/>
</g>
<!-- transition17 -->
<g id="node35" class="node"><title>transition17</title>
<polygon fill="none" stroke="black" points="118,-727 82,-727 82,-726 118,-726 118,-727"/>
<text text-anchor="middle" x="69" y="-730.8" font-family="Times,serif" font-size="14.00">X2+</text>
</g>
<!-- PL23&#45;&gt;transition17 -->
<g id="edge38" class="edge"><title>PL23&#45;&gt;transition17</title>
<path fill="none" stroke="black" d="M100,-762.939C100,-752.385 100,-739.534 100,-732.412"/>
<polygon fill="none" stroke="black" points="101.75,-732.059 100,-727.059 98.2501,-732.059 101.75,-732.059"/>
</g>
<!-- PL24 -->
<g id="node34" class="node"><title>PL24</title>
<ellipse fill="none" stroke="black" cx="100" cy="-672" rx="18" ry="18"/>
<text text-anchor="middle" x="100" y="-668.3" font-family="Times,serif" font-size="14.00">PL24</text>
</g>
<!-- PL24&#45;&gt;transition19 -->
<g id="edge40" class="edge"><title>PL24&#45;&gt;transition19</title>
<path fill="none" stroke="black" d="M100,-653.939C100,-643.385 100,-630.534 100,-623.412"/>
<polygon fill="none" stroke="black" points="101.75,-623.059 100,-618.059 98.2501,-623.059 101.75,-623.059"/>
</g>
<!-- transition17&#45;&gt;PL24 -->
<g id="edge39" class="edge"><title>transition17&#45;&gt;PL24</title>
<path fill="none" stroke="black" d="M100,-725.848C100,-724.368 100,-712.319 100,-700.1"/>
<polygon fill="black" stroke="black" points="103.5,-700.025 100,-690.025 96.5001,-700.025 103.5,-700.025"/>
</g>
<!-- transition13 -->
<g id="node38" class="node"><title>transition13</title>
<polygon fill="none" stroke="black" points="116,-509 80,-509 80,-508 116,-508 116,-509"/>
<text text-anchor="middle" x="67" y="-512.8" font-family="Times,serif" font-size="14.00">A4+</text>
</g>
<!-- PL15&#45;&gt;transition13 -->
<g id="edge42" class="edge"><title>PL15&#45;&gt;transition13</title>
<path fill="none" stroke="black" d="M99.3562,-544.939C98.9579,-534.385 98.473,-521.534 98.2042,-514.412"/>
<polygon fill="none" stroke="black" points="99.9396,-513.99 98.0022,-509.059 96.4421,-514.122 99.9396,-513.99"/>
</g>
<!-- PL16 -->
<g id="node37" class="node"><title>PL16</title>
<ellipse fill="none" stroke="black" cx="96" cy="-454" rx="18" ry="18"/>
<text text-anchor="middle" x="96" y="-450.3" font-family="Times,serif" font-size="14.00">PL16</text>
</g>
<!-- transition11 -->
<g id="node40" class="node"><title>transition11</title>
<polygon fill="none" stroke="black" points="114,-400 78,-400 78,-399 114,-399 114,-400"/>
<text text-anchor="middle" x="67" y="-403.8" font-family="Times,serif" font-size="14.00">R4&#45;</text>
</g>
<!-- PL16&#45;&gt;transition11 -->
<g id="edge44" class="edge"><title>PL16&#45;&gt;transition11</title>
<path fill="none" stroke="black" d="M96,-435.939C96,-425.385 96,-412.534 96,-405.412"/>
<polygon fill="none" stroke="black" points="97.7501,-405.059 96,-400.059 94.2501,-405.059 97.7501,-405.059"/>
</g>
<!-- transition13&#45;&gt;PL16 -->
<g id="edge43" class="edge"><title>transition13&#45;&gt;PL16</title>
<path fill="none" stroke="black" d="M97.9943,-507.848C97.9384,-506.368 97.4837,-494.319 97.0227,-482.1"/>
<polygon fill="black" stroke="black" points="100.517,-481.886 96.6424,-472.025 93.5221,-482.15 100.517,-481.886"/>
</g>
<!-- PL21 -->
<g id="node45" class="node"><title>PL21</title>
<ellipse fill="none" stroke="black" cx="150" cy="-454" rx="18" ry="18"/>
<text text-anchor="middle" x="150" y="-450.3" font-family="Times,serif" font-size="14.00">PL21</text>
</g>
<!-- transition13&#45;&gt;PL21 -->
<g id="edge51" class="edge"><title>transition13&#45;&gt;PL21</title>
<path fill="none" stroke="black" d="M98.1492,-507.848C99.8883,-506.075 116.502,-489.142 130.462,-474.914"/>
<polygon fill="black" stroke="black" points="133.328,-476.99 137.833,-467.401 128.331,-472.088 133.328,-476.99"/>
</g>
<!-- PL17 -->
<g id="node39" class="node"><title>PL17</title>
<ellipse fill="none" stroke="black" cx="96" cy="-345" rx="18" ry="18"/>
<text text-anchor="middle" x="96" y="-341.3" font-family="Times,serif" font-size="14.00">PL17</text>
</g>
<!-- transition16 -->
<g id="node42" class="node"><title>transition16</title>
<polygon fill="none" stroke="black" points="141,-291 105,-291 105,-290 141,-290 141,-291"/>
<text text-anchor="middle" x="94" y="-294.8" font-family="Times,serif" font-size="14.00">A4&#45;</text>
</g>
<!-- PL17&#45;&gt;transition16 -->
<g id="edge46" class="edge"><title>PL17&#45;&gt;transition16</title>
<path fill="none" stroke="black" d="M103.81,-328.67C109.483,-317.534 116.796,-303.177 120.545,-295.818"/>
<polygon fill="none" stroke="black" points="122.257,-296.313 122.968,-291.064 119.139,-294.724 122.257,-296.313"/>
</g>
<!-- transition11&#45;&gt;PL17 -->
<g id="edge45" class="edge"><title>transition11&#45;&gt;PL17</title>
<path fill="none" stroke="black" d="M96,-398.848C96,-397.368 96,-385.319 96,-373.1"/>
<polygon fill="black" stroke="black" points="99.5001,-373.025 96,-363.025 92.5001,-373.025 99.5001,-373.025"/>
</g>
<!-- PL18 -->
<g id="node41" class="node"><title>PL18</title>
<ellipse fill="none" stroke="black" cx="96" cy="-236" rx="18" ry="18"/>
<text text-anchor="middle" x="96" y="-232.3" font-family="Times,serif" font-size="14.00">PL18</text>
</g>
<!-- transition12 -->
<g id="node44" class="node"><title>transition12</title>
<polygon fill="none" stroke="black" points="114,-182 78,-182 78,-181 114,-181 114,-182"/>
<text text-anchor="middle" x="65.5" y="-185.8" font-family="Times,serif" font-size="14.00">R4+</text>
</g>
<!-- PL18&#45;&gt;transition12 -->
<g id="edge48" class="edge"><title>PL18&#45;&gt;transition12</title>
<path fill="none" stroke="black" d="M96,-217.939C96,-207.385 96,-194.534 96,-187.412"/>
<polygon fill="none" stroke="black" points="97.7501,-187.059 96,-182.059 94.2501,-187.059 97.7501,-187.059"/>
</g>
<!-- transition16&#45;&gt;PL18 -->
<g id="edge47" class="edge"><title>transition16&#45;&gt;PL18</title>
<path fill="none" stroke="black" d="M122.923,-289.848C122.116,-288.265 115.15,-274.591 108.506,-261.55"/>
<polygon fill="black" stroke="black" points="111.477,-259.669 103.819,-252.348 105.239,-262.847 111.477,-259.669"/>
</g>
<!-- PL20 -->
<g id="node48" class="node"><title>PL20</title>
<ellipse fill="none" stroke="black" cx="198" cy="-236" rx="18" ry="18"/>
<text text-anchor="middle" x="198" y="-232.3" font-family="Times,serif" font-size="14.00">PL20</text>
</g>
<!-- transition16&#45;&gt;PL20 -->
<g id="edge55" class="edge"><title>transition16&#45;&gt;PL20</title>
<path fill="none" stroke="black" d="M123.054,-289.962C124.481,-288.953 153.699,-268.306 175.223,-253.095"/>
<polygon fill="black" stroke="black" points="177.442,-255.813 183.589,-247.184 173.403,-250.096 177.442,-255.813"/>
</g>
<!-- PL19 -->
<g id="node43" class="node"><title>PL19</title>
<ellipse fill="none" stroke="black" cx="73" cy="-127" rx="18" ry="18"/>
<text text-anchor="middle" x="73" y="-123.3" font-family="Times,serif" font-size="14.00">PL19</text>
</g>
<!-- PL19&#45;&gt;transition13 -->
<g id="edge50" class="edge"><title>PL19&#45;&gt;transition13</title>
<path fill="none" stroke="black" d="M67.3146,-144.083C60.5036,-164.82 50,-202.129 50,-235 50,-400 50,-400 50,-400 50,-433.095 54.0687,-442.464 69,-472 75.7348,-485.322 87.992,-498.29 94.1916,-504.385"/>
<polygon fill="none" stroke="black" points="93.1126,-505.774 97.9431,-507.949 95.5231,-503.236 93.1126,-505.774"/>
</g>
<!-- transition12&#45;&gt;PL19 -->
<g id="edge49" class="edge"><title>transition12&#45;&gt;PL19</title>
<path fill="none" stroke="black" d="M95.934,-180.848C95.2621,-179.3 89.5707,-166.185 84.0263,-153.409"/>
<polygon fill="black" stroke="black" points="87.0925,-151.682 79.9008,-143.902 80.671,-154.469 87.0925,-151.682"/>
</g>
<!-- transition15 -->
<g id="node47" class="node"><title>transition15</title>
<polygon fill="none" stroke="black" points="168,-400 132,-400 132,-399 168,-399 168,-400"/>
<text text-anchor="middle" x="121" y="-403.8" font-family="Times,serif" font-size="14.00">X2&#45;</text>
</g>
<!-- PL21&#45;&gt;transition15 -->
<g id="edge52" class="edge"><title>PL21&#45;&gt;transition15</title>
<path fill="none" stroke="black" d="M150,-435.939C150,-425.385 150,-412.534 150,-405.412"/>
<polygon fill="none" stroke="black" points="151.75,-405.059 150,-400.059 148.25,-405.059 151.75,-405.059"/>
</g>
<!-- PL22 -->
<g id="node46" class="node"><title>PL22</title>
<ellipse fill="none" stroke="black" cx="150" cy="-345" rx="18" ry="18"/>
<text text-anchor="middle" x="150" y="-341.3" font-family="Times,serif" font-size="14.00">PL22</text>
</g>
<!-- PL22&#45;&gt;transition16 -->
<g id="edge54" class="edge"><title>PL22&#45;&gt;transition16</title>
<path fill="none" stroke="black" d="M142.19,-328.67C136.517,-317.534 129.204,-303.177 125.455,-295.818"/>
<polygon fill="none" stroke="black" points="126.861,-294.724 123.032,-291.064 123.743,-296.313 126.861,-294.724"/>
</g>
<!-- transition15&#45;&gt;PL22 -->
<g id="edge53" class="edge"><title>transition15&#45;&gt;PL22</title>
<path fill="none" stroke="black" d="M150,-398.848C150,-397.368 150,-385.319 150,-373.1"/>
<polygon fill="black" stroke="black" points="153.5,-373.025 150,-363.025 146.5,-373.025 153.5,-373.025"/>
</g>
<!-- PL20&#45;&gt;transition14 -->
<g id="edge56" class="edge"><title>PL20&#45;&gt;transition14</title>
<path fill="none" stroke="black" d="M209.618,-221.899C220.152,-210.02 235.008,-193.268 241.61,-185.823"/>
<polygon fill="none" stroke="black" points="242.93,-186.972 244.938,-182.07 240.311,-184.65 242.93,-186.972"/>
</g>
<!-- transition18 -->
<g id="node51" class="node"><title>transition18</title>
<polygon fill="none" stroke="black" points="64,-727 28,-727 28,-726 64,-726 64,-727"/>
<text text-anchor="middle" x="17" y="-730.8" font-family="Times,serif" font-size="14.00">X1&#45;</text>
</g>
<!-- PL25&#45;&gt;transition18 -->
<g id="edge58" class="edge"><title>PL25&#45;&gt;transition18</title>
<path fill="none" stroke="black" d="M46,-762.939C46,-752.385 46,-739.534 46,-732.412"/>
<polygon fill="none" stroke="black" points="47.7501,-732.059 46,-727.059 44.2501,-732.059 47.7501,-732.059"/>
</g>
<!-- PL26 -->
<g id="node50" class="node"><title>PL26</title>
<ellipse fill="none" stroke="black" cx="46" cy="-672" rx="18" ry="18"/>
<text text-anchor="middle" x="46" y="-668.3" font-family="Times,serif" font-size="14.00">PL26</text>
</g>
<!-- PL26&#45;&gt;transition19 -->
<g id="edge60" class="edge"><title>PL26&#45;&gt;transition19</title>
<path fill="none" stroke="black" d="M58.5244,-658.708C70.5976,-646.858 88.1532,-629.627 95.9771,-621.948"/>
<polygon fill="none" stroke="black" points="97.5837,-622.824 99.9263,-618.072 95.132,-620.326 97.5837,-622.824"/>
</g>
<!-- transition18&#45;&gt;PL26 -->
<g id="edge59" class="edge"><title>transition18&#45;&gt;PL26</title>
<path fill="none" stroke="black" d="M46,-725.848C46,-724.368 46,-712.319 46,-700.1"/>
<polygon fill="black" stroke="black" points="49.5001,-700.025 46,-690.025 42.5001,-700.025 49.5001,-700.025"/>
</g>
<!-- transition21 -->
<g id="node54" class="node"><title>transition21</title>
<polygon fill="none" stroke="black" points="110,-1089 74,-1089 74,-1088 110,-1088 110,-1089"/>
<text text-anchor="middle" x="63" y="-1092.8" font-family="Times,serif" font-size="14.00">X0&#45;</text>
</g>
<!-- PL29&#45;&gt;transition21 -->
<g id="edge62" class="edge"><title>PL29&#45;&gt;transition21</title>
<path fill="none" stroke="black" d="M92,-1124.94C92,-1114.39 92,-1101.53 92,-1094.41"/>
<polygon fill="none" stroke="black" points="93.7501,-1094.06 92,-1089.06 90.2501,-1094.06 93.7501,-1094.06"/>
</g>
<!-- PL30 -->
<g id="node53" class="node"><title>PL30</title>
<ellipse fill="none" stroke="black" cx="92" cy="-1034" rx="18" ry="18"/>
<text text-anchor="middle" x="92" y="-1030.3" font-family="Times,serif" font-size="14.00">PL30</text>
</g>
<!-- PL30&#45;&gt;transition22 -->
<g id="edge64" class="edge"><title>PL30&#45;&gt;transition22</title>
<path fill="none" stroke="black" d="M102.669,-1019.17C115.175,-1002.96 135.168,-977.041 142.852,-967.081"/>
<polygon fill="none" stroke="black" points="144.252,-968.131 145.92,-963.103 141.481,-965.993 144.252,-968.131"/>
</g>
<!-- transition21&#45;&gt;PL30 -->
<g id="edge63" class="edge"><title>transition21&#45;&gt;PL30</title>
<path fill="none" stroke="black" d="M92,-1087.85C92,-1086.37 92,-1074.32 92,-1062.1"/>
<polygon fill="black" stroke="black" points="95.5001,-1062.02 92,-1052.02 88.5001,-1062.02 95.5001,-1062.02"/>
</g>
</g>
</svg>
