<?xml version="1.0" encoding="UTF-8" standalone="no"?>
<!DOCTYPE svg PUBLIC "-//W3C//DTD SVG 1.1//EN"
 "http://www.w3.org/Graphics/SVG/1.1/DTD/svg11.dtd">
<!-- Generated by graphviz version 2.38.0 (20140413.2041)
 -->
<!-- Title: %3 Pages: 1 -->
<svg width="346pt" height="1496pt"
 viewBox="0.00 0.00 346.00 1496.00" xmlns="http://www.w3.org/2000/svg" xmlns:xlink="http://www.w3.org/1999/xlink">
<g id="graph0" class="graph" transform="scale(1 1) rotate(0) translate(4 1492)">
<title>%3</title>
<polygon fill="white" stroke="none" points="-4,4 -4,-1492 342,-1492 342,4 -4,4"/>
<!-- pl1 -->
<g id="node1" class="node"><title>pl1</title>
<ellipse fill="none" stroke="black" cx="297" cy="-1470" rx="18" ry="18"/>
<text text-anchor="middle" x="297" y="-1466.3" font-family="Times,serif" font-size="14.00">pl1</text>
</g>
<!-- transition1 -->
<g id="node3" class="node"><title>transition1</title>
<polygon fill="none" stroke="black" points="274,-1416 238,-1416 238,-1415 274,-1415 274,-1416"/>
<text text-anchor="middle" x="227" y="-1419.8" font-family="Times,serif" font-size="14.00">R1&#45;</text>
</g>
<!-- pl1&#45;&gt;transition1 -->
<g id="edge1" class="edge"><title>pl1&#45;&gt;transition1</title>
<path fill="none" stroke="black" d="M286.441,-1455.35C274.673,-1440.14 257.137,-1417.47 256.053,-1416.07"/>
</g>
<!-- pl2 -->
<g id="node2" class="node"><title>pl2</title>
<ellipse fill="none" stroke="black" cx="246" cy="-1361" rx="18" ry="18"/>
<text text-anchor="middle" x="246" y="-1357.3" font-family="Times,serif" font-size="14.00">pl2</text>
</g>
<!-- transition4 -->
<g id="node5" class="node"><title>transition4</title>
<polygon fill="none" stroke="black" points="246,-1307 210,-1307 210,-1306 246,-1306 246,-1307"/>
<text text-anchor="middle" x="199" y="-1310.8" font-family="Times,serif" font-size="14.00">A1&#45;</text>
</g>
<!-- pl2&#45;&gt;transition4 -->
<g id="edge3" class="edge"><title>pl2&#45;&gt;transition4</title>
<path fill="none" stroke="black" d="M240.502,-1343.81C235.374,-1328.71 228.449,-1308.32 228.021,-1307.06"/>
</g>
<!-- transition1&#45;&gt;pl2 -->
<g id="edge2" class="edge"><title>transition1&#45;&gt;pl2</title>
<path fill="none" stroke="black" d="M255.971,-1414.85C255.69,-1413.36 253.39,-1401.16 251.069,-1388.87"/>
<polygon fill="black" stroke="black" points="254.452,-1387.92 249.159,-1378.74 247.574,-1389.22 254.452,-1387.92"/>
</g>
<!-- pl3 -->
<g id="node4" class="node"><title>pl3</title>
<ellipse fill="none" stroke="black" cx="282" cy="-1252" rx="18" ry="18"/>
<text text-anchor="middle" x="282" y="-1248.3" font-family="Times,serif" font-size="14.00">pl3</text>
</g>
<!-- transition2 -->
<g id="node7" class="node"><title>transition2</title>
<polygon fill="none" stroke="black" points="303,-1198 267,-1198 267,-1197 303,-1197 303,-1198"/>
<text text-anchor="middle" x="254.5" y="-1201.8" font-family="Times,serif" font-size="14.00">R1+</text>
</g>
<!-- pl3&#45;&gt;transition2 -->
<g id="edge5" class="edge"><title>pl3&#45;&gt;transition2</title>
<path fill="none" stroke="black" d="M282.966,-1233.94C283.815,-1218.93 284.928,-1199.27 284.997,-1198.06"/>
</g>
<!-- transition4&#45;&gt;pl3 -->
<g id="edge4" class="edge"><title>transition4&#45;&gt;pl3</title>
<path fill="none" stroke="black" d="M228.155,-1305.85C229.988,-1304.05 247.738,-1286.63 262.365,-1272.27"/>
<polygon fill="black" stroke="black" points="264.943,-1274.65 269.628,-1265.14 260.04,-1269.65 264.943,-1274.65"/>
</g>
<!-- pl5 -->
<g id="node12" class="node"><title>pl5</title>
<ellipse fill="none" stroke="black" cx="219" cy="-1252" rx="18" ry="18"/>
<text text-anchor="middle" x="219" y="-1248.3" font-family="Times,serif" font-size="14.00">pl5</text>
</g>
<!-- transition4&#45;&gt;pl5 -->
<g id="edge13" class="edge"><title>transition4&#45;&gt;pl5</title>
<path fill="none" stroke="black" d="M227.974,-1305.85C227.723,-1304.37 225.677,-1292.32 223.602,-1280.1"/>
<polygon fill="black" stroke="black" points="227.016,-1279.3 221.891,-1270.02 220.115,-1280.47 227.016,-1279.3"/>
</g>
<!-- pl4 -->
<g id="node6" class="node"><title>pl4</title>
<ellipse fill="none" stroke="black" cx="292" cy="-962" rx="18" ry="18"/>
<text text-anchor="middle" x="292" y="-958.3" font-family="Times,serif" font-size="14.00">pl4</text>
</g>
<!-- transition14 -->
<g id="node8" class="node"><title>transition14</title>
<polygon fill="none" stroke="black" points="263,-182 227,-182 227,-181 263,-181 263,-182"/>
<text text-anchor="middle" x="214" y="-185.8" font-family="Times,serif" font-size="14.00">A1+</text>
</g>
<!-- pl4&#45;&gt;transition14 -->
<g id="edge7" class="edge"><title>pl4&#45;&gt;transition14</title>
<path fill="none" stroke="black" d="M292,-943.609C292,-919.462 292,-874.411 292,-836 292,-836 292,-836 292,-290 292,-239.288 247.892,-185.475 245.135,-182.161"/>
</g>
<!-- transition2&#45;&gt;pl4 -->
<g id="edge6" class="edge"><title>transition2&#45;&gt;pl4</title>
<path fill="none" stroke="black" d="M285.001,-1196.96C285.086,-1194.13 289.349,-1051.61 291.18,-990.424"/>
<polygon fill="black" stroke="black" points="294.681,-990.432 291.482,-980.331 287.684,-990.222 294.681,-990.432"/>
</g>
<!-- transition14&#45;&gt;pl1 -->
<g id="edge8" class="edge"><title>transition14&#45;&gt;pl1</title>
<path fill="none" stroke="black" d="M245.067,-182.033C247.884,-183.4 338,-227.646 338,-290 338,-1362 338,-1362 338,-1362 338,-1392.36 323.427,-1424.55 311.657,-1445.6"/>
<polygon fill="black" stroke="black" points="308.517,-1444.04 306.509,-1454.44 314.566,-1447.56 308.517,-1444.04"/>
</g>
<!-- pl31 -->
<g id="node9" class="node"><title>pl31</title>
<ellipse fill="none" stroke="black" cx="186" cy="-127" rx="18" ry="18"/>
<text text-anchor="middle" x="186" y="-123.3" font-family="Times,serif" font-size="14.00">pl31</text>
</g>
<!-- transition14&#45;&gt;pl31 -->
<g id="edge9" class="edge"><title>transition14&#45;&gt;pl31</title>
<path fill="none" stroke="black" d="M244.831,-180.848C242.786,-179.011 222.622,-160.897 206.462,-146.381"/>
<polygon fill="black" stroke="black" points="208.726,-143.71 198.948,-139.631 204.048,-148.918 208.726,-143.71"/>
</g>
<!-- transition3 -->
<g id="node11" class="node"><title>transition3</title>
<polygon fill="none" stroke="black" points="134,-73 98,-73 98,-72 134,-72 134,-73"/>
<text text-anchor="middle" x="85" y="-76.8" font-family="Times,serif" font-size="14.00">X0+</text>
</g>
<!-- pl31&#45;&gt;transition3 -->
<g id="edge10" class="edge"><title>pl31&#45;&gt;transition3</title>
<path fill="none" stroke="black" d="M171.834,-115.275C152.019,-100.272 118.197,-74.6632 116.102,-73.0773"/>
</g>
<!-- pl32 -->
<g id="node10" class="node"><title>pl32</title>
<ellipse fill="none" stroke="black" cx="58" cy="-18" rx="18" ry="18"/>
<text text-anchor="middle" x="58" y="-14.3" font-family="Times,serif" font-size="14.00">pl32</text>
</g>
<!-- pl32&#45;&gt;transition4 -->
<g id="edge12" class="edge"><title>pl32&#45;&gt;transition4</title>
<path fill="none" stroke="black" d="M45.6997,-31.6356C28.6743,-50.5182 0,-87.966 0,-126 0,-1198 0,-1198 0,-1198 0,-1298.3 182.442,-1305.58 220.926,-1306"/>
</g>
<!-- transition3&#45;&gt;pl32 -->
<g id="edge11" class="edge"><title>transition3&#45;&gt;pl32</title>
<path fill="none" stroke="black" d="M115.834,-71.848C113.853,-70.0383 94.5806,-52.4271 78.8192,-38.0245"/>
<polygon fill="black" stroke="black" points="80.7504,-35.048 71.0073,-30.886 76.0284,-40.2155 80.7504,-35.048"/>
</g>
<!-- transition7 -->
<g id="node14" class="node"><title>transition7</title>
<polygon fill="none" stroke="black" points="218,-1198 182,-1198 182,-1197 218,-1197 218,-1198"/>
<text text-anchor="middle" x="169" y="-1201.8" font-family="Times,serif" font-size="14.00">A2+</text>
</g>
<!-- pl5&#45;&gt;transition7 -->
<g id="edge14" class="edge"><title>pl5&#45;&gt;transition7</title>
<path fill="none" stroke="black" d="M213.196,-1234.81C207.783,-1219.71 200.474,-1199.32 200.022,-1198.06"/>
</g>
<!-- pl6 -->
<g id="node13" class="node"><title>pl6</title>
<ellipse fill="none" stroke="black" cx="146" cy="-1143" rx="18" ry="18"/>
<text text-anchor="middle" x="146" y="-1139.3" font-family="Times,serif" font-size="14.00">pl6</text>
</g>
<!-- transition5 -->
<g id="node16" class="node"><title>transition5</title>
<polygon fill="none" stroke="black" points="164,-1089 128,-1089 128,-1088 164,-1088 164,-1089"/>
<text text-anchor="middle" x="117" y="-1092.8" font-family="Times,serif" font-size="14.00">R2&#45;</text>
</g>
<!-- pl6&#45;&gt;transition5 -->
<g id="edge16" class="edge"><title>pl6&#45;&gt;transition5</title>
<path fill="none" stroke="black" d="M146,-1124.94C146,-1109.93 146,-1090.27 146,-1089.06"/>
</g>
<!-- transition7&#45;&gt;pl6 -->
<g id="edge15" class="edge"><title>transition7&#45;&gt;pl6</title>
<path fill="none" stroke="black" d="M199.845,-1196.85C198.012,-1195.05 180.262,-1177.63 165.635,-1163.27"/>
<polygon fill="black" stroke="black" points="167.96,-1160.65 158.372,-1156.14 163.057,-1165.65 167.96,-1160.65"/>
</g>
<!-- pl27 -->
<g id="node21" class="node"><title>pl27</title>
<ellipse fill="none" stroke="black" cx="200" cy="-1143" rx="18" ry="18"/>
<text text-anchor="middle" x="200" y="-1139.3" font-family="Times,serif" font-size="14.00">pl27</text>
</g>
<!-- transition7&#45;&gt;pl27 -->
<g id="edge23" class="edge"><title>transition7&#45;&gt;pl27</title>
<path fill="none" stroke="black" d="M200,-1196.85C200,-1195.37 200,-1183.32 200,-1171.1"/>
<polygon fill="black" stroke="black" points="203.5,-1171.02 200,-1161.02 196.5,-1171.02 203.5,-1171.02"/>
</g>
<!-- pl29 -->
<g id="node52" class="node"><title>pl29</title>
<ellipse fill="none" stroke="black" cx="92" cy="-1143" rx="18" ry="18"/>
<text text-anchor="middle" x="92" y="-1139.3" font-family="Times,serif" font-size="14.00">pl29</text>
</g>
<!-- transition7&#45;&gt;pl29 -->
<g id="edge61" class="edge"><title>transition7&#45;&gt;pl29</title>
<path fill="none" stroke="black" d="M199.866,-1196.95C197.121,-1195.91 152.672,-1178.96 119,-1161 117.845,-1160.38 116.674,-1159.74 115.499,-1159.07"/>
<polygon fill="black" stroke="black" points="117.002,-1155.89 106.627,-1153.74 113.4,-1161.89 117.002,-1155.89"/>
</g>
<!-- pl7 -->
<g id="node15" class="node"><title>pl7</title>
<ellipse fill="none" stroke="black" cx="146" cy="-1034" rx="18" ry="18"/>
<text text-anchor="middle" x="146" y="-1030.3" font-family="Times,serif" font-size="14.00">pl7</text>
</g>
<!-- transition22 -->
<g id="node18" class="node"><title>transition22</title>
<polygon fill="none" stroke="black" points="164,-962.5 128,-962.5 128,-961.5 164,-961.5 164,-962.5"/>
<text text-anchor="middle" x="117" y="-966.3" font-family="Times,serif" font-size="14.00">A2&#45;</text>
</g>
<!-- pl7&#45;&gt;transition22 -->
<g id="edge18" class="edge"><title>pl7&#45;&gt;transition22</title>
<path fill="none" stroke="black" d="M146,-1015.7C146,-995.615 146,-964.987 146,-963.092"/>
</g>
<!-- transition5&#45;&gt;pl7 -->
<g id="edge17" class="edge"><title>transition5&#45;&gt;pl7</title>
<path fill="none" stroke="black" d="M146,-1087.85C146,-1086.37 146,-1074.32 146,-1062.1"/>
<polygon fill="black" stroke="black" points="149.5,-1062.02 146,-1052.02 142.5,-1062.02 149.5,-1062.02"/>
</g>
<!-- pl8 -->
<g id="node17" class="node"><title>pl8</title>
<ellipse fill="none" stroke="black" cx="200" cy="-890" rx="18" ry="18"/>
<text text-anchor="middle" x="200" y="-886.3" font-family="Times,serif" font-size="14.00">pl8</text>
</g>
<!-- transition6 -->
<g id="node20" class="node"><title>transition6</title>
<polygon fill="none" stroke="black" points="218,-836 182,-836 182,-835 218,-835 218,-836"/>
<text text-anchor="middle" x="169.5" y="-839.8" font-family="Times,serif" font-size="14.00">R2+</text>
</g>
<!-- pl8&#45;&gt;transition6 -->
<g id="edge20" class="edge"><title>pl8&#45;&gt;transition6</title>
<path fill="none" stroke="black" d="M200,-871.939C200,-856.929 200,-837.273 200,-836.059"/>
</g>
<!-- transition22&#45;&gt;pl8 -->
<g id="edge19" class="edge"><title>transition22&#45;&gt;pl8</title>
<path fill="none" stroke="black" d="M146.039,-960.949C147.056,-959.631 167.689,-932.884 183.14,-912.856"/>
<polygon fill="black" stroke="black" points="186.035,-914.833 189.372,-904.778 180.492,-910.558 186.035,-914.833"/>
</g>
<!-- pl10 -->
<g id="node24" class="node"><title>pl10</title>
<ellipse fill="none" stroke="black" cx="146" cy="-890" rx="18" ry="18"/>
<text text-anchor="middle" x="146" y="-886.3" font-family="Times,serif" font-size="14.00">pl10</text>
</g>
<!-- transition22&#45;&gt;pl10 -->
<g id="edge27" class="edge"><title>transition22&#45;&gt;pl10</title>
<path fill="none" stroke="black" d="M146,-960.949C146,-959.748 146,-937.429 146,-918.321"/>
<polygon fill="black" stroke="black" points="149.5,-918.191 146,-908.191 142.5,-918.191 149.5,-918.191"/>
</g>
<!-- pl9 -->
<g id="node19" class="node"><title>pl9</title>
<ellipse fill="none" stroke="black" cx="246" cy="-781" rx="18" ry="18"/>
<text text-anchor="middle" x="246" y="-777.3" font-family="Times,serif" font-size="14.00">pl9</text>
</g>
<!-- pl9&#45;&gt;transition7 -->
<g id="edge22" class="edge"><title>pl9&#45;&gt;transition7</title>
<path fill="none" stroke="black" d="M246,-799.049C246,-820.164 246,-857.234 246,-889 246,-1089 246,-1089 246,-1089 246,-1122.1 241.418,-1131.21 227,-1161 218.559,-1178.44 201.134,-1195.88 200.053,-1196.95"/>
</g>
<!-- transition6&#45;&gt;pl9 -->
<g id="edge21" class="edge"><title>transition6&#45;&gt;pl9</title>
<path fill="none" stroke="black" d="M200.132,-834.848C201.63,-833.122 215.599,-817.027 227.732,-803.048"/>
<polygon fill="black" stroke="black" points="230.644,-805.033 234.555,-795.186 225.357,-800.444 230.644,-805.033"/>
</g>
<!-- transition20 -->
<g id="node23" class="node"><title>transition20</title>
<polygon fill="none" stroke="black" points="218,-1089 182,-1089 182,-1088 218,-1088 218,-1089"/>
<text text-anchor="middle" x="169" y="-1092.8" font-family="Times,serif" font-size="14.00">X1+</text>
</g>
<!-- pl27&#45;&gt;transition20 -->
<g id="edge24" class="edge"><title>pl27&#45;&gt;transition20</title>
<path fill="none" stroke="black" d="M200,-1124.94C200,-1109.93 200,-1090.27 200,-1089.06"/>
</g>
<!-- pl28 -->
<g id="node22" class="node"><title>pl28</title>
<ellipse fill="none" stroke="black" cx="200" cy="-1034" rx="18" ry="18"/>
<text text-anchor="middle" x="200" y="-1030.3" font-family="Times,serif" font-size="14.00">pl28</text>
</g>
<!-- pl28&#45;&gt;transition22 -->
<g id="edge26" class="edge"><title>pl28&#45;&gt;transition22</title>
<path fill="none" stroke="black" d="M189.331,-1019.17C174.086,-999.408 147.713,-965.221 146.08,-963.103"/>
</g>
<!-- transition20&#45;&gt;pl28 -->
<g id="edge25" class="edge"><title>transition20&#45;&gt;pl28</title>
<path fill="none" stroke="black" d="M200,-1087.85C200,-1086.37 200,-1074.32 200,-1062.1"/>
<polygon fill="black" stroke="black" points="203.5,-1062.02 200,-1052.02 196.5,-1062.02 203.5,-1062.02"/>
</g>
<!-- transition10 -->
<g id="node26" class="node"><title>transition10</title>
<polygon fill="none" stroke="black" points="164,-836 128,-836 128,-835 164,-835 164,-836"/>
<text text-anchor="middle" x="115" y="-839.8" font-family="Times,serif" font-size="14.00">A3+</text>
</g>
<!-- pl10&#45;&gt;transition10 -->
<g id="edge28" class="edge"><title>pl10&#45;&gt;transition10</title>
<path fill="none" stroke="black" d="M146,-871.939C146,-856.929 146,-837.273 146,-836.059"/>
</g>
<!-- pl11 -->
<g id="node25" class="node"><title>pl11</title>
<ellipse fill="none" stroke="black" cx="154" cy="-781" rx="18" ry="18"/>
<text text-anchor="middle" x="154" y="-777.3" font-family="Times,serif" font-size="14.00">pl11</text>
</g>
<!-- transition8 -->
<g id="node28" class="node"><title>transition8</title>
<polygon fill="none" stroke="black" points="172,-727 136,-727 136,-726 172,-726 172,-727"/>
<text text-anchor="middle" x="125" y="-730.8" font-family="Times,serif" font-size="14.00">R3&#45;</text>
</g>
<!-- pl11&#45;&gt;transition8 -->
<g id="edge30" class="edge"><title>pl11&#45;&gt;transition8</title>
<path fill="none" stroke="black" d="M154,-762.939C154,-747.929 154,-728.273 154,-727.059"/>
</g>
<!-- transition10&#45;&gt;pl11 -->
<g id="edge29" class="edge"><title>transition10&#45;&gt;pl11</title>
<path fill="none" stroke="black" d="M146.023,-834.848C146.246,-833.368 148.065,-821.319 149.909,-809.1"/>
<polygon fill="black" stroke="black" points="153.398,-809.435 151.43,-799.025 146.477,-808.39 153.398,-809.435"/>
</g>
<!-- pl23 -->
<g id="node33" class="node"><title>pl23</title>
<ellipse fill="none" stroke="black" cx="100" cy="-781" rx="18" ry="18"/>
<text text-anchor="middle" x="100" y="-777.3" font-family="Times,serif" font-size="14.00">pl23</text>
</g>
<!-- transition10&#45;&gt;pl23 -->
<g id="edge37" class="edge"><title>transition10&#45;&gt;pl23</title>
<path fill="none" stroke="black" d="M145.868,-834.848C144.37,-833.122 130.401,-817.027 118.268,-803.048"/>
<polygon fill="black" stroke="black" points="120.643,-800.444 111.445,-795.186 115.356,-805.033 120.643,-800.444"/>
</g>
<!-- pl25 -->
<g id="node49" class="node"><title>pl25</title>
<ellipse fill="none" stroke="black" cx="46" cy="-781" rx="18" ry="18"/>
<text text-anchor="middle" x="46" y="-777.3" font-family="Times,serif" font-size="14.00">pl25</text>
</g>
<!-- transition10&#45;&gt;pl25 -->
<g id="edge57" class="edge"><title>transition10&#45;&gt;pl25</title>
<path fill="none" stroke="black" d="M145.88,-834.947C143.42,-833.854 103.584,-816.109 73,-799 71.8579,-798.361 70.6967,-797.695 69.5295,-797.013"/>
<polygon fill="black" stroke="black" points="71.0498,-793.841 60.6875,-791.634 67.4115,-799.821 71.0498,-793.841"/>
</g>
<!-- pl12 -->
<g id="node27" class="node"><title>pl12</title>
<ellipse fill="none" stroke="black" cx="154" cy="-672" rx="18" ry="18"/>
<text text-anchor="middle" x="154" y="-668.3" font-family="Times,serif" font-size="14.00">pl12</text>
</g>
<!-- transition19 -->
<g id="node30" class="node"><title>transition19</title>
<polygon fill="none" stroke="black" points="118,-618 82,-618 82,-617 118,-617 118,-618"/>
<text text-anchor="middle" x="71" y="-621.8" font-family="Times,serif" font-size="14.00">A3&#45;</text>
</g>
<!-- pl12&#45;&gt;transition19 -->
<g id="edge32" class="edge"><title>pl12&#45;&gt;transition19</title>
<path fill="none" stroke="black" d="M141.476,-658.708C126.022,-643.54 101.586,-619.556 100.074,-618.072"/>
</g>
<!-- transition8&#45;&gt;pl12 -->
<g id="edge31" class="edge"><title>transition8&#45;&gt;pl12</title>
<path fill="none" stroke="black" d="M154,-725.848C154,-724.368 154,-712.319 154,-700.1"/>
<polygon fill="black" stroke="black" points="157.5,-700.025 154,-690.025 150.5,-700.025 157.5,-700.025"/>
</g>
<!-- pl13 -->
<g id="node29" class="node"><title>pl13</title>
<ellipse fill="none" stroke="black" cx="154" cy="-563" rx="18" ry="18"/>
<text text-anchor="middle" x="154" y="-559.3" font-family="Times,serif" font-size="14.00">pl13</text>
</g>
<!-- transition9 -->
<g id="node32" class="node"><title>transition9</title>
<polygon fill="none" stroke="black" points="172,-509 136,-509 136,-508 172,-508 172,-509"/>
<text text-anchor="middle" x="123.5" y="-512.8" font-family="Times,serif" font-size="14.00">R3+</text>
</g>
<!-- pl13&#45;&gt;transition9 -->
<g id="edge34" class="edge"><title>pl13&#45;&gt;transition9</title>
<path fill="none" stroke="black" d="M154,-544.939C154,-529.929 154,-510.273 154,-509.059"/>
</g>
<!-- transition19&#45;&gt;pl13 -->
<g id="edge33" class="edge"><title>transition19&#45;&gt;pl13</title>
<path fill="none" stroke="black" d="M100.155,-616.848C101.988,-615.049 119.738,-597.628 134.365,-583.272"/>
<polygon fill="black" stroke="black" points="136.943,-585.645 141.628,-576.143 132.04,-580.649 136.943,-585.645"/>
</g>
<!-- pl15 -->
<g id="node36" class="node"><title>pl15</title>
<ellipse fill="none" stroke="black" cx="100" cy="-563" rx="18" ry="18"/>
<text text-anchor="middle" x="100" y="-559.3" font-family="Times,serif" font-size="14.00">pl15</text>
</g>
<!-- transition19&#45;&gt;pl15 -->
<g id="edge41" class="edge"><title>transition19&#45;&gt;pl15</title>
<path fill="none" stroke="black" d="M100,-616.848C100,-615.368 100,-603.319 100,-591.1"/>
<polygon fill="black" stroke="black" points="103.5,-591.025 100,-581.025 96.5001,-591.025 103.5,-591.025"/>
</g>
<!-- pl14 -->
<g id="node31" class="node"><title>pl14</title>
<ellipse fill="none" stroke="black" cx="204" cy="-454" rx="18" ry="18"/>
<text text-anchor="middle" x="204" y="-450.3" font-family="Times,serif" font-size="14.00">pl14</text>
</g>
<!-- pl14&#45;&gt;transition10 -->
<g id="edge36" class="edge"><title>pl14&#45;&gt;transition10</title>
<path fill="none" stroke="black" d="M202.97,-472.042C201.785,-493.149 200,-530.212 200,-562 200,-727 200,-727 200,-727 200,-760.095 197.291,-770.192 181,-799 170.359,-817.818 147.488,-833.961 146.069,-834.952"/>
</g>
<!-- transition9&#45;&gt;pl14 -->
<g id="edge35" class="edge"><title>transition9&#45;&gt;pl14</title>
<path fill="none" stroke="black" d="M154.143,-507.848C155.806,-506.086 171.606,-489.338 184.98,-475.161"/>
<polygon fill="black" stroke="black" points="187.739,-477.337 192.056,-467.661 182.647,-472.533 187.739,-477.337"/>
</g>
<!-- transition17 -->
<g id="node35" class="node"><title>transition17</title>
<polygon fill="none" stroke="black" points="118,-727 82,-727 82,-726 118,-726 118,-727"/>
<text text-anchor="middle" x="69" y="-730.8" font-family="Times,serif" font-size="14.00">X2+</text>
</g>
<!-- pl23&#45;&gt;transition17 -->
<g id="edge38" class="edge"><title>pl23&#45;&gt;transition17</title>
<path fill="none" stroke="black" d="M100,-762.939C100,-747.929 100,-728.273 100,-727.059"/>
</g>
<!-- pl24 -->
<g id="node34" class="node"><title>pl24</title>
<ellipse fill="none" stroke="black" cx="100" cy="-672" rx="18" ry="18"/>
<text text-anchor="middle" x="100" y="-668.3" font-family="Times,serif" font-size="14.00">pl24</text>
</g>
<!-- pl24&#45;&gt;transition19 -->
<g id="edge40" class="edge"><title>pl24&#45;&gt;transition19</title>
<path fill="none" stroke="black" d="M100,-653.939C100,-638.929 100,-619.273 100,-618.059"/>
</g>
<!-- transition17&#45;&gt;pl24 -->
<g id="edge39" class="edge"><title>transition17&#45;&gt;pl24</title>
<path fill="none" stroke="black" d="M100,-725.848C100,-724.368 100,-712.319 100,-700.1"/>
<polygon fill="black" stroke="black" points="103.5,-700.025 100,-690.025 96.5001,-700.025 103.5,-700.025"/>
</g>
<!-- transition13 -->
<g id="node38" class="node"><title>transition13</title>
<polygon fill="none" stroke="black" points="116,-509 80,-509 80,-508 116,-508 116,-509"/>
<text text-anchor="middle" x="67" y="-512.8" font-family="Times,serif" font-size="14.00">A4+</text>
</g>
<!-- pl15&#45;&gt;transition13 -->
<g id="edge42" class="edge"><title>pl15&#45;&gt;transition13</title>
<path fill="none" stroke="black" d="M99.3562,-544.939C98.7898,-529.929 98.048,-510.273 98.0022,-509.059"/>
</g>
<!-- pl16 -->
<g id="node37" class="node"><title>pl16</title>
<ellipse fill="none" stroke="black" cx="96" cy="-454" rx="18" ry="18"/>
<text text-anchor="middle" x="96" y="-450.3" font-family="Times,serif" font-size="14.00">pl16</text>
</g>
<!-- transition11 -->
<g id="node40" class="node"><title>transition11</title>
<polygon fill="none" stroke="black" points="114,-400 78,-400 78,-399 114,-399 114,-400"/>
<text text-anchor="middle" x="67" y="-403.8" font-family="Times,serif" font-size="14.00">R4&#45;</text>
</g>
<!-- pl16&#45;&gt;transition11 -->
<g id="edge44" class="edge"><title>pl16&#45;&gt;transition11</title>
<path fill="none" stroke="black" d="M96,-435.939C96,-420.929 96,-401.273 96,-400.059"/>
</g>
<!-- transition13&#45;&gt;pl16 -->
<g id="edge43" class="edge"><title>transition13&#45;&gt;pl16</title>
<path fill="none" stroke="black" d="M97.9943,-507.848C97.9384,-506.368 97.4837,-494.319 97.0227,-482.1"/>
<polygon fill="black" stroke="black" points="100.517,-481.886 96.6424,-472.025 93.5221,-482.15 100.517,-481.886"/>
</g>
<!-- pl21 -->
<g id="node45" class="node"><title>pl21</title>
<ellipse fill="none" stroke="black" cx="150" cy="-454" rx="18" ry="18"/>
<text text-anchor="middle" x="150" y="-450.3" font-family="Times,serif" font-size="14.00">pl21</text>
</g>
<!-- transition13&#45;&gt;pl21 -->
<g id="edge51" class="edge"><title>transition13&#45;&gt;pl21</title>
<path fill="none" stroke="black" d="M98.1492,-507.848C99.8883,-506.075 116.502,-489.142 130.462,-474.914"/>
<polygon fill="black" stroke="black" points="133.328,-476.99 137.833,-467.401 128.331,-472.088 133.328,-476.99"/>
</g>
<!-- pl17 -->
<g id="node39" class="node"><title>pl17</title>
<ellipse fill="none" stroke="black" cx="96" cy="-345" rx="18" ry="18"/>
<text text-anchor="middle" x="96" y="-341.3" font-family="Times,serif" font-size="14.00">pl17</text>
</g>
<!-- transition16 -->
<g id="node42" class="node"><title>transition16</title>
<polygon fill="none" stroke="black" points="141,-291 105,-291 105,-290 141,-290 141,-291"/>
<text text-anchor="middle" x="94" y="-294.8" font-family="Times,serif" font-size="14.00">A4&#45;</text>
</g>
<!-- pl17&#45;&gt;transition16 -->
<g id="edge46" class="edge"><title>pl17&#45;&gt;transition16</title>
<path fill="none" stroke="black" d="M103.81,-328.67C111.534,-313.506 122.302,-292.37 122.968,-291.064"/>
</g>
<!-- transition11&#45;&gt;pl17 -->
<g id="edge45" class="edge"><title>transition11&#45;&gt;pl17</title>
<path fill="none" stroke="black" d="M96,-398.848C96,-397.368 96,-385.319 96,-373.1"/>
<polygon fill="black" stroke="black" points="99.5001,-373.025 96,-363.025 92.5001,-373.025 99.5001,-373.025"/>
</g>
<!-- pl18 -->
<g id="node41" class="node"><title>pl18</title>
<ellipse fill="none" stroke="black" cx="96" cy="-236" rx="18" ry="18"/>
<text text-anchor="middle" x="96" y="-232.3" font-family="Times,serif" font-size="14.00">pl18</text>
</g>
<!-- transition12 -->
<g id="node44" class="node"><title>transition12</title>
<polygon fill="none" stroke="black" points="114,-182 78,-182 78,-181 114,-181 114,-182"/>
<text text-anchor="middle" x="65.5" y="-185.8" font-family="Times,serif" font-size="14.00">R4+</text>
</g>
<!-- pl18&#45;&gt;transition12 -->
<g id="edge48" class="edge"><title>pl18&#45;&gt;transition12</title>
<path fill="none" stroke="black" d="M96,-217.939C96,-202.929 96,-183.273 96,-182.059"/>
</g>
<!-- transition16&#45;&gt;pl18 -->
<g id="edge47" class="edge"><title>transition16&#45;&gt;pl18</title>
<path fill="none" stroke="black" d="M122.923,-289.848C122.116,-288.265 115.15,-274.591 108.506,-261.55"/>
<polygon fill="black" stroke="black" points="111.477,-259.669 103.819,-252.348 105.239,-262.847 111.477,-259.669"/>
</g>
<!-- pl20 -->
<g id="node48" class="node"><title>pl20</title>
<ellipse fill="none" stroke="black" cx="198" cy="-236" rx="18" ry="18"/>
<text text-anchor="middle" x="198" y="-232.3" font-family="Times,serif" font-size="14.00">pl20</text>
</g>
<!-- transition16&#45;&gt;pl20 -->
<g id="edge55" class="edge"><title>transition16&#45;&gt;pl20</title>
<path fill="none" stroke="black" d="M123.054,-289.962C124.481,-288.953 153.699,-268.306 175.223,-253.095"/>
<polygon fill="black" stroke="black" points="177.442,-255.813 183.589,-247.184 173.403,-250.096 177.442,-255.813"/>
</g>
<!-- pl19 -->
<g id="node43" class="node"><title>pl19</title>
<ellipse fill="none" stroke="black" cx="73" cy="-127" rx="18" ry="18"/>
<text text-anchor="middle" x="73" y="-123.3" font-family="Times,serif" font-size="14.00">pl19</text>
</g>
<!-- pl19&#45;&gt;transition13 -->
<g id="edge50" class="edge"><title>pl19&#45;&gt;transition13</title>
<path fill="none" stroke="black" d="M67.3146,-144.083C60.5036,-164.82 50,-202.129 50,-235 50,-400 50,-400 50,-400 50,-433.095 54.0687,-442.464 69,-472 77.9797,-489.763 96.7771,-506.895 97.9431,-507.949"/>
</g>
<!-- transition12&#45;&gt;pl19 -->
<g id="edge49" class="edge"><title>transition12&#45;&gt;pl19</title>
<path fill="none" stroke="black" d="M95.934,-180.848C95.2621,-179.3 89.5707,-166.185 84.0263,-153.409"/>
<polygon fill="black" stroke="black" points="87.0925,-151.682 79.9008,-143.902 80.671,-154.469 87.0925,-151.682"/>
</g>
<!-- transition15 -->
<g id="node47" class="node"><title>transition15</title>
<polygon fill="none" stroke="black" points="168,-400 132,-400 132,-399 168,-399 168,-400"/>
<text text-anchor="middle" x="121" y="-403.8" font-family="Times,serif" font-size="14.00">X2&#45;</text>
</g>
<!-- pl21&#45;&gt;transition15 -->
<g id="edge52" class="edge"><title>pl21&#45;&gt;transition15</title>
<path fill="none" stroke="black" d="M150,-435.939C150,-420.929 150,-401.273 150,-400.059"/>
</g>
<!-- pl22 -->
<g id="node46" class="node"><title>pl22</title>
<ellipse fill="none" stroke="black" cx="150" cy="-345" rx="18" ry="18"/>
<text text-anchor="middle" x="150" y="-341.3" font-family="Times,serif" font-size="14.00">pl22</text>
</g>
<!-- pl22&#45;&gt;transition16 -->
<g id="edge54" class="edge"><title>pl22&#45;&gt;transition16</title>
<path fill="none" stroke="black" d="M142.19,-328.67C134.466,-313.506 123.698,-292.37 123.032,-291.064"/>
</g>
<!-- transition15&#45;&gt;pl22 -->
<g id="edge53" class="edge"><title>transition15&#45;&gt;pl22</title>
<path fill="none" stroke="black" d="M150,-398.848C150,-397.368 150,-385.319 150,-373.1"/>
<polygon fill="black" stroke="black" points="153.5,-373.025 150,-363.025 146.5,-373.025 153.5,-373.025"/>
</g>
<!-- pl20&#45;&gt;transition14 -->
<g id="edge56" class="edge"><title>pl20&#45;&gt;transition14</title>
<path fill="none" stroke="black" d="M209.618,-221.899C223.101,-206.695 243.666,-183.504 244.938,-182.07"/>
</g>
<!-- transition18 -->
<g id="node51" class="node"><title>transition18</title>
<polygon fill="none" stroke="black" points="64,-727 28,-727 28,-726 64,-726 64,-727"/>
<text text-anchor="middle" x="17" y="-730.8" font-family="Times,serif" font-size="14.00">X1&#45;</text>
</g>
<!-- pl25&#45;&gt;transition18 -->
<g id="edge58" class="edge"><title>pl25&#45;&gt;transition18</title>
<path fill="none" stroke="black" d="M46,-762.939C46,-747.929 46,-728.273 46,-727.059"/>
</g>
<!-- pl26 -->
<g id="node50" class="node"><title>pl26</title>
<ellipse fill="none" stroke="black" cx="46" cy="-672" rx="18" ry="18"/>
<text text-anchor="middle" x="46" y="-668.3" font-family="Times,serif" font-size="14.00">pl26</text>
</g>
<!-- pl26&#45;&gt;transition19 -->
<g id="edge60" class="edge"><title>pl26&#45;&gt;transition19</title>
<path fill="none" stroke="black" d="M58.5244,-658.708C73.9781,-643.54 98.4141,-619.556 99.9263,-618.072"/>
</g>
<!-- transition18&#45;&gt;pl26 -->
<g id="edge59" class="edge"><title>transition18&#45;&gt;pl26</title>
<path fill="none" stroke="black" d="M46,-725.848C46,-724.368 46,-712.319 46,-700.1"/>
<polygon fill="black" stroke="black" points="49.5001,-700.025 46,-690.025 42.5001,-700.025 49.5001,-700.025"/>
</g>
<!-- transition21 -->
<g id="node54" class="node"><title>transition21</title>
<polygon fill="none" stroke="black" points="110,-1089 74,-1089 74,-1088 110,-1088 110,-1089"/>
<text text-anchor="middle" x="63" y="-1092.8" font-family="Times,serif" font-size="14.00">X0&#45;</text>
</g>
<!-- pl29&#45;&gt;transition21 -->
<g id="edge62" class="edge"><title>pl29&#45;&gt;transition21</title>
<path fill="none" stroke="black" d="M92,-1124.94C92,-1109.93 92,-1090.27 92,-1089.06"/>
</g>
<!-- pl30 -->
<g id="node53" class="node"><title>pl30</title>
<ellipse fill="none" stroke="black" cx="92" cy="-1034" rx="18" ry="18"/>
<text text-anchor="middle" x="92" y="-1030.3" font-family="Times,serif" font-size="14.00">pl30</text>
</g>
<!-- pl30&#45;&gt;transition22 -->
<g id="edge64" class="edge"><title>pl30&#45;&gt;transition22</title>
<path fill="none" stroke="black" d="M102.669,-1019.17C117.914,-999.408 144.287,-965.221 145.92,-963.103"/>
</g>
<!-- transition21&#45;&gt;pl30 -->
<g id="edge63" class="edge"><title>transition21&#45;&gt;pl30</title>
<path fill="none" stroke="black" d="M92,-1087.85C92,-1086.37 92,-1074.32 92,-1062.1"/>
<polygon fill="black" stroke="black" points="95.5001,-1062.02 92,-1052.02 88.5001,-1062.02 95.5001,-1062.02"/>
</g>
</g>
</svg>
