<?xml version="1.0" encoding="UTF-8" standalone="no"?>
<!DOCTYPE svg PUBLIC "-//W3C//DTD SVG 1.1//EN"
 "http://www.w3.org/Graphics/SVG/1.1/DTD/svg11.dtd">
<!-- Generated by graphviz version 2.38.0 (20140413.2041)
 -->
<!-- Title: %3 Pages: 1 -->
<svg width="338pt" height="1496pt"
 viewBox="0.00 0.00 338.00 1496.00" xmlns="http://www.w3.org/2000/svg" xmlns:xlink="http://www.w3.org/1999/xlink">
<g id="graph0" class="graph" transform="scale(1 1) rotate(0) translate(4 1492)">
<title>%3</title>
<polygon fill="white" stroke="none" points="-4,4 -4,-1492 334,-1492 334,4 -4,4"/>
<!-- PL1 -->
<g id="node1" class="node"><title>PL1</title>
<ellipse fill="none" stroke="black" cx="273" cy="-1470" rx="18" ry="18"/>
<text text-anchor="middle" x="273" y="-1466.3" font-family="Times,serif" font-size="14.00">PL1</text>
</g>
<!-- transition1 -->
<g id="node3" class="node"><title>transition1</title>
<polygon fill="none" stroke="black" points="234,-1416 198,-1416 198,-1415 234,-1415 234,-1416"/>
<text text-anchor="middle" x="187" y="-1419.8" font-family="Times,serif" font-size="14.00">R1&#45;</text>
</g>
<!-- PL1&#45;&gt;transition1 -->
<g id="edge1" class="edge"><title>PL1&#45;&gt;transition1</title>
<path fill="none" stroke="black" d="M260.066,-1456.97C247.083,-1444.9 227.884,-1427.05 219.804,-1419.54"/>
<polygon fill="none" stroke="black" points="220.932,-1418.2 216.079,-1416.07 218.549,-1420.76 220.932,-1418.2"/>
</g>
<!-- PL3 -->
<g id="node2" class="node"><title>PL3</title>
<ellipse fill="none" stroke="black" cx="207" cy="-1361" rx="18" ry="18"/>
<text text-anchor="middle" x="207" y="-1357.3" font-family="Times,serif" font-size="14.00">PL3</text>
</g>
<!-- transition4 -->
<g id="node5" class="node"><title>transition4</title>
<polygon fill="none" stroke="black" points="191,-1307 155,-1307 155,-1306 191,-1306 191,-1307"/>
<text text-anchor="middle" x="144" y="-1310.8" font-family="Times,serif" font-size="14.00">A1&#45;</text>
</g>
<!-- PL3&#45;&gt;transition4 -->
<g id="edge3" class="edge"><title>PL3&#45;&gt;transition4</title>
<path fill="none" stroke="black" d="M197.709,-1345.52C190.395,-1334.12 180.666,-1318.95 175.891,-1311.51"/>
<polygon fill="none" stroke="black" points="177.215,-1310.33 173.042,-1307.07 174.269,-1312.22 177.215,-1310.33"/>
</g>
<!-- transition1&#45;&gt;PL3 -->
<g id="edge2" class="edge"><title>transition1&#45;&gt;PL3</title>
<path fill="none" stroke="black" d="M215.974,-1414.85C215.723,-1413.37 213.677,-1401.32 211.602,-1389.1"/>
<polygon fill="black" stroke="black" points="215.016,-1388.3 209.891,-1379.02 208.115,-1389.47 215.016,-1388.3"/>
</g>
<!-- PL6 -->
<g id="node4" class="node"><title>PL6</title>
<ellipse fill="none" stroke="black" cx="156" cy="-1252" rx="18" ry="18"/>
<text text-anchor="middle" x="156" y="-1248.3" font-family="Times,serif" font-size="14.00">PL6</text>
</g>
<!-- transition7 -->
<g id="node7" class="node"><title>transition7</title>
<polygon fill="none" stroke="black" points="166,-1198 130,-1198 130,-1197 166,-1197 166,-1198"/>
<text text-anchor="middle" x="117" y="-1201.8" font-family="Times,serif" font-size="14.00">A2+</text>
</g>
<!-- PL6&#45;&gt;transition7 -->
<g id="edge5" class="edge"><title>PL6&#45;&gt;transition7</title>
<path fill="none" stroke="black" d="M153.425,-1233.94C151.832,-1223.39 149.892,-1210.53 148.817,-1203.41"/>
<polygon fill="none" stroke="black" points="150.486,-1202.74 148.009,-1198.06 147.025,-1203.26 150.486,-1202.74"/>
</g>
<!-- transition4&#45;&gt;PL6 -->
<g id="edge4" class="edge"><title>transition4&#45;&gt;PL6</title>
<path fill="none" stroke="black" d="M172.951,-1305.85C172.466,-1304.33 168.433,-1291.76 164.423,-1279.26"/>
<polygon fill="black" stroke="black" points="167.667,-1277.91 161.28,-1269.46 161.001,-1280.05 167.667,-1277.91"/>
</g>
<!-- PL4 -->
<g id="node40" class="node"><title>PL4</title>
<ellipse fill="none" stroke="black" cx="230" cy="-1252" rx="18" ry="18"/>
<text text-anchor="middle" x="230" y="-1248.3" font-family="Times,serif" font-size="14.00">PL4</text>
</g>
<!-- transition4&#45;&gt;PL4 -->
<g id="edge45" class="edge"><title>transition4&#45;&gt;PL4</title>
<path fill="none" stroke="black" d="M173.164,-1305.85C175.11,-1304.04 194.05,-1286.43 209.54,-1272.02"/>
<polygon fill="black" stroke="black" points="212.277,-1274.26 217.217,-1264.89 207.51,-1269.13 212.277,-1274.26"/>
</g>
<!-- PL30 -->
<g id="node6" class="node"><title>PL30</title>
<ellipse fill="none" stroke="black" cx="94" cy="-1143" rx="18" ry="18"/>
<text text-anchor="middle" x="94" y="-1139.3" font-family="Times,serif" font-size="14.00">PL30</text>
</g>
<!-- transition21 -->
<g id="node9" class="node"><title>transition21</title>
<polygon fill="none" stroke="black" points="112,-1089 76,-1089 76,-1088 112,-1088 112,-1089"/>
<text text-anchor="middle" x="65" y="-1092.8" font-family="Times,serif" font-size="14.00">X0&#45;</text>
</g>
<!-- PL30&#45;&gt;transition21 -->
<g id="edge7" class="edge"><title>PL30&#45;&gt;transition21</title>
<path fill="none" stroke="black" d="M94,-1124.94C94,-1114.39 94,-1101.53 94,-1094.41"/>
<polygon fill="none" stroke="black" points="95.7501,-1094.06 94,-1089.06 92.2501,-1094.06 95.7501,-1094.06"/>
</g>
<!-- transition7&#45;&gt;PL30 -->
<g id="edge6" class="edge"><title>transition7&#45;&gt;PL30</title>
<path fill="none" stroke="black" d="M147.845,-1196.85C146.012,-1195.05 128.262,-1177.63 113.635,-1163.27"/>
<polygon fill="black" stroke="black" points="115.96,-1160.65 106.372,-1156.14 111.057,-1165.65 115.96,-1160.65"/>
</g>
<!-- PL7 -->
<g id="node14" class="node"><title>PL7</title>
<ellipse fill="none" stroke="black" cx="148" cy="-1143" rx="18" ry="18"/>
<text text-anchor="middle" x="148" y="-1139.3" font-family="Times,serif" font-size="14.00">PL7</text>
</g>
<!-- transition7&#45;&gt;PL7 -->
<g id="edge14" class="edge"><title>transition7&#45;&gt;PL7</title>
<path fill="none" stroke="black" d="M148,-1196.85C148,-1195.37 148,-1183.32 148,-1171.1"/>
<polygon fill="black" stroke="black" points="151.5,-1171.02 148,-1161.02 144.5,-1171.02 151.5,-1171.02"/>
</g>
<!-- PL28 -->
<g id="node52" class="node"><title>PL28</title>
<ellipse fill="none" stroke="black" cx="202" cy="-1143" rx="18" ry="18"/>
<text text-anchor="middle" x="202" y="-1139.3" font-family="Times,serif" font-size="14.00">PL28</text>
</g>
<!-- transition7&#45;&gt;PL28 -->
<g id="edge61" class="edge"><title>transition7&#45;&gt;PL28</title>
<path fill="none" stroke="black" d="M148.155,-1196.85C149.988,-1195.05 167.738,-1177.63 182.365,-1163.27"/>
<polygon fill="black" stroke="black" points="184.943,-1165.65 189.628,-1156.14 180.04,-1160.65 184.943,-1165.65"/>
</g>
<!-- PL31 -->
<g id="node8" class="node"><title>PL31</title>
<ellipse fill="none" stroke="black" cx="94" cy="-1034" rx="18" ry="18"/>
<text text-anchor="middle" x="94" y="-1030.3" font-family="Times,serif" font-size="14.00">PL31</text>
</g>
<!-- transition22 -->
<g id="node11" class="node"><title>transition22</title>
<polygon fill="none" stroke="black" points="166,-962.5 130,-962.5 130,-961.5 166,-961.5 166,-962.5"/>
<text text-anchor="middle" x="119" y="-966.3" font-family="Times,serif" font-size="14.00">A2&#45;</text>
</g>
<!-- PL31&#45;&gt;transition22 -->
<g id="edge9" class="edge"><title>PL31&#45;&gt;transition22</title>
<path fill="none" stroke="black" d="M104.669,-1019.17C117.175,-1002.96 137.168,-977.041 144.852,-967.081"/>
<polygon fill="none" stroke="black" points="146.252,-968.131 147.92,-963.103 143.481,-965.993 146.252,-968.131"/>
</g>
<!-- transition21&#45;&gt;PL31 -->
<g id="edge8" class="edge"><title>transition21&#45;&gt;PL31</title>
<path fill="none" stroke="black" d="M94,-1087.85C94,-1086.37 94,-1074.32 94,-1062.1"/>
<polygon fill="black" stroke="black" points="97.5001,-1062.02 94,-1052.02 90.5001,-1062.02 97.5001,-1062.02"/>
</g>
<!-- PL9 -->
<g id="node10" class="node"><title>PL9</title>
<ellipse fill="none" stroke="black" cx="94" cy="-890" rx="18" ry="18"/>
<text text-anchor="middle" x="94" y="-886.3" font-family="Times,serif" font-size="14.00">PL9</text>
</g>
<!-- transition6 -->
<g id="node13" class="node"><title>transition6</title>
<polygon fill="none" stroke="black" points="111,-836 75,-836 75,-835 111,-835 111,-836"/>
<text text-anchor="middle" x="62.5" y="-839.8" font-family="Times,serif" font-size="14.00">R2+</text>
</g>
<!-- PL9&#45;&gt;transition6 -->
<g id="edge11" class="edge"><title>PL9&#45;&gt;transition6</title>
<path fill="none" stroke="black" d="M93.6781,-871.939C93.479,-861.385 93.2365,-848.534 93.1021,-841.412"/>
<polygon fill="none" stroke="black" points="94.8452,-841.025 93.0011,-836.059 91.3458,-841.091 94.8452,-841.025"/>
</g>
<!-- transition22&#45;&gt;PL9 -->
<g id="edge10" class="edge"><title>transition22&#45;&gt;PL9</title>
<path fill="none" stroke="black" d="M147.961,-960.949C146.944,-959.631 126.311,-932.884 110.86,-912.856"/>
<polygon fill="black" stroke="black" points="113.508,-910.558 104.628,-904.778 107.965,-914.833 113.508,-910.558"/>
</g>
<!-- PL11 -->
<g id="node17" class="node"><title>PL11</title>
<ellipse fill="none" stroke="black" cx="152" cy="-890" rx="18" ry="18"/>
<text text-anchor="middle" x="152" y="-886.3" font-family="Times,serif" font-size="14.00">PL11</text>
</g>
<!-- transition22&#45;&gt;PL11 -->
<g id="edge18" class="edge"><title>transition22&#45;&gt;PL11</title>
<path fill="none" stroke="black" d="M148.003,-960.949C148.072,-959.748 149.347,-937.429 150.439,-918.321"/>
<polygon fill="black" stroke="black" points="153.941,-918.375 151.018,-908.191 146.953,-917.975 153.941,-918.375"/>
</g>
<!-- PL10 -->
<g id="node12" class="node"><title>PL10</title>
<ellipse fill="none" stroke="black" cx="46" cy="-781" rx="18" ry="18"/>
<text text-anchor="middle" x="46" y="-777.3" font-family="Times,serif" font-size="14.00">PL10</text>
</g>
<!-- PL10&#45;&gt;transition7 -->
<g id="edge13" class="edge"><title>PL10&#45;&gt;transition7</title>
<path fill="none" stroke="black" d="M46,-799.049C46,-820.164 46,-857.234 46,-889 46,-1089 46,-1089 46,-1089 46,-1122.33 45.0661,-1135.9 67,-1161 87.9927,-1185.02 128.105,-1193.75 142.603,-1196.2"/>
<polygon fill="none" stroke="black" points="142.637,-1197.97 147.841,-1196.98 143.156,-1194.51 142.637,-1197.97"/>
</g>
<!-- transition6&#45;&gt;PL10 -->
<g id="edge12" class="edge"><title>transition6&#45;&gt;PL10</title>
<path fill="none" stroke="black" d="M92.8652,-834.848C91.3115,-833.096 76.6227,-816.532 64.0982,-802.409"/>
<polygon fill="black" stroke="black" points="66.7135,-800.083 57.4599,-794.923 61.4762,-804.727 66.7135,-800.083"/>
</g>
<!-- transition5 -->
<g id="node16" class="node"><title>transition5</title>
<polygon fill="none" stroke="black" points="166,-1089 130,-1089 130,-1088 166,-1088 166,-1089"/>
<text text-anchor="middle" x="119" y="-1092.8" font-family="Times,serif" font-size="14.00">R2&#45;</text>
</g>
<!-- PL7&#45;&gt;transition5 -->
<g id="edge15" class="edge"><title>PL7&#45;&gt;transition5</title>
<path fill="none" stroke="black" d="M148,-1124.94C148,-1114.39 148,-1101.53 148,-1094.41"/>
<polygon fill="none" stroke="black" points="149.75,-1094.06 148,-1089.06 146.25,-1094.06 149.75,-1094.06"/>
</g>
<!-- PL8 -->
<g id="node15" class="node"><title>PL8</title>
<ellipse fill="none" stroke="black" cx="148" cy="-1034" rx="18" ry="18"/>
<text text-anchor="middle" x="148" y="-1030.3" font-family="Times,serif" font-size="14.00">PL8</text>
</g>
<!-- PL8&#45;&gt;transition22 -->
<g id="edge17" class="edge"><title>PL8&#45;&gt;transition22</title>
<path fill="none" stroke="black" d="M148,-1015.7C148,-1000.17 148,-978.324 148,-968.348"/>
<polygon fill="none" stroke="black" points="149.75,-968.092 148,-963.092 146.25,-968.092 149.75,-968.092"/>
</g>
<!-- transition5&#45;&gt;PL8 -->
<g id="edge16" class="edge"><title>transition5&#45;&gt;PL8</title>
<path fill="none" stroke="black" d="M148,-1087.85C148,-1086.37 148,-1074.32 148,-1062.1"/>
<polygon fill="black" stroke="black" points="151.5,-1062.02 148,-1052.02 144.5,-1062.02 151.5,-1062.02"/>
</g>
<!-- transition10 -->
<g id="node19" class="node"><title>transition10</title>
<polygon fill="none" stroke="black" points="172,-836 136,-836 136,-835 172,-835 172,-836"/>
<text text-anchor="middle" x="123" y="-839.8" font-family="Times,serif" font-size="14.00">A3+</text>
</g>
<!-- PL11&#45;&gt;transition10 -->
<g id="edge19" class="edge"><title>PL11&#45;&gt;transition10</title>
<path fill="none" stroke="black" d="M152.644,-871.939C153.042,-861.385 153.527,-848.534 153.796,-841.412"/>
<polygon fill="none" stroke="black" points="155.558,-841.122 153.998,-836.059 152.06,-840.99 155.558,-841.122"/>
</g>
<!-- PL26 -->
<g id="node18" class="node"><title>PL26</title>
<ellipse fill="none" stroke="black" cx="100" cy="-781" rx="18" ry="18"/>
<text text-anchor="middle" x="100" y="-777.3" font-family="Times,serif" font-size="14.00">PL26</text>
</g>
<!-- transition18 -->
<g id="node21" class="node"><title>transition18</title>
<polygon fill="none" stroke="black" points="118,-727 82,-727 82,-726 118,-726 118,-727"/>
<text text-anchor="middle" x="71" y="-730.8" font-family="Times,serif" font-size="14.00">X1&#45;</text>
</g>
<!-- PL26&#45;&gt;transition18 -->
<g id="edge21" class="edge"><title>PL26&#45;&gt;transition18</title>
<path fill="none" stroke="black" d="M100,-762.939C100,-752.385 100,-739.534 100,-732.412"/>
<polygon fill="none" stroke="black" points="101.75,-732.059 100,-727.059 98.2501,-732.059 101.75,-732.059"/>
</g>
<!-- transition10&#45;&gt;PL26 -->
<g id="edge20" class="edge"><title>transition10&#45;&gt;PL26</title>
<path fill="none" stroke="black" d="M153.845,-834.848C152.012,-833.049 134.262,-815.628 119.635,-801.272"/>
<polygon fill="black" stroke="black" points="121.96,-798.649 112.372,-794.143 117.057,-803.645 121.96,-798.649"/>
</g>
<!-- PL12 -->
<g id="node46" class="node"><title>PL12</title>
<ellipse fill="none" stroke="black" cx="154" cy="-781" rx="18" ry="18"/>
<text text-anchor="middle" x="154" y="-777.3" font-family="Times,serif" font-size="14.00">PL12</text>
</g>
<!-- transition10&#45;&gt;PL12 -->
<g id="edge53" class="edge"><title>transition10&#45;&gt;PL12</title>
<path fill="none" stroke="black" d="M154,-834.848C154,-833.368 154,-821.319 154,-809.1"/>
<polygon fill="black" stroke="black" points="157.5,-809.025 154,-799.025 150.5,-809.025 157.5,-809.025"/>
</g>
<!-- PL24 -->
<g id="node49" class="node"><title>PL24</title>
<ellipse fill="none" stroke="black" cx="208" cy="-781" rx="18" ry="18"/>
<text text-anchor="middle" x="208" y="-777.3" font-family="Times,serif" font-size="14.00">PL24</text>
</g>
<!-- transition10&#45;&gt;PL24 -->
<g id="edge57" class="edge"><title>transition10&#45;&gt;PL24</title>
<path fill="none" stroke="black" d="M154.155,-834.848C155.988,-833.049 173.738,-815.628 188.365,-801.272"/>
<polygon fill="black" stroke="black" points="190.943,-803.645 195.628,-794.143 186.04,-798.649 190.943,-803.645"/>
</g>
<!-- PL27 -->
<g id="node20" class="node"><title>PL27</title>
<ellipse fill="none" stroke="black" cx="100" cy="-672" rx="18" ry="18"/>
<text text-anchor="middle" x="100" y="-668.3" font-family="Times,serif" font-size="14.00">PL27</text>
</g>
<!-- transition19 -->
<g id="node23" class="node"><title>transition19</title>
<polygon fill="none" stroke="black" points="172,-618 136,-618 136,-617 172,-617 172,-618"/>
<text text-anchor="middle" x="125" y="-621.8" font-family="Times,serif" font-size="14.00">A3&#45;</text>
</g>
<!-- PL27&#45;&gt;transition19 -->
<g id="edge23" class="edge"><title>PL27&#45;&gt;transition19</title>
<path fill="none" stroke="black" d="M112.524,-658.708C124.598,-646.858 142.153,-629.627 149.977,-621.948"/>
<polygon fill="none" stroke="black" points="151.584,-622.824 153.926,-618.072 149.132,-620.326 151.584,-622.824"/>
</g>
<!-- transition18&#45;&gt;PL27 -->
<g id="edge22" class="edge"><title>transition18&#45;&gt;PL27</title>
<path fill="none" stroke="black" d="M100,-725.848C100,-724.368 100,-712.319 100,-700.1"/>
<polygon fill="black" stroke="black" points="103.5,-700.025 100,-690.025 96.5001,-700.025 103.5,-700.025"/>
</g>
<!-- PL16 -->
<g id="node22" class="node"><title>PL16</title>
<ellipse fill="none" stroke="black" cx="142" cy="-563" rx="18" ry="18"/>
<text text-anchor="middle" x="142" y="-559.3" font-family="Times,serif" font-size="14.00">PL16</text>
</g>
<!-- transition13 -->
<g id="node25" class="node"><title>transition13</title>
<polygon fill="none" stroke="black" points="158,-509 122,-509 122,-508 158,-508 158,-509"/>
<text text-anchor="middle" x="109" y="-512.8" font-family="Times,serif" font-size="14.00">A4+</text>
</g>
<!-- PL16&#45;&gt;transition13 -->
<g id="edge25" class="edge"><title>PL16&#45;&gt;transition13</title>
<path fill="none" stroke="black" d="M141.356,-544.939C140.958,-534.385 140.473,-521.534 140.204,-514.412"/>
<polygon fill="none" stroke="black" points="141.94,-513.99 140.002,-509.059 138.442,-514.122 141.94,-513.99"/>
</g>
<!-- transition19&#45;&gt;PL16 -->
<g id="edge24" class="edge"><title>transition19&#45;&gt;PL16</title>
<path fill="none" stroke="black" d="M153.966,-616.848C153.625,-615.344 150.812,-602.919 147.999,-590.496"/>
<polygon fill="black" stroke="black" points="151.413,-589.722 145.791,-580.742 144.585,-591.268 151.413,-589.722"/>
</g>
<!-- PL14 -->
<g id="node43" class="node"><title>PL14</title>
<ellipse fill="none" stroke="black" cx="204" cy="-563" rx="18" ry="18"/>
<text text-anchor="middle" x="204" y="-559.3" font-family="Times,serif" font-size="14.00">PL14</text>
</g>
<!-- transition19&#45;&gt;PL14 -->
<g id="edge49" class="edge"><title>transition19&#45;&gt;PL14</title>
<path fill="none" stroke="black" d="M154.143,-616.848C155.806,-615.086 171.606,-598.338 184.98,-584.161"/>
<polygon fill="black" stroke="black" points="187.739,-586.337 192.056,-576.661 182.647,-581.533 187.739,-586.337"/>
</g>
<!-- PL22 -->
<g id="node24" class="node"><title>PL22</title>
<ellipse fill="none" stroke="black" cx="138" cy="-454" rx="18" ry="18"/>
<text text-anchor="middle" x="138" y="-450.3" font-family="Times,serif" font-size="14.00">PL22</text>
</g>
<!-- transition15 -->
<g id="node27" class="node"><title>transition15</title>
<polygon fill="none" stroke="black" points="156,-400 120,-400 120,-399 156,-399 156,-400"/>
<text text-anchor="middle" x="109" y="-403.8" font-family="Times,serif" font-size="14.00">X2&#45;</text>
</g>
<!-- PL22&#45;&gt;transition15 -->
<g id="edge27" class="edge"><title>PL22&#45;&gt;transition15</title>
<path fill="none" stroke="black" d="M138,-435.939C138,-425.385 138,-412.534 138,-405.412"/>
<polygon fill="none" stroke="black" points="139.75,-405.059 138,-400.059 136.25,-405.059 139.75,-405.059"/>
</g>
<!-- transition13&#45;&gt;PL22 -->
<g id="edge26" class="edge"><title>transition13&#45;&gt;PL22</title>
<path fill="none" stroke="black" d="M139.994,-507.848C139.938,-506.368 139.484,-494.319 139.023,-482.1"/>
<polygon fill="black" stroke="black" points="142.517,-481.886 138.642,-472.025 135.522,-482.15 142.517,-481.886"/>
</g>
<!-- PL17 -->
<g id="node32" class="node"><title>PL17</title>
<ellipse fill="none" stroke="black" cx="192" cy="-454" rx="18" ry="18"/>
<text text-anchor="middle" x="192" y="-450.3" font-family="Times,serif" font-size="14.00">PL17</text>
</g>
<!-- transition13&#45;&gt;PL17 -->
<g id="edge34" class="edge"><title>transition13&#45;&gt;PL17</title>
<path fill="none" stroke="black" d="M140.149,-507.848C141.888,-506.075 158.502,-489.142 172.462,-474.914"/>
<polygon fill="black" stroke="black" points="175.328,-476.99 179.833,-467.401 170.331,-472.088 175.328,-476.99"/>
</g>
<!-- PL23 -->
<g id="node26" class="node"><title>PL23</title>
<ellipse fill="none" stroke="black" cx="138" cy="-345" rx="18" ry="18"/>
<text text-anchor="middle" x="138" y="-341.3" font-family="Times,serif" font-size="14.00">PL23</text>
</g>
<!-- transition16 -->
<g id="node29" class="node"><title>transition16</title>
<polygon fill="none" stroke="black" points="183,-291 147,-291 147,-290 183,-290 183,-291"/>
<text text-anchor="middle" x="136" y="-294.8" font-family="Times,serif" font-size="14.00">A4&#45;</text>
</g>
<!-- PL23&#45;&gt;transition16 -->
<g id="edge29" class="edge"><title>PL23&#45;&gt;transition16</title>
<path fill="none" stroke="black" d="M145.81,-328.67C151.483,-317.534 158.796,-303.177 162.545,-295.818"/>
<polygon fill="none" stroke="black" points="164.257,-296.313 164.968,-291.064 161.139,-294.724 164.257,-296.313"/>
</g>
<!-- transition15&#45;&gt;PL23 -->
<g id="edge28" class="edge"><title>transition15&#45;&gt;PL23</title>
<path fill="none" stroke="black" d="M138,-398.848C138,-397.368 138,-385.319 138,-373.1"/>
<polygon fill="black" stroke="black" points="141.5,-373.025 138,-363.025 134.5,-373.025 141.5,-373.025"/>
</g>
<!-- PL19 -->
<g id="node28" class="node"><title>PL19</title>
<ellipse fill="none" stroke="black" cx="152" cy="-236" rx="18" ry="18"/>
<text text-anchor="middle" x="152" y="-232.3" font-family="Times,serif" font-size="14.00">PL19</text>
</g>
<!-- transition12 -->
<g id="node31" class="node"><title>transition12</title>
<polygon fill="none" stroke="black" points="163,-182 127,-182 127,-181 163,-181 163,-182"/>
<text text-anchor="middle" x="114.5" y="-185.8" font-family="Times,serif" font-size="14.00">R4+</text>
</g>
<!-- PL19&#45;&gt;transition12 -->
<g id="edge31" class="edge"><title>PL19&#45;&gt;transition12</title>
<path fill="none" stroke="black" d="M149.747,-217.939C148.353,-207.385 146.655,-194.534 145.715,-187.412"/>
<polygon fill="none" stroke="black" points="147.398,-186.787 145.008,-182.059 143.928,-187.245 147.398,-186.787"/>
</g>
<!-- transition16&#45;&gt;PL19 -->
<g id="edge30" class="edge"><title>transition16&#45;&gt;PL19</title>
<path fill="none" stroke="black" d="M164.963,-289.848C164.594,-288.344 161.546,-275.919 158.499,-263.496"/>
<polygon fill="black" stroke="black" points="161.888,-262.621 156.107,-253.742 155.09,-264.288 161.888,-262.621"/>
</g>
<!-- PL21 -->
<g id="node35" class="node"><title>PL21</title>
<ellipse fill="none" stroke="black" cx="226" cy="-236" rx="18" ry="18"/>
<text text-anchor="middle" x="226" y="-232.3" font-family="Times,serif" font-size="14.00">PL21</text>
</g>
<!-- transition16&#45;&gt;PL21 -->
<g id="edge38" class="edge"><title>transition16&#45;&gt;PL21</title>
<path fill="none" stroke="black" d="M165.044,-289.962C166.148,-289.003 187.697,-270.28 204.863,-255.365"/>
<polygon fill="black" stroke="black" points="207.576,-257.644 212.83,-248.443 202.985,-252.36 207.576,-257.644"/>
</g>
<!-- PL20 -->
<g id="node30" class="node"><title>PL20</title>
<ellipse fill="none" stroke="black" cx="118" cy="-127" rx="18" ry="18"/>
<text text-anchor="middle" x="118" y="-123.3" font-family="Times,serif" font-size="14.00">PL20</text>
</g>
<!-- PL20&#45;&gt;transition13 -->
<g id="edge33" class="edge"><title>PL20&#45;&gt;transition13</title>
<path fill="none" stroke="black" d="M111.573,-144.02C103.874,-164.69 92,-201.928 92,-235 92,-400 92,-400 92,-400 92,-433.095 96.0687,-442.464 111,-472 117.735,-485.322 129.992,-498.29 136.192,-504.385"/>
<polygon fill="none" stroke="black" points="135.113,-505.774 139.943,-507.949 137.523,-503.236 135.113,-505.774"/>
</g>
<!-- transition12&#45;&gt;PL20 -->
<g id="edge32" class="edge"><title>transition12&#45;&gt;PL20</title>
<path fill="none" stroke="black" d="M144.923,-180.848C144.116,-179.265 137.15,-165.591 130.506,-152.55"/>
<polygon fill="black" stroke="black" points="133.477,-150.669 125.819,-143.348 127.239,-153.847 133.477,-150.669"/>
</g>
<!-- transition11 -->
<g id="node34" class="node"><title>transition11</title>
<polygon fill="none" stroke="black" points="210,-400 174,-400 174,-399 210,-399 210,-400"/>
<text text-anchor="middle" x="163" y="-403.8" font-family="Times,serif" font-size="14.00">R4&#45;</text>
</g>
<!-- PL17&#45;&gt;transition11 -->
<g id="edge35" class="edge"><title>PL17&#45;&gt;transition11</title>
<path fill="none" stroke="black" d="M192,-435.939C192,-425.385 192,-412.534 192,-405.412"/>
<polygon fill="none" stroke="black" points="193.75,-405.059 192,-400.059 190.25,-405.059 193.75,-405.059"/>
</g>
<!-- PL18 -->
<g id="node33" class="node"><title>PL18</title>
<ellipse fill="none" stroke="black" cx="192" cy="-345" rx="18" ry="18"/>
<text text-anchor="middle" x="192" y="-341.3" font-family="Times,serif" font-size="14.00">PL18</text>
</g>
<!-- PL18&#45;&gt;transition16 -->
<g id="edge37" class="edge"><title>PL18&#45;&gt;transition16</title>
<path fill="none" stroke="black" d="M184.19,-328.67C178.517,-317.534 171.204,-303.177 167.455,-295.818"/>
<polygon fill="none" stroke="black" points="168.861,-294.724 165.032,-291.064 165.743,-296.313 168.861,-294.724"/>
</g>
<!-- transition11&#45;&gt;PL18 -->
<g id="edge36" class="edge"><title>transition11&#45;&gt;PL18</title>
<path fill="none" stroke="black" d="M192,-398.848C192,-397.368 192,-385.319 192,-373.1"/>
<polygon fill="black" stroke="black" points="195.5,-373.025 192,-363.025 188.5,-373.025 195.5,-373.025"/>
</g>
<!-- transition14 -->
<g id="node36" class="node"><title>transition14</title>
<polygon fill="none" stroke="black" points="277,-182 241,-182 241,-181 277,-181 277,-182"/>
<text text-anchor="middle" x="228" y="-185.8" font-family="Times,serif" font-size="14.00">A1+</text>
</g>
<!-- PL21&#45;&gt;transition14 -->
<g id="edge39" class="edge"><title>PL21&#45;&gt;transition14</title>
<path fill="none" stroke="black" d="M235.192,-220.237C242.287,-208.842 251.64,-193.821 256.225,-186.457"/>
<polygon fill="none" stroke="black" points="257.802,-187.235 258.959,-182.065 254.831,-185.385 257.802,-187.235"/>
</g>
<!-- transition14&#45;&gt;PL1 -->
<g id="edge40" class="edge"><title>transition14&#45;&gt;PL1</title>
<path fill="none" stroke="black" d="M259.051,-182.037C261.201,-183.582 330,-233.454 330,-290 330,-1362 330,-1362 330,-1362 330,-1395.3 308.232,-1428.3 291.6,-1448.66"/>
<polygon fill="black" stroke="black" points="288.897,-1446.44 285.088,-1456.33 294.231,-1450.97 288.897,-1446.44"/>
</g>
<!-- PL2 -->
<g id="node37" class="node"><title>PL2</title>
<ellipse fill="none" stroke="black" cx="215" cy="-127" rx="18" ry="18"/>
<text text-anchor="middle" x="215" y="-123.3" font-family="Times,serif" font-size="14.00">PL2</text>
</g>
<!-- transition14&#45;&gt;PL2 -->
<g id="edge41" class="edge"><title>transition14&#45;&gt;PL2</title>
<path fill="none" stroke="black" d="M258.874,-180.848C257.45,-179.132 244.236,-163.216 232.679,-149.295"/>
<polygon fill="black" stroke="black" points="235.248,-146.91 226.167,-141.451 229.862,-151.381 235.248,-146.91"/>
</g>
<!-- transition3 -->
<g id="node39" class="node"><title>transition3</title>
<polygon fill="none" stroke="black" points="148,-73 112,-73 112,-72 148,-72 148,-73"/>
<text text-anchor="middle" x="99" y="-76.8" font-family="Times,serif" font-size="14.00">X0+</text>
</g>
<!-- PL2&#45;&gt;transition3 -->
<g id="edge42" class="edge"><title>PL2&#45;&gt;transition3</title>
<path fill="none" stroke="black" d="M199.804,-116.525C180.005,-104.179 146.495,-83.2854 134.466,-75.7845"/>
<polygon fill="none" stroke="black" points="135.3,-74.2422 130.131,-73.0816 133.448,-77.2121 135.3,-74.2422"/>
</g>
<!-- PL32 -->
<g id="node38" class="node"><title>PL32</title>
<ellipse fill="none" stroke="black" cx="65" cy="-18" rx="18" ry="18"/>
<text text-anchor="middle" x="65" y="-14.3" font-family="Times,serif" font-size="14.00">PL32</text>
</g>
<!-- PL32&#45;&gt;transition4 -->
<g id="edge44" class="edge"><title>PL32&#45;&gt;transition4</title>
<path fill="none" stroke="black" d="M51.8463,-30.7369C32.8531,-49.0491 0,-86.4416 0,-126 0,-1198 0,-1198 0,-1198 0,-1279.21 138.867,-1301.59 167.769,-1305.37"/>
<polygon fill="none" stroke="black" points="167.701,-1307.13 172.875,-1305.99 168.119,-1303.65 167.701,-1307.13"/>
</g>
<!-- transition3&#45;&gt;PL32 -->
<g id="edge43" class="edge"><title>transition3&#45;&gt;PL32</title>
<path fill="none" stroke="black" d="M129.953,-71.9616C128.759,-70.9885 105.132,-51.7233 86.7159,-36.7068"/>
<polygon fill="black" stroke="black" points="88.6823,-33.7942 78.7203,-30.1873 84.2587,-39.2193 88.6823,-33.7942"/>
</g>
<!-- transition2 -->
<g id="node42" class="node"><title>transition2</title>
<polygon fill="none" stroke="black" points="261,-1198 225,-1198 225,-1197 261,-1197 261,-1198"/>
<text text-anchor="middle" x="212.5" y="-1201.8" font-family="Times,serif" font-size="14.00">R1+</text>
</g>
<!-- PL4&#45;&gt;transition2 -->
<g id="edge46" class="edge"><title>PL4&#45;&gt;transition2</title>
<path fill="none" stroke="black" d="M234.113,-1234.23C236.765,-1223.42 240.033,-1210.1 241.773,-1203"/>
<polygon fill="none" stroke="black" points="243.494,-1203.33 242.985,-1198.06 240.095,-1202.5 243.494,-1203.33"/>
</g>
<!-- PL5 -->
<g id="node41" class="node"><title>PL5</title>
<ellipse fill="none" stroke="black" cx="284" cy="-962" rx="18" ry="18"/>
<text text-anchor="middle" x="284" y="-958.3" font-family="Times,serif" font-size="14.00">PL5</text>
</g>
<!-- PL5&#45;&gt;transition14 -->
<g id="edge48" class="edge"><title>PL5&#45;&gt;transition14</title>
<path fill="none" stroke="black" d="M285.775,-944.039C288.132,-920.02 292,-874.708 292,-836 292,-836 292,-836 292,-290 292,-248.595 269.542,-202.005 261.68,-186.963"/>
<polygon fill="none" stroke="black" points="263.007,-185.738 259.095,-182.167 259.926,-187.399 263.007,-185.738"/>
</g>
<!-- transition2&#45;&gt;PL5 -->
<g id="edge47" class="edge"><title>transition2&#45;&gt;PL5</title>
<path fill="none" stroke="black" d="M243.007,-1196.96C243.504,-1194.13 268.592,-1050.94 279.27,-989.995"/>
<polygon fill="black" stroke="black" points="282.751,-990.409 281.029,-979.955 275.856,-989.201 282.751,-990.409"/>
</g>
<!-- transition9 -->
<g id="node45" class="node"><title>transition9</title>
<polygon fill="none" stroke="black" points="224,-509 188,-509 188,-508 224,-508 224,-509"/>
<text text-anchor="middle" x="175.5" y="-512.8" font-family="Times,serif" font-size="14.00">R3+</text>
</g>
<!-- PL14&#45;&gt;transition9 -->
<g id="edge50" class="edge"><title>PL14&#45;&gt;transition9</title>
<path fill="none" stroke="black" d="M204.644,-544.939C205.042,-534.385 205.527,-521.534 205.796,-514.412"/>
<polygon fill="none" stroke="black" points="207.558,-514.122 205.998,-509.059 204.06,-513.99 207.558,-514.122"/>
</g>
<!-- PL15 -->
<g id="node44" class="node"><title>PL15</title>
<ellipse fill="none" stroke="black" cx="246" cy="-454" rx="18" ry="18"/>
<text text-anchor="middle" x="246" y="-450.3" font-family="Times,serif" font-size="14.00">PL15</text>
</g>
<!-- PL15&#45;&gt;transition10 -->
<g id="edge52" class="edge"><title>PL15&#45;&gt;transition10</title>
<path fill="none" stroke="black" d="M248.06,-472.02C250.431,-493.105 254,-530.146 254,-562 254,-727 254,-727 254,-727 254,-760.095 256.454,-773.8 235,-799 214.319,-823.292 174.014,-831.849 159.431,-834.225"/>
<polygon fill="none" stroke="black" points="158.86,-832.539 154.16,-834.982 159.358,-836.003 158.86,-832.539"/>
</g>
<!-- transition9&#45;&gt;PL15 -->
<g id="edge51" class="edge"><title>transition9&#45;&gt;PL15</title>
<path fill="none" stroke="black" d="M206.115,-507.848C207.382,-506.169 218.92,-490.881 229.262,-477.177"/>
<polygon fill="black" stroke="black" points="232.214,-479.076 235.445,-468.986 226.627,-474.859 232.214,-479.076"/>
</g>
<!-- transition8 -->
<g id="node48" class="node"><title>transition8</title>
<polygon fill="none" stroke="black" points="172,-727 136,-727 136,-726 172,-726 172,-727"/>
<text text-anchor="middle" x="125" y="-730.8" font-family="Times,serif" font-size="14.00">R3&#45;</text>
</g>
<!-- PL12&#45;&gt;transition8 -->
<g id="edge54" class="edge"><title>PL12&#45;&gt;transition8</title>
<path fill="none" stroke="black" d="M154,-762.939C154,-752.385 154,-739.534 154,-732.412"/>
<polygon fill="none" stroke="black" points="155.75,-732.059 154,-727.059 152.25,-732.059 155.75,-732.059"/>
</g>
<!-- PL13 -->
<g id="node47" class="node"><title>PL13</title>
<ellipse fill="none" stroke="black" cx="154" cy="-672" rx="18" ry="18"/>
<text text-anchor="middle" x="154" y="-668.3" font-family="Times,serif" font-size="14.00">PL13</text>
</g>
<!-- PL13&#45;&gt;transition19 -->
<g id="edge56" class="edge"><title>PL13&#45;&gt;transition19</title>
<path fill="none" stroke="black" d="M154,-653.939C154,-643.385 154,-630.534 154,-623.412"/>
<polygon fill="none" stroke="black" points="155.75,-623.059 154,-618.059 152.25,-623.059 155.75,-623.059"/>
</g>
<!-- transition8&#45;&gt;PL13 -->
<g id="edge55" class="edge"><title>transition8&#45;&gt;PL13</title>
<path fill="none" stroke="black" d="M154,-725.848C154,-724.368 154,-712.319 154,-700.1"/>
<polygon fill="black" stroke="black" points="157.5,-700.025 154,-690.025 150.5,-700.025 157.5,-700.025"/>
</g>
<!-- transition17 -->
<g id="node51" class="node"><title>transition17</title>
<polygon fill="none" stroke="black" points="226,-727 190,-727 190,-726 226,-726 226,-727"/>
<text text-anchor="middle" x="177" y="-730.8" font-family="Times,serif" font-size="14.00">X2+</text>
</g>
<!-- PL24&#45;&gt;transition17 -->
<g id="edge58" class="edge"><title>PL24&#45;&gt;transition17</title>
<path fill="none" stroke="black" d="M208,-762.939C208,-752.385 208,-739.534 208,-732.412"/>
<polygon fill="none" stroke="black" points="209.75,-732.059 208,-727.059 206.25,-732.059 209.75,-732.059"/>
</g>
<!-- PL25 -->
<g id="node50" class="node"><title>PL25</title>
<ellipse fill="none" stroke="black" cx="208" cy="-672" rx="18" ry="18"/>
<text text-anchor="middle" x="208" y="-668.3" font-family="Times,serif" font-size="14.00">PL25</text>
</g>
<!-- PL25&#45;&gt;transition19 -->
<g id="edge60" class="edge"><title>PL25&#45;&gt;transition19</title>
<path fill="none" stroke="black" d="M195.476,-658.708C183.402,-646.858 165.847,-629.627 158.023,-621.948"/>
<polygon fill="none" stroke="black" points="158.868,-620.326 154.074,-618.072 156.416,-622.824 158.868,-620.326"/>
</g>
<!-- transition17&#45;&gt;PL25 -->
<g id="edge59" class="edge"><title>transition17&#45;&gt;PL25</title>
<path fill="none" stroke="black" d="M208,-725.848C208,-724.368 208,-712.319 208,-700.1"/>
<polygon fill="black" stroke="black" points="211.5,-700.025 208,-690.025 204.5,-700.025 211.5,-700.025"/>
</g>
<!-- transition20 -->
<g id="node54" class="node"><title>transition20</title>
<polygon fill="none" stroke="black" points="220,-1089 184,-1089 184,-1088 220,-1088 220,-1089"/>
<text text-anchor="middle" x="171" y="-1092.8" font-family="Times,serif" font-size="14.00">X1+</text>
</g>
<!-- PL28&#45;&gt;transition20 -->
<g id="edge62" class="edge"><title>PL28&#45;&gt;transition20</title>
<path fill="none" stroke="black" d="M202,-1124.94C202,-1114.39 202,-1101.53 202,-1094.41"/>
<polygon fill="none" stroke="black" points="203.75,-1094.06 202,-1089.06 200.25,-1094.06 203.75,-1094.06"/>
</g>
<!-- PL29 -->
<g id="node53" class="node"><title>PL29</title>
<ellipse fill="none" stroke="black" cx="202" cy="-1034" rx="18" ry="18"/>
<text text-anchor="middle" x="202" y="-1030.3" font-family="Times,serif" font-size="14.00">PL29</text>
</g>
<!-- PL29&#45;&gt;transition22 -->
<g id="edge64" class="edge"><title>PL29&#45;&gt;transition22</title>
<path fill="none" stroke="black" d="M191.331,-1019.17C178.825,-1002.96 158.832,-977.041 151.148,-967.081"/>
<polygon fill="none" stroke="black" points="152.519,-965.993 148.08,-963.103 149.748,-968.131 152.519,-965.993"/>
</g>
<!-- transition20&#45;&gt;PL29 -->
<g id="edge63" class="edge"><title>transition20&#45;&gt;PL29</title>
<path fill="none" stroke="black" d="M202,-1087.85C202,-1086.37 202,-1074.32 202,-1062.1"/>
<polygon fill="black" stroke="black" points="205.5,-1062.02 202,-1052.02 198.5,-1062.02 205.5,-1062.02"/>
</g>
</g>
</svg>
