<?xml version="1.0" encoding="UTF-8" standalone="no"?>
<!DOCTYPE svg PUBLIC "-//W3C//DTD SVG 1.1//EN"
 "http://www.w3.org/Graphics/SVG/1.1/DTD/svg11.dtd">
<!-- Generated by graphviz version 2.38.0 (20140413.2041)
 -->
<!-- Title: %3 Pages: 1 -->
<svg width="400pt" height="1714pt"
 viewBox="0.00 0.00 400.00 1714.00" xmlns="http://www.w3.org/2000/svg" xmlns:xlink="http://www.w3.org/1999/xlink">
<g id="graph0" class="graph" transform="scale(1 1) rotate(0) translate(4 1710)">
<title>%3</title>
<polygon fill="white" stroke="none" points="-4,4 -4,-1710 396,-1710 396,4 -4,4"/>
<!-- PL1 -->
<g id="node1" class="node"><title>PL1</title>
<ellipse fill="none" stroke="black" cx="369" cy="-1688" rx="18" ry="18"/>
<text text-anchor="middle" x="369" y="-1684.3" font-family="Times,serif" font-size="14.00">PL1</text>
</g>
<!-- transition17 -->
<g id="node3" class="node"><title>transition17</title>
<polygon fill="none" stroke="black" points="345,-1634 309,-1634 309,-1633 345,-1633 345,-1634"/>
<text text-anchor="middle" x="285" y="-1637.8" font-family="Times,serif" font-size="14.00">XRDY+</text>
</g>
<!-- PL1&#45;&gt;transition17 -->
<g id="edge1" class="edge"><title>PL1&#45;&gt;transition17</title>
<path fill="none" stroke="black" d="M358.184,-1673.35C348.954,-1661.7 336.261,-1645.69 330.319,-1638.19"/>
<polygon fill="none" stroke="black" points="331.531,-1636.9 327.054,-1634.07 328.788,-1639.07 331.531,-1636.9"/>
</g>
<!-- PL33 -->
<g id="node2" class="node"><title>PL33</title>
<ellipse fill="none" stroke="black" cx="231" cy="-1579" rx="18" ry="18"/>
<text text-anchor="middle" x="231" y="-1575.3" font-family="Times,serif" font-size="14.00">PL33</text>
</g>
<!-- transition24 -->
<g id="node5" class="node"><title>transition24</title>
<polygon fill="none" stroke="black" points="249,-1525 213,-1525 213,-1524 249,-1524 249,-1525"/>
<text text-anchor="middle" x="195" y="-1528.8" font-family="Times,serif" font-size="14.00">Areq+</text>
</g>
<!-- PL33&#45;&gt;transition24 -->
<g id="edge3" class="edge"><title>PL33&#45;&gt;transition24</title>
<path fill="none" stroke="black" d="M231,-1560.94C231,-1550.39 231,-1537.53 231,-1530.41"/>
<polygon fill="none" stroke="black" points="232.75,-1530.06 231,-1525.06 229.25,-1530.06 232.75,-1530.06"/>
</g>
<!-- transition17&#45;&gt;PL33 -->
<g id="edge2" class="edge"><title>transition17&#45;&gt;PL33</title>
<path fill="none" stroke="black" d="M326.93,-1632.96C324.992,-1631.89 282.985,-1608.7 255.207,-1593.36"/>
<polygon fill="black" stroke="black" points="256.857,-1590.28 246.411,-1588.51 253.474,-1596.41 256.857,-1590.28"/>
</g>
<!-- PL2 -->
<g id="node55" class="node"><title>PL2</title>
<ellipse fill="none" stroke="black" cx="308" cy="-1579" rx="18" ry="18"/>
<text text-anchor="middle" x="308" y="-1575.3" font-family="Times,serif" font-size="14.00">PL2</text>
</g>
<!-- transition17&#45;&gt;PL2 -->
<g id="edge63" class="edge"><title>transition17&#45;&gt;PL2</title>
<path fill="none" stroke="black" d="M326.945,-1632.85C326.394,-1631.31 321.747,-1618.35 317.195,-1605.65"/>
<polygon fill="black" stroke="black" points="320.47,-1604.41 313.801,-1596.18 313.881,-1606.78 320.47,-1604.41"/>
</g>
<!-- PL8 -->
<g id="node4" class="node"><title>PL8</title>
<ellipse fill="none" stroke="black" cx="158" cy="-1470" rx="18" ry="18"/>
<text text-anchor="middle" x="158" y="-1466.3" font-family="Times,serif" font-size="14.00">PL8</text>
</g>
<!-- transition4 -->
<g id="node7" class="node"><title>transition4</title>
<polygon fill="none" stroke="black" points="149,-1416 113,-1416 113,-1415 149,-1415 149,-1416"/>
<text text-anchor="middle" x="94" y="-1419.8" font-family="Times,serif" font-size="14.00">Aack+</text>
</g>
<!-- PL8&#45;&gt;transition4 -->
<g id="edge5" class="edge"><title>PL8&#45;&gt;transition4</title>
<path fill="none" stroke="black" d="M150.19,-1453.67C144.517,-1442.53 137.204,-1428.18 133.455,-1420.82"/>
<polygon fill="none" stroke="black" points="134.861,-1419.72 131.032,-1416.06 131.743,-1421.31 134.861,-1419.72"/>
</g>
<!-- transition24&#45;&gt;PL8 -->
<g id="edge4" class="edge"><title>transition24&#45;&gt;PL8</title>
<path fill="none" stroke="black" d="M230.947,-1523.96C229.566,-1522.96 201.43,-1502.53 180.513,-1487.35"/>
<polygon fill="black" stroke="black" points="182.516,-1484.47 172.368,-1481.43 178.404,-1490.14 182.516,-1484.47"/>
</g>
<!-- PL14 -->
<g id="node36" class="node"><title>PL14</title>
<ellipse fill="none" stroke="black" cx="254" cy="-1470" rx="18" ry="18"/>
<text text-anchor="middle" x="254" y="-1466.3" font-family="Times,serif" font-size="14.00">PL14</text>
</g>
<!-- transition24&#45;&gt;PL14 -->
<g id="edge38" class="edge"><title>transition24&#45;&gt;PL14</title>
<path fill="none" stroke="black" d="M231.066,-1523.85C231.738,-1522.3 237.429,-1509.18 242.974,-1496.41"/>
<polygon fill="black" stroke="black" points="246.329,-1497.47 247.099,-1486.9 239.908,-1494.68 246.329,-1497.47"/>
</g>
<!-- PL9 -->
<g id="node6" class="node"><title>PL9</title>
<ellipse fill="none" stroke="black" cx="118" cy="-1361" rx="18" ry="18"/>
<text text-anchor="middle" x="118" y="-1357.3" font-family="Times,serif" font-size="14.00">PL9</text>
</g>
<!-- transition16 -->
<g id="node9" class="node"><title>transition16</title>
<polygon fill="none" stroke="black" points="129,-1289.5 93,-1289.5 93,-1288.5 129,-1288.5 129,-1289.5"/>
<text text-anchor="middle" x="71.5" y="-1293.3" font-family="Times,serif" font-size="14.00">STRB+</text>
</g>
<!-- PL9&#45;&gt;transition16 -->
<g id="edge7" class="edge"><title>PL9&#45;&gt;transition16</title>
<path fill="none" stroke="black" d="M116.305,-1343.05C114.738,-1327.38 112.504,-1305.04 111.51,-1295.1"/>
<polygon fill="none" stroke="black" points="113.248,-1294.89 111.009,-1290.09 109.766,-1295.24 113.248,-1294.89"/>
</g>
<!-- transition4&#45;&gt;PL9 -->
<g id="edge6" class="edge"><title>transition4&#45;&gt;PL9</title>
<path fill="none" stroke="black" d="M130.963,-1414.85C130.594,-1413.34 127.546,-1400.92 124.499,-1388.5"/>
<polygon fill="black" stroke="black" points="127.888,-1387.62 122.107,-1378.74 121.09,-1389.29 127.888,-1387.62"/>
</g>
<!-- PL10 -->
<g id="node8" class="node"><title>PL10</title>
<ellipse fill="none" stroke="black" cx="162" cy="-1217" rx="18" ry="18"/>
<text text-anchor="middle" x="162" y="-1213.3" font-family="Times,serif" font-size="14.00">PL10</text>
</g>
<!-- transition5 -->
<g id="node11" class="node"><title>transition5</title>
<polygon fill="none" stroke="black" points="180,-1163 144,-1163 144,-1162 180,-1162 180,-1163"/>
<text text-anchor="middle" x="128" y="-1166.8" font-family="Times,serif" font-size="14.00">Ack+</text>
</g>
<!-- PL10&#45;&gt;transition5 -->
<g id="edge9" class="edge"><title>PL10&#45;&gt;transition5</title>
<path fill="none" stroke="black" d="M162,-1198.94C162,-1188.39 162,-1175.53 162,-1168.41"/>
<polygon fill="none" stroke="black" points="163.75,-1168.06 162,-1163.06 160.25,-1168.06 163.75,-1168.06"/>
</g>
<!-- transition16&#45;&gt;PL10 -->
<g id="edge8" class="edge"><title>transition16&#45;&gt;PL10</title>
<path fill="none" stroke="black" d="M111.037,-1287.95C111.988,-1286.64 131.099,-1260.41 145.64,-1240.45"/>
<polygon fill="black" stroke="black" points="148.662,-1242.25 151.722,-1232.11 143.004,-1238.13 148.662,-1242.25"/>
</g>
<!-- PL12 -->
<g id="node30" class="node"><title>PL12</title>
<ellipse fill="none" stroke="black" cx="108" cy="-1217" rx="18" ry="18"/>
<text text-anchor="middle" x="108" y="-1213.3" font-family="Times,serif" font-size="14.00">PL12</text>
</g>
<!-- transition16&#45;&gt;PL12 -->
<g id="edge30" class="edge"><title>transition16&#45;&gt;PL12</title>
<path fill="none" stroke="black" d="M110.998,-1287.95C110.946,-1286.75 109.99,-1264.43 109.171,-1245.32"/>
<polygon fill="black" stroke="black" points="112.662,-1245.03 108.737,-1235.19 105.668,-1245.33 112.662,-1245.03"/>
</g>
<!-- PL11 -->
<g id="node10" class="node"><title>PL11</title>
<ellipse fill="none" stroke="black" cx="162" cy="-1108" rx="18" ry="18"/>
<text text-anchor="middle" x="162" y="-1104.3" font-family="Times,serif" font-size="14.00">PL11</text>
</g>
<!-- transition7 -->
<g id="node13" class="node"><title>transition7</title>
<polygon fill="none" stroke="black" points="153,-1054 117,-1054 117,-1053 153,-1053 153,-1054"/>
<text text-anchor="middle" x="100.5" y="-1057.8" font-family="Times,serif" font-size="14.00">Areq&#45;</text>
</g>
<!-- PL11&#45;&gt;transition7 -->
<g id="edge11" class="edge"><title>PL11&#45;&gt;transition7</title>
<path fill="none" stroke="black" d="M154.19,-1091.67C148.517,-1080.53 141.204,-1066.18 137.455,-1058.82"/>
<polygon fill="none" stroke="black" points="138.861,-1057.72 135.032,-1054.06 135.743,-1059.31 138.861,-1057.72"/>
</g>
<!-- transition5&#45;&gt;PL11 -->
<g id="edge10" class="edge"><title>transition5&#45;&gt;PL11</title>
<path fill="none" stroke="black" d="M162,-1161.85C162,-1160.37 162,-1148.32 162,-1136.1"/>
<polygon fill="black" stroke="black" points="165.5,-1136.02 162,-1126.02 158.5,-1136.02 165.5,-1136.02"/>
</g>
<!-- PL15 -->
<g id="node12" class="node"><title>PL15</title>
<ellipse fill="none" stroke="black" cx="54" cy="-999" rx="18" ry="18"/>
<text text-anchor="middle" x="54" y="-995.3" font-family="Times,serif" font-size="14.00">PL15</text>
</g>
<!-- transition12 -->
<g id="node15" class="node"><title>transition12</title>
<polygon fill="none" stroke="black" points="72,-836 36,-836 36,-835 72,-835 72,-836"/>
<text text-anchor="middle" x="18" y="-839.8" font-family="Times,serif" font-size="14.00">Dreq+</text>
</g>
<!-- PL15&#45;&gt;transition12 -->
<g id="edge13" class="edge"><title>PL15&#45;&gt;transition12</title>
<path fill="none" stroke="black" d="M54,-980.969C54,-944.984 54,-862.753 54,-841.233"/>
<polygon fill="none" stroke="black" points="55.7501,-841.075 54,-836.075 52.2501,-841.075 55.7501,-841.075"/>
</g>
<!-- transition7&#45;&gt;PL15 -->
<g id="edge12" class="edge"><title>transition7&#45;&gt;PL15</title>
<path fill="none" stroke="black" d="M134.941,-1052.96C133.37,-1051.93 100.576,-1030.48 77.2201,-1015.19"/>
<polygon fill="black" stroke="black" points="79.0997,-1012.24 68.8154,-1009.69 75.2669,-1018.1 79.0997,-1012.24"/>
</g>
<!-- PL6 -->
<g id="node33" class="node"><title>PL6</title>
<ellipse fill="none" stroke="black" cx="108" cy="-999" rx="18" ry="18"/>
<text text-anchor="middle" x="108" y="-995.3" font-family="Times,serif" font-size="14.00">PL6</text>
</g>
<!-- transition7&#45;&gt;PL6 -->
<g id="edge34" class="edge"><title>transition7&#45;&gt;PL6</title>
<path fill="none" stroke="black" d="M134.923,-1052.85C134.116,-1051.26 127.15,-1037.59 120.506,-1024.55"/>
<polygon fill="black" stroke="black" points="123.477,-1022.67 115.819,-1015.35 117.239,-1025.85 123.477,-1022.67"/>
</g>
<!-- PL29 -->
<g id="node39" class="node"><title>PL29</title>
<ellipse fill="none" stroke="black" cx="162" cy="-999" rx="18" ry="18"/>
<text text-anchor="middle" x="162" y="-995.3" font-family="Times,serif" font-size="14.00">PL29</text>
</g>
<!-- transition7&#45;&gt;PL29 -->
<g id="edge42" class="edge"><title>transition7&#45;&gt;PL29</title>
<path fill="none" stroke="black" d="M135.077,-1052.85C135.884,-1051.26 142.85,-1037.59 149.494,-1024.55"/>
<polygon fill="black" stroke="black" points="152.761,-1025.85 154.181,-1015.35 146.523,-1022.67 152.761,-1025.85"/>
</g>
<!-- PL16 -->
<g id="node14" class="node"><title>PL16</title>
<ellipse fill="none" stroke="black" cx="100" cy="-781" rx="18" ry="18"/>
<text text-anchor="middle" x="100" y="-777.3" font-family="Times,serif" font-size="14.00">PL16</text>
</g>
<!-- transition9 -->
<g id="node17" class="node"><title>transition9</title>
<polygon fill="none" stroke="black" points="118,-727 82,-727 82,-726 118,-726 118,-727"/>
<text text-anchor="middle" x="63" y="-730.8" font-family="Times,serif" font-size="14.00">Dack+</text>
</g>
<!-- PL16&#45;&gt;transition9 -->
<g id="edge15" class="edge"><title>PL16&#45;&gt;transition9</title>
<path fill="none" stroke="black" d="M100,-762.939C100,-752.385 100,-739.534 100,-732.412"/>
<polygon fill="none" stroke="black" points="101.75,-732.059 100,-727.059 98.2501,-732.059 101.75,-732.059"/>
</g>
<!-- transition12&#45;&gt;PL16 -->
<g id="edge14" class="edge"><title>transition12&#45;&gt;PL16</title>
<path fill="none" stroke="black" d="M54.132,-834.848C55.6297,-833.122 69.599,-817.027 81.732,-803.048"/>
<polygon fill="black" stroke="black" points="84.6438,-805.033 88.5553,-795.186 79.3573,-800.444 84.6438,-805.033"/>
</g>
<!-- PL17 -->
<g id="node16" class="node"><title>PL17</title>
<ellipse fill="none" stroke="black" cx="100" cy="-672" rx="18" ry="18"/>
<text text-anchor="middle" x="100" y="-668.3" font-family="Times,serif" font-size="14.00">PL17</text>
</g>
<!-- transition23 -->
<g id="node19" class="node"><title>transition23</title>
<polygon fill="none" stroke="black" points="145,-618 109,-618 109,-617 145,-617 145,-618"/>
<text text-anchor="middle" x="87.5" y="-621.8" font-family="Times,serif" font-size="14.00">STRB+</text>
</g>
<!-- PL17&#45;&gt;transition23 -->
<g id="edge17" class="edge"><title>PL17&#45;&gt;transition23</title>
<path fill="none" stroke="black" d="M107.81,-655.67C113.483,-644.534 120.796,-630.177 124.545,-622.818"/>
<polygon fill="none" stroke="black" points="126.257,-623.313 126.968,-618.064 123.139,-621.724 126.257,-623.313"/>
</g>
<!-- transition9&#45;&gt;PL17 -->
<g id="edge16" class="edge"><title>transition9&#45;&gt;PL17</title>
<path fill="none" stroke="black" d="M100,-725.848C100,-724.368 100,-712.319 100,-700.1"/>
<polygon fill="black" stroke="black" points="103.5,-700.025 100,-690.025 96.5001,-700.025 103.5,-700.025"/>
</g>
<!-- PL27 -->
<g id="node18" class="node"><title>PL27</title>
<ellipse fill="none" stroke="black" cx="154" cy="-563" rx="18" ry="18"/>
<text text-anchor="middle" x="154" y="-559.3" font-family="Times,serif" font-size="14.00">PL27</text>
</g>
<!-- transition18 -->
<g id="node21" class="node"><title>transition18</title>
<polygon fill="none" stroke="black" points="172,-509 136,-509 136,-508 172,-508 172,-509"/>
<text text-anchor="middle" x="126.5" y="-512.8" font-family="Times,serif" font-size="14.00">Y+</text>
</g>
<!-- PL27&#45;&gt;transition18 -->
<g id="edge19" class="edge"><title>PL27&#45;&gt;transition18</title>
<path fill="none" stroke="black" d="M154,-544.939C154,-534.385 154,-521.534 154,-514.412"/>
<polygon fill="none" stroke="black" points="155.75,-514.059 154,-509.059 152.25,-514.059 155.75,-514.059"/>
</g>
<!-- transition23&#45;&gt;PL27 -->
<g id="edge18" class="edge"><title>transition23&#45;&gt;PL27</title>
<path fill="none" stroke="black" d="M127.077,-616.848C127.884,-615.265 134.85,-601.591 141.494,-588.55"/>
<polygon fill="black" stroke="black" points="144.761,-589.847 146.181,-579.348 138.523,-586.669 144.761,-589.847"/>
</g>
<!-- PL18 -->
<g id="node46" class="node"><title>PL18</title>
<ellipse fill="none" stroke="black" cx="100" cy="-563" rx="18" ry="18"/>
<text text-anchor="middle" x="100" y="-559.3" font-family="Times,serif" font-size="14.00">PL18</text>
</g>
<!-- transition23&#45;&gt;PL18 -->
<g id="edge50" class="edge"><title>transition23&#45;&gt;PL18</title>
<path fill="none" stroke="black" d="M126.923,-616.848C126.116,-615.265 119.15,-601.591 112.506,-588.55"/>
<polygon fill="black" stroke="black" points="115.477,-586.669 107.819,-579.348 109.239,-589.847 115.477,-586.669"/>
</g>
<!-- PL28 -->
<g id="node20" class="node"><title>PL28</title>
<ellipse fill="none" stroke="black" cx="154" cy="-454" rx="18" ry="18"/>
<text text-anchor="middle" x="154" y="-450.3" font-family="Times,serif" font-size="14.00">PL28</text>
</g>
<!-- transition19 -->
<g id="node23" class="node"><title>transition19</title>
<polygon fill="none" stroke="black" points="145,-400 109,-400 109,-399 145,-399 145,-400"/>
<text text-anchor="middle" x="92.5" y="-403.8" font-family="Times,serif" font-size="14.00">Dreq&#45;</text>
</g>
<!-- PL28&#45;&gt;transition19 -->
<g id="edge21" class="edge"><title>PL28&#45;&gt;transition19</title>
<path fill="none" stroke="black" d="M146.19,-437.67C140.517,-426.534 133.204,-412.177 129.455,-404.818"/>
<polygon fill="none" stroke="black" points="130.861,-403.724 127.032,-400.064 127.743,-405.313 130.861,-403.724"/>
</g>
<!-- transition18&#45;&gt;PL28 -->
<g id="edge20" class="edge"><title>transition18&#45;&gt;PL28</title>
<path fill="none" stroke="black" d="M154,-507.848C154,-506.368 154,-494.319 154,-482.1"/>
<polygon fill="black" stroke="black" points="157.5,-482.025 154,-472.025 150.5,-482.025 157.5,-482.025"/>
</g>
<!-- PL22 -->
<g id="node22" class="node"><title>PL22</title>
<ellipse fill="none" stroke="black" cx="154" cy="-345" rx="18" ry="18"/>
<text text-anchor="middle" x="154" y="-341.3" font-family="Times,serif" font-size="14.00">PL22</text>
</g>
<!-- transition13 -->
<g id="node25" class="node"><title>transition13</title>
<polygon fill="none" stroke="black" points="172,-291 136,-291 136,-290 172,-290 172,-291"/>
<text text-anchor="middle" x="116" y="-294.8" font-family="Times,serif" font-size="14.00">STRB&#45;</text>
</g>
<!-- PL22&#45;&gt;transition13 -->
<g id="edge23" class="edge"><title>PL22&#45;&gt;transition13</title>
<path fill="none" stroke="black" d="M154,-326.939C154,-316.385 154,-303.534 154,-296.412"/>
<polygon fill="none" stroke="black" points="155.75,-296.059 154,-291.059 152.25,-296.059 155.75,-296.059"/>
</g>
<!-- transition19&#45;&gt;PL22 -->
<g id="edge22" class="edge"><title>transition19&#45;&gt;PL22</title>
<path fill="none" stroke="black" d="M127.077,-398.848C127.884,-397.265 134.85,-383.591 141.494,-370.55"/>
<polygon fill="black" stroke="black" points="144.761,-371.847 146.181,-361.348 138.523,-368.669 144.761,-371.847"/>
</g>
<!-- PL20 -->
<g id="node49" class="node"><title>PL20</title>
<ellipse fill="none" stroke="black" cx="100" cy="-345" rx="18" ry="18"/>
<text text-anchor="middle" x="100" y="-341.3" font-family="Times,serif" font-size="14.00">PL20</text>
</g>
<!-- transition19&#45;&gt;PL20 -->
<g id="edge54" class="edge"><title>transition19&#45;&gt;PL20</title>
<path fill="none" stroke="black" d="M126.923,-398.848C126.116,-397.265 119.15,-383.591 112.506,-370.55"/>
<polygon fill="black" stroke="black" points="115.477,-368.669 107.819,-361.348 109.239,-371.847 115.477,-368.669"/>
</g>
<!-- PL23 -->
<g id="node24" class="node"><title>PL23</title>
<ellipse fill="none" stroke="black" cx="142" cy="-236" rx="18" ry="18"/>
<text text-anchor="middle" x="142" y="-232.3" font-family="Times,serif" font-size="14.00">PL23</text>
</g>
<!-- transition14 -->
<g id="node27" class="node"><title>transition14</title>
<polygon fill="none" stroke="black" points="138,-182 102,-182 102,-181 138,-181 138,-182"/>
<text text-anchor="middle" x="88" y="-185.8" font-family="Times,serif" font-size="14.00">Ack&#45;</text>
</g>
<!-- PL23&#45;&gt;transition14 -->
<g id="edge25" class="edge"><title>PL23&#45;&gt;transition14</title>
<path fill="none" stroke="black" d="M135.399,-219.098C130.789,-207.992 124.945,-193.912 121.955,-186.71"/>
<polygon fill="none" stroke="black" points="123.559,-186.009 120.026,-182.062 120.326,-187.351 123.559,-186.009"/>
</g>
<!-- transition13&#45;&gt;PL23 -->
<g id="edge24" class="edge"><title>transition13&#45;&gt;PL23</title>
<path fill="none" stroke="black" d="M153.966,-289.848C153.625,-288.344 150.812,-275.919 147.999,-263.496"/>
<polygon fill="black" stroke="black" points="151.413,-262.722 145.791,-253.742 144.585,-264.268 151.413,-262.722"/>
</g>
<!-- PL26 -->
<g id="node54" class="node"><title>PL26</title>
<ellipse fill="none" stroke="black" cx="275" cy="-236" rx="18" ry="18"/>
<text text-anchor="middle" x="275" y="-232.3" font-family="Times,serif" font-size="14.00">PL26</text>
</g>
<!-- transition13&#45;&gt;PL26 -->
<g id="edge61" class="edge"><title>transition13&#45;&gt;PL26</title>
<path fill="none" stroke="black" d="M154.088,-289.962C156.641,-288.843 214.349,-263.566 249.104,-248.343"/>
<polygon fill="black" stroke="black" points="250.894,-251.38 258.65,-244.162 248.086,-244.968 250.894,-251.38"/>
</g>
<!-- PL24 -->
<g id="node26" class="node"><title>PL24</title>
<ellipse fill="none" stroke="black" cx="76" cy="-127" rx="18" ry="18"/>
<text text-anchor="middle" x="76" y="-123.3" font-family="Times,serif" font-size="14.00">PL24</text>
</g>
<!-- transition15 -->
<g id="node29" class="node"><title>transition15</title>
<polygon fill="none" stroke="black" points="83,-73 47,-73 47,-72 83,-72 83,-73"/>
<text text-anchor="middle" x="37.5" y="-76.8" font-family="Times,serif" font-size="14.00">X+</text>
</g>
<!-- PL24&#45;&gt;transition15 -->
<g id="edge27" class="edge"><title>PL24&#45;&gt;transition15</title>
<path fill="none" stroke="black" d="M72.5195,-109.23C70.2756,-98.4189 67.5109,-85.0981 66.0386,-78.004"/>
<polygon fill="none" stroke="black" points="67.7421,-77.5999 65.0124,-73.0599 64.3151,-78.3112 67.7421,-77.5999"/>
</g>
<!-- transition14&#45;&gt;PL24 -->
<g id="edge26" class="edge"><title>transition14&#45;&gt;PL24</title>
<path fill="none" stroke="black" d="M119.874,-180.848C118.45,-179.132 105.236,-163.216 93.6788,-149.295"/>
<polygon fill="black" stroke="black" points="96.2476,-146.91 87.1671,-141.451 90.8617,-151.381 96.2476,-146.91"/>
</g>
<!-- PL25 -->
<g id="node28" class="node"><title>PL25</title>
<ellipse fill="none" stroke="black" cx="36" cy="-18" rx="18" ry="18"/>
<text text-anchor="middle" x="36" y="-14.3" font-family="Times,serif" font-size="14.00">PL25</text>
</g>
<!-- PL25&#45;&gt;transition16 -->
<g id="edge29" class="edge"><title>PL25&#45;&gt;transition16</title>
<path fill="none" stroke="black" d="M29.0786,-34.9736C20.787,-55.5946 8,-92.7807 8,-126 8,-1163 8,-1163 8,-1163 8,-1225.83 86.4748,-1274.21 106.429,-1285.5"/>
<polygon fill="none" stroke="black" points="105.699,-1287.09 110.925,-1287.96 107.38,-1284.02 105.699,-1287.09"/>
</g>
<!-- transition15&#45;&gt;PL25 -->
<g id="edge28" class="edge"><title>transition15&#45;&gt;PL25</title>
<path fill="none" stroke="black" d="M64.9168,-71.848C64.0368,-70.2397 56.3282,-56.1515 49.0918,-42.9264"/>
<polygon fill="black" stroke="black" points="52.1178,-41.165 44.2472,-34.0725 45.9769,-44.5252 52.1178,-41.165"/>
</g>
<!-- transition6 -->
<g id="node32" class="node"><title>transition6</title>
<polygon fill="none" stroke="black" points="126,-1163 90,-1163 90,-1162 126,-1162 126,-1163"/>
<text text-anchor="middle" x="82.5" y="-1166.8" font-family="Times,serif" font-size="14.00">Y&#45;</text>
</g>
<!-- PL12&#45;&gt;transition6 -->
<g id="edge31" class="edge"><title>PL12&#45;&gt;transition6</title>
<path fill="none" stroke="black" d="M108,-1198.94C108,-1188.39 108,-1175.53 108,-1168.41"/>
<polygon fill="none" stroke="black" points="109.75,-1168.06 108,-1163.06 106.25,-1168.06 109.75,-1168.06"/>
</g>
<!-- PL13 -->
<g id="node31" class="node"><title>PL13</title>
<ellipse fill="none" stroke="black" cx="108" cy="-1108" rx="18" ry="18"/>
<text text-anchor="middle" x="108" y="-1104.3" font-family="Times,serif" font-size="14.00">PL13</text>
</g>
<!-- PL13&#45;&gt;transition7 -->
<g id="edge33" class="edge"><title>PL13&#45;&gt;transition7</title>
<path fill="none" stroke="black" d="M115.81,-1091.67C121.483,-1080.53 128.796,-1066.18 132.545,-1058.82"/>
<polygon fill="none" stroke="black" points="134.257,-1059.31 134.968,-1054.06 131.139,-1057.72 134.257,-1059.31"/>
</g>
<!-- transition6&#45;&gt;PL13 -->
<g id="edge32" class="edge"><title>transition6&#45;&gt;PL13</title>
<path fill="none" stroke="black" d="M108,-1161.85C108,-1160.37 108,-1148.32 108,-1136.1"/>
<polygon fill="black" stroke="black" points="111.5,-1136.02 108,-1126.02 104.5,-1136.02 111.5,-1136.02"/>
</g>
<!-- transition3 -->
<g id="node35" class="node"><title>transition3</title>
<polygon fill="none" stroke="black" points="126,-945 90,-945 90,-944 126,-944 126,-945"/>
<text text-anchor="middle" x="72.5" y="-948.8" font-family="Times,serif" font-size="14.00">Aack&#45;</text>
</g>
<!-- PL6&#45;&gt;transition3 -->
<g id="edge35" class="edge"><title>PL6&#45;&gt;transition3</title>
<path fill="none" stroke="black" d="M108,-980.939C108,-970.385 108,-957.534 108,-950.412"/>
<polygon fill="none" stroke="black" points="109.75,-950.059 108,-945.059 106.25,-950.059 109.75,-950.059"/>
</g>
<!-- PL7 -->
<g id="node34" class="node"><title>PL7</title>
<ellipse fill="none" stroke="black" cx="208" cy="-890" rx="18" ry="18"/>
<text text-anchor="middle" x="208" y="-886.3" font-family="Times,serif" font-size="14.00">PL7</text>
</g>
<!-- PL7&#45;&gt;transition24 -->
<g id="edge37" class="edge"><title>PL7&#45;&gt;transition24</title>
<path fill="none" stroke="black" d="M208,-908.049C208,-929.164 208,-966.234 208,-998 208,-1416 208,-1416 208,-1416 208,-1456.76 223.866,-1504.32 229.243,-1519.26"/>
<polygon fill="none" stroke="black" points="227.605,-1519.88 230.983,-1523.96 230.887,-1518.66 227.605,-1519.88"/>
</g>
<!-- transition3&#45;&gt;PL7 -->
<g id="edge36" class="edge"><title>transition3&#45;&gt;PL7</title>
<path fill="none" stroke="black" d="M108.12,-943.947C110.58,-942.854 150.416,-925.109 181,-908 182.142,-907.361 183.303,-906.695 184.47,-906.013"/>
<polygon fill="black" stroke="black" points="186.588,-908.821 193.313,-900.634 182.95,-902.841 186.588,-908.821"/>
</g>
<!-- transition8 -->
<g id="node38" class="node"><title>transition8</title>
<polygon fill="none" stroke="black" points="298,-1416 262,-1416 262,-1415 298,-1415 298,-1416"/>
<text text-anchor="middle" x="239.5" y="-1419.8" font-family="Times,serif" font-size="14.00">XRDY&#45;</text>
</g>
<!-- PL14&#45;&gt;transition8 -->
<g id="edge39" class="edge"><title>PL14&#45;&gt;transition8</title>
<path fill="none" stroke="black" d="M261.66,-1453.38C267.116,-1442.26 274.092,-1428.04 277.663,-1420.76"/>
<polygon fill="none" stroke="black" points="279.338,-1421.32 279.969,-1416.06 276.196,-1419.78 279.338,-1421.32"/>
</g>
<!-- PL5 -->
<g id="node37" class="node"><title>PL5</title>
<ellipse fill="none" stroke="black" cx="254" cy="-1289" rx="18" ry="18"/>
<text text-anchor="middle" x="254" y="-1285.3" font-family="Times,serif" font-size="14.00">PL5</text>
</g>
<!-- PL5&#45;&gt;transition7 -->
<g id="edge41" class="edge"><title>PL5&#45;&gt;transition7</title>
<path fill="none" stroke="black" d="M252.178,-1270.9C247.528,-1234.29 232.353,-1147.03 189,-1090 175.524,-1072.27 150.674,-1060.46 140.041,-1056"/>
<polygon fill="none" stroke="black" points="140.398,-1054.26 135.105,-1054.04 139.107,-1057.51 140.398,-1054.26"/>
</g>
<!-- transition8&#45;&gt;PL5 -->
<g id="edge40" class="edge"><title>transition8&#45;&gt;PL5</title>
<path fill="none" stroke="black" d="M279.981,-1414.91C279.433,-1412.27 267.032,-1352.66 259.564,-1316.75"/>
<polygon fill="black" stroke="black" points="262.976,-1315.97 257.513,-1306.89 256.123,-1317.39 262.976,-1315.97"/>
</g>
<!-- PL4 -->
<g id="node52" class="node"><title>PL4</title>
<ellipse fill="none" stroke="black" cx="304" cy="-1361" rx="18" ry="18"/>
<text text-anchor="middle" x="304" y="-1357.3" font-family="Times,serif" font-size="14.00">PL4</text>
</g>
<!-- transition8&#45;&gt;PL4 -->
<g id="edge58" class="edge"><title>transition8&#45;&gt;PL4</title>
<path fill="none" stroke="black" d="M280.069,-1414.85C280.781,-1413.27 286.902,-1399.76 292.774,-1386.79"/>
<polygon fill="black" stroke="black" points="295.988,-1388.18 296.925,-1377.62 289.611,-1385.29 295.988,-1388.18"/>
</g>
<!-- transition20 -->
<g id="node41" class="node"><title>transition20</title>
<polygon fill="none" stroke="black" points="180,-945 144,-945 144,-944 180,-944 180,-945"/>
<text text-anchor="middle" x="124" y="-948.8" font-family="Times,serif" font-size="14.00">STRB&#45;</text>
</g>
<!-- PL29&#45;&gt;transition20 -->
<g id="edge43" class="edge"><title>PL29&#45;&gt;transition20</title>
<path fill="none" stroke="black" d="M162,-980.939C162,-970.385 162,-957.534 162,-950.412"/>
<polygon fill="none" stroke="black" points="163.75,-950.059 162,-945.059 160.25,-950.059 163.75,-950.059"/>
</g>
<!-- PL30 -->
<g id="node40" class="node"><title>PL30</title>
<ellipse fill="none" stroke="black" cx="154" cy="-890" rx="18" ry="18"/>
<text text-anchor="middle" x="154" y="-886.3" font-family="Times,serif" font-size="14.00">PL30</text>
</g>
<!-- transition21 -->
<g id="node43" class="node"><title>transition21</title>
<polygon fill="none" stroke="black" points="172,-836 136,-836 136,-835 172,-835 172,-836"/>
<text text-anchor="middle" x="122" y="-839.8" font-family="Times,serif" font-size="14.00">Ack&#45;</text>
</g>
<!-- PL30&#45;&gt;transition21 -->
<g id="edge45" class="edge"><title>PL30&#45;&gt;transition21</title>
<path fill="none" stroke="black" d="M154,-871.939C154,-861.385 154,-848.534 154,-841.412"/>
<polygon fill="none" stroke="black" points="155.75,-841.059 154,-836.059 152.25,-841.059 155.75,-841.059"/>
</g>
<!-- transition20&#45;&gt;PL30 -->
<g id="edge44" class="edge"><title>transition20&#45;&gt;PL30</title>
<path fill="none" stroke="black" d="M161.977,-943.848C161.754,-942.368 159.935,-930.319 158.091,-918.1"/>
<polygon fill="black" stroke="black" points="161.523,-917.39 156.57,-908.025 154.602,-918.435 161.523,-917.39"/>
</g>
<!-- PL31 -->
<g id="node42" class="node"><title>PL31</title>
<ellipse fill="none" stroke="black" cx="154" cy="-781" rx="18" ry="18"/>
<text text-anchor="middle" x="154" y="-777.3" font-family="Times,serif" font-size="14.00">PL31</text>
</g>
<!-- transition22 -->
<g id="node45" class="node"><title>transition22</title>
<polygon fill="none" stroke="black" points="172,-727 136,-727 136,-726 172,-726 172,-727"/>
<text text-anchor="middle" x="128.5" y="-730.8" font-family="Times,serif" font-size="14.00">X&#45;</text>
</g>
<!-- PL31&#45;&gt;transition22 -->
<g id="edge47" class="edge"><title>PL31&#45;&gt;transition22</title>
<path fill="none" stroke="black" d="M154,-762.939C154,-752.385 154,-739.534 154,-732.412"/>
<polygon fill="none" stroke="black" points="155.75,-732.059 154,-727.059 152.25,-732.059 155.75,-732.059"/>
</g>
<!-- transition21&#45;&gt;PL31 -->
<g id="edge46" class="edge"><title>transition21&#45;&gt;PL31</title>
<path fill="none" stroke="black" d="M154,-834.848C154,-833.368 154,-821.319 154,-809.1"/>
<polygon fill="black" stroke="black" points="157.5,-809.025 154,-799.025 150.5,-809.025 157.5,-809.025"/>
</g>
<!-- PL32 -->
<g id="node44" class="node"><title>PL32</title>
<ellipse fill="none" stroke="black" cx="154" cy="-672" rx="18" ry="18"/>
<text text-anchor="middle" x="154" y="-668.3" font-family="Times,serif" font-size="14.00">PL32</text>
</g>
<!-- PL32&#45;&gt;transition23 -->
<g id="edge49" class="edge"><title>PL32&#45;&gt;transition23</title>
<path fill="none" stroke="black" d="M146.19,-655.67C140.517,-644.534 133.204,-630.177 129.455,-622.818"/>
<polygon fill="none" stroke="black" points="130.861,-621.724 127.032,-618.064 127.743,-623.313 130.861,-621.724"/>
</g>
<!-- transition22&#45;&gt;PL32 -->
<g id="edge48" class="edge"><title>transition22&#45;&gt;PL32</title>
<path fill="none" stroke="black" d="M154,-725.848C154,-724.368 154,-712.319 154,-700.1"/>
<polygon fill="black" stroke="black" points="157.5,-700.025 154,-690.025 150.5,-700.025 157.5,-700.025"/>
</g>
<!-- transition10 -->
<g id="node48" class="node"><title>transition10</title>
<polygon fill="none" stroke="black" points="118,-509 82,-509 82,-508 118,-508 118,-509"/>
<text text-anchor="middle" x="66" y="-512.8" font-family="Times,serif" font-size="14.00">Ack+</text>
</g>
<!-- PL18&#45;&gt;transition10 -->
<g id="edge51" class="edge"><title>PL18&#45;&gt;transition10</title>
<path fill="none" stroke="black" d="M100,-544.939C100,-534.385 100,-521.534 100,-514.412"/>
<polygon fill="none" stroke="black" points="101.75,-514.059 100,-509.059 98.2501,-514.059 101.75,-514.059"/>
</g>
<!-- PL19 -->
<g id="node47" class="node"><title>PL19</title>
<ellipse fill="none" stroke="black" cx="100" cy="-454" rx="18" ry="18"/>
<text text-anchor="middle" x="100" y="-450.3" font-family="Times,serif" font-size="14.00">PL19</text>
</g>
<!-- PL19&#45;&gt;transition19 -->
<g id="edge53" class="edge"><title>PL19&#45;&gt;transition19</title>
<path fill="none" stroke="black" d="M107.81,-437.67C113.483,-426.534 120.796,-412.177 124.545,-404.818"/>
<polygon fill="none" stroke="black" points="126.257,-405.313 126.968,-400.064 123.139,-403.724 126.257,-405.313"/>
</g>
<!-- transition10&#45;&gt;PL19 -->
<g id="edge52" class="edge"><title>transition10&#45;&gt;PL19</title>
<path fill="none" stroke="black" d="M100,-507.848C100,-506.368 100,-494.319 100,-482.1"/>
<polygon fill="black" stroke="black" points="103.5,-482.025 100,-472.025 96.5001,-482.025 103.5,-482.025"/>
</g>
<!-- transition11 -->
<g id="node51" class="node"><title>transition11</title>
<polygon fill="none" stroke="black" points="118,-291 82,-291 82,-290 118,-290 118,-291"/>
<text text-anchor="middle" x="64.5" y="-294.8" font-family="Times,serif" font-size="14.00">Dack&#45;</text>
</g>
<!-- PL20&#45;&gt;transition11 -->
<g id="edge55" class="edge"><title>PL20&#45;&gt;transition11</title>
<path fill="none" stroke="black" d="M100,-326.939C100,-316.385 100,-303.534 100,-296.412"/>
<polygon fill="none" stroke="black" points="101.75,-296.059 100,-291.059 98.2501,-296.059 101.75,-296.059"/>
</g>
<!-- PL21 -->
<g id="node50" class="node"><title>PL21</title>
<ellipse fill="none" stroke="black" cx="77" cy="-236" rx="18" ry="18"/>
<text text-anchor="middle" x="77" y="-232.3" font-family="Times,serif" font-size="14.00">PL21</text>
</g>
<!-- PL21&#45;&gt;transition12 -->
<g id="edge57" class="edge"><title>PL21&#45;&gt;transition12</title>
<path fill="none" stroke="black" d="M71.3146,-253.083C64.5036,-273.82 54,-311.129 54,-344 54,-727 54,-727 54,-727 54,-766.498 54,-814.122 54,-829.753"/>
<polygon fill="none" stroke="black" points="52.2501,-829.956 54,-834.956 55.7501,-829.956 52.2501,-829.956"/>
</g>
<!-- transition11&#45;&gt;PL21 -->
<g id="edge56" class="edge"><title>transition11&#45;&gt;PL21</title>
<path fill="none" stroke="black" d="M99.934,-289.848C99.2621,-288.3 93.5707,-275.185 88.0263,-262.409"/>
<polygon fill="black" stroke="black" points="91.0925,-260.682 83.9008,-252.902 84.671,-263.469 91.0925,-260.682"/>
</g>
<!-- transition2 -->
<g id="node53" class="node"><title>transition2</title>
<polygon fill="none" stroke="black" points="326,-1289.5 290,-1289.5 290,-1288.5 326,-1288.5 326,-1289.5"/>
<text text-anchor="middle" x="319" y="-1293.3" font-family="Times,serif" font-size="14.00">IOSTRB+</text>
</g>
<!-- PL4&#45;&gt;transition2 -->
<g id="edge59" class="edge"><title>PL4&#45;&gt;transition2</title>
<path fill="none" stroke="black" d="M304.989,-1342.7C305.876,-1327.17 307.124,-1305.32 307.694,-1295.35"/>
<polygon fill="none" stroke="black" points="309.457,-1295.18 307.995,-1290.09 305.962,-1294.98 309.457,-1295.18"/>
</g>
<!-- transition2&#45;&gt;PL1 -->
<g id="edge60" class="edge"><title>transition2&#45;&gt;PL1</title>
<path fill="none" stroke="black" d="M308.061,-1290.04C310.604,-1291.82 392,-1349.11 392,-1415 392,-1580 392,-1580 392,-1580 392,-1608.25 384.243,-1639.77 377.738,-1661.24"/>
<polygon fill="black" stroke="black" points="374.358,-1660.33 374.685,-1670.92 381.033,-1662.43 374.358,-1660.33"/>
</g>
<!-- PL26&#45;&gt;transition17 -->
<g id="edge62" class="edge"><title>PL26&#45;&gt;transition17</title>
<path fill="none" stroke="black" d="M289.49,-246.992C312.296,-264.028 354,-301.051 354,-344 354,-1525 354,-1525 354,-1525 354,-1565.82 335.625,-1612.79 329.192,-1627.98"/>
<polygon fill="none" stroke="black" points="327.473,-1627.55 327.077,-1632.83 330.681,-1628.95 327.473,-1627.55"/>
</g>
<!-- transition1 -->
<g id="node57" class="node"><title>transition1</title>
<polygon fill="none" stroke="black" points="326,-1525 290,-1525 290,-1524 326,-1524 326,-1525"/>
<text text-anchor="middle" x="262.5" y="-1528.8" font-family="Times,serif" font-size="14.00">IOSTRB&#45;</text>
</g>
<!-- PL2&#45;&gt;transition1 -->
<g id="edge64" class="edge"><title>PL2&#45;&gt;transition1</title>
<path fill="none" stroke="black" d="M308,-1560.94C308,-1550.39 308,-1537.53 308,-1530.41"/>
<polygon fill="none" stroke="black" points="309.75,-1530.06 308,-1525.06 306.25,-1530.06 309.75,-1530.06"/>
</g>
<!-- PL3 -->
<g id="node56" class="node"><title>PL3</title>
<ellipse fill="none" stroke="black" cx="308" cy="-1470" rx="18" ry="18"/>
<text text-anchor="middle" x="308" y="-1466.3" font-family="Times,serif" font-size="14.00">PL3</text>
</g>
<!-- PL3&#45;&gt;transition8 -->
<g id="edge66" class="edge"><title>PL3&#45;&gt;transition8</title>
<path fill="none" stroke="black" d="M299.901,-1453.67C294.018,-1442.53 286.433,-1428.18 282.546,-1420.82"/>
<polygon fill="none" stroke="black" points="283.917,-1419.67 280.034,-1416.06 280.822,-1421.3 283.917,-1419.67"/>
</g>
<!-- transition1&#45;&gt;PL3 -->
<g id="edge65" class="edge"><title>transition1&#45;&gt;PL3</title>
<path fill="none" stroke="black" d="M308,-1523.85C308,-1522.37 308,-1510.32 308,-1498.1"/>
<polygon fill="black" stroke="black" points="311.5,-1498.02 308,-1488.02 304.5,-1498.02 311.5,-1498.02"/>
</g>
</g>
</svg>
