<?xml version="1.0" encoding="UTF-8" standalone="no"?>
<!DOCTYPE svg PUBLIC "-//W3C//DTD SVG 1.1//EN"
 "http://www.w3.org/Graphics/SVG/1.1/DTD/svg11.dtd">
<!-- Generated by graphviz version 2.38.0 (20140413.2041)
 -->
<!-- Title: %3 Pages: 1 -->
<svg width="424pt" height="1749pt"
 viewBox="0.00 0.00 424.00 1749.00" xmlns="http://www.w3.org/2000/svg" xmlns:xlink="http://www.w3.org/1999/xlink">
<g id="graph0" class="graph" transform="scale(1 1) rotate(0) translate(4 1745)">
<title>%3</title>
<polygon fill="white" stroke="none" points="-4,4 -4,-1745 420,-1745 420,4 -4,4"/>
<!-- PL1 -->
<g id="node1" class="node"><title>PL1</title>
<ellipse fill="none" stroke="black" cx="367" cy="-1723" rx="18" ry="18"/>
<text text-anchor="middle" x="367" y="-1719.3" font-family="Times,serif" font-size="14.00">PL1</text>
</g>
<!-- transition17 -->
<g id="node3" class="node"><title>transition17</title>
<polygon fill="none" stroke="black" points="343,-1669 307,-1669 307,-1668 343,-1668 343,-1669"/>
<text text-anchor="middle" x="283" y="-1672.8" font-family="Times,serif" font-size="14.00">XRDY+</text>
</g>
<!-- PL1&#45;&gt;transition17 -->
<g id="edge1" class="edge"><title>PL1&#45;&gt;transition17</title>
<path fill="none" stroke="black" d="M356.184,-1708.35C346.954,-1696.7 334.261,-1680.69 328.319,-1673.19"/>
<polygon fill="none" stroke="black" points="329.531,-1671.9 325.054,-1669.07 326.788,-1674.07 329.531,-1671.9"/>
</g>
<!-- PL2 -->
<g id="node2" class="node"><title>PL2</title>
<ellipse fill="none" stroke="black" cx="306" cy="-1614" rx="18" ry="18"/>
<text text-anchor="middle" x="306" y="-1610.3" font-family="Times,serif" font-size="14.00">PL2</text>
</g>
<!-- transition1 -->
<g id="node5" class="node"><title>transition1</title>
<polygon fill="none" stroke="black" points="310,-1542.5 274,-1542.5 274,-1541.5 310,-1541.5 310,-1542.5"/>
<text text-anchor="middle" x="246.5" y="-1546.3" font-family="Times,serif" font-size="14.00">IOSTRB&#45;</text>
</g>
<!-- PL2&#45;&gt;transition1 -->
<g id="edge3" class="edge"><title>PL2&#45;&gt;transition1</title>
<path fill="none" stroke="black" d="M302.611,-1596.05C299.475,-1580.38 295.008,-1558.04 293.021,-1548.1"/>
<polygon fill="none" stroke="black" points="294.715,-1547.65 292.019,-1543.09 291.283,-1548.34 294.715,-1547.65"/>
</g>
<!-- transition17&#45;&gt;PL2 -->
<g id="edge2" class="edge"><title>transition17&#45;&gt;PL2</title>
<path fill="none" stroke="black" d="M324.945,-1667.85C324.394,-1666.31 319.747,-1653.35 315.195,-1640.65"/>
<polygon fill="black" stroke="black" points="318.47,-1639.41 311.801,-1631.18 311.881,-1641.78 318.47,-1639.41"/>
</g>
<!-- PL33 -->
<g id="node56" class="node"><title>PL33</title>
<ellipse fill="none" stroke="black" cx="65" cy="-1542" rx="18" ry="18"/>
<text text-anchor="middle" x="65" y="-1538.3" font-family="Times,serif" font-size="14.00">PL33</text>
</g>
<!-- transition17&#45;&gt;PL33 -->
<g id="edge63" class="edge"><title>transition17&#45;&gt;PL33</title>
<path fill="none" stroke="black" d="M324.953,-1667.98C321.728,-1666.43 154.717,-1586.13 90.1266,-1555.08"/>
<polygon fill="black" stroke="black" points="91.5543,-1551.88 81.0252,-1550.7 88.5212,-1558.19 91.5543,-1551.88"/>
</g>
<!-- PL3 -->
<g id="node4" class="node"><title>PL3</title>
<ellipse fill="none" stroke="black" cx="279" cy="-1470" rx="18" ry="18"/>
<text text-anchor="middle" x="279" y="-1466.3" font-family="Times,serif" font-size="14.00">PL3</text>
</g>
<!-- transition8 -->
<g id="node7" class="node"><title>transition8</title>
<polygon fill="none" stroke="black" points="297,-1416 261,-1416 261,-1415 297,-1415 297,-1416"/>
<text text-anchor="middle" x="238.5" y="-1419.8" font-family="Times,serif" font-size="14.00">XRDY&#45;</text>
</g>
<!-- PL3&#45;&gt;transition8 -->
<g id="edge5" class="edge"><title>PL3&#45;&gt;transition8</title>
<path fill="none" stroke="black" d="M279,-1451.94C279,-1441.39 279,-1428.53 279,-1421.41"/>
<polygon fill="none" stroke="black" points="280.75,-1421.06 279,-1416.06 277.25,-1421.06 280.75,-1421.06"/>
</g>
<!-- transition1&#45;&gt;PL3 -->
<g id="edge4" class="edge"><title>transition1&#45;&gt;PL3</title>
<path fill="none" stroke="black" d="M291.991,-1540.95C291.765,-1539.74 287.535,-1516.96 283.963,-1497.72"/>
<polygon fill="black" stroke="black" points="287.394,-1497.03 282.127,-1487.84 280.512,-1498.31 287.394,-1497.03"/>
</g>
<!-- PL4 -->
<g id="node6" class="node"><title>PL4</title>
<ellipse fill="none" stroke="black" cx="297" cy="-1361" rx="18" ry="18"/>
<text text-anchor="middle" x="297" y="-1357.3" font-family="Times,serif" font-size="14.00">PL4</text>
</g>
<!-- transition2 -->
<g id="node8" class="node"><title>transition2</title>
<polygon fill="none" stroke="black" points="416,-1307 380,-1307 380,-1306 416,-1306 416,-1307"/>
<text text-anchor="middle" x="351" y="-1310.8" font-family="Times,serif" font-size="14.00">IOSTRB+</text>
</g>
<!-- PL4&#45;&gt;transition2 -->
<g id="edge7" class="edge"><title>PL4&#45;&gt;transition2</title>
<path fill="none" stroke="black" d="M312.781,-1351.72C336.215,-1339.42 378.981,-1316.98 393.235,-1309.5"/>
<polygon fill="none" stroke="black" points="394.222,-1310.96 397.836,-1307.09 392.596,-1307.86 394.222,-1310.96"/>
</g>
<!-- transition8&#45;&gt;PL4 -->
<g id="edge6" class="edge"><title>transition8&#45;&gt;PL4</title>
<path fill="none" stroke="black" d="M279.052,-1414.85C279.569,-1413.32 283.89,-1400.6 288.162,-1388.02"/>
<polygon fill="black" stroke="black" points="291.603,-1388.78 291.505,-1378.18 284.975,-1386.52 291.603,-1388.78"/>
</g>
<!-- PL5 -->
<g id="node9" class="node"><title>PL5</title>
<ellipse fill="none" stroke="black" cx="224" cy="-1361" rx="18" ry="18"/>
<text text-anchor="middle" x="224" y="-1357.3" font-family="Times,serif" font-size="14.00">PL5</text>
</g>
<!-- transition8&#45;&gt;PL5 -->
<g id="edge9" class="edge"><title>transition8&#45;&gt;PL5</title>
<path fill="none" stroke="black" d="M278.842,-1414.85C276.975,-1413.05 258.897,-1395.63 243.999,-1381.27"/>
<polygon fill="black" stroke="black" points="246.23,-1378.56 236.601,-1374.14 241.373,-1383.6 246.23,-1378.56"/>
</g>
<!-- transition2&#45;&gt;PL1 -->
<g id="edge8" class="edge"><title>transition2&#45;&gt;PL1</title>
<path fill="none" stroke="black" d="M397.997,-1307.04C397.876,-1308.87 394,-1367.72 394,-1415 394,-1615 394,-1615 394,-1615 394,-1643.48 384.894,-1674.97 377.258,-1696.37"/>
<polygon fill="black" stroke="black" points="373.88,-1695.41 373.674,-1706 380.441,-1697.85 373.88,-1695.41"/>
</g>
<!-- transition7 -->
<g id="node11" class="node"><title>transition7</title>
<polygon fill="none" stroke="black" points="237,-1307 201,-1307 201,-1306 237,-1306 237,-1307"/>
<text text-anchor="middle" x="184.5" y="-1310.8" font-family="Times,serif" font-size="14.00">Areq&#45;</text>
</g>
<!-- PL5&#45;&gt;transition7 -->
<g id="edge10" class="edge"><title>PL5&#45;&gt;transition7</title>
<path fill="none" stroke="black" d="M222.39,-1342.94C221.395,-1332.39 220.182,-1319.53 219.511,-1312.41"/>
<polygon fill="none" stroke="black" points="221.218,-1311.87 219.006,-1307.06 217.733,-1312.2 221.218,-1311.87"/>
</g>
<!-- PL6 -->
<g id="node10" class="node"><title>PL6</title>
<ellipse fill="none" stroke="black" cx="84" cy="-1252" rx="18" ry="18"/>
<text text-anchor="middle" x="84" y="-1248.3" font-family="Times,serif" font-size="14.00">PL6</text>
</g>
<!-- transition3 -->
<g id="node13" class="node"><title>transition3</title>
<polygon fill="none" stroke="black" points="102,-1198 66,-1198 66,-1197 102,-1197 102,-1198"/>
<text text-anchor="middle" x="48.5" y="-1201.8" font-family="Times,serif" font-size="14.00">Aack&#45;</text>
</g>
<!-- PL6&#45;&gt;transition3 -->
<g id="edge12" class="edge"><title>PL6&#45;&gt;transition3</title>
<path fill="none" stroke="black" d="M84,-1233.94C84,-1223.39 84,-1210.53 84,-1203.41"/>
<polygon fill="none" stroke="black" points="85.7501,-1203.06 84,-1198.06 82.2501,-1203.06 85.7501,-1203.06"/>
</g>
<!-- transition7&#45;&gt;PL6 -->
<g id="edge11" class="edge"><title>transition7&#45;&gt;PL6</title>
<path fill="none" stroke="black" d="M218.831,-1305.95C215.353,-1304.96 159.041,-1288.82 116,-1270 113.493,-1268.9 110.914,-1267.69 108.36,-1266.43"/>
<polygon fill="black" stroke="black" points="109.881,-1263.27 99.3908,-1261.79 106.663,-1269.49 109.881,-1263.27"/>
</g>
<!-- PL15 -->
<g id="node22" class="node"><title>PL15</title>
<ellipse fill="none" stroke="black" cx="214" cy="-1252" rx="18" ry="18"/>
<text text-anchor="middle" x="214" y="-1248.3" font-family="Times,serif" font-size="14.00">PL15</text>
</g>
<!-- transition7&#45;&gt;PL15 -->
<g id="edge23" class="edge"><title>transition7&#45;&gt;PL15</title>
<path fill="none" stroke="black" d="M218.986,-1305.85C218.846,-1304.37 217.709,-1292.32 216.557,-1280.1"/>
<polygon fill="black" stroke="black" points="220.03,-1279.65 215.606,-1270.02 213.061,-1280.31 220.03,-1279.65"/>
</g>
<!-- PL29 -->
<g id="node45" class="node"><title>PL29</title>
<ellipse fill="none" stroke="black" cx="268" cy="-1252" rx="18" ry="18"/>
<text text-anchor="middle" x="268" y="-1248.3" font-family="Times,serif" font-size="14.00">PL29</text>
</g>
<!-- transition7&#45;&gt;PL29 -->
<g id="edge49" class="edge"><title>transition7&#45;&gt;PL29</title>
<path fill="none" stroke="black" d="M219.141,-1305.85C220.76,-1304.1 236.074,-1287.53 249.132,-1273.41"/>
<polygon fill="black" stroke="black" points="251.834,-1275.64 256.052,-1265.92 246.694,-1270.89 251.834,-1275.64"/>
</g>
<!-- PL7 -->
<g id="node12" class="node"><title>PL7</title>
<ellipse fill="none" stroke="black" cx="84" cy="-1143" rx="18" ry="18"/>
<text text-anchor="middle" x="84" y="-1139.3" font-family="Times,serif" font-size="14.00">PL7</text>
</g>
<!-- transition24 -->
<g id="node15" class="node"><title>transition24</title>
<polygon fill="none" stroke="black" points="102,-1089 66,-1089 66,-1088 102,-1088 102,-1089"/>
<text text-anchor="middle" x="48" y="-1092.8" font-family="Times,serif" font-size="14.00">Areq+</text>
</g>
<!-- PL7&#45;&gt;transition24 -->
<g id="edge14" class="edge"><title>PL7&#45;&gt;transition24</title>
<path fill="none" stroke="black" d="M84,-1124.94C84,-1114.39 84,-1101.53 84,-1094.41"/>
<polygon fill="none" stroke="black" points="85.7501,-1094.06 84,-1089.06 82.2501,-1094.06 85.7501,-1094.06"/>
</g>
<!-- transition3&#45;&gt;PL7 -->
<g id="edge13" class="edge"><title>transition3&#45;&gt;PL7</title>
<path fill="none" stroke="black" d="M84,-1196.85C84,-1195.37 84,-1183.32 84,-1171.1"/>
<polygon fill="black" stroke="black" points="87.5001,-1171.02 84,-1161.02 80.5001,-1171.02 87.5001,-1171.02"/>
</g>
<!-- PL8 -->
<g id="node14" class="node"><title>PL8</title>
<ellipse fill="none" stroke="black" cx="84" cy="-1034" rx="18" ry="18"/>
<text text-anchor="middle" x="84" y="-1030.3" font-family="Times,serif" font-size="14.00">PL8</text>
</g>
<!-- transition4 -->
<g id="node17" class="node"><title>transition4</title>
<polygon fill="none" stroke="black" points="102,-980 66,-980 66,-979 102,-979 102,-980"/>
<text text-anchor="middle" x="47" y="-983.8" font-family="Times,serif" font-size="14.00">Aack+</text>
</g>
<!-- PL8&#45;&gt;transition4 -->
<g id="edge16" class="edge"><title>PL8&#45;&gt;transition4</title>
<path fill="none" stroke="black" d="M84,-1015.94C84,-1005.39 84,-992.534 84,-985.412"/>
<polygon fill="none" stroke="black" points="85.7501,-985.059 84,-980.059 82.2501,-985.059 85.7501,-985.059"/>
</g>
<!-- transition24&#45;&gt;PL8 -->
<g id="edge15" class="edge"><title>transition24&#45;&gt;PL8</title>
<path fill="none" stroke="black" d="M84,-1087.85C84,-1086.37 84,-1074.32 84,-1062.1"/>
<polygon fill="black" stroke="black" points="87.5001,-1062.02 84,-1052.02 80.5001,-1062.02 87.5001,-1062.02"/>
</g>
<!-- PL14 -->
<g id="node57" class="node"><title>PL14</title>
<ellipse fill="none" stroke="black" cx="30" cy="-1034" rx="18" ry="18"/>
<text text-anchor="middle" x="30" y="-1030.3" font-family="Times,serif" font-size="14.00">PL14</text>
</g>
<!-- transition24&#45;&gt;PL14 -->
<g id="edge65" class="edge"><title>transition24&#45;&gt;PL14</title>
<path fill="none" stroke="black" d="M83.8451,-1087.85C82.0118,-1086.05 64.2624,-1068.63 49.6353,-1054.27"/>
<polygon fill="black" stroke="black" points="51.9603,-1051.65 42.3718,-1047.14 47.057,-1056.65 51.9603,-1051.65"/>
</g>
<!-- PL9 -->
<g id="node16" class="node"><title>PL9</title>
<ellipse fill="none" stroke="black" cx="84" cy="-853" rx="18" ry="18"/>
<text text-anchor="middle" x="84" y="-849.3" font-family="Times,serif" font-size="14.00">PL9</text>
</g>
<!-- transition16 -->
<g id="node19" class="node"><title>transition16</title>
<polygon fill="none" stroke="black" points="200,-182 164,-182 164,-181 200,-181 200,-182"/>
<text text-anchor="middle" x="142.5" y="-185.8" font-family="Times,serif" font-size="14.00">STRB+</text>
</g>
<!-- PL9&#45;&gt;transition16 -->
<g id="edge18" class="edge"><title>PL9&#45;&gt;transition16</title>
<path fill="none" stroke="black" d="M84.9077,-834.615C86.0878,-810.475 88,-765.431 88,-727 88,-727 88,-727 88,-290 88,-235.19 157.737,-194.675 177.079,-184.492"/>
<polygon fill="none" stroke="black" points="178.263,-185.854 181.932,-182.032 176.681,-182.732 178.263,-185.854"/>
</g>
<!-- transition4&#45;&gt;PL9 -->
<g id="edge17" class="edge"><title>transition4&#45;&gt;PL9</title>
<path fill="none" stroke="black" d="M84,-978.909C84,-976.29 84,-917.468 84,-881.491"/>
<polygon fill="black" stroke="black" points="87.5001,-881.147 84,-871.147 80.5001,-881.147 87.5001,-881.147"/>
</g>
<!-- PL10 -->
<g id="node18" class="node"><title>PL10</title>
<ellipse fill="none" stroke="black" cx="230" cy="-127" rx="18" ry="18"/>
<text text-anchor="middle" x="230" y="-123.3" font-family="Times,serif" font-size="14.00">PL10</text>
</g>
<!-- transition5 -->
<g id="node21" class="node"><title>transition5</title>
<polygon fill="none" stroke="black" points="254,-73 218,-73 218,-72 254,-72 254,-73"/>
<text text-anchor="middle" x="202" y="-76.8" font-family="Times,serif" font-size="14.00">Ack+</text>
</g>
<!-- PL10&#45;&gt;transition5 -->
<g id="edge20" class="edge"><title>PL10&#45;&gt;transition5</title>
<path fill="none" stroke="black" d="M231.931,-108.939C233.126,-98.3852 234.581,-85.5344 235.387,-78.4124"/>
<polygon fill="none" stroke="black" points="237.17,-78.2243 235.993,-73.0591 233.692,-77.8305 237.17,-78.2243"/>
</g>
<!-- transition16&#45;&gt;PL10 -->
<g id="edge19" class="edge"><title>transition16&#45;&gt;PL10</title>
<path fill="none" stroke="black" d="M182.138,-180.848C183.724,-179.096 198.726,-162.532 211.517,-148.409"/>
<polygon fill="black" stroke="black" points="214.178,-150.684 218.296,-140.923 208.989,-145.985 214.178,-150.684"/>
</g>
<!-- PL12 -->
<g id="node42" class="node"><title>PL12</title>
<ellipse fill="none" stroke="black" cx="176" cy="-127" rx="18" ry="18"/>
<text text-anchor="middle" x="176" y="-123.3" font-family="Times,serif" font-size="14.00">PL12</text>
</g>
<!-- transition16&#45;&gt;PL12 -->
<g id="edge45" class="edge"><title>transition16&#45;&gt;PL12</title>
<path fill="none" stroke="black" d="M181.983,-180.848C181.815,-179.368 180.451,-167.319 179.068,-155.1"/>
<polygon fill="black" stroke="black" points="182.53,-154.568 177.927,-145.025 175.575,-155.355 182.53,-154.568"/>
</g>
<!-- PL11 -->
<g id="node20" class="node"><title>PL11</title>
<ellipse fill="none" stroke="black" cx="247" cy="-18" rx="18" ry="18"/>
<text text-anchor="middle" x="247" y="-14.3" font-family="Times,serif" font-size="14.00">PL11</text>
</g>
<!-- PL11&#45;&gt;transition7 -->
<g id="edge22" class="edge"><title>PL11&#45;&gt;transition7</title>
<path fill="none" stroke="black" d="M260.237,-30.3554C279.763,-48.448 314,-85.8907 314,-126 314,-1198 314,-1198 314,-1198 314,-1231.1 316.148,-1244.54 295,-1270 275.659,-1293.28 237.802,-1302.46 224.103,-1305.12"/>
<polygon fill="none" stroke="black" points="223.775,-1303.4 219.15,-1305.98 224.376,-1306.84 223.775,-1303.4"/>
</g>
<!-- transition5&#45;&gt;PL11 -->
<g id="edge21" class="edge"><title>transition5&#45;&gt;PL11</title>
<path fill="none" stroke="black" d="M236.032,-71.848C236.341,-70.3585 238.872,-58.1645 241.424,-45.8654"/>
<polygon fill="black" stroke="black" points="244.92,-46.2449 243.525,-35.7422 238.066,-44.8223 244.92,-46.2449"/>
</g>
<!-- transition12 -->
<g id="node24" class="node"><title>transition12</title>
<polygon fill="none" stroke="black" points="232,-1089 196,-1089 196,-1088 232,-1088 232,-1089"/>
<text text-anchor="middle" x="178" y="-1092.8" font-family="Times,serif" font-size="14.00">Dreq+</text>
</g>
<!-- PL15&#45;&gt;transition12 -->
<g id="edge24" class="edge"><title>PL15&#45;&gt;transition12</title>
<path fill="none" stroke="black" d="M214,-1233.97C214,-1197.98 214,-1115.75 214,-1094.23"/>
<polygon fill="none" stroke="black" points="215.75,-1094.08 214,-1089.08 212.25,-1094.08 215.75,-1094.08"/>
</g>
<!-- PL16 -->
<g id="node23" class="node"><title>PL16</title>
<ellipse fill="none" stroke="black" cx="214" cy="-1034" rx="18" ry="18"/>
<text text-anchor="middle" x="214" y="-1030.3" font-family="Times,serif" font-size="14.00">PL16</text>
</g>
<!-- transition9 -->
<g id="node26" class="node"><title>transition9</title>
<polygon fill="none" stroke="black" points="232,-980 196,-980 196,-979 232,-979 232,-980"/>
<text text-anchor="middle" x="177" y="-983.8" font-family="Times,serif" font-size="14.00">Dack+</text>
</g>
<!-- PL16&#45;&gt;transition9 -->
<g id="edge26" class="edge"><title>PL16&#45;&gt;transition9</title>
<path fill="none" stroke="black" d="M214,-1015.94C214,-1005.39 214,-992.534 214,-985.412"/>
<polygon fill="none" stroke="black" points="215.75,-985.059 214,-980.059 212.25,-985.059 215.75,-985.059"/>
</g>
<!-- transition12&#45;&gt;PL16 -->
<g id="edge25" class="edge"><title>transition12&#45;&gt;PL16</title>
<path fill="none" stroke="black" d="M214,-1087.85C214,-1086.37 214,-1074.32 214,-1062.1"/>
<polygon fill="black" stroke="black" points="217.5,-1062.02 214,-1052.02 210.5,-1062.02 217.5,-1062.02"/>
</g>
<!-- PL17 -->
<g id="node25" class="node"><title>PL17</title>
<ellipse fill="none" stroke="black" cx="214" cy="-925" rx="18" ry="18"/>
<text text-anchor="middle" x="214" y="-921.3" font-family="Times,serif" font-size="14.00">PL17</text>
</g>
<!-- transition23 -->
<g id="node28" class="node"><title>transition23</title>
<polygon fill="none" stroke="black" points="259,-853.5 223,-853.5 223,-852.5 259,-852.5 259,-853.5"/>
<text text-anchor="middle" x="201.5" y="-857.3" font-family="Times,serif" font-size="14.00">STRB+</text>
</g>
<!-- PL17&#45;&gt;transition23 -->
<g id="edge28" class="edge"><title>PL17&#45;&gt;transition23</title>
<path fill="none" stroke="black" d="M220.262,-907.765C226.359,-891.958 235.252,-868.901 239.104,-858.914"/>
<polygon fill="none" stroke="black" points="240.796,-859.39 240.963,-854.096 237.531,-858.131 240.796,-859.39"/>
</g>
<!-- transition9&#45;&gt;PL17 -->
<g id="edge27" class="edge"><title>transition9&#45;&gt;PL17</title>
<path fill="none" stroke="black" d="M214,-978.848C214,-977.368 214,-965.319 214,-953.1"/>
<polygon fill="black" stroke="black" points="217.5,-953.025 214,-943.025 210.5,-953.025 217.5,-953.025"/>
</g>
<!-- PL18 -->
<g id="node27" class="node"><title>PL18</title>
<ellipse fill="none" stroke="black" cx="214" cy="-781" rx="18" ry="18"/>
<text text-anchor="middle" x="214" y="-777.3" font-family="Times,serif" font-size="14.00">PL18</text>
</g>
<!-- transition10 -->
<g id="node30" class="node"><title>transition10</title>
<polygon fill="none" stroke="black" points="232,-727 196,-727 196,-726 232,-726 232,-727"/>
<text text-anchor="middle" x="180" y="-730.8" font-family="Times,serif" font-size="14.00">Ack+</text>
</g>
<!-- PL18&#45;&gt;transition10 -->
<g id="edge30" class="edge"><title>PL18&#45;&gt;transition10</title>
<path fill="none" stroke="black" d="M214,-762.939C214,-752.385 214,-739.534 214,-732.412"/>
<polygon fill="none" stroke="black" points="215.75,-732.059 214,-727.059 212.25,-732.059 215.75,-732.059"/>
</g>
<!-- transition23&#45;&gt;PL18 -->
<g id="edge29" class="edge"><title>transition23&#45;&gt;PL18</title>
<path fill="none" stroke="black" d="M240.98,-851.949C240.502,-850.71 231.357,-826.998 223.844,-807.522"/>
<polygon fill="black" stroke="black" points="227.09,-806.212 220.226,-798.142 220.559,-808.731 227.09,-806.212"/>
</g>
<!-- PL27 -->
<g id="node52" class="node"><title>PL27</title>
<ellipse fill="none" stroke="black" cx="268" cy="-781" rx="18" ry="18"/>
<text text-anchor="middle" x="268" y="-777.3" font-family="Times,serif" font-size="14.00">PL27</text>
</g>
<!-- transition23&#45;&gt;PL27 -->
<g id="edge57" class="edge"><title>transition23&#45;&gt;PL27</title>
<path fill="none" stroke="black" d="M241.02,-851.949C241.498,-850.71 250.643,-826.998 258.156,-807.522"/>
<polygon fill="black" stroke="black" points="261.441,-808.731 261.774,-798.142 254.91,-806.212 261.441,-808.731"/>
</g>
<!-- PL19 -->
<g id="node29" class="node"><title>PL19</title>
<ellipse fill="none" stroke="black" cx="214" cy="-672" rx="18" ry="18"/>
<text text-anchor="middle" x="214" y="-668.3" font-family="Times,serif" font-size="14.00">PL19</text>
</g>
<!-- transition19 -->
<g id="node32" class="node"><title>transition19</title>
<polygon fill="none" stroke="black" points="259,-618 223,-618 223,-617 259,-617 259,-618"/>
<text text-anchor="middle" x="206.5" y="-621.8" font-family="Times,serif" font-size="14.00">Dreq&#45;</text>
</g>
<!-- PL19&#45;&gt;transition19 -->
<g id="edge32" class="edge"><title>PL19&#45;&gt;transition19</title>
<path fill="none" stroke="black" d="M221.81,-655.67C227.483,-644.534 234.796,-630.177 238.545,-622.818"/>
<polygon fill="none" stroke="black" points="240.257,-623.313 240.968,-618.064 237.139,-621.724 240.257,-623.313"/>
</g>
<!-- transition10&#45;&gt;PL19 -->
<g id="edge31" class="edge"><title>transition10&#45;&gt;PL19</title>
<path fill="none" stroke="black" d="M214,-725.848C214,-724.368 214,-712.319 214,-700.1"/>
<polygon fill="black" stroke="black" points="217.5,-700.025 214,-690.025 210.5,-700.025 217.5,-700.025"/>
</g>
<!-- PL20 -->
<g id="node31" class="node"><title>PL20</title>
<ellipse fill="none" stroke="black" cx="214" cy="-563" rx="18" ry="18"/>
<text text-anchor="middle" x="214" y="-559.3" font-family="Times,serif" font-size="14.00">PL20</text>
</g>
<!-- transition11 -->
<g id="node34" class="node"><title>transition11</title>
<polygon fill="none" stroke="black" points="232,-509 196,-509 196,-508 232,-508 232,-509"/>
<text text-anchor="middle" x="178.5" y="-512.8" font-family="Times,serif" font-size="14.00">Dack&#45;</text>
</g>
<!-- PL20&#45;&gt;transition11 -->
<g id="edge34" class="edge"><title>PL20&#45;&gt;transition11</title>
<path fill="none" stroke="black" d="M214,-544.939C214,-534.385 214,-521.534 214,-514.412"/>
<polygon fill="none" stroke="black" points="215.75,-514.059 214,-509.059 212.25,-514.059 215.75,-514.059"/>
</g>
<!-- transition19&#45;&gt;PL20 -->
<g id="edge33" class="edge"><title>transition19&#45;&gt;PL20</title>
<path fill="none" stroke="black" d="M240.923,-616.848C240.116,-615.265 233.15,-601.591 226.506,-588.55"/>
<polygon fill="black" stroke="black" points="229.477,-586.669 221.819,-579.348 223.239,-589.847 229.477,-586.669"/>
</g>
<!-- PL22 -->
<g id="node35" class="node"><title>PL22</title>
<ellipse fill="none" stroke="black" cx="268" cy="-563" rx="18" ry="18"/>
<text text-anchor="middle" x="268" y="-559.3" font-family="Times,serif" font-size="14.00">PL22</text>
</g>
<!-- transition19&#45;&gt;PL22 -->
<g id="edge37" class="edge"><title>transition19&#45;&gt;PL22</title>
<path fill="none" stroke="black" d="M241.077,-616.848C241.884,-615.265 248.85,-601.591 255.494,-588.55"/>
<polygon fill="black" stroke="black" points="258.761,-589.847 260.181,-579.348 252.523,-586.669 258.761,-589.847"/>
</g>
<!-- PL21 -->
<g id="node33" class="node"><title>PL21</title>
<ellipse fill="none" stroke="black" cx="195" cy="-454" rx="18" ry="18"/>
<text text-anchor="middle" x="195" y="-450.3" font-family="Times,serif" font-size="14.00">PL21</text>
</g>
<!-- PL21&#45;&gt;transition12 -->
<g id="edge36" class="edge"><title>PL21&#45;&gt;transition12</title>
<path fill="none" stroke="black" d="M188.326,-470.997C180.33,-491.643 168,-528.855 168,-562 168,-980 168,-980 168,-980 168,-1013.1 172.582,-1022.21 187,-1052 193.33,-1065.08 204.715,-1078.16 210.468,-1084.33"/>
<polygon fill="none" stroke="black" points="209.22,-1085.56 213.947,-1087.95 211.742,-1083.13 209.22,-1085.56"/>
</g>
<!-- transition11&#45;&gt;PL21 -->
<g id="edge35" class="edge"><title>transition11&#45;&gt;PL21</title>
<path fill="none" stroke="black" d="M213.945,-507.848C213.394,-506.309 208.747,-493.348 204.195,-480.648"/>
<polygon fill="black" stroke="black" points="207.47,-479.413 200.801,-471.181 200.881,-481.775 207.47,-479.413"/>
</g>
<!-- transition13 -->
<g id="node37" class="node"><title>transition13</title>
<polygon fill="none" stroke="black" points="286,-509 250,-509 250,-508 286,-508 286,-509"/>
<text text-anchor="middle" x="230" y="-512.8" font-family="Times,serif" font-size="14.00">STRB&#45;</text>
</g>
<!-- PL22&#45;&gt;transition13 -->
<g id="edge38" class="edge"><title>PL22&#45;&gt;transition13</title>
<path fill="none" stroke="black" d="M268,-544.939C268,-534.385 268,-521.534 268,-514.412"/>
<polygon fill="none" stroke="black" points="269.75,-514.059 268,-509.059 266.25,-514.059 269.75,-514.059"/>
</g>
<!-- PL23 -->
<g id="node36" class="node"><title>PL23</title>
<ellipse fill="none" stroke="black" cx="268" cy="-454" rx="18" ry="18"/>
<text text-anchor="middle" x="268" y="-450.3" font-family="Times,serif" font-size="14.00">PL23</text>
</g>
<!-- transition14 -->
<g id="node39" class="node"><title>transition14</title>
<polygon fill="none" stroke="black" points="283,-400 247,-400 247,-399 283,-399 283,-400"/>
<text text-anchor="middle" x="233" y="-403.8" font-family="Times,serif" font-size="14.00">Ack&#45;</text>
</g>
<!-- PL23&#45;&gt;transition14 -->
<g id="edge40" class="edge"><title>PL23&#45;&gt;transition14</title>
<path fill="none" stroke="black" d="M267.034,-435.939C266.437,-425.385 265.709,-412.534 265.306,-405.412"/>
<polygon fill="none" stroke="black" points="267.033,-404.952 265.003,-400.059 263.539,-405.15 267.033,-404.952"/>
</g>
<!-- transition13&#45;&gt;PL23 -->
<g id="edge39" class="edge"><title>transition13&#45;&gt;PL23</title>
<path fill="none" stroke="black" d="M268,-507.848C268,-506.368 268,-494.319 268,-482.1"/>
<polygon fill="black" stroke="black" points="271.5,-482.025 268,-472.025 264.5,-482.025 271.5,-482.025"/>
</g>
<!-- PL26 -->
<g id="node55" class="node"><title>PL26</title>
<ellipse fill="none" stroke="black" cx="360" cy="-454" rx="18" ry="18"/>
<text text-anchor="middle" x="360" y="-450.3" font-family="Times,serif" font-size="14.00">PL26</text>
</g>
<!-- transition13&#45;&gt;PL26 -->
<g id="edge61" class="edge"><title>transition13&#45;&gt;PL26</title>
<path fill="none" stroke="black" d="M268.067,-507.962C269.907,-506.902 309.413,-484.143 336.032,-468.808"/>
<polygon fill="black" stroke="black" points="337.91,-471.765 344.827,-463.741 334.415,-465.7 337.91,-471.765"/>
</g>
<!-- PL24 -->
<g id="node38" class="node"><title>PL24</title>
<ellipse fill="none" stroke="black" cx="219" cy="-345" rx="18" ry="18"/>
<text text-anchor="middle" x="219" y="-341.3" font-family="Times,serif" font-size="14.00">PL24</text>
</g>
<!-- transition15 -->
<g id="node41" class="node"><title>transition15</title>
<polygon fill="none" stroke="black" points="226,-291 190,-291 190,-290 226,-290 226,-291"/>
<text text-anchor="middle" x="180.5" y="-294.8" font-family="Times,serif" font-size="14.00">X+</text>
</g>
<!-- PL24&#45;&gt;transition15 -->
<g id="edge42" class="edge"><title>PL24&#45;&gt;transition15</title>
<path fill="none" stroke="black" d="M215.52,-327.23C213.276,-316.419 210.511,-303.098 209.039,-296.004"/>
<polygon fill="none" stroke="black" points="210.742,-295.6 208.012,-291.06 207.315,-296.311 210.742,-295.6"/>
</g>
<!-- transition14&#45;&gt;PL24 -->
<g id="edge41" class="edge"><title>transition14&#45;&gt;PL24</title>
<path fill="none" stroke="black" d="M264.868,-398.848C263.37,-397.122 249.401,-381.027 237.268,-367.048"/>
<polygon fill="black" stroke="black" points="239.643,-364.444 230.445,-359.186 234.356,-369.033 239.643,-364.444"/>
</g>
<!-- PL25 -->
<g id="node40" class="node"><title>PL25</title>
<ellipse fill="none" stroke="black" cx="205" cy="-236" rx="18" ry="18"/>
<text text-anchor="middle" x="205" y="-232.3" font-family="Times,serif" font-size="14.00">PL25</text>
</g>
<!-- PL25&#45;&gt;transition16 -->
<g id="edge44" class="edge"><title>PL25&#45;&gt;transition16</title>
<path fill="none" stroke="black" d="M198.099,-219.098C193.279,-207.992 187.169,-193.912 184.044,-186.71"/>
<polygon fill="none" stroke="black" points="185.623,-185.952 182.027,-182.062 182.412,-187.346 185.623,-185.952"/>
</g>
<!-- transition15&#45;&gt;PL25 -->
<g id="edge43" class="edge"><title>transition15&#45;&gt;PL25</title>
<path fill="none" stroke="black" d="M207.991,-289.848C207.908,-288.368 207.226,-276.319 206.534,-264.1"/>
<polygon fill="black" stroke="black" points="210.023,-263.811 205.964,-254.025 203.034,-264.207 210.023,-263.811"/>
</g>
<!-- transition6 -->
<g id="node44" class="node"><title>transition6</title>
<polygon fill="none" stroke="black" points="194,-73 158,-73 158,-72 194,-72 194,-73"/>
<text text-anchor="middle" x="150.5" y="-76.8" font-family="Times,serif" font-size="14.00">Y&#45;</text>
</g>
<!-- PL12&#45;&gt;transition6 -->
<g id="edge46" class="edge"><title>PL12&#45;&gt;transition6</title>
<path fill="none" stroke="black" d="M176,-108.939C176,-98.3852 176,-85.5344 176,-78.4124"/>
<polygon fill="none" stroke="black" points="177.75,-78.0591 176,-73.0591 174.25,-78.0592 177.75,-78.0591"/>
</g>
<!-- PL13 -->
<g id="node43" class="node"><title>PL13</title>
<ellipse fill="none" stroke="black" cx="170" cy="-18" rx="18" ry="18"/>
<text text-anchor="middle" x="170" y="-14.3" font-family="Times,serif" font-size="14.00">PL13</text>
</g>
<!-- PL13&#45;&gt;transition7 -->
<g id="edge48" class="edge"><title>PL13&#45;&gt;transition7</title>
<path fill="none" stroke="black" d="M160.723,-33.591C148.906,-53.6106 130,-91.0957 130,-126 130,-1198 130,-1198 130,-1198 130,-1251.57 196.028,-1292.98 214.34,-1303.44"/>
<polygon fill="none" stroke="black" points="213.711,-1305.09 218.935,-1305.97 215.4,-1302.02 213.711,-1305.09"/>
</g>
<!-- transition6&#45;&gt;PL13 -->
<g id="edge47" class="edge"><title>transition6&#45;&gt;PL13</title>
<path fill="none" stroke="black" d="M175.983,-71.848C175.815,-70.368 174.451,-58.3194 173.068,-46.1004"/>
<polygon fill="black" stroke="black" points="176.53,-45.5675 171.927,-36.0247 169.575,-46.355 176.53,-45.5675"/>
</g>
<!-- transition20 -->
<g id="node47" class="node"><title>transition20</title>
<polygon fill="none" stroke="black" points="286,-1198 250,-1198 250,-1197 286,-1197 286,-1198"/>
<text text-anchor="middle" x="230" y="-1201.8" font-family="Times,serif" font-size="14.00">STRB&#45;</text>
</g>
<!-- PL29&#45;&gt;transition20 -->
<g id="edge50" class="edge"><title>PL29&#45;&gt;transition20</title>
<path fill="none" stroke="black" d="M268,-1233.94C268,-1223.39 268,-1210.53 268,-1203.41"/>
<polygon fill="none" stroke="black" points="269.75,-1203.06 268,-1198.06 266.25,-1203.06 269.75,-1203.06"/>
</g>
<!-- PL30 -->
<g id="node46" class="node"><title>PL30</title>
<ellipse fill="none" stroke="black" cx="268" cy="-1143" rx="18" ry="18"/>
<text text-anchor="middle" x="268" y="-1139.3" font-family="Times,serif" font-size="14.00">PL30</text>
</g>
<!-- transition21 -->
<g id="node49" class="node"><title>transition21</title>
<polygon fill="none" stroke="black" points="286,-1089 250,-1089 250,-1088 286,-1088 286,-1089"/>
<text text-anchor="middle" x="236" y="-1092.8" font-family="Times,serif" font-size="14.00">Ack&#45;</text>
</g>
<!-- PL30&#45;&gt;transition21 -->
<g id="edge52" class="edge"><title>PL30&#45;&gt;transition21</title>
<path fill="none" stroke="black" d="M268,-1124.94C268,-1114.39 268,-1101.53 268,-1094.41"/>
<polygon fill="none" stroke="black" points="269.75,-1094.06 268,-1089.06 266.25,-1094.06 269.75,-1094.06"/>
</g>
<!-- transition20&#45;&gt;PL30 -->
<g id="edge51" class="edge"><title>transition20&#45;&gt;PL30</title>
<path fill="none" stroke="black" d="M268,-1196.85C268,-1195.37 268,-1183.32 268,-1171.1"/>
<polygon fill="black" stroke="black" points="271.5,-1171.02 268,-1161.02 264.5,-1171.02 271.5,-1171.02"/>
</g>
<!-- PL31 -->
<g id="node48" class="node"><title>PL31</title>
<ellipse fill="none" stroke="black" cx="268" cy="-1034" rx="18" ry="18"/>
<text text-anchor="middle" x="268" y="-1030.3" font-family="Times,serif" font-size="14.00">PL31</text>
</g>
<!-- transition22 -->
<g id="node51" class="node"><title>transition22</title>
<polygon fill="none" stroke="black" points="286,-980 250,-980 250,-979 286,-979 286,-980"/>
<text text-anchor="middle" x="242.5" y="-983.8" font-family="Times,serif" font-size="14.00">X&#45;</text>
</g>
<!-- PL31&#45;&gt;transition22 -->
<g id="edge54" class="edge"><title>PL31&#45;&gt;transition22</title>
<path fill="none" stroke="black" d="M268,-1015.94C268,-1005.39 268,-992.534 268,-985.412"/>
<polygon fill="none" stroke="black" points="269.75,-985.059 268,-980.059 266.25,-985.059 269.75,-985.059"/>
</g>
<!-- transition21&#45;&gt;PL31 -->
<g id="edge53" class="edge"><title>transition21&#45;&gt;PL31</title>
<path fill="none" stroke="black" d="M268,-1087.85C268,-1086.37 268,-1074.32 268,-1062.1"/>
<polygon fill="black" stroke="black" points="271.5,-1062.02 268,-1052.02 264.5,-1062.02 271.5,-1062.02"/>
</g>
<!-- PL32 -->
<g id="node50" class="node"><title>PL32</title>
<ellipse fill="none" stroke="black" cx="268" cy="-925" rx="18" ry="18"/>
<text text-anchor="middle" x="268" y="-921.3" font-family="Times,serif" font-size="14.00">PL32</text>
</g>
<!-- PL32&#45;&gt;transition23 -->
<g id="edge56" class="edge"><title>PL32&#45;&gt;transition23</title>
<path fill="none" stroke="black" d="M261.738,-907.765C255.641,-891.958 246.748,-868.901 242.896,-858.914"/>
<polygon fill="none" stroke="black" points="244.469,-858.131 241.037,-854.096 241.204,-859.39 244.469,-858.131"/>
</g>
<!-- transition22&#45;&gt;PL32 -->
<g id="edge55" class="edge"><title>transition22&#45;&gt;PL32</title>
<path fill="none" stroke="black" d="M268,-978.848C268,-977.368 268,-965.319 268,-953.1"/>
<polygon fill="black" stroke="black" points="271.5,-953.025 268,-943.025 264.5,-953.025 271.5,-953.025"/>
</g>
<!-- transition18 -->
<g id="node54" class="node"><title>transition18</title>
<polygon fill="none" stroke="black" points="286,-727 250,-727 250,-726 286,-726 286,-727"/>
<text text-anchor="middle" x="240.5" y="-730.8" font-family="Times,serif" font-size="14.00">Y+</text>
</g>
<!-- PL27&#45;&gt;transition18 -->
<g id="edge58" class="edge"><title>PL27&#45;&gt;transition18</title>
<path fill="none" stroke="black" d="M268,-762.939C268,-752.385 268,-739.534 268,-732.412"/>
<polygon fill="none" stroke="black" points="269.75,-732.059 268,-727.059 266.25,-732.059 269.75,-732.059"/>
</g>
<!-- PL28 -->
<g id="node53" class="node"><title>PL28</title>
<ellipse fill="none" stroke="black" cx="268" cy="-672" rx="18" ry="18"/>
<text text-anchor="middle" x="268" y="-668.3" font-family="Times,serif" font-size="14.00">PL28</text>
</g>
<!-- PL28&#45;&gt;transition19 -->
<g id="edge60" class="edge"><title>PL28&#45;&gt;transition19</title>
<path fill="none" stroke="black" d="M260.19,-655.67C254.517,-644.534 247.204,-630.177 243.455,-622.818"/>
<polygon fill="none" stroke="black" points="244.861,-621.724 241.032,-618.064 241.743,-623.313 244.861,-621.724"/>
</g>
<!-- transition18&#45;&gt;PL28 -->
<g id="edge59" class="edge"><title>transition18&#45;&gt;PL28</title>
<path fill="none" stroke="black" d="M268,-725.848C268,-724.368 268,-712.319 268,-700.1"/>
<polygon fill="black" stroke="black" points="271.5,-700.025 268,-690.025 264.5,-700.025 271.5,-700.025"/>
</g>
<!-- PL26&#45;&gt;transition17 -->
<g id="edge62" class="edge"><title>PL26&#45;&gt;transition17</title>
<path fill="none" stroke="black" d="M357.94,-472.02C355.569,-493.105 352,-530.146 352,-562 352,-1543 352,-1543 352,-1543 352,-1590.64 333.028,-1646.25 326.891,-1662.99"/>
<polygon fill="none" stroke="black" points="325.146,-1662.65 325.02,-1667.95 328.421,-1663.89 325.146,-1662.65"/>
</g>
<!-- PL33&#45;&gt;transition24 -->
<g id="edge64" class="edge"><title>PL33&#45;&gt;transition24</title>
<path fill="none" stroke="black" d="M53.078,-1528.28C34.313,-1506.87 0,-1461.5 0,-1416 0,-1416 0,-1416 0,-1197 0,-1144.62 62.3184,-1102.35 79.6021,-1091.63"/>
<polygon fill="none" stroke="black" points="80.5494,-1093.11 83.9391,-1089.03 78.7506,-1090.1 80.5494,-1093.11"/>
</g>
<!-- PL14&#45;&gt;transition8 -->
<g id="edge66" class="edge"><title>PL14&#45;&gt;transition8</title>
<path fill="none" stroke="black" d="M32.0602,-1052.02C34.4305,-1073.11 38,-1110.15 38,-1142 38,-1307 38,-1307 38,-1307 38,-1401.8 195.206,-1413.92 255.681,-1415.07"/>
<polygon fill="none" stroke="black" points="255.861,-1416.82 260.886,-1415.15 255.912,-1413.32 255.861,-1416.82"/>
</g>
</g>
</svg>
