<?xml version="1.0" encoding="UTF-8" standalone="no"?>
<!DOCTYPE svg PUBLIC "-//W3C//DTD SVG 1.1//EN"
 "http://www.w3.org/Graphics/SVG/1.1/DTD/svg11.dtd">
<!-- Generated by graphviz version 2.38.0 (20140413.2041)
 -->
<!-- Title: %3 Pages: 1 -->
<svg width="294pt" height="1714pt"
 viewBox="0.00 0.00 294.00 1714.00" xmlns="http://www.w3.org/2000/svg" xmlns:xlink="http://www.w3.org/1999/xlink">
<g id="graph0" class="graph" transform="scale(1 1) rotate(0) translate(4 1710)">
<title>%3</title>
<polygon fill="white" stroke="none" points="-4,4 -4,-1710 290,-1710 290,4 -4,4"/>
<!-- PL1 -->
<g id="node1" class="node"><title>PL1</title>
<ellipse fill="none" stroke="black" cx="199" cy="-1688" rx="18" ry="18"/>
<text text-anchor="middle" x="199" y="-1684.3" font-family="Times,serif" font-size="14.00">PL1</text>
</g>
<!-- transition17 -->
<g id="node3" class="node"><title>transition17</title>
<polygon fill="none" stroke="black" points="122,-1634 86,-1634 86,-1633 122,-1633 122,-1634"/>
<text text-anchor="middle" x="62" y="-1637.8" font-family="Times,serif" font-size="14.00">XRDY+</text>
</g>
<!-- PL1&#45;&gt;transition17 -->
<g id="edge1" class="edge"><title>PL1&#45;&gt;transition17</title>
<path fill="none" stroke="black" d="M183.313,-1678.25C161.258,-1665.94 122.267,-1644.19 108.762,-1636.66"/>
<polygon fill="none" stroke="black" points="109.37,-1634.99 104.151,-1634.08 107.665,-1638.05 109.37,-1634.99"/>
</g>
<!-- PL33 -->
<g id="node2" class="node"><title>PL33</title>
<ellipse fill="none" stroke="black" cx="133" cy="-1579" rx="18" ry="18"/>
<text text-anchor="middle" x="133" y="-1575.3" font-family="Times,serif" font-size="14.00">PL33</text>
</g>
<!-- transition24 -->
<g id="node5" class="node"><title>transition24</title>
<polygon fill="none" stroke="black" points="154,-1525 118,-1525 118,-1524 154,-1524 154,-1525"/>
<text text-anchor="middle" x="100" y="-1528.8" font-family="Times,serif" font-size="14.00">Areq+</text>
</g>
<!-- PL33&#45;&gt;transition24 -->
<g id="edge3" class="edge"><title>PL33&#45;&gt;transition24</title>
<path fill="none" stroke="black" d="M133.966,-1560.94C134.563,-1550.39 135.291,-1537.53 135.694,-1530.41"/>
<polygon fill="none" stroke="black" points="137.461,-1530.15 135.997,-1525.06 133.967,-1529.95 137.461,-1530.15"/>
</g>
<!-- transition17&#45;&gt;PL33 -->
<g id="edge2" class="edge"><title>transition17&#45;&gt;PL33</title>
<path fill="none" stroke="black" d="M104.083,-1632.85C104.963,-1631.24 112.672,-1617.15 119.908,-1603.93"/>
<polygon fill="black" stroke="black" points="123.023,-1605.53 124.753,-1595.07 116.882,-1602.17 123.023,-1605.53"/>
</g>
<!-- PL2 -->
<g id="node34" class="node"><title>PL2</title>
<ellipse fill="none" stroke="black" cx="75" cy="-1579" rx="18" ry="18"/>
<text text-anchor="middle" x="75" y="-1575.3" font-family="Times,serif" font-size="14.00">PL2</text>
</g>
<!-- transition17&#45;&gt;PL2 -->
<g id="edge37" class="edge"><title>transition17&#45;&gt;PL2</title>
<path fill="none" stroke="black" d="M103.917,-1632.85C103.037,-1631.24 95.3282,-1617.15 88.0918,-1603.93"/>
<polygon fill="black" stroke="black" points="91.1178,-1602.17 83.2472,-1595.07 84.9769,-1605.53 91.1178,-1602.17"/>
</g>
<!-- PL8 -->
<g id="node4" class="node"><title>PL8</title>
<ellipse fill="none" stroke="black" cx="210" cy="-1470" rx="18" ry="18"/>
<text text-anchor="middle" x="210" y="-1466.3" font-family="Times,serif" font-size="14.00">PL8</text>
</g>
<!-- transition4 -->
<g id="node7" class="node"><title>transition4</title>
<polygon fill="none" stroke="black" points="231,-1416 195,-1416 195,-1415 231,-1415 231,-1416"/>
<text text-anchor="middle" x="176" y="-1419.8" font-family="Times,serif" font-size="14.00">Aack+</text>
</g>
<!-- PL8&#45;&gt;transition4 -->
<g id="edge5" class="edge"><title>PL8&#45;&gt;transition4</title>
<path fill="none" stroke="black" d="M210.966,-1451.94C211.563,-1441.39 212.291,-1428.53 212.694,-1421.41"/>
<polygon fill="none" stroke="black" points="214.461,-1421.15 212.997,-1416.06 210.967,-1420.95 214.461,-1421.15"/>
</g>
<!-- transition24&#45;&gt;PL8 -->
<g id="edge4" class="edge"><title>transition24&#45;&gt;PL8</title>
<path fill="none" stroke="black" d="M136.054,-1523.96C137.461,-1522.95 166.29,-1502.31 187.527,-1487.1"/>
<polygon fill="black" stroke="black" points="189.689,-1489.85 195.781,-1481.18 185.613,-1484.16 189.689,-1489.85"/>
</g>
<!-- PL14 -->
<g id="node16" class="node"><title>PL14</title>
<ellipse fill="none" stroke="black" cx="155" cy="-1470" rx="18" ry="18"/>
<text text-anchor="middle" x="155" y="-1466.3" font-family="Times,serif" font-size="14.00">PL14</text>
</g>
<!-- transition24&#45;&gt;PL14 -->
<g id="edge16" class="edge"><title>transition24&#45;&gt;PL14</title>
<path fill="none" stroke="black" d="M136.055,-1523.85C136.606,-1522.31 141.253,-1509.35 145.805,-1496.65"/>
<polygon fill="black" stroke="black" points="149.119,-1497.78 149.199,-1487.18 142.53,-1495.41 149.119,-1497.78"/>
</g>
<!-- PL9 -->
<g id="node6" class="node"><title>PL9</title>
<ellipse fill="none" stroke="black" cx="218" cy="-1361" rx="18" ry="18"/>
<text text-anchor="middle" x="218" y="-1357.3" font-family="Times,serif" font-size="14.00">PL9</text>
</g>
<!-- transition16 -->
<g id="node9" class="node"><title>transition16</title>
<polygon fill="none" stroke="black" points="232,-1289.5 196,-1289.5 196,-1288.5 232,-1288.5 232,-1289.5"/>
<text text-anchor="middle" x="174.5" y="-1293.3" font-family="Times,serif" font-size="14.00">STRB+</text>
</g>
<!-- PL9&#45;&gt;transition16 -->
<g id="edge7" class="edge"><title>PL9&#45;&gt;transition16</title>
<path fill="none" stroke="black" d="M217.011,-1342.7C216.124,-1327.17 214.876,-1305.32 214.306,-1295.35"/>
<polygon fill="none" stroke="black" points="216.038,-1294.98 214.005,-1290.09 212.543,-1295.18 216.038,-1294.98"/>
</g>
<!-- transition4&#45;&gt;PL9 -->
<g id="edge6" class="edge"><title>transition4&#45;&gt;PL9</title>
<path fill="none" stroke="black" d="M213.014,-1414.85C213.154,-1413.37 214.291,-1401.32 215.443,-1389.1"/>
<polygon fill="black" stroke="black" points="218.939,-1389.31 216.394,-1379.02 211.97,-1388.65 218.939,-1389.31"/>
</g>
<!-- PL12 -->
<g id="node8" class="node"><title>PL12</title>
<ellipse fill="none" stroke="black" cx="171" cy="-1217" rx="18" ry="18"/>
<text text-anchor="middle" x="171" y="-1213.3" font-family="Times,serif" font-size="14.00">PL12</text>
</g>
<!-- transition6 -->
<g id="node11" class="node"><title>transition6</title>
<polygon fill="none" stroke="black" points="189,-1163 153,-1163 153,-1162 189,-1162 189,-1163"/>
<text text-anchor="middle" x="145.5" y="-1166.8" font-family="Times,serif" font-size="14.00">Y&#45;</text>
</g>
<!-- PL12&#45;&gt;transition6 -->
<g id="edge9" class="edge"><title>PL12&#45;&gt;transition6</title>
<path fill="none" stroke="black" d="M171,-1198.94C171,-1188.39 171,-1175.53 171,-1168.41"/>
<polygon fill="none" stroke="black" points="172.75,-1168.06 171,-1163.06 169.25,-1168.06 172.75,-1168.06"/>
</g>
<!-- transition16&#45;&gt;PL12 -->
<g id="edge8" class="edge"><title>transition16&#45;&gt;PL12</title>
<path fill="none" stroke="black" d="M213.969,-1287.95C213.179,-1286.66 197.549,-1261.22 185.366,-1241.39"/>
<polygon fill="black" stroke="black" points="188.293,-1239.46 180.076,-1232.78 182.328,-1243.13 188.293,-1239.46"/>
</g>
<!-- PL10 -->
<g id="node42" class="node"><title>PL10</title>
<ellipse fill="none" stroke="black" cx="225" cy="-1217" rx="18" ry="18"/>
<text text-anchor="middle" x="225" y="-1213.3" font-family="Times,serif" font-size="14.00">PL10</text>
</g>
<!-- transition16&#45;&gt;PL10 -->
<g id="edge47" class="edge"><title>transition16&#45;&gt;PL10</title>
<path fill="none" stroke="black" d="M214.008,-1287.95C214.199,-1286.74 217.778,-1263.96 220.801,-1244.72"/>
<polygon fill="black" stroke="black" points="224.259,-1245.26 222.354,-1234.84 217.344,-1244.17 224.259,-1245.26"/>
</g>
<!-- PL13 -->
<g id="node10" class="node"><title>PL13</title>
<ellipse fill="none" stroke="black" cx="171" cy="-1108" rx="18" ry="18"/>
<text text-anchor="middle" x="171" y="-1104.3" font-family="Times,serif" font-size="14.00">PL13</text>
</g>
<!-- transition7 -->
<g id="node13" class="node"><title>transition7</title>
<polygon fill="none" stroke="black" points="189,-1054 153,-1054 153,-1053 189,-1053 189,-1054"/>
<text text-anchor="middle" x="136.5" y="-1057.8" font-family="Times,serif" font-size="14.00">Areq&#45;</text>
</g>
<!-- PL13&#45;&gt;transition7 -->
<g id="edge11" class="edge"><title>PL13&#45;&gt;transition7</title>
<path fill="none" stroke="black" d="M171,-1089.94C171,-1079.39 171,-1066.53 171,-1059.41"/>
<polygon fill="none" stroke="black" points="172.75,-1059.06 171,-1054.06 169.25,-1059.06 172.75,-1059.06"/>
</g>
<!-- transition6&#45;&gt;PL13 -->
<g id="edge10" class="edge"><title>transition6&#45;&gt;PL13</title>
<path fill="none" stroke="black" d="M171,-1161.85C171,-1160.37 171,-1148.32 171,-1136.1"/>
<polygon fill="black" stroke="black" points="174.5,-1136.02 171,-1126.02 167.5,-1136.02 174.5,-1136.02"/>
</g>
<!-- PL6 -->
<g id="node12" class="node"><title>PL6</title>
<ellipse fill="none" stroke="black" cx="117" cy="-999" rx="18" ry="18"/>
<text text-anchor="middle" x="117" y="-995.3" font-family="Times,serif" font-size="14.00">PL6</text>
</g>
<!-- transition3 -->
<g id="node15" class="node"><title>transition3</title>
<polygon fill="none" stroke="black" points="135,-945 99,-945 99,-944 135,-944 135,-945"/>
<text text-anchor="middle" x="81.5" y="-948.8" font-family="Times,serif" font-size="14.00">Aack&#45;</text>
</g>
<!-- PL6&#45;&gt;transition3 -->
<g id="edge13" class="edge"><title>PL6&#45;&gt;transition3</title>
<path fill="none" stroke="black" d="M117,-980.939C117,-970.385 117,-957.534 117,-950.412"/>
<polygon fill="none" stroke="black" points="118.75,-950.059 117,-945.059 115.25,-950.059 118.75,-950.059"/>
</g>
<!-- transition7&#45;&gt;PL6 -->
<g id="edge12" class="edge"><title>transition7&#45;&gt;PL6</title>
<path fill="none" stroke="black" d="M170.845,-1052.85C169.012,-1051.05 151.262,-1033.63 136.635,-1019.27"/>
<polygon fill="black" stroke="black" points="138.96,-1016.65 129.372,-1012.14 134.057,-1021.65 138.96,-1016.65"/>
</g>
<!-- PL15 -->
<g id="node21" class="node"><title>PL15</title>
<ellipse fill="none" stroke="black" cx="171" cy="-999" rx="18" ry="18"/>
<text text-anchor="middle" x="171" y="-995.3" font-family="Times,serif" font-size="14.00">PL15</text>
</g>
<!-- transition7&#45;&gt;PL15 -->
<g id="edge23" class="edge"><title>transition7&#45;&gt;PL15</title>
<path fill="none" stroke="black" d="M171,-1052.85C171,-1051.37 171,-1039.32 171,-1027.1"/>
<polygon fill="black" stroke="black" points="174.5,-1027.02 171,-1017.02 167.5,-1027.02 174.5,-1027.02"/>
</g>
<!-- PL29 -->
<g id="node45" class="node"><title>PL29</title>
<ellipse fill="none" stroke="black" cx="225" cy="-999" rx="18" ry="18"/>
<text text-anchor="middle" x="225" y="-995.3" font-family="Times,serif" font-size="14.00">PL29</text>
</g>
<!-- transition7&#45;&gt;PL29 -->
<g id="edge51" class="edge"><title>transition7&#45;&gt;PL29</title>
<path fill="none" stroke="black" d="M171.155,-1052.85C172.988,-1051.05 190.738,-1033.63 205.365,-1019.27"/>
<polygon fill="black" stroke="black" points="207.943,-1021.65 212.628,-1012.14 203.04,-1016.65 207.943,-1021.65"/>
</g>
<!-- PL7 -->
<g id="node14" class="node"><title>PL7</title>
<ellipse fill="none" stroke="black" cx="94" cy="-890" rx="18" ry="18"/>
<text text-anchor="middle" x="94" y="-886.3" font-family="Times,serif" font-size="14.00">PL7</text>
</g>
<!-- PL7&#45;&gt;transition24 -->
<g id="edge15" class="edge"><title>PL7&#45;&gt;transition24</title>
<path fill="none" stroke="black" d="M92.3751,-908.167C91.4761,-918.533 90.4517,-932.013 90,-944 88.7783,-976.421 89.7763,-984.556 90,-1017 90.8889,-1145.9 81.1651,-1178.74 94,-1307 102.575,-1392.69 128.397,-1494.92 134.633,-1518.83"/>
<polygon fill="none" stroke="black" points="133.008,-1519.53 135.977,-1523.91 136.392,-1518.63 133.008,-1519.53"/>
</g>
<!-- transition3&#45;&gt;PL7 -->
<g id="edge14" class="edge"><title>transition3&#45;&gt;PL7</title>
<path fill="none" stroke="black" d="M116.934,-943.848C116.262,-942.3 110.571,-929.185 105.026,-916.409"/>
<polygon fill="black" stroke="black" points="108.092,-914.682 100.901,-906.902 101.671,-917.469 108.092,-914.682"/>
</g>
<!-- transition8 -->
<g id="node18" class="node"><title>transition8</title>
<polygon fill="none" stroke="black" points="171,-1416 135,-1416 135,-1415 171,-1415 171,-1416"/>
<text text-anchor="middle" x="112.5" y="-1419.8" font-family="Times,serif" font-size="14.00">XRDY&#45;</text>
</g>
<!-- PL14&#45;&gt;transition8 -->
<g id="edge17" class="edge"><title>PL14&#45;&gt;transition8</title>
<path fill="none" stroke="black" d="M154.356,-1451.94C153.958,-1441.39 153.473,-1428.53 153.204,-1421.41"/>
<polygon fill="none" stroke="black" points="154.94,-1420.99 153.002,-1416.06 151.442,-1421.12 154.94,-1420.99"/>
</g>
<!-- PL4 -->
<g id="node17" class="node"><title>PL4</title>
<ellipse fill="none" stroke="black" cx="164" cy="-1361" rx="18" ry="18"/>
<text text-anchor="middle" x="164" y="-1357.3" font-family="Times,serif" font-size="14.00">PL4</text>
</g>
<!-- transition2 -->
<g id="node19" class="node"><title>transition2</title>
<polygon fill="none" stroke="black" points="286,-1289.5 250,-1289.5 250,-1288.5 286,-1288.5 286,-1289.5"/>
<text text-anchor="middle" x="221" y="-1277.3" font-family="Times,serif" font-size="14.00">IOSTRB+</text>
</g>
<!-- PL4&#45;&gt;transition2 -->
<g id="edge19" class="edge"><title>PL4&#45;&gt;transition2</title>
<path fill="none" stroke="black" d="M178.461,-1350.27C202.415,-1334.14 249.127,-1302.7 263.61,-1292.95"/>
<polygon fill="none" stroke="black" points="264.785,-1294.27 267.956,-1290.03 262.831,-1291.37 264.785,-1294.27"/>
</g>
<!-- transition8&#45;&gt;PL4 -->
<g id="edge18" class="edge"><title>transition8&#45;&gt;PL4</title>
<path fill="none" stroke="black" d="M153.032,-1414.85C153.341,-1413.36 155.872,-1401.16 158.424,-1388.87"/>
<polygon fill="black" stroke="black" points="161.92,-1389.24 160.525,-1378.74 155.066,-1387.82 161.92,-1389.24"/>
</g>
<!-- PL5 -->
<g id="node20" class="node"><title>PL5</title>
<ellipse fill="none" stroke="black" cx="121" cy="-1289" rx="18" ry="18"/>
<text text-anchor="middle" x="121" y="-1285.3" font-family="Times,serif" font-size="14.00">PL5</text>
</g>
<!-- transition8&#45;&gt;PL5 -->
<g id="edge21" class="edge"><title>transition8&#45;&gt;PL5</title>
<path fill="none" stroke="black" d="M152.969,-1414.94C152.327,-1413.8 141.981,-1395.21 137,-1379 130.748,-1358.65 126.629,-1334.88 124.139,-1317.03"/>
<polygon fill="black" stroke="black" points="127.597,-1316.48 122.825,-1307.02 120.656,-1317.39 127.597,-1316.48"/>
</g>
<!-- transition2&#45;&gt;PL1 -->
<g id="edge20" class="edge"><title>transition2&#45;&gt;PL1</title>
<path fill="none" stroke="black" d="M267.997,-1290.05C267.876,-1292.17 264,-1360.28 264,-1415 264,-1580 264,-1580 264,-1580 264,-1614.92 238.396,-1648.16 219.327,-1668.07"/>
<polygon fill="black" stroke="black" points="216.734,-1665.71 212.154,-1675.26 221.692,-1670.65 216.734,-1665.71"/>
</g>
<!-- PL5&#45;&gt;transition7 -->
<g id="edge22" class="edge"><title>PL5&#45;&gt;transition7</title>
<path fill="none" stroke="black" d="M120.056,-1270.85C118.737,-1235.6 118.868,-1153 144,-1090 149.384,-1076.5 161.198,-1063.61 167.255,-1057.58"/>
<polygon fill="none" stroke="black" points="168.538,-1058.77 170.944,-1054.05 166.12,-1056.24 168.538,-1058.77"/>
</g>
<!-- transition12 -->
<g id="node23" class="node"><title>transition12</title>
<polygon fill="none" stroke="black" points="189,-836 153,-836 153,-835 189,-835 189,-836"/>
<text text-anchor="middle" x="135" y="-839.8" font-family="Times,serif" font-size="14.00">Dreq+</text>
</g>
<!-- PL15&#45;&gt;transition12 -->
<g id="edge24" class="edge"><title>PL15&#45;&gt;transition12</title>
<path fill="none" stroke="black" d="M171,-980.969C171,-944.984 171,-862.753 171,-841.233"/>
<polygon fill="none" stroke="black" points="172.75,-841.075 171,-836.075 169.25,-841.075 172.75,-841.075"/>
</g>
<!-- PL16 -->
<g id="node22" class="node"><title>PL16</title>
<ellipse fill="none" stroke="black" cx="171" cy="-781" rx="18" ry="18"/>
<text text-anchor="middle" x="171" y="-777.3" font-family="Times,serif" font-size="14.00">PL16</text>
</g>
<!-- transition9 -->
<g id="node25" class="node"><title>transition9</title>
<polygon fill="none" stroke="black" points="189,-727 153,-727 153,-726 189,-726 189,-727"/>
<text text-anchor="middle" x="134" y="-730.8" font-family="Times,serif" font-size="14.00">Dack+</text>
</g>
<!-- PL16&#45;&gt;transition9 -->
<g id="edge26" class="edge"><title>PL16&#45;&gt;transition9</title>
<path fill="none" stroke="black" d="M171,-762.939C171,-752.385 171,-739.534 171,-732.412"/>
<polygon fill="none" stroke="black" points="172.75,-732.059 171,-727.059 169.25,-732.059 172.75,-732.059"/>
</g>
<!-- transition12&#45;&gt;PL16 -->
<g id="edge25" class="edge"><title>transition12&#45;&gt;PL16</title>
<path fill="none" stroke="black" d="M171,-834.848C171,-833.368 171,-821.319 171,-809.1"/>
<polygon fill="black" stroke="black" points="174.5,-809.025 171,-799.025 167.5,-809.025 174.5,-809.025"/>
</g>
<!-- PL17 -->
<g id="node24" class="node"><title>PL17</title>
<ellipse fill="none" stroke="black" cx="171" cy="-672" rx="18" ry="18"/>
<text text-anchor="middle" x="171" y="-668.3" font-family="Times,serif" font-size="14.00">PL17</text>
</g>
<!-- transition23 -->
<g id="node27" class="node"><title>transition23</title>
<polygon fill="none" stroke="black" points="202,-618 166,-618 166,-617 202,-617 202,-618"/>
<text text-anchor="middle" x="144.5" y="-621.8" font-family="Times,serif" font-size="14.00">STRB+</text>
</g>
<!-- PL17&#45;&gt;transition23 -->
<g id="edge28" class="edge"><title>PL17&#45;&gt;transition23</title>
<path fill="none" stroke="black" d="M175.113,-654.23C177.765,-643.419 181.033,-630.098 182.773,-623.004"/>
<polygon fill="none" stroke="black" points="184.494,-623.333 183.985,-618.06 181.095,-622.499 184.494,-623.333"/>
</g>
<!-- transition9&#45;&gt;PL17 -->
<g id="edge27" class="edge"><title>transition9&#45;&gt;PL17</title>
<path fill="none" stroke="black" d="M171,-725.848C171,-724.368 171,-712.319 171,-700.1"/>
<polygon fill="black" stroke="black" points="174.5,-700.025 171,-690.025 167.5,-700.025 174.5,-700.025"/>
</g>
<!-- PL18 -->
<g id="node26" class="node"><title>PL18</title>
<ellipse fill="none" stroke="black" cx="140" cy="-563" rx="18" ry="18"/>
<text text-anchor="middle" x="140" y="-559.3" font-family="Times,serif" font-size="14.00">PL18</text>
</g>
<!-- transition10 -->
<g id="node29" class="node"><title>transition10</title>
<polygon fill="none" stroke="black" points="158,-509 122,-509 122,-508 158,-508 158,-509"/>
<text text-anchor="middle" x="106" y="-512.8" font-family="Times,serif" font-size="14.00">Ack+</text>
</g>
<!-- PL18&#45;&gt;transition10 -->
<g id="edge30" class="edge"><title>PL18&#45;&gt;transition10</title>
<path fill="none" stroke="black" d="M140,-544.939C140,-534.385 140,-521.534 140,-514.412"/>
<polygon fill="none" stroke="black" points="141.75,-514.059 140,-509.059 138.25,-514.059 141.75,-514.059"/>
</g>
<!-- transition23&#45;&gt;PL18 -->
<g id="edge29" class="edge"><title>transition23&#45;&gt;PL18</title>
<path fill="none" stroke="black" d="M183.874,-616.848C182.45,-615.132 169.236,-599.216 157.679,-585.295"/>
<polygon fill="black" stroke="black" points="160.248,-582.91 151.167,-577.451 154.862,-587.381 160.248,-582.91"/>
</g>
<!-- PL27 -->
<g id="node52" class="node"><title>PL27</title>
<ellipse fill="none" stroke="black" cx="194" cy="-563" rx="18" ry="18"/>
<text text-anchor="middle" x="194" y="-559.3" font-family="Times,serif" font-size="14.00">PL27</text>
</g>
<!-- transition23&#45;&gt;PL27 -->
<g id="edge59" class="edge"><title>transition23&#45;&gt;PL27</title>
<path fill="none" stroke="black" d="M184.029,-616.848C184.31,-615.359 186.61,-603.164 188.931,-590.865"/>
<polygon fill="black" stroke="black" points="192.426,-591.218 190.841,-580.742 185.548,-589.92 192.426,-591.218"/>
</g>
<!-- PL19 -->
<g id="node28" class="node"><title>PL19</title>
<ellipse fill="none" stroke="black" cx="140" cy="-454" rx="18" ry="18"/>
<text text-anchor="middle" x="140" y="-450.3" font-family="Times,serif" font-size="14.00">PL19</text>
</g>
<!-- transition19 -->
<g id="node31" class="node"><title>transition19</title>
<polygon fill="none" stroke="black" points="171,-400 135,-400 135,-399 171,-399 171,-400"/>
<text text-anchor="middle" x="118.5" y="-403.8" font-family="Times,serif" font-size="14.00">Dreq&#45;</text>
</g>
<!-- PL19&#45;&gt;transition19 -->
<g id="edge32" class="edge"><title>PL19&#45;&gt;transition19</title>
<path fill="none" stroke="black" d="M144.113,-436.23C146.765,-425.419 150.033,-412.098 151.773,-405.004"/>
<polygon fill="none" stroke="black" points="153.494,-405.333 152.985,-400.06 150.095,-404.499 153.494,-405.333"/>
</g>
<!-- transition10&#45;&gt;PL19 -->
<g id="edge31" class="edge"><title>transition10&#45;&gt;PL19</title>
<path fill="none" stroke="black" d="M140,-507.848C140,-506.368 140,-494.319 140,-482.1"/>
<polygon fill="black" stroke="black" points="143.5,-482.025 140,-472.025 136.5,-482.025 143.5,-482.025"/>
</g>
<!-- PL22 -->
<g id="node30" class="node"><title>PL22</title>
<ellipse fill="none" stroke="black" cx="193" cy="-345" rx="18" ry="18"/>
<text text-anchor="middle" x="193" y="-341.3" font-family="Times,serif" font-size="14.00">PL22</text>
</g>
<!-- transition13 -->
<g id="node33" class="node"><title>transition13</title>
<polygon fill="none" stroke="black" points="211,-291 175,-291 175,-290 211,-290 211,-291"/>
<text text-anchor="middle" x="155" y="-294.8" font-family="Times,serif" font-size="14.00">STRB&#45;</text>
</g>
<!-- PL22&#45;&gt;transition13 -->
<g id="edge34" class="edge"><title>PL22&#45;&gt;transition13</title>
<path fill="none" stroke="black" d="M193,-326.939C193,-316.385 193,-303.534 193,-296.412"/>
<polygon fill="none" stroke="black" points="194.75,-296.059 193,-291.059 191.25,-296.059 194.75,-296.059"/>
</g>
<!-- transition19&#45;&gt;PL22 -->
<g id="edge33" class="edge"><title>transition19&#45;&gt;PL22</title>
<path fill="none" stroke="black" d="M153.115,-398.848C154.382,-397.169 165.92,-381.881 176.262,-368.177"/>
<polygon fill="black" stroke="black" points="179.214,-370.076 182.445,-359.986 173.627,-365.859 179.214,-370.076"/>
</g>
<!-- PL20 -->
<g id="node55" class="node"><title>PL20</title>
<ellipse fill="none" stroke="black" cx="139" cy="-345" rx="18" ry="18"/>
<text text-anchor="middle" x="139" y="-341.3" font-family="Times,serif" font-size="14.00">PL20</text>
</g>
<!-- transition19&#45;&gt;PL20 -->
<g id="edge63" class="edge"><title>transition19&#45;&gt;PL20</title>
<path fill="none" stroke="black" d="M152.96,-398.848C152.562,-397.344 149.281,-384.919 145.999,-372.496"/>
<polygon fill="black" stroke="black" points="149.36,-371.517 143.422,-362.742 142.593,-373.305 149.36,-371.517"/>
</g>
<!-- PL26 -->
<g id="node32" class="node"><title>PL26</title>
<ellipse fill="none" stroke="black" cx="139" cy="-236" rx="18" ry="18"/>
<text text-anchor="middle" x="139" y="-232.3" font-family="Times,serif" font-size="14.00">PL26</text>
</g>
<!-- PL26&#45;&gt;transition17 -->
<g id="edge36" class="edge"><title>PL26&#45;&gt;transition17</title>
<path fill="none" stroke="black" d="M125.944,-249.241C94.4712,-280.145 17,-365.141 17,-453 17,-1525 17,-1525 17,-1525 17,-1559.84 25.4753,-1570.42 48,-1597 62.9121,-1614.6 88.6053,-1626.64 99.2092,-1631.09"/>
<polygon fill="none" stroke="black" points="98.6013,-1632.73 103.894,-1632.96 99.9005,-1629.48 98.6013,-1632.73"/>
</g>
<!-- transition13&#45;&gt;PL26 -->
<g id="edge35" class="edge"><title>transition13&#45;&gt;PL26</title>
<path fill="none" stroke="black" d="M192.845,-289.848C191.012,-288.049 173.262,-270.628 158.635,-256.272"/>
<polygon fill="black" stroke="black" points="160.96,-253.649 151.372,-249.143 156.057,-258.645 160.96,-253.649"/>
</g>
<!-- PL23 -->
<g id="node37" class="node"><title>PL23</title>
<ellipse fill="none" stroke="black" cx="200" cy="-236" rx="18" ry="18"/>
<text text-anchor="middle" x="200" y="-232.3" font-family="Times,serif" font-size="14.00">PL23</text>
</g>
<!-- transition13&#45;&gt;PL23 -->
<g id="edge41" class="edge"><title>transition13&#45;&gt;PL23</title>
<path fill="none" stroke="black" d="M193.02,-289.848C193.216,-288.368 194.807,-276.319 196.421,-264.1"/>
<polygon fill="black" stroke="black" points="199.912,-264.397 197.751,-254.025 192.972,-263.48 199.912,-264.397"/>
</g>
<!-- transition1 -->
<g id="node36" class="node"><title>transition1</title>
<polygon fill="none" stroke="black" points="91,-1525 55,-1525 55,-1524 91,-1524 91,-1525"/>
<text text-anchor="middle" x="27.5" y="-1528.8" font-family="Times,serif" font-size="14.00">IOSTRB&#45;</text>
</g>
<!-- PL2&#45;&gt;transition1 -->
<g id="edge38" class="edge"><title>PL2&#45;&gt;transition1</title>
<path fill="none" stroke="black" d="M74.3562,-1560.94C73.9579,-1550.39 73.473,-1537.53 73.2042,-1530.41"/>
<polygon fill="none" stroke="black" points="74.9396,-1529.99 73.0022,-1525.06 71.4421,-1530.12 74.9396,-1529.99"/>
</g>
<!-- PL3 -->
<g id="node35" class="node"><title>PL3</title>
<ellipse fill="none" stroke="black" cx="63" cy="-1470" rx="18" ry="18"/>
<text text-anchor="middle" x="63" y="-1466.3" font-family="Times,serif" font-size="14.00">PL3</text>
</g>
<!-- PL3&#45;&gt;transition8 -->
<g id="edge40" class="edge"><title>PL3&#45;&gt;transition8</title>
<path fill="none" stroke="black" d="M78.2673,-1460.01C99.2555,-1447.65 135.863,-1426.09 148.533,-1418.63"/>
<polygon fill="none" stroke="black" points="149.438,-1420.13 152.858,-1416.08 147.662,-1417.11 149.438,-1420.13"/>
</g>
<!-- transition1&#45;&gt;PL3 -->
<g id="edge39" class="edge"><title>transition1&#45;&gt;PL3</title>
<path fill="none" stroke="black" d="M72.9713,-1523.85C72.6903,-1522.36 70.3895,-1510.16 68.0689,-1497.87"/>
<polygon fill="black" stroke="black" points="71.4524,-1496.92 66.1589,-1487.74 64.5738,-1498.22 71.4524,-1496.92"/>
</g>
<!-- transition14 -->
<g id="node39" class="node"><title>transition14</title>
<polygon fill="none" stroke="black" points="229,-182 193,-182 193,-181 229,-181 229,-182"/>
<text text-anchor="middle" x="179" y="-185.8" font-family="Times,serif" font-size="14.00">Ack&#45;</text>
</g>
<!-- PL23&#45;&gt;transition14 -->
<g id="edge42" class="edge"><title>PL23&#45;&gt;transition14</title>
<path fill="none" stroke="black" d="M203.48,-218.23C205.724,-207.419 208.489,-194.098 209.961,-187.004"/>
<polygon fill="none" stroke="black" points="211.685,-187.311 210.988,-182.06 208.258,-186.6 211.685,-187.311"/>
</g>
<!-- PL24 -->
<g id="node38" class="node"><title>PL24</title>
<ellipse fill="none" stroke="black" cx="215" cy="-127" rx="18" ry="18"/>
<text text-anchor="middle" x="215" y="-123.3" font-family="Times,serif" font-size="14.00">PL24</text>
</g>
<!-- transition15 -->
<g id="node41" class="node"><title>transition15</title>
<polygon fill="none" stroke="black" points="236,-73 200,-73 200,-72 236,-72 236,-73"/>
<text text-anchor="middle" x="190.5" y="-76.8" font-family="Times,serif" font-size="14.00">X+</text>
</g>
<!-- PL24&#45;&gt;transition15 -->
<g id="edge44" class="edge"><title>PL24&#45;&gt;transition15</title>
<path fill="none" stroke="black" d="M215.966,-108.939C216.563,-98.3852 217.291,-85.5344 217.694,-78.4124"/>
<polygon fill="none" stroke="black" points="219.461,-78.1501 217.997,-73.0591 215.967,-77.9522 219.461,-78.1501"/>
</g>
<!-- transition14&#45;&gt;PL24 -->
<g id="edge43" class="edge"><title>transition14&#45;&gt;PL24</title>
<path fill="none" stroke="black" d="M211.011,-180.848C211.123,-179.368 212.033,-167.319 212.955,-155.1"/>
<polygon fill="black" stroke="black" points="216.453,-155.26 213.715,-145.025 209.472,-154.733 216.453,-155.26"/>
</g>
<!-- PL25 -->
<g id="node40" class="node"><title>PL25</title>
<ellipse fill="none" stroke="black" cx="244" cy="-18" rx="18" ry="18"/>
<text text-anchor="middle" x="244" y="-14.3" font-family="Times,serif" font-size="14.00">PL25</text>
</g>
<!-- PL25&#45;&gt;transition16 -->
<g id="edge46" class="edge"><title>PL25&#45;&gt;transition16</title>
<path fill="none" stroke="black" d="M250.674,-34.9972C258.67,-55.6431 271,-92.8555 271,-126 271,-1163 271,-1163 271,-1163 271,-1196.1 266.097,-1205.06 252,-1235 242.469,-1255.24 225.008,-1275.82 217.54,-1284.15"/>
<polygon fill="none" stroke="black" points="216.166,-1283.06 214.074,-1287.92 218.745,-1285.42 216.166,-1283.06"/>
</g>
<!-- transition15&#45;&gt;PL25 -->
<g id="edge45" class="edge"><title>transition15&#45;&gt;PL25</title>
<path fill="none" stroke="black" d="M218.075,-71.848C218.846,-70.2747 225.477,-56.759 231.838,-43.7912"/>
<polygon fill="black" stroke="black" points="235.073,-45.1434 236.335,-34.624 228.789,-42.0604 235.073,-45.1434"/>
</g>
<!-- transition5 -->
<g id="node44" class="node"><title>transition5</title>
<polygon fill="none" stroke="black" points="243,-1163 207,-1163 207,-1162 243,-1162 243,-1163"/>
<text text-anchor="middle" x="191" y="-1166.8" font-family="Times,serif" font-size="14.00">Ack+</text>
</g>
<!-- PL10&#45;&gt;transition5 -->
<g id="edge48" class="edge"><title>PL10&#45;&gt;transition5</title>
<path fill="none" stroke="black" d="M225,-1198.94C225,-1188.39 225,-1175.53 225,-1168.41"/>
<polygon fill="none" stroke="black" points="226.75,-1168.06 225,-1163.06 223.25,-1168.06 226.75,-1168.06"/>
</g>
<!-- PL11 -->
<g id="node43" class="node"><title>PL11</title>
<ellipse fill="none" stroke="black" cx="225" cy="-1108" rx="18" ry="18"/>
<text text-anchor="middle" x="225" y="-1104.3" font-family="Times,serif" font-size="14.00">PL11</text>
</g>
<!-- PL11&#45;&gt;transition7 -->
<g id="edge50" class="edge"><title>PL11&#45;&gt;transition7</title>
<path fill="none" stroke="black" d="M212.476,-1094.71C200.402,-1082.86 182.847,-1065.63 175.023,-1057.95"/>
<polygon fill="none" stroke="black" points="175.868,-1056.33 171.074,-1054.07 173.416,-1058.82 175.868,-1056.33"/>
</g>
<!-- transition5&#45;&gt;PL11 -->
<g id="edge49" class="edge"><title>transition5&#45;&gt;PL11</title>
<path fill="none" stroke="black" d="M225,-1161.85C225,-1160.37 225,-1148.32 225,-1136.1"/>
<polygon fill="black" stroke="black" points="228.5,-1136.02 225,-1126.02 221.5,-1136.02 228.5,-1136.02"/>
</g>
<!-- transition20 -->
<g id="node47" class="node"><title>transition20</title>
<polygon fill="none" stroke="black" points="243,-945 207,-945 207,-944 243,-944 243,-945"/>
<text text-anchor="middle" x="187" y="-948.8" font-family="Times,serif" font-size="14.00">STRB&#45;</text>
</g>
<!-- PL29&#45;&gt;transition20 -->
<g id="edge52" class="edge"><title>PL29&#45;&gt;transition20</title>
<path fill="none" stroke="black" d="M225,-980.939C225,-970.385 225,-957.534 225,-950.412"/>
<polygon fill="none" stroke="black" points="226.75,-950.059 225,-945.059 223.25,-950.059 226.75,-950.059"/>
</g>
<!-- PL30 -->
<g id="node46" class="node"><title>PL30</title>
<ellipse fill="none" stroke="black" cx="225" cy="-890" rx="18" ry="18"/>
<text text-anchor="middle" x="225" y="-886.3" font-family="Times,serif" font-size="14.00">PL30</text>
</g>
<!-- transition21 -->
<g id="node49" class="node"><title>transition21</title>
<polygon fill="none" stroke="black" points="243,-836 207,-836 207,-835 243,-835 243,-836"/>
<text text-anchor="middle" x="193" y="-839.8" font-family="Times,serif" font-size="14.00">Ack&#45;</text>
</g>
<!-- PL30&#45;&gt;transition21 -->
<g id="edge54" class="edge"><title>PL30&#45;&gt;transition21</title>
<path fill="none" stroke="black" d="M225,-871.939C225,-861.385 225,-848.534 225,-841.412"/>
<polygon fill="none" stroke="black" points="226.75,-841.059 225,-836.059 223.25,-841.059 226.75,-841.059"/>
</g>
<!-- transition20&#45;&gt;PL30 -->
<g id="edge53" class="edge"><title>transition20&#45;&gt;PL30</title>
<path fill="none" stroke="black" d="M225,-943.848C225,-942.368 225,-930.319 225,-918.1"/>
<polygon fill="black" stroke="black" points="228.5,-918.025 225,-908.025 221.5,-918.025 228.5,-918.025"/>
</g>
<!-- PL31 -->
<g id="node48" class="node"><title>PL31</title>
<ellipse fill="none" stroke="black" cx="225" cy="-781" rx="18" ry="18"/>
<text text-anchor="middle" x="225" y="-777.3" font-family="Times,serif" font-size="14.00">PL31</text>
</g>
<!-- transition22 -->
<g id="node51" class="node"><title>transition22</title>
<polygon fill="none" stroke="black" points="243,-727 207,-727 207,-726 243,-726 243,-727"/>
<text text-anchor="middle" x="199.5" y="-730.8" font-family="Times,serif" font-size="14.00">X&#45;</text>
</g>
<!-- PL31&#45;&gt;transition22 -->
<g id="edge56" class="edge"><title>PL31&#45;&gt;transition22</title>
<path fill="none" stroke="black" d="M225,-762.939C225,-752.385 225,-739.534 225,-732.412"/>
<polygon fill="none" stroke="black" points="226.75,-732.059 225,-727.059 223.25,-732.059 226.75,-732.059"/>
</g>
<!-- transition21&#45;&gt;PL31 -->
<g id="edge55" class="edge"><title>transition21&#45;&gt;PL31</title>
<path fill="none" stroke="black" d="M225,-834.848C225,-833.368 225,-821.319 225,-809.1"/>
<polygon fill="black" stroke="black" points="228.5,-809.025 225,-799.025 221.5,-809.025 228.5,-809.025"/>
</g>
<!-- PL32 -->
<g id="node50" class="node"><title>PL32</title>
<ellipse fill="none" stroke="black" cx="225" cy="-672" rx="18" ry="18"/>
<text text-anchor="middle" x="225" y="-668.3" font-family="Times,serif" font-size="14.00">PL32</text>
</g>
<!-- PL32&#45;&gt;transition23 -->
<g id="edge58" class="edge"><title>PL32&#45;&gt;transition23</title>
<path fill="none" stroke="black" d="M214.441,-657.351C205.431,-645.704 193.04,-629.686 187.24,-622.189"/>
<polygon fill="none" stroke="black" points="188.496,-620.952 184.053,-618.068 185.728,-623.094 188.496,-620.952"/>
</g>
<!-- transition22&#45;&gt;PL32 -->
<g id="edge57" class="edge"><title>transition22&#45;&gt;PL32</title>
<path fill="none" stroke="black" d="M225,-725.848C225,-724.368 225,-712.319 225,-700.1"/>
<polygon fill="black" stroke="black" points="228.5,-700.025 225,-690.025 221.5,-700.025 228.5,-700.025"/>
</g>
<!-- transition18 -->
<g id="node54" class="node"><title>transition18</title>
<polygon fill="none" stroke="black" points="212,-509 176,-509 176,-508 212,-508 212,-509"/>
<text text-anchor="middle" x="166.5" y="-512.8" font-family="Times,serif" font-size="14.00">Y+</text>
</g>
<!-- PL27&#45;&gt;transition18 -->
<g id="edge60" class="edge"><title>PL27&#45;&gt;transition18</title>
<path fill="none" stroke="black" d="M194,-544.939C194,-534.385 194,-521.534 194,-514.412"/>
<polygon fill="none" stroke="black" points="195.75,-514.059 194,-509.059 192.25,-514.059 195.75,-514.059"/>
</g>
<!-- PL28 -->
<g id="node53" class="node"><title>PL28</title>
<ellipse fill="none" stroke="black" cx="194" cy="-454" rx="18" ry="18"/>
<text text-anchor="middle" x="194" y="-450.3" font-family="Times,serif" font-size="14.00">PL28</text>
</g>
<!-- PL28&#45;&gt;transition19 -->
<g id="edge62" class="edge"><title>PL28&#45;&gt;transition19</title>
<path fill="none" stroke="black" d="M183.441,-439.351C174.431,-427.704 162.04,-411.686 156.24,-404.189"/>
<polygon fill="none" stroke="black" points="157.496,-402.952 153.053,-400.068 154.728,-405.094 157.496,-402.952"/>
</g>
<!-- transition18&#45;&gt;PL28 -->
<g id="edge61" class="edge"><title>transition18&#45;&gt;PL28</title>
<path fill="none" stroke="black" d="M194,-507.848C194,-506.368 194,-494.319 194,-482.1"/>
<polygon fill="black" stroke="black" points="197.5,-482.025 194,-472.025 190.5,-482.025 197.5,-482.025"/>
</g>
<!-- transition11 -->
<g id="node57" class="node"><title>transition11</title>
<polygon fill="none" stroke="black" points="157,-291 121,-291 121,-290 157,-290 157,-291"/>
<text text-anchor="middle" x="103.5" y="-294.8" font-family="Times,serif" font-size="14.00">Dack&#45;</text>
</g>
<!-- PL20&#45;&gt;transition11 -->
<g id="edge64" class="edge"><title>PL20&#45;&gt;transition11</title>
<path fill="none" stroke="black" d="M139,-326.939C139,-316.385 139,-303.534 139,-296.412"/>
<polygon fill="none" stroke="black" points="140.75,-296.059 139,-291.059 137.25,-296.059 140.75,-296.059"/>
</g>
<!-- PL21 -->
<g id="node56" class="node"><title>PL21</title>
<ellipse fill="none" stroke="black" cx="70" cy="-236" rx="18" ry="18"/>
<text text-anchor="middle" x="70" y="-232.3" font-family="Times,serif" font-size="14.00">PL21</text>
</g>
<!-- PL21&#45;&gt;transition12 -->
<g id="edge66" class="edge"><title>PL21&#45;&gt;transition12</title>
<path fill="none" stroke="black" d="M66.1371,-253.946C61.6927,-274.958 55,-311.924 55,-344 55,-727 55,-727 55,-727 55,-788.757 144.16,-825.239 166.145,-833.296"/>
<polygon fill="none" stroke="black" points="165.618,-834.966 170.916,-834.973 166.779,-831.664 165.618,-834.966"/>
</g>
<!-- transition11&#45;&gt;PL21 -->
<g id="edge65" class="edge"><title>transition11&#45;&gt;PL21</title>
<path fill="none" stroke="black" d="M138.95,-289.962C137.657,-288.969 111.575,-268.934 91.8698,-253.799"/>
<polygon fill="black" stroke="black" points="93.9687,-250.997 83.9061,-247.681 89.7046,-256.549 93.9687,-250.997"/>
</g>
</g>
</svg>
