<?xml version="1.0" encoding="UTF-8" standalone="no"?>
<!DOCTYPE svg PUBLIC "-//W3C//DTD SVG 1.1//EN"
 "http://www.w3.org/Graphics/SVG/1.1/DTD/svg11.dtd">
<!-- Generated by graphviz version 2.38.0 (20140413.2041)
 -->
<!-- Title: %3 Pages: 1 -->
<svg width="445pt" height="1819pt"
 viewBox="0.00 0.00 445.00 1819.00" xmlns="http://www.w3.org/2000/svg" xmlns:xlink="http://www.w3.org/1999/xlink">
<g id="graph0" class="graph" transform="scale(1 1) rotate(0) translate(4 1815)">
<title>%3</title>
<polygon fill="white" stroke="none" points="-4,4 -4,-1815 441,-1815 441,4 -4,4"/>
<!-- PL1 -->
<g id="node1" class="node"><title>PL1</title>
<ellipse fill="none" stroke="black" cx="222" cy="-1793" rx="18" ry="18"/>
<text text-anchor="middle" x="222" y="-1789.3" font-family="Times,serif" font-size="14.00">PL1</text>
</g>
<!-- transition17 -->
<g id="node3" class="node"><title>transition17</title>
<polygon fill="none" stroke="black" points="163,-1739 127,-1739 127,-1738 163,-1738 163,-1739"/>
<text text-anchor="middle" x="103" y="-1742.8" font-family="Times,serif" font-size="14.00">XRDY+</text>
</g>
<!-- PL1&#45;&gt;transition17 -->
<g id="edge1" class="edge"><title>PL1&#45;&gt;transition17</title>
<path fill="none" stroke="black" d="M207.517,-1782.03C189.623,-1769.71 160.204,-1749.46 149.268,-1741.94"/>
<polygon fill="none" stroke="black" points="150.227,-1740.47 145.116,-1739.08 148.242,-1743.36 150.227,-1740.47"/>
</g>
<!-- PL2 -->
<g id="node2" class="node"><title>PL2</title>
<ellipse fill="none" stroke="black" cx="173" cy="-1684" rx="18" ry="18"/>
<text text-anchor="middle" x="173" y="-1680.3" font-family="Times,serif" font-size="14.00">PL2</text>
</g>
<!-- transition1 -->
<g id="node5" class="node"><title>transition1</title>
<polygon fill="none" stroke="black" points="195,-1612.5 159,-1612.5 159,-1611.5 195,-1611.5 195,-1612.5"/>
<text text-anchor="middle" x="186.5" y="-1616.3" font-family="Times,serif" font-size="14.00">IOSTRB&#45;</text>
</g>
<!-- PL2&#45;&gt;transition1 -->
<g id="edge3" class="edge"><title>PL2&#45;&gt;transition1</title>
<path fill="none" stroke="black" d="M173.989,-1665.7C174.876,-1650.17 176.124,-1628.32 176.694,-1618.35"/>
<polygon fill="none" stroke="black" points="178.457,-1618.18 176.995,-1613.09 174.962,-1617.98 178.457,-1618.18"/>
</g>
<!-- transition17&#45;&gt;PL2 -->
<g id="edge2" class="edge"><title>transition17&#45;&gt;PL2</title>
<path fill="none" stroke="black" d="M145.08,-1737.85C145.917,-1736.26 153.141,-1722.59 160.03,-1709.55"/>
<polygon fill="black" stroke="black" points="163.315,-1710.82 164.892,-1700.35 157.126,-1707.55 163.315,-1710.82"/>
</g>
<!-- PL33 -->
<g id="node34" class="node"><title>PL33</title>
<ellipse fill="none" stroke="black" cx="116" cy="-1612" rx="18" ry="18"/>
<text text-anchor="middle" x="116" y="-1608.3" font-family="Times,serif" font-size="14.00">PL33</text>
</g>
<!-- transition17&#45;&gt;PL33 -->
<g id="edge36" class="edge"><title>transition17&#45;&gt;PL33</title>
<path fill="none" stroke="black" d="M144.979,-1737.91C144.365,-1735.27 130.466,-1675.35 122.143,-1639.48"/>
<polygon fill="black" stroke="black" points="125.529,-1638.59 119.859,-1629.64 118.71,-1640.17 125.529,-1638.59"/>
</g>
<!-- PL3 -->
<g id="node4" class="node"><title>PL3</title>
<ellipse fill="none" stroke="black" cx="181" cy="-1540" rx="18" ry="18"/>
<text text-anchor="middle" x="181" y="-1536.3" font-family="Times,serif" font-size="14.00">PL3</text>
</g>
<!-- transition8 -->
<g id="node7" class="node"><title>transition8</title>
<polygon fill="none" stroke="black" points="203,-1486 167,-1486 167,-1485 203,-1485 203,-1486"/>
<text text-anchor="middle" x="144.5" y="-1489.8" font-family="Times,serif" font-size="14.00">XRDY&#45;</text>
</g>
<!-- PL3&#45;&gt;transition8 -->
<g id="edge5" class="edge"><title>PL3&#45;&gt;transition8</title>
<path fill="none" stroke="black" d="M182.288,-1521.94C183.084,-1511.39 184.054,-1498.53 184.592,-1491.41"/>
<polygon fill="none" stroke="black" points="186.364,-1491.18 184.996,-1486.06 182.874,-1490.91 186.364,-1491.18"/>
</g>
<!-- transition1&#45;&gt;PL3 -->
<g id="edge4" class="edge"><title>transition1&#45;&gt;PL3</title>
<path fill="none" stroke="black" d="M177.003,-1610.95C177.072,-1609.75 178.347,-1587.43 179.439,-1568.32"/>
<polygon fill="black" stroke="black" points="182.941,-1568.37 180.018,-1558.19 175.953,-1567.98 182.941,-1568.37"/>
</g>
<!-- PL5 -->
<g id="node6" class="node"><title>PL5</title>
<ellipse fill="none" stroke="black" cx="200" cy="-1431" rx="18" ry="18"/>
<text text-anchor="middle" x="200" y="-1427.3" font-family="Times,serif" font-size="14.00">PL5</text>
</g>
<!-- transition7 -->
<g id="node9" class="node"><title>transition7</title>
<polygon fill="none" stroke="black" points="264,-1377 228,-1377 228,-1376 264,-1376 264,-1377"/>
<text text-anchor="middle" x="211.5" y="-1380.8" font-family="Times,serif" font-size="14.00">Areq&#45;</text>
</g>
<!-- PL5&#45;&gt;transition7 -->
<g id="edge7" class="edge"><title>PL5&#45;&gt;transition7</title>
<path fill="none" stroke="black" d="M211.371,-1416.9C221.474,-1405.26 235.64,-1388.94 242.285,-1381.28"/>
<polygon fill="none" stroke="black" points="243.984,-1381.99 245.939,-1377.07 241.34,-1379.7 243.984,-1381.99"/>
</g>
<!-- transition8&#45;&gt;PL5 -->
<g id="edge6" class="edge"><title>transition8&#45;&gt;PL5</title>
<path fill="none" stroke="black" d="M185.043,-1484.85C185.472,-1483.33 189.03,-1470.76 192.568,-1458.26"/>
<polygon fill="black" stroke="black" points="195.986,-1459.04 195.341,-1448.46 189.25,-1457.13 195.986,-1459.04"/>
</g>
<!-- PL4 -->
<g id="node37" class="node"><title>PL4</title>
<ellipse fill="none" stroke="black" cx="254" cy="-1431" rx="18" ry="18"/>
<text text-anchor="middle" x="254" y="-1427.3" font-family="Times,serif" font-size="14.00">PL4</text>
</g>
<!-- transition8&#45;&gt;PL4 -->
<g id="edge40" class="edge"><title>transition8&#45;&gt;PL4</title>
<path fill="none" stroke="black" d="M185.05,-1484.96C186.343,-1483.97 212.425,-1463.93 232.13,-1448.8"/>
<polygon fill="black" stroke="black" points="234.295,-1451.55 240.094,-1442.68 230.031,-1446 234.295,-1451.55"/>
</g>
<!-- PL29 -->
<g id="node8" class="node"><title>PL29</title>
<ellipse fill="none" stroke="black" cx="292" cy="-1322" rx="18" ry="18"/>
<text text-anchor="middle" x="292" y="-1318.3" font-family="Times,serif" font-size="14.00">PL29</text>
</g>
<!-- transition20 -->
<g id="node11" class="node"><title>transition20</title>
<polygon fill="none" stroke="black" points="310,-1268 274,-1268 274,-1267 310,-1267 310,-1268"/>
<text text-anchor="middle" x="254" y="-1271.8" font-family="Times,serif" font-size="14.00">STRB&#45;</text>
</g>
<!-- PL29&#45;&gt;transition20 -->
<g id="edge9" class="edge"><title>PL29&#45;&gt;transition20</title>
<path fill="none" stroke="black" d="M292,-1303.94C292,-1293.39 292,-1280.53 292,-1273.41"/>
<polygon fill="none" stroke="black" points="293.75,-1273.06 292,-1268.06 290.25,-1273.06 293.75,-1273.06"/>
</g>
<!-- transition7&#45;&gt;PL29 -->
<g id="edge8" class="edge"><title>transition7&#45;&gt;PL29</title>
<path fill="none" stroke="black" d="M246.132,-1375.85C247.63,-1374.12 261.599,-1358.03 273.732,-1344.05"/>
<polygon fill="black" stroke="black" points="276.644,-1346.03 280.555,-1336.19 271.357,-1341.44 276.644,-1346.03"/>
</g>
<!-- PL6 -->
<g id="node46" class="node"><title>PL6</title>
<ellipse fill="none" stroke="black" cx="200" cy="-1322" rx="18" ry="18"/>
<text text-anchor="middle" x="200" y="-1318.3" font-family="Times,serif" font-size="14.00">PL6</text>
</g>
<!-- transition7&#45;&gt;PL6 -->
<g id="edge51" class="edge"><title>transition7&#45;&gt;PL6</title>
<path fill="none" stroke="black" d="M245.868,-1375.85C244.37,-1374.12 230.401,-1358.03 218.268,-1344.05"/>
<polygon fill="black" stroke="black" points="220.643,-1341.44 211.445,-1336.19 215.356,-1346.03 220.643,-1341.44"/>
</g>
<!-- PL15 -->
<g id="node49" class="node"><title>PL15</title>
<ellipse fill="none" stroke="black" cx="374" cy="-888" rx="18" ry="18"/>
<text text-anchor="middle" x="374" y="-884.3" font-family="Times,serif" font-size="14.00">PL15</text>
</g>
<!-- transition7&#45;&gt;PL15 -->
<g id="edge55" class="edge"><title>transition7&#45;&gt;PL15</title>
<path fill="none" stroke="black" d="M246.136,-1375.97C248.93,-1375.32 294.016,-1364.57 319,-1340 344.65,-1314.77 356,-1303.98 356,-1268 356,-1268 356,-1268 356,-1031 356,-990.676 363.232,-944.418 368.528,-915.951"/>
<polygon fill="black" stroke="black" points="371.998,-916.441 370.444,-905.961 365.123,-915.123 371.998,-916.441"/>
</g>
<!-- PL30 -->
<g id="node10" class="node"><title>PL30</title>
<ellipse fill="none" stroke="black" cx="292" cy="-1213" rx="18" ry="18"/>
<text text-anchor="middle" x="292" y="-1209.3" font-family="Times,serif" font-size="14.00">PL30</text>
</g>
<!-- transition21 -->
<g id="node13" class="node"><title>transition21</title>
<polygon fill="none" stroke="black" points="310,-1159 274,-1159 274,-1158 310,-1158 310,-1159"/>
<text text-anchor="middle" x="260" y="-1162.8" font-family="Times,serif" font-size="14.00">Ack&#45;</text>
</g>
<!-- PL30&#45;&gt;transition21 -->
<g id="edge11" class="edge"><title>PL30&#45;&gt;transition21</title>
<path fill="none" stroke="black" d="M292,-1194.94C292,-1184.39 292,-1171.53 292,-1164.41"/>
<polygon fill="none" stroke="black" points="293.75,-1164.06 292,-1159.06 290.25,-1164.06 293.75,-1164.06"/>
</g>
<!-- transition20&#45;&gt;PL30 -->
<g id="edge10" class="edge"><title>transition20&#45;&gt;PL30</title>
<path fill="none" stroke="black" d="M292,-1266.85C292,-1265.37 292,-1253.32 292,-1241.1"/>
<polygon fill="black" stroke="black" points="295.5,-1241.02 292,-1231.02 288.5,-1241.02 295.5,-1241.02"/>
</g>
<!-- PL31 -->
<g id="node12" class="node"><title>PL31</title>
<ellipse fill="none" stroke="black" cx="292" cy="-1104" rx="18" ry="18"/>
<text text-anchor="middle" x="292" y="-1100.3" font-family="Times,serif" font-size="14.00">PL31</text>
</g>
<!-- transition22 -->
<g id="node15" class="node"><title>transition22</title>
<polygon fill="none" stroke="black" points="310,-1032.5 274,-1032.5 274,-1031.5 310,-1031.5 310,-1032.5"/>
<text text-anchor="middle" x="266.5" y="-1036.3" font-family="Times,serif" font-size="14.00">X&#45;</text>
</g>
<!-- PL31&#45;&gt;transition22 -->
<g id="edge13" class="edge"><title>PL31&#45;&gt;transition22</title>
<path fill="none" stroke="black" d="M292,-1085.7C292,-1070.17 292,-1048.32 292,-1038.35"/>
<polygon fill="none" stroke="black" points="293.75,-1038.09 292,-1033.09 290.25,-1038.09 293.75,-1038.09"/>
</g>
<!-- transition21&#45;&gt;PL31 -->
<g id="edge12" class="edge"><title>transition21&#45;&gt;PL31</title>
<path fill="none" stroke="black" d="M292,-1157.85C292,-1156.37 292,-1144.32 292,-1132.1"/>
<polygon fill="black" stroke="black" points="295.5,-1132.02 292,-1122.02 288.5,-1132.02 295.5,-1132.02"/>
</g>
<!-- PL32 -->
<g id="node14" class="node"><title>PL32</title>
<ellipse fill="none" stroke="black" cx="292" cy="-960" rx="18" ry="18"/>
<text text-anchor="middle" x="292" y="-956.3" font-family="Times,serif" font-size="14.00">PL32</text>
</g>
<!-- transition23 -->
<g id="node17" class="node"><title>transition23</title>
<polygon fill="none" stroke="black" points="313,-888.5 277,-888.5 277,-887.5 313,-887.5 313,-888.5"/>
<text text-anchor="middle" x="255.5" y="-892.3" font-family="Times,serif" font-size="14.00">STRB+</text>
</g>
<!-- PL32&#45;&gt;transition23 -->
<g id="edge15" class="edge"><title>PL32&#45;&gt;transition23</title>
<path fill="none" stroke="black" d="M292.742,-941.697C293.407,-926.165 294.343,-904.324 294.771,-894.348"/>
<polygon fill="none" stroke="black" points="296.53,-894.163 294.996,-889.092 293.033,-894.013 296.53,-894.163"/>
</g>
<!-- transition22&#45;&gt;PL32 -->
<g id="edge14" class="edge"><title>transition22&#45;&gt;PL32</title>
<path fill="none" stroke="black" d="M292,-1030.95C292,-1029.75 292,-1007.43 292,-988.321"/>
<polygon fill="black" stroke="black" points="295.5,-988.191 292,-978.191 288.5,-988.191 295.5,-988.191"/>
</g>
<!-- PL18 -->
<g id="node16" class="node"><title>PL18</title>
<ellipse fill="none" stroke="black" cx="308" cy="-816" rx="18" ry="18"/>
<text text-anchor="middle" x="308" y="-812.3" font-family="Times,serif" font-size="14.00">PL18</text>
</g>
<!-- transition10 -->
<g id="node19" class="node"><title>transition10</title>
<polygon fill="none" stroke="black" points="326,-762 290,-762 290,-761 326,-761 326,-762"/>
<text text-anchor="middle" x="274" y="-765.8" font-family="Times,serif" font-size="14.00">Ack+</text>
</g>
<!-- PL18&#45;&gt;transition10 -->
<g id="edge17" class="edge"><title>PL18&#45;&gt;transition10</title>
<path fill="none" stroke="black" d="M308,-797.939C308,-787.385 308,-774.534 308,-767.412"/>
<polygon fill="none" stroke="black" points="309.75,-767.059 308,-762.059 306.25,-767.059 309.75,-767.059"/>
</g>
<!-- transition23&#45;&gt;PL18 -->
<g id="edge16" class="edge"><title>transition23&#45;&gt;PL18</title>
<path fill="none" stroke="black" d="M295.009,-886.949C295.235,-885.735 299.465,-862.959 303.037,-843.722"/>
<polygon fill="black" stroke="black" points="306.488,-844.31 304.873,-833.839 299.606,-843.032 306.488,-844.31"/>
</g>
<!-- PL27 -->
<g id="node28" class="node"><title>PL27</title>
<ellipse fill="none" stroke="black" cx="254" cy="-816" rx="18" ry="18"/>
<text text-anchor="middle" x="254" y="-812.3" font-family="Times,serif" font-size="14.00">PL27</text>
</g>
<!-- transition23&#45;&gt;PL27 -->
<g id="edge28" class="edge"><title>transition23&#45;&gt;PL27</title>
<path fill="none" stroke="black" d="M294.97,-886.949C294.225,-885.677 279.613,-860.729 268.05,-840.987"/>
<polygon fill="black" stroke="black" points="270.926,-838.973 262.852,-832.114 264.886,-842.511 270.926,-838.973"/>
</g>
<!-- PL19 -->
<g id="node18" class="node"><title>PL19</title>
<ellipse fill="none" stroke="black" cx="308" cy="-707" rx="18" ry="18"/>
<text text-anchor="middle" x="308" y="-703.3" font-family="Times,serif" font-size="14.00">PL19</text>
</g>
<!-- transition19 -->
<g id="node21" class="node"><title>transition19</title>
<polygon fill="none" stroke="black" points="277,-635.5 241,-635.5 241,-634.5 277,-634.5 277,-635.5"/>
<text text-anchor="middle" x="224.5" y="-639.3" font-family="Times,serif" font-size="14.00">Dreq&#45;</text>
</g>
<!-- PL19&#45;&gt;transition19 -->
<g id="edge19" class="edge"><title>PL19&#45;&gt;transition19</title>
<path fill="none" stroke="black" d="M298.084,-691.834C286.814,-675.735 269.071,-650.388 262.028,-640.325"/>
<polygon fill="none" stroke="black" points="263.372,-639.195 259.071,-636.102 260.505,-641.202 263.372,-639.195"/>
</g>
<!-- transition10&#45;&gt;PL19 -->
<g id="edge18" class="edge"><title>transition10&#45;&gt;PL19</title>
<path fill="none" stroke="black" d="M308,-760.848C308,-759.368 308,-747.319 308,-735.1"/>
<polygon fill="black" stroke="black" points="311.5,-735.025 308,-725.025 304.5,-735.025 311.5,-735.025"/>
</g>
<!-- PL20 -->
<g id="node20" class="node"><title>PL20</title>
<ellipse fill="none" stroke="black" cx="261" cy="-563" rx="18" ry="18"/>
<text text-anchor="middle" x="261" y="-559.3" font-family="Times,serif" font-size="14.00">PL20</text>
</g>
<!-- transition11 -->
<g id="node23" class="node"><title>transition11</title>
<polygon fill="none" stroke="black" points="289,-509 253,-509 253,-508 289,-508 289,-509"/>
<text text-anchor="middle" x="235.5" y="-512.8" font-family="Times,serif" font-size="14.00">Dack&#45;</text>
</g>
<!-- PL20&#45;&gt;transition11 -->
<g id="edge21" class="edge"><title>PL20&#45;&gt;transition11</title>
<path fill="none" stroke="black" d="M264.164,-545.23C266.204,-534.419 268.717,-521.098 270.056,-514.004"/>
<polygon fill="none" stroke="black" points="271.781,-514.298 270.989,-509.06 268.342,-513.649 271.781,-514.298"/>
</g>
<!-- transition19&#45;&gt;PL20 -->
<g id="edge20" class="edge"><title>transition19&#45;&gt;PL20</title>
<path fill="none" stroke="black" d="M259.001,-633.949C259.036,-632.748 259.673,-610.429 260.219,-591.321"/>
<polygon fill="black" stroke="black" points="263.722,-591.287 260.509,-581.191 256.725,-591.087 263.722,-591.287"/>
</g>
<!-- PL22 -->
<g id="node31" class="node"><title>PL22</title>
<ellipse fill="none" stroke="black" cx="140" cy="-563" rx="18" ry="18"/>
<text text-anchor="middle" x="140" y="-559.3" font-family="Times,serif" font-size="14.00">PL22</text>
</g>
<!-- transition19&#45;&gt;PL22 -->
<g id="edge32" class="edge"><title>transition19&#45;&gt;PL22</title>
<path fill="none" stroke="black" d="M258.914,-633.949C256.366,-632.451 197.987,-598.11 163.992,-578.113"/>
<polygon fill="black" stroke="black" points="165.511,-574.946 155.117,-572.892 161.961,-580.979 165.511,-574.946"/>
</g>
<!-- PL21 -->
<g id="node22" class="node"><title>PL21</title>
<ellipse fill="none" stroke="black" cx="353" cy="-454" rx="18" ry="18"/>
<text text-anchor="middle" x="353" y="-450.3" font-family="Times,serif" font-size="14.00">PL21</text>
</g>
<!-- transition12 -->
<g id="node25" class="node"><title>transition12</title>
<polygon fill="none" stroke="black" points="371,-400 335,-400 335,-399 371,-399 371,-400"/>
<text text-anchor="middle" x="317" y="-403.8" font-family="Times,serif" font-size="14.00">Dreq+</text>
</g>
<!-- PL21&#45;&gt;transition12 -->
<g id="edge23" class="edge"><title>PL21&#45;&gt;transition12</title>
<path fill="none" stroke="black" d="M353,-435.939C353,-425.385 353,-412.534 353,-405.412"/>
<polygon fill="none" stroke="black" points="354.75,-405.059 353,-400.059 351.25,-405.059 354.75,-405.059"/>
</g>
<!-- transition11&#45;&gt;PL21 -->
<g id="edge22" class="edge"><title>transition11&#45;&gt;PL21</title>
<path fill="none" stroke="black" d="M271.059,-507.962C272.651,-506.933 305.849,-485.476 329.493,-470.193"/>
<polygon fill="black" stroke="black" points="331.503,-473.062 338.002,-464.694 327.703,-467.183 331.503,-473.062"/>
</g>
<!-- PL16 -->
<g id="node24" class="node"><title>PL16</title>
<ellipse fill="none" stroke="black" cx="353" cy="-345" rx="18" ry="18"/>
<text text-anchor="middle" x="353" y="-341.3" font-family="Times,serif" font-size="14.00">PL16</text>
</g>
<!-- transition9 -->
<g id="node27" class="node"><title>transition9</title>
<polygon fill="none" stroke="black" points="371,-291 335,-291 335,-290 371,-290 371,-291"/>
<text text-anchor="middle" x="316" y="-294.8" font-family="Times,serif" font-size="14.00">Dack+</text>
</g>
<!-- PL16&#45;&gt;transition9 -->
<g id="edge25" class="edge"><title>PL16&#45;&gt;transition9</title>
<path fill="none" stroke="black" d="M353,-326.939C353,-316.385 353,-303.534 353,-296.412"/>
<polygon fill="none" stroke="black" points="354.75,-296.059 353,-291.059 351.25,-296.059 354.75,-296.059"/>
</g>
<!-- transition12&#45;&gt;PL16 -->
<g id="edge24" class="edge"><title>transition12&#45;&gt;PL16</title>
<path fill="none" stroke="black" d="M353,-398.848C353,-397.368 353,-385.319 353,-373.1"/>
<polygon fill="black" stroke="black" points="356.5,-373.025 353,-363.025 349.5,-373.025 356.5,-373.025"/>
</g>
<!-- PL17 -->
<g id="node26" class="node"><title>PL17</title>
<ellipse fill="none" stroke="black" cx="330" cy="-236" rx="18" ry="18"/>
<text text-anchor="middle" x="330" y="-232.3" font-family="Times,serif" font-size="14.00">PL17</text>
</g>
<!-- PL17&#45;&gt;transition23 -->
<g id="edge27" class="edge"><title>PL17&#45;&gt;transition23</title>
<path fill="none" stroke="black" d="M324.315,-253.083C317.504,-273.82 307,-311.129 307,-344 307,-400 307,-400 307,-400 307,-466.075 356.748,-769.084 335,-834 327.692,-855.814 307.471,-875.825 298.91,-883.589"/>
<polygon fill="none" stroke="black" points="297.702,-882.32 295.088,-886.927 300.005,-884.955 297.702,-882.32"/>
</g>
<!-- transition9&#45;&gt;PL17 -->
<g id="edge26" class="edge"><title>transition9&#45;&gt;PL17</title>
<path fill="none" stroke="black" d="M352.934,-289.848C352.262,-288.3 346.571,-275.185 341.026,-262.409"/>
<polygon fill="black" stroke="black" points="344.092,-260.682 336.901,-252.902 337.671,-263.469 344.092,-260.682"/>
</g>
<!-- transition18 -->
<g id="node30" class="node"><title>transition18</title>
<polygon fill="none" stroke="black" points="272,-762 236,-762 236,-761 272,-761 272,-762"/>
<text text-anchor="middle" x="226.5" y="-765.8" font-family="Times,serif" font-size="14.00">Y+</text>
</g>
<!-- PL27&#45;&gt;transition18 -->
<g id="edge29" class="edge"><title>PL27&#45;&gt;transition18</title>
<path fill="none" stroke="black" d="M254,-797.939C254,-787.385 254,-774.534 254,-767.412"/>
<polygon fill="none" stroke="black" points="255.75,-767.059 254,-762.059 252.25,-767.059 255.75,-767.059"/>
</g>
<!-- PL28 -->
<g id="node29" class="node"><title>PL28</title>
<ellipse fill="none" stroke="black" cx="254" cy="-707" rx="18" ry="18"/>
<text text-anchor="middle" x="254" y="-703.3" font-family="Times,serif" font-size="14.00">PL28</text>
</g>
<!-- PL28&#45;&gt;transition19 -->
<g id="edge31" class="edge"><title>PL28&#45;&gt;transition19</title>
<path fill="none" stroke="black" d="M255.236,-688.697C256.345,-673.165 257.905,-651.324 258.618,-641.348"/>
<polygon fill="none" stroke="black" points="260.383,-641.204 258.993,-636.092 256.892,-640.955 260.383,-641.204"/>
</g>
<!-- transition18&#45;&gt;PL28 -->
<g id="edge30" class="edge"><title>transition18&#45;&gt;PL28</title>
<path fill="none" stroke="black" d="M254,-760.848C254,-759.368 254,-747.319 254,-735.1"/>
<polygon fill="black" stroke="black" points="257.5,-735.025 254,-725.025 250.5,-735.025 257.5,-735.025"/>
</g>
<!-- transition13 -->
<g id="node33" class="node"><title>transition13</title>
<polygon fill="none" stroke="black" points="136,-509 100,-509 100,-508 136,-508 136,-509"/>
<text text-anchor="middle" x="80" y="-512.8" font-family="Times,serif" font-size="14.00">STRB&#45;</text>
</g>
<!-- PL22&#45;&gt;transition13 -->
<g id="edge33" class="edge"><title>PL22&#45;&gt;transition13</title>
<path fill="none" stroke="black" d="M133.399,-546.098C128.789,-534.992 122.945,-520.912 119.955,-513.71"/>
<polygon fill="none" stroke="black" points="121.559,-513.009 118.026,-509.062 118.326,-514.351 121.559,-513.009"/>
</g>
<!-- PL26 -->
<g id="node32" class="node"><title>PL26</title>
<ellipse fill="none" stroke="black" cx="64" cy="-454" rx="18" ry="18"/>
<text text-anchor="middle" x="64" y="-450.3" font-family="Times,serif" font-size="14.00">PL26</text>
</g>
<!-- PL26&#45;&gt;transition17 -->
<g id="edge35" class="edge"><title>PL26&#45;&gt;transition17</title>
<path fill="none" stroke="black" d="M64,-472.049C64,-493.164 64,-530.234 64,-562 64,-1613 64,-1613 64,-1613 64,-1670.02 124.093,-1721.55 140.759,-1734.74"/>
<polygon fill="none" stroke="black" points="139.91,-1736.3 144.941,-1737.96 142.042,-1733.52 139.91,-1736.3"/>
</g>
<!-- transition13&#45;&gt;PL26 -->
<g id="edge34" class="edge"><title>transition13&#45;&gt;PL26</title>
<path fill="none" stroke="black" d="M117.845,-507.848C116.012,-506.049 98.2624,-488.628 83.6353,-474.272"/>
<polygon fill="black" stroke="black" points="85.9603,-471.649 76.3718,-467.143 81.057,-476.645 85.9603,-471.649"/>
</g>
<!-- PL23 -->
<g id="node53" class="node"><title>PL23</title>
<ellipse fill="none" stroke="black" cx="118" cy="-454" rx="18" ry="18"/>
<text text-anchor="middle" x="118" y="-450.3" font-family="Times,serif" font-size="14.00">PL23</text>
</g>
<!-- transition13&#45;&gt;PL23 -->
<g id="edge61" class="edge"><title>transition13&#45;&gt;PL23</title>
<path fill="none" stroke="black" d="M118,-507.848C118,-506.368 118,-494.319 118,-482.1"/>
<polygon fill="black" stroke="black" points="121.5,-482.025 118,-472.025 114.5,-482.025 121.5,-482.025"/>
</g>
<!-- transition24 -->
<g id="node36" class="node"><title>transition24</title>
<polygon fill="none" stroke="black" points="128,-1159 92,-1159 92,-1158 128,-1158 128,-1159"/>
<text text-anchor="middle" x="74" y="-1162.8" font-family="Times,serif" font-size="14.00">Areq+</text>
</g>
<!-- PL33&#45;&gt;transition24 -->
<g id="edge37" class="edge"><title>PL33&#45;&gt;transition24</title>
<path fill="none" stroke="black" d="M115.092,-1593.61C113.912,-1569.47 112,-1524.43 112,-1486 112,-1486 112,-1486 112,-1267 112,-1227.5 110.646,-1179.88 110.166,-1164.25"/>
<polygon fill="none" stroke="black" points="111.909,-1163.99 110.001,-1159.04 108.41,-1164.1 111.909,-1163.99"/>
</g>
<!-- PL14 -->
<g id="node35" class="node"><title>PL14</title>
<ellipse fill="none" stroke="black" cx="156" cy="-1104" rx="18" ry="18"/>
<text text-anchor="middle" x="156" y="-1100.3" font-family="Times,serif" font-size="14.00">PL14</text>
</g>
<!-- PL14&#45;&gt;transition8 -->
<g id="edge39" class="edge"><title>PL14&#45;&gt;transition8</title>
<path fill="none" stroke="black" d="M155.652,-1122.03C155.079,-1151.54 154,-1214.12 154,-1267 154,-1377 154,-1377 154,-1377 154,-1418.2 175.097,-1464.92 182.483,-1480.02"/>
<polygon fill="none" stroke="black" points="181.097,-1481.16 184.911,-1484.83 184.222,-1479.58 181.097,-1481.16"/>
</g>
<!-- transition24&#45;&gt;PL14 -->
<g id="edge38" class="edge"><title>transition24&#45;&gt;PL14</title>
<path fill="none" stroke="black" d="M110.132,-1157.85C111.63,-1156.12 125.599,-1140.03 137.732,-1126.05"/>
<polygon fill="black" stroke="black" points="140.644,-1128.03 144.555,-1118.19 135.357,-1123.44 140.644,-1128.03"/>
</g>
<!-- PL8 -->
<g id="node39" class="node"><title>PL8</title>
<ellipse fill="none" stroke="black" cx="110" cy="-1032" rx="18" ry="18"/>
<text text-anchor="middle" x="110" y="-1028.3" font-family="Times,serif" font-size="14.00">PL8</text>
</g>
<!-- transition24&#45;&gt;PL8 -->
<g id="edge43" class="edge"><title>transition24&#45;&gt;PL8</title>
<path fill="none" stroke="black" d="M110,-1157.91C110,-1155.29 110,-1096.47 110,-1060.49"/>
<polygon fill="black" stroke="black" points="113.5,-1060.15 110,-1050.15 106.5,-1060.15 113.5,-1060.15"/>
</g>
<!-- transition2 -->
<g id="node38" class="node"><title>transition2</title>
<polygon fill="none" stroke="black" points="318,-1377 282,-1377 282,-1376 318,-1376 318,-1377"/>
<text text-anchor="middle" x="253" y="-1364.8" font-family="Times,serif" font-size="14.00">IOSTRB+</text>
</g>
<!-- PL4&#45;&gt;transition2 -->
<g id="edge41" class="edge"><title>PL4&#45;&gt;transition2</title>
<path fill="none" stroke="black" d="M265.371,-1416.9C275.474,-1405.26 289.64,-1388.94 296.285,-1381.28"/>
<polygon fill="none" stroke="black" points="297.984,-1381.99 299.939,-1377.07 295.34,-1379.7 297.984,-1381.99"/>
</g>
<!-- transition2&#45;&gt;PL1 -->
<g id="edge42" class="edge"><title>transition2&#45;&gt;PL1</title>
<path fill="none" stroke="black" d="M300,-1377.04C300,-1378.87 300,-1437.75 300,-1485 300,-1685 300,-1685 300,-1685 300,-1723.08 267.339,-1756.68 244.286,-1775.66"/>
<polygon fill="black" stroke="black" points="241.98,-1773.02 236.306,-1781.97 246.321,-1778.51 241.98,-1773.02"/>
</g>
<!-- transition4 -->
<g id="node41" class="node"><title>transition4</title>
<polygon fill="none" stroke="black" points="128,-960.5 92,-960.5 92,-959.5 128,-959.5 128,-960.5"/>
<text text-anchor="middle" x="73" y="-964.3" font-family="Times,serif" font-size="14.00">Aack+</text>
</g>
<!-- PL8&#45;&gt;transition4 -->
<g id="edge44" class="edge"><title>PL8&#45;&gt;transition4</title>
<path fill="none" stroke="black" d="M110,-1013.7C110,-998.165 110,-976.324 110,-966.348"/>
<polygon fill="none" stroke="black" points="111.75,-966.092 110,-961.092 108.25,-966.092 111.75,-966.092"/>
</g>
<!-- PL9 -->
<g id="node40" class="node"><title>PL9</title>
<ellipse fill="none" stroke="black" cx="18" cy="-635" rx="18" ry="18"/>
<text text-anchor="middle" x="18" y="-631.3" font-family="Times,serif" font-size="14.00">PL9</text>
</g>
<!-- transition16 -->
<g id="node43" class="node"><title>transition16</title>
<polygon fill="none" stroke="black" points="126,-182 90,-182 90,-181 126,-181 126,-182"/>
<text text-anchor="middle" x="68.5" y="-185.8" font-family="Times,serif" font-size="14.00">STRB+</text>
</g>
<!-- PL9&#45;&gt;transition16 -->
<g id="edge46" class="edge"><title>PL9&#45;&gt;transition16</title>
<path fill="none" stroke="black" d="M18,-616.609C18,-592.462 18,-547.411 18,-509 18,-509 18,-509 18,-290 18,-236.182 84.7698,-194.95 103.288,-184.55"/>
<polygon fill="none" stroke="black" points="104.371,-185.953 107.935,-182.033 102.705,-182.875 104.371,-185.953"/>
</g>
<!-- transition4&#45;&gt;PL9 -->
<g id="edge45" class="edge"><title>transition4&#45;&gt;PL9</title>
<path fill="none" stroke="black" d="M109.997,-958.943C109.876,-956.539 106,-879.15 106,-817 106,-817 106,-817 106,-761 106,-715.259 66.1146,-674.452 40.0482,-652.666"/>
<polygon fill="black" stroke="black" points="42.1178,-649.839 32.1387,-646.28 37.7201,-655.285 42.1178,-649.839"/>
</g>
<!-- PL10 -->
<g id="node42" class="node"><title>PL10</title>
<ellipse fill="none" stroke="black" cx="108" cy="-127" rx="18" ry="18"/>
<text text-anchor="middle" x="108" y="-123.3" font-family="Times,serif" font-size="14.00">PL10</text>
</g>
<!-- transition5 -->
<g id="node45" class="node"><title>transition5</title>
<polygon fill="none" stroke="black" points="153,-73 117,-73 117,-72 153,-72 153,-73"/>
<text text-anchor="middle" x="101" y="-76.8" font-family="Times,serif" font-size="14.00">Ack+</text>
</g>
<!-- PL10&#45;&gt;transition5 -->
<g id="edge48" class="edge"><title>PL10&#45;&gt;transition5</title>
<path fill="none" stroke="black" d="M115.81,-110.67C121.483,-99.5343 128.796,-85.1772 132.545,-77.8184"/>
<polygon fill="none" stroke="black" points="134.257,-78.3132 134.968,-73.0636 131.139,-76.7245 134.257,-78.3132"/>
</g>
<!-- transition16&#45;&gt;PL10 -->
<g id="edge47" class="edge"><title>transition16&#45;&gt;PL10</title>
<path fill="none" stroke="black" d="M108,-180.848C108,-179.368 108,-167.319 108,-155.1"/>
<polygon fill="black" stroke="black" points="111.5,-155.025 108,-145.025 104.5,-155.025 111.5,-155.025"/>
</g>
<!-- PL12 -->
<g id="node50" class="node"><title>PL12</title>
<ellipse fill="none" stroke="black" cx="162" cy="-127" rx="18" ry="18"/>
<text text-anchor="middle" x="162" y="-123.3" font-family="Times,serif" font-size="14.00">PL12</text>
</g>
<!-- transition16&#45;&gt;PL12 -->
<g id="edge57" class="edge"><title>transition16&#45;&gt;PL12</title>
<path fill="none" stroke="black" d="M108.155,-180.848C109.988,-179.049 127.738,-161.628 142.365,-147.272"/>
<polygon fill="black" stroke="black" points="144.943,-149.645 149.628,-140.143 140.04,-144.649 144.943,-149.645"/>
</g>
<!-- PL11 -->
<g id="node44" class="node"><title>PL11</title>
<ellipse fill="none" stroke="black" cx="189" cy="-18" rx="18" ry="18"/>
<text text-anchor="middle" x="189" y="-14.3" font-family="Times,serif" font-size="14.00">PL11</text>
</g>
<!-- PL11&#45;&gt;transition7 -->
<g id="edge50" class="edge"><title>PL11&#45;&gt;transition7</title>
<path fill="none" stroke="black" d="M193.795,-35.5189C199.423,-56.4024 208,-93.5488 208,-126 208,-762 208,-762 208,-762 208,-1015.79 240.742,-1327.46 245.441,-1370.89"/>
<polygon fill="none" stroke="black" points="243.71,-1371.16 245.993,-1375.94 247.189,-1370.78 243.71,-1371.16"/>
</g>
<!-- transition5&#45;&gt;PL11 -->
<g id="edge49" class="edge"><title>transition5&#45;&gt;PL11</title>
<path fill="none" stroke="black" d="M135.155,-71.848C136.988,-70.0487 154.738,-52.6279 169.365,-38.2717"/>
<polygon fill="black" stroke="black" points="171.943,-40.6453 176.628,-31.1427 167.04,-35.6495 171.943,-40.6453"/>
</g>
<!-- transition3 -->
<g id="node48" class="node"><title>transition3</title>
<polygon fill="none" stroke="black" points="218,-1268 182,-1268 182,-1267 218,-1267 218,-1268"/>
<text text-anchor="middle" x="164.5" y="-1271.8" font-family="Times,serif" font-size="14.00">Aack&#45;</text>
</g>
<!-- PL6&#45;&gt;transition3 -->
<g id="edge52" class="edge"><title>PL6&#45;&gt;transition3</title>
<path fill="none" stroke="black" d="M200,-1303.94C200,-1293.39 200,-1280.53 200,-1273.41"/>
<polygon fill="none" stroke="black" points="201.75,-1273.06 200,-1268.06 198.25,-1273.06 201.75,-1273.06"/>
</g>
<!-- PL7 -->
<g id="node47" class="node"><title>PL7</title>
<ellipse fill="none" stroke="black" cx="200" cy="-1213" rx="18" ry="18"/>
<text text-anchor="middle" x="200" y="-1209.3" font-family="Times,serif" font-size="14.00">PL7</text>
</g>
<!-- PL7&#45;&gt;transition24 -->
<g id="edge54" class="edge"><title>PL7&#45;&gt;transition24</title>
<path fill="none" stroke="black" d="M184.733,-1203.01C163.744,-1190.65 127.137,-1169.09 114.467,-1161.63"/>
<polygon fill="none" stroke="black" points="115.338,-1160.11 110.142,-1159.08 113.562,-1163.13 115.338,-1160.11"/>
</g>
<!-- transition3&#45;&gt;PL7 -->
<g id="edge53" class="edge"><title>transition3&#45;&gt;PL7</title>
<path fill="none" stroke="black" d="M200,-1266.85C200,-1265.37 200,-1253.32 200,-1241.1"/>
<polygon fill="black" stroke="black" points="203.5,-1241.02 200,-1231.02 196.5,-1241.02 203.5,-1241.02"/>
</g>
<!-- PL15&#45;&gt;transition12 -->
<g id="edge56" class="edge"><title>PL15&#45;&gt;transition12</title>
<path fill="none" stroke="black" d="M379.425,-870.629C386.777,-846.944 399,-801.615 399,-762 399,-762 399,-762 399,-508 399,-474.905 394.418,-465.79 380,-436 373.67,-422.92 362.285,-409.843 356.532,-403.669"/>
<polygon fill="none" stroke="black" points="357.78,-402.442 353.053,-400.052 355.258,-404.869 357.78,-402.442"/>
</g>
<!-- transition6 -->
<g id="node52" class="node"><title>transition6</title>
<polygon fill="none" stroke="black" points="276,-73 240,-73 240,-72 276,-72 276,-73"/>
<text text-anchor="middle" x="232.5" y="-76.8" font-family="Times,serif" font-size="14.00">Y&#45;</text>
</g>
<!-- PL12&#45;&gt;transition6 -->
<g id="edge58" class="edge"><title>PL12&#45;&gt;transition6</title>
<path fill="none" stroke="black" d="M177.424,-117.485C199.605,-105.239 239.359,-83.2912 253.139,-75.6836"/>
<polygon fill="none" stroke="black" points="254.314,-77.0338 257.846,-73.0851 252.623,-73.9697 254.314,-77.0338"/>
</g>
<!-- PL13 -->
<g id="node51" class="node"><title>PL13</title>
<ellipse fill="none" stroke="black" cx="277" cy="-18" rx="18" ry="18"/>
<text text-anchor="middle" x="277" y="-14.3" font-family="Times,serif" font-size="14.00">PL13</text>
</g>
<!-- PL13&#45;&gt;transition7 -->
<g id="edge60" class="edge"><title>PL13&#45;&gt;transition7</title>
<path fill="none" stroke="black" d="M294.734,-22.1369C336.392,-30.63 437,-58.1638 437,-126 437,-1268 437,-1268 437,-1268 437,-1355.75 282.366,-1373.03 251.371,-1375.61"/>
<polygon fill="none" stroke="black" points="250.997,-1373.88 246.138,-1375.99 251.253,-1377.37 250.997,-1373.88"/>
</g>
<!-- transition6&#45;&gt;PL13 -->
<g id="edge59" class="edge"><title>transition6&#45;&gt;PL13</title>
<path fill="none" stroke="black" d="M258.055,-71.848C258.606,-70.3094 263.253,-57.3481 267.805,-44.6481"/>
<polygon fill="black" stroke="black" points="271.119,-45.7753 271.199,-35.1807 264.53,-43.413 271.119,-45.7753"/>
</g>
<!-- transition14 -->
<g id="node55" class="node"><title>transition14</title>
<polygon fill="none" stroke="black" points="135,-400 99,-400 99,-399 135,-399 135,-400"/>
<text text-anchor="middle" x="85" y="-403.8" font-family="Times,serif" font-size="14.00">Ack&#45;</text>
</g>
<!-- PL23&#45;&gt;transition14 -->
<g id="edge62" class="edge"><title>PL23&#45;&gt;transition14</title>
<path fill="none" stroke="black" d="M117.678,-435.939C117.479,-425.385 117.236,-412.534 117.102,-405.412"/>
<polygon fill="none" stroke="black" points="118.845,-405.025 117.001,-400.059 115.346,-405.091 118.845,-405.025"/>
</g>
<!-- PL24 -->
<g id="node54" class="node"><title>PL24</title>
<ellipse fill="none" stroke="black" cx="112" cy="-345" rx="18" ry="18"/>
<text text-anchor="middle" x="112" y="-341.3" font-family="Times,serif" font-size="14.00">PL24</text>
</g>
<!-- transition15 -->
<g id="node57" class="node"><title>transition15</title>
<polygon fill="none" stroke="black" points="128,-291 92,-291 92,-290 128,-290 128,-291"/>
<text text-anchor="middle" x="82.5" y="-294.8" font-family="Times,serif" font-size="14.00">X+</text>
</g>
<!-- PL24&#45;&gt;transition15 -->
<g id="edge64" class="edge"><title>PL24&#45;&gt;transition15</title>
<path fill="none" stroke="black" d="M111.356,-326.939C110.958,-316.385 110.473,-303.534 110.204,-296.412"/>
<polygon fill="none" stroke="black" points="111.94,-295.99 110.002,-291.059 108.442,-296.122 111.94,-295.99"/>
</g>
<!-- transition14&#45;&gt;PL24 -->
<g id="edge63" class="edge"><title>transition14&#45;&gt;PL24</title>
<path fill="none" stroke="black" d="M116.986,-398.848C116.846,-397.368 115.709,-385.319 114.557,-373.1"/>
<polygon fill="black" stroke="black" points="118.03,-372.652 113.606,-363.025 111.061,-373.309 118.03,-372.652"/>
</g>
<!-- PL25 -->
<g id="node56" class="node"><title>PL25</title>
<ellipse fill="none" stroke="black" cx="109" cy="-236" rx="18" ry="18"/>
<text text-anchor="middle" x="109" y="-232.3" font-family="Times,serif" font-size="14.00">PL25</text>
</g>
<!-- PL25&#45;&gt;transition16 -->
<g id="edge66" class="edge"><title>PL25&#45;&gt;transition16</title>
<path fill="none" stroke="black" d="M108.678,-217.939C108.479,-207.385 108.236,-194.534 108.102,-187.412"/>
<polygon fill="none" stroke="black" points="109.845,-187.025 108.001,-182.059 106.346,-187.091 109.845,-187.025"/>
</g>
<!-- transition15&#45;&gt;PL25 -->
<g id="edge65" class="edge"><title>transition15&#45;&gt;PL25</title>
<path fill="none" stroke="black" d="M109.997,-289.848C109.969,-288.368 109.742,-276.319 109.511,-264.1"/>
<polygon fill="black" stroke="black" points="113.009,-263.957 109.321,-254.025 106.011,-264.089 113.009,-263.957"/>
</g>
</g>
</svg>
