<?xml version="1.0" encoding="UTF-8" standalone="no"?>
<!DOCTYPE svg PUBLIC "-//W3C//DTD SVG 1.1//EN"
 "http://www.w3.org/Graphics/SVG/1.1/DTD/svg11.dtd">
<!-- Generated by graphviz version 2.38.0 (20140413.2041)
 -->
<!-- Title: %3 Pages: 1 -->
<svg width="424pt" height="1749pt"
 viewBox="0.00 0.00 424.00 1749.00" xmlns="http://www.w3.org/2000/svg" xmlns:xlink="http://www.w3.org/1999/xlink">
<g id="graph0" class="graph" transform="scale(1 1) rotate(0) translate(4 1745)">
<title>%3</title>
<polygon fill="white" stroke="none" points="-4,4 -4,-1745 420,-1745 420,4 -4,4"/>
<!-- pl1 -->
<g id="node1" class="node"><title>pl1</title>
<ellipse fill="none" stroke="black" cx="367" cy="-1723" rx="18" ry="18"/>
<text text-anchor="middle" x="367" y="-1719.3" font-family="Times,serif" font-size="14.00">pl1</text>
</g>
<!-- transition17 -->
<g id="node3" class="node"><title>transition17</title>
<polygon fill="none" stroke="black" points="343,-1669 307,-1669 307,-1668 343,-1668 343,-1669"/>
<text text-anchor="middle" x="283" y="-1672.8" font-family="Times,serif" font-size="14.00">XRDY+</text>
</g>
<!-- pl1&#45;&gt;transition17 -->
<g id="edge1" class="edge"><title>pl1&#45;&gt;transition17</title>
<path fill="none" stroke="black" d="M356.184,-1708.35C344.129,-1693.14 326.165,-1670.47 325.054,-1669.07"/>
</g>
<!-- pl2 -->
<g id="node2" class="node"><title>pl2</title>
<ellipse fill="none" stroke="black" cx="306" cy="-1614" rx="18" ry="18"/>
<text text-anchor="middle" x="306" y="-1610.3" font-family="Times,serif" font-size="14.00">pl2</text>
</g>
<!-- transition1 -->
<g id="node5" class="node"><title>transition1</title>
<polygon fill="none" stroke="black" points="310,-1542.5 274,-1542.5 274,-1541.5 310,-1541.5 310,-1542.5"/>
<text text-anchor="middle" x="246.5" y="-1546.3" font-family="Times,serif" font-size="14.00">IOSTRB&#45;</text>
</g>
<!-- pl2&#45;&gt;transition1 -->
<g id="edge3" class="edge"><title>pl2&#45;&gt;transition1</title>
<path fill="none" stroke="black" d="M302.611,-1596.05C298.597,-1575.99 292.402,-1545.01 292.019,-1543.09"/>
</g>
<!-- transition17&#45;&gt;pl2 -->
<g id="edge2" class="edge"><title>transition17&#45;&gt;pl2</title>
<path fill="none" stroke="black" d="M324.945,-1667.85C324.394,-1666.31 319.747,-1653.35 315.195,-1640.65"/>
<polygon fill="black" stroke="black" points="318.47,-1639.41 311.801,-1631.18 311.881,-1641.78 318.47,-1639.41"/>
</g>
<!-- pl33 -->
<g id="node56" class="node"><title>pl33</title>
<ellipse fill="none" stroke="black" cx="65" cy="-1542" rx="18" ry="18"/>
<text text-anchor="middle" x="65" y="-1538.3" font-family="Times,serif" font-size="14.00">pl33</text>
</g>
<!-- transition17&#45;&gt;pl33 -->
<g id="edge63" class="edge"><title>transition17&#45;&gt;pl33</title>
<path fill="none" stroke="black" d="M324.953,-1667.98C321.728,-1666.43 154.717,-1586.13 90.1266,-1555.08"/>
<polygon fill="black" stroke="black" points="91.5543,-1551.88 81.0252,-1550.7 88.5212,-1558.19 91.5543,-1551.88"/>
</g>
<!-- pl3 -->
<g id="node4" class="node"><title>pl3</title>
<ellipse fill="none" stroke="black" cx="279" cy="-1470" rx="18" ry="18"/>
<text text-anchor="middle" x="279" y="-1466.3" font-family="Times,serif" font-size="14.00">pl3</text>
</g>
<!-- transition8 -->
<g id="node7" class="node"><title>transition8</title>
<polygon fill="none" stroke="black" points="297,-1416 261,-1416 261,-1415 297,-1415 297,-1416"/>
<text text-anchor="middle" x="238.5" y="-1419.8" font-family="Times,serif" font-size="14.00">XRDY&#45;</text>
</g>
<!-- pl3&#45;&gt;transition8 -->
<g id="edge5" class="edge"><title>pl3&#45;&gt;transition8</title>
<path fill="none" stroke="black" d="M279,-1451.94C279,-1436.93 279,-1417.27 279,-1416.06"/>
</g>
<!-- transition1&#45;&gt;pl3 -->
<g id="edge4" class="edge"><title>transition1&#45;&gt;pl3</title>
<path fill="none" stroke="black" d="M291.991,-1540.95C291.765,-1539.74 287.535,-1516.96 283.963,-1497.72"/>
<polygon fill="black" stroke="black" points="287.394,-1497.03 282.127,-1487.84 280.512,-1498.31 287.394,-1497.03"/>
</g>
<!-- pl4 -->
<g id="node6" class="node"><title>pl4</title>
<ellipse fill="none" stroke="black" cx="297" cy="-1361" rx="18" ry="18"/>
<text text-anchor="middle" x="297" y="-1357.3" font-family="Times,serif" font-size="14.00">pl4</text>
</g>
<!-- transition2 -->
<g id="node8" class="node"><title>transition2</title>
<polygon fill="none" stroke="black" points="416,-1307 380,-1307 380,-1306 416,-1306 416,-1307"/>
<text text-anchor="middle" x="351" y="-1310.8" font-family="Times,serif" font-size="14.00">IOSTRB+</text>
</g>
<!-- pl4&#45;&gt;transition2 -->
<g id="edge7" class="edge"><title>pl4&#45;&gt;transition2</title>
<path fill="none" stroke="black" d="M312.781,-1351.72C340.3,-1337.28 394.477,-1308.85 397.836,-1307.09"/>
</g>
<!-- transition8&#45;&gt;pl4 -->
<g id="edge6" class="edge"><title>transition8&#45;&gt;pl4</title>
<path fill="none" stroke="black" d="M279.052,-1414.85C279.569,-1413.32 283.89,-1400.6 288.162,-1388.02"/>
<polygon fill="black" stroke="black" points="291.603,-1388.78 291.505,-1378.18 284.975,-1386.52 291.603,-1388.78"/>
</g>
<!-- pl5 -->
<g id="node9" class="node"><title>pl5</title>
<ellipse fill="none" stroke="black" cx="224" cy="-1361" rx="18" ry="18"/>
<text text-anchor="middle" x="224" y="-1357.3" font-family="Times,serif" font-size="14.00">pl5</text>
</g>
<!-- transition8&#45;&gt;pl5 -->
<g id="edge9" class="edge"><title>transition8&#45;&gt;pl5</title>
<path fill="none" stroke="black" d="M278.842,-1414.85C276.975,-1413.05 258.897,-1395.63 243.999,-1381.27"/>
<polygon fill="black" stroke="black" points="246.23,-1378.56 236.601,-1374.14 241.373,-1383.6 246.23,-1378.56"/>
</g>
<!-- transition2&#45;&gt;pl1 -->
<g id="edge8" class="edge"><title>transition2&#45;&gt;pl1</title>
<path fill="none" stroke="black" d="M397.997,-1307.04C397.876,-1308.87 394,-1367.72 394,-1415 394,-1615 394,-1615 394,-1615 394,-1643.48 384.894,-1674.97 377.258,-1696.37"/>
<polygon fill="black" stroke="black" points="373.88,-1695.41 373.674,-1706 380.441,-1697.85 373.88,-1695.41"/>
</g>
<!-- transition7 -->
<g id="node11" class="node"><title>transition7</title>
<polygon fill="none" stroke="black" points="237,-1307 201,-1307 201,-1306 237,-1306 237,-1307"/>
<text text-anchor="middle" x="184.5" y="-1310.8" font-family="Times,serif" font-size="14.00">Areq&#45;</text>
</g>
<!-- pl5&#45;&gt;transition7 -->
<g id="edge10" class="edge"><title>pl5&#45;&gt;transition7</title>
<path fill="none" stroke="black" d="M222.39,-1342.94C220.974,-1327.93 219.12,-1308.27 219.006,-1307.06"/>
</g>
<!-- pl6 -->
<g id="node10" class="node"><title>pl6</title>
<ellipse fill="none" stroke="black" cx="84" cy="-1252" rx="18" ry="18"/>
<text text-anchor="middle" x="84" y="-1248.3" font-family="Times,serif" font-size="14.00">pl6</text>
</g>
<!-- transition3 -->
<g id="node13" class="node"><title>transition3</title>
<polygon fill="none" stroke="black" points="102,-1198 66,-1198 66,-1197 102,-1197 102,-1198"/>
<text text-anchor="middle" x="48.5" y="-1201.8" font-family="Times,serif" font-size="14.00">Aack&#45;</text>
</g>
<!-- pl6&#45;&gt;transition3 -->
<g id="edge12" class="edge"><title>pl6&#45;&gt;transition3</title>
<path fill="none" stroke="black" d="M84,-1233.94C84,-1218.93 84,-1199.27 84,-1198.06"/>
</g>
<!-- transition7&#45;&gt;pl6 -->
<g id="edge11" class="edge"><title>transition7&#45;&gt;pl6</title>
<path fill="none" stroke="black" d="M218.831,-1305.95C215.353,-1304.96 159.041,-1288.82 116,-1270 113.493,-1268.9 110.914,-1267.69 108.36,-1266.43"/>
<polygon fill="black" stroke="black" points="109.881,-1263.27 99.3908,-1261.79 106.663,-1269.49 109.881,-1263.27"/>
</g>
<!-- pl15 -->
<g id="node22" class="node"><title>pl15</title>
<ellipse fill="none" stroke="black" cx="214" cy="-1252" rx="18" ry="18"/>
<text text-anchor="middle" x="214" y="-1248.3" font-family="Times,serif" font-size="14.00">pl15</text>
</g>
<!-- transition7&#45;&gt;pl15 -->
<g id="edge23" class="edge"><title>transition7&#45;&gt;pl15</title>
<path fill="none" stroke="black" d="M218.986,-1305.85C218.846,-1304.37 217.709,-1292.32 216.557,-1280.1"/>
<polygon fill="black" stroke="black" points="220.03,-1279.65 215.606,-1270.02 213.061,-1280.31 220.03,-1279.65"/>
</g>
<!-- pl29 -->
<g id="node45" class="node"><title>pl29</title>
<ellipse fill="none" stroke="black" cx="268" cy="-1252" rx="18" ry="18"/>
<text text-anchor="middle" x="268" y="-1248.3" font-family="Times,serif" font-size="14.00">pl29</text>
</g>
<!-- transition7&#45;&gt;pl29 -->
<g id="edge49" class="edge"><title>transition7&#45;&gt;pl29</title>
<path fill="none" stroke="black" d="M219.141,-1305.85C220.76,-1304.1 236.074,-1287.53 249.132,-1273.41"/>
<polygon fill="black" stroke="black" points="251.834,-1275.64 256.052,-1265.92 246.694,-1270.89 251.834,-1275.64"/>
</g>
<!-- pl7 -->
<g id="node12" class="node"><title>pl7</title>
<ellipse fill="none" stroke="black" cx="84" cy="-1143" rx="18" ry="18"/>
<text text-anchor="middle" x="84" y="-1139.3" font-family="Times,serif" font-size="14.00">pl7</text>
</g>
<!-- transition24 -->
<g id="node15" class="node"><title>transition24</title>
<polygon fill="none" stroke="black" points="102,-1089 66,-1089 66,-1088 102,-1088 102,-1089"/>
<text text-anchor="middle" x="48" y="-1092.8" font-family="Times,serif" font-size="14.00">Areq+</text>
</g>
<!-- pl7&#45;&gt;transition24 -->
<g id="edge14" class="edge"><title>pl7&#45;&gt;transition24</title>
<path fill="none" stroke="black" d="M84,-1124.94C84,-1109.93 84,-1090.27 84,-1089.06"/>
</g>
<!-- transition3&#45;&gt;pl7 -->
<g id="edge13" class="edge"><title>transition3&#45;&gt;pl7</title>
<path fill="none" stroke="black" d="M84,-1196.85C84,-1195.37 84,-1183.32 84,-1171.1"/>
<polygon fill="black" stroke="black" points="87.5001,-1171.02 84,-1161.02 80.5001,-1171.02 87.5001,-1171.02"/>
</g>
<!-- pl8 -->
<g id="node14" class="node"><title>pl8</title>
<ellipse fill="none" stroke="black" cx="84" cy="-1034" rx="18" ry="18"/>
<text text-anchor="middle" x="84" y="-1030.3" font-family="Times,serif" font-size="14.00">pl8</text>
</g>
<!-- transition4 -->
<g id="node17" class="node"><title>transition4</title>
<polygon fill="none" stroke="black" points="102,-980 66,-980 66,-979 102,-979 102,-980"/>
<text text-anchor="middle" x="47" y="-983.8" font-family="Times,serif" font-size="14.00">Aack+</text>
</g>
<!-- pl8&#45;&gt;transition4 -->
<g id="edge16" class="edge"><title>pl8&#45;&gt;transition4</title>
<path fill="none" stroke="black" d="M84,-1015.94C84,-1000.93 84,-981.273 84,-980.059"/>
</g>
<!-- transition24&#45;&gt;pl8 -->
<g id="edge15" class="edge"><title>transition24&#45;&gt;pl8</title>
<path fill="none" stroke="black" d="M84,-1087.85C84,-1086.37 84,-1074.32 84,-1062.1"/>
<polygon fill="black" stroke="black" points="87.5001,-1062.02 84,-1052.02 80.5001,-1062.02 87.5001,-1062.02"/>
</g>
<!-- pl14 -->
<g id="node57" class="node"><title>pl14</title>
<ellipse fill="none" stroke="black" cx="30" cy="-1034" rx="18" ry="18"/>
<text text-anchor="middle" x="30" y="-1030.3" font-family="Times,serif" font-size="14.00">pl14</text>
</g>
<!-- transition24&#45;&gt;pl14 -->
<g id="edge65" class="edge"><title>transition24&#45;&gt;pl14</title>
<path fill="none" stroke="black" d="M83.8451,-1087.85C82.0118,-1086.05 64.2624,-1068.63 49.6353,-1054.27"/>
<polygon fill="black" stroke="black" points="51.9603,-1051.65 42.3718,-1047.14 47.057,-1056.65 51.9603,-1051.65"/>
</g>
<!-- pl9 -->
<g id="node16" class="node"><title>pl9</title>
<ellipse fill="none" stroke="black" cx="84" cy="-853" rx="18" ry="18"/>
<text text-anchor="middle" x="84" y="-849.3" font-family="Times,serif" font-size="14.00">pl9</text>
</g>
<!-- transition16 -->
<g id="node19" class="node"><title>transition16</title>
<polygon fill="none" stroke="black" points="200,-182 164,-182 164,-181 200,-181 200,-182"/>
<text text-anchor="middle" x="142.5" y="-185.8" font-family="Times,serif" font-size="14.00">STRB+</text>
</g>
<!-- pl9&#45;&gt;transition16 -->
<g id="edge18" class="edge"><title>pl9&#45;&gt;transition16</title>
<path fill="none" stroke="black" d="M84.9077,-834.615C86.0878,-810.475 88,-765.431 88,-727 88,-727 88,-727 88,-290 88,-227.36 179.085,-183.391 181.932,-182.032"/>
</g>
<!-- transition4&#45;&gt;pl9 -->
<g id="edge17" class="edge"><title>transition4&#45;&gt;pl9</title>
<path fill="none" stroke="black" d="M84,-978.909C84,-976.29 84,-917.468 84,-881.491"/>
<polygon fill="black" stroke="black" points="87.5001,-881.147 84,-871.147 80.5001,-881.147 87.5001,-881.147"/>
</g>
<!-- pl10 -->
<g id="node18" class="node"><title>pl10</title>
<ellipse fill="none" stroke="black" cx="230" cy="-127" rx="18" ry="18"/>
<text text-anchor="middle" x="230" y="-123.3" font-family="Times,serif" font-size="14.00">pl10</text>
</g>
<!-- transition5 -->
<g id="node21" class="node"><title>transition5</title>
<polygon fill="none" stroke="black" points="254,-73 218,-73 218,-72 254,-72 254,-73"/>
<text text-anchor="middle" x="202" y="-76.8" font-family="Times,serif" font-size="14.00">Ack+</text>
</g>
<!-- pl10&#45;&gt;transition5 -->
<g id="edge20" class="edge"><title>pl10&#45;&gt;transition5</title>
<path fill="none" stroke="black" d="M231.931,-108.939C233.631,-93.9293 235.856,-74.273 235.993,-73.0591"/>
</g>
<!-- transition16&#45;&gt;pl10 -->
<g id="edge19" class="edge"><title>transition16&#45;&gt;pl10</title>
<path fill="none" stroke="black" d="M182.138,-180.848C183.724,-179.096 198.726,-162.532 211.517,-148.409"/>
<polygon fill="black" stroke="black" points="214.178,-150.684 218.296,-140.923 208.989,-145.985 214.178,-150.684"/>
</g>
<!-- pl12 -->
<g id="node42" class="node"><title>pl12</title>
<ellipse fill="none" stroke="black" cx="176" cy="-127" rx="18" ry="18"/>
<text text-anchor="middle" x="176" y="-123.3" font-family="Times,serif" font-size="14.00">pl12</text>
</g>
<!-- transition16&#45;&gt;pl12 -->
<g id="edge45" class="edge"><title>transition16&#45;&gt;pl12</title>
<path fill="none" stroke="black" d="M181.983,-180.848C181.815,-179.368 180.451,-167.319 179.068,-155.1"/>
<polygon fill="black" stroke="black" points="182.53,-154.568 177.927,-145.025 175.575,-155.355 182.53,-154.568"/>
</g>
<!-- pl11 -->
<g id="node20" class="node"><title>pl11</title>
<ellipse fill="none" stroke="black" cx="247" cy="-18" rx="18" ry="18"/>
<text text-anchor="middle" x="247" y="-14.3" font-family="Times,serif" font-size="14.00">pl11</text>
</g>
<!-- pl11&#45;&gt;transition7 -->
<g id="edge22" class="edge"><title>pl11&#45;&gt;transition7</title>
<path fill="none" stroke="black" d="M260.237,-30.3554C279.763,-48.448 314,-85.8907 314,-126 314,-1198 314,-1198 314,-1198 314,-1231.1 316.148,-1244.54 295,-1270 271.863,-1297.85 222.23,-1305.53 219.15,-1305.98"/>
</g>
<!-- transition5&#45;&gt;pl11 -->
<g id="edge21" class="edge"><title>transition5&#45;&gt;pl11</title>
<path fill="none" stroke="black" d="M236.032,-71.848C236.341,-70.3585 238.872,-58.1645 241.424,-45.8654"/>
<polygon fill="black" stroke="black" points="244.92,-46.2449 243.525,-35.7422 238.066,-44.8223 244.92,-46.2449"/>
</g>
<!-- transition12 -->
<g id="node24" class="node"><title>transition12</title>
<polygon fill="none" stroke="black" points="232,-1089 196,-1089 196,-1088 232,-1088 232,-1089"/>
<text text-anchor="middle" x="178" y="-1092.8" font-family="Times,serif" font-size="14.00">Dreq+</text>
</g>
<!-- pl15&#45;&gt;transition12 -->
<g id="edge24" class="edge"><title>pl15&#45;&gt;transition12</title>
<path fill="none" stroke="black" d="M214,-1233.97C214,-1193.03 214,-1092.22 214,-1089.08"/>
</g>
<!-- pl16 -->
<g id="node23" class="node"><title>pl16</title>
<ellipse fill="none" stroke="black" cx="214" cy="-1034" rx="18" ry="18"/>
<text text-anchor="middle" x="214" y="-1030.3" font-family="Times,serif" font-size="14.00">pl16</text>
</g>
<!-- transition9 -->
<g id="node26" class="node"><title>transition9</title>
<polygon fill="none" stroke="black" points="232,-980 196,-980 196,-979 232,-979 232,-980"/>
<text text-anchor="middle" x="177" y="-983.8" font-family="Times,serif" font-size="14.00">Dack+</text>
</g>
<!-- pl16&#45;&gt;transition9 -->
<g id="edge26" class="edge"><title>pl16&#45;&gt;transition9</title>
<path fill="none" stroke="black" d="M214,-1015.94C214,-1000.93 214,-981.273 214,-980.059"/>
</g>
<!-- transition12&#45;&gt;pl16 -->
<g id="edge25" class="edge"><title>transition12&#45;&gt;pl16</title>
<path fill="none" stroke="black" d="M214,-1087.85C214,-1086.37 214,-1074.32 214,-1062.1"/>
<polygon fill="black" stroke="black" points="217.5,-1062.02 214,-1052.02 210.5,-1062.02 217.5,-1062.02"/>
</g>
<!-- pl17 -->
<g id="node25" class="node"><title>pl17</title>
<ellipse fill="none" stroke="black" cx="214" cy="-925" rx="18" ry="18"/>
<text text-anchor="middle" x="214" y="-921.3" font-family="Times,serif" font-size="14.00">pl17</text>
</g>
<!-- transition23 -->
<g id="node28" class="node"><title>transition23</title>
<polygon fill="none" stroke="black" points="259,-853.5 223,-853.5 223,-852.5 259,-852.5 259,-853.5"/>
<text text-anchor="middle" x="201.5" y="-857.3" font-family="Times,serif" font-size="14.00">STRB+</text>
</g>
<!-- pl17&#45;&gt;transition23 -->
<g id="edge28" class="edge"><title>pl17&#45;&gt;transition23</title>
<path fill="none" stroke="black" d="M220.262,-907.765C227.989,-887.732 240.207,-856.056 240.963,-854.096"/>
</g>
<!-- transition9&#45;&gt;pl17 -->
<g id="edge27" class="edge"><title>transition9&#45;&gt;pl17</title>
<path fill="none" stroke="black" d="M214,-978.848C214,-977.368 214,-965.319 214,-953.1"/>
<polygon fill="black" stroke="black" points="217.5,-953.025 214,-943.025 210.5,-953.025 217.5,-953.025"/>
</g>
<!-- pl18 -->
<g id="node27" class="node"><title>pl18</title>
<ellipse fill="none" stroke="black" cx="214" cy="-781" rx="18" ry="18"/>
<text text-anchor="middle" x="214" y="-777.3" font-family="Times,serif" font-size="14.00">pl18</text>
</g>
<!-- transition10 -->
<g id="node30" class="node"><title>transition10</title>
<polygon fill="none" stroke="black" points="232,-727 196,-727 196,-726 232,-726 232,-727"/>
<text text-anchor="middle" x="180" y="-730.8" font-family="Times,serif" font-size="14.00">Ack+</text>
</g>
<!-- pl18&#45;&gt;transition10 -->
<g id="edge30" class="edge"><title>pl18&#45;&gt;transition10</title>
<path fill="none" stroke="black" d="M214,-762.939C214,-747.929 214,-728.273 214,-727.059"/>
</g>
<!-- transition23&#45;&gt;pl18 -->
<g id="edge29" class="edge"><title>transition23&#45;&gt;pl18</title>
<path fill="none" stroke="black" d="M240.98,-851.949C240.502,-850.71 231.357,-826.998 223.844,-807.522"/>
<polygon fill="black" stroke="black" points="227.09,-806.212 220.226,-798.142 220.559,-808.731 227.09,-806.212"/>
</g>
<!-- pl27 -->
<g id="node52" class="node"><title>pl27</title>
<ellipse fill="none" stroke="black" cx="268" cy="-781" rx="18" ry="18"/>
<text text-anchor="middle" x="268" y="-777.3" font-family="Times,serif" font-size="14.00">pl27</text>
</g>
<!-- transition23&#45;&gt;pl27 -->
<g id="edge57" class="edge"><title>transition23&#45;&gt;pl27</title>
<path fill="none" stroke="black" d="M241.02,-851.949C241.498,-850.71 250.643,-826.998 258.156,-807.522"/>
<polygon fill="black" stroke="black" points="261.441,-808.731 261.774,-798.142 254.91,-806.212 261.441,-808.731"/>
</g>
<!-- pl19 -->
<g id="node29" class="node"><title>pl19</title>
<ellipse fill="none" stroke="black" cx="214" cy="-672" rx="18" ry="18"/>
<text text-anchor="middle" x="214" y="-668.3" font-family="Times,serif" font-size="14.00">pl19</text>
</g>
<!-- transition19 -->
<g id="node32" class="node"><title>transition19</title>
<polygon fill="none" stroke="black" points="259,-618 223,-618 223,-617 259,-617 259,-618"/>
<text text-anchor="middle" x="206.5" y="-621.8" font-family="Times,serif" font-size="14.00">Dreq&#45;</text>
</g>
<!-- pl19&#45;&gt;transition19 -->
<g id="edge32" class="edge"><title>pl19&#45;&gt;transition19</title>
<path fill="none" stroke="black" d="M221.81,-655.67C229.534,-640.506 240.302,-619.37 240.968,-618.064"/>
</g>
<!-- transition10&#45;&gt;pl19 -->
<g id="edge31" class="edge"><title>transition10&#45;&gt;pl19</title>
<path fill="none" stroke="black" d="M214,-725.848C214,-724.368 214,-712.319 214,-700.1"/>
<polygon fill="black" stroke="black" points="217.5,-700.025 214,-690.025 210.5,-700.025 217.5,-700.025"/>
</g>
<!-- pl20 -->
<g id="node31" class="node"><title>pl20</title>
<ellipse fill="none" stroke="black" cx="214" cy="-563" rx="18" ry="18"/>
<text text-anchor="middle" x="214" y="-559.3" font-family="Times,serif" font-size="14.00">pl20</text>
</g>
<!-- transition11 -->
<g id="node34" class="node"><title>transition11</title>
<polygon fill="none" stroke="black" points="232,-509 196,-509 196,-508 232,-508 232,-509"/>
<text text-anchor="middle" x="178.5" y="-512.8" font-family="Times,serif" font-size="14.00">Dack&#45;</text>
</g>
<!-- pl20&#45;&gt;transition11 -->
<g id="edge34" class="edge"><title>pl20&#45;&gt;transition11</title>
<path fill="none" stroke="black" d="M214,-544.939C214,-529.929 214,-510.273 214,-509.059"/>
</g>
<!-- transition19&#45;&gt;pl20 -->
<g id="edge33" class="edge"><title>transition19&#45;&gt;pl20</title>
<path fill="none" stroke="black" d="M240.923,-616.848C240.116,-615.265 233.15,-601.591 226.506,-588.55"/>
<polygon fill="black" stroke="black" points="229.477,-586.669 221.819,-579.348 223.239,-589.847 229.477,-586.669"/>
</g>
<!-- pl22 -->
<g id="node35" class="node"><title>pl22</title>
<ellipse fill="none" stroke="black" cx="268" cy="-563" rx="18" ry="18"/>
<text text-anchor="middle" x="268" y="-559.3" font-family="Times,serif" font-size="14.00">pl22</text>
</g>
<!-- transition19&#45;&gt;pl22 -->
<g id="edge37" class="edge"><title>transition19&#45;&gt;pl22</title>
<path fill="none" stroke="black" d="M241.077,-616.848C241.884,-615.265 248.85,-601.591 255.494,-588.55"/>
<polygon fill="black" stroke="black" points="258.761,-589.847 260.181,-579.348 252.523,-586.669 258.761,-589.847"/>
</g>
<!-- pl21 -->
<g id="node33" class="node"><title>pl21</title>
<ellipse fill="none" stroke="black" cx="195" cy="-454" rx="18" ry="18"/>
<text text-anchor="middle" x="195" y="-450.3" font-family="Times,serif" font-size="14.00">pl21</text>
</g>
<!-- pl21&#45;&gt;transition12 -->
<g id="edge36" class="edge"><title>pl21&#45;&gt;transition12</title>
<path fill="none" stroke="black" d="M188.326,-470.997C180.33,-491.643 168,-528.855 168,-562 168,-980 168,-980 168,-980 168,-1013.1 172.582,-1022.21 187,-1052 195.441,-1069.44 212.866,-1086.88 213.947,-1087.95"/>
</g>
<!-- transition11&#45;&gt;pl21 -->
<g id="edge35" class="edge"><title>transition11&#45;&gt;pl21</title>
<path fill="none" stroke="black" d="M213.945,-507.848C213.394,-506.309 208.747,-493.348 204.195,-480.648"/>
<polygon fill="black" stroke="black" points="207.47,-479.413 200.801,-471.181 200.881,-481.775 207.47,-479.413"/>
</g>
<!-- transition13 -->
<g id="node37" class="node"><title>transition13</title>
<polygon fill="none" stroke="black" points="286,-509 250,-509 250,-508 286,-508 286,-509"/>
<text text-anchor="middle" x="230" y="-512.8" font-family="Times,serif" font-size="14.00">STRB&#45;</text>
</g>
<!-- pl22&#45;&gt;transition13 -->
<g id="edge38" class="edge"><title>pl22&#45;&gt;transition13</title>
<path fill="none" stroke="black" d="M268,-544.939C268,-529.929 268,-510.273 268,-509.059"/>
</g>
<!-- pl23 -->
<g id="node36" class="node"><title>pl23</title>
<ellipse fill="none" stroke="black" cx="268" cy="-454" rx="18" ry="18"/>
<text text-anchor="middle" x="268" y="-450.3" font-family="Times,serif" font-size="14.00">pl23</text>
</g>
<!-- transition14 -->
<g id="node39" class="node"><title>transition14</title>
<polygon fill="none" stroke="black" points="283,-400 247,-400 247,-399 283,-399 283,-400"/>
<text text-anchor="middle" x="233" y="-403.8" font-family="Times,serif" font-size="14.00">Ack&#45;</text>
</g>
<!-- pl23&#45;&gt;transition14 -->
<g id="edge40" class="edge"><title>pl23&#45;&gt;transition14</title>
<path fill="none" stroke="black" d="M267.034,-435.939C266.185,-420.929 265.072,-401.273 265.003,-400.059"/>
</g>
<!-- transition13&#45;&gt;pl23 -->
<g id="edge39" class="edge"><title>transition13&#45;&gt;pl23</title>
<path fill="none" stroke="black" d="M268,-507.848C268,-506.368 268,-494.319 268,-482.1"/>
<polygon fill="black" stroke="black" points="271.5,-482.025 268,-472.025 264.5,-482.025 271.5,-482.025"/>
</g>
<!-- pl26 -->
<g id="node55" class="node"><title>pl26</title>
<ellipse fill="none" stroke="black" cx="360" cy="-454" rx="18" ry="18"/>
<text text-anchor="middle" x="360" y="-450.3" font-family="Times,serif" font-size="14.00">pl26</text>
</g>
<!-- transition13&#45;&gt;pl26 -->
<g id="edge61" class="edge"><title>transition13&#45;&gt;pl26</title>
<path fill="none" stroke="black" d="M268.067,-507.962C269.907,-506.902 309.413,-484.143 336.032,-468.808"/>
<polygon fill="black" stroke="black" points="337.91,-471.765 344.827,-463.741 334.415,-465.7 337.91,-471.765"/>
</g>
<!-- pl24 -->
<g id="node38" class="node"><title>pl24</title>
<ellipse fill="none" stroke="black" cx="219" cy="-345" rx="18" ry="18"/>
<text text-anchor="middle" x="219" y="-341.3" font-family="Times,serif" font-size="14.00">pl24</text>
</g>
<!-- transition15 -->
<g id="node41" class="node"><title>transition15</title>
<polygon fill="none" stroke="black" points="226,-291 190,-291 190,-290 226,-290 226,-291"/>
<text text-anchor="middle" x="180.5" y="-294.8" font-family="Times,serif" font-size="14.00">X+</text>
</g>
<!-- pl24&#45;&gt;transition15 -->
<g id="edge42" class="edge"><title>pl24&#45;&gt;transition15</title>
<path fill="none" stroke="black" d="M215.52,-327.23C212.398,-312.188 208.268,-292.289 208.012,-291.06"/>
</g>
<!-- transition14&#45;&gt;pl24 -->
<g id="edge41" class="edge"><title>transition14&#45;&gt;pl24</title>
<path fill="none" stroke="black" d="M264.868,-398.848C263.37,-397.122 249.401,-381.027 237.268,-367.048"/>
<polygon fill="black" stroke="black" points="239.643,-364.444 230.445,-359.186 234.356,-369.033 239.643,-364.444"/>
</g>
<!-- pl25 -->
<g id="node40" class="node"><title>pl25</title>
<ellipse fill="none" stroke="black" cx="205" cy="-236" rx="18" ry="18"/>
<text text-anchor="middle" x="205" y="-232.3" font-family="Times,serif" font-size="14.00">pl25</text>
</g>
<!-- pl25&#45;&gt;transition16 -->
<g id="edge44" class="edge"><title>pl25&#45;&gt;transition16</title>
<path fill="none" stroke="black" d="M198.099,-219.098C191.536,-203.975 182.58,-183.337 182.027,-182.062"/>
</g>
<!-- transition15&#45;&gt;pl25 -->
<g id="edge43" class="edge"><title>transition15&#45;&gt;pl25</title>
<path fill="none" stroke="black" d="M207.991,-289.848C207.908,-288.368 207.226,-276.319 206.534,-264.1"/>
<polygon fill="black" stroke="black" points="210.023,-263.811 205.964,-254.025 203.034,-264.207 210.023,-263.811"/>
</g>
<!-- transition6 -->
<g id="node44" class="node"><title>transition6</title>
<polygon fill="none" stroke="black" points="194,-73 158,-73 158,-72 194,-72 194,-73"/>
<text text-anchor="middle" x="150.5" y="-76.8" font-family="Times,serif" font-size="14.00">Y&#45;</text>
</g>
<!-- pl12&#45;&gt;transition6 -->
<g id="edge46" class="edge"><title>pl12&#45;&gt;transition6</title>
<path fill="none" stroke="black" d="M176,-108.939C176,-93.9293 176,-74.273 176,-73.0591"/>
</g>
<!-- pl13 -->
<g id="node43" class="node"><title>pl13</title>
<ellipse fill="none" stroke="black" cx="170" cy="-18" rx="18" ry="18"/>
<text text-anchor="middle" x="170" y="-14.3" font-family="Times,serif" font-size="14.00">pl13</text>
</g>
<!-- pl13&#45;&gt;transition7 -->
<g id="edge48" class="edge"><title>pl13&#45;&gt;transition7</title>
<path fill="none" stroke="black" d="M160.723,-33.591C148.906,-53.6106 130,-91.0957 130,-126 130,-1198 130,-1198 130,-1198 130,-1259.23 216.24,-1304.56 218.935,-1305.97"/>
</g>
<!-- transition6&#45;&gt;pl13 -->
<g id="edge47" class="edge"><title>transition6&#45;&gt;pl13</title>
<path fill="none" stroke="black" d="M175.983,-71.848C175.815,-70.368 174.451,-58.3194 173.068,-46.1004"/>
<polygon fill="black" stroke="black" points="176.53,-45.5675 171.927,-36.0247 169.575,-46.355 176.53,-45.5675"/>
</g>
<!-- transition20 -->
<g id="node47" class="node"><title>transition20</title>
<polygon fill="none" stroke="black" points="286,-1198 250,-1198 250,-1197 286,-1197 286,-1198"/>
<text text-anchor="middle" x="230" y="-1201.8" font-family="Times,serif" font-size="14.00">STRB&#45;</text>
</g>
<!-- pl29&#45;&gt;transition20 -->
<g id="edge50" class="edge"><title>pl29&#45;&gt;transition20</title>
<path fill="none" stroke="black" d="M268,-1233.94C268,-1218.93 268,-1199.27 268,-1198.06"/>
</g>
<!-- pl30 -->
<g id="node46" class="node"><title>pl30</title>
<ellipse fill="none" stroke="black" cx="268" cy="-1143" rx="18" ry="18"/>
<text text-anchor="middle" x="268" y="-1139.3" font-family="Times,serif" font-size="14.00">pl30</text>
</g>
<!-- transition21 -->
<g id="node49" class="node"><title>transition21</title>
<polygon fill="none" stroke="black" points="286,-1089 250,-1089 250,-1088 286,-1088 286,-1089"/>
<text text-anchor="middle" x="236" y="-1092.8" font-family="Times,serif" font-size="14.00">Ack&#45;</text>
</g>
<!-- pl30&#45;&gt;transition21 -->
<g id="edge52" class="edge"><title>pl30&#45;&gt;transition21</title>
<path fill="none" stroke="black" d="M268,-1124.94C268,-1109.93 268,-1090.27 268,-1089.06"/>
</g>
<!-- transition20&#45;&gt;pl30 -->
<g id="edge51" class="edge"><title>transition20&#45;&gt;pl30</title>
<path fill="none" stroke="black" d="M268,-1196.85C268,-1195.37 268,-1183.32 268,-1171.1"/>
<polygon fill="black" stroke="black" points="271.5,-1171.02 268,-1161.02 264.5,-1171.02 271.5,-1171.02"/>
</g>
<!-- pl31 -->
<g id="node48" class="node"><title>pl31</title>
<ellipse fill="none" stroke="black" cx="268" cy="-1034" rx="18" ry="18"/>
<text text-anchor="middle" x="268" y="-1030.3" font-family="Times,serif" font-size="14.00">pl31</text>
</g>
<!-- transition22 -->
<g id="node51" class="node"><title>transition22</title>
<polygon fill="none" stroke="black" points="286,-980 250,-980 250,-979 286,-979 286,-980"/>
<text text-anchor="middle" x="242.5" y="-983.8" font-family="Times,serif" font-size="14.00">X&#45;</text>
</g>
<!-- pl31&#45;&gt;transition22 -->
<g id="edge54" class="edge"><title>pl31&#45;&gt;transition22</title>
<path fill="none" stroke="black" d="M268,-1015.94C268,-1000.93 268,-981.273 268,-980.059"/>
</g>
<!-- transition21&#45;&gt;pl31 -->
<g id="edge53" class="edge"><title>transition21&#45;&gt;pl31</title>
<path fill="none" stroke="black" d="M268,-1087.85C268,-1086.37 268,-1074.32 268,-1062.1"/>
<polygon fill="black" stroke="black" points="271.5,-1062.02 268,-1052.02 264.5,-1062.02 271.5,-1062.02"/>
</g>
<!-- pl32 -->
<g id="node50" class="node"><title>pl32</title>
<ellipse fill="none" stroke="black" cx="268" cy="-925" rx="18" ry="18"/>
<text text-anchor="middle" x="268" y="-921.3" font-family="Times,serif" font-size="14.00">pl32</text>
</g>
<!-- pl32&#45;&gt;transition23 -->
<g id="edge56" class="edge"><title>pl32&#45;&gt;transition23</title>
<path fill="none" stroke="black" d="M261.738,-907.765C254.011,-887.732 241.793,-856.056 241.037,-854.096"/>
</g>
<!-- transition22&#45;&gt;pl32 -->
<g id="edge55" class="edge"><title>transition22&#45;&gt;pl32</title>
<path fill="none" stroke="black" d="M268,-978.848C268,-977.368 268,-965.319 268,-953.1"/>
<polygon fill="black" stroke="black" points="271.5,-953.025 268,-943.025 264.5,-953.025 271.5,-953.025"/>
</g>
<!-- transition18 -->
<g id="node54" class="node"><title>transition18</title>
<polygon fill="none" stroke="black" points="286,-727 250,-727 250,-726 286,-726 286,-727"/>
<text text-anchor="middle" x="240.5" y="-730.8" font-family="Times,serif" font-size="14.00">Y+</text>
</g>
<!-- pl27&#45;&gt;transition18 -->
<g id="edge58" class="edge"><title>pl27&#45;&gt;transition18</title>
<path fill="none" stroke="black" d="M268,-762.939C268,-747.929 268,-728.273 268,-727.059"/>
</g>
<!-- pl28 -->
<g id="node53" class="node"><title>pl28</title>
<ellipse fill="none" stroke="black" cx="268" cy="-672" rx="18" ry="18"/>
<text text-anchor="middle" x="268" y="-668.3" font-family="Times,serif" font-size="14.00">pl28</text>
</g>
<!-- pl28&#45;&gt;transition19 -->
<g id="edge60" class="edge"><title>pl28&#45;&gt;transition19</title>
<path fill="none" stroke="black" d="M260.19,-655.67C252.466,-640.506 241.698,-619.37 241.032,-618.064"/>
</g>
<!-- transition18&#45;&gt;pl28 -->
<g id="edge59" class="edge"><title>transition18&#45;&gt;pl28</title>
<path fill="none" stroke="black" d="M268,-725.848C268,-724.368 268,-712.319 268,-700.1"/>
<polygon fill="black" stroke="black" points="271.5,-700.025 268,-690.025 264.5,-700.025 271.5,-700.025"/>
</g>
<!-- pl26&#45;&gt;transition17 -->
<g id="edge62" class="edge"><title>pl26&#45;&gt;transition17</title>
<path fill="none" stroke="black" d="M357.94,-472.02C355.569,-493.105 352,-530.146 352,-562 352,-1543 352,-1543 352,-1543 352,-1598.95 325.837,-1665.87 325.02,-1667.95"/>
</g>
<!-- pl33&#45;&gt;transition24 -->
<g id="edge64" class="edge"><title>pl33&#45;&gt;transition24</title>
<path fill="none" stroke="black" d="M53.078,-1528.28C34.313,-1506.87 0,-1461.5 0,-1416 0,-1416 0,-1416 0,-1197 0,-1137.14 81.3955,-1090.48 83.9391,-1089.03"/>
</g>
<!-- pl14&#45;&gt;transition8 -->
<g id="edge66" class="edge"><title>pl14&#45;&gt;transition8</title>
<path fill="none" stroke="black" d="M32.0602,-1052.02C34.4305,-1073.11 38,-1110.15 38,-1142 38,-1307 38,-1307 38,-1307 38,-1404.66 204.839,-1414.57 260.886,-1415.15"/>
</g>
</g>
</svg>
